%TF.GenerationSoftware,KiCad,Pcbnew,9.0.3*%
%TF.CreationDate,2025-07-16T09:35:22-04:00*%
%TF.ProjectId,board,626f6172-642e-46b6-9963-61645f706362,rev?*%
%TF.SameCoordinates,Original*%
%TF.FileFunction,Legend,Top*%
%TF.FilePolarity,Positive*%
%FSLAX46Y46*%
G04 Gerber Fmt 4.6, Leading zero omitted, Abs format (unit mm)*
G04 Created by KiCad (PCBNEW 9.0.3) date 2025-07-16 09:35:22*
%MOMM*%
%LPD*%
G01*
G04 APERTURE LIST*
%ADD10C,0.150000*%
%ADD11C,0.100000*%
%ADD12C,0.120000*%
%ADD13C,0.191421*%
G04 APERTURE END LIST*
D10*
X155523333Y-72484819D02*
X155190000Y-72008628D01*
X154951905Y-72484819D02*
X154951905Y-71484819D01*
X154951905Y-71484819D02*
X155332857Y-71484819D01*
X155332857Y-71484819D02*
X155428095Y-71532438D01*
X155428095Y-71532438D02*
X155475714Y-71580057D01*
X155475714Y-71580057D02*
X155523333Y-71675295D01*
X155523333Y-71675295D02*
X155523333Y-71818152D01*
X155523333Y-71818152D02*
X155475714Y-71913390D01*
X155475714Y-71913390D02*
X155428095Y-71961009D01*
X155428095Y-71961009D02*
X155332857Y-72008628D01*
X155332857Y-72008628D02*
X154951905Y-72008628D01*
X156428095Y-71484819D02*
X155951905Y-71484819D01*
X155951905Y-71484819D02*
X155904286Y-71961009D01*
X155904286Y-71961009D02*
X155951905Y-71913390D01*
X155951905Y-71913390D02*
X156047143Y-71865771D01*
X156047143Y-71865771D02*
X156285238Y-71865771D01*
X156285238Y-71865771D02*
X156380476Y-71913390D01*
X156380476Y-71913390D02*
X156428095Y-71961009D01*
X156428095Y-71961009D02*
X156475714Y-72056247D01*
X156475714Y-72056247D02*
X156475714Y-72294342D01*
X156475714Y-72294342D02*
X156428095Y-72389580D01*
X156428095Y-72389580D02*
X156380476Y-72437200D01*
X156380476Y-72437200D02*
X156285238Y-72484819D01*
X156285238Y-72484819D02*
X156047143Y-72484819D01*
X156047143Y-72484819D02*
X155951905Y-72437200D01*
X155951905Y-72437200D02*
X155904286Y-72389580D01*
X137962142Y-61989580D02*
X137914523Y-62037200D01*
X137914523Y-62037200D02*
X137771666Y-62084819D01*
X137771666Y-62084819D02*
X137676428Y-62084819D01*
X137676428Y-62084819D02*
X137533571Y-62037200D01*
X137533571Y-62037200D02*
X137438333Y-61941961D01*
X137438333Y-61941961D02*
X137390714Y-61846723D01*
X137390714Y-61846723D02*
X137343095Y-61656247D01*
X137343095Y-61656247D02*
X137343095Y-61513390D01*
X137343095Y-61513390D02*
X137390714Y-61322914D01*
X137390714Y-61322914D02*
X137438333Y-61227676D01*
X137438333Y-61227676D02*
X137533571Y-61132438D01*
X137533571Y-61132438D02*
X137676428Y-61084819D01*
X137676428Y-61084819D02*
X137771666Y-61084819D01*
X137771666Y-61084819D02*
X137914523Y-61132438D01*
X137914523Y-61132438D02*
X137962142Y-61180057D01*
X138343095Y-61180057D02*
X138390714Y-61132438D01*
X138390714Y-61132438D02*
X138485952Y-61084819D01*
X138485952Y-61084819D02*
X138724047Y-61084819D01*
X138724047Y-61084819D02*
X138819285Y-61132438D01*
X138819285Y-61132438D02*
X138866904Y-61180057D01*
X138866904Y-61180057D02*
X138914523Y-61275295D01*
X138914523Y-61275295D02*
X138914523Y-61370533D01*
X138914523Y-61370533D02*
X138866904Y-61513390D01*
X138866904Y-61513390D02*
X138295476Y-62084819D01*
X138295476Y-62084819D02*
X138914523Y-62084819D01*
X139390714Y-62084819D02*
X139581190Y-62084819D01*
X139581190Y-62084819D02*
X139676428Y-62037200D01*
X139676428Y-62037200D02*
X139724047Y-61989580D01*
X139724047Y-61989580D02*
X139819285Y-61846723D01*
X139819285Y-61846723D02*
X139866904Y-61656247D01*
X139866904Y-61656247D02*
X139866904Y-61275295D01*
X139866904Y-61275295D02*
X139819285Y-61180057D01*
X139819285Y-61180057D02*
X139771666Y-61132438D01*
X139771666Y-61132438D02*
X139676428Y-61084819D01*
X139676428Y-61084819D02*
X139485952Y-61084819D01*
X139485952Y-61084819D02*
X139390714Y-61132438D01*
X139390714Y-61132438D02*
X139343095Y-61180057D01*
X139343095Y-61180057D02*
X139295476Y-61275295D01*
X139295476Y-61275295D02*
X139295476Y-61513390D01*
X139295476Y-61513390D02*
X139343095Y-61608628D01*
X139343095Y-61608628D02*
X139390714Y-61656247D01*
X139390714Y-61656247D02*
X139485952Y-61703866D01*
X139485952Y-61703866D02*
X139676428Y-61703866D01*
X139676428Y-61703866D02*
X139771666Y-61656247D01*
X139771666Y-61656247D02*
X139819285Y-61608628D01*
X139819285Y-61608628D02*
X139866904Y-61513390D01*
X136092142Y-72574819D02*
X135758809Y-72098628D01*
X135520714Y-72574819D02*
X135520714Y-71574819D01*
X135520714Y-71574819D02*
X135901666Y-71574819D01*
X135901666Y-71574819D02*
X135996904Y-71622438D01*
X135996904Y-71622438D02*
X136044523Y-71670057D01*
X136044523Y-71670057D02*
X136092142Y-71765295D01*
X136092142Y-71765295D02*
X136092142Y-71908152D01*
X136092142Y-71908152D02*
X136044523Y-72003390D01*
X136044523Y-72003390D02*
X135996904Y-72051009D01*
X135996904Y-72051009D02*
X135901666Y-72098628D01*
X135901666Y-72098628D02*
X135520714Y-72098628D01*
X136473095Y-71670057D02*
X136520714Y-71622438D01*
X136520714Y-71622438D02*
X136615952Y-71574819D01*
X136615952Y-71574819D02*
X136854047Y-71574819D01*
X136854047Y-71574819D02*
X136949285Y-71622438D01*
X136949285Y-71622438D02*
X136996904Y-71670057D01*
X136996904Y-71670057D02*
X137044523Y-71765295D01*
X137044523Y-71765295D02*
X137044523Y-71860533D01*
X137044523Y-71860533D02*
X136996904Y-72003390D01*
X136996904Y-72003390D02*
X136425476Y-72574819D01*
X136425476Y-72574819D02*
X137044523Y-72574819D01*
X137663571Y-71574819D02*
X137758809Y-71574819D01*
X137758809Y-71574819D02*
X137854047Y-71622438D01*
X137854047Y-71622438D02*
X137901666Y-71670057D01*
X137901666Y-71670057D02*
X137949285Y-71765295D01*
X137949285Y-71765295D02*
X137996904Y-71955771D01*
X137996904Y-71955771D02*
X137996904Y-72193866D01*
X137996904Y-72193866D02*
X137949285Y-72384342D01*
X137949285Y-72384342D02*
X137901666Y-72479580D01*
X137901666Y-72479580D02*
X137854047Y-72527200D01*
X137854047Y-72527200D02*
X137758809Y-72574819D01*
X137758809Y-72574819D02*
X137663571Y-72574819D01*
X137663571Y-72574819D02*
X137568333Y-72527200D01*
X137568333Y-72527200D02*
X137520714Y-72479580D01*
X137520714Y-72479580D02*
X137473095Y-72384342D01*
X137473095Y-72384342D02*
X137425476Y-72193866D01*
X137425476Y-72193866D02*
X137425476Y-71955771D01*
X137425476Y-71955771D02*
X137473095Y-71765295D01*
X137473095Y-71765295D02*
X137520714Y-71670057D01*
X137520714Y-71670057D02*
X137568333Y-71622438D01*
X137568333Y-71622438D02*
X137663571Y-71574819D01*
X152469761Y-72630057D02*
X152374523Y-72582438D01*
X152374523Y-72582438D02*
X152279285Y-72487200D01*
X152279285Y-72487200D02*
X152136428Y-72344342D01*
X152136428Y-72344342D02*
X152041190Y-72296723D01*
X152041190Y-72296723D02*
X151945952Y-72296723D01*
X151993571Y-72534819D02*
X151898333Y-72487200D01*
X151898333Y-72487200D02*
X151803095Y-72391961D01*
X151803095Y-72391961D02*
X151755476Y-72201485D01*
X151755476Y-72201485D02*
X151755476Y-71868152D01*
X151755476Y-71868152D02*
X151803095Y-71677676D01*
X151803095Y-71677676D02*
X151898333Y-71582438D01*
X151898333Y-71582438D02*
X151993571Y-71534819D01*
X151993571Y-71534819D02*
X152184047Y-71534819D01*
X152184047Y-71534819D02*
X152279285Y-71582438D01*
X152279285Y-71582438D02*
X152374523Y-71677676D01*
X152374523Y-71677676D02*
X152422142Y-71868152D01*
X152422142Y-71868152D02*
X152422142Y-72201485D01*
X152422142Y-72201485D02*
X152374523Y-72391961D01*
X152374523Y-72391961D02*
X152279285Y-72487200D01*
X152279285Y-72487200D02*
X152184047Y-72534819D01*
X152184047Y-72534819D02*
X151993571Y-72534819D01*
X153374523Y-72534819D02*
X152803095Y-72534819D01*
X153088809Y-72534819D02*
X153088809Y-71534819D01*
X153088809Y-71534819D02*
X152993571Y-71677676D01*
X152993571Y-71677676D02*
X152898333Y-71772914D01*
X152898333Y-71772914D02*
X152803095Y-71820533D01*
X128262142Y-73989580D02*
X128214523Y-74037200D01*
X128214523Y-74037200D02*
X128071666Y-74084819D01*
X128071666Y-74084819D02*
X127976428Y-74084819D01*
X127976428Y-74084819D02*
X127833571Y-74037200D01*
X127833571Y-74037200D02*
X127738333Y-73941961D01*
X127738333Y-73941961D02*
X127690714Y-73846723D01*
X127690714Y-73846723D02*
X127643095Y-73656247D01*
X127643095Y-73656247D02*
X127643095Y-73513390D01*
X127643095Y-73513390D02*
X127690714Y-73322914D01*
X127690714Y-73322914D02*
X127738333Y-73227676D01*
X127738333Y-73227676D02*
X127833571Y-73132438D01*
X127833571Y-73132438D02*
X127976428Y-73084819D01*
X127976428Y-73084819D02*
X128071666Y-73084819D01*
X128071666Y-73084819D02*
X128214523Y-73132438D01*
X128214523Y-73132438D02*
X128262142Y-73180057D01*
X128595476Y-73084819D02*
X129214523Y-73084819D01*
X129214523Y-73084819D02*
X128881190Y-73465771D01*
X128881190Y-73465771D02*
X129024047Y-73465771D01*
X129024047Y-73465771D02*
X129119285Y-73513390D01*
X129119285Y-73513390D02*
X129166904Y-73561009D01*
X129166904Y-73561009D02*
X129214523Y-73656247D01*
X129214523Y-73656247D02*
X129214523Y-73894342D01*
X129214523Y-73894342D02*
X129166904Y-73989580D01*
X129166904Y-73989580D02*
X129119285Y-74037200D01*
X129119285Y-74037200D02*
X129024047Y-74084819D01*
X129024047Y-74084819D02*
X128738333Y-74084819D01*
X128738333Y-74084819D02*
X128643095Y-74037200D01*
X128643095Y-74037200D02*
X128595476Y-73989580D01*
X129690714Y-74084819D02*
X129881190Y-74084819D01*
X129881190Y-74084819D02*
X129976428Y-74037200D01*
X129976428Y-74037200D02*
X130024047Y-73989580D01*
X130024047Y-73989580D02*
X130119285Y-73846723D01*
X130119285Y-73846723D02*
X130166904Y-73656247D01*
X130166904Y-73656247D02*
X130166904Y-73275295D01*
X130166904Y-73275295D02*
X130119285Y-73180057D01*
X130119285Y-73180057D02*
X130071666Y-73132438D01*
X130071666Y-73132438D02*
X129976428Y-73084819D01*
X129976428Y-73084819D02*
X129785952Y-73084819D01*
X129785952Y-73084819D02*
X129690714Y-73132438D01*
X129690714Y-73132438D02*
X129643095Y-73180057D01*
X129643095Y-73180057D02*
X129595476Y-73275295D01*
X129595476Y-73275295D02*
X129595476Y-73513390D01*
X129595476Y-73513390D02*
X129643095Y-73608628D01*
X129643095Y-73608628D02*
X129690714Y-73656247D01*
X129690714Y-73656247D02*
X129785952Y-73703866D01*
X129785952Y-73703866D02*
X129976428Y-73703866D01*
X129976428Y-73703866D02*
X130071666Y-73656247D01*
X130071666Y-73656247D02*
X130119285Y-73608628D01*
X130119285Y-73608628D02*
X130166904Y-73513390D01*
X136092142Y-70584819D02*
X135758809Y-70108628D01*
X135520714Y-70584819D02*
X135520714Y-69584819D01*
X135520714Y-69584819D02*
X135901666Y-69584819D01*
X135901666Y-69584819D02*
X135996904Y-69632438D01*
X135996904Y-69632438D02*
X136044523Y-69680057D01*
X136044523Y-69680057D02*
X136092142Y-69775295D01*
X136092142Y-69775295D02*
X136092142Y-69918152D01*
X136092142Y-69918152D02*
X136044523Y-70013390D01*
X136044523Y-70013390D02*
X135996904Y-70061009D01*
X135996904Y-70061009D02*
X135901666Y-70108628D01*
X135901666Y-70108628D02*
X135520714Y-70108628D01*
X137044523Y-70584819D02*
X136473095Y-70584819D01*
X136758809Y-70584819D02*
X136758809Y-69584819D01*
X136758809Y-69584819D02*
X136663571Y-69727676D01*
X136663571Y-69727676D02*
X136568333Y-69822914D01*
X136568333Y-69822914D02*
X136473095Y-69870533D01*
X137377857Y-69584819D02*
X137996904Y-69584819D01*
X137996904Y-69584819D02*
X137663571Y-69965771D01*
X137663571Y-69965771D02*
X137806428Y-69965771D01*
X137806428Y-69965771D02*
X137901666Y-70013390D01*
X137901666Y-70013390D02*
X137949285Y-70061009D01*
X137949285Y-70061009D02*
X137996904Y-70156247D01*
X137996904Y-70156247D02*
X137996904Y-70394342D01*
X137996904Y-70394342D02*
X137949285Y-70489580D01*
X137949285Y-70489580D02*
X137901666Y-70537200D01*
X137901666Y-70537200D02*
X137806428Y-70584819D01*
X137806428Y-70584819D02*
X137520714Y-70584819D01*
X137520714Y-70584819D02*
X137425476Y-70537200D01*
X137425476Y-70537200D02*
X137377857Y-70489580D01*
X125508333Y-75604819D02*
X125032143Y-75604819D01*
X125032143Y-75604819D02*
X125032143Y-74604819D01*
X125794048Y-74700057D02*
X125841667Y-74652438D01*
X125841667Y-74652438D02*
X125936905Y-74604819D01*
X125936905Y-74604819D02*
X126175000Y-74604819D01*
X126175000Y-74604819D02*
X126270238Y-74652438D01*
X126270238Y-74652438D02*
X126317857Y-74700057D01*
X126317857Y-74700057D02*
X126365476Y-74795295D01*
X126365476Y-74795295D02*
X126365476Y-74890533D01*
X126365476Y-74890533D02*
X126317857Y-75033390D01*
X126317857Y-75033390D02*
X125746429Y-75604819D01*
X125746429Y-75604819D02*
X126365476Y-75604819D01*
X125032142Y-72999580D02*
X124984523Y-73047200D01*
X124984523Y-73047200D02*
X124841666Y-73094819D01*
X124841666Y-73094819D02*
X124746428Y-73094819D01*
X124746428Y-73094819D02*
X124603571Y-73047200D01*
X124603571Y-73047200D02*
X124508333Y-72951961D01*
X124508333Y-72951961D02*
X124460714Y-72856723D01*
X124460714Y-72856723D02*
X124413095Y-72666247D01*
X124413095Y-72666247D02*
X124413095Y-72523390D01*
X124413095Y-72523390D02*
X124460714Y-72332914D01*
X124460714Y-72332914D02*
X124508333Y-72237676D01*
X124508333Y-72237676D02*
X124603571Y-72142438D01*
X124603571Y-72142438D02*
X124746428Y-72094819D01*
X124746428Y-72094819D02*
X124841666Y-72094819D01*
X124841666Y-72094819D02*
X124984523Y-72142438D01*
X124984523Y-72142438D02*
X125032142Y-72190057D01*
X125889285Y-72428152D02*
X125889285Y-73094819D01*
X125651190Y-72047200D02*
X125413095Y-72761485D01*
X125413095Y-72761485D02*
X126032142Y-72761485D01*
X126365476Y-72190057D02*
X126413095Y-72142438D01*
X126413095Y-72142438D02*
X126508333Y-72094819D01*
X126508333Y-72094819D02*
X126746428Y-72094819D01*
X126746428Y-72094819D02*
X126841666Y-72142438D01*
X126841666Y-72142438D02*
X126889285Y-72190057D01*
X126889285Y-72190057D02*
X126936904Y-72285295D01*
X126936904Y-72285295D02*
X126936904Y-72380533D01*
X126936904Y-72380533D02*
X126889285Y-72523390D01*
X126889285Y-72523390D02*
X126317857Y-73094819D01*
X126317857Y-73094819D02*
X126936904Y-73094819D01*
X136092142Y-74684819D02*
X135758809Y-74208628D01*
X135520714Y-74684819D02*
X135520714Y-73684819D01*
X135520714Y-73684819D02*
X135901666Y-73684819D01*
X135901666Y-73684819D02*
X135996904Y-73732438D01*
X135996904Y-73732438D02*
X136044523Y-73780057D01*
X136044523Y-73780057D02*
X136092142Y-73875295D01*
X136092142Y-73875295D02*
X136092142Y-74018152D01*
X136092142Y-74018152D02*
X136044523Y-74113390D01*
X136044523Y-74113390D02*
X135996904Y-74161009D01*
X135996904Y-74161009D02*
X135901666Y-74208628D01*
X135901666Y-74208628D02*
X135520714Y-74208628D01*
X136473095Y-73780057D02*
X136520714Y-73732438D01*
X136520714Y-73732438D02*
X136615952Y-73684819D01*
X136615952Y-73684819D02*
X136854047Y-73684819D01*
X136854047Y-73684819D02*
X136949285Y-73732438D01*
X136949285Y-73732438D02*
X136996904Y-73780057D01*
X136996904Y-73780057D02*
X137044523Y-73875295D01*
X137044523Y-73875295D02*
X137044523Y-73970533D01*
X137044523Y-73970533D02*
X136996904Y-74113390D01*
X136996904Y-74113390D02*
X136425476Y-74684819D01*
X136425476Y-74684819D02*
X137044523Y-74684819D01*
X137996904Y-74684819D02*
X137425476Y-74684819D01*
X137711190Y-74684819D02*
X137711190Y-73684819D01*
X137711190Y-73684819D02*
X137615952Y-73827676D01*
X137615952Y-73827676D02*
X137520714Y-73922914D01*
X137520714Y-73922914D02*
X137425476Y-73970533D01*
X137962142Y-63959580D02*
X137914523Y-64007200D01*
X137914523Y-64007200D02*
X137771666Y-64054819D01*
X137771666Y-64054819D02*
X137676428Y-64054819D01*
X137676428Y-64054819D02*
X137533571Y-64007200D01*
X137533571Y-64007200D02*
X137438333Y-63911961D01*
X137438333Y-63911961D02*
X137390714Y-63816723D01*
X137390714Y-63816723D02*
X137343095Y-63626247D01*
X137343095Y-63626247D02*
X137343095Y-63483390D01*
X137343095Y-63483390D02*
X137390714Y-63292914D01*
X137390714Y-63292914D02*
X137438333Y-63197676D01*
X137438333Y-63197676D02*
X137533571Y-63102438D01*
X137533571Y-63102438D02*
X137676428Y-63054819D01*
X137676428Y-63054819D02*
X137771666Y-63054819D01*
X137771666Y-63054819D02*
X137914523Y-63102438D01*
X137914523Y-63102438D02*
X137962142Y-63150057D01*
X138295476Y-63054819D02*
X138914523Y-63054819D01*
X138914523Y-63054819D02*
X138581190Y-63435771D01*
X138581190Y-63435771D02*
X138724047Y-63435771D01*
X138724047Y-63435771D02*
X138819285Y-63483390D01*
X138819285Y-63483390D02*
X138866904Y-63531009D01*
X138866904Y-63531009D02*
X138914523Y-63626247D01*
X138914523Y-63626247D02*
X138914523Y-63864342D01*
X138914523Y-63864342D02*
X138866904Y-63959580D01*
X138866904Y-63959580D02*
X138819285Y-64007200D01*
X138819285Y-64007200D02*
X138724047Y-64054819D01*
X138724047Y-64054819D02*
X138438333Y-64054819D01*
X138438333Y-64054819D02*
X138343095Y-64007200D01*
X138343095Y-64007200D02*
X138295476Y-63959580D01*
X139247857Y-63054819D02*
X139914523Y-63054819D01*
X139914523Y-63054819D02*
X139485952Y-64054819D01*
X152606667Y-67087200D02*
X152749524Y-67134819D01*
X152749524Y-67134819D02*
X152987619Y-67134819D01*
X152987619Y-67134819D02*
X153082857Y-67087200D01*
X153082857Y-67087200D02*
X153130476Y-67039580D01*
X153130476Y-67039580D02*
X153178095Y-66944342D01*
X153178095Y-66944342D02*
X153178095Y-66849104D01*
X153178095Y-66849104D02*
X153130476Y-66753866D01*
X153130476Y-66753866D02*
X153082857Y-66706247D01*
X153082857Y-66706247D02*
X152987619Y-66658628D01*
X152987619Y-66658628D02*
X152797143Y-66611009D01*
X152797143Y-66611009D02*
X152701905Y-66563390D01*
X152701905Y-66563390D02*
X152654286Y-66515771D01*
X152654286Y-66515771D02*
X152606667Y-66420533D01*
X152606667Y-66420533D02*
X152606667Y-66325295D01*
X152606667Y-66325295D02*
X152654286Y-66230057D01*
X152654286Y-66230057D02*
X152701905Y-66182438D01*
X152701905Y-66182438D02*
X152797143Y-66134819D01*
X152797143Y-66134819D02*
X153035238Y-66134819D01*
X153035238Y-66134819D02*
X153178095Y-66182438D01*
X153511429Y-66134819D02*
X153749524Y-67134819D01*
X153749524Y-67134819D02*
X153940000Y-66420533D01*
X153940000Y-66420533D02*
X154130476Y-67134819D01*
X154130476Y-67134819D02*
X154368572Y-66134819D01*
X154654286Y-66134819D02*
X155273333Y-66134819D01*
X155273333Y-66134819D02*
X154940000Y-66515771D01*
X154940000Y-66515771D02*
X155082857Y-66515771D01*
X155082857Y-66515771D02*
X155178095Y-66563390D01*
X155178095Y-66563390D02*
X155225714Y-66611009D01*
X155225714Y-66611009D02*
X155273333Y-66706247D01*
X155273333Y-66706247D02*
X155273333Y-66944342D01*
X155273333Y-66944342D02*
X155225714Y-67039580D01*
X155225714Y-67039580D02*
X155178095Y-67087200D01*
X155178095Y-67087200D02*
X155082857Y-67134819D01*
X155082857Y-67134819D02*
X154797143Y-67134819D01*
X154797143Y-67134819D02*
X154701905Y-67087200D01*
X154701905Y-67087200D02*
X154654286Y-67039580D01*
X128262142Y-72239580D02*
X128214523Y-72287200D01*
X128214523Y-72287200D02*
X128071666Y-72334819D01*
X128071666Y-72334819D02*
X127976428Y-72334819D01*
X127976428Y-72334819D02*
X127833571Y-72287200D01*
X127833571Y-72287200D02*
X127738333Y-72191961D01*
X127738333Y-72191961D02*
X127690714Y-72096723D01*
X127690714Y-72096723D02*
X127643095Y-71906247D01*
X127643095Y-71906247D02*
X127643095Y-71763390D01*
X127643095Y-71763390D02*
X127690714Y-71572914D01*
X127690714Y-71572914D02*
X127738333Y-71477676D01*
X127738333Y-71477676D02*
X127833571Y-71382438D01*
X127833571Y-71382438D02*
X127976428Y-71334819D01*
X127976428Y-71334819D02*
X128071666Y-71334819D01*
X128071666Y-71334819D02*
X128214523Y-71382438D01*
X128214523Y-71382438D02*
X128262142Y-71430057D01*
X128595476Y-71334819D02*
X129214523Y-71334819D01*
X129214523Y-71334819D02*
X128881190Y-71715771D01*
X128881190Y-71715771D02*
X129024047Y-71715771D01*
X129024047Y-71715771D02*
X129119285Y-71763390D01*
X129119285Y-71763390D02*
X129166904Y-71811009D01*
X129166904Y-71811009D02*
X129214523Y-71906247D01*
X129214523Y-71906247D02*
X129214523Y-72144342D01*
X129214523Y-72144342D02*
X129166904Y-72239580D01*
X129166904Y-72239580D02*
X129119285Y-72287200D01*
X129119285Y-72287200D02*
X129024047Y-72334819D01*
X129024047Y-72334819D02*
X128738333Y-72334819D01*
X128738333Y-72334819D02*
X128643095Y-72287200D01*
X128643095Y-72287200D02*
X128595476Y-72239580D01*
X129785952Y-71763390D02*
X129690714Y-71715771D01*
X129690714Y-71715771D02*
X129643095Y-71668152D01*
X129643095Y-71668152D02*
X129595476Y-71572914D01*
X129595476Y-71572914D02*
X129595476Y-71525295D01*
X129595476Y-71525295D02*
X129643095Y-71430057D01*
X129643095Y-71430057D02*
X129690714Y-71382438D01*
X129690714Y-71382438D02*
X129785952Y-71334819D01*
X129785952Y-71334819D02*
X129976428Y-71334819D01*
X129976428Y-71334819D02*
X130071666Y-71382438D01*
X130071666Y-71382438D02*
X130119285Y-71430057D01*
X130119285Y-71430057D02*
X130166904Y-71525295D01*
X130166904Y-71525295D02*
X130166904Y-71572914D01*
X130166904Y-71572914D02*
X130119285Y-71668152D01*
X130119285Y-71668152D02*
X130071666Y-71715771D01*
X130071666Y-71715771D02*
X129976428Y-71763390D01*
X129976428Y-71763390D02*
X129785952Y-71763390D01*
X129785952Y-71763390D02*
X129690714Y-71811009D01*
X129690714Y-71811009D02*
X129643095Y-71858628D01*
X129643095Y-71858628D02*
X129595476Y-71953866D01*
X129595476Y-71953866D02*
X129595476Y-72144342D01*
X129595476Y-72144342D02*
X129643095Y-72239580D01*
X129643095Y-72239580D02*
X129690714Y-72287200D01*
X129690714Y-72287200D02*
X129785952Y-72334819D01*
X129785952Y-72334819D02*
X129976428Y-72334819D01*
X129976428Y-72334819D02*
X130071666Y-72287200D01*
X130071666Y-72287200D02*
X130119285Y-72239580D01*
X130119285Y-72239580D02*
X130166904Y-72144342D01*
X130166904Y-72144342D02*
X130166904Y-71953866D01*
X130166904Y-71953866D02*
X130119285Y-71858628D01*
X130119285Y-71858628D02*
X130071666Y-71811009D01*
X130071666Y-71811009D02*
X129976428Y-71763390D01*
X128738333Y-75834819D02*
X128405000Y-75358628D01*
X128166905Y-75834819D02*
X128166905Y-74834819D01*
X128166905Y-74834819D02*
X128547857Y-74834819D01*
X128547857Y-74834819D02*
X128643095Y-74882438D01*
X128643095Y-74882438D02*
X128690714Y-74930057D01*
X128690714Y-74930057D02*
X128738333Y-75025295D01*
X128738333Y-75025295D02*
X128738333Y-75168152D01*
X128738333Y-75168152D02*
X128690714Y-75263390D01*
X128690714Y-75263390D02*
X128643095Y-75311009D01*
X128643095Y-75311009D02*
X128547857Y-75358628D01*
X128547857Y-75358628D02*
X128166905Y-75358628D01*
X129595476Y-74834819D02*
X129405000Y-74834819D01*
X129405000Y-74834819D02*
X129309762Y-74882438D01*
X129309762Y-74882438D02*
X129262143Y-74930057D01*
X129262143Y-74930057D02*
X129166905Y-75072914D01*
X129166905Y-75072914D02*
X129119286Y-75263390D01*
X129119286Y-75263390D02*
X129119286Y-75644342D01*
X129119286Y-75644342D02*
X129166905Y-75739580D01*
X129166905Y-75739580D02*
X129214524Y-75787200D01*
X129214524Y-75787200D02*
X129309762Y-75834819D01*
X129309762Y-75834819D02*
X129500238Y-75834819D01*
X129500238Y-75834819D02*
X129595476Y-75787200D01*
X129595476Y-75787200D02*
X129643095Y-75739580D01*
X129643095Y-75739580D02*
X129690714Y-75644342D01*
X129690714Y-75644342D02*
X129690714Y-75406247D01*
X129690714Y-75406247D02*
X129643095Y-75311009D01*
X129643095Y-75311009D02*
X129595476Y-75263390D01*
X129595476Y-75263390D02*
X129500238Y-75215771D01*
X129500238Y-75215771D02*
X129309762Y-75215771D01*
X129309762Y-75215771D02*
X129214524Y-75263390D01*
X129214524Y-75263390D02*
X129166905Y-75311009D01*
X129166905Y-75311009D02*
X129119286Y-75406247D01*
X137962142Y-66039580D02*
X137914523Y-66087200D01*
X137914523Y-66087200D02*
X137771666Y-66134819D01*
X137771666Y-66134819D02*
X137676428Y-66134819D01*
X137676428Y-66134819D02*
X137533571Y-66087200D01*
X137533571Y-66087200D02*
X137438333Y-65991961D01*
X137438333Y-65991961D02*
X137390714Y-65896723D01*
X137390714Y-65896723D02*
X137343095Y-65706247D01*
X137343095Y-65706247D02*
X137343095Y-65563390D01*
X137343095Y-65563390D02*
X137390714Y-65372914D01*
X137390714Y-65372914D02*
X137438333Y-65277676D01*
X137438333Y-65277676D02*
X137533571Y-65182438D01*
X137533571Y-65182438D02*
X137676428Y-65134819D01*
X137676428Y-65134819D02*
X137771666Y-65134819D01*
X137771666Y-65134819D02*
X137914523Y-65182438D01*
X137914523Y-65182438D02*
X137962142Y-65230057D01*
X138819285Y-65468152D02*
X138819285Y-66134819D01*
X138581190Y-65087200D02*
X138343095Y-65801485D01*
X138343095Y-65801485D02*
X138962142Y-65801485D01*
X139866904Y-66134819D02*
X139295476Y-66134819D01*
X139581190Y-66134819D02*
X139581190Y-65134819D01*
X139581190Y-65134819D02*
X139485952Y-65277676D01*
X139485952Y-65277676D02*
X139390714Y-65372914D01*
X139390714Y-65372914D02*
X139295476Y-65420533D01*
D11*
X129205714Y-65762419D02*
X129205714Y-64762419D01*
X129205714Y-64762419D02*
X129443809Y-64762419D01*
X129443809Y-64762419D02*
X129586666Y-64810038D01*
X129586666Y-64810038D02*
X129681904Y-64905276D01*
X129681904Y-64905276D02*
X129729523Y-65000514D01*
X129729523Y-65000514D02*
X129777142Y-65190990D01*
X129777142Y-65190990D02*
X129777142Y-65333847D01*
X129777142Y-65333847D02*
X129729523Y-65524323D01*
X129729523Y-65524323D02*
X129681904Y-65619561D01*
X129681904Y-65619561D02*
X129586666Y-65714800D01*
X129586666Y-65714800D02*
X129443809Y-65762419D01*
X129443809Y-65762419D02*
X129205714Y-65762419D01*
X130158095Y-65714800D02*
X130300952Y-65762419D01*
X130300952Y-65762419D02*
X130539047Y-65762419D01*
X130539047Y-65762419D02*
X130634285Y-65714800D01*
X130634285Y-65714800D02*
X130681904Y-65667180D01*
X130681904Y-65667180D02*
X130729523Y-65571942D01*
X130729523Y-65571942D02*
X130729523Y-65476704D01*
X130729523Y-65476704D02*
X130681904Y-65381466D01*
X130681904Y-65381466D02*
X130634285Y-65333847D01*
X130634285Y-65333847D02*
X130539047Y-65286228D01*
X130539047Y-65286228D02*
X130348571Y-65238609D01*
X130348571Y-65238609D02*
X130253333Y-65190990D01*
X130253333Y-65190990D02*
X130205714Y-65143371D01*
X130205714Y-65143371D02*
X130158095Y-65048133D01*
X130158095Y-65048133D02*
X130158095Y-64952895D01*
X130158095Y-64952895D02*
X130205714Y-64857657D01*
X130205714Y-64857657D02*
X130253333Y-64810038D01*
X130253333Y-64810038D02*
X130348571Y-64762419D01*
X130348571Y-64762419D02*
X130586666Y-64762419D01*
X130586666Y-64762419D02*
X130729523Y-64810038D01*
X131110476Y-64857657D02*
X131158095Y-64810038D01*
X131158095Y-64810038D02*
X131253333Y-64762419D01*
X131253333Y-64762419D02*
X131491428Y-64762419D01*
X131491428Y-64762419D02*
X131586666Y-64810038D01*
X131586666Y-64810038D02*
X131634285Y-64857657D01*
X131634285Y-64857657D02*
X131681904Y-64952895D01*
X131681904Y-64952895D02*
X131681904Y-65048133D01*
X131681904Y-65048133D02*
X131634285Y-65190990D01*
X131634285Y-65190990D02*
X131062857Y-65762419D01*
X131062857Y-65762419D02*
X131681904Y-65762419D01*
D10*
X125032142Y-70489580D02*
X124984523Y-70537200D01*
X124984523Y-70537200D02*
X124841666Y-70584819D01*
X124841666Y-70584819D02*
X124746428Y-70584819D01*
X124746428Y-70584819D02*
X124603571Y-70537200D01*
X124603571Y-70537200D02*
X124508333Y-70441961D01*
X124508333Y-70441961D02*
X124460714Y-70346723D01*
X124460714Y-70346723D02*
X124413095Y-70156247D01*
X124413095Y-70156247D02*
X124413095Y-70013390D01*
X124413095Y-70013390D02*
X124460714Y-69822914D01*
X124460714Y-69822914D02*
X124508333Y-69727676D01*
X124508333Y-69727676D02*
X124603571Y-69632438D01*
X124603571Y-69632438D02*
X124746428Y-69584819D01*
X124746428Y-69584819D02*
X124841666Y-69584819D01*
X124841666Y-69584819D02*
X124984523Y-69632438D01*
X124984523Y-69632438D02*
X125032142Y-69680057D01*
X125889285Y-69918152D02*
X125889285Y-70584819D01*
X125651190Y-69537200D02*
X125413095Y-70251485D01*
X125413095Y-70251485D02*
X126032142Y-70251485D01*
X126603571Y-69584819D02*
X126698809Y-69584819D01*
X126698809Y-69584819D02*
X126794047Y-69632438D01*
X126794047Y-69632438D02*
X126841666Y-69680057D01*
X126841666Y-69680057D02*
X126889285Y-69775295D01*
X126889285Y-69775295D02*
X126936904Y-69965771D01*
X126936904Y-69965771D02*
X126936904Y-70203866D01*
X126936904Y-70203866D02*
X126889285Y-70394342D01*
X126889285Y-70394342D02*
X126841666Y-70489580D01*
X126841666Y-70489580D02*
X126794047Y-70537200D01*
X126794047Y-70537200D02*
X126698809Y-70584819D01*
X126698809Y-70584819D02*
X126603571Y-70584819D01*
X126603571Y-70584819D02*
X126508333Y-70537200D01*
X126508333Y-70537200D02*
X126460714Y-70489580D01*
X126460714Y-70489580D02*
X126413095Y-70394342D01*
X126413095Y-70394342D02*
X126365476Y-70203866D01*
X126365476Y-70203866D02*
X126365476Y-69965771D01*
X126365476Y-69965771D02*
X126413095Y-69775295D01*
X126413095Y-69775295D02*
X126460714Y-69680057D01*
X126460714Y-69680057D02*
X126508333Y-69632438D01*
X126508333Y-69632438D02*
X126603571Y-69584819D01*
X128262142Y-77584819D02*
X127928809Y-77108628D01*
X127690714Y-77584819D02*
X127690714Y-76584819D01*
X127690714Y-76584819D02*
X128071666Y-76584819D01*
X128071666Y-76584819D02*
X128166904Y-76632438D01*
X128166904Y-76632438D02*
X128214523Y-76680057D01*
X128214523Y-76680057D02*
X128262142Y-76775295D01*
X128262142Y-76775295D02*
X128262142Y-76918152D01*
X128262142Y-76918152D02*
X128214523Y-77013390D01*
X128214523Y-77013390D02*
X128166904Y-77061009D01*
X128166904Y-77061009D02*
X128071666Y-77108628D01*
X128071666Y-77108628D02*
X127690714Y-77108628D01*
X129214523Y-77584819D02*
X128643095Y-77584819D01*
X128928809Y-77584819D02*
X128928809Y-76584819D01*
X128928809Y-76584819D02*
X128833571Y-76727676D01*
X128833571Y-76727676D02*
X128738333Y-76822914D01*
X128738333Y-76822914D02*
X128643095Y-76870533D01*
X129595476Y-76680057D02*
X129643095Y-76632438D01*
X129643095Y-76632438D02*
X129738333Y-76584819D01*
X129738333Y-76584819D02*
X129976428Y-76584819D01*
X129976428Y-76584819D02*
X130071666Y-76632438D01*
X130071666Y-76632438D02*
X130119285Y-76680057D01*
X130119285Y-76680057D02*
X130166904Y-76775295D01*
X130166904Y-76775295D02*
X130166904Y-76870533D01*
X130166904Y-76870533D02*
X130119285Y-77013390D01*
X130119285Y-77013390D02*
X129547857Y-77584819D01*
X129547857Y-77584819D02*
X130166904Y-77584819D01*
X131943095Y-69759819D02*
X131943095Y-70569342D01*
X131943095Y-70569342D02*
X131990714Y-70664580D01*
X131990714Y-70664580D02*
X132038333Y-70712200D01*
X132038333Y-70712200D02*
X132133571Y-70759819D01*
X132133571Y-70759819D02*
X132324047Y-70759819D01*
X132324047Y-70759819D02*
X132419285Y-70712200D01*
X132419285Y-70712200D02*
X132466904Y-70664580D01*
X132466904Y-70664580D02*
X132514523Y-70569342D01*
X132514523Y-70569342D02*
X132514523Y-69759819D01*
X133038333Y-70759819D02*
X133228809Y-70759819D01*
X133228809Y-70759819D02*
X133324047Y-70712200D01*
X133324047Y-70712200D02*
X133371666Y-70664580D01*
X133371666Y-70664580D02*
X133466904Y-70521723D01*
X133466904Y-70521723D02*
X133514523Y-70331247D01*
X133514523Y-70331247D02*
X133514523Y-69950295D01*
X133514523Y-69950295D02*
X133466904Y-69855057D01*
X133466904Y-69855057D02*
X133419285Y-69807438D01*
X133419285Y-69807438D02*
X133324047Y-69759819D01*
X133324047Y-69759819D02*
X133133571Y-69759819D01*
X133133571Y-69759819D02*
X133038333Y-69807438D01*
X133038333Y-69807438D02*
X132990714Y-69855057D01*
X132990714Y-69855057D02*
X132943095Y-69950295D01*
X132943095Y-69950295D02*
X132943095Y-70188390D01*
X132943095Y-70188390D02*
X132990714Y-70283628D01*
X132990714Y-70283628D02*
X133038333Y-70331247D01*
X133038333Y-70331247D02*
X133133571Y-70378866D01*
X133133571Y-70378866D02*
X133324047Y-70378866D01*
X133324047Y-70378866D02*
X133419285Y-70331247D01*
X133419285Y-70331247D02*
X133466904Y-70283628D01*
X133466904Y-70283628D02*
X133514523Y-70188390D01*
X136711905Y-76354819D02*
X136711905Y-75354819D01*
X136711905Y-75354819D02*
X136950000Y-75354819D01*
X136950000Y-75354819D02*
X137092857Y-75402438D01*
X137092857Y-75402438D02*
X137188095Y-75497676D01*
X137188095Y-75497676D02*
X137235714Y-75592914D01*
X137235714Y-75592914D02*
X137283333Y-75783390D01*
X137283333Y-75783390D02*
X137283333Y-75926247D01*
X137283333Y-75926247D02*
X137235714Y-76116723D01*
X137235714Y-76116723D02*
X137188095Y-76211961D01*
X137188095Y-76211961D02*
X137092857Y-76307200D01*
X137092857Y-76307200D02*
X136950000Y-76354819D01*
X136950000Y-76354819D02*
X136711905Y-76354819D01*
X138235714Y-76354819D02*
X137664286Y-76354819D01*
X137950000Y-76354819D02*
X137950000Y-75354819D01*
X137950000Y-75354819D02*
X137854762Y-75497676D01*
X137854762Y-75497676D02*
X137759524Y-75592914D01*
X137759524Y-75592914D02*
X137664286Y-75640533D01*
X130893095Y-74406819D02*
X131464523Y-74406819D01*
X131178809Y-75406819D02*
X131178809Y-74406819D01*
X131797857Y-75406819D02*
X131797857Y-74406819D01*
X131797857Y-74406819D02*
X132178809Y-74406819D01*
X132178809Y-74406819D02*
X132274047Y-74454438D01*
X132274047Y-74454438D02*
X132321666Y-74502057D01*
X132321666Y-74502057D02*
X132369285Y-74597295D01*
X132369285Y-74597295D02*
X132369285Y-74740152D01*
X132369285Y-74740152D02*
X132321666Y-74835390D01*
X132321666Y-74835390D02*
X132274047Y-74883009D01*
X132274047Y-74883009D02*
X132178809Y-74930628D01*
X132178809Y-74930628D02*
X131797857Y-74930628D01*
X133226428Y-74406819D02*
X133035952Y-74406819D01*
X133035952Y-74406819D02*
X132940714Y-74454438D01*
X132940714Y-74454438D02*
X132893095Y-74502057D01*
X132893095Y-74502057D02*
X132797857Y-74644914D01*
X132797857Y-74644914D02*
X132750238Y-74835390D01*
X132750238Y-74835390D02*
X132750238Y-75216342D01*
X132750238Y-75216342D02*
X132797857Y-75311580D01*
X132797857Y-75311580D02*
X132845476Y-75359200D01*
X132845476Y-75359200D02*
X132940714Y-75406819D01*
X132940714Y-75406819D02*
X133131190Y-75406819D01*
X133131190Y-75406819D02*
X133226428Y-75359200D01*
X133226428Y-75359200D02*
X133274047Y-75311580D01*
X133274047Y-75311580D02*
X133321666Y-75216342D01*
X133321666Y-75216342D02*
X133321666Y-74978247D01*
X133321666Y-74978247D02*
X133274047Y-74883009D01*
X133274047Y-74883009D02*
X133226428Y-74835390D01*
X133226428Y-74835390D02*
X133131190Y-74787771D01*
X133131190Y-74787771D02*
X132940714Y-74787771D01*
X132940714Y-74787771D02*
X132845476Y-74835390D01*
X132845476Y-74835390D02*
X132797857Y-74883009D01*
X132797857Y-74883009D02*
X132750238Y-74978247D01*
X128262142Y-70489580D02*
X128214523Y-70537200D01*
X128214523Y-70537200D02*
X128071666Y-70584819D01*
X128071666Y-70584819D02*
X127976428Y-70584819D01*
X127976428Y-70584819D02*
X127833571Y-70537200D01*
X127833571Y-70537200D02*
X127738333Y-70441961D01*
X127738333Y-70441961D02*
X127690714Y-70346723D01*
X127690714Y-70346723D02*
X127643095Y-70156247D01*
X127643095Y-70156247D02*
X127643095Y-70013390D01*
X127643095Y-70013390D02*
X127690714Y-69822914D01*
X127690714Y-69822914D02*
X127738333Y-69727676D01*
X127738333Y-69727676D02*
X127833571Y-69632438D01*
X127833571Y-69632438D02*
X127976428Y-69584819D01*
X127976428Y-69584819D02*
X128071666Y-69584819D01*
X128071666Y-69584819D02*
X128214523Y-69632438D01*
X128214523Y-69632438D02*
X128262142Y-69680057D01*
X128595476Y-69584819D02*
X129214523Y-69584819D01*
X129214523Y-69584819D02*
X128881190Y-69965771D01*
X128881190Y-69965771D02*
X129024047Y-69965771D01*
X129024047Y-69965771D02*
X129119285Y-70013390D01*
X129119285Y-70013390D02*
X129166904Y-70061009D01*
X129166904Y-70061009D02*
X129214523Y-70156247D01*
X129214523Y-70156247D02*
X129214523Y-70394342D01*
X129214523Y-70394342D02*
X129166904Y-70489580D01*
X129166904Y-70489580D02*
X129119285Y-70537200D01*
X129119285Y-70537200D02*
X129024047Y-70584819D01*
X129024047Y-70584819D02*
X128738333Y-70584819D01*
X128738333Y-70584819D02*
X128643095Y-70537200D01*
X128643095Y-70537200D02*
X128595476Y-70489580D01*
X129547857Y-69584819D02*
X130166904Y-69584819D01*
X130166904Y-69584819D02*
X129833571Y-69965771D01*
X129833571Y-69965771D02*
X129976428Y-69965771D01*
X129976428Y-69965771D02*
X130071666Y-70013390D01*
X130071666Y-70013390D02*
X130119285Y-70061009D01*
X130119285Y-70061009D02*
X130166904Y-70156247D01*
X130166904Y-70156247D02*
X130166904Y-70394342D01*
X130166904Y-70394342D02*
X130119285Y-70489580D01*
X130119285Y-70489580D02*
X130071666Y-70537200D01*
X130071666Y-70537200D02*
X129976428Y-70584819D01*
X129976428Y-70584819D02*
X129690714Y-70584819D01*
X129690714Y-70584819D02*
X129595476Y-70537200D01*
X129595476Y-70537200D02*
X129547857Y-70489580D01*
D12*
%TO.C,SW1*%
X36800000Y-36800000D02*
X36800000Y-22600000D01*
X36800000Y-22600000D02*
X22600000Y-22600000D01*
X22600000Y-22600000D02*
X22600000Y-36800000D01*
X22600000Y-36800000D02*
X36800000Y-36800000D01*
%TO.C,SW2*%
X103400000Y-36800000D02*
X103400000Y-22600000D01*
X103400000Y-22600000D02*
X89200000Y-22600000D01*
X89200000Y-22600000D02*
X89200000Y-36800000D01*
X89200000Y-36800000D02*
X103400000Y-36800000D01*
%TO.C,R5*%
X155536359Y-72820000D02*
X155843641Y-72820000D01*
X155536359Y-73580000D02*
X155843641Y-73580000D01*
%TO.C,C29*%
X138497164Y-62430000D02*
X138712836Y-62430000D01*
X138497164Y-63150000D02*
X138712836Y-63150000D01*
%TO.C,R20*%
X136581359Y-72910000D02*
X136888641Y-72910000D01*
X136581359Y-73670000D02*
X136888641Y-73670000D01*
%TO.C,Q1*%
X153215000Y-72880000D02*
X151915000Y-72880000D01*
X153215000Y-74680000D02*
X151915000Y-74680000D01*
D10*
X151390000Y-73270000D02*
G75*
G02*
X151240000Y-73270000I-75000J0D01*
G01*
X151240000Y-73270000D02*
G75*
G02*
X151390000Y-73270000I75000J0D01*
G01*
D12*
%TO.C,R13*%
X136581359Y-70920000D02*
X136888641Y-70920000D01*
X136581359Y-71680000D02*
X136888641Y-71680000D01*
%TO.C,L2*%
X125512221Y-76070000D02*
X125837779Y-76070000D01*
X125512221Y-77090000D02*
X125837779Y-77090000D01*
%TO.C,C42*%
X125534420Y-73560000D02*
X125815580Y-73560000D01*
X125534420Y-74580000D02*
X125815580Y-74580000D01*
%TO.C,C37*%
X138497164Y-64400000D02*
X138712836Y-64400000D01*
X138497164Y-65120000D02*
X138712836Y-65120000D01*
%TO.C,SW3*%
X151730000Y-67720000D02*
X152830000Y-67720000D01*
X151730000Y-69240000D02*
X151730000Y-69320000D01*
X155050000Y-67720000D02*
X156150000Y-67720000D01*
X156150000Y-69240000D02*
X156150000Y-69320000D01*
D11*
%TO.C,DS2*%
X124220000Y-69205000D02*
X124220000Y-67905000D01*
X124937157Y-65422157D02*
X125502843Y-65987843D01*
X124937157Y-65987843D02*
X125502843Y-65422157D01*
X125620000Y-69705000D02*
X124720000Y-69705000D01*
X135220000Y-69705000D02*
X136120000Y-69705000D01*
X135337157Y-65422157D02*
X135902843Y-65987843D01*
X135337157Y-65987843D02*
X135902843Y-65422157D01*
X136620000Y-69205000D02*
X136620000Y-67905000D01*
X124720000Y-69705000D02*
G75*
G02*
X124220000Y-69205000I1J500001D01*
G01*
X136620000Y-69205000D02*
G75*
G02*
X136120000Y-69705000I-500000J0D01*
G01*
D13*
X126315710Y-67305000D02*
G75*
G02*
X126124290Y-67305000I-95710J0D01*
G01*
X126124290Y-67305000D02*
G75*
G02*
X126315710Y-67305000I95710J0D01*
G01*
D12*
%TO.C,C40*%
X125534420Y-71050000D02*
X125815580Y-71050000D01*
X125534420Y-72070000D02*
X125815580Y-72070000D01*
%TO.C,U9*%
X132705000Y-71145000D02*
X131905000Y-71145000D01*
X132705000Y-71145000D02*
X133505000Y-71145000D01*
X132705000Y-74265000D02*
X131905000Y-74265000D01*
X132705000Y-74265000D02*
X133505000Y-74265000D01*
X131405000Y-71195000D02*
X131165000Y-70865000D01*
X131645000Y-70865000D01*
X131405000Y-71195000D01*
G36*
X131405000Y-71195000D02*
G01*
X131165000Y-70865000D01*
X131645000Y-70865000D01*
X131405000Y-71195000D01*
G37*
%TO.C,D1*%
X135840000Y-76900000D02*
X135840000Y-78600000D01*
X135840000Y-76900000D02*
X138500000Y-76900000D01*
X135840000Y-78600000D02*
X138500000Y-78600000D01*
%TO.C,TP6*%
X133355000Y-76950000D02*
G75*
G02*
X130955000Y-76950000I-1200000J0D01*
G01*
X130955000Y-76950000D02*
G75*
G02*
X133355000Y-76950000I1200000J0D01*
G01*
%TD*%
M02*
