%TF.GenerationSoftware,KiCad,Pcbnew,9.0.3*%
%TF.CreationDate,2025-07-16T09:35:22-04:00*%
%TF.ProjectId,board,626f6172-642e-46b6-9963-61645f706362,rev?*%
%TF.SameCoordinates,Original*%
%TF.FileFunction,Legend,Bot*%
%TF.FilePolarity,Positive*%
%FSLAX46Y46*%
G04 Gerber Fmt 4.6, Leading zero omitted, Abs format (unit mm)*
G04 Created by KiCad (PCBNEW 9.0.3) date 2025-07-16 09:35:22*
%MOMM*%
%LPD*%
G01*
G04 APERTURE LIST*
%ADD10C,0.100000*%
%ADD11C,0.150000*%
%ADD12C,0.120000*%
%ADD13C,0.200000*%
G04 APERTURE END LIST*
D10*
X200400000Y-37850000D02*
X200400000Y-38150000D01*
X200550000Y-38000000D02*
X200250000Y-38000000D01*
D11*
X228911904Y-60806819D02*
X228340476Y-60806819D01*
X228626190Y-61806819D02*
X228626190Y-60806819D01*
X228007142Y-61806819D02*
X228007142Y-60806819D01*
X228007142Y-60806819D02*
X227626190Y-60806819D01*
X227626190Y-60806819D02*
X227530952Y-60854438D01*
X227530952Y-60854438D02*
X227483333Y-60902057D01*
X227483333Y-60902057D02*
X227435714Y-60997295D01*
X227435714Y-60997295D02*
X227435714Y-61140152D01*
X227435714Y-61140152D02*
X227483333Y-61235390D01*
X227483333Y-61235390D02*
X227530952Y-61283009D01*
X227530952Y-61283009D02*
X227626190Y-61330628D01*
X227626190Y-61330628D02*
X228007142Y-61330628D01*
X226530952Y-60806819D02*
X227007142Y-60806819D01*
X227007142Y-60806819D02*
X227054761Y-61283009D01*
X227054761Y-61283009D02*
X227007142Y-61235390D01*
X227007142Y-61235390D02*
X226911904Y-61187771D01*
X226911904Y-61187771D02*
X226673809Y-61187771D01*
X226673809Y-61187771D02*
X226578571Y-61235390D01*
X226578571Y-61235390D02*
X226530952Y-61283009D01*
X226530952Y-61283009D02*
X226483333Y-61378247D01*
X226483333Y-61378247D02*
X226483333Y-61616342D01*
X226483333Y-61616342D02*
X226530952Y-61711580D01*
X226530952Y-61711580D02*
X226578571Y-61759200D01*
X226578571Y-61759200D02*
X226673809Y-61806819D01*
X226673809Y-61806819D02*
X226911904Y-61806819D01*
X226911904Y-61806819D02*
X227007142Y-61759200D01*
X227007142Y-61759200D02*
X227054761Y-61711580D01*
X217311904Y-65006819D02*
X216740476Y-65006819D01*
X217026190Y-66006819D02*
X217026190Y-65006819D01*
X216407142Y-66006819D02*
X216407142Y-65006819D01*
X216407142Y-65006819D02*
X216026190Y-65006819D01*
X216026190Y-65006819D02*
X215930952Y-65054438D01*
X215930952Y-65054438D02*
X215883333Y-65102057D01*
X215883333Y-65102057D02*
X215835714Y-65197295D01*
X215835714Y-65197295D02*
X215835714Y-65340152D01*
X215835714Y-65340152D02*
X215883333Y-65435390D01*
X215883333Y-65435390D02*
X215930952Y-65483009D01*
X215930952Y-65483009D02*
X216026190Y-65530628D01*
X216026190Y-65530628D02*
X216407142Y-65530628D01*
X214978571Y-65340152D02*
X214978571Y-66006819D01*
X215216666Y-64959200D02*
X215454761Y-65673485D01*
X215454761Y-65673485D02*
X214835714Y-65673485D01*
X158011904Y-37854820D02*
X158011904Y-38664343D01*
X158011904Y-38664343D02*
X157964285Y-38759581D01*
X157964285Y-38759581D02*
X157916666Y-38807201D01*
X157916666Y-38807201D02*
X157821428Y-38854820D01*
X157821428Y-38854820D02*
X157630952Y-38854820D01*
X157630952Y-38854820D02*
X157535714Y-38807201D01*
X157535714Y-38807201D02*
X157488095Y-38759581D01*
X157488095Y-38759581D02*
X157440476Y-38664343D01*
X157440476Y-38664343D02*
X157440476Y-37854820D01*
X156488095Y-37854820D02*
X156964285Y-37854820D01*
X156964285Y-37854820D02*
X157011904Y-38331010D01*
X157011904Y-38331010D02*
X156964285Y-38283391D01*
X156964285Y-38283391D02*
X156869047Y-38235772D01*
X156869047Y-38235772D02*
X156630952Y-38235772D01*
X156630952Y-38235772D02*
X156535714Y-38283391D01*
X156535714Y-38283391D02*
X156488095Y-38331010D01*
X156488095Y-38331010D02*
X156440476Y-38426248D01*
X156440476Y-38426248D02*
X156440476Y-38664343D01*
X156440476Y-38664343D02*
X156488095Y-38759581D01*
X156488095Y-38759581D02*
X156535714Y-38807201D01*
X156535714Y-38807201D02*
X156630952Y-38854820D01*
X156630952Y-38854820D02*
X156869047Y-38854820D01*
X156869047Y-38854820D02*
X156964285Y-38807201D01*
X156964285Y-38807201D02*
X157011904Y-38759581D01*
X221361904Y-60956819D02*
X220790476Y-60956819D01*
X221076190Y-61956819D02*
X221076190Y-60956819D01*
X220457142Y-61956819D02*
X220457142Y-60956819D01*
X220457142Y-60956819D02*
X220076190Y-60956819D01*
X220076190Y-60956819D02*
X219980952Y-61004438D01*
X219980952Y-61004438D02*
X219933333Y-61052057D01*
X219933333Y-61052057D02*
X219885714Y-61147295D01*
X219885714Y-61147295D02*
X219885714Y-61290152D01*
X219885714Y-61290152D02*
X219933333Y-61385390D01*
X219933333Y-61385390D02*
X219980952Y-61433009D01*
X219980952Y-61433009D02*
X220076190Y-61480628D01*
X220076190Y-61480628D02*
X220457142Y-61480628D01*
X219552380Y-60956819D02*
X218885714Y-60956819D01*
X218885714Y-60956819D02*
X219314285Y-61956819D01*
X225411904Y-60956819D02*
X224840476Y-60956819D01*
X225126190Y-61956819D02*
X225126190Y-60956819D01*
X224507142Y-61956819D02*
X224507142Y-60956819D01*
X224507142Y-60956819D02*
X224126190Y-60956819D01*
X224126190Y-60956819D02*
X224030952Y-61004438D01*
X224030952Y-61004438D02*
X223983333Y-61052057D01*
X223983333Y-61052057D02*
X223935714Y-61147295D01*
X223935714Y-61147295D02*
X223935714Y-61290152D01*
X223935714Y-61290152D02*
X223983333Y-61385390D01*
X223983333Y-61385390D02*
X224030952Y-61433009D01*
X224030952Y-61433009D02*
X224126190Y-61480628D01*
X224126190Y-61480628D02*
X224507142Y-61480628D01*
X223459523Y-61956819D02*
X223269047Y-61956819D01*
X223269047Y-61956819D02*
X223173809Y-61909200D01*
X223173809Y-61909200D02*
X223126190Y-61861580D01*
X223126190Y-61861580D02*
X223030952Y-61718723D01*
X223030952Y-61718723D02*
X222983333Y-61528247D01*
X222983333Y-61528247D02*
X222983333Y-61147295D01*
X222983333Y-61147295D02*
X223030952Y-61052057D01*
X223030952Y-61052057D02*
X223078571Y-61004438D01*
X223078571Y-61004438D02*
X223173809Y-60956819D01*
X223173809Y-60956819D02*
X223364285Y-60956819D01*
X223364285Y-60956819D02*
X223459523Y-61004438D01*
X223459523Y-61004438D02*
X223507142Y-61052057D01*
X223507142Y-61052057D02*
X223554761Y-61147295D01*
X223554761Y-61147295D02*
X223554761Y-61385390D01*
X223554761Y-61385390D02*
X223507142Y-61480628D01*
X223507142Y-61480628D02*
X223459523Y-61528247D01*
X223459523Y-61528247D02*
X223364285Y-61575866D01*
X223364285Y-61575866D02*
X223173809Y-61575866D01*
X223173809Y-61575866D02*
X223078571Y-61528247D01*
X223078571Y-61528247D02*
X223030952Y-61480628D01*
X223030952Y-61480628D02*
X222983333Y-61385390D01*
X217311904Y-60956819D02*
X216740476Y-60956819D01*
X217026190Y-61956819D02*
X217026190Y-60956819D01*
X216407142Y-61956819D02*
X216407142Y-60956819D01*
X216407142Y-60956819D02*
X216026190Y-60956819D01*
X216026190Y-60956819D02*
X215930952Y-61004438D01*
X215930952Y-61004438D02*
X215883333Y-61052057D01*
X215883333Y-61052057D02*
X215835714Y-61147295D01*
X215835714Y-61147295D02*
X215835714Y-61290152D01*
X215835714Y-61290152D02*
X215883333Y-61385390D01*
X215883333Y-61385390D02*
X215930952Y-61433009D01*
X215930952Y-61433009D02*
X216026190Y-61480628D01*
X216026190Y-61480628D02*
X216407142Y-61480628D01*
X215502380Y-60956819D02*
X214883333Y-60956819D01*
X214883333Y-60956819D02*
X215216666Y-61337771D01*
X215216666Y-61337771D02*
X215073809Y-61337771D01*
X215073809Y-61337771D02*
X214978571Y-61385390D01*
X214978571Y-61385390D02*
X214930952Y-61433009D01*
X214930952Y-61433009D02*
X214883333Y-61528247D01*
X214883333Y-61528247D02*
X214883333Y-61766342D01*
X214883333Y-61766342D02*
X214930952Y-61861580D01*
X214930952Y-61861580D02*
X214978571Y-61909200D01*
X214978571Y-61909200D02*
X215073809Y-61956819D01*
X215073809Y-61956819D02*
X215359523Y-61956819D01*
X215359523Y-61956819D02*
X215454761Y-61909200D01*
X215454761Y-61909200D02*
X215502380Y-61861580D01*
X225888094Y-65006819D02*
X225316666Y-65006819D01*
X225602380Y-66006819D02*
X225602380Y-65006819D01*
X224983332Y-66006819D02*
X224983332Y-65006819D01*
X224983332Y-65006819D02*
X224602380Y-65006819D01*
X224602380Y-65006819D02*
X224507142Y-65054438D01*
X224507142Y-65054438D02*
X224459523Y-65102057D01*
X224459523Y-65102057D02*
X224411904Y-65197295D01*
X224411904Y-65197295D02*
X224411904Y-65340152D01*
X224411904Y-65340152D02*
X224459523Y-65435390D01*
X224459523Y-65435390D02*
X224507142Y-65483009D01*
X224507142Y-65483009D02*
X224602380Y-65530628D01*
X224602380Y-65530628D02*
X224983332Y-65530628D01*
X223459523Y-66006819D02*
X224030951Y-66006819D01*
X223745237Y-66006819D02*
X223745237Y-65006819D01*
X223745237Y-65006819D02*
X223840475Y-65149676D01*
X223840475Y-65149676D02*
X223935713Y-65244914D01*
X223935713Y-65244914D02*
X224030951Y-65292533D01*
X222840475Y-65006819D02*
X222745237Y-65006819D01*
X222745237Y-65006819D02*
X222649999Y-65054438D01*
X222649999Y-65054438D02*
X222602380Y-65102057D01*
X222602380Y-65102057D02*
X222554761Y-65197295D01*
X222554761Y-65197295D02*
X222507142Y-65387771D01*
X222507142Y-65387771D02*
X222507142Y-65625866D01*
X222507142Y-65625866D02*
X222554761Y-65816342D01*
X222554761Y-65816342D02*
X222602380Y-65911580D01*
X222602380Y-65911580D02*
X222649999Y-65959200D01*
X222649999Y-65959200D02*
X222745237Y-66006819D01*
X222745237Y-66006819D02*
X222840475Y-66006819D01*
X222840475Y-66006819D02*
X222935713Y-65959200D01*
X222935713Y-65959200D02*
X222983332Y-65911580D01*
X222983332Y-65911580D02*
X223030951Y-65816342D01*
X223030951Y-65816342D02*
X223078570Y-65625866D01*
X223078570Y-65625866D02*
X223078570Y-65387771D01*
X223078570Y-65387771D02*
X223030951Y-65197295D01*
X223030951Y-65197295D02*
X222983332Y-65102057D01*
X222983332Y-65102057D02*
X222935713Y-65054438D01*
X222935713Y-65054438D02*
X222840475Y-65006819D01*
X213261904Y-65006819D02*
X212690476Y-65006819D01*
X212976190Y-66006819D02*
X212976190Y-65006819D01*
X212357142Y-66006819D02*
X212357142Y-65006819D01*
X212357142Y-65006819D02*
X211976190Y-65006819D01*
X211976190Y-65006819D02*
X211880952Y-65054438D01*
X211880952Y-65054438D02*
X211833333Y-65102057D01*
X211833333Y-65102057D02*
X211785714Y-65197295D01*
X211785714Y-65197295D02*
X211785714Y-65340152D01*
X211785714Y-65340152D02*
X211833333Y-65435390D01*
X211833333Y-65435390D02*
X211880952Y-65483009D01*
X211880952Y-65483009D02*
X211976190Y-65530628D01*
X211976190Y-65530628D02*
X212357142Y-65530628D01*
X211404761Y-65102057D02*
X211357142Y-65054438D01*
X211357142Y-65054438D02*
X211261904Y-65006819D01*
X211261904Y-65006819D02*
X211023809Y-65006819D01*
X211023809Y-65006819D02*
X210928571Y-65054438D01*
X210928571Y-65054438D02*
X210880952Y-65102057D01*
X210880952Y-65102057D02*
X210833333Y-65197295D01*
X210833333Y-65197295D02*
X210833333Y-65292533D01*
X210833333Y-65292533D02*
X210880952Y-65435390D01*
X210880952Y-65435390D02*
X211452380Y-66006819D01*
X211452380Y-66006819D02*
X210833333Y-66006819D01*
X221361904Y-65006819D02*
X220790476Y-65006819D01*
X221076190Y-66006819D02*
X221076190Y-65006819D01*
X220457142Y-66006819D02*
X220457142Y-65006819D01*
X220457142Y-65006819D02*
X220076190Y-65006819D01*
X220076190Y-65006819D02*
X219980952Y-65054438D01*
X219980952Y-65054438D02*
X219933333Y-65102057D01*
X219933333Y-65102057D02*
X219885714Y-65197295D01*
X219885714Y-65197295D02*
X219885714Y-65340152D01*
X219885714Y-65340152D02*
X219933333Y-65435390D01*
X219933333Y-65435390D02*
X219980952Y-65483009D01*
X219980952Y-65483009D02*
X220076190Y-65530628D01*
X220076190Y-65530628D02*
X220457142Y-65530628D01*
X219314285Y-65435390D02*
X219409523Y-65387771D01*
X219409523Y-65387771D02*
X219457142Y-65340152D01*
X219457142Y-65340152D02*
X219504761Y-65244914D01*
X219504761Y-65244914D02*
X219504761Y-65197295D01*
X219504761Y-65197295D02*
X219457142Y-65102057D01*
X219457142Y-65102057D02*
X219409523Y-65054438D01*
X219409523Y-65054438D02*
X219314285Y-65006819D01*
X219314285Y-65006819D02*
X219123809Y-65006819D01*
X219123809Y-65006819D02*
X219028571Y-65054438D01*
X219028571Y-65054438D02*
X218980952Y-65102057D01*
X218980952Y-65102057D02*
X218933333Y-65197295D01*
X218933333Y-65197295D02*
X218933333Y-65244914D01*
X218933333Y-65244914D02*
X218980952Y-65340152D01*
X218980952Y-65340152D02*
X219028571Y-65387771D01*
X219028571Y-65387771D02*
X219123809Y-65435390D01*
X219123809Y-65435390D02*
X219314285Y-65435390D01*
X219314285Y-65435390D02*
X219409523Y-65483009D01*
X219409523Y-65483009D02*
X219457142Y-65530628D01*
X219457142Y-65530628D02*
X219504761Y-65625866D01*
X219504761Y-65625866D02*
X219504761Y-65816342D01*
X219504761Y-65816342D02*
X219457142Y-65911580D01*
X219457142Y-65911580D02*
X219409523Y-65959200D01*
X219409523Y-65959200D02*
X219314285Y-66006819D01*
X219314285Y-66006819D02*
X219123809Y-66006819D01*
X219123809Y-66006819D02*
X219028571Y-65959200D01*
X219028571Y-65959200D02*
X218980952Y-65911580D01*
X218980952Y-65911580D02*
X218933333Y-65816342D01*
X218933333Y-65816342D02*
X218933333Y-65625866D01*
X218933333Y-65625866D02*
X218980952Y-65530628D01*
X218980952Y-65530628D02*
X219028571Y-65483009D01*
X219028571Y-65483009D02*
X219123809Y-65435390D01*
X105584819Y-101116666D02*
X106299104Y-101116666D01*
X106299104Y-101116666D02*
X106441961Y-101069047D01*
X106441961Y-101069047D02*
X106537200Y-100973809D01*
X106537200Y-100973809D02*
X106584819Y-100830952D01*
X106584819Y-100830952D02*
X106584819Y-100735714D01*
X105918152Y-102021428D02*
X106584819Y-102021428D01*
X105537200Y-101783333D02*
X106251485Y-101545238D01*
X106251485Y-101545238D02*
X106251485Y-102164285D01*
D12*
%TO.C,SW1*%
X35800000Y-34600000D02*
G75*
G02*
X33800000Y-36600000I-2000000J0D01*
G01*
X31900000Y-30400000D02*
G75*
G02*
X29900000Y-32400000I-2000000J0D01*
G01*
X33800000Y-36600000D02*
X28700000Y-36600000D01*
X29900000Y-32400000D02*
X24800000Y-32400000D01*
%TO.C,SW2*%
X102400000Y-34600000D02*
G75*
G02*
X100400000Y-36600000I-2000000J0D01*
G01*
X98500000Y-30400000D02*
G75*
G02*
X96500000Y-32400000I-2000000J0D01*
G01*
X100400000Y-36600000D02*
X95300000Y-36600000D01*
X96500000Y-32400000D02*
X91400000Y-32400000D01*
D13*
%TO.C,J1*%
X59730750Y-27600000D02*
G75*
G02*
X59530750Y-27600000I-100000J0D01*
G01*
X59530750Y-27600000D02*
G75*
G02*
X59730750Y-27600000I100000J0D01*
G01*
D12*
%TO.C,JP1*%
X178650000Y-34650000D02*
X178650000Y-37450000D01*
X178650000Y-37450000D02*
X180650000Y-37450000D01*
X180650000Y-34650000D02*
X178650000Y-34650000D01*
X180650000Y-37450000D02*
X180650000Y-34650000D01*
%TO.C,TP5*%
X228850000Y-63350000D02*
G75*
G02*
X226450000Y-63350000I-1200000J0D01*
G01*
X226450000Y-63350000D02*
G75*
G02*
X228850000Y-63350000I1200000J0D01*
G01*
%TO.C,TP4*%
X217250000Y-67550000D02*
G75*
G02*
X214850000Y-67550000I-1200000J0D01*
G01*
X214850000Y-67550000D02*
G75*
G02*
X217250000Y-67550000I1200000J0D01*
G01*
%TO.C,U1*%
X164894689Y-50300000D02*
X165354308Y-49840381D01*
X165354308Y-50759619D02*
X164894689Y-50300000D01*
X169540381Y-54945692D02*
X170000000Y-55405311D01*
X170000000Y-45194689D02*
X169540381Y-45654308D01*
X170000000Y-55405311D02*
X170459619Y-54945692D01*
X170459619Y-45654308D02*
X170000000Y-45194689D01*
X174645692Y-49840381D02*
X174893179Y-50087868D01*
X174645692Y-50759619D02*
X174935605Y-50469706D01*
X175508362Y-50236360D02*
X175105311Y-50300000D01*
X175168951Y-49896949D01*
X175508362Y-50236360D01*
G36*
X175508362Y-50236360D02*
G01*
X175105311Y-50300000D01*
X175168951Y-49896949D01*
X175508362Y-50236360D01*
G37*
%TO.C,C34*%
X192890000Y-36659420D02*
X192890000Y-36940580D01*
X193910000Y-36659420D02*
X193910000Y-36940580D01*
%TO.C,C35*%
X218590580Y-74460000D02*
X218309420Y-74460000D01*
X218590580Y-75480000D02*
X218309420Y-75480000D01*
%TO.C,U5*%
X154490000Y-39240000D02*
X154490000Y-39510000D01*
X154490000Y-44760000D02*
X154490000Y-44490000D01*
X157250000Y-39240000D02*
X154490000Y-39240000D01*
X157250000Y-39240000D02*
X160010000Y-39240000D01*
X157250000Y-44760000D02*
X154490000Y-44760000D01*
X157250000Y-44760000D02*
X160010000Y-44760000D01*
X160010000Y-39240000D02*
X160010000Y-39510000D01*
X160010000Y-44760000D02*
X160010000Y-44490000D01*
X160775000Y-39510001D02*
X160535000Y-39180000D01*
X161015000Y-39180000D01*
X160775000Y-39510001D01*
G36*
X160775000Y-39510001D02*
G01*
X160535000Y-39180000D01*
X161015000Y-39180000D01*
X160775000Y-39510001D01*
G37*
%TO.C,U8*%
X220411500Y-76856500D02*
X220411500Y-77193250D01*
X220411500Y-78443500D02*
X220411500Y-78106750D01*
X220770750Y-76856500D02*
X220411500Y-76856500D01*
X220770750Y-78443500D02*
X220411500Y-78443500D01*
X221729250Y-78443500D02*
X222088500Y-78443500D01*
X222088500Y-78443500D02*
X222088500Y-78106750D01*
D13*
X222068500Y-76976500D02*
G75*
G02*
X221868500Y-76976500I-100000J0D01*
G01*
X221868500Y-76976500D02*
G75*
G02*
X222068500Y-76976500I100000J0D01*
G01*
D12*
%TO.C,J3*%
X217365000Y-78485000D02*
X217365000Y-79359999D01*
X217424435Y-78485000D02*
X217365000Y-78485000D01*
X217699970Y-79360000D02*
X217365000Y-79359999D01*
X218855000Y-77015000D02*
X218110000Y-77015001D01*
X218855000Y-78485000D02*
X218795565Y-78485000D01*
X218855000Y-78485000D02*
X218855000Y-79359999D01*
X218855000Y-79359999D02*
X218520030Y-79360000D01*
X218855001Y-77750000D02*
X218855000Y-77015000D01*
%TO.C,C7*%
X187359420Y-41090000D02*
X187640580Y-41090000D01*
X187359420Y-42110000D02*
X187640580Y-42110000D01*
%TO.C,U2*%
X194690000Y-37490000D02*
X194690000Y-37965000D01*
X194690000Y-40710000D02*
X194690000Y-40235000D01*
X195165000Y-37490000D02*
X194690000Y-37490000D01*
X195165000Y-40710000D02*
X194690000Y-40710000D01*
X197435000Y-37490000D02*
X197610000Y-37490000D01*
X197435000Y-40710000D02*
X197910000Y-40710000D01*
X197910000Y-37965000D02*
X197910000Y-37730000D01*
X197910000Y-40710000D02*
X197910000Y-40235000D01*
X197910000Y-37490000D02*
X197670000Y-37160000D01*
X198150000Y-37160000D01*
X197910000Y-37490000D01*
G36*
X197910000Y-37490000D02*
G01*
X197670000Y-37160000D01*
X198150000Y-37160000D01*
X197910000Y-37490000D01*
G37*
%TO.C,C1*%
X198790000Y-36840580D02*
X198790000Y-36559420D01*
X199810000Y-36840580D02*
X199810000Y-36559420D01*
%TO.C,TP7*%
X221300000Y-63500000D02*
G75*
G02*
X218900000Y-63500000I-1200000J0D01*
G01*
X218900000Y-63500000D02*
G75*
G02*
X221300000Y-63500000I1200000J0D01*
G01*
%TO.C,Y1*%
X157058629Y-51289999D02*
X161178629Y-51289999D01*
X157058629Y-54710001D02*
X157058629Y-51289999D01*
%TO.C,TP9*%
X225350000Y-63500000D02*
G75*
G02*
X222950000Y-63500000I-1200000J0D01*
G01*
X222950000Y-63500000D02*
G75*
G02*
X225350000Y-63500000I1200000J0D01*
G01*
%TO.C,TP3*%
X217250000Y-63500000D02*
G75*
G02*
X214850000Y-63500000I-1200000J0D01*
G01*
X214850000Y-63500000D02*
G75*
G02*
X217250000Y-63500000I1200000J0D01*
G01*
%TO.C,TP10*%
X225350000Y-67550000D02*
G75*
G02*
X222950000Y-67550000I-1200000J0D01*
G01*
X222950000Y-67550000D02*
G75*
G02*
X225350000Y-67550000I1200000J0D01*
G01*
%TO.C,U4*%
X190137500Y-37740000D02*
X189337500Y-37740000D01*
X190137500Y-37740000D02*
X190937500Y-37740000D01*
X190137500Y-40860000D02*
X189337500Y-40860000D01*
X190137500Y-40860000D02*
X190937500Y-40860000D01*
X189077500Y-41140000D02*
X188597500Y-41140000D01*
X188837500Y-40810000D01*
X189077500Y-41140000D01*
G36*
X189077500Y-41140000D02*
G01*
X188597500Y-41140000D01*
X188837500Y-40810000D01*
X189077500Y-41140000D01*
G37*
%TO.C,C4*%
X187359420Y-36490000D02*
X187640580Y-36490000D01*
X187359420Y-37510000D02*
X187640580Y-37510000D01*
%TO.C,TP2*%
X213200000Y-67550000D02*
G75*
G02*
X210800000Y-67550000I-1200000J0D01*
G01*
X210800000Y-67550000D02*
G75*
G02*
X213200000Y-67550000I1200000J0D01*
G01*
%TO.C,L1*%
X184015000Y-38190000D02*
X184015000Y-40410000D01*
X186135000Y-40410000D02*
X186135000Y-38190000D01*
%TO.C,U6*%
X168440000Y-42000000D02*
X168440000Y-41200000D01*
X168440000Y-42000000D02*
X168440000Y-42800000D01*
X171560000Y-42000000D02*
X171560000Y-41200000D01*
X171560000Y-42000000D02*
X171560000Y-42800000D01*
X171840000Y-43540000D02*
X171510000Y-43300000D01*
X171840000Y-43060000D01*
X171840000Y-43540000D01*
G36*
X171840000Y-43540000D02*
G01*
X171510000Y-43300000D01*
X171840000Y-43060000D01*
X171840000Y-43540000D01*
G37*
%TO.C,U3*%
X186255000Y-38030000D02*
X186255000Y-38605000D01*
X186255000Y-40570000D02*
X186255000Y-39995000D01*
X186605000Y-38030000D02*
X186255000Y-38030000D01*
X186605000Y-40570000D02*
X186255000Y-40570000D01*
X187545000Y-40570000D02*
X187895000Y-40570000D01*
X187895000Y-40570000D02*
X187895000Y-39995000D01*
D13*
X187875000Y-38150000D02*
G75*
G02*
X187675000Y-38150000I-100000J0D01*
G01*
X187675000Y-38150000D02*
G75*
G02*
X187875000Y-38150000I100000J0D01*
G01*
D12*
%TO.C,TP8*%
X221300000Y-67550000D02*
G75*
G02*
X218900000Y-67550000I-1200000J0D01*
G01*
X218900000Y-67550000D02*
G75*
G02*
X221300000Y-67550000I1200000J0D01*
G01*
%TO.C,JP2*%
X181200000Y-34650001D02*
X181200000Y-37450001D01*
X181200000Y-37450001D02*
X183200000Y-37450001D01*
X183200000Y-34650001D02*
X181200000Y-34650001D01*
X183200000Y-37450001D02*
X183200000Y-34650001D01*
%TO.C,C6*%
X187359420Y-42590000D02*
X187640580Y-42590000D01*
X187359420Y-43610000D02*
X187640580Y-43610000D01*
%TO.C,C3*%
X192890000Y-39940580D02*
X192890000Y-39659420D01*
X193910000Y-39940580D02*
X193910000Y-39659420D01*
%TO.C,J4*%
X107130000Y-100070000D02*
X107130001Y-101450000D01*
X108510000Y-100070001D02*
X107130000Y-100070000D01*
X109780000Y-100070000D02*
X109780000Y-102830000D01*
X109780000Y-100070000D02*
X114970000Y-100070000D01*
X109780000Y-102830000D02*
X114970000Y-102830000D01*
X114970000Y-100070000D02*
X114970000Y-102830000D01*
%TD*%
M02*
