%TF.GenerationSoftware,KiCad,Pcbnew,9.0.3*%
%TF.CreationDate,2025-07-18T01:49:26-04:00*%
%TF.ProjectId,board,626f6172-642e-46b6-9963-61645f706362,rev?*%
%TF.SameCoordinates,Original*%
%TF.FileFunction,Paste,Bot*%
%TF.FilePolarity,Positive*%
%FSLAX46Y46*%
G04 Gerber Fmt 4.6, Leading zero omitted, Abs format (unit mm)*
G04 Created by KiCad (PCBNEW 9.0.3) date 2025-07-18 01:49:26*
%MOMM*%
%LPD*%
G01*
G04 APERTURE LIST*
G04 Aperture macros list*
%AMRoundRect*
0 Rectangle with rounded corners*
0 $1 Rounding radius*
0 $2 $3 $4 $5 $6 $7 $8 $9 X,Y pos of 4 corners*
0 Add a 4 corners polygon primitive as box body*
4,1,4,$2,$3,$4,$5,$6,$7,$8,$9,$2,$3,0*
0 Add four circle primitives for the rounded corners*
1,1,$1+$1,$2,$3*
1,1,$1+$1,$4,$5*
1,1,$1+$1,$6,$7*
1,1,$1+$1,$8,$9*
0 Add four rect primitives between the rounded corners*
20,1,$1+$1,$2,$3,$4,$5,0*
20,1,$1+$1,$4,$5,$6,$7,0*
20,1,$1+$1,$6,$7,$8,$9,0*
20,1,$1+$1,$8,$9,$2,$3,0*%
%AMFreePoly0*
4,1,18,-0.410000,0.593000,-0.403758,0.624380,-0.385983,0.650983,-0.359380,0.668758,-0.328000,0.675000,0.328000,0.675000,0.359380,0.668758,0.385983,0.650983,0.403758,0.624380,0.410000,0.593000,0.410000,-0.593000,0.403758,-0.624380,0.385983,-0.650983,0.359380,-0.668758,0.328000,-0.675000,0.000000,-0.675000,-0.410000,-0.265000,-0.410000,0.593000,-0.410000,0.593000,$1*%
G04 Aperture macros list end*
%ADD10RoundRect,0.250000X-1.025000X-1.000000X1.025000X-1.000000X1.025000X1.000000X-1.025000X1.000000X0*%
%ADD11RoundRect,0.079500X0.100500X-0.079500X0.100500X0.079500X-0.100500X0.079500X-0.100500X-0.079500X0*%
%ADD12RoundRect,0.140000X0.140000X0.170000X-0.140000X0.170000X-0.140000X-0.170000X0.140000X-0.170000X0*%
%ADD13RoundRect,0.079500X-0.079500X-0.100500X0.079500X-0.100500X0.079500X0.100500X-0.079500X0.100500X0*%
%ADD14RoundRect,0.079500X0.079500X0.100500X-0.079500X0.100500X-0.079500X-0.100500X0.079500X-0.100500X0*%
%ADD15RoundRect,0.079500X-0.127279X-0.014849X-0.014849X-0.127279X0.127279X0.014849X0.014849X0.127279X0*%
%ADD16RoundRect,0.079500X0.127279X0.014849X0.014849X0.127279X-0.127279X-0.014849X-0.014849X-0.127279X0*%
%ADD17RoundRect,0.249999X0.558616X0.000000X0.000000X0.558616X-0.558616X0.000000X0.000000X-0.558616X0*%
%ADD18RoundRect,0.050000X0.309359X-0.238649X-0.238649X0.309359X-0.309359X0.238649X0.238649X-0.309359X0*%
%ADD19RoundRect,0.050000X0.309359X0.238649X0.238649X0.309359X-0.309359X-0.238649X-0.238649X-0.309359X0*%
%ADD20RoundRect,0.225000X0.250000X-0.225000X0.250000X0.225000X-0.250000X0.225000X-0.250000X-0.225000X0*%
%ADD21RoundRect,0.218750X-0.256250X0.218750X-0.256250X-0.218750X0.256250X-0.218750X0.256250X0.218750X0*%
%ADD22RoundRect,0.225000X-0.225000X-0.250000X0.225000X-0.250000X0.225000X0.250000X-0.225000X0.250000X0*%
%ADD23RoundRect,0.162500X0.162500X-0.650000X0.162500X0.650000X-0.162500X0.650000X-0.162500X-0.650000X0*%
%ADD24RoundRect,0.079500X-0.100500X0.079500X-0.100500X-0.079500X0.100500X-0.079500X0.100500X0.079500X0*%
%ADD25C,0.270000*%
%ADD26RoundRect,0.225000X0.225000X0.250000X-0.225000X0.250000X-0.225000X-0.250000X0.225000X-0.250000X0*%
%ADD27RoundRect,0.160000X-0.160000X-0.160000X0.160000X-0.160000X0.160000X0.160000X-0.160000X0.160000X0*%
%ADD28RoundRect,0.062500X-0.375000X-0.062500X0.375000X-0.062500X0.375000X0.062500X-0.375000X0.062500X0*%
%ADD29RoundRect,0.062500X-0.062500X-0.375000X0.062500X-0.375000X0.062500X0.375000X-0.062500X0.375000X0*%
%ADD30RoundRect,0.135000X-0.315000X-0.365000X0.315000X-0.365000X0.315000X0.365000X-0.315000X0.365000X0*%
%ADD31RoundRect,0.082500X-0.767500X-0.192500X0.767500X-0.192500X0.767500X0.192500X-0.767500X0.192500X0*%
%ADD32RoundRect,0.250000X-0.450000X-0.350000X0.450000X-0.350000X0.450000X0.350000X-0.450000X0.350000X0*%
%ADD33RoundRect,0.150000X-0.512500X-0.150000X0.512500X-0.150000X0.512500X0.150000X-0.512500X0.150000X0*%
%ADD34RoundRect,0.079500X0.014849X-0.127279X0.127279X-0.014849X-0.014849X0.127279X-0.127279X0.014849X0*%
%ADD35R,0.600000X1.100000*%
%ADD36R,0.300000X1.100000*%
%ADD37RoundRect,0.137500X-0.662500X0.137500X-0.662500X-0.137500X0.662500X-0.137500X0.662500X0.137500X0*%
%ADD38RoundRect,0.150000X0.150000X-0.512500X0.150000X0.512500X-0.150000X0.512500X-0.150000X-0.512500X0*%
%ADD39RoundRect,0.112500X-0.187500X-0.112500X0.187500X-0.112500X0.187500X0.112500X-0.187500X0.112500X0*%
%ADD40RoundRect,0.079500X-0.014849X0.127279X-0.127279X0.014849X0.014849X-0.127279X0.127279X-0.014849X0*%
%ADD41RoundRect,0.082000X0.593000X-0.328000X0.593000X0.328000X-0.593000X0.328000X-0.593000X-0.328000X0*%
%ADD42FreePoly0,90.000000*%
%ADD43RoundRect,0.225000X-0.250000X0.225000X-0.250000X-0.225000X0.250000X-0.225000X0.250000X0.225000X0*%
G04 APERTURE END LIST*
D10*
%TO.C,SW1*%
X22615000Y-27160000D03*
X35542000Y-24620000D03*
%TD*%
%TO.C,SW2*%
X89215000Y-27160000D03*
X102142000Y-24620000D03*
%TD*%
D11*
%TO.C,R21*%
X52200000Y-31845000D03*
X52200000Y-31155000D03*
%TD*%
D12*
%TO.C,C22*%
X78450000Y-32330000D03*
X77490000Y-32330000D03*
%TD*%
D13*
%TO.C,C13*%
X69055000Y-29850000D03*
X69745000Y-29850000D03*
%TD*%
D14*
%TO.C,R19*%
X81850000Y-35250000D03*
X81160000Y-35250000D03*
%TD*%
D13*
%TO.C,C1*%
X69055000Y-29150000D03*
X69745000Y-29150000D03*
%TD*%
D15*
%TO.C,R5*%
X66800000Y-36300000D03*
X67287904Y-36787904D03*
%TD*%
D13*
%TO.C,R8*%
X69055000Y-33200001D03*
X69745000Y-33200001D03*
%TD*%
D16*
%TO.C,R17*%
X60543952Y-29843952D03*
X60056048Y-29356048D03*
%TD*%
D14*
%TO.C,C14*%
X57045000Y-34150000D03*
X56355000Y-34150000D03*
%TD*%
D15*
%TO.C,R18*%
X60551022Y-28861074D03*
X61038926Y-29348978D03*
%TD*%
D13*
%TO.C,C8*%
X67655000Y-27750000D03*
X68345000Y-27750000D03*
%TD*%
D16*
%TO.C,R12*%
X66293952Y-37793952D03*
X65806048Y-37306048D03*
%TD*%
D13*
%TO.C,C9*%
X67655000Y-29150000D03*
X68345000Y-29150000D03*
%TD*%
D14*
%TO.C,C34*%
X49925000Y-35700000D03*
X49235000Y-35700000D03*
%TD*%
D11*
%TO.C,C25*%
X77800000Y-30600000D03*
X77800000Y-29910000D03*
%TD*%
D14*
%TO.C,C10*%
X69745000Y-27750000D03*
X69055000Y-27750000D03*
%TD*%
%TO.C,R16*%
X87795000Y-36200000D03*
X87105000Y-36200000D03*
%TD*%
D17*
%TO.C,U2*%
X63000000Y-34881371D03*
X64131371Y-33750000D03*
X61868629Y-33750000D03*
X63000000Y-32618629D03*
D18*
X67269157Y-34342202D03*
X66986314Y-34625045D03*
X66703472Y-34907887D03*
X66420629Y-35190730D03*
X66137786Y-35473573D03*
X65854944Y-35756415D03*
X65572101Y-36039258D03*
X65289258Y-36322101D03*
X65006415Y-36604944D03*
X64723573Y-36887786D03*
X64440730Y-37170629D03*
X64157887Y-37453472D03*
X63875045Y-37736314D03*
X63592202Y-38019157D03*
D19*
X62407798Y-38019157D03*
X62124955Y-37736314D03*
X61842113Y-37453472D03*
X61559270Y-37170629D03*
X61276427Y-36887786D03*
X60993585Y-36604944D03*
X60710742Y-36322101D03*
X60427899Y-36039258D03*
X60145056Y-35756415D03*
X59862214Y-35473573D03*
X59579371Y-35190730D03*
X59296528Y-34907887D03*
X59013686Y-34625045D03*
X58730843Y-34342202D03*
D18*
X58730843Y-33157798D03*
X59013686Y-32874955D03*
X59296528Y-32592113D03*
X59579371Y-32309270D03*
X59862214Y-32026427D03*
X60145056Y-31743585D03*
X60427899Y-31460742D03*
X60710742Y-31177899D03*
X60993585Y-30895056D03*
X61276427Y-30612214D03*
X61559270Y-30329371D03*
X61842113Y-30046528D03*
X62124955Y-29763686D03*
X62407798Y-29480843D03*
D19*
X63592202Y-29480843D03*
X63875045Y-29763686D03*
X64157887Y-30046528D03*
X64440730Y-30329371D03*
X64723573Y-30612214D03*
X65006415Y-30895056D03*
X65289258Y-31177899D03*
X65572101Y-31460742D03*
X65854944Y-31743585D03*
X66137786Y-32026427D03*
X66420629Y-32309270D03*
X66703472Y-32592113D03*
X66986314Y-32874955D03*
X67269157Y-33157798D03*
%TD*%
D16*
%TO.C,C4*%
X59093952Y-31243952D03*
X58606048Y-30756048D03*
%TD*%
D20*
%TO.C,C17*%
X54299997Y-26275000D03*
X54299997Y-24725000D03*
%TD*%
D13*
%TO.C,C5*%
X69055000Y-34650000D03*
X69745000Y-34650000D03*
%TD*%
D21*
%TO.C,L2*%
X81850000Y-36349999D03*
X81850000Y-37925001D03*
%TD*%
D11*
%TO.C,R1*%
X57580000Y-36680000D03*
X57580000Y-35990000D03*
%TD*%
D22*
%TO.C,C33*%
X49425000Y-34600000D03*
X50975000Y-34600000D03*
%TD*%
D23*
%TO.C,U3*%
X75055000Y-33687500D03*
X73785000Y-33687500D03*
X72515000Y-33687500D03*
X71245000Y-33687500D03*
X71245000Y-26512500D03*
X72515000Y-26512500D03*
X73785000Y-26512500D03*
X75055000Y-26512500D03*
%TD*%
D22*
%TO.C,C35*%
X78525000Y-35700000D03*
X80075000Y-35700000D03*
%TD*%
D14*
%TO.C,R20*%
X83245000Y-35250000D03*
X82555000Y-35250000D03*
%TD*%
D11*
%TO.C,C28*%
X50950000Y-27125000D03*
X50950000Y-26435000D03*
%TD*%
D13*
%TO.C,C3*%
X66255000Y-27750000D03*
X66945000Y-27750000D03*
%TD*%
D24*
%TO.C,C15*%
X57580000Y-37635000D03*
X57580000Y-38325000D03*
%TD*%
D25*
%TO.C,U8*%
X50300000Y-36600000D03*
X49900000Y-36600000D03*
X49500000Y-36600000D03*
X50300000Y-37000000D03*
X49900000Y-37000000D03*
X49500000Y-37000000D03*
X50300000Y-37400000D03*
X49900000Y-37400000D03*
X49500000Y-37400000D03*
%TD*%
D12*
%TO.C,C26*%
X78450000Y-31410000D03*
X77490000Y-31410000D03*
%TD*%
D26*
%TO.C,C29*%
X50975000Y-32600000D03*
X49425000Y-32600000D03*
%TD*%
D27*
%TO.C,U4*%
X51037500Y-22950000D03*
X51037500Y-23750000D03*
X51837500Y-22950000D03*
X51837500Y-23750000D03*
D28*
X50000000Y-24100000D03*
X50000000Y-23600000D03*
X50000000Y-23100000D03*
X50000000Y-22600000D03*
D29*
X50687500Y-21912500D03*
X51187500Y-21912500D03*
X51687500Y-21912500D03*
X52187500Y-21912500D03*
D28*
X52875000Y-22600000D03*
X52875000Y-23100000D03*
X52875000Y-23600000D03*
X52875000Y-24100000D03*
D29*
X52187500Y-24787500D03*
X51687500Y-24787500D03*
X51187500Y-24787500D03*
X50687500Y-24787500D03*
%TD*%
D20*
%TO.C,C21*%
X48575001Y-23324999D03*
X48575001Y-21774999D03*
%TD*%
D13*
%TO.C,R10*%
X48255000Y-25100000D03*
X48945000Y-25100000D03*
%TD*%
D30*
%TO.C,SW3*%
X74400001Y-22200000D03*
X78499999Y-22200000D03*
X74400001Y-20600000D03*
X78499999Y-20600000D03*
D31*
X76450000Y-22825000D03*
%TD*%
D14*
%TO.C,C6*%
X60145000Y-27750000D03*
X59455000Y-27750000D03*
%TD*%
D32*
%TO.C,Y1*%
X53850000Y-36250000D03*
X56050000Y-36250000D03*
X56050000Y-37950000D03*
X53850000Y-37950000D03*
%TD*%
D11*
%TO.C,C23*%
X78500000Y-30595000D03*
X78500000Y-29905000D03*
%TD*%
D14*
%TO.C,C19*%
X75075000Y-24550000D03*
X74385000Y-24550000D03*
%TD*%
%TO.C,R3*%
X62545000Y-28200000D03*
X61855000Y-28200000D03*
%TD*%
D13*
%TO.C,R13*%
X77805000Y-29200000D03*
X78495000Y-29200000D03*
%TD*%
D14*
%TO.C,C32*%
X87795000Y-36900000D03*
X87105000Y-36900000D03*
%TD*%
D16*
%TO.C,R4*%
X67787904Y-36287904D03*
X67300000Y-35800000D03*
%TD*%
D33*
%TO.C,U9*%
X53500000Y-33249999D03*
X53500000Y-32300000D03*
X53500000Y-31350001D03*
X55775000Y-31350001D03*
X55775000Y-33249999D03*
%TD*%
D11*
%TO.C,R22*%
X56050000Y-30445000D03*
X56050000Y-29755000D03*
%TD*%
D13*
%TO.C,C12*%
X67655000Y-28450000D03*
X68345000Y-28450000D03*
%TD*%
D14*
%TO.C,C11*%
X69745000Y-28450000D03*
X69055000Y-28450000D03*
%TD*%
D13*
%TO.C,R9*%
X69055000Y-32500005D03*
X69745000Y-32500005D03*
%TD*%
D14*
%TO.C,C2*%
X57045000Y-34850000D03*
X56355000Y-34850000D03*
%TD*%
D34*
%TO.C,R6*%
X65681023Y-30088927D03*
X66168927Y-29601023D03*
%TD*%
D35*
%TO.C,J1*%
X59800000Y-26450000D03*
X60600000Y-26450000D03*
D36*
X61750000Y-26450000D03*
X62750000Y-26450000D03*
X63250000Y-26450000D03*
X64250000Y-26450000D03*
D35*
X66200000Y-26450000D03*
X65400000Y-26450000D03*
D36*
X64750000Y-26450000D03*
X63750000Y-26450000D03*
X62250000Y-26450000D03*
X61250000Y-26450000D03*
%TD*%
D33*
%TO.C,U5*%
X53502500Y-29749999D03*
X53502500Y-27850001D03*
X55777500Y-28800000D03*
%TD*%
D26*
%TO.C,C31*%
X88975000Y-37975000D03*
X87425000Y-37975000D03*
%TD*%
D14*
%TO.C,R11*%
X48945000Y-24400000D03*
X48255000Y-24400000D03*
%TD*%
D26*
%TO.C,C27*%
X49825000Y-26800000D03*
X48275000Y-26800000D03*
%TD*%
D37*
%TO.C,L1*%
X49537498Y-28225002D03*
X49537498Y-29675000D03*
%TD*%
D38*
%TO.C,U1*%
X72712500Y-23350000D03*
X71762501Y-23350000D03*
X70812502Y-23350000D03*
X70812502Y-21075000D03*
X71762501Y-21075000D03*
X72712500Y-21075000D03*
%TD*%
D11*
%TO.C,C16*%
X52500000Y-37445001D03*
X52500000Y-36755001D03*
%TD*%
D15*
%TO.C,C7*%
X65279774Y-37829774D03*
X65767678Y-38317678D03*
%TD*%
D13*
%TO.C,R14*%
X77805000Y-28500000D03*
X78495000Y-28500000D03*
%TD*%
D33*
%TO.C,U7*%
X83512500Y-38099999D03*
X83512500Y-37150000D03*
X83512500Y-36200001D03*
X85787500Y-36200001D03*
X85787500Y-37150000D03*
X85787500Y-38099999D03*
%TD*%
D25*
%TO.C,U6*%
X51937500Y-28150000D03*
X51537500Y-28150001D03*
X51137500Y-28150000D03*
X51937500Y-28550000D03*
X51537500Y-28550000D03*
X51137500Y-28550000D03*
X51937500Y-28950000D03*
X51537500Y-28950000D03*
X51137500Y-28950000D03*
X51937500Y-29350000D03*
X51537500Y-29350000D03*
X51137500Y-29350000D03*
X51937500Y-29750000D03*
X51537500Y-29749999D03*
X51137500Y-29750000D03*
%TD*%
D39*
%TO.C,D3*%
X78425000Y-37400000D03*
X80525000Y-37400000D03*
%TD*%
D40*
%TO.C,R7*%
X65673952Y-29106048D03*
X65186048Y-29593952D03*
%TD*%
D14*
%TO.C,R2*%
X64145000Y-28200000D03*
X63455000Y-28200000D03*
%TD*%
D41*
%TO.C,D1*%
X26950000Y-34000000D03*
X26950000Y-35500000D03*
X32400000Y-34000000D03*
D42*
X32400000Y-35500000D03*
%TD*%
D11*
%TO.C,C18*%
X52950000Y-26145000D03*
X52950000Y-25455000D03*
%TD*%
D14*
%TO.C,C24*%
X78525000Y-33150000D03*
X77835000Y-33150000D03*
%TD*%
D26*
%TO.C,C30*%
X50975000Y-31100000D03*
X49425000Y-31100000D03*
%TD*%
D41*
%TO.C,D2*%
X93550000Y-34000000D03*
X93550000Y-35500000D03*
X99000000Y-34000000D03*
D42*
X99000000Y-35500000D03*
%TD*%
D43*
%TO.C,C20*%
X54300000Y-21774999D03*
X54300000Y-23324999D03*
%TD*%
M02*
