%TF.GenerationSoftware,KiCad,Pcbnew,9.0.3*%
%TF.CreationDate,2025-07-16T18:33:31-04:00*%
%TF.ProjectId,board,626f6172-642e-46b6-9963-61645f706362,rev?*%
%TF.SameCoordinates,Original*%
%TF.FileFunction,Copper,L4,Bot*%
%TF.FilePolarity,Positive*%
%FSLAX46Y46*%
G04 Gerber Fmt 4.6, Leading zero omitted, Abs format (unit mm)*
G04 Created by KiCad (PCBNEW 9.0.3) date 2025-07-16 18:33:31*
%MOMM*%
%LPD*%
G01*
G04 APERTURE LIST*
G04 Aperture macros list*
%AMRoundRect*
0 Rectangle with rounded corners*
0 $1 Rounding radius*
0 $2 $3 $4 $5 $6 $7 $8 $9 X,Y pos of 4 corners*
0 Add a 4 corners polygon primitive as box body*
4,1,4,$2,$3,$4,$5,$6,$7,$8,$9,$2,$3,0*
0 Add four circle primitives for the rounded corners*
1,1,$1+$1,$2,$3*
1,1,$1+$1,$4,$5*
1,1,$1+$1,$6,$7*
1,1,$1+$1,$8,$9*
0 Add four rect primitives between the rounded corners*
20,1,$1+$1,$2,$3,$4,$5,0*
20,1,$1+$1,$4,$5,$6,$7,0*
20,1,$1+$1,$6,$7,$8,$9,0*
20,1,$1+$1,$8,$9,$2,$3,0*%
G04 Aperture macros list end*
%TA.AperFunction,Conductor*%
%ADD10C,0.000000*%
%TD*%
%TA.AperFunction,EtchedComponent*%
%ADD11C,0.000000*%
%TD*%
%TA.AperFunction,SMDPad,CuDef*%
%ADD12RoundRect,0.100000X0.100000X-0.130000X0.100000X0.130000X-0.100000X0.130000X-0.100000X-0.130000X0*%
%TD*%
%TA.AperFunction,SMDPad,CuDef*%
%ADD13RoundRect,0.225000X0.250000X-0.225000X0.250000X0.225000X-0.250000X0.225000X-0.250000X-0.225000X0*%
%TD*%
%TA.AperFunction,SMDPad,CuDef*%
%ADD14C,2.000000*%
%TD*%
%TA.AperFunction,SMDPad,CuDef*%
%ADD15RoundRect,0.100000X-0.100000X0.130000X-0.100000X-0.130000X0.100000X-0.130000X0.100000X0.130000X0*%
%TD*%
%TA.AperFunction,SMDPad,CuDef*%
%ADD16RoundRect,0.225000X-0.250000X0.225000X-0.250000X-0.225000X0.250000X-0.225000X0.250000X0.225000X0*%
%TD*%
%TA.AperFunction,HeatsinkPad*%
%ADD17R,1.600000X1.600000*%
%TD*%
%TA.AperFunction,SMDPad,CuDef*%
%ADD18RoundRect,0.062500X-0.062500X-0.375000X0.062500X-0.375000X0.062500X0.375000X-0.062500X0.375000X0*%
%TD*%
%TA.AperFunction,SMDPad,CuDef*%
%ADD19RoundRect,0.062500X-0.375000X-0.062500X0.375000X-0.062500X0.375000X0.062500X-0.375000X0.062500X0*%
%TD*%
%TA.AperFunction,ComponentPad*%
%ADD20RoundRect,0.250000X-0.350000X-0.625000X0.350000X-0.625000X0.350000X0.625000X-0.350000X0.625000X0*%
%TD*%
%TA.AperFunction,ComponentPad*%
%ADD21O,1.200000X1.750000*%
%TD*%
%TA.AperFunction,SMDPad,CuDef*%
%ADD22RoundRect,0.112500X-0.112500X0.187500X-0.112500X-0.187500X0.112500X-0.187500X0.112500X0.187500X0*%
%TD*%
%TA.AperFunction,SMDPad,CuDef*%
%ADD23RoundRect,0.225000X-0.225000X-0.250000X0.225000X-0.250000X0.225000X0.250000X-0.225000X0.250000X0*%
%TD*%
%TA.AperFunction,SMDPad,CuDef*%
%ADD24RoundRect,0.150000X-0.512500X-0.150000X0.512500X-0.150000X0.512500X0.150000X-0.512500X0.150000X0*%
%TD*%
%TA.AperFunction,SMDPad,CuDef*%
%ADD25C,0.270000*%
%TD*%
%TA.AperFunction,SMDPad,CuDef*%
%ADD26C,0.296800*%
%TD*%
%TA.AperFunction,SMDPad,CuDef*%
%ADD27RoundRect,0.137500X-0.662500X0.137500X-0.662500X-0.137500X0.662500X-0.137500X0.662500X0.137500X0*%
%TD*%
%TA.AperFunction,SMDPad,CuDef*%
%ADD28RoundRect,0.250000X0.450000X0.350000X-0.450000X0.350000X-0.450000X-0.350000X0.450000X-0.350000X0*%
%TD*%
%TA.AperFunction,SMDPad,CuDef*%
%ADD29RoundRect,0.100000X-0.130000X-0.100000X0.130000X-0.100000X0.130000X0.100000X-0.130000X0.100000X0*%
%TD*%
%TA.AperFunction,ConnectorPad*%
%ADD30R,2.000000X0.350000*%
%TD*%
%TA.AperFunction,HeatsinkPad*%
%ADD31R,3.200000X3.200000*%
%TD*%
%TA.AperFunction,SMDPad,CuDef*%
%ADD32RoundRect,0.050000X0.050000X0.387500X-0.050000X0.387500X-0.050000X-0.387500X0.050000X-0.387500X0*%
%TD*%
%TA.AperFunction,SMDPad,CuDef*%
%ADD33RoundRect,0.050000X0.387500X0.050000X-0.387500X0.050000X-0.387500X-0.050000X0.387500X-0.050000X0*%
%TD*%
%TA.AperFunction,SMDPad,CuDef*%
%ADD34RoundRect,0.100000X0.130000X0.100000X-0.130000X0.100000X-0.130000X-0.100000X0.130000X-0.100000X0*%
%TD*%
%TA.AperFunction,ComponentPad*%
%ADD35R,1.700000X1.700000*%
%TD*%
%TA.AperFunction,ComponentPad*%
%ADD36C,1.700000*%
%TD*%
%TA.AperFunction,SMDPad,CuDef*%
%ADD37RoundRect,0.150000X0.150000X-0.512500X0.150000X0.512500X-0.150000X0.512500X-0.150000X-0.512500X0*%
%TD*%
%TA.AperFunction,SMDPad,CuDef*%
%ADD38R,0.600000X1.100000*%
%TD*%
%TA.AperFunction,SMDPad,CuDef*%
%ADD39R,0.300000X1.100000*%
%TD*%
%TA.AperFunction,ComponentPad*%
%ADD40O,1.000000X1.800000*%
%TD*%
%TA.AperFunction,ComponentPad*%
%ADD41O,1.000000X2.000000*%
%TD*%
%TA.AperFunction,SMDPad,CuDef*%
%ADD42RoundRect,0.100000X0.100000X-0.155000X0.100000X0.155000X-0.100000X0.155000X-0.100000X-0.155000X0*%
%TD*%
%TA.AperFunction,SMDPad,CuDef*%
%ADD43RoundRect,0.082500X-0.767500X-0.192500X0.767500X-0.192500X0.767500X0.192500X-0.767500X0.192500X0*%
%TD*%
%TA.AperFunction,SMDPad,CuDef*%
%ADD44RoundRect,0.135000X-0.315000X-0.365000X0.315000X-0.365000X0.315000X0.365000X-0.315000X0.365000X0*%
%TD*%
%TA.AperFunction,ComponentPad*%
%ADD45C,3.600000*%
%TD*%
%TA.AperFunction,SMDPad,CuDef*%
%ADD46RoundRect,0.250000X1.525000X1.000000X-1.525000X1.000000X-1.525000X-1.000000X1.525000X-1.000000X0*%
%TD*%
%TA.AperFunction,SMDPad,CuDef*%
%ADD47RoundRect,0.135000X-0.185000X0.135000X-0.185000X-0.135000X0.185000X-0.135000X0.185000X0.135000X0*%
%TD*%
%TA.AperFunction,SMDPad,CuDef*%
%ADD48RoundRect,0.140000X-0.140000X-0.170000X0.140000X-0.170000X0.140000X0.170000X-0.140000X0.170000X0*%
%TD*%
%TA.AperFunction,SMDPad,CuDef*%
%ADD49RoundRect,0.218750X-0.256250X0.218750X-0.256250X-0.218750X0.256250X-0.218750X0.256250X0.218750X0*%
%TD*%
%TA.AperFunction,SMDPad,CuDef*%
%ADD50RoundRect,0.150000X-0.150000X0.512500X-0.150000X-0.512500X0.150000X-0.512500X0.150000X0.512500X0*%
%TD*%
%TA.AperFunction,SMDPad,CuDef*%
%ADD51R,1.500000X1.000000*%
%TD*%
%TA.AperFunction,SMDPad,CuDef*%
%ADD52RoundRect,0.225000X0.225000X0.250000X-0.225000X0.250000X-0.225000X-0.250000X0.225000X-0.250000X0*%
%TD*%
%TA.AperFunction,SMDPad,CuDef*%
%ADD53RoundRect,0.125000X0.250000X0.125000X-0.250000X0.125000X-0.250000X-0.125000X0.250000X-0.125000X0*%
%TD*%
%TA.AperFunction,HeatsinkPad*%
%ADD54R,3.400000X4.300000*%
%TD*%
%TA.AperFunction,ViaPad*%
%ADD55C,0.450000*%
%TD*%
%TA.AperFunction,ViaPad*%
%ADD56C,0.600000*%
%TD*%
%TA.AperFunction,Conductor*%
%ADD57C,0.200000*%
%TD*%
%TA.AperFunction,Conductor*%
%ADD58C,0.600000*%
%TD*%
%TA.AperFunction,Conductor*%
%ADD59C,0.400000*%
%TD*%
G04 APERTURE END LIST*
D10*
%TA.AperFunction,Conductor*%
%TO.N,VBAT*%
G36*
X50337503Y-26550000D02*
G01*
X48637500Y-26550000D01*
X48637502Y-26149998D01*
X50337503Y-26149998D01*
X50337503Y-26550000D01*
G37*
%TD.AperFunction*%
%TA.AperFunction,Conductor*%
%TO.N,VBUS*%
G36*
X54400000Y-27900000D02*
G01*
X53200000Y-29100000D01*
X52400000Y-29100000D01*
X52200000Y-28900000D01*
X52200000Y-27400000D01*
X54400000Y-27400000D01*
X54400000Y-27900000D01*
G37*
%TD.AperFunction*%
%TA.AperFunction,Conductor*%
%TO.N,VSYS*%
G36*
X54237500Y-26150001D02*
G01*
X54237500Y-26550000D01*
X52537504Y-26550000D01*
X52537500Y-26149997D01*
X54237500Y-26150001D01*
G37*
%TD.AperFunction*%
%TA.AperFunction,Conductor*%
%TO.N,3V3*%
G36*
X73110000Y-29960000D02*
G01*
X72700000Y-29960000D01*
X72700000Y-29210000D01*
X72860000Y-29040000D01*
X73110000Y-29040000D01*
X73110000Y-29960000D01*
G37*
%TD.AperFunction*%
%TA.AperFunction,Conductor*%
G36*
X70300000Y-28920000D02*
G01*
X70690000Y-29340000D01*
X70920000Y-29370000D01*
X71110000Y-29570000D01*
X71110000Y-29970000D01*
X70250000Y-29970000D01*
X69500000Y-29180000D01*
X69500000Y-28910000D01*
X70300000Y-28920000D01*
G37*
%TD.AperFunction*%
D11*
%TA.AperFunction,EtchedComponent*%
%TD*%
%TO.C,NT1*%
G36*
X52092000Y-34348400D02*
G01*
X51295200Y-34348400D01*
X51295200Y-34051600D01*
X52092000Y-34051600D01*
X52092000Y-34348400D01*
G37*
%TD.AperFunction*%
D12*
%TO.P,C18,2*%
%TO.N,VBUS*%
X52400000Y-29125000D03*
%TO.P,C18,1*%
%TO.N,GND*%
X52400000Y-29765000D03*
%TD*%
D13*
%TO.P,C21,2*%
%TO.N,GND*%
X48575001Y-24774999D03*
%TO.P,C21,1*%
%TO.N,VBAT*%
X48575001Y-26324999D03*
%TD*%
%TO.P,C17,1*%
%TO.N,GND*%
X54337501Y-29325004D03*
%TO.P,C17,2*%
%TO.N,VBUS*%
X54337501Y-27775004D03*
%TD*%
D12*
%TO.P,R10,1*%
%TO.N,GND*%
X51437500Y-29769999D03*
%TO.P,R10,2*%
%TO.N,Net-(U4-ISET)*%
X51437500Y-29129999D03*
%TD*%
D14*
%TO.P,TP5,1,1*%
%TO.N,/SNS_~{CHG}*%
X32600000Y-25900000D03*
%TD*%
%TO.P,TP2,1,1*%
%TO.N,VSYS*%
X24500000Y-25900000D03*
%TD*%
D15*
%TO.P,R11,1*%
%TO.N,Net-(U4-TS)*%
X50437502Y-29129999D03*
%TO.P,R11,2*%
%TO.N,GND*%
X50437502Y-29769999D03*
%TD*%
D14*
%TO.P,TP4,1,1*%
%TO.N,/SNS_~{PGOOD}*%
X36250000Y-22600000D03*
%TD*%
D16*
%TO.P,C20,1*%
%TO.N,GND*%
X54337504Y-24774999D03*
%TO.P,C20,2*%
%TO.N,VSYS*%
X54337504Y-26324999D03*
%TD*%
D14*
%TO.P,TP3,1,1*%
%TO.N,VBAT*%
X28150000Y-22600000D03*
%TD*%
D17*
%TO.P,U4,17,VSS*%
%TO.N,GND*%
X51437500Y-26350000D03*
D18*
%TO.P,U4,16,ISET*%
%TO.N,Net-(U4-ISET)*%
X50687500Y-27787500D03*
%TO.P,U4,15,ITERM*%
%TO.N,unconnected-(U4-ITERM-Pad15)*%
X51187500Y-27787500D03*
%TO.P,U4,14,TMR*%
%TO.N,unconnected-(U4-TMR-Pad14)*%
X51687500Y-27787500D03*
%TO.P,U4,13,IN*%
%TO.N,VBUS*%
X52187500Y-27787500D03*
D19*
%TO.P,U4,12,ILIM*%
%TO.N,unconnected-(U4-ILIM-Pad12)*%
X52875000Y-27100000D03*
%TO.P,U4,11,OUT*%
%TO.N,VSYS*%
X52875000Y-26600000D03*
%TO.P,U4,10,OUT*%
X52875000Y-26100000D03*
%TO.P,U4,9,~{CHG}*%
%TO.N,/SNS_~{CHG}*%
X52875000Y-25600000D03*
D18*
%TO.P,U4,8,VSS*%
%TO.N,GND*%
X52187500Y-24912500D03*
%TO.P,U4,7,~{PGOOD}*%
%TO.N,/SNS_~{PGOOD}*%
X51687500Y-24912500D03*
%TO.P,U4,6,EN1*%
%TO.N,VSYS*%
X51187500Y-24912500D03*
%TO.P,U4,5,EN2*%
%TO.N,GND*%
X50687500Y-24912500D03*
D19*
%TO.P,U4,4,~{CE}*%
X50000000Y-25600000D03*
%TO.P,U4,3,BAT*%
%TO.N,VBAT*%
X50000000Y-26100000D03*
%TO.P,U4,2,BAT*%
X50000000Y-26600000D03*
%TO.P,U4,1,TS*%
%TO.N,Net-(U4-TS)*%
X50000000Y-27100000D03*
%TD*%
D20*
%TO.P,J2,1,Pin_1*%
%TO.N,GND*%
X42900001Y-22250000D03*
D21*
%TO.P,J2,2,Pin_2*%
%TO.N,VBAT*%
X44900002Y-22250000D03*
%TD*%
D22*
%TO.P,D1,2,A*%
%TO.N,Net-(D1-A)*%
X97295001Y-24800000D03*
%TO.P,D1,1,K*%
%TO.N,9V*%
X97295001Y-22700000D03*
%TD*%
D14*
%TO.P,TP9,1,1*%
%TO.N,9V*%
X40400000Y-33400000D03*
%TD*%
D23*
%TO.P,C29,1*%
%TO.N,3V3*%
X51387499Y-36500000D03*
%TO.P,C29,2*%
%TO.N,GND*%
X52937499Y-36500000D03*
%TD*%
%TO.P,C27,1*%
%TO.N,VSYS*%
X51387500Y-31899999D03*
%TO.P,C27,2*%
%TO.N,GND*%
X52937500Y-31899999D03*
%TD*%
D24*
%TO.P,U5,1,GND*%
%TO.N,GND*%
X53662500Y-35149999D03*
%TO.P,U5,2,~{RESET}*%
%TO.N,REG_EN*%
X53662500Y-33250001D03*
%TO.P,U5,3,VCC*%
%TO.N,VSYS*%
X55937500Y-34200000D03*
%TD*%
D25*
%TO.P,U6,A1,EN*%
%TO.N,REG_EN*%
X52137501Y-33400000D03*
%TO.P,U6,A2,VIN*%
%TO.N,VSYS*%
X51737501Y-33400001D03*
%TO.P,U6,A3,VIN*%
X51337501Y-33400000D03*
%TO.P,U6,B1,VSEL*%
%TO.N,Net-(U6-AGND)*%
X52137501Y-33800000D03*
%TO.P,U6,B2,LX1*%
%TO.N,Net-(L1-Pad1)*%
X51737501Y-33800000D03*
%TO.P,U6,B3,LX1*%
X51337501Y-33800000D03*
%TO.P,U6,C1,AGND*%
%TO.N,Net-(U6-AGND)*%
X52137501Y-34200000D03*
%TO.P,U6,C2,PGND*%
%TO.N,GND*%
X51737501Y-34200000D03*
%TO.P,U6,C3,PGND*%
X51337501Y-34200000D03*
%TO.P,U6,D1,SCL*%
%TO.N,Net-(U6-AGND)*%
X52137501Y-34600000D03*
%TO.P,U6,D2,LX2*%
%TO.N,Net-(L1-Pad2)*%
X51737501Y-34600000D03*
%TO.P,U6,D3,LX2*%
X51337501Y-34600000D03*
%TO.P,U6,E1,SDA*%
%TO.N,Net-(U6-AGND)*%
X52137501Y-35000000D03*
%TO.P,U6,E2,VOUT*%
%TO.N,3V3*%
X51737501Y-34999999D03*
%TO.P,U6,E3,VOUT*%
X51337501Y-35000000D03*
%TD*%
D23*
%TO.P,C30,1*%
%TO.N,3V3*%
X51387500Y-38000000D03*
%TO.P,C30,2*%
%TO.N,GND*%
X52937500Y-38000000D03*
%TD*%
D26*
%TO.P,NT1,1,1*%
%TO.N,Net-(U6-AGND)*%
X52100000Y-34200000D03*
%TO.P,NT1,2,2*%
%TO.N,GND*%
X51287200Y-34200000D03*
%TD*%
D12*
%TO.P,C28,1*%
%TO.N,VSYS*%
X50262500Y-32219999D03*
%TO.P,C28,2*%
%TO.N,GND*%
X50262500Y-31579999D03*
%TD*%
D27*
%TO.P,L1,1,1*%
%TO.N,Net-(L1-Pad1)*%
X49737500Y-33475001D03*
%TO.P,L1,2,2*%
%TO.N,Net-(L1-Pad2)*%
X49737500Y-34924999D03*
%TD*%
D28*
%TO.P,Y1,4,4*%
%TO.N,GND*%
X81530000Y-36530000D03*
%TO.P,Y1,3,3*%
%TO.N,/XIN*%
X79330000Y-36530000D03*
%TO.P,Y1,2,2*%
%TO.N,GND*%
X79330000Y-38230000D03*
%TO.P,Y1,1,1*%
%TO.N,Net-(C16-Pad2)*%
X81530000Y-38230000D03*
%TD*%
D29*
%TO.P,C25,1*%
%TO.N,3V3*%
X79625000Y-35200000D03*
%TO.P,C25,2*%
%TO.N,GND*%
X80265000Y-35200000D03*
%TD*%
D15*
%TO.P,R12,1*%
%TO.N,GND*%
X78300000Y-24180000D03*
%TO.P,R12,2*%
%TO.N,Net-(DS1-IREF)*%
X78300000Y-24820000D03*
%TD*%
D29*
%TO.P,C23,1*%
%TO.N,3V3*%
X81100000Y-35200000D03*
%TO.P,C23,2*%
%TO.N,GND*%
X81740000Y-35200000D03*
%TD*%
D30*
%TO.P,DS1,13,NC*%
%TO.N,unconnected-(DS1-NC-Pad13)*%
X80300000Y-24300000D03*
%TO.P,DS1,12,VSS*%
%TO.N,GND*%
X80300000Y-25000000D03*
%TO.P,DS1,11,D1*%
%TO.N,/DISP_PIN_MOSI*%
X80300000Y-25700000D03*
%TO.P,DS1,10,D0*%
%TO.N,/DISP_PIN_SCLK*%
X80300000Y-26400000D03*
%TO.P,DS1,9,DC*%
%TO.N,/DISP_PIN_DC*%
X80300000Y-27100000D03*
%TO.P,DS1,8,~{RES}*%
%TO.N,/DISP_PIN_RST*%
X80300000Y-27800000D03*
%TO.P,DS1,7,~{CS}*%
%TO.N,/DISP_PIN_CS*%
X80300000Y-28500000D03*
%TO.P,DS1,6,IREF*%
%TO.N,Net-(DS1-IREF)*%
X80300000Y-29200000D03*
%TO.P,DS1,5,IM1*%
%TO.N,GND*%
X80300000Y-29900000D03*
%TO.P,DS1,4,VDD*%
%TO.N,3V3*%
X80300000Y-30600000D03*
%TO.P,DS1,3,VCOMH*%
%TO.N,Net-(DS1-VCOMH)*%
X80300000Y-31300000D03*
%TO.P,DS1,2,VPP*%
%TO.N,9V*%
X80300000Y-32000000D03*
%TO.P,DS1,1,NC*%
%TO.N,unconnected-(DS1-NC-Pad1)*%
X80300000Y-32700000D03*
%TD*%
D12*
%TO.P,C3,1*%
%TO.N,3V3*%
X70230000Y-27485000D03*
%TO.P,C3,2*%
%TO.N,GND*%
X70230000Y-26845000D03*
%TD*%
%TO.P,C6,2*%
%TO.N,GND*%
X68820000Y-30160000D03*
%TO.P,C6,1*%
%TO.N,3V3*%
X68820000Y-30800000D03*
%TD*%
%TO.P,C12,1*%
%TO.N,1V1*%
X70930762Y-28890000D03*
%TO.P,C12,2*%
%TO.N,GND*%
X70930762Y-28250000D03*
%TD*%
D15*
%TO.P,C11,1*%
%TO.N,GND*%
X70930000Y-26845000D03*
%TO.P,C11,2*%
%TO.N,1V1*%
X70930000Y-27485000D03*
%TD*%
%TO.P,C2,1*%
%TO.N,3V3*%
X73100000Y-37910000D03*
%TO.P,C2,2*%
%TO.N,GND*%
X73100000Y-38550000D03*
%TD*%
D12*
%TO.P,R6,1*%
%TO.N,Net-(U2-USB_DP)*%
X72330761Y-28890002D03*
%TO.P,R6,2*%
%TO.N,/USB_D+*%
X72330761Y-28250002D03*
%TD*%
D15*
%TO.P,C7,2*%
%TO.N,GND*%
X77800000Y-35065000D03*
%TO.P,C7,1*%
%TO.N,3V3*%
X77800000Y-34425000D03*
%TD*%
%TO.P,R7,1*%
%TO.N,/USB_D-*%
X71630763Y-28250000D03*
%TO.P,R7,2*%
%TO.N,Net-(U2-USB_DM)*%
X71630763Y-28890000D03*
%TD*%
D12*
%TO.P,C13,1*%
%TO.N,1V1*%
X73730000Y-28890000D03*
%TO.P,C13,2*%
%TO.N,GND*%
X73730000Y-28250000D03*
%TD*%
D31*
%TO.P,U2,57,GND*%
%TO.N,GND*%
X73300000Y-33400000D03*
D32*
%TO.P,U2,56,QSPI_SS*%
%TO.N,/QSPI_SS*%
X75900000Y-29962500D03*
%TO.P,U2,55,QSPI_SD1*%
%TO.N,/QSPI_SD1*%
X75499999Y-29962500D03*
%TO.P,U2,54,QSPI_SD2*%
%TO.N,/QSPI_SD2*%
X75100000Y-29962500D03*
%TO.P,U2,53,QSPI_SD0*%
%TO.N,/QSPI_SD0*%
X74700000Y-29962500D03*
%TO.P,U2,52,QSPI_SCLK*%
%TO.N,/QSPI_SCLK*%
X74300000Y-29962500D03*
%TO.P,U2,51,QSPI_SD3*%
%TO.N,/QSPI_SD3*%
X73900001Y-29962500D03*
%TO.P,U2,50,DVDD*%
%TO.N,1V1*%
X73500000Y-29962500D03*
%TO.P,U2,49,IOVDD*%
%TO.N,3V3*%
X73100000Y-29962500D03*
%TO.P,U2,48,USB_VDD*%
X72699999Y-29962500D03*
%TO.P,U2,47,USB_DP*%
%TO.N,Net-(U2-USB_DP)*%
X72300000Y-29962500D03*
%TO.P,U2,46,USB_DM*%
%TO.N,Net-(U2-USB_DM)*%
X71900000Y-29962500D03*
%TO.P,U2,45,VREG_VOUT*%
%TO.N,1V1*%
X71500000Y-29962500D03*
%TO.P,U2,44,VREG_IN*%
%TO.N,3V3*%
X71100001Y-29962500D03*
%TO.P,U2,43,ADC_AVDD*%
X70700000Y-29962500D03*
D33*
%TO.P,U2,42,IOVDD*%
X69862500Y-30800000D03*
%TO.P,U2,41,GPIO29_ADC3*%
%TO.N,unconnected-(U2-GPIO29_ADC3-Pad41)*%
X69862500Y-31200001D03*
%TO.P,U2,40,GPIO28_ADC2*%
%TO.N,unconnected-(U2-GPIO28_ADC2-Pad40)*%
X69862500Y-31600000D03*
%TO.P,U2,39,GPIO27_ADC1*%
%TO.N,unconnected-(U2-GPIO27_ADC1-Pad39)*%
X69862500Y-32000000D03*
%TO.P,U2,38,GPIO26_ADC0*%
%TO.N,/SNS_VBAT*%
X69862500Y-32400000D03*
%TO.P,U2,37,GPIO25*%
%TO.N,/SNS_~{CHG}*%
X69862500Y-32799999D03*
%TO.P,U2,36,GPIO24*%
%TO.N,/SNS_~{PGOOD}*%
X69862500Y-33200000D03*
%TO.P,U2,35,GPIO23*%
%TO.N,unconnected-(U2-GPIO23-Pad35)*%
X69862500Y-33600000D03*
%TO.P,U2,34,GPIO22*%
%TO.N,unconnected-(U2-GPIO22-Pad34)*%
X69862500Y-34000001D03*
%TO.P,U2,33,IOVDD*%
%TO.N,3V3*%
X69862500Y-34400000D03*
%TO.P,U2,32,GPIO21*%
%TO.N,unconnected-(U2-GPIO21-Pad32)*%
X69862500Y-34800000D03*
%TO.P,U2,31,GPIO20*%
%TO.N,unconnected-(U2-GPIO20-Pad31)*%
X69862500Y-35200000D03*
%TO.P,U2,30,GPIO19*%
%TO.N,unconnected-(U2-GPIO19-Pad30)*%
X69862500Y-35599999D03*
%TO.P,U2,29,GPIO18*%
%TO.N,unconnected-(U2-GPIO18-Pad29)*%
X69862500Y-36000000D03*
D32*
%TO.P,U2,28,GPIO17*%
%TO.N,unconnected-(U2-GPIO17-Pad28)*%
X70700000Y-36837500D03*
%TO.P,U2,27,GPIO16*%
%TO.N,/SNS_VBAT_EN*%
X71100001Y-36837500D03*
%TO.P,U2,26,RUN*%
%TO.N,Net-(JP1-B)*%
X71500000Y-36837500D03*
%TO.P,U2,25,SWD*%
%TO.N,Net-(J3-Pin_3)*%
X71900000Y-36837500D03*
%TO.P,U2,24,SWCLK*%
%TO.N,Net-(J3-Pin_1)*%
X72300000Y-36837500D03*
%TO.P,U2,23,DVDD*%
%TO.N,1V1*%
X72699999Y-36837500D03*
%TO.P,U2,22,IOVDD*%
%TO.N,3V3*%
X73100000Y-36837500D03*
%TO.P,U2,21,XOUT*%
%TO.N,/XOUT*%
X73500000Y-36837500D03*
%TO.P,U2,20,XIN*%
%TO.N,/XIN*%
X73900001Y-36837500D03*
%TO.P,U2,19,TESTEN*%
%TO.N,GND*%
X74300000Y-36837500D03*
%TO.P,U2,18,GPIO15*%
%TO.N,unconnected-(U2-GPIO15-Pad18)*%
X74700000Y-36837500D03*
%TO.P,U2,17,GPIO14*%
%TO.N,unconnected-(U2-GPIO14-Pad17)*%
X75100000Y-36837500D03*
%TO.P,U2,16,GPIO13*%
%TO.N,unconnected-(U2-GPIO13-Pad16)*%
X75499999Y-36837500D03*
%TO.P,U2,15,GPIO12*%
%TO.N,/BUTTON_MENU*%
X75900000Y-36837500D03*
D33*
%TO.P,U2,14,GPIO11*%
%TO.N,/BUTTON_R*%
X76737500Y-36000000D03*
%TO.P,U2,13,GPIO10*%
%TO.N,/BUTTON_L*%
X76737500Y-35599999D03*
%TO.P,U2,12,GPIO9*%
%TO.N,/AUDIO_I2S_SD*%
X76737500Y-35200000D03*
%TO.P,U2,11,GPIO8*%
%TO.N,/AUDIO_I2S_LRCK*%
X76737500Y-34800000D03*
%TO.P,U2,10,IOVDD*%
%TO.N,3V3*%
X76737500Y-34400000D03*
%TO.P,U2,9,GPIO7*%
%TO.N,/AUDIO_I2S_BCLK*%
X76737500Y-34000001D03*
%TO.P,U2,8,GPIO6*%
%TO.N,/AUDIO_I2S_DOUT*%
X76737500Y-33600000D03*
%TO.P,U2,7,GPIO5*%
%TO.N,/DISP_REG_EN*%
X76737500Y-33200000D03*
%TO.P,U2,6,GPIO4*%
%TO.N,/DISP_PIN_DC*%
X76737500Y-32799999D03*
%TO.P,U2,5,GPIO3*%
%TO.N,Net-(U2-GPIO3)*%
X76737500Y-32400000D03*
%TO.P,U2,4,GPIO2*%
%TO.N,Net-(U2-GPIO2)*%
X76737500Y-32000000D03*
%TO.P,U2,3,GPIO1*%
%TO.N,/DISP_PIN_CS*%
X76737500Y-31600000D03*
%TO.P,U2,2,GPIO0*%
%TO.N,/DISP_PIN_RST*%
X76737500Y-31200001D03*
%TO.P,U2,1,IOVDD*%
%TO.N,3V3*%
X76737500Y-30800000D03*
%TD*%
D15*
%TO.P,C10,1*%
%TO.N,GND*%
X69530000Y-28250000D03*
%TO.P,C10,2*%
%TO.N,3V3*%
X69530000Y-28890000D03*
%TD*%
D12*
%TO.P,C9,1*%
%TO.N,3V3*%
X73030762Y-28890000D03*
%TO.P,C9,2*%
%TO.N,GND*%
X73030762Y-28250000D03*
%TD*%
D15*
%TO.P,C14,1*%
%TO.N,1V1*%
X72400001Y-37910002D03*
%TO.P,C14,2*%
%TO.N,GND*%
X72400001Y-38550002D03*
%TD*%
D12*
%TO.P,C8,1*%
%TO.N,3V3*%
X70230000Y-28890000D03*
%TO.P,C8,2*%
%TO.N,GND*%
X70230000Y-28250000D03*
%TD*%
D34*
%TO.P,C4,2*%
%TO.N,GND*%
X68150000Y-34400000D03*
%TO.P,C4,1*%
%TO.N,3V3*%
X68790000Y-34400000D03*
%TD*%
D12*
%TO.P,C5,2*%
%TO.N,GND*%
X77780000Y-30160000D03*
%TO.P,C5,1*%
%TO.N,3V3*%
X77780000Y-30800000D03*
%TD*%
%TO.P,C1,2*%
%TO.N,GND*%
X73030000Y-26850000D03*
%TO.P,C1,1*%
%TO.N,3V3*%
X73030000Y-27490000D03*
%TD*%
D35*
%TO.P,J4,1,Pin_1*%
%TO.N,Net-(J4-Pin_1)*%
X42625000Y-37200000D03*
D36*
%TO.P,J4,2,Pin_2*%
%TO.N,Net-(J4-Pin_2)*%
X45165000Y-37200000D03*
%TD*%
D37*
%TO.P,U1,1,I/O1*%
%TO.N,/USB_D+*%
X63949999Y-31137500D03*
%TO.P,U1,2,GND*%
%TO.N,GND*%
X63000000Y-31137500D03*
%TO.P,U1,3,I/O2*%
%TO.N,/USB_D-*%
X62050001Y-31137500D03*
%TO.P,U1,4,I/O2*%
%TO.N,Net-(J1-DN1)*%
X62050001Y-28862500D03*
%TO.P,U1,5,VBUS*%
%TO.N,VBUS*%
X63000000Y-28862500D03*
%TO.P,U1,6,I/O1*%
%TO.N,Net-(J1-DP1)*%
X63949999Y-28862500D03*
%TD*%
D12*
%TO.P,R3,1*%
%TO.N,GND*%
X60929999Y-29260000D03*
%TO.P,R3,2*%
%TO.N,Net-(J1-CC1)*%
X60929999Y-28620000D03*
%TD*%
D15*
%TO.P,R2,1*%
%TO.N,Net-(J1-CC2)*%
X65079999Y-28630000D03*
%TO.P,R2,2*%
%TO.N,GND*%
X65079999Y-29270000D03*
%TD*%
%TO.P,R1,1*%
%TO.N,/XOUT*%
X73800000Y-37910000D03*
%TO.P,R1,2*%
%TO.N,Net-(C16-Pad2)*%
X73800000Y-38550000D03*
%TD*%
D38*
%TO.P,J1,A1_B12,GND*%
%TO.N,GND*%
X59800000Y-26450000D03*
%TO.P,J1,A4_B9,VBUS*%
%TO.N,VBUS*%
X60600000Y-26450000D03*
D39*
%TO.P,J1,A5,CC1*%
%TO.N,Net-(J1-CC1)*%
X61750000Y-26450000D03*
%TO.P,J1,A6,DP1*%
%TO.N,Net-(J1-DP1)*%
X62750000Y-26450000D03*
%TO.P,J1,A7,DN1*%
%TO.N,Net-(J1-DN1)*%
X63250000Y-26450000D03*
%TO.P,J1,A8,SBU1*%
%TO.N,unconnected-(J1-SBU1-PadA8)*%
X64250000Y-26450000D03*
D38*
%TO.P,J1,B1_A12,GND*%
%TO.N,GND*%
X66200000Y-26450000D03*
%TO.P,J1,B4_A9,VBUS*%
%TO.N,VBUS*%
X65400000Y-26450000D03*
D39*
%TO.P,J1,B5,CC2*%
%TO.N,Net-(J1-CC2)*%
X64750000Y-26450000D03*
%TO.P,J1,B6,DP2*%
%TO.N,Net-(J1-DP1)*%
X63750000Y-26450000D03*
%TO.P,J1,B7,DN2*%
%TO.N,Net-(J1-DN1)*%
X62250000Y-26450000D03*
%TO.P,J1,B8,SBU2*%
%TO.N,unconnected-(J1-SBU2-PadB8)*%
X61250000Y-26450000D03*
D40*
%TO.P,J1,SH1,SHIELD*%
%TO.N,GND*%
X57050000Y-25300000D03*
%TO.P,J1,SH2,SHIELD*%
X68950000Y-25300000D03*
D41*
%TO.P,J1,SH3,SHIELD*%
X57050000Y-21800000D03*
%TO.P,J1,SH4,SHIELD*%
X68950000Y-21800000D03*
%TD*%
D42*
%TO.P,Q1,3,D*%
%TO.N,Net-(Q1-D)*%
X100345000Y-24845000D03*
%TO.P,Q1,2,S*%
%TO.N,VBAT*%
X100845000Y-23555001D03*
%TO.P,Q1,1,G*%
%TO.N,/SNS_VBAT_EN*%
X99845000Y-23555001D03*
%TD*%
D43*
%TO.P,SW3,SH,B*%
%TO.N,GND*%
X51750001Y-22825000D03*
D44*
%TO.P,SW3,2,2*%
X53800000Y-20600000D03*
X49700002Y-20600000D03*
%TO.P,SW3,1,1*%
%TO.N,/BUTTON_MENU*%
X53800000Y-22200000D03*
X49700002Y-22200000D03*
%TD*%
D12*
%TO.P,C15,2*%
%TO.N,GND*%
X78000000Y-36180000D03*
%TO.P,C15,1*%
%TO.N,/XIN*%
X78000000Y-36820000D03*
%TD*%
D15*
%TO.P,C16,2*%
%TO.N,Net-(C16-Pad2)*%
X82880000Y-38415000D03*
%TO.P,C16,1*%
%TO.N,GND*%
X82880000Y-37775000D03*
%TD*%
D45*
%TO.P,SW1,1,1*%
%TO.N,/BUTTON_L*%
X33510000Y-32240000D03*
%TO.P,SW1,2,2*%
%TO.N,GND*%
X27160000Y-34780000D03*
D46*
%TO.P,SW1,1,1*%
%TO.N,/BUTTON_L*%
X36285000Y-32240000D03*
%TO.P,SW1,2,2*%
%TO.N,GND*%
X24380000Y-34780000D03*
%TD*%
%TO.P,SW2,2,2*%
%TO.N,GND*%
X90980000Y-34780000D03*
%TO.P,SW2,1,1*%
%TO.N,/BUTTON_R*%
X102885000Y-32240000D03*
D45*
%TO.P,SW2,2,2*%
%TO.N,GND*%
X93760000Y-34780000D03*
%TO.P,SW2,1,1*%
%TO.N,/BUTTON_R*%
X100110000Y-32240000D03*
%TD*%
D47*
%TO.P,R14,2*%
%TO.N,GND*%
X99500000Y-27709999D03*
%TO.P,R14,1*%
%TO.N,/SNS_VBAT_EN*%
X99500000Y-26690001D03*
%TD*%
D48*
%TO.P,C22,2*%
%TO.N,GND*%
X86480000Y-36720000D03*
%TO.P,C22,1*%
%TO.N,9V*%
X85520000Y-36720000D03*
%TD*%
D47*
%TO.P,R15,2*%
%TO.N,/DISP_REG_EN*%
X101490000Y-27709999D03*
%TO.P,R15,1*%
%TO.N,GND*%
X101490000Y-26690001D03*
%TD*%
D49*
%TO.P,L2,2,2*%
%TO.N,Net-(D1-A)*%
X93720000Y-27687501D03*
%TO.P,L2,1,1*%
%TO.N,VSYS*%
X93720000Y-26112499D03*
%TD*%
D16*
%TO.P,C35,2*%
%TO.N,GND*%
X91210000Y-27675000D03*
%TO.P,C35,1*%
%TO.N,9V*%
X91210000Y-26125000D03*
%TD*%
D15*
%TO.P,R19,2*%
%TO.N,Net-(U7-FB)*%
X101394999Y-21400000D03*
%TO.P,R19,1*%
%TO.N,GND*%
X101394999Y-20760000D03*
%TD*%
%TO.P,C32,2*%
%TO.N,VSYS*%
X99645000Y-21399999D03*
%TO.P,C32,1*%
%TO.N,GND*%
X99645000Y-20759999D03*
%TD*%
D16*
%TO.P,C31,2*%
%TO.N,VSYS*%
X88700000Y-27675000D03*
%TO.P,C31,1*%
%TO.N,GND*%
X88700000Y-26125000D03*
%TD*%
D50*
%TO.P,U7,6,NC*%
%TO.N,unconnected-(U7-NC-Pad6)*%
X92650001Y-24437500D03*
%TO.P,U7,5,IN*%
%TO.N,VSYS*%
X93600000Y-24437500D03*
%TO.P,U7,4,EN*%
%TO.N,/DISP_REG_EN*%
X94549999Y-24437500D03*
%TO.P,U7,3,FB*%
%TO.N,Net-(U7-FB)*%
X94549999Y-22162500D03*
%TO.P,U7,2,GND*%
%TO.N,GND*%
X93600000Y-22162500D03*
%TO.P,U7,1,SW*%
%TO.N,Net-(D1-A)*%
X92650001Y-22162500D03*
%TD*%
D29*
%TO.P,C24,2*%
%TO.N,GND*%
X83140000Y-35200000D03*
%TO.P,C24,1*%
%TO.N,9V*%
X82500000Y-35200000D03*
%TD*%
D51*
%TO.P,JP2,2,B*%
%TO.N,Net-(JP2-B)*%
X61250000Y-34399999D03*
%TO.P,JP2,1,A*%
%TO.N,GND*%
X61250000Y-33100001D03*
%TD*%
D14*
%TO.P,TP7,1,1*%
%TO.N,3V3*%
X36100000Y-25750000D03*
%TD*%
D29*
%TO.P,R5,2*%
%TO.N,/DISP_PIN_MOSI*%
X78445000Y-32550000D03*
%TO.P,R5,1*%
%TO.N,Net-(U2-GPIO3)*%
X77805000Y-32550000D03*
%TD*%
D15*
%TO.P,R8,2*%
%TO.N,/QSPI_SS*%
X79800000Y-21075000D03*
%TO.P,R8,1*%
%TO.N,3V3*%
X79800000Y-20435000D03*
%TD*%
D34*
%TO.P,R16,1*%
%TO.N,/SNS_VBAT*%
X58075000Y-34100000D03*
%TO.P,R16,2*%
%TO.N,Net-(Q1-D)*%
X57435000Y-34100000D03*
%TD*%
%TO.P,R17,1*%
%TO.N,GND*%
X58075000Y-32350000D03*
%TO.P,R17,2*%
%TO.N,/SNS_VBAT*%
X57435000Y-32350000D03*
%TD*%
%TO.P,C34,1*%
%TO.N,3V3*%
X48250000Y-31940000D03*
%TO.P,C34,2*%
%TO.N,GND*%
X47610000Y-31940000D03*
%TD*%
D52*
%TO.P,C33,1*%
%TO.N,GND*%
X45475000Y-32320000D03*
%TO.P,C33,2*%
%TO.N,3V3*%
X43925000Y-32320000D03*
%TD*%
D25*
%TO.P,U8,A1,~{SD_MODE}*%
%TO.N,/AUDIO_I2S_SD*%
X47900000Y-34600000D03*
%TO.P,U8,A2,VDD*%
%TO.N,3V3*%
X47500000Y-34600000D03*
%TO.P,U8,A3,OUTP*%
%TO.N,Net-(J4-Pin_1)*%
X47100000Y-34600000D03*
%TO.P,U8,B1,DIN*%
%TO.N,/AUDIO_I2S_DOUT*%
X47900000Y-35000000D03*
%TO.P,U8,B2,GAIN_SLOT*%
%TO.N,GND*%
X47500000Y-35000000D03*
%TO.P,U8,B3,OUTN*%
%TO.N,Net-(J4-Pin_2)*%
X47100000Y-35000000D03*
%TO.P,U8,C1,BCLK*%
%TO.N,/AUDIO_I2S_BCLK*%
X47900000Y-35400000D03*
%TO.P,U8,C2,GND*%
%TO.N,GND*%
X47500000Y-35400000D03*
%TO.P,U8,C3,LRCLK*%
%TO.N,/AUDIO_I2S_LRCK*%
X47100000Y-35400000D03*
%TD*%
D14*
%TO.P,TP6,1,1*%
%TO.N,REG_EN*%
X28550000Y-25900000D03*
%TD*%
D15*
%TO.P,C19,1*%
%TO.N,3V3*%
X70100000Y-21425000D03*
%TO.P,C19,2*%
%TO.N,GND*%
X70100000Y-22065000D03*
%TD*%
D34*
%TO.P,R4,2*%
%TO.N,Net-(U2-GPIO2)*%
X77805000Y-31850000D03*
%TO.P,R4,1*%
%TO.N,/DISP_PIN_SCLK*%
X78445000Y-31850000D03*
%TD*%
D15*
%TO.P,R9,2*%
%TO.N,/QSPI_SS*%
X79100000Y-21075000D03*
%TO.P,R9,1*%
%TO.N,Net-(JP2-B)*%
X79100000Y-20435000D03*
%TD*%
D14*
%TO.P,TP1,1,1*%
%TO.N,VBUS*%
X24100000Y-22600000D03*
%TD*%
%TO.P,TP8,1,1*%
%TO.N,/SNS_VBAT*%
X32200000Y-22600000D03*
%TD*%
D51*
%TO.P,JP1,2,B*%
%TO.N,Net-(JP1-B)*%
X63800000Y-34400000D03*
%TO.P,JP1,1,A*%
%TO.N,GND*%
X63800000Y-33100002D03*
%TD*%
D36*
%TO.P,J3,3,Pin_3*%
%TO.N,Net-(J3-Pin_3)*%
X60460001Y-37300000D03*
%TO.P,J3,2,Pin_2*%
%TO.N,GND*%
X63000000Y-37300000D03*
D35*
%TO.P,J3,1,Pin_1*%
%TO.N,Net-(J3-Pin_1)*%
X65540000Y-37300000D03*
%TD*%
D53*
%TO.P,U3,1,~{CS}*%
%TO.N,/QSPI_SS*%
X76500000Y-21410000D03*
%TO.P,U3,2,DO/IO_{1}*%
%TO.N,/QSPI_SD1*%
X76500000Y-22680000D03*
%TO.P,U3,3,~{WP}/IO_{2}*%
%TO.N,/QSPI_SD2*%
X76500000Y-23950000D03*
%TO.P,U3,4,GND*%
%TO.N,GND*%
X76500000Y-25220000D03*
%TO.P,U3,5,DI/IO_{0}*%
%TO.N,/QSPI_SD0*%
X71100000Y-25220000D03*
%TO.P,U3,6,CLK*%
%TO.N,/QSPI_SCLK*%
X71100000Y-23950000D03*
%TO.P,U3,7,~{HOLD}/~{RESET}/IO_{3}*%
%TO.N,/QSPI_SD3*%
X71100000Y-22680000D03*
%TO.P,U3,8,VCC*%
%TO.N,3V3*%
X71100000Y-21410000D03*
D54*
%TO.P,U3,9*%
%TO.N,N/C*%
X73800000Y-23315000D03*
%TD*%
D15*
%TO.P,R13,2*%
%TO.N,/DISP_PIN_CS*%
X78300000Y-26375000D03*
%TO.P,R13,1*%
%TO.N,3V3*%
X78300000Y-25735000D03*
%TD*%
D48*
%TO.P,C26,2*%
%TO.N,GND*%
X86480000Y-35800000D03*
%TO.P,C26,1*%
%TO.N,Net-(DS1-VCOMH)*%
X85520000Y-35800000D03*
%TD*%
D55*
%TO.N,9V*%
X82500000Y-32000000D03*
X80300000Y-32000000D03*
%TO.N,Net-(DS1-IREF)*%
X80300000Y-29200000D03*
X78300000Y-24800000D03*
%TO.N,Net-(DS1-VCOMH)*%
X82500000Y-31300000D03*
X80300000Y-31300000D03*
%TO.N,3V3*%
X77800000Y-34425000D03*
X79625000Y-35200000D03*
X81075000Y-35200000D03*
%TO.N,/DISP_PIN_CS*%
X78300000Y-26375000D03*
%TO.N,3V3*%
X78300000Y-25735000D03*
%TO.N,/DISP_PIN_RST*%
X78300000Y-27800000D03*
%TO.N,GND*%
X80300000Y-29900000D03*
%TO.N,3V3*%
X70100000Y-20800000D03*
%TO.N,/DISP_PIN_DC*%
X80300000Y-27100000D03*
%TO.N,3V3*%
X77780000Y-30800000D03*
X80300000Y-30600000D03*
%TO.N,/DISP_PIN_RST*%
X80300000Y-27800000D03*
%TO.N,/DISP_PIN_CS*%
X78300000Y-28500000D03*
X80300000Y-28500000D03*
D56*
%TO.N,/USB_D+*%
X63949999Y-31137500D03*
%TO.N,/USB_D-*%
X62050001Y-31137500D03*
D55*
%TO.N,1V1*%
X70930000Y-27485000D03*
%TO.N,3V3*%
X70230000Y-28890000D03*
X70230069Y-27474999D03*
%TO.N,1V1*%
X70930762Y-28890000D03*
%TO.N,/USB_D-*%
X71630763Y-28250000D03*
%TO.N,/USB_D+*%
X72330761Y-28250002D03*
%TO.N,3V3*%
X73020000Y-27490000D03*
X73020000Y-28890000D03*
D56*
%TO.N,VBUS*%
X63000000Y-28862500D03*
X65400000Y-26450000D03*
X60600000Y-26450000D03*
D55*
%TO.N,Net-(J1-DP1)*%
X63750000Y-27450000D03*
X62750000Y-27450000D03*
%TO.N,/DISP_PIN_DC*%
X76100000Y-32800000D03*
%TD*%
D57*
%TO.N,Net-(U4-ISET)*%
X51429997Y-29129997D02*
X50687501Y-28387501D01*
X51437501Y-29129997D02*
X51429997Y-29129997D01*
X50687501Y-28387501D02*
X50687501Y-27787500D01*
%TO.N,Net-(J3-Pin_1)*%
X66040000Y-37800000D02*
X65540000Y-37300000D01*
X71798999Y-37800000D02*
X66040000Y-37800000D01*
X72300000Y-36837500D02*
X72300000Y-37298999D01*
X72300000Y-37298999D02*
X71798999Y-37800000D01*
%TO.N,Net-(J3-Pin_3)*%
X71655352Y-37476000D02*
X71900000Y-37231352D01*
X68776000Y-37476000D02*
X71655352Y-37476000D01*
X62100000Y-35700000D02*
X67000000Y-35700000D01*
X67000000Y-35700000D02*
X68776000Y-37476000D01*
X60500000Y-37300000D02*
X62100000Y-35700000D01*
X71900000Y-37231352D02*
X71900000Y-36837500D01*
X60460001Y-37300000D02*
X60500000Y-37300000D01*
D58*
%TO.N,VBAT*%
X47524999Y-26324999D02*
X44900002Y-23700002D01*
X48575001Y-26324999D02*
X47524999Y-26324999D01*
X44900002Y-23700002D02*
X44900002Y-22250000D01*
D57*
%TO.N,VBUS*%
X54337501Y-28012499D02*
X54337501Y-27775004D01*
X53225000Y-29125000D02*
X54337501Y-28012499D01*
X52400000Y-29125000D02*
X53225000Y-29125000D01*
X54325005Y-27787500D02*
X54337501Y-27775004D01*
X52187500Y-27787500D02*
X54325005Y-27787500D01*
D58*
X54337501Y-27775004D02*
X60024996Y-27775004D01*
D57*
X52187500Y-28912500D02*
X52187500Y-27787500D01*
X52400000Y-29125000D02*
X52187500Y-28912500D01*
X54262502Y-27700000D02*
X54337500Y-27774998D01*
X52187500Y-28287500D02*
X52187500Y-27700000D01*
X54337500Y-27774998D02*
X54337500Y-28062500D01*
D58*
X60024996Y-27775004D02*
X60600000Y-27200000D01*
X60600000Y-27200000D02*
X60600000Y-26450000D01*
D57*
X54325003Y-27787499D02*
X54337500Y-27774998D01*
%TO.N,VBAT*%
X48900000Y-26099999D02*
X48575003Y-26424999D01*
%TO.N,1V1*%
X72400001Y-37910002D02*
X72699999Y-37610004D01*
X72699999Y-37610004D02*
X72699999Y-36837500D01*
%TO.N,3V3*%
X73100000Y-37910000D02*
X73100000Y-36837500D01*
D59*
%TO.N,9V*%
X82500000Y-35399999D02*
X83820001Y-36720000D01*
X82500000Y-35200000D02*
X82500000Y-35399999D01*
X82500000Y-35200000D02*
X82500000Y-32000000D01*
X85520000Y-36720000D02*
X83820001Y-36720000D01*
D57*
%TO.N,Net-(U4-TS)*%
X50437502Y-29129997D02*
X50000000Y-28692501D01*
X50000000Y-28692501D02*
X50000000Y-27100000D01*
%TO.N,/DISP_PIN_RST*%
X77800000Y-28300000D02*
X78300000Y-27800000D01*
X76099000Y-30644648D02*
X77800000Y-28943648D01*
X76099000Y-30999001D02*
X76099000Y-30644648D01*
X76300000Y-31200001D02*
X76099000Y-30999001D01*
X77800000Y-28943648D02*
X77800000Y-28300000D01*
X76737500Y-31200001D02*
X76300000Y-31200001D01*
%TO.N,/DISP_PIN_CS*%
X77500000Y-31400000D02*
X77300000Y-31600000D01*
X77300000Y-31600000D02*
X76737500Y-31600000D01*
X78300000Y-28500000D02*
X78300000Y-31400000D01*
X78300000Y-31400000D02*
X77500000Y-31400000D01*
D59*
%TO.N,Net-(DS1-VCOMH)*%
X85100000Y-35800000D02*
X85520000Y-35800000D01*
X84500000Y-35200000D02*
X85100000Y-35800000D01*
X84500000Y-31700000D02*
X84500000Y-35200000D01*
D57*
%TO.N,Net-(DS1-IREF)*%
X78300000Y-24820000D02*
X78300000Y-24800000D01*
%TO.N,3V3*%
X77775000Y-34400000D02*
X77800000Y-34425000D01*
X76737500Y-34400000D02*
X77775000Y-34400000D01*
X81025000Y-35200000D02*
X81000000Y-35200000D01*
%TO.N,/XIN*%
X74201000Y-37652550D02*
X73900001Y-37351551D01*
X74201000Y-38411000D02*
X74201000Y-37652550D01*
X74519000Y-38729000D02*
X74201000Y-38411000D01*
X77571000Y-38729000D02*
X74519000Y-38729000D01*
X78000000Y-38300000D02*
X77571000Y-38729000D01*
X78000000Y-36820000D02*
X78000000Y-38300000D01*
X73900001Y-37351551D02*
X73900001Y-36837500D01*
X79040000Y-36820000D02*
X78000000Y-36820000D01*
X79330000Y-36530000D02*
X79040000Y-36820000D01*
%TO.N,/DISP_PIN_MOSI*%
X81500000Y-25700000D02*
X81900000Y-26100000D01*
X80300000Y-25700000D02*
X81500000Y-25700000D01*
%TO.N,/DISP_PIN_SCLK*%
X79500000Y-26400000D02*
X80300000Y-26400000D01*
X79000000Y-26900000D02*
X79500000Y-26400000D01*
X79000000Y-31295000D02*
X79000000Y-26900000D01*
X78445000Y-31850000D02*
X79000000Y-31295000D01*
%TO.N,/DISP_PIN_RST*%
X78300000Y-27800000D02*
X78500000Y-27800000D01*
%TO.N,/QSPI_SD3*%
X70914322Y-26340000D02*
X70200000Y-25625678D01*
X73491423Y-26340000D02*
X70914322Y-26340000D01*
X74595000Y-28683450D02*
X74595000Y-27443577D01*
X74595000Y-27443577D02*
X73491423Y-26340000D01*
X73900001Y-29378449D02*
X74595000Y-28683450D01*
X70200000Y-25625678D02*
X70200000Y-23580000D01*
X73900001Y-29962500D02*
X73900001Y-29378449D01*
X70200000Y-23580000D02*
X71100000Y-22680000D01*
%TO.N,/QSPI_SCLK*%
X74896000Y-28808128D02*
X74300000Y-29404128D01*
X74896000Y-27318899D02*
X74896000Y-28808128D01*
X73616101Y-26039000D02*
X74896000Y-27318899D01*
X70500000Y-25500000D02*
X71039000Y-26039000D01*
X74300000Y-29404128D02*
X74300000Y-29962500D01*
X70500000Y-24550000D02*
X70500000Y-25500000D01*
X71100000Y-23950000D02*
X70500000Y-24550000D01*
X71039000Y-26039000D02*
X73616101Y-26039000D01*
%TO.N,/QSPI_SD0*%
X71163678Y-25738000D02*
X71100000Y-25674322D01*
X73740779Y-25738000D02*
X71163678Y-25738000D01*
X75197000Y-28932806D02*
X75197000Y-27194221D01*
X74700000Y-29429806D02*
X75197000Y-28932806D01*
X75197000Y-27194221D02*
X73740779Y-25738000D01*
X71100000Y-25674322D02*
X71100000Y-25220000D01*
X74700000Y-29962500D02*
X74700000Y-29429806D01*
%TO.N,/QSPI_SS*%
X77678000Y-22588000D02*
X76500000Y-21410000D01*
X76100000Y-27451356D02*
X77678000Y-25873356D01*
X77678000Y-25873356D02*
X77678000Y-22588000D01*
X76100000Y-29306840D02*
X76100000Y-27451356D01*
X75900000Y-29506840D02*
X76100000Y-29306840D01*
X75900000Y-29962500D02*
X75900000Y-29506840D01*
%TO.N,/QSPI_SD1*%
X75799000Y-27326678D02*
X77377000Y-25748678D01*
X77377000Y-23557000D02*
X76500000Y-22680000D01*
X75799000Y-29182162D02*
X75799000Y-27326678D01*
X75499999Y-29481163D02*
X75799000Y-29182162D01*
X75499999Y-29962500D02*
X75499999Y-29481163D01*
X77377000Y-25748678D02*
X77377000Y-23557000D01*
%TO.N,/QSPI_SD2*%
X75498000Y-29057484D02*
X75100000Y-29455484D01*
X75498000Y-27202000D02*
X75498000Y-29057484D01*
X77076000Y-25624000D02*
X75498000Y-27202000D01*
X75100000Y-29455484D02*
X75100000Y-29962500D01*
X77076000Y-24526000D02*
X77076000Y-25624000D01*
X76500000Y-23950000D02*
X77076000Y-24526000D01*
%TO.N,3V3*%
X70100000Y-21425000D02*
X70100000Y-20800000D01*
X70100000Y-21425000D02*
X71085000Y-21425000D01*
X71085000Y-21425000D02*
X71100000Y-21410000D01*
%TO.N,/DISP_PIN_MOSI*%
X79182500Y-33260000D02*
X81500000Y-33260000D01*
X81900000Y-32860000D02*
X81900000Y-26100000D01*
X78472500Y-32550000D02*
X79182500Y-33260000D01*
X81500000Y-33260000D02*
X81900000Y-32860000D01*
X78445000Y-32550000D02*
X78472500Y-32550000D01*
%TO.N,Net-(U2-GPIO3)*%
X77655000Y-32400000D02*
X77805000Y-32550000D01*
X76737500Y-32400000D02*
X77655000Y-32400000D01*
%TO.N,Net-(U2-GPIO2)*%
X77655000Y-32000000D02*
X77805000Y-31850000D01*
X76737500Y-32000000D02*
X77655000Y-32000000D01*
%TO.N,/XIN*%
X78770000Y-36530000D02*
X79330000Y-36530000D01*
%TO.N,Net-(C16-Pad2)*%
X80730000Y-39030000D02*
X81530000Y-38230000D01*
X73800000Y-38550000D02*
X74280000Y-39030000D01*
X74280000Y-39030000D02*
X80730000Y-39030000D01*
%TO.N,/XOUT*%
X73500000Y-37610000D02*
X73800000Y-37910000D01*
X73500000Y-36837500D02*
X73500000Y-37610000D01*
%TO.N,Net-(C16-Pad2)*%
X82880000Y-38415000D02*
X81715000Y-38415000D01*
X81715000Y-38415000D02*
X81530000Y-38230000D01*
%TO.N,/XIN*%
X79330000Y-36530000D02*
X79655000Y-36205000D01*
%TO.N,3V3*%
X68820000Y-30800000D02*
X69862500Y-30800000D01*
X76737500Y-30800000D02*
X77780000Y-30800000D01*
%TO.N,/QSPI_SCLK*%
X74300000Y-29962502D02*
X74300000Y-29571575D01*
%TO.N,/QSPI_SD2*%
X75099999Y-29962500D02*
X75100000Y-29935180D01*
%TO.N,3V3*%
X69530000Y-29200000D02*
X69530000Y-28890000D01*
X70292500Y-29962500D02*
X69530000Y-29200000D01*
X70700000Y-29962500D02*
X70292500Y-29962500D01*
X71100001Y-29962500D02*
X70700000Y-29962500D01*
X68790000Y-34400000D02*
X69862500Y-34400000D01*
X72699999Y-29962500D02*
X73100000Y-29962500D01*
X72699999Y-29220763D02*
X73030762Y-28890000D01*
%TO.N,1V1*%
X73730000Y-29122772D02*
X73730000Y-28890000D01*
%TO.N,3V3*%
X73100000Y-28959238D02*
X73030762Y-28890000D01*
%TO.N,1V1*%
X73500000Y-29352772D02*
X73730000Y-29122772D01*
%TO.N,3V3*%
X72699999Y-29962500D02*
X72699999Y-29220763D01*
%TO.N,1V1*%
X73500000Y-29962500D02*
X73500000Y-29352772D01*
%TO.N,3V3*%
X73100000Y-29962500D02*
X73100000Y-28959238D01*
%TO.N,/QSPI_SCLK*%
X74300000Y-29962500D02*
X74300000Y-29571575D01*
%TO.N,3V3*%
X73020000Y-28890000D02*
X73100000Y-28970000D01*
X73030000Y-27490000D02*
X73020000Y-27490000D01*
X70230000Y-27485000D02*
X70230000Y-27475068D01*
X70230000Y-27475068D02*
X70230069Y-27474999D01*
X70230000Y-28890000D02*
X70230000Y-28897759D01*
X70723241Y-29391000D02*
X70921000Y-29391000D01*
X71100001Y-29570001D02*
X71100001Y-29962500D01*
X70921000Y-29391000D02*
X71100001Y-29570001D01*
X70230000Y-28897759D02*
X70723241Y-29391000D01*
%TO.N,1V1*%
X71500000Y-29962500D02*
X71500000Y-29459238D01*
X71500000Y-29459238D02*
X70930762Y-28890000D01*
%TO.N,Net-(U2-USB_DP)*%
X72300000Y-29962500D02*
X72300000Y-28920763D01*
X72300000Y-28920763D02*
X72330761Y-28890002D01*
%TO.N,Net-(J1-DN1)*%
X63050000Y-27950000D02*
X63250000Y-27750000D01*
X62450000Y-27950000D02*
X63050000Y-27950000D01*
X62449999Y-27949999D02*
X62450000Y-27950000D01*
X62050001Y-27949999D02*
X62449999Y-27949999D01*
X63250000Y-27750000D02*
X63250000Y-26450000D01*
X62050001Y-27949999D02*
X62050001Y-28862500D01*
X62250000Y-27750000D02*
X62050001Y-27949999D01*
%TO.N,Net-(J1-CC2)*%
X64750000Y-28300001D02*
X64750000Y-26450000D01*
X65079999Y-28630000D02*
X64750000Y-28300001D01*
%TO.N,Net-(J1-CC1)*%
X61750000Y-27799999D02*
X61750000Y-26450000D01*
X60929999Y-28620000D02*
X61750000Y-27799999D01*
%TO.N,Net-(J1-DP1)*%
X63950000Y-27950000D02*
X63950000Y-28862499D01*
X63750000Y-27750000D02*
X63950000Y-27950000D01*
X63950000Y-28862499D02*
X63949999Y-28862500D01*
X63750000Y-27250000D02*
X63750000Y-27750000D01*
%TO.N,Net-(J1-DN1)*%
X62250000Y-26450000D02*
X62250000Y-27750000D01*
X62100000Y-28812501D02*
X62050001Y-28862500D01*
%TO.N,Net-(J1-DP1)*%
X63750000Y-27250000D02*
X63750000Y-26450000D01*
X62750000Y-26450000D02*
X62750000Y-27250000D01*
%TO.N,Net-(C16-Pad2)*%
X80750000Y-39010000D02*
X81530000Y-38230000D01*
%TO.N,Net-(U2-USB_DM)*%
X71630763Y-28890000D02*
X71900000Y-29159237D01*
X71900000Y-29159237D02*
X71900000Y-29962500D01*
%TO.N,/DISP_PIN_DC*%
X76100001Y-32799999D02*
X76100000Y-32800000D01*
X76737500Y-32799999D02*
X76100001Y-32799999D01*
%TO.N,Net-(DS1-VCOMH)*%
X82500000Y-31300000D02*
X82600000Y-31300000D01*
D59*
X82500000Y-31300000D02*
X84100000Y-31300000D01*
X84100000Y-31300000D02*
X84500000Y-31700000D01*
D57*
%TO.N,VBAT*%
X50000000Y-26599999D02*
X50000000Y-26100000D01*
X50000000Y-26100000D02*
X48900000Y-26099999D01*
X48750000Y-26599999D02*
X50000000Y-26599999D01*
X48575003Y-26424999D02*
X48750000Y-26599999D01*
%TO.N,VSYS*%
X52875000Y-26599999D02*
X52875000Y-26100000D01*
X52875000Y-26599999D02*
X54162500Y-26599999D01*
X54162500Y-26599999D02*
X54337500Y-26425001D01*
X52875000Y-26100000D02*
X54012500Y-26100000D01*
X54012500Y-26100000D02*
X54337500Y-26425001D01*
%TD*%
%TA.AperFunction,Conductor*%
%TO.N,GND*%
G36*
X82858312Y-36799195D02*
G01*
X82871643Y-36797279D01*
X82891788Y-36806478D01*
X82913425Y-36811185D01*
X82931149Y-36824452D01*
X82935200Y-36826302D01*
X82941676Y-36832331D01*
X83043682Y-36934337D01*
X83077166Y-36995658D01*
X83080000Y-37022017D01*
X83080000Y-37560500D01*
X83060315Y-37627539D01*
X83007511Y-37673294D01*
X82956000Y-37684500D01*
X82804000Y-37684500D01*
X82736961Y-37664815D01*
X82691206Y-37612011D01*
X82680000Y-37560500D01*
X82680000Y-37016362D01*
X82699685Y-36949323D01*
X82716319Y-36928681D01*
X82732085Y-36912914D01*
X82736237Y-36898772D01*
X82737817Y-36876684D01*
X82745888Y-36865902D01*
X82749682Y-36852980D01*
X82766416Y-36838478D01*
X82779688Y-36820750D01*
X82792307Y-36816043D01*
X82802485Y-36807224D01*
X82824402Y-36804072D01*
X82845152Y-36796333D01*
X82858312Y-36799195D01*
G37*
%TD.AperFunction*%
%TA.AperFunction,Conductor*%
G36*
X75318429Y-30889874D02*
G01*
X75318435Y-30889877D01*
X75389288Y-30898385D01*
X75453497Y-30925920D01*
X75492630Y-30983803D01*
X75498499Y-31021499D01*
X75498499Y-31078055D01*
X75498498Y-31078055D01*
X75500949Y-31087203D01*
X75539423Y-31230786D01*
X75543312Y-31237522D01*
X75552512Y-31253458D01*
X75552513Y-31253459D01*
X75618475Y-31367710D01*
X75618481Y-31367718D01*
X75737349Y-31486586D01*
X75737355Y-31486591D01*
X75763181Y-31512417D01*
X75796666Y-31573740D01*
X75799500Y-31600098D01*
X75799500Y-31693102D01*
X75804338Y-31733392D01*
X75810561Y-31785217D01*
X75810561Y-31814783D01*
X75804718Y-31863440D01*
X75799500Y-31906898D01*
X75799500Y-31906903D01*
X75799500Y-32061957D01*
X75779815Y-32128996D01*
X75744391Y-32165059D01*
X75637521Y-32236467D01*
X75637517Y-32236470D01*
X75536470Y-32337517D01*
X75536467Y-32337521D01*
X75457074Y-32456340D01*
X75457069Y-32456349D01*
X75402381Y-32588379D01*
X75402379Y-32588385D01*
X75374500Y-32728542D01*
X75374500Y-32728545D01*
X75374500Y-32871455D01*
X75374500Y-32871457D01*
X75374499Y-32871457D01*
X75402379Y-33011614D01*
X75402381Y-33011620D01*
X75457069Y-33143650D01*
X75457074Y-33143659D01*
X75536467Y-33262478D01*
X75536470Y-33262482D01*
X75637517Y-33363529D01*
X75637525Y-33363535D01*
X75744390Y-33434940D01*
X75789196Y-33488552D01*
X75799500Y-33538042D01*
X75799500Y-33693102D01*
X75805194Y-33740518D01*
X75810561Y-33785217D01*
X75810561Y-33814783D01*
X75807142Y-33843258D01*
X75799500Y-33906899D01*
X75799500Y-34093103D01*
X75805536Y-34143368D01*
X75810561Y-34185217D01*
X75810561Y-34214783D01*
X75807610Y-34239361D01*
X75799500Y-34306898D01*
X75799500Y-34493102D01*
X75802707Y-34519807D01*
X75810561Y-34585217D01*
X75810561Y-34614783D01*
X75807120Y-34643445D01*
X75799500Y-34706898D01*
X75799500Y-34893102D01*
X75803682Y-34927924D01*
X75810561Y-34985217D01*
X75810561Y-35014783D01*
X75805156Y-35059797D01*
X75799500Y-35106898D01*
X75799500Y-35293102D01*
X75805588Y-35343796D01*
X75810561Y-35385216D01*
X75810561Y-35414782D01*
X75804820Y-35462595D01*
X75799500Y-35506897D01*
X75799500Y-35693101D01*
X75805442Y-35742585D01*
X75808848Y-35770949D01*
X75797296Y-35839857D01*
X75750323Y-35891581D01*
X75682843Y-35909698D01*
X75670949Y-35908848D01*
X75639225Y-35905038D01*
X75593101Y-35899500D01*
X75406897Y-35899500D01*
X75363439Y-35904718D01*
X75314782Y-35910561D01*
X75285216Y-35910561D01*
X75241087Y-35905262D01*
X75193102Y-35899500D01*
X75006898Y-35899500D01*
X74963440Y-35904718D01*
X74914783Y-35910561D01*
X74885217Y-35910561D01*
X74836559Y-35904718D01*
X74793102Y-35899500D01*
X74606898Y-35899500D01*
X74546228Y-35906785D01*
X74512679Y-35910814D01*
X74483113Y-35910814D01*
X74393055Y-35900000D01*
X74206945Y-35900000D01*
X74116887Y-35910814D01*
X74087321Y-35910814D01*
X74062741Y-35907862D01*
X73993103Y-35899500D01*
X73806899Y-35899500D01*
X73767188Y-35904268D01*
X73714783Y-35910561D01*
X73685217Y-35910561D01*
X73636559Y-35904718D01*
X73593102Y-35899500D01*
X73406898Y-35899500D01*
X73363440Y-35904718D01*
X73314783Y-35910561D01*
X73285217Y-35910561D01*
X73236559Y-35904718D01*
X73193102Y-35899500D01*
X73006898Y-35899500D01*
X72967187Y-35904268D01*
X72914782Y-35910561D01*
X72885216Y-35910561D01*
X72836558Y-35904718D01*
X72793101Y-35899500D01*
X72606897Y-35899500D01*
X72563439Y-35904718D01*
X72514782Y-35910561D01*
X72485216Y-35910561D01*
X72441087Y-35905262D01*
X72393102Y-35899500D01*
X72206898Y-35899500D01*
X72163440Y-35904718D01*
X72114783Y-35910561D01*
X72085217Y-35910561D01*
X72036559Y-35904718D01*
X71993102Y-35899500D01*
X71806898Y-35899500D01*
X71763440Y-35904718D01*
X71714783Y-35910561D01*
X71685217Y-35910561D01*
X71636559Y-35904718D01*
X71593102Y-35899500D01*
X71406898Y-35899500D01*
X71363440Y-35904718D01*
X71314783Y-35910561D01*
X71285217Y-35910561D01*
X71241088Y-35905262D01*
X71193103Y-35899500D01*
X71006899Y-35899500D01*
X70977069Y-35903082D01*
X70929048Y-35908848D01*
X70860140Y-35897296D01*
X70808417Y-35850323D01*
X70790300Y-35782843D01*
X70791149Y-35770965D01*
X70800500Y-35693101D01*
X70800500Y-35506897D01*
X70789877Y-35418435D01*
X70789876Y-35418433D01*
X70789438Y-35414784D01*
X70789438Y-35385214D01*
X70789876Y-35381566D01*
X70789877Y-35381564D01*
X70800500Y-35293102D01*
X70800500Y-35106898D01*
X70799893Y-35101847D01*
X70796709Y-35075326D01*
X70789877Y-35018436D01*
X70789876Y-35018434D01*
X70789438Y-35014785D01*
X70789438Y-34985215D01*
X70789876Y-34981565D01*
X70789877Y-34981564D01*
X70800500Y-34893102D01*
X70800500Y-34706898D01*
X70789877Y-34618436D01*
X70789876Y-34618434D01*
X70789438Y-34614785D01*
X70789438Y-34585215D01*
X70789876Y-34581565D01*
X70789877Y-34581564D01*
X70800500Y-34493102D01*
X70800500Y-34306898D01*
X70789877Y-34218436D01*
X70789876Y-34218434D01*
X70789438Y-34214785D01*
X70789438Y-34185215D01*
X70789876Y-34181567D01*
X70789877Y-34181565D01*
X70800500Y-34093103D01*
X70800500Y-33906899D01*
X70796497Y-33873568D01*
X70789438Y-33814780D01*
X70789438Y-33785210D01*
X70789875Y-33781568D01*
X70789877Y-33781564D01*
X70800500Y-33693102D01*
X70800500Y-33506898D01*
X70789877Y-33418436D01*
X70789876Y-33418434D01*
X70789438Y-33414785D01*
X70789438Y-33385215D01*
X70789876Y-33381565D01*
X70789877Y-33381564D01*
X70800500Y-33293102D01*
X70800500Y-33106898D01*
X70800252Y-33104835D01*
X70789438Y-33014779D01*
X70789438Y-32985209D01*
X70789875Y-32981567D01*
X70789877Y-32981563D01*
X70800500Y-32893101D01*
X70800500Y-32706897D01*
X70799953Y-32702346D01*
X70794868Y-32659999D01*
X70789877Y-32618435D01*
X70789876Y-32618433D01*
X70789438Y-32614784D01*
X70789438Y-32585214D01*
X70789876Y-32581566D01*
X70789877Y-32581564D01*
X70800500Y-32493102D01*
X70800500Y-32306898D01*
X70789877Y-32218436D01*
X70789876Y-32218434D01*
X70789438Y-32214785D01*
X70789438Y-32185215D01*
X70789876Y-32181565D01*
X70789877Y-32181564D01*
X70800500Y-32093102D01*
X70800500Y-31906898D01*
X70789877Y-31818436D01*
X70789876Y-31818434D01*
X70789438Y-31814785D01*
X70789438Y-31785215D01*
X70789876Y-31781565D01*
X70789877Y-31781564D01*
X70800500Y-31693102D01*
X70800500Y-31506898D01*
X70800471Y-31506660D01*
X70797340Y-31480580D01*
X70789877Y-31418436D01*
X70789876Y-31418434D01*
X70789438Y-31414785D01*
X70789438Y-31385215D01*
X70789876Y-31381567D01*
X70789877Y-31381565D01*
X70800500Y-31293103D01*
X70800500Y-31106899D01*
X70791151Y-31029048D01*
X70802703Y-30960143D01*
X70849675Y-30908419D01*
X70917155Y-30890301D01*
X70929038Y-30891150D01*
X71006899Y-30900500D01*
X71006906Y-30900500D01*
X71193103Y-30900500D01*
X71281565Y-30889877D01*
X71281567Y-30889876D01*
X71285215Y-30889438D01*
X71314785Y-30889438D01*
X71318434Y-30889876D01*
X71318436Y-30889877D01*
X71389269Y-30898383D01*
X71406897Y-30900500D01*
X71406898Y-30900500D01*
X71593103Y-30900500D01*
X71610731Y-30898383D01*
X71681564Y-30889877D01*
X71681565Y-30889876D01*
X71685215Y-30889438D01*
X71714785Y-30889438D01*
X71718434Y-30889876D01*
X71718436Y-30889877D01*
X71789269Y-30898383D01*
X71806897Y-30900500D01*
X71806898Y-30900500D01*
X71993103Y-30900500D01*
X72010731Y-30898383D01*
X72081564Y-30889877D01*
X72081565Y-30889876D01*
X72085215Y-30889438D01*
X72114785Y-30889438D01*
X72118434Y-30889876D01*
X72118436Y-30889877D01*
X72189269Y-30898383D01*
X72206897Y-30900500D01*
X72206898Y-30900500D01*
X72393102Y-30900500D01*
X72481564Y-30889877D01*
X72481566Y-30889876D01*
X72485214Y-30889438D01*
X72514784Y-30889438D01*
X72518433Y-30889876D01*
X72518435Y-30889877D01*
X72589268Y-30898383D01*
X72606896Y-30900500D01*
X72606897Y-30900500D01*
X72793100Y-30900500D01*
X72793101Y-30900500D01*
X72881563Y-30889877D01*
X72881567Y-30889875D01*
X72885209Y-30889438D01*
X72914779Y-30889438D01*
X73006896Y-30900500D01*
X73006898Y-30900500D01*
X73193103Y-30900500D01*
X73210731Y-30898383D01*
X73281564Y-30889877D01*
X73281565Y-30889876D01*
X73285215Y-30889438D01*
X73314785Y-30889438D01*
X73318434Y-30889876D01*
X73318436Y-30889877D01*
X73389269Y-30898383D01*
X73406897Y-30900500D01*
X73406898Y-30900500D01*
X73593101Y-30900500D01*
X73593102Y-30900500D01*
X73681564Y-30889877D01*
X73681568Y-30889875D01*
X73685210Y-30889438D01*
X73714780Y-30889438D01*
X73806897Y-30900500D01*
X73806899Y-30900500D01*
X73993103Y-30900500D01*
X74081565Y-30889877D01*
X74081567Y-30889876D01*
X74085215Y-30889438D01*
X74114785Y-30889438D01*
X74118434Y-30889876D01*
X74118436Y-30889877D01*
X74189269Y-30898383D01*
X74206897Y-30900500D01*
X74206898Y-30900500D01*
X74393103Y-30900500D01*
X74410731Y-30898383D01*
X74481564Y-30889877D01*
X74481565Y-30889876D01*
X74485215Y-30889438D01*
X74514785Y-30889438D01*
X74518434Y-30889876D01*
X74518436Y-30889877D01*
X74589269Y-30898383D01*
X74606897Y-30900500D01*
X74606898Y-30900500D01*
X74793103Y-30900500D01*
X74810731Y-30898383D01*
X74881564Y-30889877D01*
X74881565Y-30889876D01*
X74885215Y-30889438D01*
X74914785Y-30889438D01*
X74918434Y-30889876D01*
X74918436Y-30889877D01*
X74989269Y-30898383D01*
X75006897Y-30900500D01*
X75006898Y-30900500D01*
X75193102Y-30900500D01*
X75281564Y-30889877D01*
X75281566Y-30889876D01*
X75285214Y-30889438D01*
X75314783Y-30889437D01*
X75318429Y-30889874D01*
G37*
%TD.AperFunction*%
%TA.AperFunction,Conductor*%
G36*
X100612539Y-27520184D02*
G01*
X100658294Y-27572988D01*
X100669500Y-27624499D01*
X100669500Y-27909168D01*
X100669501Y-27909190D01*
X100672335Y-27945204D01*
X100717129Y-28099387D01*
X100717131Y-28099392D01*
X100798863Y-28237594D01*
X100798869Y-28237602D01*
X100912396Y-28351129D01*
X100912400Y-28351132D01*
X100912402Y-28351134D01*
X101022378Y-28416174D01*
X101070061Y-28467242D01*
X101082565Y-28535983D01*
X101055920Y-28600573D01*
X100998585Y-28640503D01*
X100997575Y-28640836D01*
X100947960Y-28656956D01*
X100947957Y-28656957D01*
X100790109Y-28737386D01*
X100743068Y-28771564D01*
X100646786Y-28841517D01*
X100646784Y-28841519D01*
X100646783Y-28841519D01*
X100521519Y-28966783D01*
X100521519Y-28966784D01*
X100521517Y-28966786D01*
X100489588Y-29010733D01*
X100417386Y-29110109D01*
X100336957Y-29267957D01*
X100336956Y-29267960D01*
X100282214Y-29436443D01*
X100262195Y-29562840D01*
X100254500Y-29611421D01*
X100254500Y-29788579D01*
X100255691Y-29796102D01*
X100246739Y-29865393D01*
X100201744Y-29918846D01*
X100134993Y-29939487D01*
X100133219Y-29939500D01*
X99959217Y-29939500D01*
X99959211Y-29939500D01*
X99959206Y-29939501D01*
X99660233Y-29978861D01*
X99368939Y-30056913D01*
X99090338Y-30172314D01*
X99090328Y-30172318D01*
X98829168Y-30323099D01*
X98657945Y-30454482D01*
X98592775Y-30479676D01*
X98524331Y-30465637D01*
X98474341Y-30416823D01*
X98458678Y-30348732D01*
X98462681Y-30324027D01*
X98511993Y-30139993D01*
X98550500Y-29847506D01*
X98550500Y-29552494D01*
X98511993Y-29260007D01*
X98435639Y-28975048D01*
X98434683Y-28972741D01*
X98399201Y-28887079D01*
X98322743Y-28702493D01*
X98315035Y-28689143D01*
X98175238Y-28447006D01*
X97995647Y-28212959D01*
X97995641Y-28212952D01*
X97787047Y-28004358D01*
X97787040Y-28004352D01*
X97729238Y-27959999D01*
X98687156Y-27959999D01*
X98727595Y-28099193D01*
X98809261Y-28237284D01*
X98809268Y-28237293D01*
X98922705Y-28350730D01*
X98922714Y-28350737D01*
X99060808Y-28432405D01*
X99060811Y-28432406D01*
X99214871Y-28477165D01*
X99214877Y-28477166D01*
X99250000Y-28479930D01*
X99250000Y-28479929D01*
X99750000Y-28479929D01*
X99785122Y-28477166D01*
X99785128Y-28477165D01*
X99939188Y-28432406D01*
X99939191Y-28432405D01*
X100077285Y-28350737D01*
X100077294Y-28350730D01*
X100190731Y-28237293D01*
X100190738Y-28237284D01*
X100272404Y-28099193D01*
X100312844Y-27959999D01*
X99750000Y-27959999D01*
X99750000Y-28479929D01*
X99250000Y-28479929D01*
X99250000Y-27959999D01*
X98687156Y-27959999D01*
X97729238Y-27959999D01*
X97552993Y-27824761D01*
X97392128Y-27731886D01*
X97343913Y-27681319D01*
X97330689Y-27612712D01*
X97356657Y-27547847D01*
X97413571Y-27507319D01*
X97454128Y-27500499D01*
X100545500Y-27500499D01*
X100612539Y-27520184D01*
G37*
%TD.AperFunction*%
%TA.AperFunction,Conductor*%
G36*
X69200000Y-26669862D02*
G01*
X69241689Y-26661570D01*
X69384705Y-26602331D01*
X69385513Y-26602244D01*
X69386153Y-26601742D01*
X69420150Y-26598520D01*
X69454174Y-26594862D01*
X69454902Y-26595226D01*
X69455711Y-26595150D01*
X69486042Y-26610813D01*
X69516654Y-26626137D01*
X69517309Y-26626961D01*
X69517791Y-26627210D01*
X69525387Y-26635134D01*
X69534039Y-26645000D01*
X69703568Y-26645000D01*
X69770607Y-26664685D01*
X69816362Y-26717489D01*
X69826306Y-26786647D01*
X69797281Y-26850203D01*
X69779058Y-26867372D01*
X69701718Y-26926718D01*
X69650747Y-26993146D01*
X69648183Y-26996487D01*
X69621646Y-27015863D01*
X69595812Y-27036150D01*
X69593571Y-27036362D01*
X69591755Y-27037689D01*
X69549807Y-27045000D01*
X69534041Y-27045000D01*
X69523290Y-27057259D01*
X69464287Y-27094682D01*
X69430062Y-27099499D01*
X67124000Y-27099499D01*
X67056961Y-27079814D01*
X67011206Y-27027010D01*
X67000000Y-26975499D01*
X67000000Y-26700000D01*
X66450000Y-26700000D01*
X66450000Y-26975499D01*
X66447449Y-26984184D01*
X66448738Y-26993146D01*
X66437759Y-27017186D01*
X66430315Y-27042538D01*
X66423474Y-27048465D01*
X66419713Y-27056702D01*
X66397478Y-27070991D01*
X66377511Y-27088293D01*
X66366996Y-27090580D01*
X66360935Y-27094476D01*
X66326000Y-27099499D01*
X66324500Y-27099499D01*
X66257461Y-27079814D01*
X66211706Y-27027010D01*
X66200500Y-26975499D01*
X66200500Y-26361169D01*
X66200499Y-26361155D01*
X66200499Y-26224500D01*
X66203049Y-26215814D01*
X66201761Y-26206853D01*
X66212739Y-26182812D01*
X66220184Y-26157461D01*
X66227024Y-26151533D01*
X66230786Y-26143297D01*
X66253020Y-26129007D01*
X66272988Y-26111706D01*
X66283502Y-26109418D01*
X66289564Y-26105523D01*
X66324499Y-26100500D01*
X66326000Y-26100500D01*
X66393039Y-26120185D01*
X66438794Y-26172989D01*
X66443188Y-26193188D01*
X66450000Y-26200000D01*
X67000000Y-26200000D01*
X67008083Y-26191916D01*
X67012240Y-26182812D01*
X67019685Y-26157461D01*
X67026525Y-26151533D01*
X67030287Y-26143297D01*
X67052521Y-26129007D01*
X67072489Y-26111706D01*
X67083003Y-26109418D01*
X67089065Y-26105523D01*
X67124000Y-26100500D01*
X67336240Y-26100500D01*
X67403279Y-26120185D01*
X67443626Y-26162499D01*
X67469500Y-26207314D01*
X67562686Y-26300500D01*
X67655863Y-26354296D01*
X67676810Y-26366390D01*
X67676814Y-26366392D01*
X67804108Y-26400500D01*
X67804110Y-26400500D01*
X67935890Y-26400500D01*
X67935892Y-26400500D01*
X68063186Y-26366392D01*
X68063189Y-26366390D01*
X68068899Y-26363094D01*
X68136799Y-26346619D01*
X68202826Y-26369470D01*
X68218583Y-26382798D01*
X68312533Y-26476748D01*
X68312537Y-26476751D01*
X68476315Y-26586185D01*
X68476328Y-26586192D01*
X68658308Y-26661569D01*
X68700000Y-26669862D01*
X68700000Y-25866988D01*
X68709940Y-25884205D01*
X68765795Y-25940060D01*
X68834204Y-25979556D01*
X68910504Y-26000000D01*
X68989496Y-26000000D01*
X69065796Y-25979556D01*
X69134205Y-25940060D01*
X69190060Y-25884205D01*
X69200000Y-25866988D01*
X69200000Y-26669862D01*
G37*
%TD.AperFunction*%
%TA.AperFunction,Conductor*%
G36*
X51470014Y-25834501D02*
G01*
X51470174Y-25833905D01*
X51478024Y-25836008D01*
X51478026Y-25836008D01*
X51478028Y-25836009D01*
X51588099Y-25850500D01*
X51786900Y-25850499D01*
X51799539Y-25848835D01*
X51868573Y-25859600D01*
X51920829Y-25905980D01*
X51939715Y-25973249D01*
X51938664Y-25987952D01*
X51937000Y-26000596D01*
X51937000Y-26199403D01*
X51951489Y-26309468D01*
X51953594Y-26317322D01*
X51950314Y-26318200D01*
X51956081Y-26372073D01*
X51953017Y-26382522D01*
X51953595Y-26382677D01*
X51951490Y-26390529D01*
X51937000Y-26500598D01*
X51937000Y-26699400D01*
X51938665Y-26712045D01*
X51927896Y-26781080D01*
X51881513Y-26833333D01*
X51814243Y-26852215D01*
X51799546Y-26851164D01*
X51786901Y-26849500D01*
X51588096Y-26849500D01*
X51478031Y-26863989D01*
X51470178Y-26866094D01*
X51469302Y-26862824D01*
X51415353Y-26868567D01*
X51404977Y-26865518D01*
X51404823Y-26866095D01*
X51396970Y-26863990D01*
X51286901Y-26849500D01*
X51088098Y-26849500D01*
X51075453Y-26851165D01*
X51006418Y-26840395D01*
X50954165Y-26794012D01*
X50935284Y-26726742D01*
X50936336Y-26712039D01*
X50938000Y-26699401D01*
X50937999Y-26500600D01*
X50937618Y-26497709D01*
X50933605Y-26467224D01*
X50923509Y-26390528D01*
X50923508Y-26390525D01*
X50921405Y-26382674D01*
X50924707Y-26381789D01*
X50918892Y-26328075D01*
X50922001Y-26317485D01*
X50921405Y-26317326D01*
X50923508Y-26309475D01*
X50923508Y-26309474D01*
X50923509Y-26309472D01*
X50938000Y-26199401D01*
X50937999Y-26000600D01*
X50937998Y-26000596D01*
X50936335Y-25987960D01*
X50947101Y-25918925D01*
X50993481Y-25866669D01*
X51060749Y-25847784D01*
X51075459Y-25848836D01*
X51076445Y-25848965D01*
X51088099Y-25850500D01*
X51286900Y-25850499D01*
X51286901Y-25850499D01*
X51307524Y-25847784D01*
X51396972Y-25836009D01*
X51396975Y-25836007D01*
X51404826Y-25833905D01*
X51405710Y-25837207D01*
X51459425Y-25831392D01*
X51470014Y-25834501D01*
G37*
%TD.AperFunction*%
%TA.AperFunction,Conductor*%
G36*
X57572539Y-25069685D02*
G01*
X57618294Y-25122489D01*
X57629500Y-25174000D01*
X57629500Y-25426000D01*
X57609815Y-25493039D01*
X57557011Y-25538794D01*
X57505500Y-25550000D01*
X57350000Y-25550000D01*
X57350000Y-25050000D01*
X57505500Y-25050000D01*
X57572539Y-25069685D01*
G37*
%TD.AperFunction*%
%TA.AperFunction,Conductor*%
G36*
X68650000Y-25550000D02*
G01*
X68494500Y-25550000D01*
X68427461Y-25530315D01*
X68381706Y-25477511D01*
X68370500Y-25426000D01*
X68370500Y-25174000D01*
X68390185Y-25106961D01*
X68442989Y-25061206D01*
X68494500Y-25050000D01*
X68650000Y-25050000D01*
X68650000Y-25550000D01*
G37*
%TD.AperFunction*%
%TA.AperFunction,Conductor*%
G36*
X69200000Y-23269862D02*
G01*
X69241690Y-23261569D01*
X69241692Y-23261569D01*
X69423671Y-23186192D01*
X69423684Y-23186185D01*
X69486669Y-23144100D01*
X69553346Y-23123222D01*
X69620726Y-23141706D01*
X69667417Y-23193685D01*
X69678593Y-23262655D01*
X69662947Y-23309202D01*
X69640423Y-23348215D01*
X69599499Y-23500943D01*
X69599499Y-23500945D01*
X69599499Y-23669046D01*
X69599500Y-23669059D01*
X69599500Y-23901059D01*
X69579815Y-23968098D01*
X69527011Y-24013853D01*
X69457853Y-24023797D01*
X69428048Y-24015620D01*
X69241691Y-23938429D01*
X69241683Y-23938427D01*
X69200000Y-23930135D01*
X69200000Y-24733011D01*
X69190060Y-24715795D01*
X69134205Y-24659940D01*
X69065796Y-24620444D01*
X68989496Y-24600000D01*
X68910504Y-24600000D01*
X68834204Y-24620444D01*
X68765795Y-24659940D01*
X68709940Y-24715795D01*
X68700000Y-24733011D01*
X68700000Y-23930136D01*
X68699999Y-23930135D01*
X68658316Y-23938427D01*
X68658308Y-23938429D01*
X68541952Y-23986625D01*
X68472482Y-23994094D01*
X68410003Y-23962818D01*
X68374352Y-23902729D01*
X68370500Y-23872064D01*
X68370500Y-23327935D01*
X68390185Y-23260896D01*
X68442989Y-23215141D01*
X68512147Y-23205197D01*
X68541952Y-23213374D01*
X68658308Y-23261569D01*
X68700000Y-23269862D01*
X68700000Y-22466988D01*
X68709940Y-22484205D01*
X68765795Y-22540060D01*
X68834204Y-22579556D01*
X68910504Y-22600000D01*
X68989496Y-22600000D01*
X69065796Y-22579556D01*
X69134205Y-22540060D01*
X69190060Y-22484205D01*
X69200000Y-22466988D01*
X69200000Y-23269862D01*
G37*
%TD.AperFunction*%
%TA.AperFunction,Conductor*%
G36*
X57572539Y-21569685D02*
G01*
X57618294Y-21622489D01*
X57629500Y-21674000D01*
X57629500Y-21926000D01*
X57609815Y-21993039D01*
X57557011Y-22038794D01*
X57505500Y-22050000D01*
X57350000Y-22050000D01*
X57350000Y-21550000D01*
X57505500Y-21550000D01*
X57572539Y-21569685D01*
G37*
%TD.AperFunction*%
%TA.AperFunction,Conductor*%
G36*
X68650000Y-22050000D02*
G01*
X68494500Y-22050000D01*
X68427461Y-22030315D01*
X68381706Y-21977511D01*
X68370500Y-21926000D01*
X68370500Y-21674000D01*
X68390185Y-21606961D01*
X68442989Y-21561206D01*
X68494500Y-21550000D01*
X68650000Y-21550000D01*
X68650000Y-22050000D01*
G37*
%TD.AperFunction*%
%TD*%
M02*
