%TF.GenerationSoftware,KiCad,Pcbnew,9.0.3*%
%TF.CreationDate,2025-07-16T18:33:31-04:00*%
%TF.ProjectId,board,626f6172-642e-46b6-9963-61645f706362,rev?*%
%TF.SameCoordinates,Original*%
%TF.FileFunction,Legend,Top*%
%TF.FilePolarity,Positive*%
%FSLAX46Y46*%
G04 Gerber Fmt 4.6, Leading zero omitted, Abs format (unit mm)*
G04 Created by KiCad (PCBNEW 9.0.3) date 2025-07-16 18:33:31*
%MOMM*%
%LPD*%
G01*
G04 APERTURE LIST*
%ADD10C,0.120000*%
G04 APERTURE END LIST*
D10*
%TO.C,J2*%
X40540001Y-20140000D02*
X40540001Y-21390000D01*
X40840001Y-20440000D02*
X40840001Y-25160000D01*
X40840001Y-21750001D02*
X41450001Y-21750000D01*
X40840001Y-23049999D02*
X41450001Y-23050000D01*
X40840001Y-25160000D02*
X46960001Y-25160000D01*
X41450001Y-21050000D02*
X41450001Y-24550000D01*
X41450001Y-24550000D02*
X46350001Y-24550000D01*
X41790001Y-20140000D02*
X40540001Y-20140000D01*
X42300001Y-20239999D02*
X42300001Y-20440000D01*
X42600001Y-20239999D02*
X42300001Y-20239999D01*
X42600001Y-20340000D02*
X42300001Y-20340000D01*
X42600001Y-20440000D02*
X42600001Y-20239999D01*
X43400001Y-20440000D02*
X43400001Y-21049999D01*
X43400001Y-21049999D02*
X41450001Y-21050000D01*
X43800001Y-24050000D02*
X44000001Y-24050000D01*
X43800002Y-24550000D02*
X43800001Y-24050000D01*
X43900001Y-24550000D02*
X43900001Y-24050000D01*
X44000001Y-24050000D02*
X44000001Y-24550000D01*
X44400001Y-21050000D02*
X44400001Y-20440000D01*
X46350001Y-21049999D02*
X44400001Y-21050000D01*
X46350001Y-24550000D02*
X46350001Y-21049999D01*
X46960001Y-20440000D02*
X40840001Y-20440000D01*
X46960001Y-21750000D02*
X46350001Y-21750000D01*
X46960001Y-23050000D02*
X46350001Y-23050000D01*
X46960001Y-25160000D02*
X46960001Y-20440000D01*
%TO.C,J4*%
X41245000Y-38580000D02*
X41245001Y-37200000D01*
X42625000Y-38579999D02*
X41245000Y-38580000D01*
X43895000Y-38580000D02*
X46545000Y-38580000D01*
X43895000Y-38580000D02*
X43895000Y-35820000D01*
X46545000Y-38580000D02*
X46545000Y-35820000D01*
X43895000Y-35820000D02*
X46545000Y-35820000D01*
%TO.C,SW1*%
X36800000Y-36800000D02*
X36800000Y-22600000D01*
X36800000Y-22600000D02*
X22600000Y-22600000D01*
X22600000Y-22600000D02*
X22600000Y-36800000D01*
X22600000Y-36800000D02*
X36800000Y-36800000D01*
%TO.C,SW2*%
X89200000Y-36800000D02*
X103400000Y-36800000D01*
X89200000Y-22600000D02*
X89200000Y-36800000D01*
X103400000Y-22600000D02*
X89200000Y-22600000D01*
X103400000Y-36800000D02*
X103400000Y-22600000D01*
%TD*%
M02*
