%TF.GenerationSoftware,KiCad,Pcbnew,9.0.3*%
%TF.CreationDate,2025-07-18T01:49:26-04:00*%
%TF.ProjectId,board,626f6172-642e-46b6-9963-61645f706362,rev?*%
%TF.SameCoordinates,Original*%
%TF.FileFunction,Copper,L3,Inr*%
%TF.FilePolarity,Positive*%
%FSLAX46Y46*%
G04 Gerber Fmt 4.6, Leading zero omitted, Abs format (unit mm)*
G04 Created by KiCad (PCBNEW 9.0.3) date 2025-07-18 01:49:26*
%MOMM*%
%LPD*%
G01*
G04 APERTURE LIST*
G04 Aperture macros list*
%AMRoundRect*
0 Rectangle with rounded corners*
0 $1 Rounding radius*
0 $2 $3 $4 $5 $6 $7 $8 $9 X,Y pos of 4 corners*
0 Add a 4 corners polygon primitive as box body*
4,1,4,$2,$3,$4,$5,$6,$7,$8,$9,$2,$3,0*
0 Add four circle primitives for the rounded corners*
1,1,$1+$1,$2,$3*
1,1,$1+$1,$4,$5*
1,1,$1+$1,$6,$7*
1,1,$1+$1,$8,$9*
0 Add four rect primitives between the rounded corners*
20,1,$1+$1,$2,$3,$4,$5,0*
20,1,$1+$1,$4,$5,$6,$7,0*
20,1,$1+$1,$6,$7,$8,$9,0*
20,1,$1+$1,$8,$9,$2,$3,0*%
G04 Aperture macros list end*
%TA.AperFunction,ComponentPad*%
%ADD10RoundRect,0.250000X-0.350000X-0.625000X0.350000X-0.625000X0.350000X0.625000X-0.350000X0.625000X0*%
%TD*%
%TA.AperFunction,ComponentPad*%
%ADD11O,1.200000X1.750000*%
%TD*%
%TA.AperFunction,ComponentPad*%
%ADD12R,1.700000X1.700000*%
%TD*%
%TA.AperFunction,ComponentPad*%
%ADD13C,1.700000*%
%TD*%
%TA.AperFunction,ComponentPad*%
%ADD14C,3.600000*%
%TD*%
%TA.AperFunction,ComponentPad*%
%ADD15O,1.000000X1.800000*%
%TD*%
%TA.AperFunction,ComponentPad*%
%ADD16O,1.000000X2.000000*%
%TD*%
%TA.AperFunction,ViaPad*%
%ADD17C,0.450000*%
%TD*%
G04 APERTURE END LIST*
D10*
%TO.N,GND*%
%TO.C,J2*%
X42900001Y-22250000D03*
D11*
%TO.N,VBAT*%
X44900002Y-22250000D03*
%TD*%
D12*
%TO.N,Net-(J4-Pin_1)*%
%TO.C,J4*%
X42625000Y-37600000D03*
D13*
%TO.N,Net-(J4-Pin_2)*%
X45165000Y-37600000D03*
%TD*%
D14*
%TO.N,/BUTTON_L*%
%TO.C,SW1*%
X25890000Y-27160000D03*
%TO.N,GND*%
X32240000Y-24620000D03*
%TD*%
%TO.N,/BUTTON_R*%
%TO.C,SW2*%
X92490000Y-27160000D03*
%TO.N,GND*%
X98840000Y-24620000D03*
%TD*%
D15*
%TO.N,GND*%
%TO.C,J1*%
X57050000Y-25300000D03*
X68950000Y-25300000D03*
D16*
X57050000Y-21800000D03*
X68950000Y-21800000D03*
%TD*%
D17*
%TO.N,/BUTTON_R*%
X88900000Y-29200000D03*
%TO.N,/BUTTON_L*%
X23100000Y-24500000D03*
%TO.N,GND*%
X63540000Y-33200000D03*
X53500000Y-29050000D03*
X63550000Y-34280000D03*
X63000000Y-33750000D03*
X83500000Y-37140000D03*
X62450000Y-34300000D03*
X71762501Y-23350000D03*
X77490000Y-32330000D03*
X51437500Y-23850000D03*
X53850000Y-37950000D03*
X61900000Y-33750000D03*
X51940000Y-23850000D03*
X58600000Y-30750000D03*
X51940000Y-23350000D03*
X62470000Y-33210000D03*
X59800000Y-37800000D03*
X49900000Y-37850000D03*
X63000000Y-34850000D03*
X77800000Y-29935000D03*
X64100000Y-33750000D03*
X81900000Y-25000000D03*
X63000000Y-32650000D03*
X49250000Y-28950000D03*
X51942500Y-22860000D03*
X52200000Y-32800000D03*
X51440000Y-22860000D03*
X50940000Y-23850000D03*
X62520000Y-28200000D03*
X32400000Y-36400000D03*
X50942500Y-22860000D03*
X51437500Y-23350000D03*
X69720000Y-34650000D03*
X99000000Y-36500000D03*
X71250000Y-33700000D03*
X66240000Y-28300000D03*
X68320000Y-28450000D03*
X56050000Y-36250000D03*
X50940000Y-23350000D03*
X60568700Y-28878752D03*
X50000000Y-28950000D03*
%TO.N,VBUS*%
X60600000Y-26450000D03*
X70062500Y-22250000D03*
X55700000Y-24800000D03*
X65400000Y-26450000D03*
%TO.N,VSYS*%
X50800000Y-21000000D03*
X54700000Y-28800000D03*
X49830000Y-25970000D03*
X55700000Y-23900000D03*
X55700000Y-22700000D03*
X54650000Y-31880000D03*
X51510000Y-27620000D03*
X52000000Y-27100000D03*
X51500000Y-27100000D03*
X85787500Y-37150000D03*
X81850000Y-36349999D03*
X53600000Y-23325000D03*
X55700000Y-23300000D03*
X57800000Y-33250000D03*
%TO.N,3V3*%
X64510000Y-28760000D03*
X59076274Y-31226274D03*
X77800000Y-30575000D03*
X62980000Y-29250000D03*
X50730000Y-31860000D03*
X57525000Y-35175000D03*
X50840000Y-30410000D03*
X64940000Y-28340000D03*
X65340000Y-27940000D03*
X51250000Y-31860000D03*
X50975000Y-34600000D03*
X69700000Y-33900000D03*
X75050000Y-24550000D03*
X51330000Y-30410000D03*
X77830000Y-28500000D03*
X75050000Y-26500000D03*
X69080000Y-29150000D03*
%TO.N,1V1*%
X67680000Y-28450000D03*
X69080000Y-28450000D03*
X69080000Y-29850000D03*
%TO.N,/DISP_PIN_CS*%
X75700000Y-29700000D03*
X78470000Y-28500000D03*
%TO.N,/DISP_PIN_RST*%
X78500000Y-27800000D03*
X75125085Y-29710008D03*
%TO.N,Net-(J1-DN1)*%
X70812500Y-21050000D03*
X63250000Y-27250000D03*
X62250000Y-27250000D03*
%TO.N,/DISP_PIN_MOSI*%
X78500000Y-25700000D03*
X76900000Y-26950000D03*
%TO.N,/BUTTON_L*%
X62550000Y-36500000D03*
%TO.N,/BUTTON_R*%
X64650000Y-38350000D03*
%TO.N,/BUTTON_MENU*%
X74399999Y-22200000D03*
X61200000Y-38400000D03*
X78499999Y-22200000D03*
%TO.N,/AUDIO_I2S_DOUT*%
X50850000Y-37000000D03*
X56559994Y-32600000D03*
%TO.N,Net-(J1-DP1)*%
X64250000Y-27450000D03*
X72712500Y-21075000D03*
%TO.N,/AUDIO_I2S_SD*%
X55984991Y-32600000D03*
X50850000Y-36424997D03*
%TO.N,/AUDIO_I2S_LRCK*%
X49324997Y-37850000D03*
X57710000Y-32600000D03*
%TO.N,/AUDIO_I2S_BCLK*%
X50850000Y-37600000D03*
X57134997Y-32600000D03*
%TO.N,/USB_D+*%
X66151249Y-29618701D03*
X72712500Y-24300000D03*
%TO.N,/USB_D-*%
X72172500Y-24650000D03*
X65656274Y-29123726D03*
%TO.N,/DISP_REG_EN*%
X77310000Y-34970000D03*
X85787500Y-36200001D03*
%TO.N,/PWR_~{PGOOD}*%
X52100000Y-21000000D03*
X57800000Y-28350000D03*
%TO.N,/PWR_~{CHG}*%
X57800000Y-27700000D03*
X53600000Y-21000000D03*
%TO.N,/PWR_CHG_EN*%
X57150000Y-28350000D03*
X49800000Y-22000000D03*
%TO.N,Net-(D1-DIN)*%
X34100000Y-34000000D03*
X93550000Y-36400000D03*
%TO.N,Net-(D2-DIN)*%
X77750000Y-34400000D03*
X91850000Y-32550000D03*
%TO.N,VSYS_GATED*%
X53500000Y-33800000D03*
X26960000Y-32770000D03*
X59640000Y-28940000D03*
X93550000Y-33030000D03*
%TD*%
%TA.AperFunction,Conductor*%
%TO.N,GND*%
G36*
X56771604Y-20222174D02*
G01*
X56793278Y-20274500D01*
X56771604Y-20326826D01*
X56747596Y-20342867D01*
X56576324Y-20413809D01*
X56412540Y-20523246D01*
X56273246Y-20662540D01*
X56163809Y-20826324D01*
X56088430Y-21008306D01*
X56088427Y-21008317D01*
X56050000Y-21201509D01*
X56050000Y-21550000D01*
X56750000Y-21550000D01*
X56750000Y-22050000D01*
X56050000Y-22050000D01*
X56050000Y-22167105D01*
X56028326Y-22219431D01*
X55976000Y-22241105D01*
X55939001Y-22231191D01*
X55902840Y-22210314D01*
X55902831Y-22210310D01*
X55769185Y-22174500D01*
X55769183Y-22174500D01*
X55630817Y-22174500D01*
X55630815Y-22174500D01*
X55497168Y-22210310D01*
X55497163Y-22210312D01*
X55377334Y-22279495D01*
X55279495Y-22377334D01*
X55210312Y-22497163D01*
X55210310Y-22497168D01*
X55174500Y-22630814D01*
X55174500Y-22769185D01*
X55210310Y-22902831D01*
X55210314Y-22902840D01*
X55245047Y-22963001D01*
X55252439Y-23019154D01*
X55245047Y-23036999D01*
X55210314Y-23097159D01*
X55210310Y-23097168D01*
X55174500Y-23230814D01*
X55174500Y-23369185D01*
X55210310Y-23502831D01*
X55210314Y-23502840D01*
X55245047Y-23563001D01*
X55252439Y-23619154D01*
X55245047Y-23636999D01*
X55210314Y-23697159D01*
X55210310Y-23697168D01*
X55174500Y-23830814D01*
X55174500Y-23969185D01*
X55210310Y-24102831D01*
X55210312Y-24102836D01*
X55279495Y-24222665D01*
X55354504Y-24297674D01*
X55376178Y-24350000D01*
X55354504Y-24402326D01*
X55279495Y-24477334D01*
X55210312Y-24597163D01*
X55210310Y-24597168D01*
X55174500Y-24730814D01*
X55174500Y-24869185D01*
X55210310Y-25002831D01*
X55210312Y-25002836D01*
X55279495Y-25122665D01*
X55377335Y-25220505D01*
X55497164Y-25289688D01*
X55630814Y-25325499D01*
X55630815Y-25325500D01*
X55630817Y-25325500D01*
X55769185Y-25325500D01*
X55769185Y-25325499D01*
X55902836Y-25289688D01*
X56022665Y-25220505D01*
X56120505Y-25122665D01*
X56141096Y-25086999D01*
X56186029Y-25052522D01*
X56205182Y-25050000D01*
X56750000Y-25050000D01*
X56750000Y-25550000D01*
X56050000Y-25550000D01*
X56050000Y-25798490D01*
X56088427Y-25991682D01*
X56088430Y-25991693D01*
X56163809Y-26173675D01*
X56273246Y-26337459D01*
X56412540Y-26476753D01*
X56576324Y-26586190D01*
X56758306Y-26661569D01*
X56758317Y-26661572D01*
X56799999Y-26669863D01*
X56800000Y-26669863D01*
X56800000Y-25866988D01*
X56809940Y-25884205D01*
X56865795Y-25940060D01*
X56934204Y-25979556D01*
X57010504Y-26000000D01*
X57089496Y-26000000D01*
X57165796Y-25979556D01*
X57234205Y-25940060D01*
X57290060Y-25884205D01*
X57300000Y-25866988D01*
X57300000Y-26669863D01*
X57341682Y-26661572D01*
X57341693Y-26661569D01*
X57523675Y-26586190D01*
X57687459Y-26476753D01*
X57687460Y-26476752D01*
X57808545Y-26355668D01*
X57860871Y-26333994D01*
X57897870Y-26343907D01*
X57936814Y-26366392D01*
X58064105Y-26400499D01*
X58064106Y-26400500D01*
X58064108Y-26400500D01*
X58195894Y-26400500D01*
X58195894Y-26400499D01*
X58323186Y-26366392D01*
X58437314Y-26300500D01*
X58530500Y-26207314D01*
X58570807Y-26137499D01*
X58615740Y-26103021D01*
X58634893Y-26100500D01*
X60066817Y-26100500D01*
X60119143Y-26122174D01*
X60140817Y-26174500D01*
X60130903Y-26211500D01*
X60110312Y-26247163D01*
X60110310Y-26247168D01*
X60074500Y-26380814D01*
X60074500Y-26519185D01*
X60110310Y-26652831D01*
X60110312Y-26652836D01*
X60179495Y-26772665D01*
X60277335Y-26870505D01*
X60397164Y-26939688D01*
X60530814Y-26975499D01*
X60530815Y-26975500D01*
X60530817Y-26975500D01*
X60669185Y-26975500D01*
X60669185Y-26975499D01*
X60802836Y-26939688D01*
X60922665Y-26870505D01*
X61020505Y-26772665D01*
X61089688Y-26652836D01*
X61125499Y-26519185D01*
X61125500Y-26519185D01*
X61125500Y-26380815D01*
X61125499Y-26380814D01*
X61115610Y-26343909D01*
X61089688Y-26247164D01*
X61069096Y-26211498D01*
X61061705Y-26155347D01*
X61096183Y-26110414D01*
X61133183Y-26100500D01*
X64866817Y-26100500D01*
X64919143Y-26122174D01*
X64940817Y-26174500D01*
X64930903Y-26211500D01*
X64910312Y-26247163D01*
X64910310Y-26247168D01*
X64874500Y-26380814D01*
X64874500Y-26519185D01*
X64910310Y-26652831D01*
X64910312Y-26652836D01*
X64979495Y-26772665D01*
X65077335Y-26870505D01*
X65197164Y-26939688D01*
X65330814Y-26975499D01*
X65330815Y-26975500D01*
X65330817Y-26975500D01*
X65469185Y-26975500D01*
X65469185Y-26975499D01*
X65602836Y-26939688D01*
X65722665Y-26870505D01*
X65820505Y-26772665D01*
X65889688Y-26652836D01*
X65925499Y-26519185D01*
X65925500Y-26519185D01*
X65925500Y-26380815D01*
X65925499Y-26380814D01*
X65915610Y-26343909D01*
X65889688Y-26247164D01*
X65869096Y-26211498D01*
X65861705Y-26155347D01*
X65896183Y-26110414D01*
X65933183Y-26100500D01*
X67365107Y-26100500D01*
X67417433Y-26122174D01*
X67429192Y-26137499D01*
X67469500Y-26207314D01*
X67562686Y-26300500D01*
X67676814Y-26366392D01*
X67804105Y-26400499D01*
X67804106Y-26400500D01*
X67804108Y-26400500D01*
X67935891Y-26400500D01*
X67935892Y-26400500D01*
X68063186Y-26366392D01*
X68102127Y-26343908D01*
X68158279Y-26336515D01*
X68191454Y-26355668D01*
X68312539Y-26476752D01*
X68312540Y-26476753D01*
X68476324Y-26586190D01*
X68658306Y-26661569D01*
X68658317Y-26661572D01*
X68699999Y-26669863D01*
X68700000Y-26669863D01*
X68700000Y-25866988D01*
X68709940Y-25884205D01*
X68765795Y-25940060D01*
X68834204Y-25979556D01*
X68910504Y-26000000D01*
X68989496Y-26000000D01*
X69065796Y-25979556D01*
X69134205Y-25940060D01*
X69190060Y-25884205D01*
X69200000Y-25866988D01*
X69200000Y-26669863D01*
X69241682Y-26661572D01*
X69241693Y-26661569D01*
X69423675Y-26586190D01*
X69587459Y-26476753D01*
X69587460Y-26476752D01*
X69633398Y-26430814D01*
X74524500Y-26430814D01*
X74524500Y-26569185D01*
X74560310Y-26702831D01*
X74560312Y-26702836D01*
X74629495Y-26822665D01*
X74727335Y-26920505D01*
X74847164Y-26989688D01*
X74980814Y-27025499D01*
X74980815Y-27025500D01*
X74980817Y-27025500D01*
X75119185Y-27025500D01*
X75119185Y-27025499D01*
X75252836Y-26989688D01*
X75372665Y-26920505D01*
X75412356Y-26880814D01*
X76374500Y-26880814D01*
X76374500Y-27019185D01*
X76410310Y-27152831D01*
X76410312Y-27152836D01*
X76479495Y-27272665D01*
X76577335Y-27370505D01*
X76697164Y-27439688D01*
X76830814Y-27475499D01*
X76830815Y-27475500D01*
X76830817Y-27475500D01*
X76969185Y-27475500D01*
X76969185Y-27475499D01*
X77102836Y-27439688D01*
X77222665Y-27370505D01*
X77320505Y-27272665D01*
X77389688Y-27152836D01*
X77425499Y-27019185D01*
X77425500Y-27019185D01*
X77425500Y-26880815D01*
X77425499Y-26880814D01*
X77422736Y-26870504D01*
X77389688Y-26747164D01*
X77320505Y-26627335D01*
X77222665Y-26529495D01*
X77102836Y-26460312D01*
X77102831Y-26460310D01*
X76969185Y-26424500D01*
X76969183Y-26424500D01*
X76830817Y-26424500D01*
X76830815Y-26424500D01*
X76697168Y-26460310D01*
X76697163Y-26460312D01*
X76577334Y-26529495D01*
X76479495Y-26627334D01*
X76410312Y-26747163D01*
X76410310Y-26747168D01*
X76374500Y-26880814D01*
X75412356Y-26880814D01*
X75470505Y-26822665D01*
X75539688Y-26702836D01*
X75575499Y-26569185D01*
X75575500Y-26569185D01*
X75575500Y-26430815D01*
X75575499Y-26430814D01*
X75567376Y-26400500D01*
X75539688Y-26297164D01*
X75470505Y-26177335D01*
X75372665Y-26079495D01*
X75252836Y-26010312D01*
X75252831Y-26010310D01*
X75119185Y-25974500D01*
X75119183Y-25974500D01*
X74980817Y-25974500D01*
X74980815Y-25974500D01*
X74847168Y-26010310D01*
X74847163Y-26010312D01*
X74727334Y-26079495D01*
X74629495Y-26177334D01*
X74560312Y-26297163D01*
X74560310Y-26297168D01*
X74524500Y-26430814D01*
X69633398Y-26430814D01*
X69690572Y-26373641D01*
X69726752Y-26337460D01*
X69726753Y-26337459D01*
X69836190Y-26173675D01*
X69911569Y-25991693D01*
X69911572Y-25991682D01*
X69950000Y-25798490D01*
X69950000Y-25630814D01*
X77974500Y-25630814D01*
X77974500Y-25769185D01*
X78010310Y-25902831D01*
X78010312Y-25902836D01*
X78079495Y-26022665D01*
X78177335Y-26120505D01*
X78297164Y-26189688D01*
X78430814Y-26225499D01*
X78430815Y-26225500D01*
X78430817Y-26225500D01*
X78569185Y-26225500D01*
X78569185Y-26225499D01*
X78702836Y-26189688D01*
X78822665Y-26120505D01*
X78920505Y-26022665D01*
X78989688Y-25902836D01*
X79025499Y-25769185D01*
X79025500Y-25769185D01*
X79025500Y-25630815D01*
X79025499Y-25630814D01*
X79011179Y-25577372D01*
X78989688Y-25497164D01*
X78920505Y-25377335D01*
X78822665Y-25279495D01*
X78702836Y-25210312D01*
X78702831Y-25210310D01*
X78569185Y-25174500D01*
X78569183Y-25174500D01*
X78430817Y-25174500D01*
X78430815Y-25174500D01*
X78297168Y-25210310D01*
X78297163Y-25210312D01*
X78177334Y-25279495D01*
X78079495Y-25377334D01*
X78010312Y-25497163D01*
X78010310Y-25497168D01*
X77974500Y-25630814D01*
X69950000Y-25630814D01*
X69950000Y-25550000D01*
X69250000Y-25550000D01*
X69250000Y-25050000D01*
X69950000Y-25050000D01*
X69950000Y-24801509D01*
X69911572Y-24608317D01*
X69911571Y-24608314D01*
X69909904Y-24604289D01*
X69909903Y-24604286D01*
X69909903Y-24604285D01*
X69900181Y-24580814D01*
X71647000Y-24580814D01*
X71647000Y-24719185D01*
X71682810Y-24852831D01*
X71682812Y-24852836D01*
X71751995Y-24972665D01*
X71849835Y-25070505D01*
X71969664Y-25139688D01*
X72103314Y-25175499D01*
X72103315Y-25175500D01*
X72103317Y-25175500D01*
X72241685Y-25175500D01*
X72241685Y-25175499D01*
X72375336Y-25139688D01*
X72495165Y-25070505D01*
X72593005Y-24972665D01*
X72656609Y-24862500D01*
X72701543Y-24828021D01*
X72720695Y-24825500D01*
X72781685Y-24825500D01*
X72781685Y-24825499D01*
X72915336Y-24789688D01*
X73035165Y-24720505D01*
X73133005Y-24622665D01*
X73202188Y-24502836D01*
X73208089Y-24480814D01*
X74524500Y-24480814D01*
X74524500Y-24619185D01*
X74560310Y-24752831D01*
X74560312Y-24752836D01*
X74629495Y-24872665D01*
X74727335Y-24970505D01*
X74847164Y-25039688D01*
X74980814Y-25075499D01*
X74980815Y-25075500D01*
X74980817Y-25075500D01*
X75119185Y-25075500D01*
X75119185Y-25075499D01*
X75252836Y-25039688D01*
X75372665Y-24970505D01*
X75470505Y-24872665D01*
X75539688Y-24752836D01*
X75575499Y-24619185D01*
X75575500Y-24619185D01*
X75575500Y-24480815D01*
X75575499Y-24480814D01*
X75562102Y-24430817D01*
X75539688Y-24347164D01*
X75470505Y-24227335D01*
X75372665Y-24129495D01*
X75252836Y-24060312D01*
X75252831Y-24060310D01*
X75119185Y-24024500D01*
X75119183Y-24024500D01*
X74980817Y-24024500D01*
X74980815Y-24024500D01*
X74847168Y-24060310D01*
X74847163Y-24060312D01*
X74727334Y-24129495D01*
X74629495Y-24227334D01*
X74560312Y-24347163D01*
X74560310Y-24347168D01*
X74524500Y-24480814D01*
X73208089Y-24480814D01*
X73238000Y-24369183D01*
X73238000Y-24230817D01*
X73238000Y-24230815D01*
X73237999Y-24230814D01*
X73223669Y-24177335D01*
X73202188Y-24097164D01*
X73133005Y-23977335D01*
X73035165Y-23879495D01*
X72915336Y-23810312D01*
X72915331Y-23810310D01*
X72781685Y-23774500D01*
X72781683Y-23774500D01*
X72643317Y-23774500D01*
X72643315Y-23774500D01*
X72509668Y-23810310D01*
X72509663Y-23810312D01*
X72389834Y-23879495D01*
X72291995Y-23977334D01*
X72228391Y-24087500D01*
X72183457Y-24121979D01*
X72164305Y-24124500D01*
X72103315Y-24124500D01*
X71969668Y-24160310D01*
X71969663Y-24160312D01*
X71849834Y-24229495D01*
X71751995Y-24327334D01*
X71682812Y-24447163D01*
X71682810Y-24447168D01*
X71647000Y-24580814D01*
X69900181Y-24580814D01*
X69836190Y-24426324D01*
X69726753Y-24262540D01*
X69587459Y-24123246D01*
X69423675Y-24013809D01*
X69241691Y-23938429D01*
X69241684Y-23938427D01*
X69200000Y-23930136D01*
X69200000Y-24733011D01*
X69190060Y-24715795D01*
X69134205Y-24659940D01*
X69065796Y-24620444D01*
X68989496Y-24600000D01*
X68910504Y-24600000D01*
X68834204Y-24620444D01*
X68765795Y-24659940D01*
X68709940Y-24715795D01*
X68700000Y-24733011D01*
X68700000Y-23930136D01*
X68699999Y-23930136D01*
X68658315Y-23938427D01*
X68658308Y-23938429D01*
X68472963Y-24015202D01*
X68472032Y-24012955D01*
X68422827Y-24017667D01*
X68379144Y-23981619D01*
X68370500Y-23946912D01*
X68370500Y-23253087D01*
X68392174Y-23200761D01*
X68444500Y-23179087D01*
X68472415Y-23186119D01*
X68472963Y-23184798D01*
X68658306Y-23261569D01*
X68658317Y-23261572D01*
X68699999Y-23269863D01*
X68700000Y-23269863D01*
X68700000Y-22466988D01*
X68709940Y-22484205D01*
X68765795Y-22540060D01*
X68834204Y-22579556D01*
X68910504Y-22600000D01*
X68989496Y-22600000D01*
X69065796Y-22579556D01*
X69134205Y-22540060D01*
X69190060Y-22484205D01*
X69200000Y-22466988D01*
X69200000Y-23269863D01*
X69241682Y-23261572D01*
X69241693Y-23261569D01*
X69423675Y-23186190D01*
X69587459Y-23076753D01*
X69726753Y-22937459D01*
X69829555Y-22783605D01*
X69876647Y-22752139D01*
X69910237Y-22753239D01*
X69993314Y-22775499D01*
X69993315Y-22775500D01*
X69993317Y-22775500D01*
X70131685Y-22775500D01*
X70131685Y-22775499D01*
X70265336Y-22739688D01*
X70385165Y-22670505D01*
X70483005Y-22572665D01*
X70552188Y-22452836D01*
X70587999Y-22319185D01*
X70588000Y-22319185D01*
X70588000Y-22180817D01*
X70578435Y-22145119D01*
X70578435Y-22145117D01*
X70574602Y-22130814D01*
X73874499Y-22130814D01*
X73874499Y-22269185D01*
X73910309Y-22402831D01*
X73910311Y-22402836D01*
X73979494Y-22522665D01*
X74077334Y-22620505D01*
X74197163Y-22689688D01*
X74330813Y-22725499D01*
X74330814Y-22725500D01*
X74330816Y-22725500D01*
X74469184Y-22725500D01*
X74469184Y-22725499D01*
X74602835Y-22689688D01*
X74722664Y-22620505D01*
X74820504Y-22522665D01*
X74889687Y-22402836D01*
X74925498Y-22269185D01*
X74925499Y-22269185D01*
X74925499Y-22130815D01*
X74925498Y-22130814D01*
X77974499Y-22130814D01*
X77974499Y-22269185D01*
X78010309Y-22402831D01*
X78010311Y-22402836D01*
X78079494Y-22522665D01*
X78177334Y-22620505D01*
X78297163Y-22689688D01*
X78430813Y-22725499D01*
X78430814Y-22725500D01*
X78430816Y-22725500D01*
X78569184Y-22725500D01*
X78569184Y-22725499D01*
X78702835Y-22689688D01*
X78742413Y-22666838D01*
X84999500Y-22666838D01*
X84999500Y-34333161D01*
X85028379Y-34496946D01*
X85047506Y-34549495D01*
X85085264Y-34653233D01*
X85168422Y-34797267D01*
X85275327Y-34924673D01*
X85402733Y-35031578D01*
X85546767Y-35114736D01*
X85703053Y-35171620D01*
X85866842Y-35200500D01*
X85866846Y-35200500D01*
X86033154Y-35200500D01*
X86033158Y-35200500D01*
X86196947Y-35171620D01*
X86353233Y-35114736D01*
X86497267Y-35031578D01*
X86624673Y-34924673D01*
X86731578Y-34797267D01*
X86814736Y-34653233D01*
X86871620Y-34496947D01*
X86900500Y-34333158D01*
X86900500Y-34250000D01*
X86900500Y-34210118D01*
X86900500Y-32480814D01*
X91324500Y-32480814D01*
X91324500Y-32619185D01*
X91360310Y-32752831D01*
X91360312Y-32752836D01*
X91429495Y-32872665D01*
X91527335Y-32970505D01*
X91647164Y-33039688D01*
X91780814Y-33075499D01*
X91780815Y-33075500D01*
X91780817Y-33075500D01*
X91919185Y-33075500D01*
X91919185Y-33075499D01*
X92052836Y-33039688D01*
X92172665Y-32970505D01*
X92182356Y-32960814D01*
X93024500Y-32960814D01*
X93024500Y-33099185D01*
X93060310Y-33232831D01*
X93060312Y-33232836D01*
X93129495Y-33352665D01*
X93227335Y-33450505D01*
X93347164Y-33519688D01*
X93480814Y-33555499D01*
X93480815Y-33555500D01*
X93480817Y-33555500D01*
X93619185Y-33555500D01*
X93619185Y-33555499D01*
X93752836Y-33519688D01*
X93872665Y-33450505D01*
X93970505Y-33352665D01*
X94039688Y-33232836D01*
X94075499Y-33099185D01*
X94075500Y-33099185D01*
X94075500Y-32960815D01*
X94075499Y-32960814D01*
X94066528Y-32927335D01*
X94039688Y-32827164D01*
X93970505Y-32707335D01*
X93872665Y-32609495D01*
X93752836Y-32540312D01*
X93752831Y-32540310D01*
X93619185Y-32504500D01*
X93619183Y-32504500D01*
X93480817Y-32504500D01*
X93480815Y-32504500D01*
X93347168Y-32540310D01*
X93347163Y-32540312D01*
X93227334Y-32609495D01*
X93129495Y-32707334D01*
X93060312Y-32827163D01*
X93060310Y-32827168D01*
X93024500Y-32960814D01*
X92182356Y-32960814D01*
X92270505Y-32872665D01*
X92339688Y-32752836D01*
X92375499Y-32619185D01*
X92375500Y-32619185D01*
X92375500Y-32480815D01*
X92375499Y-32480814D01*
X92366528Y-32447335D01*
X92339688Y-32347164D01*
X92270505Y-32227335D01*
X92172665Y-32129495D01*
X92052836Y-32060312D01*
X92052831Y-32060310D01*
X91919185Y-32024500D01*
X91919183Y-32024500D01*
X91780817Y-32024500D01*
X91780815Y-32024500D01*
X91647168Y-32060310D01*
X91647163Y-32060312D01*
X91527334Y-32129495D01*
X91429495Y-32227334D01*
X91360312Y-32347163D01*
X91360310Y-32347168D01*
X91324500Y-32480814D01*
X86900500Y-32480814D01*
X86900500Y-29130814D01*
X88374500Y-29130814D01*
X88374500Y-29269185D01*
X88410310Y-29402831D01*
X88410312Y-29402836D01*
X88479495Y-29522665D01*
X88577335Y-29620505D01*
X88697164Y-29689688D01*
X88830814Y-29725499D01*
X88830815Y-29725500D01*
X88830817Y-29725500D01*
X88969185Y-29725500D01*
X88969185Y-29725499D01*
X89102836Y-29689688D01*
X89222665Y-29620505D01*
X89231749Y-29611421D01*
X90094501Y-29611421D01*
X90094501Y-29788579D01*
X90119221Y-29944655D01*
X90122215Y-29963554D01*
X90122217Y-29963565D01*
X90176957Y-30132039D01*
X90176959Y-30132043D01*
X90257385Y-30289886D01*
X90257388Y-30289892D01*
X90319586Y-30375500D01*
X90361518Y-30433214D01*
X90486787Y-30558483D01*
X90486790Y-30558485D01*
X90486791Y-30558486D01*
X90604745Y-30644185D01*
X90630111Y-30662614D01*
X90782464Y-30740242D01*
X90787957Y-30743041D01*
X90787961Y-30743043D01*
X90956435Y-30797783D01*
X90956439Y-30797783D01*
X90956446Y-30797786D01*
X91107496Y-30821710D01*
X91131421Y-30825500D01*
X91131422Y-30825500D01*
X91308581Y-30825500D01*
X91329627Y-30822166D01*
X91483556Y-30797786D01*
X91483564Y-30797783D01*
X91483566Y-30797783D01*
X91652040Y-30743043D01*
X91652040Y-30743042D01*
X91652043Y-30743042D01*
X91809891Y-30662614D01*
X91953215Y-30558483D01*
X92078484Y-30433214D01*
X92182615Y-30289890D01*
X92263043Y-30132042D01*
X92308273Y-29992836D01*
X92317784Y-29963565D01*
X92317784Y-29963563D01*
X92317787Y-29963555D01*
X92345501Y-29788579D01*
X92345501Y-29611421D01*
X92339363Y-29572665D01*
X92337618Y-29561647D01*
X92336168Y-29552494D01*
X94049500Y-29552494D01*
X94049500Y-29847506D01*
X94056784Y-29902831D01*
X94088006Y-30139991D01*
X94164361Y-30424953D01*
X94277253Y-30697498D01*
X94277256Y-30697506D01*
X94405543Y-30919706D01*
X94424762Y-30952994D01*
X94604354Y-31187042D01*
X94812958Y-31395646D01*
X95047006Y-31575238D01*
X95302493Y-31722743D01*
X95575048Y-31835639D01*
X95860007Y-31911993D01*
X96152494Y-31950500D01*
X96152496Y-31950500D01*
X96447504Y-31950500D01*
X96447506Y-31950500D01*
X96739993Y-31911993D01*
X97024952Y-31835639D01*
X97297507Y-31722743D01*
X97552994Y-31575238D01*
X97787042Y-31395646D01*
X97995646Y-31187042D01*
X98175238Y-30952994D01*
X98322743Y-30697507D01*
X98435639Y-30424952D01*
X98511993Y-30139993D01*
X98550500Y-29847506D01*
X98550500Y-29611421D01*
X100254499Y-29611421D01*
X100254499Y-29788579D01*
X100279219Y-29944655D01*
X100282213Y-29963554D01*
X100282215Y-29963565D01*
X100336955Y-30132039D01*
X100336957Y-30132043D01*
X100417383Y-30289886D01*
X100417386Y-30289892D01*
X100479584Y-30375500D01*
X100521516Y-30433214D01*
X100646785Y-30558483D01*
X100646788Y-30558485D01*
X100646789Y-30558486D01*
X100764743Y-30644185D01*
X100790109Y-30662614D01*
X100942462Y-30740242D01*
X100947955Y-30743041D01*
X100947959Y-30743043D01*
X101116433Y-30797783D01*
X101116437Y-30797783D01*
X101116444Y-30797786D01*
X101267494Y-30821710D01*
X101291419Y-30825500D01*
X101291420Y-30825500D01*
X101468579Y-30825500D01*
X101489625Y-30822166D01*
X101643554Y-30797786D01*
X101643562Y-30797783D01*
X101643564Y-30797783D01*
X101812038Y-30743043D01*
X101812038Y-30743042D01*
X101812041Y-30743042D01*
X101969889Y-30662614D01*
X102113213Y-30558483D01*
X102238482Y-30433214D01*
X102342613Y-30289890D01*
X102423041Y-30132042D01*
X102468271Y-29992836D01*
X102477782Y-29963565D01*
X102477782Y-29963563D01*
X102477785Y-29963555D01*
X102505499Y-29788579D01*
X102505499Y-29611421D01*
X102477785Y-29436445D01*
X102477782Y-29436438D01*
X102477782Y-29436434D01*
X102423042Y-29267960D01*
X102423040Y-29267956D01*
X102378639Y-29180815D01*
X102342613Y-29110110D01*
X102332425Y-29096088D01*
X102238485Y-28966790D01*
X102238484Y-28966789D01*
X102238482Y-28966786D01*
X102113213Y-28841517D01*
X102113210Y-28841514D01*
X102113208Y-28841513D01*
X101969891Y-28737387D01*
X101969885Y-28737384D01*
X101812042Y-28656958D01*
X101812038Y-28656956D01*
X101643564Y-28602216D01*
X101643555Y-28602214D01*
X101643554Y-28602214D01*
X101556066Y-28588357D01*
X101468579Y-28574500D01*
X101468578Y-28574500D01*
X101291420Y-28574500D01*
X101291419Y-28574500D01*
X101116444Y-28602214D01*
X101116433Y-28602216D01*
X100947959Y-28656956D01*
X100947955Y-28656958D01*
X100790112Y-28737384D01*
X100790106Y-28737387D01*
X100646789Y-28841513D01*
X100521512Y-28966790D01*
X100417386Y-29110107D01*
X100417383Y-29110113D01*
X100336957Y-29267956D01*
X100336955Y-29267960D01*
X100282215Y-29436434D01*
X100282213Y-29436445D01*
X100262383Y-29561647D01*
X100254499Y-29611421D01*
X98550500Y-29611421D01*
X98550500Y-29552494D01*
X98511993Y-29260007D01*
X98435639Y-28975048D01*
X98322743Y-28702493D01*
X98175238Y-28447006D01*
X97995646Y-28212958D01*
X97787042Y-28004354D01*
X97552994Y-27824762D01*
X97549658Y-27822836D01*
X97297506Y-27677256D01*
X97297498Y-27677253D01*
X97024953Y-27564361D01*
X96739991Y-27488006D01*
X96524518Y-27459638D01*
X96447506Y-27449500D01*
X96152494Y-27449500D01*
X96084441Y-27458459D01*
X95860008Y-27488006D01*
X95575046Y-27564361D01*
X95302501Y-27677253D01*
X95302493Y-27677256D01*
X95047010Y-27824759D01*
X95047006Y-27824761D01*
X95047006Y-27824762D01*
X94814937Y-28002836D01*
X94812953Y-28004358D01*
X94604358Y-28212953D01*
X94604354Y-28212957D01*
X94604354Y-28212958D01*
X94506830Y-28340053D01*
X94424759Y-28447010D01*
X94277256Y-28702493D01*
X94277253Y-28702501D01*
X94164361Y-28975046D01*
X94088006Y-29260008D01*
X94056784Y-29497164D01*
X94049500Y-29552494D01*
X92336168Y-29552494D01*
X92327404Y-29497163D01*
X92317787Y-29436445D01*
X92317784Y-29436438D01*
X92317784Y-29436434D01*
X92292094Y-29357367D01*
X92296538Y-29300904D01*
X92339605Y-29264122D01*
X92362472Y-29260500D01*
X92627672Y-29260500D01*
X92627674Y-29260500D01*
X92900666Y-29224560D01*
X93166632Y-29153295D01*
X93421021Y-29047923D01*
X93659479Y-28910249D01*
X93825151Y-28783125D01*
X93877922Y-28742633D01*
X93877923Y-28742631D01*
X93877928Y-28742628D01*
X94072628Y-28547928D01*
X94076536Y-28542836D01*
X94162490Y-28430817D01*
X94240249Y-28329479D01*
X94377923Y-28091021D01*
X94483295Y-27836632D01*
X94554560Y-27570666D01*
X94590500Y-27297674D01*
X94590500Y-27022326D01*
X94554560Y-26749334D01*
X94483295Y-26483368D01*
X94377923Y-26228979D01*
X94348106Y-26177334D01*
X94240251Y-25990524D01*
X94240247Y-25990518D01*
X94072633Y-25772077D01*
X93877922Y-25577366D01*
X93659481Y-25409752D01*
X93659475Y-25409748D01*
X93421020Y-25272076D01*
X93421017Y-25272075D01*
X93166631Y-25166704D01*
X92900664Y-25095439D01*
X92699552Y-25068962D01*
X92627674Y-25059500D01*
X92352326Y-25059500D01*
X92288810Y-25067862D01*
X92079335Y-25095439D01*
X91813368Y-25166704D01*
X91558982Y-25272075D01*
X91558979Y-25272076D01*
X91320524Y-25409748D01*
X91320518Y-25409752D01*
X91102077Y-25577366D01*
X90907366Y-25772077D01*
X90739752Y-25990518D01*
X90739748Y-25990524D01*
X90602076Y-26228979D01*
X90602075Y-26228982D01*
X90496704Y-26483368D01*
X90425439Y-26749335D01*
X90397664Y-26960312D01*
X90389500Y-27022326D01*
X90389500Y-27297674D01*
X90393994Y-27331808D01*
X90425439Y-27570664D01*
X90496704Y-27836631D01*
X90602075Y-28091017D01*
X90602076Y-28091020D01*
X90739748Y-28329475D01*
X90739752Y-28329481D01*
X90886765Y-28521073D01*
X90901424Y-28575780D01*
X90873105Y-28624829D01*
X90850924Y-28636499D01*
X90787962Y-28656956D01*
X90787957Y-28656958D01*
X90630114Y-28737384D01*
X90630108Y-28737387D01*
X90486791Y-28841513D01*
X90361514Y-28966790D01*
X90257388Y-29110107D01*
X90257385Y-29110113D01*
X90176959Y-29267956D01*
X90176957Y-29267960D01*
X90122217Y-29436434D01*
X90122215Y-29436445D01*
X90102385Y-29561647D01*
X90094501Y-29611421D01*
X89231749Y-29611421D01*
X89320505Y-29522665D01*
X89389688Y-29402836D01*
X89425499Y-29269185D01*
X89425500Y-29269185D01*
X89425500Y-29130815D01*
X89425499Y-29130814D01*
X89425016Y-29129013D01*
X89389688Y-28997164D01*
X89320505Y-28877335D01*
X89222665Y-28779495D01*
X89102836Y-28710312D01*
X89102831Y-28710310D01*
X88969185Y-28674500D01*
X88969183Y-28674500D01*
X88830817Y-28674500D01*
X88830815Y-28674500D01*
X88697168Y-28710310D01*
X88697163Y-28710312D01*
X88577334Y-28779495D01*
X88479495Y-28877334D01*
X88410312Y-28997163D01*
X88410310Y-28997168D01*
X88374500Y-29130814D01*
X86900500Y-29130814D01*
X86900500Y-24469251D01*
X96540000Y-24469251D01*
X96540000Y-24770748D01*
X96579352Y-25069663D01*
X96657385Y-25360889D01*
X96657389Y-25360900D01*
X96772763Y-25639438D01*
X96772766Y-25639446D01*
X96923518Y-25900556D01*
X97046116Y-26060327D01*
X97599441Y-25507002D01*
X97676795Y-25613471D01*
X97846529Y-25783205D01*
X97952995Y-25860557D01*
X97399671Y-26413882D01*
X97559447Y-26536483D01*
X97820553Y-26687233D01*
X97820561Y-26687236D01*
X98099099Y-26802610D01*
X98099110Y-26802614D01*
X98390336Y-26880647D01*
X98390335Y-26880647D01*
X98689252Y-26920000D01*
X98990748Y-26920000D01*
X99289663Y-26880647D01*
X99580889Y-26802614D01*
X99580900Y-26802610D01*
X99859438Y-26687236D01*
X99859446Y-26687233D01*
X100120552Y-26536483D01*
X100280327Y-26413882D01*
X99727003Y-25860558D01*
X99833471Y-25783205D01*
X100003205Y-25613471D01*
X100080558Y-25507003D01*
X100633882Y-26060327D01*
X100756483Y-25900552D01*
X100907233Y-25639446D01*
X100907236Y-25639438D01*
X101022610Y-25360900D01*
X101022614Y-25360889D01*
X101100647Y-25069663D01*
X101140000Y-24770748D01*
X101140000Y-24469251D01*
X101100647Y-24170336D01*
X101022614Y-23879110D01*
X101022610Y-23879099D01*
X100907236Y-23600561D01*
X100907233Y-23600553D01*
X100756483Y-23339447D01*
X100633882Y-23179671D01*
X100080557Y-23732995D01*
X100003205Y-23626529D01*
X99833471Y-23456795D01*
X99727002Y-23379441D01*
X100280327Y-22826116D01*
X100280327Y-22826115D01*
X100120556Y-22703518D01*
X99859446Y-22552766D01*
X99859438Y-22552763D01*
X99580900Y-22437389D01*
X99580889Y-22437385D01*
X99289663Y-22359352D01*
X99289664Y-22359352D01*
X98990748Y-22320000D01*
X98689252Y-22320000D01*
X98390336Y-22359352D01*
X98099110Y-22437385D01*
X98099099Y-22437389D01*
X97820561Y-22552763D01*
X97820553Y-22552766D01*
X97559450Y-22703514D01*
X97559444Y-22703518D01*
X97399671Y-22826116D01*
X97952996Y-23379441D01*
X97846529Y-23456795D01*
X97676795Y-23626529D01*
X97599441Y-23732996D01*
X97046116Y-23179671D01*
X96923518Y-23339444D01*
X96923514Y-23339450D01*
X96772766Y-23600553D01*
X96772763Y-23600561D01*
X96657389Y-23879099D01*
X96657385Y-23879110D01*
X96579352Y-24170336D01*
X96540000Y-24469251D01*
X86900500Y-24469251D01*
X86900500Y-22710118D01*
X86900500Y-22666842D01*
X86871620Y-22503053D01*
X86814736Y-22346767D01*
X86731578Y-22202733D01*
X86624673Y-22075327D01*
X86497267Y-21968422D01*
X86353233Y-21885264D01*
X86322286Y-21874000D01*
X86196946Y-21828379D01*
X86033161Y-21799500D01*
X86033158Y-21799500D01*
X85989882Y-21799500D01*
X85950000Y-21799500D01*
X85866842Y-21799500D01*
X85866838Y-21799500D01*
X85703053Y-21828379D01*
X85546769Y-21885263D01*
X85546767Y-21885263D01*
X85546767Y-21885264D01*
X85402733Y-21968422D01*
X85275327Y-22075327D01*
X85168422Y-22202733D01*
X85101189Y-22319185D01*
X85085263Y-22346769D01*
X85028379Y-22503053D01*
X84999500Y-22666838D01*
X78742413Y-22666838D01*
X78822664Y-22620505D01*
X78920504Y-22522665D01*
X78989687Y-22402836D01*
X79025498Y-22269185D01*
X79025499Y-22269185D01*
X79025499Y-22130815D01*
X79025498Y-22130814D01*
X79020152Y-22110864D01*
X78989687Y-21997164D01*
X78920504Y-21877335D01*
X78822664Y-21779495D01*
X78702835Y-21710312D01*
X78702830Y-21710310D01*
X78569184Y-21674500D01*
X78569182Y-21674500D01*
X78430816Y-21674500D01*
X78430814Y-21674500D01*
X78297167Y-21710310D01*
X78297162Y-21710312D01*
X78177333Y-21779495D01*
X78079494Y-21877334D01*
X78010311Y-21997163D01*
X78010309Y-21997168D01*
X77974499Y-22130814D01*
X74925498Y-22130814D01*
X74920152Y-22110864D01*
X74889687Y-21997164D01*
X74820504Y-21877335D01*
X74722664Y-21779495D01*
X74602835Y-21710312D01*
X74602830Y-21710310D01*
X74469184Y-21674500D01*
X74469182Y-21674500D01*
X74330816Y-21674500D01*
X74330814Y-21674500D01*
X74197167Y-21710310D01*
X74197162Y-21710312D01*
X74077333Y-21779495D01*
X73979494Y-21877334D01*
X73910311Y-21997163D01*
X73910309Y-21997168D01*
X73874499Y-22130814D01*
X70574602Y-22130814D01*
X70552189Y-22047168D01*
X70552188Y-22047164D01*
X70483005Y-21927335D01*
X70385165Y-21829495D01*
X70265336Y-21760312D01*
X70265331Y-21760310D01*
X70131685Y-21724500D01*
X70131683Y-21724500D01*
X70024000Y-21724500D01*
X69971674Y-21702826D01*
X69950000Y-21650500D01*
X69950000Y-21201509D01*
X69911572Y-21008317D01*
X69911571Y-21008314D01*
X69909904Y-21004289D01*
X69909903Y-21004286D01*
X69909903Y-21004285D01*
X69900181Y-20980814D01*
X70287000Y-20980814D01*
X70287000Y-21119185D01*
X70322810Y-21252831D01*
X70322812Y-21252836D01*
X70391995Y-21372665D01*
X70489835Y-21470505D01*
X70609664Y-21539688D01*
X70743314Y-21575499D01*
X70743315Y-21575500D01*
X70743317Y-21575500D01*
X70881685Y-21575500D01*
X70881685Y-21575499D01*
X71015336Y-21539688D01*
X71135165Y-21470505D01*
X71233005Y-21372665D01*
X71302188Y-21252836D01*
X71337999Y-21119185D01*
X71338000Y-21119185D01*
X71338000Y-21005814D01*
X72187000Y-21005814D01*
X72187000Y-21144185D01*
X72222810Y-21277831D01*
X72222812Y-21277836D01*
X72291995Y-21397665D01*
X72389835Y-21495505D01*
X72509664Y-21564688D01*
X72643314Y-21600499D01*
X72643315Y-21600500D01*
X72643317Y-21600500D01*
X72781685Y-21600500D01*
X72781685Y-21600499D01*
X72915336Y-21564688D01*
X73035165Y-21495505D01*
X73133005Y-21397665D01*
X73202188Y-21277836D01*
X73237999Y-21144185D01*
X73238000Y-21144185D01*
X73238000Y-21005815D01*
X73237999Y-21005814D01*
X73237590Y-21004289D01*
X73202188Y-20872164D01*
X73133005Y-20752335D01*
X73035165Y-20654495D01*
X72915336Y-20585312D01*
X72915331Y-20585310D01*
X72781685Y-20549500D01*
X72781683Y-20549500D01*
X72643317Y-20549500D01*
X72643315Y-20549500D01*
X72509668Y-20585310D01*
X72509663Y-20585312D01*
X72389834Y-20654495D01*
X72291995Y-20752334D01*
X72222812Y-20872163D01*
X72222810Y-20872168D01*
X72187000Y-21005814D01*
X71338000Y-21005814D01*
X71338000Y-20980815D01*
X71337999Y-20980814D01*
X71324602Y-20930817D01*
X71302188Y-20847164D01*
X71233005Y-20727335D01*
X71135165Y-20629495D01*
X71015336Y-20560312D01*
X71015331Y-20560310D01*
X70881685Y-20524500D01*
X70881683Y-20524500D01*
X70743317Y-20524500D01*
X70743315Y-20524500D01*
X70609668Y-20560310D01*
X70609663Y-20560312D01*
X70489834Y-20629495D01*
X70391995Y-20727334D01*
X70322812Y-20847163D01*
X70322810Y-20847168D01*
X70287000Y-20980814D01*
X69900181Y-20980814D01*
X69836190Y-20826324D01*
X69726753Y-20662540D01*
X69587459Y-20523246D01*
X69423675Y-20413809D01*
X69252404Y-20342867D01*
X69212355Y-20302819D01*
X69212355Y-20246182D01*
X69252403Y-20206133D01*
X69280722Y-20200500D01*
X74794418Y-20200500D01*
X74846744Y-20222174D01*
X74868418Y-20274500D01*
X74855947Y-20315611D01*
X74854226Y-20318186D01*
X74854224Y-20318190D01*
X74801421Y-20445667D01*
X74801418Y-20445677D01*
X74788562Y-20510312D01*
X74774500Y-20581007D01*
X74774500Y-20718993D01*
X74781132Y-20752334D01*
X74801418Y-20854322D01*
X74801421Y-20854332D01*
X74854223Y-20981808D01*
X74912606Y-21069185D01*
X74930886Y-21096542D01*
X75028458Y-21194114D01*
X75143189Y-21270775D01*
X75143190Y-21270775D01*
X75143191Y-21270776D01*
X75253485Y-21316461D01*
X75270672Y-21323580D01*
X75406007Y-21350500D01*
X75406009Y-21350500D01*
X75543991Y-21350500D01*
X75543993Y-21350500D01*
X75679328Y-21323580D01*
X75806811Y-21270775D01*
X75921542Y-21194114D01*
X76019114Y-21096542D01*
X76095775Y-20981811D01*
X76148580Y-20854328D01*
X76175500Y-20718993D01*
X76175500Y-20581007D01*
X76148580Y-20445672D01*
X76095775Y-20318189D01*
X76095773Y-20318186D01*
X76094053Y-20315611D01*
X76083004Y-20260062D01*
X76114471Y-20212971D01*
X76155582Y-20200500D01*
X76744418Y-20200500D01*
X76796744Y-20222174D01*
X76818418Y-20274500D01*
X76805947Y-20315611D01*
X76804226Y-20318186D01*
X76804224Y-20318190D01*
X76751421Y-20445667D01*
X76751418Y-20445677D01*
X76738562Y-20510312D01*
X76724500Y-20581007D01*
X76724500Y-20718993D01*
X76731132Y-20752334D01*
X76751418Y-20854322D01*
X76751421Y-20854332D01*
X76804223Y-20981808D01*
X76862606Y-21069185D01*
X76880886Y-21096542D01*
X76978458Y-21194114D01*
X77093189Y-21270775D01*
X77093190Y-21270775D01*
X77093191Y-21270776D01*
X77203485Y-21316461D01*
X77220672Y-21323580D01*
X77356007Y-21350500D01*
X77356009Y-21350500D01*
X77493991Y-21350500D01*
X77493993Y-21350500D01*
X77629328Y-21323580D01*
X77756811Y-21270775D01*
X77871542Y-21194114D01*
X77969114Y-21096542D01*
X78045775Y-20981811D01*
X78098580Y-20854328D01*
X78125500Y-20718993D01*
X78125500Y-20581007D01*
X78098580Y-20445672D01*
X78045775Y-20318189D01*
X78045773Y-20318186D01*
X78044053Y-20315611D01*
X78033004Y-20260062D01*
X78064471Y-20212971D01*
X78105582Y-20200500D01*
X103932118Y-20200500D01*
X103984444Y-20222174D01*
X104006118Y-20274500D01*
X103996661Y-20310696D01*
X103956225Y-20382798D01*
X103956223Y-20382802D01*
X103884308Y-20587250D01*
X103877258Y-20629495D01*
X103848632Y-20801020D01*
X103848632Y-20801022D01*
X103848632Y-20801023D01*
X103850257Y-21017738D01*
X103889136Y-21230948D01*
X103964108Y-21434292D01*
X103964109Y-21434295D01*
X104072938Y-21621707D01*
X104072940Y-21621710D01*
X104212386Y-21787614D01*
X104378290Y-21927060D01*
X104440762Y-21963337D01*
X104565704Y-22035890D01*
X104565705Y-22035890D01*
X104565708Y-22035892D01*
X104769052Y-22110864D01*
X104982261Y-22149742D01*
X105198980Y-22151368D01*
X105412748Y-22115692D01*
X105617194Y-22043778D01*
X105689305Y-22003337D01*
X105745544Y-21996647D01*
X105790043Y-22031684D01*
X105799500Y-22067881D01*
X105799500Y-37332117D01*
X105777826Y-37384443D01*
X105725500Y-37406117D01*
X105689304Y-37396661D01*
X105624487Y-37360312D01*
X105617194Y-37356222D01*
X105617193Y-37356221D01*
X105617192Y-37356221D01*
X105617187Y-37356219D01*
X105412749Y-37284308D01*
X105369994Y-37277172D01*
X105198980Y-37248632D01*
X105198976Y-37248632D01*
X104982261Y-37250257D01*
X104769051Y-37289136D01*
X104565707Y-37364108D01*
X104565704Y-37364109D01*
X104378292Y-37472938D01*
X104212386Y-37612386D01*
X104072938Y-37778292D01*
X103964109Y-37965704D01*
X103964108Y-37965707D01*
X103889136Y-38169051D01*
X103850257Y-38382261D01*
X103848978Y-38552831D01*
X103848632Y-38598980D01*
X103869274Y-38722665D01*
X103884308Y-38812749D01*
X103956219Y-39017187D01*
X103956225Y-39017201D01*
X103996660Y-39089303D01*
X104003351Y-39145544D01*
X103968313Y-39190042D01*
X103932117Y-39199499D01*
X22067883Y-39199499D01*
X22015557Y-39177825D01*
X21993883Y-39125499D01*
X22003340Y-39089303D01*
X22043775Y-39017199D01*
X22043774Y-39017199D01*
X22043779Y-39017192D01*
X22050543Y-38997964D01*
X22115691Y-38812749D01*
X22115692Y-38812746D01*
X22151368Y-38598978D01*
X22149742Y-38382259D01*
X22148509Y-38375500D01*
X22117053Y-38202995D01*
X22110863Y-38169051D01*
X22035891Y-37965707D01*
X22023439Y-37944264D01*
X21927060Y-37778289D01*
X21927059Y-37778288D01*
X21883073Y-37725957D01*
X21787613Y-37612385D01*
X21621709Y-37472939D01*
X21491224Y-37397168D01*
X21434294Y-37364109D01*
X21434291Y-37364108D01*
X21230947Y-37289136D01*
X21017737Y-37250257D01*
X20801022Y-37248632D01*
X20801021Y-37248632D01*
X20801019Y-37248632D01*
X20672758Y-37270037D01*
X20587249Y-37284308D01*
X20382804Y-37356222D01*
X20310696Y-37396661D01*
X20254455Y-37403350D01*
X20209956Y-37368313D01*
X20200500Y-37332117D01*
X20200500Y-36705135D01*
X41474500Y-36705135D01*
X41474500Y-38494863D01*
X41477414Y-38519986D01*
X41477415Y-38519992D01*
X41522794Y-38622765D01*
X41602235Y-38702206D01*
X41705009Y-38747585D01*
X41730135Y-38750500D01*
X43519864Y-38750499D01*
X43544991Y-38747585D01*
X43647765Y-38702206D01*
X43727206Y-38622765D01*
X43772585Y-38519991D01*
X43775500Y-38494865D01*
X43775499Y-37509453D01*
X44014500Y-37509453D01*
X44014500Y-37690546D01*
X44042828Y-37869406D01*
X44042831Y-37869419D01*
X44098787Y-38041635D01*
X44098788Y-38041638D01*
X44098789Y-38041639D01*
X44181004Y-38202994D01*
X44287447Y-38349501D01*
X44415499Y-38477553D01*
X44562006Y-38583996D01*
X44723361Y-38666211D01*
X44723364Y-38666212D01*
X44723363Y-38666212D01*
X44895580Y-38722168D01*
X44895586Y-38722169D01*
X44895591Y-38722171D01*
X45014833Y-38741057D01*
X45074453Y-38750500D01*
X45074454Y-38750500D01*
X45255547Y-38750500D01*
X45300261Y-38743417D01*
X45434409Y-38722171D01*
X45434416Y-38722168D01*
X45434419Y-38722168D01*
X45586775Y-38672665D01*
X45606639Y-38666211D01*
X45767994Y-38583996D01*
X45914501Y-38477553D01*
X46042553Y-38349501D01*
X46148996Y-38202994D01*
X46231211Y-38041639D01*
X46287171Y-37869409D01*
X46301203Y-37780814D01*
X48799497Y-37780814D01*
X48799497Y-37919185D01*
X48835307Y-38052831D01*
X48835309Y-38052836D01*
X48904492Y-38172665D01*
X49002332Y-38270505D01*
X49122161Y-38339688D01*
X49255811Y-38375499D01*
X49255812Y-38375500D01*
X49255814Y-38375500D01*
X49394182Y-38375500D01*
X49394182Y-38375499D01*
X49527833Y-38339688D01*
X49543203Y-38330814D01*
X60674500Y-38330814D01*
X60674500Y-38469185D01*
X60710310Y-38602831D01*
X60710312Y-38602836D01*
X60779495Y-38722665D01*
X60877335Y-38820505D01*
X60997164Y-38889688D01*
X61130814Y-38925499D01*
X61130815Y-38925500D01*
X61130817Y-38925500D01*
X61269185Y-38925500D01*
X61269185Y-38925499D01*
X61402836Y-38889688D01*
X61522665Y-38820505D01*
X61620505Y-38722665D01*
X61689688Y-38602836D01*
X61725499Y-38469185D01*
X61725500Y-38469185D01*
X61725500Y-38330817D01*
X61715935Y-38295119D01*
X61715935Y-38295117D01*
X61712102Y-38280814D01*
X64124500Y-38280814D01*
X64124500Y-38419185D01*
X64160310Y-38552831D01*
X64160312Y-38552836D01*
X64229495Y-38672665D01*
X64327335Y-38770505D01*
X64447164Y-38839688D01*
X64580814Y-38875499D01*
X64580815Y-38875500D01*
X64580817Y-38875500D01*
X64719185Y-38875500D01*
X64719185Y-38875499D01*
X64852836Y-38839688D01*
X64972665Y-38770505D01*
X65070505Y-38672665D01*
X65139688Y-38552836D01*
X65175499Y-38419185D01*
X65175500Y-38419185D01*
X65175500Y-38280815D01*
X65175499Y-38280814D01*
X65172736Y-38270504D01*
X65139688Y-38147164D01*
X65070505Y-38027335D01*
X64972665Y-37929495D01*
X64852836Y-37860312D01*
X64852831Y-37860310D01*
X64719185Y-37824500D01*
X64719183Y-37824500D01*
X64580817Y-37824500D01*
X64580815Y-37824500D01*
X64447168Y-37860310D01*
X64447163Y-37860312D01*
X64327334Y-37929495D01*
X64229495Y-38027334D01*
X64160312Y-38147163D01*
X64160310Y-38147168D01*
X64124500Y-38280814D01*
X61712102Y-38280814D01*
X61689689Y-38197168D01*
X61689688Y-38197164D01*
X61620505Y-38077335D01*
X61522665Y-37979495D01*
X61402836Y-37910312D01*
X61402831Y-37910310D01*
X61269185Y-37874500D01*
X61269183Y-37874500D01*
X61130817Y-37874500D01*
X61130815Y-37874500D01*
X60997168Y-37910310D01*
X60997163Y-37910312D01*
X60877334Y-37979495D01*
X60779495Y-38077334D01*
X60710312Y-38197163D01*
X60710310Y-38197168D01*
X60674500Y-38330814D01*
X49543203Y-38330814D01*
X49647662Y-38270505D01*
X49745502Y-38172665D01*
X49814685Y-38052836D01*
X49850496Y-37919185D01*
X49850497Y-37919185D01*
X49850497Y-37780815D01*
X49850496Y-37780814D01*
X49849819Y-37778289D01*
X49814685Y-37647164D01*
X49745502Y-37527335D01*
X49647662Y-37429495D01*
X49527833Y-37360312D01*
X49527828Y-37360310D01*
X49394182Y-37324500D01*
X49394180Y-37324500D01*
X49255814Y-37324500D01*
X49255812Y-37324500D01*
X49122165Y-37360310D01*
X49122160Y-37360312D01*
X49002331Y-37429495D01*
X48904492Y-37527334D01*
X48835309Y-37647163D01*
X48835307Y-37647168D01*
X48799497Y-37780814D01*
X46301203Y-37780814D01*
X46315500Y-37690546D01*
X46315500Y-37509454D01*
X46309716Y-37472938D01*
X46297716Y-37397168D01*
X46287171Y-37330591D01*
X46287169Y-37330586D01*
X46287168Y-37330580D01*
X46231212Y-37158364D01*
X46231211Y-37158363D01*
X46231211Y-37158361D01*
X46148996Y-36997006D01*
X46143678Y-36989687D01*
X46100907Y-36930817D01*
X46042553Y-36850499D01*
X45914501Y-36722447D01*
X45784281Y-36627837D01*
X45767996Y-36616005D01*
X45687213Y-36574844D01*
X45606639Y-36533789D01*
X45606638Y-36533788D01*
X45606635Y-36533787D01*
X45606636Y-36533787D01*
X45434419Y-36477831D01*
X45434406Y-36477828D01*
X45255547Y-36449500D01*
X45255546Y-36449500D01*
X45074454Y-36449500D01*
X45074453Y-36449500D01*
X44895593Y-36477828D01*
X44895580Y-36477831D01*
X44723364Y-36533787D01*
X44562004Y-36616005D01*
X44562003Y-36616005D01*
X44415503Y-36722444D01*
X44415499Y-36722447D01*
X44287447Y-36850499D01*
X44287444Y-36850502D01*
X44287444Y-36850503D01*
X44181005Y-36997003D01*
X44181005Y-36997004D01*
X44098787Y-37158364D01*
X44042831Y-37330580D01*
X44042828Y-37330593D01*
X44014500Y-37509453D01*
X43775499Y-37509453D01*
X43775499Y-36705136D01*
X43772585Y-36680009D01*
X43727206Y-36577235D01*
X43647765Y-36497794D01*
X43544991Y-36452415D01*
X43544990Y-36452414D01*
X43544988Y-36452414D01*
X43523659Y-36449940D01*
X43519865Y-36449500D01*
X43519864Y-36449500D01*
X41730136Y-36449500D01*
X41705013Y-36452414D01*
X41705007Y-36452415D01*
X41602234Y-36497794D01*
X41522794Y-36577234D01*
X41477414Y-36680011D01*
X41474500Y-36705135D01*
X20200500Y-36705135D01*
X20200500Y-35944448D01*
X27674009Y-35944448D01*
X27694045Y-36049534D01*
X27701973Y-36091111D01*
X27701974Y-36091116D01*
X27760216Y-36228575D01*
X27760219Y-36228582D01*
X27816366Y-36308382D01*
X27846131Y-36350686D01*
X27955850Y-36451942D01*
X28084446Y-36527797D01*
X28226142Y-36574844D01*
X28374570Y-36590969D01*
X28374570Y-36590968D01*
X28374571Y-36590969D01*
X28424067Y-36585795D01*
X28523063Y-36575447D01*
X28664948Y-36528975D01*
X28690341Y-36514183D01*
X28694871Y-36511545D01*
X28695028Y-36511525D01*
X28726744Y-36492988D01*
X28726756Y-36492987D01*
X28732391Y-36490019D01*
X28771243Y-36471692D01*
X28783450Y-36467199D01*
X28821745Y-36456827D01*
X28834547Y-36454545D01*
X28869225Y-36451477D01*
X28877033Y-36450787D01*
X28883553Y-36450499D01*
X30429579Y-36450499D01*
X30429589Y-36450503D01*
X30466227Y-36450499D01*
X30472719Y-36450785D01*
X30515479Y-36454560D01*
X30528297Y-36456841D01*
X30566554Y-36467196D01*
X30566580Y-36467203D01*
X30578805Y-36471700D01*
X30617402Y-36489899D01*
X30623145Y-36492922D01*
X30655006Y-36511537D01*
X30660826Y-36514937D01*
X30661764Y-36515365D01*
X30685069Y-36528940D01*
X30826946Y-36575409D01*
X30947324Y-36587992D01*
X30975429Y-36590930D01*
X30975429Y-36590929D01*
X30975431Y-36590930D01*
X31123851Y-36574805D01*
X31265539Y-36527761D01*
X31394128Y-36451910D01*
X31498258Y-36355811D01*
X50324500Y-36355811D01*
X50324500Y-36494182D01*
X50360310Y-36627828D01*
X50360314Y-36627837D01*
X50387831Y-36675499D01*
X50395223Y-36731651D01*
X50387831Y-36749497D01*
X50360312Y-36797164D01*
X50360312Y-36797165D01*
X50360310Y-36797168D01*
X50324500Y-36930814D01*
X50324500Y-37069185D01*
X50360310Y-37202831D01*
X50360314Y-37202840D01*
X50395047Y-37263001D01*
X50402439Y-37319154D01*
X50395047Y-37336999D01*
X50360314Y-37397159D01*
X50360310Y-37397168D01*
X50324500Y-37530814D01*
X50324500Y-37669185D01*
X50360310Y-37802831D01*
X50360312Y-37802836D01*
X50429495Y-37922665D01*
X50527335Y-38020505D01*
X50647164Y-38089688D01*
X50780814Y-38125499D01*
X50780815Y-38125500D01*
X50780817Y-38125500D01*
X50919185Y-38125500D01*
X50919185Y-38125499D01*
X51052836Y-38089688D01*
X51172665Y-38020505D01*
X51270505Y-37922665D01*
X51339688Y-37802836D01*
X51375499Y-37669185D01*
X51375500Y-37669185D01*
X51375500Y-37530815D01*
X51375499Y-37530814D01*
X51369775Y-37509453D01*
X51339688Y-37397164D01*
X51332343Y-37384443D01*
X51304952Y-37337000D01*
X51297559Y-37280848D01*
X51304952Y-37263000D01*
X51312309Y-37250257D01*
X51339688Y-37202836D01*
X51375499Y-37069185D01*
X51375500Y-37069185D01*
X51375500Y-36930815D01*
X51375499Y-36930814D01*
X51372736Y-36920504D01*
X51339688Y-36797164D01*
X51312168Y-36749498D01*
X51304775Y-36693346D01*
X51312169Y-36675497D01*
X51339686Y-36627837D01*
X51339689Y-36627829D01*
X51342857Y-36616005D01*
X51375499Y-36494182D01*
X51375500Y-36494182D01*
X51375500Y-36430814D01*
X62024500Y-36430814D01*
X62024500Y-36569185D01*
X62060310Y-36702831D01*
X62060312Y-36702836D01*
X62129495Y-36822665D01*
X62227335Y-36920505D01*
X62347164Y-36989688D01*
X62480814Y-37025499D01*
X62480815Y-37025500D01*
X62480817Y-37025500D01*
X62619185Y-37025500D01*
X62619185Y-37025499D01*
X62752836Y-36989688D01*
X62872665Y-36920505D01*
X62970505Y-36822665D01*
X63039688Y-36702836D01*
X63075499Y-36569185D01*
X63075500Y-36569185D01*
X63075500Y-36430815D01*
X63075499Y-36430814D01*
X63055403Y-36355814D01*
X63039688Y-36297164D01*
X63030248Y-36280813D01*
X81324500Y-36280813D01*
X81324500Y-36419184D01*
X81360310Y-36552830D01*
X81360312Y-36552835D01*
X81429495Y-36672664D01*
X81527335Y-36770504D01*
X81647164Y-36839687D01*
X81780814Y-36875498D01*
X81780815Y-36875499D01*
X81780817Y-36875499D01*
X81919185Y-36875499D01*
X81919185Y-36875498D01*
X82052836Y-36839687D01*
X82172665Y-36770504D01*
X82270505Y-36672664D01*
X82339688Y-36552835D01*
X82375499Y-36419184D01*
X82375500Y-36419184D01*
X82375500Y-36280814D01*
X82375499Y-36280813D01*
X82361498Y-36228559D01*
X82339688Y-36147163D01*
X82330250Y-36130815D01*
X85262000Y-36130815D01*
X85262000Y-36269186D01*
X85297810Y-36402832D01*
X85297812Y-36402837D01*
X85366995Y-36522666D01*
X85467003Y-36622674D01*
X85488677Y-36675000D01*
X85467003Y-36727326D01*
X85366995Y-36827334D01*
X85297812Y-36947163D01*
X85297810Y-36947168D01*
X85262000Y-37080814D01*
X85262000Y-37219185D01*
X85297810Y-37352831D01*
X85297812Y-37352836D01*
X85366995Y-37472665D01*
X85464835Y-37570505D01*
X85584664Y-37639688D01*
X85718314Y-37675499D01*
X85718315Y-37675500D01*
X85718317Y-37675500D01*
X85856685Y-37675500D01*
X85856685Y-37675499D01*
X85990336Y-37639688D01*
X86110165Y-37570505D01*
X86208005Y-37472665D01*
X86277188Y-37352836D01*
X86312999Y-37219185D01*
X86313000Y-37219185D01*
X86313000Y-37080815D01*
X86312999Y-37080814D01*
X86290542Y-36997004D01*
X86277188Y-36947164D01*
X86208005Y-36827335D01*
X86110165Y-36729495D01*
X86107996Y-36727326D01*
X86086322Y-36675000D01*
X86107996Y-36622674D01*
X86110162Y-36620507D01*
X86110165Y-36620506D01*
X86208005Y-36522666D01*
X86277188Y-36402837D01*
X86296486Y-36330815D01*
X86296486Y-36330814D01*
X93024500Y-36330814D01*
X93024500Y-36469185D01*
X93060310Y-36602831D01*
X93060312Y-36602836D01*
X93129495Y-36722665D01*
X93227335Y-36820505D01*
X93347164Y-36889688D01*
X93480814Y-36925499D01*
X93480815Y-36925500D01*
X93480817Y-36925500D01*
X93619185Y-36925500D01*
X93619185Y-36925499D01*
X93752836Y-36889688D01*
X93872665Y-36820505D01*
X93970505Y-36722665D01*
X94039688Y-36602836D01*
X94075499Y-36469185D01*
X94075500Y-36469185D01*
X94075500Y-36330815D01*
X94075499Y-36330814D01*
X94069488Y-36308382D01*
X94039688Y-36197164D01*
X93970505Y-36077335D01*
X93872665Y-35979495D01*
X93811962Y-35944448D01*
X94274009Y-35944448D01*
X94294045Y-36049534D01*
X94301973Y-36091111D01*
X94301974Y-36091116D01*
X94360216Y-36228575D01*
X94360219Y-36228582D01*
X94416366Y-36308382D01*
X94446131Y-36350686D01*
X94555850Y-36451942D01*
X94684446Y-36527797D01*
X94826142Y-36574844D01*
X94974570Y-36590969D01*
X94974570Y-36590968D01*
X94974571Y-36590969D01*
X95024067Y-36585795D01*
X95123063Y-36575447D01*
X95264948Y-36528975D01*
X95290341Y-36514183D01*
X95294871Y-36511545D01*
X95295028Y-36511525D01*
X95326744Y-36492988D01*
X95326756Y-36492987D01*
X95332391Y-36490019D01*
X95371243Y-36471692D01*
X95383450Y-36467199D01*
X95421745Y-36456827D01*
X95434547Y-36454545D01*
X95469225Y-36451477D01*
X95477033Y-36450787D01*
X95483553Y-36450499D01*
X97029579Y-36450499D01*
X97029589Y-36450503D01*
X97066227Y-36450499D01*
X97072719Y-36450785D01*
X97115479Y-36454560D01*
X97128297Y-36456841D01*
X97166554Y-36467196D01*
X97166580Y-36467203D01*
X97178805Y-36471700D01*
X97217402Y-36489899D01*
X97223145Y-36492922D01*
X97255006Y-36511537D01*
X97260826Y-36514937D01*
X97261764Y-36515365D01*
X97285069Y-36528940D01*
X97426946Y-36575409D01*
X97547324Y-36587992D01*
X97575429Y-36590930D01*
X97575429Y-36590929D01*
X97575431Y-36590930D01*
X97723851Y-36574805D01*
X97865539Y-36527761D01*
X97994128Y-36451910D01*
X98103841Y-36350659D01*
X98189748Y-36228559D01*
X98203050Y-36197163D01*
X98247988Y-36091103D01*
X98247988Y-36091100D01*
X98247991Y-36091095D01*
X98275952Y-35944444D01*
X98272374Y-35795193D01*
X98237420Y-35650049D01*
X98222444Y-35618828D01*
X98222436Y-35618671D01*
X98206289Y-35585136D01*
X98206288Y-35585123D01*
X98204130Y-35580175D01*
X98190812Y-35546239D01*
X98187554Y-35535679D01*
X98180061Y-35502848D01*
X98178414Y-35491921D01*
X98175706Y-35455808D01*
X98175499Y-35450275D01*
X98175499Y-34049949D01*
X98175706Y-34044416D01*
X98176206Y-34037739D01*
X98178432Y-34008068D01*
X98180078Y-33997152D01*
X98187572Y-33964319D01*
X98190823Y-33953778D01*
X98204049Y-33920073D01*
X98206205Y-33915122D01*
X98216989Y-33892638D01*
X98216990Y-33892635D01*
X98217042Y-33892527D01*
X98222436Y-33881327D01*
X98222438Y-33881277D01*
X98237460Y-33849961D01*
X98272416Y-33704809D01*
X98275992Y-33555550D01*
X98248029Y-33408890D01*
X98248026Y-33408884D01*
X98248026Y-33408881D01*
X98189784Y-33271422D01*
X98189781Y-33271415D01*
X98127097Y-33182324D01*
X98103870Y-33149312D01*
X98101553Y-33147174D01*
X98016835Y-33068991D01*
X97994151Y-33048057D01*
X97992644Y-33047168D01*
X97865558Y-32972202D01*
X97865551Y-32972199D01*
X97723859Y-32925154D01*
X97575433Y-32909029D01*
X97575429Y-32909028D01*
X97426936Y-32924551D01*
X97285057Y-32971019D01*
X97261501Y-32984739D01*
X97261498Y-32984740D01*
X97255137Y-32988443D01*
X97255005Y-32988462D01*
X97224194Y-33006463D01*
X97223297Y-33006986D01*
X97223283Y-33006987D01*
X97217617Y-33009972D01*
X97178794Y-33028277D01*
X97166568Y-33032774D01*
X97128299Y-33043132D01*
X97115472Y-33045415D01*
X97072454Y-33049212D01*
X97065941Y-33049499D01*
X97022561Y-33049495D01*
X97022509Y-33049500D01*
X95527759Y-33049500D01*
X95520421Y-33049499D01*
X95520410Y-33049495D01*
X95488401Y-33049498D01*
X95483776Y-33049498D01*
X95483774Y-33049497D01*
X95477273Y-33049211D01*
X95434524Y-33045438D01*
X95421696Y-33043155D01*
X95383417Y-33032794D01*
X95371194Y-33028297D01*
X95332608Y-33010103D01*
X95326840Y-33007066D01*
X95299527Y-32991109D01*
X95294995Y-32988461D01*
X95294994Y-32988460D01*
X95289312Y-32985141D01*
X95288334Y-32984691D01*
X95267979Y-32972836D01*
X95264930Y-32971060D01*
X95264928Y-32971059D01*
X95264926Y-32971058D01*
X95123054Y-32924592D01*
X94974570Y-32909070D01*
X94974565Y-32909071D01*
X94826148Y-32925195D01*
X94684466Y-32972238D01*
X94684463Y-32972239D01*
X94684462Y-32972240D01*
X94656994Y-32988443D01*
X94555876Y-33048089D01*
X94446161Y-33149339D01*
X94360254Y-33271436D01*
X94360251Y-33271443D01*
X94302013Y-33408896D01*
X94302009Y-33408908D01*
X94274049Y-33555549D01*
X94274049Y-33555552D01*
X94277625Y-33704803D01*
X94277626Y-33704805D01*
X94312578Y-33849943D01*
X94312580Y-33849947D01*
X94324356Y-33874500D01*
X94324366Y-33874519D01*
X94324368Y-33874525D01*
X94327547Y-33881154D01*
X94327555Y-33881292D01*
X94343435Y-33914288D01*
X94343694Y-33914828D01*
X94343694Y-33914838D01*
X94345860Y-33919805D01*
X94359164Y-33953726D01*
X94362421Y-33964291D01*
X94369905Y-33997107D01*
X94371551Y-34008040D01*
X94374294Y-34044706D01*
X94374500Y-34050235D01*
X94374495Y-34094306D01*
X94374501Y-34094367D01*
X94374501Y-35450057D01*
X94374294Y-35455585D01*
X94373987Y-35459687D01*
X94371568Y-35491952D01*
X94369923Y-35502873D01*
X94362432Y-35535721D01*
X94359177Y-35546283D01*
X94346138Y-35579535D01*
X94343967Y-35584523D01*
X94332184Y-35609089D01*
X94330577Y-35612439D01*
X94327546Y-35618740D01*
X94327544Y-35618761D01*
X94318875Y-35636835D01*
X94312541Y-35650040D01*
X94277587Y-35795186D01*
X94277586Y-35795190D01*
X94274827Y-35910310D01*
X94274009Y-35944448D01*
X93811962Y-35944448D01*
X93752836Y-35910312D01*
X93752831Y-35910310D01*
X93619185Y-35874500D01*
X93619183Y-35874500D01*
X93480817Y-35874500D01*
X93480815Y-35874500D01*
X93347168Y-35910310D01*
X93347163Y-35910312D01*
X93227334Y-35979495D01*
X93129495Y-36077334D01*
X93060312Y-36197163D01*
X93060310Y-36197168D01*
X93024500Y-36330814D01*
X86296486Y-36330814D01*
X86302916Y-36306820D01*
X86302917Y-36306815D01*
X86313000Y-36269183D01*
X86313000Y-36130816D01*
X86312999Y-36130815D01*
X86311459Y-36125069D01*
X86277188Y-35997165D01*
X86208005Y-35877336D01*
X86110165Y-35779496D01*
X85990336Y-35710313D01*
X85990331Y-35710311D01*
X85856685Y-35674501D01*
X85856683Y-35674501D01*
X85718317Y-35674501D01*
X85718315Y-35674501D01*
X85584668Y-35710311D01*
X85584663Y-35710313D01*
X85464834Y-35779496D01*
X85366995Y-35877335D01*
X85297812Y-35997164D01*
X85297810Y-35997169D01*
X85262000Y-36130815D01*
X82330250Y-36130815D01*
X82270505Y-36027334D01*
X82172665Y-35929494D01*
X82052836Y-35860311D01*
X82052831Y-35860309D01*
X81919185Y-35824499D01*
X81919183Y-35824499D01*
X81780817Y-35824499D01*
X81780815Y-35824499D01*
X81647168Y-35860309D01*
X81647163Y-35860311D01*
X81527334Y-35929494D01*
X81429495Y-36027333D01*
X81360312Y-36147162D01*
X81360310Y-36147167D01*
X81324500Y-36280813D01*
X63030248Y-36280813D01*
X62970505Y-36177335D01*
X62872665Y-36079495D01*
X62752836Y-36010312D01*
X62752831Y-36010310D01*
X62619185Y-35974500D01*
X62619183Y-35974500D01*
X62480817Y-35974500D01*
X62480815Y-35974500D01*
X62347168Y-36010310D01*
X62347163Y-36010312D01*
X62227334Y-36079495D01*
X62129495Y-36177334D01*
X62060312Y-36297163D01*
X62060310Y-36297168D01*
X62024500Y-36430814D01*
X51375500Y-36430814D01*
X51375500Y-36355812D01*
X51375499Y-36355811D01*
X51368801Y-36330815D01*
X51339688Y-36222161D01*
X51270505Y-36102332D01*
X51172665Y-36004492D01*
X51052836Y-35935309D01*
X51052831Y-35935307D01*
X50919185Y-35899497D01*
X50919183Y-35899497D01*
X50780817Y-35899497D01*
X50780815Y-35899497D01*
X50647168Y-35935307D01*
X50647163Y-35935309D01*
X50527334Y-36004492D01*
X50429495Y-36102331D01*
X50360312Y-36222160D01*
X50360310Y-36222165D01*
X50324500Y-36355811D01*
X31498258Y-36355811D01*
X31503841Y-36350659D01*
X31552983Y-36280814D01*
X31589748Y-36228559D01*
X31647988Y-36091103D01*
X31647988Y-36091100D01*
X31647991Y-36091095D01*
X31675952Y-35944444D01*
X31672374Y-35795193D01*
X31637420Y-35650049D01*
X31622444Y-35618828D01*
X31622436Y-35618671D01*
X31606289Y-35585136D01*
X31606288Y-35585123D01*
X31604130Y-35580175D01*
X31590812Y-35546239D01*
X31587554Y-35535679D01*
X31580061Y-35502848D01*
X31578414Y-35491921D01*
X31575706Y-35455808D01*
X31575499Y-35450275D01*
X31575499Y-34530814D01*
X50449500Y-34530814D01*
X50449500Y-34669185D01*
X50485310Y-34802831D01*
X50485312Y-34802836D01*
X50554495Y-34922665D01*
X50652335Y-35020505D01*
X50772164Y-35089688D01*
X50905814Y-35125499D01*
X50905815Y-35125500D01*
X50905817Y-35125500D01*
X51044185Y-35125500D01*
X51044185Y-35125499D01*
X51117652Y-35105814D01*
X56999500Y-35105814D01*
X56999500Y-35244185D01*
X57035310Y-35377831D01*
X57035312Y-35377836D01*
X57104495Y-35497665D01*
X57202335Y-35595505D01*
X57322164Y-35664688D01*
X57455814Y-35700499D01*
X57455815Y-35700500D01*
X57455817Y-35700500D01*
X57594185Y-35700500D01*
X57594185Y-35700499D01*
X57727836Y-35664688D01*
X57847665Y-35595505D01*
X57945505Y-35497665D01*
X58014688Y-35377836D01*
X58050499Y-35244185D01*
X58050500Y-35244185D01*
X58050500Y-35105815D01*
X58050499Y-35105814D01*
X58046178Y-35089689D01*
X58014688Y-34972164D01*
X57973494Y-34900814D01*
X76784500Y-34900814D01*
X76784500Y-35039185D01*
X76820310Y-35172831D01*
X76820312Y-35172836D01*
X76889495Y-35292665D01*
X76987335Y-35390505D01*
X77107164Y-35459688D01*
X77240814Y-35495499D01*
X77240815Y-35495500D01*
X77240817Y-35495500D01*
X77379185Y-35495500D01*
X77379185Y-35495499D01*
X77512836Y-35459688D01*
X77632665Y-35390505D01*
X77730505Y-35292665D01*
X77799688Y-35172836D01*
X77835499Y-35039185D01*
X77835500Y-35039185D01*
X77835500Y-34977909D01*
X77857174Y-34925583D01*
X77890344Y-34906431D01*
X77952836Y-34889688D01*
X78072665Y-34820505D01*
X78170505Y-34722665D01*
X78239688Y-34602836D01*
X78275499Y-34469185D01*
X78275500Y-34469185D01*
X78275500Y-34330815D01*
X78275499Y-34330814D01*
X78272736Y-34320504D01*
X78239688Y-34197164D01*
X78170505Y-34077335D01*
X78072665Y-33979495D01*
X77952836Y-33910312D01*
X77952831Y-33910310D01*
X77819185Y-33874500D01*
X77819183Y-33874500D01*
X77680817Y-33874500D01*
X77680815Y-33874500D01*
X77547168Y-33910310D01*
X77547163Y-33910312D01*
X77427334Y-33979495D01*
X77329495Y-34077334D01*
X77260312Y-34197163D01*
X77260310Y-34197168D01*
X77224500Y-34330814D01*
X77224500Y-34392089D01*
X77202826Y-34444415D01*
X77169654Y-34463567D01*
X77107167Y-34480311D01*
X77107163Y-34480312D01*
X76987334Y-34549495D01*
X76889495Y-34647334D01*
X76820312Y-34767163D01*
X76820310Y-34767168D01*
X76784500Y-34900814D01*
X57973494Y-34900814D01*
X57945505Y-34852335D01*
X57847665Y-34754495D01*
X57727836Y-34685312D01*
X57727831Y-34685310D01*
X57594185Y-34649500D01*
X57594183Y-34649500D01*
X57455817Y-34649500D01*
X57455815Y-34649500D01*
X57322168Y-34685310D01*
X57322163Y-34685312D01*
X57202334Y-34754495D01*
X57104495Y-34852334D01*
X57035312Y-34972163D01*
X57035310Y-34972168D01*
X56999500Y-35105814D01*
X51117652Y-35105814D01*
X51177836Y-35089688D01*
X51297665Y-35020505D01*
X51395505Y-34922665D01*
X51464688Y-34802836D01*
X51500499Y-34669185D01*
X51500500Y-34669185D01*
X51500500Y-34530815D01*
X51500499Y-34530814D01*
X51491424Y-34496947D01*
X51464688Y-34397164D01*
X51395505Y-34277335D01*
X51297665Y-34179495D01*
X51177836Y-34110312D01*
X51177831Y-34110310D01*
X51044185Y-34074500D01*
X51044183Y-34074500D01*
X50905817Y-34074500D01*
X50905815Y-34074500D01*
X50772168Y-34110310D01*
X50772163Y-34110312D01*
X50652334Y-34179495D01*
X50554495Y-34277334D01*
X50485312Y-34397163D01*
X50485310Y-34397168D01*
X50449500Y-34530814D01*
X31575499Y-34530814D01*
X31575499Y-34049949D01*
X31575706Y-34044416D01*
X31576206Y-34037739D01*
X31578432Y-34008068D01*
X31580078Y-33997152D01*
X31587572Y-33964319D01*
X31590823Y-33953778D01*
X31599834Y-33930814D01*
X33574500Y-33930814D01*
X33574500Y-34069185D01*
X33610310Y-34202831D01*
X33610312Y-34202836D01*
X33679495Y-34322665D01*
X33777335Y-34420505D01*
X33897164Y-34489688D01*
X34030814Y-34525499D01*
X34030815Y-34525500D01*
X34030817Y-34525500D01*
X34169185Y-34525500D01*
X34169185Y-34525499D01*
X34302836Y-34489688D01*
X34422665Y-34420505D01*
X34520505Y-34322665D01*
X34589688Y-34202836D01*
X34625499Y-34069185D01*
X34625500Y-34069185D01*
X34625500Y-33930815D01*
X34625499Y-33930814D01*
X34622626Y-33920093D01*
X34589688Y-33797164D01*
X34551381Y-33730814D01*
X52974500Y-33730814D01*
X52974500Y-33869185D01*
X53010310Y-34002831D01*
X53010312Y-34002836D01*
X53079495Y-34122665D01*
X53177335Y-34220505D01*
X53297164Y-34289688D01*
X53430814Y-34325499D01*
X53430815Y-34325500D01*
X53430817Y-34325500D01*
X53569185Y-34325500D01*
X53569185Y-34325499D01*
X53702836Y-34289688D01*
X53822665Y-34220505D01*
X53920505Y-34122665D01*
X53989688Y-34002836D01*
X54025499Y-33869185D01*
X54025500Y-33869185D01*
X54025500Y-33830814D01*
X69174500Y-33830814D01*
X69174500Y-33969185D01*
X69210310Y-34102831D01*
X69210312Y-34102836D01*
X69279495Y-34222665D01*
X69377335Y-34320505D01*
X69497164Y-34389688D01*
X69630814Y-34425499D01*
X69630815Y-34425500D01*
X69630817Y-34425500D01*
X69769185Y-34425500D01*
X69769185Y-34425499D01*
X69902836Y-34389688D01*
X70022665Y-34320505D01*
X70120505Y-34222665D01*
X70189688Y-34102836D01*
X70225499Y-33969185D01*
X70225500Y-33969185D01*
X70225500Y-33830815D01*
X70225499Y-33830814D01*
X70202053Y-33743313D01*
X70189688Y-33697164D01*
X70120505Y-33577335D01*
X70022665Y-33479495D01*
X69902836Y-33410312D01*
X69902831Y-33410310D01*
X69769185Y-33374500D01*
X69769183Y-33374500D01*
X69630817Y-33374500D01*
X69630815Y-33374500D01*
X69497168Y-33410310D01*
X69497163Y-33410312D01*
X69377334Y-33479495D01*
X69279495Y-33577334D01*
X69210312Y-33697163D01*
X69210310Y-33697168D01*
X69174500Y-33830814D01*
X54025500Y-33830814D01*
X54025500Y-33730815D01*
X54025499Y-33730814D01*
X54018529Y-33704803D01*
X53989688Y-33597164D01*
X53920505Y-33477335D01*
X53822665Y-33379495D01*
X53702836Y-33310312D01*
X53702831Y-33310310D01*
X53569185Y-33274500D01*
X53569183Y-33274500D01*
X53430817Y-33274500D01*
X53430815Y-33274500D01*
X53297168Y-33310310D01*
X53297163Y-33310312D01*
X53177334Y-33379495D01*
X53079495Y-33477334D01*
X53010312Y-33597163D01*
X53010310Y-33597168D01*
X52974500Y-33730814D01*
X34551381Y-33730814D01*
X34520505Y-33677335D01*
X34422665Y-33579495D01*
X34302836Y-33510312D01*
X34302831Y-33510310D01*
X34169185Y-33474500D01*
X34169183Y-33474500D01*
X34030817Y-33474500D01*
X34030815Y-33474500D01*
X33897168Y-33510310D01*
X33897163Y-33510312D01*
X33777334Y-33579495D01*
X33679495Y-33677334D01*
X33610312Y-33797163D01*
X33610310Y-33797168D01*
X33574500Y-33930814D01*
X31599834Y-33930814D01*
X31604049Y-33920073D01*
X31606206Y-33915120D01*
X31616355Y-33893962D01*
X31616640Y-33893365D01*
X31616982Y-33892653D01*
X31617005Y-33892664D01*
X31617011Y-33892659D01*
X31617042Y-33892527D01*
X31617819Y-33890915D01*
X31622436Y-33881327D01*
X31622436Y-33881326D01*
X31625613Y-33874730D01*
X31625714Y-33874445D01*
X31637460Y-33849961D01*
X31672416Y-33704809D01*
X31675992Y-33555550D01*
X31648029Y-33408890D01*
X31648026Y-33408884D01*
X31648026Y-33408881D01*
X31589784Y-33271422D01*
X31589781Y-33271415D01*
X31527097Y-33182324D01*
X31503870Y-33149312D01*
X31501553Y-33147174D01*
X31416835Y-33068991D01*
X31394151Y-33048057D01*
X31392637Y-33047164D01*
X31297609Y-32991109D01*
X31265558Y-32972202D01*
X31265551Y-32972199D01*
X31141487Y-32931007D01*
X43199500Y-32931007D01*
X43199500Y-32960907D01*
X43199500Y-33068993D01*
X43203617Y-33089688D01*
X43226418Y-33204322D01*
X43226421Y-33204332D01*
X43279223Y-33331808D01*
X43343999Y-33428753D01*
X43355886Y-33446542D01*
X43453458Y-33544114D01*
X43568189Y-33620775D01*
X43568190Y-33620775D01*
X43568191Y-33620776D01*
X43688246Y-33670504D01*
X43695672Y-33673580D01*
X43831007Y-33700500D01*
X43831009Y-33700500D01*
X43968991Y-33700500D01*
X43968993Y-33700500D01*
X44104328Y-33673580D01*
X44124835Y-33665085D01*
X44142908Y-33657600D01*
X44192237Y-33637166D01*
X44231811Y-33620775D01*
X44346542Y-33544114D01*
X44444114Y-33446542D01*
X44520775Y-33331811D01*
X44573580Y-33204328D01*
X44600500Y-33068993D01*
X44600500Y-32931007D01*
X44573580Y-32795672D01*
X44520775Y-32668189D01*
X44444114Y-32553458D01*
X44421470Y-32530814D01*
X55459491Y-32530814D01*
X55459491Y-32669185D01*
X55495301Y-32802831D01*
X55495302Y-32802834D01*
X55495303Y-32802836D01*
X55564486Y-32922665D01*
X55662326Y-33020505D01*
X55782155Y-33089688D01*
X55915805Y-33125499D01*
X55915806Y-33125500D01*
X55915808Y-33125500D01*
X56054176Y-33125500D01*
X56054176Y-33125499D01*
X56187827Y-33089688D01*
X56187829Y-33089686D01*
X56187831Y-33089686D01*
X56235491Y-33062169D01*
X56291644Y-33054775D01*
X56309492Y-33062168D01*
X56357158Y-33089688D01*
X56490808Y-33125499D01*
X56490809Y-33125500D01*
X56490811Y-33125500D01*
X56629179Y-33125500D01*
X56629179Y-33125499D01*
X56762830Y-33089688D01*
X56762832Y-33089686D01*
X56762834Y-33089686D01*
X56810494Y-33062169D01*
X56866647Y-33054775D01*
X56884495Y-33062168D01*
X56932161Y-33089688D01*
X57065811Y-33125499D01*
X57065812Y-33125500D01*
X57200500Y-33125500D01*
X57252826Y-33147174D01*
X57274500Y-33199500D01*
X57274500Y-33319185D01*
X57310310Y-33452831D01*
X57310312Y-33452836D01*
X57379495Y-33572665D01*
X57477335Y-33670505D01*
X57597164Y-33739688D01*
X57730814Y-33775499D01*
X57730815Y-33775500D01*
X57730817Y-33775500D01*
X57869185Y-33775500D01*
X57869185Y-33775499D01*
X57912367Y-33763928D01*
X57947599Y-33754489D01*
X57978454Y-33746221D01*
X58002836Y-33739688D01*
X58122665Y-33670505D01*
X58220505Y-33572665D01*
X58289688Y-33452836D01*
X58325499Y-33319185D01*
X58325500Y-33319185D01*
X58325500Y-33180815D01*
X58325499Y-33180814D01*
X58317065Y-33149339D01*
X58289688Y-33047164D01*
X58220505Y-32927335D01*
X58201888Y-32908718D01*
X58180214Y-32856392D01*
X58190128Y-32819392D01*
X58199688Y-32802836D01*
X58235499Y-32669185D01*
X58235500Y-32669185D01*
X58235500Y-32530815D01*
X58235499Y-32530814D01*
X58222102Y-32480817D01*
X58199688Y-32397164D01*
X58130505Y-32277335D01*
X58032665Y-32179495D01*
X57912836Y-32110312D01*
X57912831Y-32110310D01*
X57779185Y-32074500D01*
X57779183Y-32074500D01*
X57640817Y-32074500D01*
X57640815Y-32074500D01*
X57507168Y-32110310D01*
X57507165Y-32110311D01*
X57507164Y-32110312D01*
X57461645Y-32136591D01*
X57459497Y-32137832D01*
X57403344Y-32145223D01*
X57385499Y-32137831D01*
X57337837Y-32110314D01*
X57337828Y-32110310D01*
X57204182Y-32074500D01*
X57204180Y-32074500D01*
X57065814Y-32074500D01*
X57065812Y-32074500D01*
X56932165Y-32110310D01*
X56932162Y-32110311D01*
X56932161Y-32110312D01*
X56886642Y-32136591D01*
X56884494Y-32137832D01*
X56828341Y-32145223D01*
X56810496Y-32137831D01*
X56762834Y-32110314D01*
X56762825Y-32110310D01*
X56629179Y-32074500D01*
X56629177Y-32074500D01*
X56490811Y-32074500D01*
X56490809Y-32074500D01*
X56357162Y-32110310D01*
X56357159Y-32110311D01*
X56357158Y-32110312D01*
X56311639Y-32136591D01*
X56309491Y-32137832D01*
X56253338Y-32145223D01*
X56235493Y-32137831D01*
X56187831Y-32110314D01*
X56187822Y-32110310D01*
X56054176Y-32074500D01*
X56054174Y-32074500D01*
X55915808Y-32074500D01*
X55915806Y-32074500D01*
X55782159Y-32110310D01*
X55782154Y-32110312D01*
X55662325Y-32179495D01*
X55564486Y-32277334D01*
X55495303Y-32397163D01*
X55495301Y-32397168D01*
X55459491Y-32530814D01*
X44421470Y-32530814D01*
X44346542Y-32455886D01*
X44231811Y-32379225D01*
X44231810Y-32379224D01*
X44231808Y-32379223D01*
X44104332Y-32326421D01*
X44104322Y-32326418D01*
X44013694Y-32308391D01*
X43968993Y-32299500D01*
X43831007Y-32299500D01*
X43792642Y-32307131D01*
X43695677Y-32326418D01*
X43695667Y-32326421D01*
X43568191Y-32379223D01*
X43453461Y-32455883D01*
X43355883Y-32553461D01*
X43279223Y-32668191D01*
X43226421Y-32795667D01*
X43226418Y-32795677D01*
X43204943Y-32903641D01*
X43199500Y-32931007D01*
X31141487Y-32931007D01*
X31123859Y-32925154D01*
X30975433Y-32909029D01*
X30975429Y-32909028D01*
X30826936Y-32924551D01*
X30685057Y-32971019D01*
X30661501Y-32984739D01*
X30661498Y-32984740D01*
X30655137Y-32988443D01*
X30655005Y-32988462D01*
X30624194Y-33006463D01*
X30623297Y-33006986D01*
X30623283Y-33006987D01*
X30617617Y-33009972D01*
X30578794Y-33028277D01*
X30566568Y-33032774D01*
X30528299Y-33043132D01*
X30515472Y-33045415D01*
X30472454Y-33049212D01*
X30465941Y-33049499D01*
X30422561Y-33049495D01*
X30422509Y-33049500D01*
X28927759Y-33049500D01*
X28920421Y-33049499D01*
X28920410Y-33049495D01*
X28888401Y-33049498D01*
X28883776Y-33049498D01*
X28883774Y-33049497D01*
X28877273Y-33049211D01*
X28834524Y-33045438D01*
X28821696Y-33043155D01*
X28783417Y-33032794D01*
X28771194Y-33028297D01*
X28732608Y-33010103D01*
X28726840Y-33007066D01*
X28699527Y-32991109D01*
X28694995Y-32988461D01*
X28694994Y-32988460D01*
X28689312Y-32985141D01*
X28688334Y-32984691D01*
X28667979Y-32972836D01*
X28664930Y-32971060D01*
X28664928Y-32971059D01*
X28664926Y-32971058D01*
X28523054Y-32924592D01*
X28374570Y-32909070D01*
X28374565Y-32909071D01*
X28226148Y-32925195D01*
X28084466Y-32972238D01*
X28084463Y-32972239D01*
X28084462Y-32972240D01*
X28056994Y-32988443D01*
X27955876Y-33048089D01*
X27846161Y-33149339D01*
X27760254Y-33271436D01*
X27760251Y-33271443D01*
X27702013Y-33408896D01*
X27702009Y-33408908D01*
X27674049Y-33555549D01*
X27674049Y-33555552D01*
X27677625Y-33704803D01*
X27677626Y-33704805D01*
X27712578Y-33849943D01*
X27712580Y-33849947D01*
X27724356Y-33874500D01*
X27724366Y-33874519D01*
X27724368Y-33874525D01*
X27727547Y-33881154D01*
X27727555Y-33881292D01*
X27743435Y-33914288D01*
X27743694Y-33914828D01*
X27743694Y-33914838D01*
X27745860Y-33919805D01*
X27759164Y-33953726D01*
X27762421Y-33964291D01*
X27769905Y-33997107D01*
X27771551Y-34008040D01*
X27774294Y-34044706D01*
X27774500Y-34050235D01*
X27774495Y-34094306D01*
X27774501Y-34094367D01*
X27774501Y-35450057D01*
X27774294Y-35455585D01*
X27773987Y-35459687D01*
X27771568Y-35491952D01*
X27769923Y-35502873D01*
X27762432Y-35535721D01*
X27759177Y-35546283D01*
X27746138Y-35579535D01*
X27743967Y-35584523D01*
X27732184Y-35609089D01*
X27730577Y-35612439D01*
X27727546Y-35618740D01*
X27727544Y-35618761D01*
X27718875Y-35636835D01*
X27712541Y-35650040D01*
X27677587Y-35795186D01*
X27677586Y-35795190D01*
X27674827Y-35910310D01*
X27674009Y-35944448D01*
X20200500Y-35944448D01*
X20200500Y-32700814D01*
X26434500Y-32700814D01*
X26434500Y-32839185D01*
X26470310Y-32972831D01*
X26470312Y-32972836D01*
X26539495Y-33092665D01*
X26637335Y-33190505D01*
X26757164Y-33259688D01*
X26890814Y-33295499D01*
X26890815Y-33295500D01*
X26890817Y-33295500D01*
X27029185Y-33295500D01*
X27029185Y-33295499D01*
X27162836Y-33259688D01*
X27282665Y-33190505D01*
X27380505Y-33092665D01*
X27449688Y-32972836D01*
X27485499Y-32839185D01*
X27485500Y-32839185D01*
X27485500Y-32700815D01*
X27485499Y-32700814D01*
X27449689Y-32567168D01*
X27449688Y-32567164D01*
X27380505Y-32447335D01*
X27282665Y-32349495D01*
X27162836Y-32280312D01*
X27162831Y-32280310D01*
X27029185Y-32244500D01*
X27029183Y-32244500D01*
X26890817Y-32244500D01*
X26890815Y-32244500D01*
X26757168Y-32280310D01*
X26757163Y-32280312D01*
X26637334Y-32349495D01*
X26539495Y-32447334D01*
X26470312Y-32567163D01*
X26470310Y-32567168D01*
X26434500Y-32700814D01*
X20200500Y-32700814D01*
X20200500Y-29611421D01*
X23494501Y-29611421D01*
X23494501Y-29788579D01*
X23519221Y-29944655D01*
X23522215Y-29963554D01*
X23522217Y-29963565D01*
X23576957Y-30132039D01*
X23576959Y-30132043D01*
X23657385Y-30289886D01*
X23657388Y-30289892D01*
X23719586Y-30375500D01*
X23761518Y-30433214D01*
X23886787Y-30558483D01*
X23886790Y-30558485D01*
X23886791Y-30558486D01*
X24004745Y-30644185D01*
X24030111Y-30662614D01*
X24182464Y-30740242D01*
X24187957Y-30743041D01*
X24187961Y-30743043D01*
X24356435Y-30797783D01*
X24356439Y-30797783D01*
X24356446Y-30797786D01*
X24507496Y-30821710D01*
X24531421Y-30825500D01*
X24531422Y-30825500D01*
X24708581Y-30825500D01*
X24729627Y-30822166D01*
X24883556Y-30797786D01*
X24883564Y-30797783D01*
X24883566Y-30797783D01*
X25052040Y-30743043D01*
X25052040Y-30743042D01*
X25052043Y-30743042D01*
X25209891Y-30662614D01*
X25353215Y-30558483D01*
X25478484Y-30433214D01*
X25582615Y-30289890D01*
X25663043Y-30132042D01*
X25708273Y-29992836D01*
X25717784Y-29963565D01*
X25717784Y-29963563D01*
X25717787Y-29963555D01*
X25745501Y-29788579D01*
X25745501Y-29611421D01*
X25739363Y-29572665D01*
X25737618Y-29561647D01*
X25736168Y-29552494D01*
X27449500Y-29552494D01*
X27449500Y-29847506D01*
X27456784Y-29902831D01*
X27488006Y-30139991D01*
X27564361Y-30424953D01*
X27677253Y-30697498D01*
X27677256Y-30697506D01*
X27805543Y-30919706D01*
X27824762Y-30952994D01*
X28004354Y-31187042D01*
X28212958Y-31395646D01*
X28447006Y-31575238D01*
X28702493Y-31722743D01*
X28975048Y-31835639D01*
X29260007Y-31911993D01*
X29552494Y-31950500D01*
X29552496Y-31950500D01*
X29847504Y-31950500D01*
X29847506Y-31950500D01*
X30139993Y-31911993D01*
X30424952Y-31835639D01*
X30533169Y-31790814D01*
X50204500Y-31790814D01*
X50204500Y-31929185D01*
X50240310Y-32062831D01*
X50240312Y-32062836D01*
X50309495Y-32182665D01*
X50407335Y-32280505D01*
X50527164Y-32349688D01*
X50660814Y-32385499D01*
X50660815Y-32385500D01*
X50660817Y-32385500D01*
X50799185Y-32385500D01*
X50799185Y-32385499D01*
X50932836Y-32349688D01*
X50952999Y-32338047D01*
X51009152Y-32330653D01*
X51027001Y-32338047D01*
X51047160Y-32349686D01*
X51047162Y-32349686D01*
X51047164Y-32349688D01*
X51047165Y-32349688D01*
X51047167Y-32349689D01*
X51113990Y-32367594D01*
X51180814Y-32385499D01*
X51180815Y-32385500D01*
X51180817Y-32385500D01*
X51319185Y-32385500D01*
X51319185Y-32385499D01*
X51452836Y-32349688D01*
X51572665Y-32280505D01*
X51670505Y-32182665D01*
X51739688Y-32062836D01*
X51775499Y-31929185D01*
X51775500Y-31929185D01*
X51775500Y-31810814D01*
X54124500Y-31810814D01*
X54124500Y-31949185D01*
X54160310Y-32082831D01*
X54160312Y-32082836D01*
X54229495Y-32202665D01*
X54327335Y-32300505D01*
X54447164Y-32369688D01*
X54580814Y-32405499D01*
X54580815Y-32405500D01*
X54580817Y-32405500D01*
X54719185Y-32405500D01*
X54719185Y-32405499D01*
X54852836Y-32369688D01*
X54972665Y-32300505D01*
X55070505Y-32202665D01*
X55139688Y-32082836D01*
X55175499Y-31949185D01*
X55175500Y-31949185D01*
X55175500Y-31810815D01*
X55175499Y-31810814D01*
X55170140Y-31790815D01*
X55139688Y-31677164D01*
X55070505Y-31557335D01*
X54972665Y-31459495D01*
X54852836Y-31390312D01*
X54852831Y-31390310D01*
X54719185Y-31354500D01*
X54719183Y-31354500D01*
X54580817Y-31354500D01*
X54580815Y-31354500D01*
X54447168Y-31390310D01*
X54447163Y-31390312D01*
X54327334Y-31459495D01*
X54229495Y-31557334D01*
X54160312Y-31677163D01*
X54160310Y-31677168D01*
X54124500Y-31810814D01*
X51775500Y-31810814D01*
X51775500Y-31790815D01*
X51775499Y-31790814D01*
X51765038Y-31751774D01*
X51739688Y-31657164D01*
X51670505Y-31537335D01*
X51572665Y-31439495D01*
X51452836Y-31370312D01*
X51452831Y-31370310D01*
X51319185Y-31334500D01*
X51319183Y-31334500D01*
X51180817Y-31334500D01*
X51180815Y-31334500D01*
X51047168Y-31370310D01*
X51047161Y-31370313D01*
X51026998Y-31381954D01*
X50970845Y-31389345D01*
X50953002Y-31381954D01*
X50932838Y-31370313D01*
X50932831Y-31370310D01*
X50799185Y-31334500D01*
X50799183Y-31334500D01*
X50660817Y-31334500D01*
X50660815Y-31334500D01*
X50527168Y-31370310D01*
X50527163Y-31370312D01*
X50407334Y-31439495D01*
X50309495Y-31537334D01*
X50240312Y-31657163D01*
X50240310Y-31657168D01*
X50204500Y-31790814D01*
X30533169Y-31790814D01*
X30697507Y-31722743D01*
X30952994Y-31575238D01*
X31187042Y-31395646D01*
X31395646Y-31187042D01*
X31418631Y-31157088D01*
X58550774Y-31157088D01*
X58550774Y-31295459D01*
X58586584Y-31429105D01*
X58586586Y-31429110D01*
X58655769Y-31548939D01*
X58753609Y-31646779D01*
X58873438Y-31715962D01*
X59007088Y-31751773D01*
X59007089Y-31751774D01*
X59007091Y-31751774D01*
X59145459Y-31751774D01*
X59145459Y-31751773D01*
X59279110Y-31715962D01*
X59398939Y-31646779D01*
X59496779Y-31548939D01*
X59565962Y-31429110D01*
X59601773Y-31295459D01*
X59601774Y-31295459D01*
X59601774Y-31157089D01*
X59601773Y-31157088D01*
X59586610Y-31100500D01*
X59565962Y-31023438D01*
X59496779Y-30903609D01*
X59398939Y-30805769D01*
X59279110Y-30736586D01*
X59279105Y-30736584D01*
X59145459Y-30700774D01*
X59145457Y-30700774D01*
X59007091Y-30700774D01*
X59007089Y-30700774D01*
X58873442Y-30736584D01*
X58873437Y-30736586D01*
X58753608Y-30805769D01*
X58655769Y-30903608D01*
X58586586Y-31023437D01*
X58586584Y-31023442D01*
X58550774Y-31157088D01*
X31418631Y-31157088D01*
X31575238Y-30952994D01*
X31722743Y-30697507D01*
X31835639Y-30424952D01*
X31911993Y-30139993D01*
X31950500Y-29847506D01*
X31950500Y-29611421D01*
X33654499Y-29611421D01*
X33654499Y-29788579D01*
X33679219Y-29944655D01*
X33682213Y-29963554D01*
X33682215Y-29963565D01*
X33736955Y-30132039D01*
X33736957Y-30132043D01*
X33817383Y-30289886D01*
X33817386Y-30289892D01*
X33879584Y-30375500D01*
X33921516Y-30433214D01*
X34046785Y-30558483D01*
X34046788Y-30558485D01*
X34046789Y-30558486D01*
X34164743Y-30644185D01*
X34190109Y-30662614D01*
X34342462Y-30740242D01*
X34347955Y-30743041D01*
X34347959Y-30743043D01*
X34516433Y-30797783D01*
X34516437Y-30797783D01*
X34516444Y-30797786D01*
X34667494Y-30821710D01*
X34691419Y-30825500D01*
X34691420Y-30825500D01*
X34868579Y-30825500D01*
X34889625Y-30822166D01*
X35043554Y-30797786D01*
X35043562Y-30797783D01*
X35043564Y-30797783D01*
X35212038Y-30743043D01*
X35212038Y-30743042D01*
X35212041Y-30743042D01*
X35369889Y-30662614D01*
X35513213Y-30558483D01*
X35638482Y-30433214D01*
X35742613Y-30289890D01*
X35823041Y-30132042D01*
X35868271Y-29992836D01*
X35877782Y-29963565D01*
X35877782Y-29963563D01*
X35877785Y-29963555D01*
X35905499Y-29788579D01*
X35905499Y-29611421D01*
X35903941Y-29601582D01*
X42649500Y-29601582D01*
X42649500Y-29798417D01*
X42680290Y-29992823D01*
X42680293Y-29992836D01*
X42741113Y-30180019D01*
X42830475Y-30355404D01*
X42944918Y-30512921D01*
X42946172Y-30514646D01*
X43085354Y-30653828D01*
X43244595Y-30769524D01*
X43419975Y-30858884D01*
X43419977Y-30858884D01*
X43419980Y-30858886D01*
X43607163Y-30919706D01*
X43607169Y-30919707D01*
X43607174Y-30919709D01*
X43706876Y-30935500D01*
X43801582Y-30950500D01*
X43801583Y-30950500D01*
X43998418Y-30950500D01*
X44047019Y-30942802D01*
X44192826Y-30919709D01*
X44192833Y-30919706D01*
X44192836Y-30919706D01*
X44380019Y-30858886D01*
X44380019Y-30858885D01*
X44380025Y-30858884D01*
X44555405Y-30769524D01*
X44714646Y-30653828D01*
X44853828Y-30514646D01*
X44969524Y-30355405D01*
X44976958Y-30340814D01*
X50314500Y-30340814D01*
X50314500Y-30479185D01*
X50350310Y-30612831D01*
X50350312Y-30612836D01*
X50419495Y-30732665D01*
X50517335Y-30830505D01*
X50637164Y-30899688D01*
X50770814Y-30935499D01*
X50770815Y-30935500D01*
X50770817Y-30935500D01*
X50909185Y-30935500D01*
X50909185Y-30935499D01*
X51042836Y-30899688D01*
X51047997Y-30896707D01*
X51104149Y-30889312D01*
X51121999Y-30896705D01*
X51127164Y-30899688D01*
X51127166Y-30899688D01*
X51127167Y-30899689D01*
X51141797Y-30903609D01*
X51260814Y-30935499D01*
X51260815Y-30935500D01*
X51260817Y-30935500D01*
X51399185Y-30935500D01*
X51399185Y-30935499D01*
X51532836Y-30899688D01*
X51652665Y-30830505D01*
X51750505Y-30732665D01*
X51819688Y-30612836D01*
X51837755Y-30545409D01*
X51848365Y-30505814D01*
X77274500Y-30505814D01*
X77274500Y-30644185D01*
X77310310Y-30777831D01*
X77310312Y-30777836D01*
X77379495Y-30897665D01*
X77477335Y-30995505D01*
X77597164Y-31064688D01*
X77730814Y-31100499D01*
X77730815Y-31100500D01*
X77730817Y-31100500D01*
X77869185Y-31100500D01*
X77869185Y-31100499D01*
X78002836Y-31064688D01*
X78122665Y-30995505D01*
X78220505Y-30897665D01*
X78289688Y-30777836D01*
X78325499Y-30644185D01*
X78325500Y-30644185D01*
X78325500Y-30505815D01*
X78325499Y-30505814D01*
X78306047Y-30433219D01*
X78289688Y-30372164D01*
X78220505Y-30252335D01*
X78122665Y-30154495D01*
X78002836Y-30085312D01*
X78002831Y-30085310D01*
X77869185Y-30049500D01*
X77869183Y-30049500D01*
X77730817Y-30049500D01*
X77730815Y-30049500D01*
X77597168Y-30085310D01*
X77597163Y-30085312D01*
X77477334Y-30154495D01*
X77379495Y-30252334D01*
X77310312Y-30372163D01*
X77310310Y-30372168D01*
X77274500Y-30505814D01*
X51848365Y-30505814D01*
X51854796Y-30481814D01*
X51855499Y-30479185D01*
X51855500Y-30479185D01*
X51855500Y-30340815D01*
X51855499Y-30340814D01*
X51819689Y-30207168D01*
X51819688Y-30207164D01*
X51750505Y-30087335D01*
X51652665Y-29989495D01*
X51532836Y-29920312D01*
X51532831Y-29920310D01*
X51399185Y-29884500D01*
X51399183Y-29884500D01*
X51260817Y-29884500D01*
X51260815Y-29884500D01*
X51127168Y-29920310D01*
X51127161Y-29920313D01*
X51121995Y-29923296D01*
X51065842Y-29930684D01*
X51048005Y-29923296D01*
X51042838Y-29920313D01*
X51042831Y-29920310D01*
X50909185Y-29884500D01*
X50909183Y-29884500D01*
X50770817Y-29884500D01*
X50770815Y-29884500D01*
X50637168Y-29920310D01*
X50637163Y-29920312D01*
X50517334Y-29989495D01*
X50419495Y-30087334D01*
X50350312Y-30207163D01*
X50350310Y-30207168D01*
X50314500Y-30340814D01*
X44976958Y-30340814D01*
X45058884Y-30180025D01*
X45082160Y-30108389D01*
X45119706Y-29992836D01*
X45119706Y-29992833D01*
X45119709Y-29992826D01*
X45150500Y-29798417D01*
X45150500Y-29601583D01*
X45142253Y-29549516D01*
X45138001Y-29522665D01*
X45119709Y-29407174D01*
X45119707Y-29407169D01*
X45119706Y-29407163D01*
X45058886Y-29219980D01*
X45058884Y-29219977D01*
X45058884Y-29219975D01*
X44969524Y-29044595D01*
X44893304Y-28939688D01*
X44853831Y-28885358D01*
X44853830Y-28885357D01*
X44853828Y-28885354D01*
X44714646Y-28746172D01*
X44714643Y-28746169D01*
X44714641Y-28746168D01*
X44693508Y-28730814D01*
X54174500Y-28730814D01*
X54174500Y-28869185D01*
X54210310Y-29002831D01*
X54210312Y-29002836D01*
X54279495Y-29122665D01*
X54377335Y-29220505D01*
X54497164Y-29289688D01*
X54630814Y-29325499D01*
X54630815Y-29325500D01*
X54630817Y-29325500D01*
X54769185Y-29325500D01*
X54769185Y-29325499D01*
X54902836Y-29289688D01*
X55022665Y-29220505D01*
X55120505Y-29122665D01*
X55189688Y-29002836D01*
X55225499Y-28869185D01*
X55225500Y-28869185D01*
X55225500Y-28730815D01*
X55225499Y-28730814D01*
X55218002Y-28702836D01*
X55189688Y-28597164D01*
X55120505Y-28477335D01*
X55022665Y-28379495D01*
X54902836Y-28310312D01*
X54902833Y-28310311D01*
X54902831Y-28310310D01*
X54792749Y-28280814D01*
X56624500Y-28280814D01*
X56624500Y-28419185D01*
X56660310Y-28552831D01*
X56660312Y-28552836D01*
X56729495Y-28672665D01*
X56827335Y-28770505D01*
X56947164Y-28839688D01*
X57080814Y-28875499D01*
X57080815Y-28875500D01*
X57080817Y-28875500D01*
X57219185Y-28875500D01*
X57219185Y-28875499D01*
X57352836Y-28839688D01*
X57438001Y-28790517D01*
X57494153Y-28783125D01*
X57511995Y-28790516D01*
X57597164Y-28839688D01*
X57730814Y-28875499D01*
X57730815Y-28875500D01*
X57730817Y-28875500D01*
X57869185Y-28875500D01*
X57869185Y-28875499D01*
X57886670Y-28870814D01*
X59114500Y-28870814D01*
X59114500Y-29009185D01*
X59150310Y-29142831D01*
X59150312Y-29142835D01*
X59150312Y-29142836D01*
X59219495Y-29262665D01*
X59317335Y-29360505D01*
X59437164Y-29429688D01*
X59570814Y-29465499D01*
X59570815Y-29465500D01*
X59570817Y-29465500D01*
X59709185Y-29465500D01*
X59709185Y-29465499D01*
X59842836Y-29429688D01*
X59962665Y-29360505D01*
X60060505Y-29262665D01*
X60107761Y-29180814D01*
X62454500Y-29180814D01*
X62454500Y-29319185D01*
X62490310Y-29452831D01*
X62490312Y-29452836D01*
X62559495Y-29572665D01*
X62657335Y-29670505D01*
X62777164Y-29739688D01*
X62910814Y-29775499D01*
X62910815Y-29775500D01*
X62910817Y-29775500D01*
X63049185Y-29775500D01*
X63049185Y-29775499D01*
X63182836Y-29739688D01*
X63302665Y-29670505D01*
X63400505Y-29572665D01*
X63469688Y-29452836D01*
X63505499Y-29319185D01*
X63505500Y-29319185D01*
X63505500Y-29180815D01*
X63505499Y-29180814D01*
X63498125Y-29153295D01*
X63469688Y-29047164D01*
X63400505Y-28927335D01*
X63302665Y-28829495D01*
X63182836Y-28760312D01*
X63182831Y-28760310D01*
X63049185Y-28724500D01*
X63049183Y-28724500D01*
X62910817Y-28724500D01*
X62910815Y-28724500D01*
X62777168Y-28760310D01*
X62777163Y-28760312D01*
X62657334Y-28829495D01*
X62559495Y-28927334D01*
X62490312Y-29047163D01*
X62490310Y-29047168D01*
X62454500Y-29180814D01*
X60107761Y-29180814D01*
X60129688Y-29142836D01*
X60165499Y-29009185D01*
X60165500Y-29009185D01*
X60165500Y-28870815D01*
X60165499Y-28870814D01*
X60154479Y-28829688D01*
X60129688Y-28737164D01*
X60060505Y-28617335D01*
X59962665Y-28519495D01*
X59842836Y-28450312D01*
X59842831Y-28450310D01*
X59709185Y-28414500D01*
X59709183Y-28414500D01*
X59570817Y-28414500D01*
X59570815Y-28414500D01*
X59437168Y-28450310D01*
X59437163Y-28450312D01*
X59317334Y-28519495D01*
X59219495Y-28617334D01*
X59150312Y-28737163D01*
X59150310Y-28737168D01*
X59114500Y-28870814D01*
X57886670Y-28870814D01*
X58002836Y-28839688D01*
X58122665Y-28770505D01*
X58220505Y-28672665D01*
X58289688Y-28552836D01*
X58325499Y-28419185D01*
X58325500Y-28419185D01*
X58325500Y-28280815D01*
X58325499Y-28280814D01*
X58306757Y-28210869D01*
X58289688Y-28147164D01*
X58240517Y-28061998D01*
X58233125Y-28005847D01*
X58240516Y-27988004D01*
X58289688Y-27902836D01*
X58325499Y-27769185D01*
X58325500Y-27769185D01*
X58325500Y-27630815D01*
X58325499Y-27630814D01*
X58323888Y-27624803D01*
X58289688Y-27497164D01*
X58220505Y-27377335D01*
X58122665Y-27279495D01*
X58002836Y-27210312D01*
X58002833Y-27210311D01*
X58002831Y-27210310D01*
X57892749Y-27180814D01*
X61724500Y-27180814D01*
X61724500Y-27319185D01*
X61760310Y-27452831D01*
X61760312Y-27452836D01*
X61829495Y-27572665D01*
X61927335Y-27670505D01*
X62047164Y-27739688D01*
X62180814Y-27775499D01*
X62180815Y-27775500D01*
X62180817Y-27775500D01*
X62319185Y-27775500D01*
X62319185Y-27775499D01*
X62452836Y-27739688D01*
X62572665Y-27670505D01*
X62670505Y-27572665D01*
X62685914Y-27545976D01*
X62730847Y-27511497D01*
X62786999Y-27518889D01*
X62814086Y-27545976D01*
X62828340Y-27570666D01*
X62829495Y-27572665D01*
X62927335Y-27670505D01*
X63047164Y-27739688D01*
X63180814Y-27775499D01*
X63180815Y-27775500D01*
X63180817Y-27775500D01*
X63319185Y-27775500D01*
X63319185Y-27775499D01*
X63452836Y-27739688D01*
X63572665Y-27670505D01*
X63633760Y-27609410D01*
X63686085Y-27587735D01*
X63738411Y-27609409D01*
X63757564Y-27642581D01*
X63760312Y-27652836D01*
X63829495Y-27772665D01*
X63927335Y-27870505D01*
X64047164Y-27939688D01*
X64180814Y-27975499D01*
X64180815Y-27975500D01*
X64180817Y-27975500D01*
X64319185Y-27975500D01*
X64319185Y-27975499D01*
X64412163Y-27950586D01*
X64468316Y-27957978D01*
X64502794Y-28002911D01*
X64495402Y-28059063D01*
X64450314Y-28137158D01*
X64450310Y-28137167D01*
X64434005Y-28198019D01*
X64399526Y-28242952D01*
X64381681Y-28250344D01*
X64307166Y-28270311D01*
X64307162Y-28270312D01*
X64187334Y-28339495D01*
X64089495Y-28437334D01*
X64020312Y-28557163D01*
X64020310Y-28557168D01*
X63984500Y-28690814D01*
X63984500Y-28829185D01*
X64020310Y-28962831D01*
X64020312Y-28962836D01*
X64089495Y-29082665D01*
X64187335Y-29180505D01*
X64307164Y-29249688D01*
X64440814Y-29285499D01*
X64440815Y-29285500D01*
X64440817Y-29285500D01*
X64579185Y-29285500D01*
X64579185Y-29285499D01*
X64712836Y-29249688D01*
X64832665Y-29180505D01*
X64930505Y-29082665D01*
X64999688Y-28962836D01*
X65015994Y-28901978D01*
X65022080Y-28894046D01*
X65023385Y-28884134D01*
X65038709Y-28872374D01*
X65050471Y-28857046D01*
X65068310Y-28849656D01*
X65070946Y-28848950D01*
X65127097Y-28856341D01*
X65161577Y-28901273D01*
X65161578Y-28939580D01*
X65130774Y-29054543D01*
X65130774Y-29192911D01*
X65166584Y-29326557D01*
X65166586Y-29326562D01*
X65235769Y-29446391D01*
X65333609Y-29544231D01*
X65453438Y-29613414D01*
X65469571Y-29617736D01*
X65576311Y-29646338D01*
X65621244Y-29680816D01*
X65628636Y-29698663D01*
X65661559Y-29821532D01*
X65661561Y-29821537D01*
X65730744Y-29941366D01*
X65828584Y-30039206D01*
X65948413Y-30108389D01*
X66082063Y-30144200D01*
X66082064Y-30144201D01*
X66082066Y-30144201D01*
X66220434Y-30144201D01*
X66220434Y-30144200D01*
X66354085Y-30108389D01*
X66473914Y-30039206D01*
X66571754Y-29941366D01*
X66640937Y-29821537D01*
X66676748Y-29687886D01*
X66676749Y-29687886D01*
X66676749Y-29549516D01*
X66676748Y-29549515D01*
X66665403Y-29507176D01*
X66640937Y-29415865D01*
X66571754Y-29296036D01*
X66473914Y-29198196D01*
X66354085Y-29129013D01*
X66354080Y-29129011D01*
X66231211Y-29096088D01*
X66186278Y-29061610D01*
X66178886Y-29043763D01*
X66145963Y-28920894D01*
X66145962Y-28920890D01*
X66076779Y-28801061D01*
X65978939Y-28703221D01*
X65859110Y-28634038D01*
X65859105Y-28634036D01*
X65725459Y-28598226D01*
X65725457Y-28598226D01*
X65587091Y-28598226D01*
X65587089Y-28598226D01*
X65525327Y-28614775D01*
X65506176Y-28612254D01*
X65487021Y-28614776D01*
X65479087Y-28608687D01*
X65469174Y-28607383D01*
X65457414Y-28592057D01*
X65442088Y-28580297D01*
X65440782Y-28570382D01*
X65434696Y-28562450D01*
X65434695Y-28524148D01*
X65442541Y-28494864D01*
X65477019Y-28449933D01*
X65494863Y-28442541D01*
X65542836Y-28429688D01*
X65627489Y-28380814D01*
X67154500Y-28380814D01*
X67154500Y-28519185D01*
X67190310Y-28652831D01*
X67190312Y-28652836D01*
X67259495Y-28772665D01*
X67357335Y-28870505D01*
X67477164Y-28939688D01*
X67610814Y-28975499D01*
X67610815Y-28975500D01*
X67610817Y-28975500D01*
X67749185Y-28975500D01*
X67749185Y-28975499D01*
X67882836Y-28939688D01*
X68002665Y-28870505D01*
X68100505Y-28772665D01*
X68169688Y-28652836D01*
X68205499Y-28519185D01*
X68205500Y-28519185D01*
X68205500Y-28380815D01*
X68205499Y-28380814D01*
X68554500Y-28380814D01*
X68554500Y-28519185D01*
X68590310Y-28652831D01*
X68590312Y-28652836D01*
X68652474Y-28760505D01*
X68653915Y-28763000D01*
X68661307Y-28819153D01*
X68653915Y-28837000D01*
X68590312Y-28947163D01*
X68590310Y-28947168D01*
X68554500Y-29080814D01*
X68554500Y-29219185D01*
X68590310Y-29352831D01*
X68590312Y-29352836D01*
X68638583Y-29436445D01*
X68653915Y-29463000D01*
X68661307Y-29519153D01*
X68653915Y-29537000D01*
X68590312Y-29647163D01*
X68590310Y-29647168D01*
X68554500Y-29780814D01*
X68554500Y-29919185D01*
X68590310Y-30052831D01*
X68590312Y-30052836D01*
X68659495Y-30172665D01*
X68757335Y-30270505D01*
X68877164Y-30339688D01*
X69010814Y-30375499D01*
X69010815Y-30375500D01*
X69010817Y-30375500D01*
X69149185Y-30375500D01*
X69149185Y-30375499D01*
X69282836Y-30339688D01*
X69402665Y-30270505D01*
X69500505Y-30172665D01*
X69569688Y-30052836D01*
X69605499Y-29919185D01*
X69605500Y-29919185D01*
X69605500Y-29780815D01*
X69605499Y-29780814D01*
X69594479Y-29739688D01*
X69569688Y-29647164D01*
X69566026Y-29640822D01*
X74599585Y-29640822D01*
X74599585Y-29779193D01*
X74635395Y-29912839D01*
X74635397Y-29912844D01*
X74704580Y-30032673D01*
X74802420Y-30130513D01*
X74922249Y-30199696D01*
X75055899Y-30235507D01*
X75055900Y-30235508D01*
X75055902Y-30235508D01*
X75194270Y-30235508D01*
X75194270Y-30235507D01*
X75327921Y-30199696D01*
X75384208Y-30167198D01*
X75440361Y-30159804D01*
X75458205Y-30167195D01*
X75497164Y-30189688D01*
X75497166Y-30189688D01*
X75497167Y-30189689D01*
X75534518Y-30199697D01*
X75630814Y-30225499D01*
X75630815Y-30225500D01*
X75630817Y-30225500D01*
X75769185Y-30225500D01*
X75769185Y-30225499D01*
X75902836Y-30189688D01*
X76022665Y-30120505D01*
X76120505Y-30022665D01*
X76189688Y-29902836D01*
X76225499Y-29769185D01*
X76225500Y-29769185D01*
X76225500Y-29630815D01*
X76225499Y-29630814D01*
X76222736Y-29620504D01*
X76189688Y-29497164D01*
X76120505Y-29377335D01*
X76022665Y-29279495D01*
X75902836Y-29210312D01*
X75902831Y-29210310D01*
X75769185Y-29174500D01*
X75769183Y-29174500D01*
X75630817Y-29174500D01*
X75630815Y-29174500D01*
X75497168Y-29210310D01*
X75497159Y-29210314D01*
X75440874Y-29242810D01*
X75384722Y-29250202D01*
X75366875Y-29242810D01*
X75327925Y-29220322D01*
X75327916Y-29220318D01*
X75194270Y-29184508D01*
X75194268Y-29184508D01*
X75055902Y-29184508D01*
X75055900Y-29184508D01*
X74922253Y-29220318D01*
X74922248Y-29220320D01*
X74802419Y-29289503D01*
X74704580Y-29387342D01*
X74635397Y-29507171D01*
X74635395Y-29507176D01*
X74599585Y-29640822D01*
X69566026Y-29640822D01*
X69506083Y-29536997D01*
X69498691Y-29480848D01*
X69506081Y-29463006D01*
X69569688Y-29352836D01*
X69605499Y-29219185D01*
X69605500Y-29219185D01*
X69605500Y-29080815D01*
X69605499Y-29080814D01*
X69600353Y-29061610D01*
X69569688Y-28947164D01*
X69506083Y-28836997D01*
X69498691Y-28780848D01*
X69506081Y-28763006D01*
X69569688Y-28652836D01*
X69605499Y-28519185D01*
X69605500Y-28519185D01*
X69605500Y-28430814D01*
X77304500Y-28430814D01*
X77304500Y-28569185D01*
X77340310Y-28702831D01*
X77340312Y-28702836D01*
X77409495Y-28822665D01*
X77507335Y-28920505D01*
X77627164Y-28989688D01*
X77760814Y-29025499D01*
X77760815Y-29025500D01*
X77760817Y-29025500D01*
X77899185Y-29025500D01*
X77899185Y-29025499D01*
X78032836Y-28989688D01*
X78113000Y-28943404D01*
X78169152Y-28936012D01*
X78187000Y-28943405D01*
X78220646Y-28962831D01*
X78267164Y-28989688D01*
X78267165Y-28989688D01*
X78267167Y-28989689D01*
X78316233Y-29002836D01*
X78400814Y-29025499D01*
X78400815Y-29025500D01*
X78400817Y-29025500D01*
X78539185Y-29025500D01*
X78539185Y-29025499D01*
X78672836Y-28989688D01*
X78792665Y-28920505D01*
X78890505Y-28822665D01*
X78959688Y-28702836D01*
X78995499Y-28569185D01*
X78995500Y-28569185D01*
X78995500Y-28430815D01*
X78995499Y-28430814D01*
X78982102Y-28380817D01*
X78959688Y-28297164D01*
X78909866Y-28210869D01*
X78902474Y-28154716D01*
X78918389Y-28127156D01*
X78917552Y-28126514D01*
X78920503Y-28122667D01*
X78920505Y-28122665D01*
X78989688Y-28002836D01*
X79025499Y-27869185D01*
X79025500Y-27869185D01*
X79025500Y-27730815D01*
X79025499Y-27730814D01*
X79017376Y-27700500D01*
X78989688Y-27597164D01*
X78920505Y-27477335D01*
X78822665Y-27379495D01*
X78702836Y-27310312D01*
X78702831Y-27310310D01*
X78569185Y-27274500D01*
X78569183Y-27274500D01*
X78430817Y-27274500D01*
X78430815Y-27274500D01*
X78297168Y-27310310D01*
X78297163Y-27310312D01*
X78177334Y-27379495D01*
X78079495Y-27477334D01*
X78010312Y-27597163D01*
X78010310Y-27597168D01*
X77974500Y-27730814D01*
X77974500Y-27869185D01*
X77977841Y-27881656D01*
X77970447Y-27937808D01*
X77925512Y-27972285D01*
X77904033Y-27973695D01*
X77904033Y-27974500D01*
X77760815Y-27974500D01*
X77627168Y-28010310D01*
X77627163Y-28010312D01*
X77507334Y-28079495D01*
X77409495Y-28177334D01*
X77340312Y-28297163D01*
X77340310Y-28297168D01*
X77304500Y-28430814D01*
X69605500Y-28430814D01*
X69605500Y-28380815D01*
X69605499Y-28380814D01*
X69591744Y-28329481D01*
X69569688Y-28247164D01*
X69500505Y-28127335D01*
X69402665Y-28029495D01*
X69282836Y-27960312D01*
X69282831Y-27960310D01*
X69149185Y-27924500D01*
X69149183Y-27924500D01*
X69010817Y-27924500D01*
X69010815Y-27924500D01*
X68877168Y-27960310D01*
X68877163Y-27960312D01*
X68757334Y-28029495D01*
X68659495Y-28127334D01*
X68590312Y-28247163D01*
X68590310Y-28247168D01*
X68554500Y-28380814D01*
X68205499Y-28380814D01*
X68191744Y-28329481D01*
X68169688Y-28247164D01*
X68100505Y-28127335D01*
X68002665Y-28029495D01*
X67882836Y-27960312D01*
X67882831Y-27960310D01*
X67749185Y-27924500D01*
X67749183Y-27924500D01*
X67610817Y-27924500D01*
X67610815Y-27924500D01*
X67477168Y-27960310D01*
X67477163Y-27960312D01*
X67357334Y-28029495D01*
X67259495Y-28127334D01*
X67190312Y-28247163D01*
X67190310Y-28247168D01*
X67154500Y-28380814D01*
X65627489Y-28380814D01*
X65662665Y-28360505D01*
X65760505Y-28262665D01*
X65829688Y-28142836D01*
X65865499Y-28009185D01*
X65865500Y-28009185D01*
X65865500Y-27870815D01*
X65865499Y-27870814D01*
X65862684Y-27860310D01*
X65829688Y-27737164D01*
X65760505Y-27617335D01*
X65662665Y-27519495D01*
X65542836Y-27450312D01*
X65542831Y-27450310D01*
X65409185Y-27414500D01*
X65409183Y-27414500D01*
X65270817Y-27414500D01*
X65270815Y-27414500D01*
X65137168Y-27450310D01*
X65137163Y-27450312D01*
X65017334Y-27519495D01*
X64919495Y-27617334D01*
X64882763Y-27680956D01*
X64837829Y-27715435D01*
X64781677Y-27708042D01*
X64747198Y-27663108D01*
X64747199Y-27624803D01*
X64748278Y-27620776D01*
X64775499Y-27519185D01*
X64775500Y-27519185D01*
X64775500Y-27380815D01*
X64775499Y-27380814D01*
X64772736Y-27370504D01*
X64739688Y-27247164D01*
X64670505Y-27127335D01*
X64572665Y-27029495D01*
X64452836Y-26960312D01*
X64452831Y-26960310D01*
X64319185Y-26924500D01*
X64319183Y-26924500D01*
X64180817Y-26924500D01*
X64180815Y-26924500D01*
X64047168Y-26960310D01*
X64047163Y-26960312D01*
X63927332Y-27029496D01*
X63866238Y-27090590D01*
X63813912Y-27112264D01*
X63761587Y-27090589D01*
X63742435Y-27057417D01*
X63739688Y-27047164D01*
X63670505Y-26927335D01*
X63572665Y-26829495D01*
X63452836Y-26760312D01*
X63452831Y-26760310D01*
X63319185Y-26724500D01*
X63319183Y-26724500D01*
X63180817Y-26724500D01*
X63180815Y-26724500D01*
X63047168Y-26760310D01*
X63047163Y-26760312D01*
X62927334Y-26829495D01*
X62829495Y-26927334D01*
X62814086Y-26954024D01*
X62769152Y-26988503D01*
X62713000Y-26981110D01*
X62685914Y-26954024D01*
X62681555Y-26946475D01*
X62670505Y-26927335D01*
X62572665Y-26829495D01*
X62452836Y-26760312D01*
X62452831Y-26760310D01*
X62319185Y-26724500D01*
X62319183Y-26724500D01*
X62180817Y-26724500D01*
X62180815Y-26724500D01*
X62047168Y-26760310D01*
X62047163Y-26760312D01*
X61927334Y-26829495D01*
X61829495Y-26927334D01*
X61760312Y-27047163D01*
X61760310Y-27047168D01*
X61724500Y-27180814D01*
X57892749Y-27180814D01*
X57869185Y-27174500D01*
X57869183Y-27174500D01*
X57730817Y-27174500D01*
X57730815Y-27174500D01*
X57597168Y-27210310D01*
X57597163Y-27210312D01*
X57477334Y-27279495D01*
X57379495Y-27377334D01*
X57310312Y-27497163D01*
X57310310Y-27497168D01*
X57274500Y-27630814D01*
X57274500Y-27750500D01*
X57252826Y-27802826D01*
X57200500Y-27824500D01*
X57080815Y-27824500D01*
X56947168Y-27860310D01*
X56947163Y-27860312D01*
X56827334Y-27929495D01*
X56729495Y-28027334D01*
X56660312Y-28147163D01*
X56660310Y-28147168D01*
X56624500Y-28280814D01*
X54792749Y-28280814D01*
X54769185Y-28274500D01*
X54769183Y-28274500D01*
X54630817Y-28274500D01*
X54630815Y-28274500D01*
X54497168Y-28310310D01*
X54497163Y-28310312D01*
X54377334Y-28379495D01*
X54279495Y-28477334D01*
X54210312Y-28597163D01*
X54210310Y-28597168D01*
X54174500Y-28730814D01*
X44693508Y-28730814D01*
X44555404Y-28630475D01*
X44380019Y-28541113D01*
X44192836Y-28480293D01*
X44192823Y-28480290D01*
X43998418Y-28449500D01*
X43998417Y-28449500D01*
X43801583Y-28449500D01*
X43801582Y-28449500D01*
X43607176Y-28480290D01*
X43607163Y-28480293D01*
X43419980Y-28541113D01*
X43244595Y-28630475D01*
X43085358Y-28746168D01*
X42946168Y-28885358D01*
X42830475Y-29044595D01*
X42741113Y-29219980D01*
X42680293Y-29407163D01*
X42680290Y-29407176D01*
X42649500Y-29601582D01*
X35903941Y-29601582D01*
X35877785Y-29436445D01*
X35877783Y-29436440D01*
X35877782Y-29436434D01*
X35823042Y-29267960D01*
X35823040Y-29267956D01*
X35778639Y-29180815D01*
X35742613Y-29110110D01*
X35732425Y-29096088D01*
X35638485Y-28966790D01*
X35638484Y-28966789D01*
X35638482Y-28966786D01*
X35513213Y-28841517D01*
X35513210Y-28841514D01*
X35513208Y-28841513D01*
X35369891Y-28737387D01*
X35369885Y-28737384D01*
X35212042Y-28656958D01*
X35212038Y-28656956D01*
X35043564Y-28602216D01*
X35043555Y-28602214D01*
X35043554Y-28602214D01*
X34956066Y-28588357D01*
X34868579Y-28574500D01*
X34868578Y-28574500D01*
X34691420Y-28574500D01*
X34691419Y-28574500D01*
X34516444Y-28602214D01*
X34516433Y-28602216D01*
X34347959Y-28656956D01*
X34347955Y-28656958D01*
X34190112Y-28737384D01*
X34190106Y-28737387D01*
X34046789Y-28841513D01*
X33921512Y-28966790D01*
X33817386Y-29110107D01*
X33817383Y-29110113D01*
X33736957Y-29267956D01*
X33736955Y-29267960D01*
X33682215Y-29436434D01*
X33682213Y-29436445D01*
X33662383Y-29561647D01*
X33654499Y-29611421D01*
X31950500Y-29611421D01*
X31950500Y-29552494D01*
X31911993Y-29260007D01*
X31835639Y-28975048D01*
X31722743Y-28702493D01*
X31575238Y-28447006D01*
X31395646Y-28212958D01*
X31187042Y-28004354D01*
X30952994Y-27824762D01*
X30949658Y-27822836D01*
X30697506Y-27677256D01*
X30697498Y-27677253D01*
X30424953Y-27564361D01*
X30139991Y-27488006D01*
X29924518Y-27459638D01*
X29847506Y-27449500D01*
X29552494Y-27449500D01*
X29484441Y-27458459D01*
X29260008Y-27488006D01*
X28975046Y-27564361D01*
X28702501Y-27677253D01*
X28702493Y-27677256D01*
X28447010Y-27824759D01*
X28447006Y-27824761D01*
X28447006Y-27824762D01*
X28214937Y-28002836D01*
X28212953Y-28004358D01*
X28004358Y-28212953D01*
X28004354Y-28212957D01*
X28004354Y-28212958D01*
X27906830Y-28340053D01*
X27824759Y-28447010D01*
X27677256Y-28702493D01*
X27677253Y-28702501D01*
X27564361Y-28975046D01*
X27488006Y-29260008D01*
X27456784Y-29497164D01*
X27449500Y-29552494D01*
X25736168Y-29552494D01*
X25727404Y-29497163D01*
X25717787Y-29436445D01*
X25717784Y-29436438D01*
X25717784Y-29436434D01*
X25692094Y-29357367D01*
X25696538Y-29300904D01*
X25739605Y-29264122D01*
X25762472Y-29260500D01*
X26027672Y-29260500D01*
X26027674Y-29260500D01*
X26300666Y-29224560D01*
X26566632Y-29153295D01*
X26821021Y-29047923D01*
X27059479Y-28910249D01*
X27225151Y-28783125D01*
X27277922Y-28742633D01*
X27277923Y-28742631D01*
X27277928Y-28742628D01*
X27472628Y-28547928D01*
X27476536Y-28542836D01*
X27562490Y-28430817D01*
X27640249Y-28329479D01*
X27777923Y-28091021D01*
X27883295Y-27836632D01*
X27954560Y-27570666D01*
X27990500Y-27297674D01*
X27990500Y-27022326D01*
X27978478Y-26931008D01*
X40299500Y-26931008D01*
X40299500Y-27068991D01*
X40326418Y-27204322D01*
X40326421Y-27204332D01*
X40379223Y-27331808D01*
X40451305Y-27439687D01*
X40455886Y-27446542D01*
X40553458Y-27544114D01*
X40668189Y-27620775D01*
X40668190Y-27620775D01*
X40668191Y-27620776D01*
X40745591Y-27652836D01*
X40795672Y-27673580D01*
X40931007Y-27700500D01*
X40931009Y-27700500D01*
X41068991Y-27700500D01*
X41068993Y-27700500D01*
X41204328Y-27673580D01*
X41331811Y-27620775D01*
X41446542Y-27544114D01*
X41544114Y-27446542D01*
X41620775Y-27331811D01*
X41673580Y-27204328D01*
X41700500Y-27068993D01*
X41700500Y-27030814D01*
X50974500Y-27030814D01*
X50974500Y-27169185D01*
X51010310Y-27302831D01*
X51010311Y-27302833D01*
X51010312Y-27302836D01*
X51019750Y-27319183D01*
X51026954Y-27331661D01*
X51034345Y-27387814D01*
X51026955Y-27405656D01*
X51020314Y-27417159D01*
X51020310Y-27417168D01*
X50984500Y-27550814D01*
X50984500Y-27689185D01*
X51020310Y-27822831D01*
X51020312Y-27822836D01*
X51089495Y-27942665D01*
X51187335Y-28040505D01*
X51307164Y-28109688D01*
X51440814Y-28145499D01*
X51440815Y-28145500D01*
X51440817Y-28145500D01*
X51579185Y-28145500D01*
X51579185Y-28145499D01*
X51712836Y-28109688D01*
X51832665Y-28040505D01*
X51930505Y-27942665D01*
X51999688Y-27822836D01*
X52035500Y-27689183D01*
X52035500Y-27689177D01*
X52036133Y-27684376D01*
X52038255Y-27684655D01*
X52057174Y-27638981D01*
X52090345Y-27619829D01*
X52202836Y-27589688D01*
X52322665Y-27520505D01*
X52420505Y-27422665D01*
X52489688Y-27302836D01*
X52525499Y-27169185D01*
X52525500Y-27169185D01*
X52525500Y-27030815D01*
X52525499Y-27030814D01*
X52514479Y-26989688D01*
X52489688Y-26897164D01*
X52420505Y-26777335D01*
X52322665Y-26679495D01*
X52202836Y-26610312D01*
X52202831Y-26610310D01*
X52069185Y-26574500D01*
X52069183Y-26574500D01*
X51930817Y-26574500D01*
X51930815Y-26574500D01*
X51797168Y-26610310D01*
X51797161Y-26610313D01*
X51786998Y-26616181D01*
X51730845Y-26623572D01*
X51713002Y-26616181D01*
X51702838Y-26610313D01*
X51702831Y-26610310D01*
X51569185Y-26574500D01*
X51569183Y-26574500D01*
X51430817Y-26574500D01*
X51430815Y-26574500D01*
X51297168Y-26610310D01*
X51297163Y-26610312D01*
X51177334Y-26679495D01*
X51079495Y-26777334D01*
X51010312Y-26897163D01*
X51010310Y-26897168D01*
X50974500Y-27030814D01*
X41700500Y-27030814D01*
X41700500Y-26931007D01*
X41673580Y-26795672D01*
X41659795Y-26762391D01*
X41620776Y-26668191D01*
X41616353Y-26661572D01*
X41544114Y-26553458D01*
X41446542Y-26455886D01*
X41409019Y-26430814D01*
X41331808Y-26379223D01*
X41204332Y-26326421D01*
X41204322Y-26326418D01*
X41113694Y-26308391D01*
X41068993Y-26299500D01*
X40931007Y-26299500D01*
X40892642Y-26307131D01*
X40795677Y-26326418D01*
X40795667Y-26326421D01*
X40668191Y-26379223D01*
X40553461Y-26455883D01*
X40455883Y-26553461D01*
X40379223Y-26668191D01*
X40326421Y-26795667D01*
X40326418Y-26795677D01*
X40306232Y-26897163D01*
X40300231Y-26927335D01*
X40299500Y-26931008D01*
X27978478Y-26931008D01*
X27954560Y-26749334D01*
X27883295Y-26483368D01*
X27777923Y-26228979D01*
X27748106Y-26177334D01*
X27640251Y-25990524D01*
X27640247Y-25990518D01*
X27472633Y-25772077D01*
X27277922Y-25577366D01*
X27059481Y-25409752D01*
X27059475Y-25409748D01*
X26821020Y-25272076D01*
X26821017Y-25272075D01*
X26566631Y-25166704D01*
X26300664Y-25095439D01*
X26099552Y-25068962D01*
X26027674Y-25059500D01*
X25752326Y-25059500D01*
X25688810Y-25067862D01*
X25479335Y-25095439D01*
X25213368Y-25166704D01*
X24958982Y-25272075D01*
X24958979Y-25272076D01*
X24720524Y-25409748D01*
X24720518Y-25409752D01*
X24502077Y-25577366D01*
X24307366Y-25772077D01*
X24139752Y-25990518D01*
X24139748Y-25990524D01*
X24002076Y-26228979D01*
X24002075Y-26228982D01*
X23896704Y-26483368D01*
X23825439Y-26749335D01*
X23797664Y-26960312D01*
X23789500Y-27022326D01*
X23789500Y-27297674D01*
X23793994Y-27331808D01*
X23825439Y-27570664D01*
X23896704Y-27836631D01*
X24002075Y-28091017D01*
X24002076Y-28091020D01*
X24139748Y-28329475D01*
X24139752Y-28329481D01*
X24286765Y-28521073D01*
X24301424Y-28575780D01*
X24273105Y-28624829D01*
X24250924Y-28636499D01*
X24187962Y-28656956D01*
X24187957Y-28656958D01*
X24030114Y-28737384D01*
X24030108Y-28737387D01*
X23886791Y-28841513D01*
X23761514Y-28966790D01*
X23657388Y-29110107D01*
X23657385Y-29110113D01*
X23576959Y-29267956D01*
X23576957Y-29267960D01*
X23522217Y-29436434D01*
X23522215Y-29436445D01*
X23502385Y-29561647D01*
X23494501Y-29611421D01*
X20200500Y-29611421D01*
X20200500Y-24430814D01*
X22574500Y-24430814D01*
X22574500Y-24569185D01*
X22610310Y-24702831D01*
X22610312Y-24702836D01*
X22679495Y-24822665D01*
X22777335Y-24920505D01*
X22897164Y-24989688D01*
X23030814Y-25025499D01*
X23030815Y-25025500D01*
X23030817Y-25025500D01*
X23169185Y-25025500D01*
X23169185Y-25025499D01*
X23302836Y-24989688D01*
X23422665Y-24920505D01*
X23520505Y-24822665D01*
X23589688Y-24702836D01*
X23625499Y-24569185D01*
X23625500Y-24569185D01*
X23625500Y-24469251D01*
X29940000Y-24469251D01*
X29940000Y-24770748D01*
X29979352Y-25069663D01*
X30057385Y-25360889D01*
X30057389Y-25360900D01*
X30172763Y-25639438D01*
X30172766Y-25639446D01*
X30323518Y-25900556D01*
X30446116Y-26060327D01*
X30999441Y-25507002D01*
X31076795Y-25613471D01*
X31246529Y-25783205D01*
X31352995Y-25860557D01*
X30799671Y-26413882D01*
X30959447Y-26536483D01*
X31220553Y-26687233D01*
X31220561Y-26687236D01*
X31499099Y-26802610D01*
X31499110Y-26802614D01*
X31790336Y-26880647D01*
X31790335Y-26880647D01*
X32089252Y-26920000D01*
X32390748Y-26920000D01*
X32689664Y-26880647D01*
X32782049Y-26855893D01*
X32980889Y-26802614D01*
X32980900Y-26802610D01*
X33259438Y-26687236D01*
X33259446Y-26687233D01*
X33520552Y-26536483D01*
X33680327Y-26413882D01*
X33127003Y-25860558D01*
X33233471Y-25783205D01*
X33403205Y-25613471D01*
X33480558Y-25507003D01*
X34033882Y-26060327D01*
X34156282Y-25900814D01*
X49304500Y-25900814D01*
X49304500Y-26039185D01*
X49340310Y-26172831D01*
X49340312Y-26172836D01*
X49409495Y-26292665D01*
X49507335Y-26390505D01*
X49627164Y-26459688D01*
X49760814Y-26495499D01*
X49760815Y-26495500D01*
X49760817Y-26495500D01*
X49899185Y-26495500D01*
X49899185Y-26495499D01*
X50032836Y-26459688D01*
X50152665Y-26390505D01*
X50250505Y-26292665D01*
X50319688Y-26172836D01*
X50355499Y-26039185D01*
X50355500Y-26039185D01*
X50355500Y-25900815D01*
X50355499Y-25900814D01*
X50320229Y-25769185D01*
X50319688Y-25767164D01*
X50250505Y-25647335D01*
X50152665Y-25549495D01*
X50032836Y-25480312D01*
X50032831Y-25480310D01*
X49899185Y-25444500D01*
X49899183Y-25444500D01*
X49760817Y-25444500D01*
X49760815Y-25444500D01*
X49627168Y-25480310D01*
X49627163Y-25480312D01*
X49507334Y-25549495D01*
X49409495Y-25647334D01*
X49340312Y-25767163D01*
X49340310Y-25767168D01*
X49304500Y-25900814D01*
X34156282Y-25900814D01*
X34156483Y-25900552D01*
X34180493Y-25858967D01*
X34307233Y-25639446D01*
X34307236Y-25639438D01*
X34422610Y-25360900D01*
X34422614Y-25360889D01*
X34500647Y-25069663D01*
X34540000Y-24770748D01*
X34540000Y-24469251D01*
X34500647Y-24170336D01*
X34422614Y-23879110D01*
X34422610Y-23879099D01*
X34307236Y-23600561D01*
X34307233Y-23600553D01*
X34156483Y-23339447D01*
X34033882Y-23179671D01*
X33480557Y-23732995D01*
X33403205Y-23626529D01*
X33233471Y-23456795D01*
X33127002Y-23379441D01*
X33680327Y-22826116D01*
X33680327Y-22826115D01*
X33520556Y-22703518D01*
X33259446Y-22552766D01*
X33259438Y-22552763D01*
X33223109Y-22537715D01*
X32980900Y-22437389D01*
X32980889Y-22437385D01*
X32689663Y-22359352D01*
X32689664Y-22359352D01*
X32390748Y-22320000D01*
X32089252Y-22320000D01*
X31790336Y-22359352D01*
X31499110Y-22437385D01*
X31499099Y-22437389D01*
X31220561Y-22552763D01*
X31220553Y-22552766D01*
X30959450Y-22703514D01*
X30959444Y-22703518D01*
X30799671Y-22826116D01*
X31352996Y-23379441D01*
X31246529Y-23456795D01*
X31076795Y-23626529D01*
X30999441Y-23732996D01*
X30446116Y-23179671D01*
X30323518Y-23339444D01*
X30323514Y-23339450D01*
X30172766Y-23600553D01*
X30172763Y-23600561D01*
X30057389Y-23879099D01*
X30057385Y-23879110D01*
X29979352Y-24170336D01*
X29940000Y-24469251D01*
X23625500Y-24469251D01*
X23625500Y-24430815D01*
X23625499Y-24430814D01*
X23589689Y-24297168D01*
X23589688Y-24297164D01*
X23520505Y-24177335D01*
X23422665Y-24079495D01*
X23302836Y-24010312D01*
X23302831Y-24010310D01*
X23169185Y-23974500D01*
X23169183Y-23974500D01*
X23030817Y-23974500D01*
X23030815Y-23974500D01*
X22897168Y-24010310D01*
X22897163Y-24010312D01*
X22777334Y-24079495D01*
X22679495Y-24177334D01*
X22610312Y-24297163D01*
X22610310Y-24297168D01*
X22574500Y-24430814D01*
X20200500Y-24430814D01*
X20200500Y-22067067D01*
X20222174Y-22014741D01*
X20274500Y-21993067D01*
X20310728Y-22002543D01*
X20382490Y-22042843D01*
X20402774Y-22050000D01*
X20586733Y-22114910D01*
X20586737Y-22114910D01*
X20586741Y-22114912D01*
X20800331Y-22150856D01*
X21016920Y-22149609D01*
X21016929Y-22149607D01*
X21016932Y-22149607D01*
X21083016Y-22137701D01*
X21230081Y-22111206D01*
X21433488Y-22036789D01*
X21621105Y-21928566D01*
X21787363Y-21789747D01*
X21927329Y-21624454D01*
X21956300Y-21575024D01*
X41800001Y-21575024D01*
X41800001Y-22000000D01*
X42619671Y-22000000D01*
X42599926Y-22019745D01*
X42550557Y-22105255D01*
X42525001Y-22200630D01*
X42525001Y-22299370D01*
X42550557Y-22394745D01*
X42599926Y-22480255D01*
X42619671Y-22500000D01*
X41800002Y-22500000D01*
X41800002Y-22924976D01*
X41810495Y-23027696D01*
X41865643Y-23194121D01*
X41957684Y-23343343D01*
X41957687Y-23343347D01*
X42081654Y-23467314D01*
X42081657Y-23467316D01*
X42230879Y-23559357D01*
X42397303Y-23614505D01*
X42500026Y-23624999D01*
X42650001Y-23624999D01*
X42650001Y-22530330D01*
X42669746Y-22550075D01*
X42755256Y-22599444D01*
X42850631Y-22625000D01*
X42949371Y-22625000D01*
X43044746Y-22599444D01*
X43130256Y-22550075D01*
X43150001Y-22530330D01*
X43150001Y-23624999D01*
X43299972Y-23624999D01*
X43299977Y-23624998D01*
X43402697Y-23614505D01*
X43569122Y-23559357D01*
X43718344Y-23467316D01*
X43718348Y-23467314D01*
X43842315Y-23343347D01*
X43842317Y-23343343D01*
X43934358Y-23194121D01*
X43989506Y-23027696D01*
X43990272Y-23020203D01*
X44017151Y-22970350D01*
X44071408Y-22954105D01*
X44121261Y-22980984D01*
X44125412Y-22986603D01*
X44159087Y-23036999D01*
X44199290Y-23097168D01*
X44200538Y-23099035D01*
X44325967Y-23224464D01*
X44473455Y-23323013D01*
X44473456Y-23323013D01*
X44473457Y-23323014D01*
X44513138Y-23339450D01*
X44637336Y-23390894D01*
X44811311Y-23425500D01*
X44811313Y-23425500D01*
X44988691Y-23425500D01*
X44988693Y-23425500D01*
X45162668Y-23390894D01*
X45326549Y-23323013D01*
X45427119Y-23255814D01*
X53074500Y-23255814D01*
X53074500Y-23394185D01*
X53110310Y-23527831D01*
X53110312Y-23527836D01*
X53179495Y-23647665D01*
X53277335Y-23745505D01*
X53397164Y-23814688D01*
X53530814Y-23850499D01*
X53530815Y-23850500D01*
X53530817Y-23850500D01*
X53669185Y-23850500D01*
X53669185Y-23850499D01*
X53802836Y-23814688D01*
X53922665Y-23745505D01*
X54020505Y-23647665D01*
X54089688Y-23527836D01*
X54125499Y-23394185D01*
X54125500Y-23394185D01*
X54125500Y-23255815D01*
X54125499Y-23255814D01*
X54124768Y-23253087D01*
X54089688Y-23122164D01*
X54020505Y-23002335D01*
X53922665Y-22904495D01*
X53802836Y-22835312D01*
X53802831Y-22835310D01*
X53669185Y-22799500D01*
X53669183Y-22799500D01*
X53530817Y-22799500D01*
X53530815Y-22799500D01*
X53397168Y-22835310D01*
X53397163Y-22835312D01*
X53277334Y-22904495D01*
X53179495Y-23002334D01*
X53110312Y-23122163D01*
X53110310Y-23122168D01*
X53074500Y-23255814D01*
X45427119Y-23255814D01*
X45474037Y-23224464D01*
X45599466Y-23099035D01*
X45698015Y-22951547D01*
X45765896Y-22787666D01*
X45800502Y-22613691D01*
X45800502Y-21930814D01*
X49274500Y-21930814D01*
X49274500Y-22069185D01*
X49310310Y-22202831D01*
X49310312Y-22202836D01*
X49379495Y-22322665D01*
X49477335Y-22420505D01*
X49597164Y-22489688D01*
X49730814Y-22525499D01*
X49730815Y-22525500D01*
X49730817Y-22525500D01*
X49869185Y-22525500D01*
X49869185Y-22525499D01*
X50002836Y-22489688D01*
X50122665Y-22420505D01*
X50220505Y-22322665D01*
X50289688Y-22202836D01*
X50325499Y-22069185D01*
X50325500Y-22069185D01*
X50325500Y-21930815D01*
X50325499Y-21930814D01*
X50324897Y-21928569D01*
X50289688Y-21797164D01*
X50220505Y-21677335D01*
X50122665Y-21579495D01*
X50002836Y-21510312D01*
X50002831Y-21510310D01*
X49869185Y-21474500D01*
X49869183Y-21474500D01*
X49730817Y-21474500D01*
X49730815Y-21474500D01*
X49597168Y-21510310D01*
X49597163Y-21510312D01*
X49477334Y-21579495D01*
X49379495Y-21677334D01*
X49310312Y-21797163D01*
X49310310Y-21797168D01*
X49274500Y-21930814D01*
X45800502Y-21930814D01*
X45800502Y-21886309D01*
X45765896Y-21712334D01*
X45765894Y-21712329D01*
X45698016Y-21548455D01*
X45692157Y-21539687D01*
X45599466Y-21400965D01*
X45474037Y-21275536D01*
X45466913Y-21270776D01*
X45326546Y-21176985D01*
X45162672Y-21109107D01*
X45162662Y-21109104D01*
X45046158Y-21085930D01*
X44988693Y-21074500D01*
X44811311Y-21074500D01*
X44761991Y-21084310D01*
X44637341Y-21109104D01*
X44637331Y-21109107D01*
X44473457Y-21176985D01*
X44325970Y-21275533D01*
X44200535Y-21400968D01*
X44125418Y-21513389D01*
X44078325Y-21544855D01*
X44022777Y-21533806D01*
X43991311Y-21486713D01*
X43990272Y-21479797D01*
X43989506Y-21472302D01*
X43934358Y-21305878D01*
X43842317Y-21156656D01*
X43842315Y-21156653D01*
X43718348Y-21032686D01*
X43718344Y-21032683D01*
X43647442Y-20988950D01*
X43569122Y-20940642D01*
X43539463Y-20930814D01*
X50274500Y-20930814D01*
X50274500Y-21069185D01*
X50310310Y-21202831D01*
X50310312Y-21202836D01*
X50379495Y-21322665D01*
X50477335Y-21420505D01*
X50597164Y-21489688D01*
X50730814Y-21525499D01*
X50730815Y-21525500D01*
X50730817Y-21525500D01*
X50869185Y-21525500D01*
X50869185Y-21525499D01*
X51002836Y-21489688D01*
X51122665Y-21420505D01*
X51220505Y-21322665D01*
X51289688Y-21202836D01*
X51325499Y-21069185D01*
X51325500Y-21069185D01*
X51325500Y-20930815D01*
X51325499Y-20930814D01*
X51574500Y-20930814D01*
X51574500Y-21069185D01*
X51610310Y-21202831D01*
X51610312Y-21202836D01*
X51679495Y-21322665D01*
X51777335Y-21420505D01*
X51897164Y-21489688D01*
X52030814Y-21525499D01*
X52030815Y-21525500D01*
X52030817Y-21525500D01*
X52169185Y-21525500D01*
X52169185Y-21525499D01*
X52302836Y-21489688D01*
X52422665Y-21420505D01*
X52520505Y-21322665D01*
X52589688Y-21202836D01*
X52625499Y-21069185D01*
X52625500Y-21069185D01*
X52625500Y-20930815D01*
X52625499Y-20930814D01*
X53074500Y-20930814D01*
X53074500Y-21069185D01*
X53110310Y-21202831D01*
X53110312Y-21202836D01*
X53179495Y-21322665D01*
X53277335Y-21420505D01*
X53397164Y-21489688D01*
X53530814Y-21525499D01*
X53530815Y-21525500D01*
X53530817Y-21525500D01*
X53669185Y-21525500D01*
X53669185Y-21525499D01*
X53802836Y-21489688D01*
X53922665Y-21420505D01*
X54020505Y-21322665D01*
X54089688Y-21202836D01*
X54125499Y-21069185D01*
X54125500Y-21069185D01*
X54125500Y-20930815D01*
X54125499Y-20930814D01*
X54089689Y-20797168D01*
X54089688Y-20797164D01*
X54020505Y-20677335D01*
X53922665Y-20579495D01*
X53802836Y-20510312D01*
X53802831Y-20510310D01*
X53669185Y-20474500D01*
X53669183Y-20474500D01*
X53530817Y-20474500D01*
X53530815Y-20474500D01*
X53397168Y-20510310D01*
X53397163Y-20510312D01*
X53277334Y-20579495D01*
X53179495Y-20677334D01*
X53110312Y-20797163D01*
X53110310Y-20797168D01*
X53074500Y-20930814D01*
X52625499Y-20930814D01*
X52589689Y-20797168D01*
X52589688Y-20797164D01*
X52520505Y-20677335D01*
X52422665Y-20579495D01*
X52302836Y-20510312D01*
X52302831Y-20510310D01*
X52169185Y-20474500D01*
X52169183Y-20474500D01*
X52030817Y-20474500D01*
X52030815Y-20474500D01*
X51897168Y-20510310D01*
X51897163Y-20510312D01*
X51777334Y-20579495D01*
X51679495Y-20677334D01*
X51610312Y-20797163D01*
X51610310Y-20797168D01*
X51574500Y-20930814D01*
X51325499Y-20930814D01*
X51289689Y-20797168D01*
X51289688Y-20797164D01*
X51220505Y-20677335D01*
X51122665Y-20579495D01*
X51002836Y-20510312D01*
X51002831Y-20510310D01*
X50869185Y-20474500D01*
X50869183Y-20474500D01*
X50730817Y-20474500D01*
X50730815Y-20474500D01*
X50597168Y-20510310D01*
X50597163Y-20510312D01*
X50477334Y-20579495D01*
X50379495Y-20677334D01*
X50310312Y-20797163D01*
X50310310Y-20797168D01*
X50274500Y-20930814D01*
X43539463Y-20930814D01*
X43402698Y-20885494D01*
X43299976Y-20875000D01*
X43150001Y-20875000D01*
X43150001Y-21969670D01*
X43130256Y-21949925D01*
X43044746Y-21900556D01*
X42949371Y-21875000D01*
X42850631Y-21875000D01*
X42755256Y-21900556D01*
X42669746Y-21949925D01*
X42650001Y-21969670D01*
X42650001Y-20875000D01*
X42500030Y-20875000D01*
X42500024Y-20875001D01*
X42397304Y-20885494D01*
X42230879Y-20940642D01*
X42081657Y-21032683D01*
X41957684Y-21156656D01*
X41865643Y-21305878D01*
X41810495Y-21472302D01*
X41800001Y-21575024D01*
X21956300Y-21575024D01*
X22036849Y-21437590D01*
X22112672Y-21234703D01*
X22152549Y-21021813D01*
X22155296Y-20805238D01*
X22120831Y-20591404D01*
X22116721Y-20579495D01*
X22059596Y-20413952D01*
X22050178Y-20386660D01*
X22012345Y-20318186D01*
X22007981Y-20310287D01*
X22001647Y-20254005D01*
X22036965Y-20209729D01*
X22072752Y-20200500D01*
X56719278Y-20200500D01*
X56771604Y-20222174D01*
G37*
%TD.AperFunction*%
%TA.AperFunction,Conductor*%
G36*
X57300000Y-23269863D02*
G01*
X57341682Y-23261572D01*
X57341693Y-23261569D01*
X57527037Y-23184798D01*
X57528012Y-23187152D01*
X57576793Y-23182217D01*
X57620669Y-23218030D01*
X57629500Y-23253087D01*
X57629500Y-23946912D01*
X57607826Y-23999238D01*
X57555500Y-24020912D01*
X57527554Y-24013952D01*
X57527037Y-24015202D01*
X57341691Y-23938429D01*
X57341684Y-23938427D01*
X57300000Y-23930136D01*
X57300000Y-24733011D01*
X57290060Y-24715795D01*
X57234205Y-24659940D01*
X57165796Y-24620444D01*
X57089496Y-24600000D01*
X57010504Y-24600000D01*
X56934204Y-24620444D01*
X56865795Y-24659940D01*
X56809940Y-24715795D01*
X56800000Y-24733011D01*
X56800000Y-23930136D01*
X56799999Y-23930136D01*
X56758315Y-23938427D01*
X56758308Y-23938429D01*
X56576324Y-24013809D01*
X56412540Y-24123246D01*
X56273246Y-24262540D01*
X56176127Y-24407889D01*
X56129034Y-24439355D01*
X56073486Y-24428306D01*
X56062277Y-24419107D01*
X56045494Y-24402324D01*
X56023821Y-24350000D01*
X56045494Y-24297675D01*
X56120505Y-24222665D01*
X56189688Y-24102836D01*
X56225499Y-23969185D01*
X56225500Y-23969185D01*
X56225500Y-23830815D01*
X56225499Y-23830814D01*
X56221178Y-23814689D01*
X56189688Y-23697164D01*
X56154951Y-23636999D01*
X56147559Y-23580848D01*
X56154952Y-23563000D01*
X56175257Y-23527831D01*
X56189688Y-23502836D01*
X56225499Y-23369185D01*
X56225500Y-23369185D01*
X56225500Y-23230815D01*
X56225499Y-23230814D01*
X56217446Y-23200761D01*
X56196387Y-23122164D01*
X56189689Y-23097167D01*
X56189687Y-23097162D01*
X56154952Y-23037000D01*
X56153646Y-23027087D01*
X56147561Y-23019157D01*
X56150081Y-23000004D01*
X56147559Y-22980848D01*
X56154950Y-22963004D01*
X56156295Y-22960673D01*
X56159377Y-22955334D01*
X56204308Y-22920854D01*
X56260461Y-22928243D01*
X56275791Y-22940005D01*
X56412539Y-23076752D01*
X56412540Y-23076753D01*
X56576324Y-23186190D01*
X56758306Y-23261569D01*
X56758317Y-23261572D01*
X56799999Y-23269863D01*
X56800000Y-23269863D01*
X56800000Y-22466988D01*
X56809940Y-22484205D01*
X56865795Y-22540060D01*
X56934204Y-22579556D01*
X57010504Y-22600000D01*
X57089496Y-22600000D01*
X57165796Y-22579556D01*
X57234205Y-22540060D01*
X57290060Y-22484205D01*
X57300000Y-22466988D01*
X57300000Y-23269863D01*
G37*
%TD.AperFunction*%
%TD*%
M02*
