%TF.GenerationSoftware,KiCad,Pcbnew,9.0.3*%
%TF.CreationDate,2025-07-18T01:49:26-04:00*%
%TF.ProjectId,board,626f6172-642e-46b6-9963-61645f706362,rev?*%
%TF.SameCoordinates,Original*%
%TF.FileFunction,Profile,NP*%
%FSLAX46Y46*%
G04 Gerber Fmt 4.6, Leading zero omitted, Abs format (unit mm)*
G04 Created by KiCad (PCBNEW 9.0.3) date 2025-07-18 01:49:26*
%MOMM*%
%LPD*%
G01*
G04 APERTURE LIST*
%TA.AperFunction,Profile*%
%ADD10C,0.050000*%
%TD*%
%TA.AperFunction,Profile*%
%ADD11C,0.100000*%
%TD*%
G04 APERTURE END LIST*
D10*
X44950000Y-29700000D02*
G75*
G02*
X42850000Y-29700000I-1050000J0D01*
G01*
X42850000Y-29700000D02*
G75*
G02*
X44950000Y-29700000I1050000J0D01*
G01*
X21450000Y-20000000D02*
X57830000Y-20000000D01*
X106000000Y-21440832D02*
G75*
G02*
X104559168Y-20000000I-900000J540832D01*
G01*
X68170000Y-25900000D02*
X68170000Y-20000000D01*
X85950000Y-35000000D02*
G75*
G02*
X85200000Y-34250000I0J750000D01*
G01*
X41500000Y-27000000D02*
G75*
G02*
X40500000Y-27000000I-500000J0D01*
G01*
X40500000Y-27000000D02*
G75*
G02*
X41500000Y-27000000I500000J0D01*
G01*
X57830000Y-20000000D02*
X57830000Y-25900000D01*
X58430000Y-25900000D02*
X67570000Y-25900000D01*
X104559168Y-39400000D02*
X21440832Y-39399999D01*
X58430000Y-25900000D02*
G75*
G02*
X57830000Y-25900000I-300000J0D01*
G01*
X44400000Y-33000000D02*
G75*
G02*
X43400000Y-33000000I-500000J0D01*
G01*
X43400000Y-33000000D02*
G75*
G02*
X44400000Y-33000000I500000J0D01*
G01*
X21450000Y-20000000D02*
G75*
G02*
X19999994Y-21440003I-548590J-897640D01*
G01*
X68170000Y-20000000D02*
X104559168Y-20000000D01*
X85200000Y-22750000D02*
G75*
G02*
X85950000Y-22000000I750000J0D01*
G01*
X85200000Y-34250000D02*
X85200000Y-22750000D01*
X85950000Y-22000000D02*
G75*
G02*
X86700000Y-22750000I0J-750000D01*
G01*
X20000000Y-37959168D02*
X20000000Y-21440832D01*
X86700000Y-34250000D02*
G75*
G02*
X85950000Y-35000000I-750000J0D01*
G01*
X106000000Y-21440832D02*
X106000000Y-37959168D01*
X104559168Y-39400000D02*
G75*
G02*
X106000000Y-37959168I540832J900000D01*
G01*
X86700000Y-22750000D02*
X86700000Y-34250000D01*
X68170000Y-25900000D02*
G75*
G02*
X67570000Y-25900000I-300000J0D01*
G01*
X20000000Y-37959168D02*
G75*
G02*
X21440834Y-39399999I900000J-540832D01*
G01*
D11*
%TO.C,D1*%
X27975001Y-35452841D02*
X27975001Y-34047157D01*
X28880548Y-33250000D02*
X30469453Y-33250000D01*
X30469452Y-36249999D02*
X28880548Y-36249999D01*
X31374999Y-34047157D02*
X31374999Y-35452841D01*
X27925516Y-33830279D02*
G75*
G02*
X27974976Y-34047157I-450516J-216821D01*
G01*
X27925516Y-33830279D02*
G75*
G02*
X28628289Y-33181700I450514J216879D01*
G01*
X27975001Y-35452842D02*
G75*
G02*
X27925517Y-35669719I-500361J82D01*
G01*
X28628289Y-36318296D02*
G75*
G02*
X27925520Y-35669721I-252259J431696D01*
G01*
X28628290Y-36318298D02*
G75*
G02*
X28880548Y-36250000I252260J-431712D01*
G01*
X28880547Y-33249999D02*
G75*
G02*
X28628289Y-33181700I3J500009D01*
G01*
X30469452Y-36249999D02*
G75*
G02*
X30721711Y-36318298I-2J-500009D01*
G01*
X30721711Y-33181701D02*
G75*
G02*
X30469453Y-33250000I-252261J431710D01*
G01*
X30721711Y-33181701D02*
G75*
G02*
X31424484Y-33830279I252258J-431701D01*
G01*
X31374999Y-34047156D02*
G75*
G02*
X31424484Y-33830279I499990J1D01*
G01*
X31424484Y-35669718D02*
G75*
G02*
X30721711Y-36318298I-450514J-216880D01*
G01*
X31424484Y-35669719D02*
G75*
G02*
X31374999Y-35452841I450505J216876D01*
G01*
%TO.C,D2*%
X94575001Y-35452841D02*
X94575001Y-34047157D01*
X95480548Y-33250000D02*
X97069453Y-33250000D01*
X97069452Y-36249999D02*
X95480548Y-36249999D01*
X97974999Y-34047157D02*
X97974999Y-35452841D01*
X94525516Y-33830279D02*
G75*
G02*
X94574976Y-34047157I-450516J-216821D01*
G01*
X94525516Y-33830279D02*
G75*
G02*
X95228289Y-33181700I450514J216879D01*
G01*
X94575001Y-35452842D02*
G75*
G02*
X94525517Y-35669719I-500361J82D01*
G01*
X95228289Y-36318296D02*
G75*
G02*
X94525520Y-35669721I-252259J431696D01*
G01*
X95228290Y-36318298D02*
G75*
G02*
X95480548Y-36250000I252260J-431712D01*
G01*
X95480547Y-33249999D02*
G75*
G02*
X95228289Y-33181700I3J500009D01*
G01*
X97069452Y-36249999D02*
G75*
G02*
X97321711Y-36318298I-2J-500009D01*
G01*
X97321711Y-33181701D02*
G75*
G02*
X97069453Y-33250000I-252261J431710D01*
G01*
X97321711Y-33181701D02*
G75*
G02*
X98024484Y-33830279I252258J-431701D01*
G01*
X97974999Y-34047156D02*
G75*
G02*
X98024484Y-33830279I499990J1D01*
G01*
X98024484Y-35669718D02*
G75*
G02*
X97321711Y-36318298I-450514J-216880D01*
G01*
X98024484Y-35669719D02*
G75*
G02*
X97974999Y-35452841I450505J216876D01*
G01*
%TD*%
M02*
