M48
; DRILL file {KiCad 9.0.3} date 2025-07-18T01:50:05-0400
; FORMAT={-:-/ absolute / metric / decimal}
; #@! TF.CreationDate,2025-07-18T01:50:05-04:00
; #@! TF.GenerationSoftware,Kicad,Pcbnew,9.0.3
; #@! TF.FileFunction,Plated,1,4,PTH
FMAT,2
METRIC
; #@! TA.AperFunction,Plated,PTH,ViaDrill
T1C0.200
; #@! TA.AperFunction,Plated,PTH,ComponentDrill
T2C0.600
; #@! TA.AperFunction,Plated,PTH,ComponentDrill
T3C0.750
; #@! TA.AperFunction,Plated,PTH,ComponentDrill
T4C1.000
; #@! TA.AperFunction,Plated,PTH,ComponentDrill
T5C3.050
%
G90
G05
T1
X23.1Y-24.5
X26.96Y-32.77
X32.4Y-36.4
X34.1Y-34.0
X49.25Y-28.95
X49.325Y-37.85
X49.8Y-22.0
X49.83Y-25.97
X49.9Y-37.85
X50.0Y-28.95
X50.73Y-31.86
X50.8Y-21.0
X50.84Y-30.41
X50.85Y-36.425
X50.85Y-37.0
X50.85Y-37.6
X50.94Y-23.35
X50.94Y-23.85
X50.942Y-22.86
X50.975Y-34.6
X51.25Y-31.86
X51.33Y-30.41
X51.438Y-23.35
X51.438Y-23.85
X51.44Y-22.86
X51.5Y-27.1
X51.51Y-27.62
X51.94Y-23.35
X51.94Y-23.85
X51.942Y-22.86
X52.0Y-27.1
X52.1Y-21.0
X52.2Y-32.8
X53.5Y-29.05
X53.5Y-33.8
X53.6Y-21.0
X53.6Y-23.325
X53.85Y-37.95
X54.65Y-31.88
X54.7Y-28.8
X55.7Y-22.7
X55.7Y-23.3
X55.7Y-23.9
X55.7Y-24.8
X55.985Y-32.6
X56.05Y-36.25
X56.56Y-32.6
X57.135Y-32.6
X57.15Y-28.35
X57.525Y-35.175
X57.71Y-32.6
X57.8Y-27.7
X57.8Y-28.35
X57.8Y-33.25
X58.6Y-30.75
X59.076Y-31.226
X59.64Y-28.94
X59.8Y-37.8
X60.569Y-28.879
X60.6Y-26.45
X61.2Y-38.4
X61.9Y-33.75
X62.25Y-27.25
X62.45Y-34.3
X62.47Y-33.21
X62.52Y-28.2
X62.55Y-36.5
X62.98Y-29.25
X63.0Y-32.65
X63.0Y-33.75
X63.0Y-34.85
X63.25Y-27.25
X63.54Y-33.2
X63.55Y-34.28
X64.1Y-33.75
X64.25Y-27.45
X64.51Y-28.76
X64.65Y-38.35
X64.94Y-28.34
X65.34Y-27.94
X65.4Y-26.45
X65.656Y-29.124
X66.151Y-29.619
X66.24Y-28.3
X67.68Y-28.45
X68.32Y-28.45
X69.08Y-28.45
X69.08Y-29.15
X69.08Y-29.85
X69.7Y-33.9
X69.72Y-34.65
X70.062Y-22.25
X70.812Y-21.05
X71.25Y-33.7
X71.763Y-23.35
X72.172Y-24.65
X72.712Y-21.075
X72.712Y-24.3
X74.4Y-22.2
X75.05Y-24.55
X75.05Y-26.5
X75.125Y-29.71
X75.7Y-29.7
X76.9Y-26.95
X77.31Y-34.97
X77.49Y-32.33
X77.75Y-34.4
X77.8Y-29.935
X77.8Y-30.575
X77.83Y-28.5
X78.47Y-28.5
X78.5Y-22.2
X78.5Y-25.7
X78.5Y-27.8
X81.85Y-36.35
X81.9Y-25.0
X83.5Y-37.14
X85.787Y-36.2
X85.787Y-37.15
X88.9Y-29.2
X91.85Y-32.55
X93.55Y-33.03
X93.55Y-36.4
X99.0Y-36.5
T3
X42.9Y-22.25
X44.9Y-22.25
T4
X42.625Y-37.6
X45.165Y-37.6
T5
X25.89Y-27.16
X32.24Y-24.62
X92.49Y-27.16
X98.84Y-24.62
T2
X57.05Y-21.3G85X57.05Y-22.3
G05
X57.05Y-24.9G85X57.05Y-25.7
G05
X68.95Y-21.3G85X68.95Y-22.3
G05
X68.95Y-24.9G85X68.95Y-25.7
G05
M30
