%TF.GenerationSoftware,KiCad,Pcbnew,9.0.3*%
%TF.CreationDate,2025-07-16T18:33:31-04:00*%
%TF.ProjectId,board,626f6172-642e-46b6-9963-61645f706362,rev?*%
%TF.SameCoordinates,Original*%
%TF.FileFunction,Copper,L1,Top*%
%TF.FilePolarity,Positive*%
%FSLAX46Y46*%
G04 Gerber Fmt 4.6, Leading zero omitted, Abs format (unit mm)*
G04 Created by KiCad (PCBNEW 9.0.3) date 2025-07-16 18:33:31*
%MOMM*%
%LPD*%
G01*
G04 APERTURE LIST*
G04 Aperture macros list*
%AMRoundRect*
0 Rectangle with rounded corners*
0 $1 Rounding radius*
0 $2 $3 $4 $5 $6 $7 $8 $9 X,Y pos of 4 corners*
0 Add a 4 corners polygon primitive as box body*
4,1,4,$2,$3,$4,$5,$6,$7,$8,$9,$2,$3,0*
0 Add four circle primitives for the rounded corners*
1,1,$1+$1,$2,$3*
1,1,$1+$1,$4,$5*
1,1,$1+$1,$6,$7*
1,1,$1+$1,$8,$9*
0 Add four rect primitives between the rounded corners*
20,1,$1+$1,$2,$3,$4,$5,0*
20,1,$1+$1,$4,$5,$6,$7,0*
20,1,$1+$1,$6,$7,$8,$9,0*
20,1,$1+$1,$8,$9,$2,$3,0*%
G04 Aperture macros list end*
%TA.AperFunction,ComponentPad*%
%ADD10RoundRect,0.250000X-0.350000X-0.625000X0.350000X-0.625000X0.350000X0.625000X-0.350000X0.625000X0*%
%TD*%
%TA.AperFunction,ComponentPad*%
%ADD11O,1.200000X1.750000*%
%TD*%
%TA.AperFunction,ComponentPad*%
%ADD12R,1.700000X1.700000*%
%TD*%
%TA.AperFunction,ComponentPad*%
%ADD13C,1.700000*%
%TD*%
%TA.AperFunction,ComponentPad*%
%ADD14O,1.000000X1.800000*%
%TD*%
%TA.AperFunction,ComponentPad*%
%ADD15O,1.000000X2.000000*%
%TD*%
%TA.AperFunction,ComponentPad*%
%ADD16C,3.600000*%
%TD*%
%TA.AperFunction,ViaPad*%
%ADD17C,0.450000*%
%TD*%
%TA.AperFunction,ViaPad*%
%ADD18C,0.600000*%
%TD*%
%TA.AperFunction,Conductor*%
%ADD19C,0.200000*%
%TD*%
%TA.AperFunction,Conductor*%
%ADD20C,0.400000*%
%TD*%
G04 APERTURE END LIST*
D10*
%TO.P,J2,1,Pin_1*%
%TO.N,GND*%
X42900001Y-22250000D03*
D11*
%TO.P,J2,2,Pin_2*%
%TO.N,VBAT*%
X44900002Y-22250000D03*
%TD*%
D12*
%TO.P,J4,1,Pin_1*%
%TO.N,Net-(J4-Pin_1)*%
X42625000Y-37200000D03*
D13*
%TO.P,J4,2,Pin_2*%
%TO.N,Net-(J4-Pin_2)*%
X45165000Y-37200000D03*
%TD*%
D14*
%TO.P,J1,SH1,SHIELD*%
%TO.N,GND*%
X57050000Y-25300000D03*
%TO.P,J1,SH2,SHIELD*%
X68950000Y-25300000D03*
D15*
%TO.P,J1,SH3,SHIELD*%
X57050000Y-21800000D03*
%TO.P,J1,SH4,SHIELD*%
X68950000Y-21800000D03*
%TD*%
D16*
%TO.P,SW1,1,1*%
%TO.N,/BUTTON_L*%
X33510000Y-32240000D03*
%TO.P,SW1,2,2*%
%TO.N,GND*%
X27160000Y-34780000D03*
%TD*%
%TO.P,SW2,2,2*%
%TO.N,GND*%
X93760000Y-34780000D03*
%TO.P,SW2,1,1*%
%TO.N,/BUTTON_R*%
X100110000Y-32240000D03*
%TD*%
D13*
%TO.P,J3,3,Pin_3*%
%TO.N,Net-(J3-Pin_3)*%
X60460001Y-37300000D03*
%TO.P,J3,2,Pin_2*%
%TO.N,GND*%
X63000000Y-37300000D03*
D12*
%TO.P,J3,1,Pin_1*%
%TO.N,Net-(J3-Pin_1)*%
X65540000Y-37300000D03*
%TD*%
D17*
%TO.N,9V*%
X82500000Y-32000000D03*
X80300000Y-32000000D03*
%TO.N,Net-(DS1-IREF)*%
X80300000Y-29200000D03*
X78300000Y-24800000D03*
%TO.N,Net-(DS1-VCOMH)*%
X82500000Y-31300000D03*
X80300000Y-31300000D03*
%TO.N,3V3*%
X77800000Y-34425000D03*
X79625000Y-35200000D03*
X81075000Y-35200000D03*
%TO.N,/DISP_PIN_CS*%
X78300000Y-26375000D03*
%TO.N,3V3*%
X78300000Y-25735000D03*
%TO.N,/DISP_PIN_RST*%
X78300000Y-27800000D03*
%TO.N,GND*%
X80300000Y-29900000D03*
%TO.N,3V3*%
X70100000Y-20800000D03*
%TO.N,/DISP_PIN_DC*%
X80300000Y-27100000D03*
%TO.N,3V3*%
X77780000Y-30800000D03*
X80300000Y-30600000D03*
%TO.N,/DISP_PIN_RST*%
X80300000Y-27800000D03*
%TO.N,/DISP_PIN_CS*%
X78300000Y-28500000D03*
X80300000Y-28500000D03*
D18*
%TO.N,/USB_D+*%
X63949999Y-31137500D03*
%TO.N,/USB_D-*%
X62050001Y-31137500D03*
D17*
%TO.N,1V1*%
X70930000Y-27485000D03*
%TO.N,3V3*%
X70230000Y-28890000D03*
X70230069Y-27474999D03*
%TO.N,1V1*%
X70930762Y-28890000D03*
%TO.N,/USB_D-*%
X71630763Y-28250000D03*
%TO.N,/USB_D+*%
X72330761Y-28250002D03*
%TO.N,3V3*%
X73020000Y-27490000D03*
X73020000Y-28890000D03*
D18*
%TO.N,VBUS*%
X63000000Y-28862500D03*
X65400000Y-26450000D03*
X60600000Y-26450000D03*
D17*
%TO.N,Net-(J1-DP1)*%
X63750000Y-27450000D03*
X62750000Y-27450000D03*
%TO.N,/DISP_PIN_DC*%
X76100000Y-32800000D03*
%TD*%
D19*
%TO.N,/USB_D-*%
X62587501Y-30600000D02*
X62050001Y-31137500D01*
X70385000Y-30600000D02*
X62587501Y-30600000D01*
X71620000Y-29365000D02*
X70385000Y-30600000D01*
X71620000Y-28260763D02*
X71620000Y-29365000D01*
X71630763Y-28250000D02*
X71620000Y-28260763D01*
%TO.N,/DISP_PIN_DC*%
X78200000Y-27100000D02*
X80300000Y-27100000D01*
X77700000Y-27600000D02*
X78200000Y-27100000D01*
X77700000Y-29900000D02*
X77700000Y-27600000D01*
X76100000Y-31500000D02*
X77700000Y-29900000D01*
X76100000Y-32800000D02*
X76100000Y-31500000D01*
D20*
%TO.N,9V*%
X82500000Y-32000000D02*
X80300000Y-32000000D01*
D19*
%TO.N,Net-(DS1-IREF)*%
X80800000Y-29200000D02*
X80300000Y-29200000D01*
X81600000Y-25600000D02*
X81600000Y-28400000D01*
X80800000Y-24800000D02*
X81600000Y-25600000D01*
X81600000Y-28400000D02*
X80800000Y-29200000D01*
X78300000Y-24800000D02*
X80800000Y-24800000D01*
%TO.N,/DISP_PIN_CS*%
X80500000Y-28500000D02*
X80300000Y-28500000D01*
X81000000Y-28000000D02*
X80500000Y-28500000D01*
X81000000Y-26900000D02*
X81000000Y-28000000D01*
X78300000Y-26375000D02*
X80475000Y-26375000D01*
X80475000Y-26375000D02*
X81000000Y-26900000D01*
X78500000Y-28500000D02*
X80300000Y-28500000D01*
%TO.N,/DISP_PIN_RST*%
X78624997Y-27800000D02*
X78500000Y-27800000D01*
X78624997Y-27800000D02*
X80300000Y-27800000D01*
%TO.N,/USB_D+*%
X72330000Y-29380000D02*
X70572500Y-31137500D01*
X70572500Y-31137500D02*
X63949999Y-31137500D01*
X72330000Y-28250763D02*
X72330000Y-29380000D01*
X72330761Y-28250002D02*
X72330000Y-28250763D01*
%TO.N,1V1*%
X70930762Y-27485762D02*
X70930000Y-27485000D01*
D20*
%TO.N,3V3*%
X70230069Y-27474999D02*
X70230069Y-28889931D01*
%TO.N,1V1*%
X70930762Y-28890000D02*
X70930762Y-27485762D01*
D19*
%TO.N,3V3*%
X70230069Y-28889931D02*
X70230000Y-28890000D01*
%TO.N,/USB_D+*%
X72330761Y-28250002D02*
X72330763Y-28250000D01*
%TO.N,Net-(J1-DP1)*%
X62750000Y-27450000D02*
X63750000Y-27450000D01*
D20*
%TO.N,Net-(DS1-VCOMH)*%
X82500000Y-31300000D02*
X80300000Y-31300000D01*
%TD*%
M02*
