<?xml version="1.0" standalone="no"?>
 <!DOCTYPE svg PUBLIC "-//W3C//DTD SVG 1.1//EN" 
 "http://www.w3.org/Graphics/SVG/1.1/DTD/svg11.dtd"> 
<svg
  xmlns:svg="http://www.w3.org/2000/svg"
  xmlns="http://www.w3.org/2000/svg"
  xmlns:xlink="http://www.w3.org/1999/xlink"
  version="1.1"
  width="297.0022mm" height="210.0072mm" viewBox="0.0000 0.0000 297.0022 210.0072">
<title>SVG Image created as board-Edge_Cuts.svg date 2025/07/19 01:58:50 </title>
  <desc>Image generated by PCBNEW </desc>
<g style="fill:#000000; fill-opacity:1.0000;stroke:#000000; stroke-opacity:1.0000;
stroke-linecap:round; stroke-linejoin:round;"
 transform="translate(0 0) scale(1 1)">
</g>
<g style="fill:none; 
stroke:#000000; stroke-width:0.0500; stroke-opacity:1; 
stroke-linecap:round; stroke-linejoin:round;">
<path d="M85.2000 36.6500 A0.7500 0.7500 0.0 0 0 85.9500 37.4000" />
<path d="M85.9500 37.4000 A0.7500 0.7500 0.0 0 0 86.7000 36.6500" />
<circle cx="43.9000" cy="27.0000" r="0.5000" /> 
<circle cx="43.9000" cy="29.7000" r="1.0500" /> 
<path d="M21.4500 20.0000
L57.8300 20.0000
" />
<path d="M104.5592 20.0000 A1.0500 1.0500 0.0 1 0 106.0000 21.4408" />
<path d="M68.1700 25.9000
L68.1700 20.0000
" />
<path d="M57.8300 20.0000
L57.8300 25.9000
" />
<path d="M58.4300 25.9000
L67.5700 25.9000
" />
<path d="M104.5592 39.4000
L21.4408 39.4000
" />
<path d="M57.8300 25.9000 A0.3000 0.3000 0.0 0 0 58.4300 25.9000" />
<path d="M20.0000 21.4400 A1.0520 1.0520 0.0 1 0 21.4500 20.0000" />
<path d="M68.1700 20.0000
L104.5592 20.0000
" />
<path d="M85.9500 22.0000 A0.7500 0.7500 0.0 0 0 85.2000 22.7500" />
<path d="M85.2000 36.6500
L85.2000 22.7500
" />
<path d="M86.7000 22.7500 A0.7500 0.7500 0.0 0 0 85.9500 22.0000" />
<path d="M20.0000 37.9592
L20.0000 21.4408
" />
<path d="M106.0000 21.4408
L106.0000 37.9592
" />
<path d="M106.0000 37.9592 A1.0500 1.0500 0.0 1 0 104.5592 39.4000" />
<path d="M86.7000 22.7500
L86.7000 36.6500
" />
<path d="M67.5700 25.9000 A0.3000 0.3000 0.0 0 0 68.1700 25.9000" />
<path d="M21.4408 39.4000 A1.0500 1.0500 0.0 1 0 20.0000 37.9592" />
</g>
<g style="fill:none; 
stroke:#000000; stroke-width:0.1000; stroke-opacity:1; 
stroke-linecap:round; stroke-linejoin:round;">
<path d="M27.9750 35.4528
L27.9750 34.0472
" />
<path d="M28.8805 33.2500
L30.4695 33.2500
" />
<path d="M30.4695 36.2500
L28.8805 36.2500
" />
<path d="M31.3750 34.0472
L31.3750 35.4528
" />
<path d="M27.9750 34.0472 A0.5000 0.5000 0.0 0 0 27.9255 33.8303" />
<path d="M28.6283 33.1817 A0.5000 0.5000 0.0 0 0 27.9255 33.8303" />
<path d="M27.9255 35.6697 A0.5004 0.5004 0.0 0 0 27.9750 35.4528" />
<path d="M27.9255 35.6697 A0.5000 0.5000 0.0 0 0 28.6283 36.3183" />
<path d="M28.8805 36.2500 A0.5000 0.5000 0.0 0 0 28.6283 36.3183" />
<path d="M28.6283 33.1817 A0.5000 0.5000 0.0 0 0 28.8805 33.2500" />
<path d="M30.7217 36.3183 A0.5000 0.5000 0.0 0 0 30.4695 36.2500" />
<path d="M30.4695 33.2500 A0.5000 0.5000 0.0 0 0 30.7217 33.1817" />
<path d="M31.4245 33.8303 A0.5000 0.5000 0.0 0 0 30.7217 33.1817" />
<path d="M31.4245 33.8303 A0.5000 0.5000 0.0 0 0 31.3750 34.0472" />
<path d="M30.7217 36.3183 A0.5000 0.5000 0.0 0 0 31.4245 35.6697" />
<path d="M31.3750 35.4528 A0.5000 0.5000 0.0 0 0 31.4245 35.6697" />
<path d="M94.5750 35.4528
L94.5750 34.0472
" />
<path d="M95.4805 33.2500
L97.0695 33.2500
" />
<path d="M97.0695 36.2500
L95.4805 36.2500
" />
<path d="M97.9750 34.0472
L97.9750 35.4528
" />
<path d="M94.5750 34.0472 A0.5000 0.5000 0.0 0 0 94.5255 33.8303" />
<path d="M95.2283 33.1817 A0.5000 0.5000 0.0 0 0 94.5255 33.8303" />
<path d="M94.5255 35.6697 A0.5004 0.5004 0.0 0 0 94.5750 35.4528" />
<path d="M94.5255 35.6697 A0.5000 0.5000 0.0 0 0 95.2283 36.3183" />
<path d="M95.4805 36.2500 A0.5000 0.5000 0.0 0 0 95.2283 36.3183" />
<path d="M95.2283 33.1817 A0.5000 0.5000 0.0 0 0 95.4805 33.2500" />
<path d="M97.3217 36.3183 A0.5000 0.5000 0.0 0 0 97.0695 36.2500" />
<path d="M97.0695 33.2500 A0.5000 0.5000 0.0 0 0 97.3217 33.1817" />
<path d="M98.0245 33.8303 A0.5000 0.5000 0.0 0 0 97.3217 33.1817" />
<path d="M98.0245 33.8303 A0.5000 0.5000 0.0 0 0 97.9750 34.0472" />
<path d="M97.3217 36.3183 A0.5000 0.5000 0.0 0 0 98.0245 35.6697" />
<path d="M97.9750 35.4528 A0.5000 0.5000 0.0 0 0 98.0245 35.6697" />
</g> 
</svg>
