%TF.GenerationSoftware,KiCad,Pcbnew,9.0.3*%
%TF.CreationDate,2025-07-16T18:33:31-04:00*%
%TF.ProjectId,board,626f6172-642e-46b6-9963-61645f706362,rev?*%
%TF.SameCoordinates,Original*%
%TF.FileFunction,AssemblyDrawing,Bot*%
%FSLAX46Y46*%
G04 Gerber Fmt 4.6, Leading zero omitted, Abs format (unit mm)*
G04 Created by KiCad (PCBNEW 9.0.3) date 2025-07-16 18:33:31*
%MOMM*%
%LPD*%
G01*
G04 APERTURE LIST*
%ADD10C,0.040000*%
%ADD11C,0.060000*%
%ADD12C,0.150000*%
%ADD13C,0.110000*%
%ADD14C,0.080000*%
%ADD15C,0.120000*%
%ADD16C,0.062500*%
%ADD17C,0.075000*%
%ADD18C,0.100000*%
%ADD19C,0.127000*%
%ADD20C,0.200000*%
G04 APERTURE END LIST*
D10*
X52560714Y-29584766D02*
X52572618Y-29596671D01*
X52572618Y-29596671D02*
X52608333Y-29608575D01*
X52608333Y-29608575D02*
X52632142Y-29608575D01*
X52632142Y-29608575D02*
X52667856Y-29596671D01*
X52667856Y-29596671D02*
X52691666Y-29572861D01*
X52691666Y-29572861D02*
X52703571Y-29549051D01*
X52703571Y-29549051D02*
X52715475Y-29501432D01*
X52715475Y-29501432D02*
X52715475Y-29465718D01*
X52715475Y-29465718D02*
X52703571Y-29418099D01*
X52703571Y-29418099D02*
X52691666Y-29394290D01*
X52691666Y-29394290D02*
X52667856Y-29370480D01*
X52667856Y-29370480D02*
X52632142Y-29358575D01*
X52632142Y-29358575D02*
X52608333Y-29358575D01*
X52608333Y-29358575D02*
X52572618Y-29370480D01*
X52572618Y-29370480D02*
X52560714Y-29382385D01*
X52322618Y-29608575D02*
X52465475Y-29608575D01*
X52394047Y-29608575D02*
X52394047Y-29358575D01*
X52394047Y-29358575D02*
X52417856Y-29394290D01*
X52417856Y-29394290D02*
X52441666Y-29418099D01*
X52441666Y-29418099D02*
X52465475Y-29430004D01*
X52179761Y-29465718D02*
X52203571Y-29453813D01*
X52203571Y-29453813D02*
X52215476Y-29441909D01*
X52215476Y-29441909D02*
X52227380Y-29418099D01*
X52227380Y-29418099D02*
X52227380Y-29406194D01*
X52227380Y-29406194D02*
X52215476Y-29382385D01*
X52215476Y-29382385D02*
X52203571Y-29370480D01*
X52203571Y-29370480D02*
X52179761Y-29358575D01*
X52179761Y-29358575D02*
X52132142Y-29358575D01*
X52132142Y-29358575D02*
X52108333Y-29370480D01*
X52108333Y-29370480D02*
X52096428Y-29382385D01*
X52096428Y-29382385D02*
X52084523Y-29406194D01*
X52084523Y-29406194D02*
X52084523Y-29418099D01*
X52084523Y-29418099D02*
X52096428Y-29441909D01*
X52096428Y-29441909D02*
X52108333Y-29453813D01*
X52108333Y-29453813D02*
X52132142Y-29465718D01*
X52132142Y-29465718D02*
X52179761Y-29465718D01*
X52179761Y-29465718D02*
X52203571Y-29477623D01*
X52203571Y-29477623D02*
X52215476Y-29489528D01*
X52215476Y-29489528D02*
X52227380Y-29513337D01*
X52227380Y-29513337D02*
X52227380Y-29560956D01*
X52227380Y-29560956D02*
X52215476Y-29584766D01*
X52215476Y-29584766D02*
X52203571Y-29596671D01*
X52203571Y-29596671D02*
X52179761Y-29608575D01*
X52179761Y-29608575D02*
X52132142Y-29608575D01*
X52132142Y-29608575D02*
X52108333Y-29596671D01*
X52108333Y-29596671D02*
X52096428Y-29584766D01*
X52096428Y-29584766D02*
X52084523Y-29560956D01*
X52084523Y-29560956D02*
X52084523Y-29513337D01*
X52084523Y-29513337D02*
X52096428Y-29489528D01*
X52096428Y-29489528D02*
X52108333Y-29477623D01*
X52108333Y-29477623D02*
X52132142Y-29465718D01*
D11*
X48718833Y-25292856D02*
X48737881Y-25273808D01*
X48737881Y-25273808D02*
X48756928Y-25216666D01*
X48756928Y-25216666D02*
X48756928Y-25178570D01*
X48756928Y-25178570D02*
X48737881Y-25121427D01*
X48737881Y-25121427D02*
X48699785Y-25083332D01*
X48699785Y-25083332D02*
X48661690Y-25064285D01*
X48661690Y-25064285D02*
X48585500Y-25045237D01*
X48585500Y-25045237D02*
X48528357Y-25045237D01*
X48528357Y-25045237D02*
X48452166Y-25064285D01*
X48452166Y-25064285D02*
X48414071Y-25083332D01*
X48414071Y-25083332D02*
X48375976Y-25121427D01*
X48375976Y-25121427D02*
X48356928Y-25178570D01*
X48356928Y-25178570D02*
X48356928Y-25216666D01*
X48356928Y-25216666D02*
X48375976Y-25273808D01*
X48375976Y-25273808D02*
X48395023Y-25292856D01*
X48395023Y-25445237D02*
X48375976Y-25464285D01*
X48375976Y-25464285D02*
X48356928Y-25502380D01*
X48356928Y-25502380D02*
X48356928Y-25597618D01*
X48356928Y-25597618D02*
X48375976Y-25635713D01*
X48375976Y-25635713D02*
X48395023Y-25654761D01*
X48395023Y-25654761D02*
X48433119Y-25673808D01*
X48433119Y-25673808D02*
X48471214Y-25673808D01*
X48471214Y-25673808D02*
X48528357Y-25654761D01*
X48528357Y-25654761D02*
X48756928Y-25426189D01*
X48756928Y-25426189D02*
X48756928Y-25673808D01*
X48756928Y-26054760D02*
X48756928Y-25826189D01*
X48756928Y-25940475D02*
X48356928Y-25940475D01*
X48356928Y-25940475D02*
X48414071Y-25902379D01*
X48414071Y-25902379D02*
X48452166Y-25864284D01*
X48452166Y-25864284D02*
X48471214Y-25826189D01*
X54481333Y-28292861D02*
X54500381Y-28273813D01*
X54500381Y-28273813D02*
X54519428Y-28216671D01*
X54519428Y-28216671D02*
X54519428Y-28178575D01*
X54519428Y-28178575D02*
X54500381Y-28121432D01*
X54500381Y-28121432D02*
X54462285Y-28083337D01*
X54462285Y-28083337D02*
X54424190Y-28064290D01*
X54424190Y-28064290D02*
X54348000Y-28045242D01*
X54348000Y-28045242D02*
X54290857Y-28045242D01*
X54290857Y-28045242D02*
X54214666Y-28064290D01*
X54214666Y-28064290D02*
X54176571Y-28083337D01*
X54176571Y-28083337D02*
X54138476Y-28121432D01*
X54138476Y-28121432D02*
X54119428Y-28178575D01*
X54119428Y-28178575D02*
X54119428Y-28216671D01*
X54119428Y-28216671D02*
X54138476Y-28273813D01*
X54138476Y-28273813D02*
X54157523Y-28292861D01*
X54519428Y-28673813D02*
X54519428Y-28445242D01*
X54519428Y-28559528D02*
X54119428Y-28559528D01*
X54119428Y-28559528D02*
X54176571Y-28521432D01*
X54176571Y-28521432D02*
X54214666Y-28483337D01*
X54214666Y-28483337D02*
X54233714Y-28445242D01*
X54119428Y-28807146D02*
X54119428Y-29073813D01*
X54119428Y-29073813D02*
X54519428Y-28902384D01*
D10*
X51598214Y-29613574D02*
X51681547Y-29494527D01*
X51741071Y-29613574D02*
X51741071Y-29363574D01*
X51741071Y-29363574D02*
X51645833Y-29363574D01*
X51645833Y-29363574D02*
X51622023Y-29375479D01*
X51622023Y-29375479D02*
X51610118Y-29387384D01*
X51610118Y-29387384D02*
X51598214Y-29411193D01*
X51598214Y-29411193D02*
X51598214Y-29446908D01*
X51598214Y-29446908D02*
X51610118Y-29470717D01*
X51610118Y-29470717D02*
X51622023Y-29482622D01*
X51622023Y-29482622D02*
X51645833Y-29494527D01*
X51645833Y-29494527D02*
X51741071Y-29494527D01*
X51360118Y-29613574D02*
X51502975Y-29613574D01*
X51431547Y-29613574D02*
X51431547Y-29363574D01*
X51431547Y-29363574D02*
X51455356Y-29399289D01*
X51455356Y-29399289D02*
X51479166Y-29423098D01*
X51479166Y-29423098D02*
X51502975Y-29435003D01*
X51205357Y-29363574D02*
X51181547Y-29363574D01*
X51181547Y-29363574D02*
X51157738Y-29375479D01*
X51157738Y-29375479D02*
X51145833Y-29387384D01*
X51145833Y-29387384D02*
X51133928Y-29411193D01*
X51133928Y-29411193D02*
X51122023Y-29458812D01*
X51122023Y-29458812D02*
X51122023Y-29518336D01*
X51122023Y-29518336D02*
X51133928Y-29565955D01*
X51133928Y-29565955D02*
X51145833Y-29589765D01*
X51145833Y-29589765D02*
X51157738Y-29601670D01*
X51157738Y-29601670D02*
X51181547Y-29613574D01*
X51181547Y-29613574D02*
X51205357Y-29613574D01*
X51205357Y-29613574D02*
X51229166Y-29601670D01*
X51229166Y-29601670D02*
X51241071Y-29589765D01*
X51241071Y-29589765D02*
X51252976Y-29565955D01*
X51252976Y-29565955D02*
X51264880Y-29518336D01*
X51264880Y-29518336D02*
X51264880Y-29458812D01*
X51264880Y-29458812D02*
X51252976Y-29411193D01*
X51252976Y-29411193D02*
X51241071Y-29387384D01*
X51241071Y-29387384D02*
X51229166Y-29375479D01*
X51229166Y-29375479D02*
X51205357Y-29363574D01*
D12*
X33861904Y-23354819D02*
X33290476Y-23354819D01*
X33576190Y-24354819D02*
X33576190Y-23354819D01*
X32957142Y-24354819D02*
X32957142Y-23354819D01*
X32957142Y-23354819D02*
X32576190Y-23354819D01*
X32576190Y-23354819D02*
X32480952Y-23402438D01*
X32480952Y-23402438D02*
X32433333Y-23450057D01*
X32433333Y-23450057D02*
X32385714Y-23545295D01*
X32385714Y-23545295D02*
X32385714Y-23688152D01*
X32385714Y-23688152D02*
X32433333Y-23783390D01*
X32433333Y-23783390D02*
X32480952Y-23831009D01*
X32480952Y-23831009D02*
X32576190Y-23878628D01*
X32576190Y-23878628D02*
X32957142Y-23878628D01*
X31480952Y-23354819D02*
X31957142Y-23354819D01*
X31957142Y-23354819D02*
X32004761Y-23831009D01*
X32004761Y-23831009D02*
X31957142Y-23783390D01*
X31957142Y-23783390D02*
X31861904Y-23735771D01*
X31861904Y-23735771D02*
X31623809Y-23735771D01*
X31623809Y-23735771D02*
X31528571Y-23783390D01*
X31528571Y-23783390D02*
X31480952Y-23831009D01*
X31480952Y-23831009D02*
X31433333Y-23926247D01*
X31433333Y-23926247D02*
X31433333Y-24164342D01*
X31433333Y-24164342D02*
X31480952Y-24259580D01*
X31480952Y-24259580D02*
X31528571Y-24307200D01*
X31528571Y-24307200D02*
X31623809Y-24354819D01*
X31623809Y-24354819D02*
X31861904Y-24354819D01*
X31861904Y-24354819D02*
X31957142Y-24307200D01*
X31957142Y-24307200D02*
X32004761Y-24259580D01*
X25761904Y-23354819D02*
X25190476Y-23354819D01*
X25476190Y-24354819D02*
X25476190Y-23354819D01*
X24857142Y-24354819D02*
X24857142Y-23354819D01*
X24857142Y-23354819D02*
X24476190Y-23354819D01*
X24476190Y-23354819D02*
X24380952Y-23402438D01*
X24380952Y-23402438D02*
X24333333Y-23450057D01*
X24333333Y-23450057D02*
X24285714Y-23545295D01*
X24285714Y-23545295D02*
X24285714Y-23688152D01*
X24285714Y-23688152D02*
X24333333Y-23783390D01*
X24333333Y-23783390D02*
X24380952Y-23831009D01*
X24380952Y-23831009D02*
X24476190Y-23878628D01*
X24476190Y-23878628D02*
X24857142Y-23878628D01*
X23904761Y-23450057D02*
X23857142Y-23402438D01*
X23857142Y-23402438D02*
X23761904Y-23354819D01*
X23761904Y-23354819D02*
X23523809Y-23354819D01*
X23523809Y-23354819D02*
X23428571Y-23402438D01*
X23428571Y-23402438D02*
X23380952Y-23450057D01*
X23380952Y-23450057D02*
X23333333Y-23545295D01*
X23333333Y-23545295D02*
X23333333Y-23640533D01*
X23333333Y-23640533D02*
X23380952Y-23783390D01*
X23380952Y-23783390D02*
X23952380Y-24354819D01*
X23952380Y-24354819D02*
X23333333Y-24354819D01*
D10*
X50598216Y-29613574D02*
X50681549Y-29494527D01*
X50741073Y-29613574D02*
X50741073Y-29363574D01*
X50741073Y-29363574D02*
X50645835Y-29363574D01*
X50645835Y-29363574D02*
X50622025Y-29375479D01*
X50622025Y-29375479D02*
X50610120Y-29387384D01*
X50610120Y-29387384D02*
X50598216Y-29411193D01*
X50598216Y-29411193D02*
X50598216Y-29446908D01*
X50598216Y-29446908D02*
X50610120Y-29470717D01*
X50610120Y-29470717D02*
X50622025Y-29482622D01*
X50622025Y-29482622D02*
X50645835Y-29494527D01*
X50645835Y-29494527D02*
X50741073Y-29494527D01*
X50360120Y-29613574D02*
X50502977Y-29613574D01*
X50431549Y-29613574D02*
X50431549Y-29363574D01*
X50431549Y-29363574D02*
X50455358Y-29399289D01*
X50455358Y-29399289D02*
X50479168Y-29423098D01*
X50479168Y-29423098D02*
X50502977Y-29435003D01*
X50122025Y-29613574D02*
X50264882Y-29613574D01*
X50193454Y-29613574D02*
X50193454Y-29363574D01*
X50193454Y-29363574D02*
X50217263Y-29399289D01*
X50217263Y-29399289D02*
X50241073Y-29423098D01*
X50241073Y-29423098D02*
X50264882Y-29435003D01*
D12*
X37511904Y-20054819D02*
X36940476Y-20054819D01*
X37226190Y-21054819D02*
X37226190Y-20054819D01*
X36607142Y-21054819D02*
X36607142Y-20054819D01*
X36607142Y-20054819D02*
X36226190Y-20054819D01*
X36226190Y-20054819D02*
X36130952Y-20102438D01*
X36130952Y-20102438D02*
X36083333Y-20150057D01*
X36083333Y-20150057D02*
X36035714Y-20245295D01*
X36035714Y-20245295D02*
X36035714Y-20388152D01*
X36035714Y-20388152D02*
X36083333Y-20483390D01*
X36083333Y-20483390D02*
X36130952Y-20531009D01*
X36130952Y-20531009D02*
X36226190Y-20578628D01*
X36226190Y-20578628D02*
X36607142Y-20578628D01*
X35178571Y-20388152D02*
X35178571Y-21054819D01*
X35416666Y-20007200D02*
X35654761Y-20721485D01*
X35654761Y-20721485D02*
X35035714Y-20721485D01*
D11*
X54481336Y-25292856D02*
X54500384Y-25273808D01*
X54500384Y-25273808D02*
X54519431Y-25216666D01*
X54519431Y-25216666D02*
X54519431Y-25178570D01*
X54519431Y-25178570D02*
X54500384Y-25121427D01*
X54500384Y-25121427D02*
X54462288Y-25083332D01*
X54462288Y-25083332D02*
X54424193Y-25064285D01*
X54424193Y-25064285D02*
X54348003Y-25045237D01*
X54348003Y-25045237D02*
X54290860Y-25045237D01*
X54290860Y-25045237D02*
X54214669Y-25064285D01*
X54214669Y-25064285D02*
X54176574Y-25083332D01*
X54176574Y-25083332D02*
X54138479Y-25121427D01*
X54138479Y-25121427D02*
X54119431Y-25178570D01*
X54119431Y-25178570D02*
X54119431Y-25216666D01*
X54119431Y-25216666D02*
X54138479Y-25273808D01*
X54138479Y-25273808D02*
X54157526Y-25292856D01*
X54157526Y-25445237D02*
X54138479Y-25464285D01*
X54138479Y-25464285D02*
X54119431Y-25502380D01*
X54119431Y-25502380D02*
X54119431Y-25597618D01*
X54119431Y-25597618D02*
X54138479Y-25635713D01*
X54138479Y-25635713D02*
X54157526Y-25654761D01*
X54157526Y-25654761D02*
X54195622Y-25673808D01*
X54195622Y-25673808D02*
X54233717Y-25673808D01*
X54233717Y-25673808D02*
X54290860Y-25654761D01*
X54290860Y-25654761D02*
X54519431Y-25426189D01*
X54519431Y-25426189D02*
X54519431Y-25673808D01*
X54119431Y-25921427D02*
X54119431Y-25959522D01*
X54119431Y-25959522D02*
X54138479Y-25997618D01*
X54138479Y-25997618D02*
X54157526Y-26016665D01*
X54157526Y-26016665D02*
X54195622Y-26035713D01*
X54195622Y-26035713D02*
X54271812Y-26054760D01*
X54271812Y-26054760D02*
X54367050Y-26054760D01*
X54367050Y-26054760D02*
X54443241Y-26035713D01*
X54443241Y-26035713D02*
X54481336Y-26016665D01*
X54481336Y-26016665D02*
X54500384Y-25997618D01*
X54500384Y-25997618D02*
X54519431Y-25959522D01*
X54519431Y-25959522D02*
X54519431Y-25921427D01*
X54519431Y-25921427D02*
X54500384Y-25883332D01*
X54500384Y-25883332D02*
X54481336Y-25864284D01*
X54481336Y-25864284D02*
X54443241Y-25845237D01*
X54443241Y-25845237D02*
X54367050Y-25826189D01*
X54367050Y-25826189D02*
X54271812Y-25826189D01*
X54271812Y-25826189D02*
X54195622Y-25845237D01*
X54195622Y-25845237D02*
X54157526Y-25864284D01*
X54157526Y-25864284D02*
X54138479Y-25883332D01*
X54138479Y-25883332D02*
X54119431Y-25921427D01*
D12*
X29411904Y-20054819D02*
X28840476Y-20054819D01*
X29126190Y-21054819D02*
X29126190Y-20054819D01*
X28507142Y-21054819D02*
X28507142Y-20054819D01*
X28507142Y-20054819D02*
X28126190Y-20054819D01*
X28126190Y-20054819D02*
X28030952Y-20102438D01*
X28030952Y-20102438D02*
X27983333Y-20150057D01*
X27983333Y-20150057D02*
X27935714Y-20245295D01*
X27935714Y-20245295D02*
X27935714Y-20388152D01*
X27935714Y-20388152D02*
X27983333Y-20483390D01*
X27983333Y-20483390D02*
X28030952Y-20531009D01*
X28030952Y-20531009D02*
X28126190Y-20578628D01*
X28126190Y-20578628D02*
X28507142Y-20578628D01*
X27602380Y-20054819D02*
X26983333Y-20054819D01*
X26983333Y-20054819D02*
X27316666Y-20435771D01*
X27316666Y-20435771D02*
X27173809Y-20435771D01*
X27173809Y-20435771D02*
X27078571Y-20483390D01*
X27078571Y-20483390D02*
X27030952Y-20531009D01*
X27030952Y-20531009D02*
X26983333Y-20626247D01*
X26983333Y-20626247D02*
X26983333Y-20864342D01*
X26983333Y-20864342D02*
X27030952Y-20959580D01*
X27030952Y-20959580D02*
X27078571Y-21007200D01*
X27078571Y-21007200D02*
X27173809Y-21054819D01*
X27173809Y-21054819D02*
X27459523Y-21054819D01*
X27459523Y-21054819D02*
X27554761Y-21007200D01*
X27554761Y-21007200D02*
X27602380Y-20959580D01*
D13*
X52008928Y-25941244D02*
X52008928Y-26548387D01*
X52008928Y-26548387D02*
X51973214Y-26619815D01*
X51973214Y-26619815D02*
X51937500Y-26655530D01*
X51937500Y-26655530D02*
X51866071Y-26691244D01*
X51866071Y-26691244D02*
X51723214Y-26691244D01*
X51723214Y-26691244D02*
X51651785Y-26655530D01*
X51651785Y-26655530D02*
X51616071Y-26619815D01*
X51616071Y-26619815D02*
X51580357Y-26548387D01*
X51580357Y-26548387D02*
X51580357Y-25941244D01*
X50901786Y-26191244D02*
X50901786Y-26691244D01*
X51080357Y-25905530D02*
X51258928Y-26441244D01*
X51258928Y-26441244D02*
X50794643Y-26441244D01*
D12*
X97749820Y-22961905D02*
X96749820Y-22961905D01*
X96749820Y-22961905D02*
X96749820Y-23200000D01*
X96749820Y-23200000D02*
X96797439Y-23342857D01*
X96797439Y-23342857D02*
X96892677Y-23438095D01*
X96892677Y-23438095D02*
X96987915Y-23485714D01*
X96987915Y-23485714D02*
X97178391Y-23533333D01*
X97178391Y-23533333D02*
X97321248Y-23533333D01*
X97321248Y-23533333D02*
X97511724Y-23485714D01*
X97511724Y-23485714D02*
X97606962Y-23438095D01*
X97606962Y-23438095D02*
X97702201Y-23342857D01*
X97702201Y-23342857D02*
X97749820Y-23200000D01*
X97749820Y-23200000D02*
X97749820Y-22961905D01*
X97749820Y-24485714D02*
X97749820Y-23914286D01*
X97749820Y-24200000D02*
X96749820Y-24200000D01*
X96749820Y-24200000D02*
X96892677Y-24104762D01*
X96892677Y-24104762D02*
X96987915Y-24009524D01*
X96987915Y-24009524D02*
X97035534Y-23914286D01*
X41019047Y-35904819D02*
X40828571Y-35904819D01*
X40828571Y-35904819D02*
X40733333Y-35857200D01*
X40733333Y-35857200D02*
X40685714Y-35809580D01*
X40685714Y-35809580D02*
X40590476Y-35666723D01*
X40590476Y-35666723D02*
X40542857Y-35476247D01*
X40542857Y-35476247D02*
X40542857Y-35095295D01*
X40542857Y-35095295D02*
X40590476Y-35000057D01*
X40590476Y-35000057D02*
X40638095Y-34952438D01*
X40638095Y-34952438D02*
X40733333Y-34904819D01*
X40733333Y-34904819D02*
X40923809Y-34904819D01*
X40923809Y-34904819D02*
X41019047Y-34952438D01*
X41019047Y-34952438D02*
X41066666Y-35000057D01*
X41066666Y-35000057D02*
X41114285Y-35095295D01*
X41114285Y-35095295D02*
X41114285Y-35333390D01*
X41114285Y-35333390D02*
X41066666Y-35428628D01*
X41066666Y-35428628D02*
X41019047Y-35476247D01*
X41019047Y-35476247D02*
X40923809Y-35523866D01*
X40923809Y-35523866D02*
X40733333Y-35523866D01*
X40733333Y-35523866D02*
X40638095Y-35476247D01*
X40638095Y-35476247D02*
X40590476Y-35428628D01*
X40590476Y-35428628D02*
X40542857Y-35333390D01*
X40257142Y-34904819D02*
X39923809Y-35904819D01*
X39923809Y-35904819D02*
X39590476Y-34904819D01*
X41361904Y-31054819D02*
X40790476Y-31054819D01*
X41076190Y-32054819D02*
X41076190Y-31054819D01*
X40457142Y-32054819D02*
X40457142Y-31054819D01*
X40457142Y-31054819D02*
X40076190Y-31054819D01*
X40076190Y-31054819D02*
X39980952Y-31102438D01*
X39980952Y-31102438D02*
X39933333Y-31150057D01*
X39933333Y-31150057D02*
X39885714Y-31245295D01*
X39885714Y-31245295D02*
X39885714Y-31388152D01*
X39885714Y-31388152D02*
X39933333Y-31483390D01*
X39933333Y-31483390D02*
X39980952Y-31531009D01*
X39980952Y-31531009D02*
X40076190Y-31578628D01*
X40076190Y-31578628D02*
X40457142Y-31578628D01*
X39409523Y-32054819D02*
X39219047Y-32054819D01*
X39219047Y-32054819D02*
X39123809Y-32007200D01*
X39123809Y-32007200D02*
X39076190Y-31959580D01*
X39076190Y-31959580D02*
X38980952Y-31816723D01*
X38980952Y-31816723D02*
X38933333Y-31626247D01*
X38933333Y-31626247D02*
X38933333Y-31245295D01*
X38933333Y-31245295D02*
X38980952Y-31150057D01*
X38980952Y-31150057D02*
X39028571Y-31102438D01*
X39028571Y-31102438D02*
X39123809Y-31054819D01*
X39123809Y-31054819D02*
X39314285Y-31054819D01*
X39314285Y-31054819D02*
X39409523Y-31102438D01*
X39409523Y-31102438D02*
X39457142Y-31150057D01*
X39457142Y-31150057D02*
X39504761Y-31245295D01*
X39504761Y-31245295D02*
X39504761Y-31483390D01*
X39504761Y-31483390D02*
X39457142Y-31578628D01*
X39457142Y-31578628D02*
X39409523Y-31626247D01*
X39409523Y-31626247D02*
X39314285Y-31673866D01*
X39314285Y-31673866D02*
X39123809Y-31673866D01*
X39123809Y-31673866D02*
X39028571Y-31626247D01*
X39028571Y-31626247D02*
X38980952Y-31578628D01*
X38980952Y-31578628D02*
X38933333Y-31483390D01*
D11*
X52419641Y-36643832D02*
X52438689Y-36662880D01*
X52438689Y-36662880D02*
X52495831Y-36681927D01*
X52495831Y-36681927D02*
X52533927Y-36681927D01*
X52533927Y-36681927D02*
X52591070Y-36662880D01*
X52591070Y-36662880D02*
X52629165Y-36624784D01*
X52629165Y-36624784D02*
X52648212Y-36586689D01*
X52648212Y-36586689D02*
X52667260Y-36510499D01*
X52667260Y-36510499D02*
X52667260Y-36453356D01*
X52667260Y-36453356D02*
X52648212Y-36377165D01*
X52648212Y-36377165D02*
X52629165Y-36339070D01*
X52629165Y-36339070D02*
X52591070Y-36300975D01*
X52591070Y-36300975D02*
X52533927Y-36281927D01*
X52533927Y-36281927D02*
X52495831Y-36281927D01*
X52495831Y-36281927D02*
X52438689Y-36300975D01*
X52438689Y-36300975D02*
X52419641Y-36320022D01*
X52267260Y-36320022D02*
X52248212Y-36300975D01*
X52248212Y-36300975D02*
X52210117Y-36281927D01*
X52210117Y-36281927D02*
X52114879Y-36281927D01*
X52114879Y-36281927D02*
X52076784Y-36300975D01*
X52076784Y-36300975D02*
X52057736Y-36320022D01*
X52057736Y-36320022D02*
X52038689Y-36358118D01*
X52038689Y-36358118D02*
X52038689Y-36396213D01*
X52038689Y-36396213D02*
X52057736Y-36453356D01*
X52057736Y-36453356D02*
X52286308Y-36681927D01*
X52286308Y-36681927D02*
X52038689Y-36681927D01*
X51848213Y-36681927D02*
X51772022Y-36681927D01*
X51772022Y-36681927D02*
X51733927Y-36662880D01*
X51733927Y-36662880D02*
X51714879Y-36643832D01*
X51714879Y-36643832D02*
X51676784Y-36586689D01*
X51676784Y-36586689D02*
X51657737Y-36510499D01*
X51657737Y-36510499D02*
X51657737Y-36358118D01*
X51657737Y-36358118D02*
X51676784Y-36320022D01*
X51676784Y-36320022D02*
X51695832Y-36300975D01*
X51695832Y-36300975D02*
X51733927Y-36281927D01*
X51733927Y-36281927D02*
X51810118Y-36281927D01*
X51810118Y-36281927D02*
X51848213Y-36300975D01*
X51848213Y-36300975D02*
X51867260Y-36320022D01*
X51867260Y-36320022D02*
X51886308Y-36358118D01*
X51886308Y-36358118D02*
X51886308Y-36453356D01*
X51886308Y-36453356D02*
X51867260Y-36491451D01*
X51867260Y-36491451D02*
X51848213Y-36510499D01*
X51848213Y-36510499D02*
X51810118Y-36529546D01*
X51810118Y-36529546D02*
X51733927Y-36529546D01*
X51733927Y-36529546D02*
X51695832Y-36510499D01*
X51695832Y-36510499D02*
X51676784Y-36491451D01*
X51676784Y-36491451D02*
X51657737Y-36453356D01*
X52344642Y-32043831D02*
X52363690Y-32062879D01*
X52363690Y-32062879D02*
X52420832Y-32081926D01*
X52420832Y-32081926D02*
X52458928Y-32081926D01*
X52458928Y-32081926D02*
X52516071Y-32062879D01*
X52516071Y-32062879D02*
X52554166Y-32024783D01*
X52554166Y-32024783D02*
X52573213Y-31986688D01*
X52573213Y-31986688D02*
X52592261Y-31910498D01*
X52592261Y-31910498D02*
X52592261Y-31853355D01*
X52592261Y-31853355D02*
X52573213Y-31777164D01*
X52573213Y-31777164D02*
X52554166Y-31739069D01*
X52554166Y-31739069D02*
X52516071Y-31700974D01*
X52516071Y-31700974D02*
X52458928Y-31681926D01*
X52458928Y-31681926D02*
X52420832Y-31681926D01*
X52420832Y-31681926D02*
X52363690Y-31700974D01*
X52363690Y-31700974D02*
X52344642Y-31720021D01*
X52192261Y-31720021D02*
X52173213Y-31700974D01*
X52173213Y-31700974D02*
X52135118Y-31681926D01*
X52135118Y-31681926D02*
X52039880Y-31681926D01*
X52039880Y-31681926D02*
X52001785Y-31700974D01*
X52001785Y-31700974D02*
X51982737Y-31720021D01*
X51982737Y-31720021D02*
X51963690Y-31758117D01*
X51963690Y-31758117D02*
X51963690Y-31796212D01*
X51963690Y-31796212D02*
X51982737Y-31853355D01*
X51982737Y-31853355D02*
X52211309Y-32081926D01*
X52211309Y-32081926D02*
X51963690Y-32081926D01*
X51830357Y-31681926D02*
X51563690Y-31681926D01*
X51563690Y-31681926D02*
X51735119Y-32081926D01*
X55104761Y-33981927D02*
X55104761Y-34305737D01*
X55104761Y-34305737D02*
X55085714Y-34343832D01*
X55085714Y-34343832D02*
X55066666Y-34362880D01*
X55066666Y-34362880D02*
X55028571Y-34381927D01*
X55028571Y-34381927D02*
X54952380Y-34381927D01*
X54952380Y-34381927D02*
X54914285Y-34362880D01*
X54914285Y-34362880D02*
X54895238Y-34343832D01*
X54895238Y-34343832D02*
X54876190Y-34305737D01*
X54876190Y-34305737D02*
X54876190Y-33981927D01*
X54495237Y-33981927D02*
X54685713Y-33981927D01*
X54685713Y-33981927D02*
X54704761Y-34172403D01*
X54704761Y-34172403D02*
X54685713Y-34153356D01*
X54685713Y-34153356D02*
X54647618Y-34134308D01*
X54647618Y-34134308D02*
X54552380Y-34134308D01*
X54552380Y-34134308D02*
X54514285Y-34153356D01*
X54514285Y-34153356D02*
X54495237Y-34172403D01*
X54495237Y-34172403D02*
X54476190Y-34210499D01*
X54476190Y-34210499D02*
X54476190Y-34305737D01*
X54476190Y-34305737D02*
X54495237Y-34343832D01*
X54495237Y-34343832D02*
X54514285Y-34362880D01*
X54514285Y-34362880D02*
X54552380Y-34381927D01*
X54552380Y-34381927D02*
X54647618Y-34381927D01*
X54647618Y-34381927D02*
X54685713Y-34362880D01*
X54685713Y-34362880D02*
X54704761Y-34343832D01*
D12*
X51192320Y-33438095D02*
X52001843Y-33438095D01*
X52001843Y-33438095D02*
X52097081Y-33485714D01*
X52097081Y-33485714D02*
X52144701Y-33533333D01*
X52144701Y-33533333D02*
X52192320Y-33628571D01*
X52192320Y-33628571D02*
X52192320Y-33819047D01*
X52192320Y-33819047D02*
X52144701Y-33914285D01*
X52144701Y-33914285D02*
X52097081Y-33961904D01*
X52097081Y-33961904D02*
X52001843Y-34009523D01*
X52001843Y-34009523D02*
X51192320Y-34009523D01*
X51192320Y-34914285D02*
X51192320Y-34723809D01*
X51192320Y-34723809D02*
X51239939Y-34628571D01*
X51239939Y-34628571D02*
X51287558Y-34580952D01*
X51287558Y-34580952D02*
X51430415Y-34485714D01*
X51430415Y-34485714D02*
X51620891Y-34438095D01*
X51620891Y-34438095D02*
X52001843Y-34438095D01*
X52001843Y-34438095D02*
X52097081Y-34485714D01*
X52097081Y-34485714D02*
X52144701Y-34533333D01*
X52144701Y-34533333D02*
X52192320Y-34628571D01*
X52192320Y-34628571D02*
X52192320Y-34819047D01*
X52192320Y-34819047D02*
X52144701Y-34914285D01*
X52144701Y-34914285D02*
X52097081Y-34961904D01*
X52097081Y-34961904D02*
X52001843Y-35009523D01*
X52001843Y-35009523D02*
X51763748Y-35009523D01*
X51763748Y-35009523D02*
X51668510Y-34961904D01*
X51668510Y-34961904D02*
X51620891Y-34914285D01*
X51620891Y-34914285D02*
X51573272Y-34819047D01*
X51573272Y-34819047D02*
X51573272Y-34628571D01*
X51573272Y-34628571D02*
X51620891Y-34533333D01*
X51620891Y-34533333D02*
X51668510Y-34485714D01*
X51668510Y-34485714D02*
X51763748Y-34438095D01*
D11*
X52419642Y-38143832D02*
X52438690Y-38162880D01*
X52438690Y-38162880D02*
X52495832Y-38181927D01*
X52495832Y-38181927D02*
X52533928Y-38181927D01*
X52533928Y-38181927D02*
X52591071Y-38162880D01*
X52591071Y-38162880D02*
X52629166Y-38124784D01*
X52629166Y-38124784D02*
X52648213Y-38086689D01*
X52648213Y-38086689D02*
X52667261Y-38010499D01*
X52667261Y-38010499D02*
X52667261Y-37953356D01*
X52667261Y-37953356D02*
X52648213Y-37877165D01*
X52648213Y-37877165D02*
X52629166Y-37839070D01*
X52629166Y-37839070D02*
X52591071Y-37800975D01*
X52591071Y-37800975D02*
X52533928Y-37781927D01*
X52533928Y-37781927D02*
X52495832Y-37781927D01*
X52495832Y-37781927D02*
X52438690Y-37800975D01*
X52438690Y-37800975D02*
X52419642Y-37820022D01*
X52286309Y-37781927D02*
X52038690Y-37781927D01*
X52038690Y-37781927D02*
X52172023Y-37934308D01*
X52172023Y-37934308D02*
X52114880Y-37934308D01*
X52114880Y-37934308D02*
X52076785Y-37953356D01*
X52076785Y-37953356D02*
X52057737Y-37972403D01*
X52057737Y-37972403D02*
X52038690Y-38010499D01*
X52038690Y-38010499D02*
X52038690Y-38105737D01*
X52038690Y-38105737D02*
X52057737Y-38143832D01*
X52057737Y-38143832D02*
X52076785Y-38162880D01*
X52076785Y-38162880D02*
X52114880Y-38181927D01*
X52114880Y-38181927D02*
X52229166Y-38181927D01*
X52229166Y-38181927D02*
X52267261Y-38162880D01*
X52267261Y-38162880D02*
X52286309Y-38143832D01*
X51791071Y-37781927D02*
X51752976Y-37781927D01*
X51752976Y-37781927D02*
X51714880Y-37800975D01*
X51714880Y-37800975D02*
X51695833Y-37820022D01*
X51695833Y-37820022D02*
X51676785Y-37858118D01*
X51676785Y-37858118D02*
X51657738Y-37934308D01*
X51657738Y-37934308D02*
X51657738Y-38029546D01*
X51657738Y-38029546D02*
X51676785Y-38105737D01*
X51676785Y-38105737D02*
X51695833Y-38143832D01*
X51695833Y-38143832D02*
X51714880Y-38162880D01*
X51714880Y-38162880D02*
X51752976Y-38181927D01*
X51752976Y-38181927D02*
X51791071Y-38181927D01*
X51791071Y-38181927D02*
X51829166Y-38162880D01*
X51829166Y-38162880D02*
X51848214Y-38143832D01*
X51848214Y-38143832D02*
X51867261Y-38105737D01*
X51867261Y-38105737D02*
X51886309Y-38029546D01*
X51886309Y-38029546D02*
X51886309Y-37934308D01*
X51886309Y-37934308D02*
X51867261Y-37858118D01*
X51867261Y-37858118D02*
X51848214Y-37820022D01*
X51848214Y-37820022D02*
X51829166Y-37800975D01*
X51829166Y-37800975D02*
X51791071Y-37781927D01*
D10*
X51032266Y-31739284D02*
X51044171Y-31727380D01*
X51044171Y-31727380D02*
X51056075Y-31691665D01*
X51056075Y-31691665D02*
X51056075Y-31667856D01*
X51056075Y-31667856D02*
X51044171Y-31632142D01*
X51044171Y-31632142D02*
X51020361Y-31608332D01*
X51020361Y-31608332D02*
X50996551Y-31596427D01*
X50996551Y-31596427D02*
X50948932Y-31584523D01*
X50948932Y-31584523D02*
X50913218Y-31584523D01*
X50913218Y-31584523D02*
X50865599Y-31596427D01*
X50865599Y-31596427D02*
X50841790Y-31608332D01*
X50841790Y-31608332D02*
X50817980Y-31632142D01*
X50817980Y-31632142D02*
X50806075Y-31667856D01*
X50806075Y-31667856D02*
X50806075Y-31691665D01*
X50806075Y-31691665D02*
X50817980Y-31727380D01*
X50817980Y-31727380D02*
X50829885Y-31739284D01*
X50829885Y-31834523D02*
X50817980Y-31846427D01*
X50817980Y-31846427D02*
X50806075Y-31870237D01*
X50806075Y-31870237D02*
X50806075Y-31929761D01*
X50806075Y-31929761D02*
X50817980Y-31953570D01*
X50817980Y-31953570D02*
X50829885Y-31965475D01*
X50829885Y-31965475D02*
X50853694Y-31977380D01*
X50853694Y-31977380D02*
X50877504Y-31977380D01*
X50877504Y-31977380D02*
X50913218Y-31965475D01*
X50913218Y-31965475D02*
X51056075Y-31822618D01*
X51056075Y-31822618D02*
X51056075Y-31977380D01*
X50913218Y-32120237D02*
X50901313Y-32096427D01*
X50901313Y-32096427D02*
X50889409Y-32084522D01*
X50889409Y-32084522D02*
X50865599Y-32072618D01*
X50865599Y-32072618D02*
X50853694Y-32072618D01*
X50853694Y-32072618D02*
X50829885Y-32084522D01*
X50829885Y-32084522D02*
X50817980Y-32096427D01*
X50817980Y-32096427D02*
X50806075Y-32120237D01*
X50806075Y-32120237D02*
X50806075Y-32167856D01*
X50806075Y-32167856D02*
X50817980Y-32191665D01*
X50817980Y-32191665D02*
X50829885Y-32203570D01*
X50829885Y-32203570D02*
X50853694Y-32215475D01*
X50853694Y-32215475D02*
X50865599Y-32215475D01*
X50865599Y-32215475D02*
X50889409Y-32203570D01*
X50889409Y-32203570D02*
X50901313Y-32191665D01*
X50901313Y-32191665D02*
X50913218Y-32167856D01*
X50913218Y-32167856D02*
X50913218Y-32120237D01*
X50913218Y-32120237D02*
X50925123Y-32096427D01*
X50925123Y-32096427D02*
X50937028Y-32084522D01*
X50937028Y-32084522D02*
X50960837Y-32072618D01*
X50960837Y-32072618D02*
X51008456Y-32072618D01*
X51008456Y-32072618D02*
X51032266Y-32084522D01*
X51032266Y-32084522D02*
X51044171Y-32096427D01*
X51044171Y-32096427D02*
X51056075Y-32120237D01*
X51056075Y-32120237D02*
X51056075Y-32167856D01*
X51056075Y-32167856D02*
X51044171Y-32191665D01*
X51044171Y-32191665D02*
X51032266Y-32203570D01*
X51032266Y-32203570D02*
X51008456Y-32215475D01*
X51008456Y-32215475D02*
X50960837Y-32215475D01*
X50960837Y-32215475D02*
X50937028Y-32203570D01*
X50937028Y-32203570D02*
X50925123Y-32191665D01*
X50925123Y-32191665D02*
X50913218Y-32167856D01*
D14*
X49964649Y-34116666D02*
X49964649Y-33878571D01*
X49964649Y-33878571D02*
X49464649Y-33878571D01*
X49964649Y-34545238D02*
X49964649Y-34259524D01*
X49964649Y-34402381D02*
X49464649Y-34402381D01*
X49464649Y-34402381D02*
X49536078Y-34354762D01*
X49536078Y-34354762D02*
X49583697Y-34307143D01*
X49583697Y-34307143D02*
X49607506Y-34259524D01*
D15*
X80810951Y-37362902D02*
X80810951Y-37743855D01*
X81077618Y-36943855D02*
X80810951Y-37362902D01*
X80810951Y-37362902D02*
X80544285Y-36943855D01*
X79858571Y-37743855D02*
X80315714Y-37743855D01*
X80087142Y-37743855D02*
X80087142Y-36943855D01*
X80087142Y-36943855D02*
X80163333Y-37058140D01*
X80163333Y-37058140D02*
X80239523Y-37134331D01*
X80239523Y-37134331D02*
X80315714Y-37172426D01*
D10*
X80034765Y-35004285D02*
X80046670Y-34992381D01*
X80046670Y-34992381D02*
X80058574Y-34956666D01*
X80058574Y-34956666D02*
X80058574Y-34932857D01*
X80058574Y-34932857D02*
X80046670Y-34897143D01*
X80046670Y-34897143D02*
X80022860Y-34873333D01*
X80022860Y-34873333D02*
X79999050Y-34861428D01*
X79999050Y-34861428D02*
X79951431Y-34849524D01*
X79951431Y-34849524D02*
X79915717Y-34849524D01*
X79915717Y-34849524D02*
X79868098Y-34861428D01*
X79868098Y-34861428D02*
X79844289Y-34873333D01*
X79844289Y-34873333D02*
X79820479Y-34897143D01*
X79820479Y-34897143D02*
X79808574Y-34932857D01*
X79808574Y-34932857D02*
X79808574Y-34956666D01*
X79808574Y-34956666D02*
X79820479Y-34992381D01*
X79820479Y-34992381D02*
X79832384Y-35004285D01*
X79832384Y-35099524D02*
X79820479Y-35111428D01*
X79820479Y-35111428D02*
X79808574Y-35135238D01*
X79808574Y-35135238D02*
X79808574Y-35194762D01*
X79808574Y-35194762D02*
X79820479Y-35218571D01*
X79820479Y-35218571D02*
X79832384Y-35230476D01*
X79832384Y-35230476D02*
X79856193Y-35242381D01*
X79856193Y-35242381D02*
X79880003Y-35242381D01*
X79880003Y-35242381D02*
X79915717Y-35230476D01*
X79915717Y-35230476D02*
X80058574Y-35087619D01*
X80058574Y-35087619D02*
X80058574Y-35242381D01*
X79808574Y-35468571D02*
X79808574Y-35349523D01*
X79808574Y-35349523D02*
X79927622Y-35337619D01*
X79927622Y-35337619D02*
X79915717Y-35349523D01*
X79915717Y-35349523D02*
X79903812Y-35373333D01*
X79903812Y-35373333D02*
X79903812Y-35432857D01*
X79903812Y-35432857D02*
X79915717Y-35456666D01*
X79915717Y-35456666D02*
X79927622Y-35468571D01*
X79927622Y-35468571D02*
X79951431Y-35480476D01*
X79951431Y-35480476D02*
X80010955Y-35480476D01*
X80010955Y-35480476D02*
X80034765Y-35468571D01*
X80034765Y-35468571D02*
X80046670Y-35456666D01*
X80046670Y-35456666D02*
X80058574Y-35432857D01*
X80058574Y-35432857D02*
X80058574Y-35373333D01*
X80058574Y-35373333D02*
X80046670Y-35349523D01*
X80046670Y-35349523D02*
X80034765Y-35337619D01*
X78495714Y-24613574D02*
X78579047Y-24494527D01*
X78638571Y-24613574D02*
X78638571Y-24363574D01*
X78638571Y-24363574D02*
X78543333Y-24363574D01*
X78543333Y-24363574D02*
X78519523Y-24375479D01*
X78519523Y-24375479D02*
X78507618Y-24387384D01*
X78507618Y-24387384D02*
X78495714Y-24411193D01*
X78495714Y-24411193D02*
X78495714Y-24446908D01*
X78495714Y-24446908D02*
X78507618Y-24470717D01*
X78507618Y-24470717D02*
X78519523Y-24482622D01*
X78519523Y-24482622D02*
X78543333Y-24494527D01*
X78543333Y-24494527D02*
X78638571Y-24494527D01*
X78257618Y-24613574D02*
X78400475Y-24613574D01*
X78329047Y-24613574D02*
X78329047Y-24363574D01*
X78329047Y-24363574D02*
X78352856Y-24399289D01*
X78352856Y-24399289D02*
X78376666Y-24423098D01*
X78376666Y-24423098D02*
X78400475Y-24435003D01*
X78162380Y-24387384D02*
X78150476Y-24375479D01*
X78150476Y-24375479D02*
X78126666Y-24363574D01*
X78126666Y-24363574D02*
X78067142Y-24363574D01*
X78067142Y-24363574D02*
X78043333Y-24375479D01*
X78043333Y-24375479D02*
X78031428Y-24387384D01*
X78031428Y-24387384D02*
X78019523Y-24411193D01*
X78019523Y-24411193D02*
X78019523Y-24435003D01*
X78019523Y-24435003D02*
X78031428Y-24470717D01*
X78031428Y-24470717D02*
X78174285Y-24613574D01*
X78174285Y-24613574D02*
X78019523Y-24613574D01*
X81509765Y-35004285D02*
X81521670Y-34992381D01*
X81521670Y-34992381D02*
X81533574Y-34956666D01*
X81533574Y-34956666D02*
X81533574Y-34932857D01*
X81533574Y-34932857D02*
X81521670Y-34897143D01*
X81521670Y-34897143D02*
X81497860Y-34873333D01*
X81497860Y-34873333D02*
X81474050Y-34861428D01*
X81474050Y-34861428D02*
X81426431Y-34849524D01*
X81426431Y-34849524D02*
X81390717Y-34849524D01*
X81390717Y-34849524D02*
X81343098Y-34861428D01*
X81343098Y-34861428D02*
X81319289Y-34873333D01*
X81319289Y-34873333D02*
X81295479Y-34897143D01*
X81295479Y-34897143D02*
X81283574Y-34932857D01*
X81283574Y-34932857D02*
X81283574Y-34956666D01*
X81283574Y-34956666D02*
X81295479Y-34992381D01*
X81295479Y-34992381D02*
X81307384Y-35004285D01*
X81307384Y-35099524D02*
X81295479Y-35111428D01*
X81295479Y-35111428D02*
X81283574Y-35135238D01*
X81283574Y-35135238D02*
X81283574Y-35194762D01*
X81283574Y-35194762D02*
X81295479Y-35218571D01*
X81295479Y-35218571D02*
X81307384Y-35230476D01*
X81307384Y-35230476D02*
X81331193Y-35242381D01*
X81331193Y-35242381D02*
X81355003Y-35242381D01*
X81355003Y-35242381D02*
X81390717Y-35230476D01*
X81390717Y-35230476D02*
X81533574Y-35087619D01*
X81533574Y-35087619D02*
X81533574Y-35242381D01*
X81283574Y-35325714D02*
X81283574Y-35480476D01*
X81283574Y-35480476D02*
X81378812Y-35397142D01*
X81378812Y-35397142D02*
X81378812Y-35432857D01*
X81378812Y-35432857D02*
X81390717Y-35456666D01*
X81390717Y-35456666D02*
X81402622Y-35468571D01*
X81402622Y-35468571D02*
X81426431Y-35480476D01*
X81426431Y-35480476D02*
X81485955Y-35480476D01*
X81485955Y-35480476D02*
X81509765Y-35468571D01*
X81509765Y-35468571D02*
X81521670Y-35456666D01*
X81521670Y-35456666D02*
X81533574Y-35432857D01*
X81533574Y-35432857D02*
X81533574Y-35361428D01*
X81533574Y-35361428D02*
X81521670Y-35337619D01*
X81521670Y-35337619D02*
X81509765Y-35325714D01*
X70271666Y-27254765D02*
X70283570Y-27266670D01*
X70283570Y-27266670D02*
X70319285Y-27278574D01*
X70319285Y-27278574D02*
X70343094Y-27278574D01*
X70343094Y-27278574D02*
X70378808Y-27266670D01*
X70378808Y-27266670D02*
X70402618Y-27242860D01*
X70402618Y-27242860D02*
X70414523Y-27219050D01*
X70414523Y-27219050D02*
X70426427Y-27171431D01*
X70426427Y-27171431D02*
X70426427Y-27135717D01*
X70426427Y-27135717D02*
X70414523Y-27088098D01*
X70414523Y-27088098D02*
X70402618Y-27064289D01*
X70402618Y-27064289D02*
X70378808Y-27040479D01*
X70378808Y-27040479D02*
X70343094Y-27028574D01*
X70343094Y-27028574D02*
X70319285Y-27028574D01*
X70319285Y-27028574D02*
X70283570Y-27040479D01*
X70283570Y-27040479D02*
X70271666Y-27052384D01*
X70188332Y-27028574D02*
X70033570Y-27028574D01*
X70033570Y-27028574D02*
X70116904Y-27123812D01*
X70116904Y-27123812D02*
X70081189Y-27123812D01*
X70081189Y-27123812D02*
X70057380Y-27135717D01*
X70057380Y-27135717D02*
X70045475Y-27147622D01*
X70045475Y-27147622D02*
X70033570Y-27171431D01*
X70033570Y-27171431D02*
X70033570Y-27230955D01*
X70033570Y-27230955D02*
X70045475Y-27254765D01*
X70045475Y-27254765D02*
X70057380Y-27266670D01*
X70057380Y-27266670D02*
X70081189Y-27278574D01*
X70081189Y-27278574D02*
X70152618Y-27278574D01*
X70152618Y-27278574D02*
X70176427Y-27266670D01*
X70176427Y-27266670D02*
X70188332Y-27254765D01*
X68861666Y-30569765D02*
X68873570Y-30581670D01*
X68873570Y-30581670D02*
X68909285Y-30593574D01*
X68909285Y-30593574D02*
X68933094Y-30593574D01*
X68933094Y-30593574D02*
X68968808Y-30581670D01*
X68968808Y-30581670D02*
X68992618Y-30557860D01*
X68992618Y-30557860D02*
X69004523Y-30534050D01*
X69004523Y-30534050D02*
X69016427Y-30486431D01*
X69016427Y-30486431D02*
X69016427Y-30450717D01*
X69016427Y-30450717D02*
X69004523Y-30403098D01*
X69004523Y-30403098D02*
X68992618Y-30379289D01*
X68992618Y-30379289D02*
X68968808Y-30355479D01*
X68968808Y-30355479D02*
X68933094Y-30343574D01*
X68933094Y-30343574D02*
X68909285Y-30343574D01*
X68909285Y-30343574D02*
X68873570Y-30355479D01*
X68873570Y-30355479D02*
X68861666Y-30367384D01*
X68647380Y-30343574D02*
X68694999Y-30343574D01*
X68694999Y-30343574D02*
X68718808Y-30355479D01*
X68718808Y-30355479D02*
X68730713Y-30367384D01*
X68730713Y-30367384D02*
X68754523Y-30403098D01*
X68754523Y-30403098D02*
X68766427Y-30450717D01*
X68766427Y-30450717D02*
X68766427Y-30545955D01*
X68766427Y-30545955D02*
X68754523Y-30569765D01*
X68754523Y-30569765D02*
X68742618Y-30581670D01*
X68742618Y-30581670D02*
X68718808Y-30593574D01*
X68718808Y-30593574D02*
X68671189Y-30593574D01*
X68671189Y-30593574D02*
X68647380Y-30581670D01*
X68647380Y-30581670D02*
X68635475Y-30569765D01*
X68635475Y-30569765D02*
X68623570Y-30545955D01*
X68623570Y-30545955D02*
X68623570Y-30486431D01*
X68623570Y-30486431D02*
X68635475Y-30462622D01*
X68635475Y-30462622D02*
X68647380Y-30450717D01*
X68647380Y-30450717D02*
X68671189Y-30438812D01*
X68671189Y-30438812D02*
X68718808Y-30438812D01*
X68718808Y-30438812D02*
X68742618Y-30450717D01*
X68742618Y-30450717D02*
X68754523Y-30462622D01*
X68754523Y-30462622D02*
X68766427Y-30486431D01*
X71091476Y-28659765D02*
X71103380Y-28671670D01*
X71103380Y-28671670D02*
X71139095Y-28683574D01*
X71139095Y-28683574D02*
X71162904Y-28683574D01*
X71162904Y-28683574D02*
X71198618Y-28671670D01*
X71198618Y-28671670D02*
X71222428Y-28647860D01*
X71222428Y-28647860D02*
X71234333Y-28624050D01*
X71234333Y-28624050D02*
X71246237Y-28576431D01*
X71246237Y-28576431D02*
X71246237Y-28540717D01*
X71246237Y-28540717D02*
X71234333Y-28493098D01*
X71234333Y-28493098D02*
X71222428Y-28469289D01*
X71222428Y-28469289D02*
X71198618Y-28445479D01*
X71198618Y-28445479D02*
X71162904Y-28433574D01*
X71162904Y-28433574D02*
X71139095Y-28433574D01*
X71139095Y-28433574D02*
X71103380Y-28445479D01*
X71103380Y-28445479D02*
X71091476Y-28457384D01*
X70853380Y-28683574D02*
X70996237Y-28683574D01*
X70924809Y-28683574D02*
X70924809Y-28433574D01*
X70924809Y-28433574D02*
X70948618Y-28469289D01*
X70948618Y-28469289D02*
X70972428Y-28493098D01*
X70972428Y-28493098D02*
X70996237Y-28505003D01*
X70758142Y-28457384D02*
X70746238Y-28445479D01*
X70746238Y-28445479D02*
X70722428Y-28433574D01*
X70722428Y-28433574D02*
X70662904Y-28433574D01*
X70662904Y-28433574D02*
X70639095Y-28445479D01*
X70639095Y-28445479D02*
X70627190Y-28457384D01*
X70627190Y-28457384D02*
X70615285Y-28481193D01*
X70615285Y-28481193D02*
X70615285Y-28505003D01*
X70615285Y-28505003D02*
X70627190Y-28540717D01*
X70627190Y-28540717D02*
X70770047Y-28683574D01*
X70770047Y-28683574D02*
X70615285Y-28683574D01*
X71090714Y-27254765D02*
X71102618Y-27266670D01*
X71102618Y-27266670D02*
X71138333Y-27278574D01*
X71138333Y-27278574D02*
X71162142Y-27278574D01*
X71162142Y-27278574D02*
X71197856Y-27266670D01*
X71197856Y-27266670D02*
X71221666Y-27242860D01*
X71221666Y-27242860D02*
X71233571Y-27219050D01*
X71233571Y-27219050D02*
X71245475Y-27171431D01*
X71245475Y-27171431D02*
X71245475Y-27135717D01*
X71245475Y-27135717D02*
X71233571Y-27088098D01*
X71233571Y-27088098D02*
X71221666Y-27064289D01*
X71221666Y-27064289D02*
X71197856Y-27040479D01*
X71197856Y-27040479D02*
X71162142Y-27028574D01*
X71162142Y-27028574D02*
X71138333Y-27028574D01*
X71138333Y-27028574D02*
X71102618Y-27040479D01*
X71102618Y-27040479D02*
X71090714Y-27052384D01*
X70852618Y-27278574D02*
X70995475Y-27278574D01*
X70924047Y-27278574D02*
X70924047Y-27028574D01*
X70924047Y-27028574D02*
X70947856Y-27064289D01*
X70947856Y-27064289D02*
X70971666Y-27088098D01*
X70971666Y-27088098D02*
X70995475Y-27100003D01*
X70614523Y-27278574D02*
X70757380Y-27278574D01*
X70685952Y-27278574D02*
X70685952Y-27028574D01*
X70685952Y-27028574D02*
X70709761Y-27064289D01*
X70709761Y-27064289D02*
X70733571Y-27088098D01*
X70733571Y-27088098D02*
X70757380Y-27100003D01*
X73141666Y-38319765D02*
X73153570Y-38331670D01*
X73153570Y-38331670D02*
X73189285Y-38343574D01*
X73189285Y-38343574D02*
X73213094Y-38343574D01*
X73213094Y-38343574D02*
X73248808Y-38331670D01*
X73248808Y-38331670D02*
X73272618Y-38307860D01*
X73272618Y-38307860D02*
X73284523Y-38284050D01*
X73284523Y-38284050D02*
X73296427Y-38236431D01*
X73296427Y-38236431D02*
X73296427Y-38200717D01*
X73296427Y-38200717D02*
X73284523Y-38153098D01*
X73284523Y-38153098D02*
X73272618Y-38129289D01*
X73272618Y-38129289D02*
X73248808Y-38105479D01*
X73248808Y-38105479D02*
X73213094Y-38093574D01*
X73213094Y-38093574D02*
X73189285Y-38093574D01*
X73189285Y-38093574D02*
X73153570Y-38105479D01*
X73153570Y-38105479D02*
X73141666Y-38117384D01*
X73046427Y-38117384D02*
X73034523Y-38105479D01*
X73034523Y-38105479D02*
X73010713Y-38093574D01*
X73010713Y-38093574D02*
X72951189Y-38093574D01*
X72951189Y-38093574D02*
X72927380Y-38105479D01*
X72927380Y-38105479D02*
X72915475Y-38117384D01*
X72915475Y-38117384D02*
X72903570Y-38141193D01*
X72903570Y-38141193D02*
X72903570Y-38165003D01*
X72903570Y-38165003D02*
X72915475Y-38200717D01*
X72915475Y-38200717D02*
X73058332Y-38343574D01*
X73058332Y-38343574D02*
X72903570Y-38343574D01*
X72372427Y-28683576D02*
X72455760Y-28564529D01*
X72515284Y-28683576D02*
X72515284Y-28433576D01*
X72515284Y-28433576D02*
X72420046Y-28433576D01*
X72420046Y-28433576D02*
X72396236Y-28445481D01*
X72396236Y-28445481D02*
X72384331Y-28457386D01*
X72384331Y-28457386D02*
X72372427Y-28481195D01*
X72372427Y-28481195D02*
X72372427Y-28516910D01*
X72372427Y-28516910D02*
X72384331Y-28540719D01*
X72384331Y-28540719D02*
X72396236Y-28552624D01*
X72396236Y-28552624D02*
X72420046Y-28564529D01*
X72420046Y-28564529D02*
X72515284Y-28564529D01*
X72158141Y-28433576D02*
X72205760Y-28433576D01*
X72205760Y-28433576D02*
X72229569Y-28445481D01*
X72229569Y-28445481D02*
X72241474Y-28457386D01*
X72241474Y-28457386D02*
X72265284Y-28493100D01*
X72265284Y-28493100D02*
X72277188Y-28540719D01*
X72277188Y-28540719D02*
X72277188Y-28635957D01*
X72277188Y-28635957D02*
X72265284Y-28659767D01*
X72265284Y-28659767D02*
X72253379Y-28671672D01*
X72253379Y-28671672D02*
X72229569Y-28683576D01*
X72229569Y-28683576D02*
X72181950Y-28683576D01*
X72181950Y-28683576D02*
X72158141Y-28671672D01*
X72158141Y-28671672D02*
X72146236Y-28659767D01*
X72146236Y-28659767D02*
X72134331Y-28635957D01*
X72134331Y-28635957D02*
X72134331Y-28576433D01*
X72134331Y-28576433D02*
X72146236Y-28552624D01*
X72146236Y-28552624D02*
X72158141Y-28540719D01*
X72158141Y-28540719D02*
X72181950Y-28528814D01*
X72181950Y-28528814D02*
X72229569Y-28528814D01*
X72229569Y-28528814D02*
X72253379Y-28540719D01*
X72253379Y-28540719D02*
X72265284Y-28552624D01*
X72265284Y-28552624D02*
X72277188Y-28576433D01*
X77841666Y-34834765D02*
X77853570Y-34846670D01*
X77853570Y-34846670D02*
X77889285Y-34858574D01*
X77889285Y-34858574D02*
X77913094Y-34858574D01*
X77913094Y-34858574D02*
X77948808Y-34846670D01*
X77948808Y-34846670D02*
X77972618Y-34822860D01*
X77972618Y-34822860D02*
X77984523Y-34799050D01*
X77984523Y-34799050D02*
X77996427Y-34751431D01*
X77996427Y-34751431D02*
X77996427Y-34715717D01*
X77996427Y-34715717D02*
X77984523Y-34668098D01*
X77984523Y-34668098D02*
X77972618Y-34644289D01*
X77972618Y-34644289D02*
X77948808Y-34620479D01*
X77948808Y-34620479D02*
X77913094Y-34608574D01*
X77913094Y-34608574D02*
X77889285Y-34608574D01*
X77889285Y-34608574D02*
X77853570Y-34620479D01*
X77853570Y-34620479D02*
X77841666Y-34632384D01*
X77758332Y-34608574D02*
X77591666Y-34608574D01*
X77591666Y-34608574D02*
X77698808Y-34858574D01*
X71672429Y-28683574D02*
X71755762Y-28564527D01*
X71815286Y-28683574D02*
X71815286Y-28433574D01*
X71815286Y-28433574D02*
X71720048Y-28433574D01*
X71720048Y-28433574D02*
X71696238Y-28445479D01*
X71696238Y-28445479D02*
X71684333Y-28457384D01*
X71684333Y-28457384D02*
X71672429Y-28481193D01*
X71672429Y-28481193D02*
X71672429Y-28516908D01*
X71672429Y-28516908D02*
X71684333Y-28540717D01*
X71684333Y-28540717D02*
X71696238Y-28552622D01*
X71696238Y-28552622D02*
X71720048Y-28564527D01*
X71720048Y-28564527D02*
X71815286Y-28564527D01*
X71589095Y-28433574D02*
X71422429Y-28433574D01*
X71422429Y-28433574D02*
X71529571Y-28683574D01*
X73890714Y-28659765D02*
X73902618Y-28671670D01*
X73902618Y-28671670D02*
X73938333Y-28683574D01*
X73938333Y-28683574D02*
X73962142Y-28683574D01*
X73962142Y-28683574D02*
X73997856Y-28671670D01*
X73997856Y-28671670D02*
X74021666Y-28647860D01*
X74021666Y-28647860D02*
X74033571Y-28624050D01*
X74033571Y-28624050D02*
X74045475Y-28576431D01*
X74045475Y-28576431D02*
X74045475Y-28540717D01*
X74045475Y-28540717D02*
X74033571Y-28493098D01*
X74033571Y-28493098D02*
X74021666Y-28469289D01*
X74021666Y-28469289D02*
X73997856Y-28445479D01*
X73997856Y-28445479D02*
X73962142Y-28433574D01*
X73962142Y-28433574D02*
X73938333Y-28433574D01*
X73938333Y-28433574D02*
X73902618Y-28445479D01*
X73902618Y-28445479D02*
X73890714Y-28457384D01*
X73652618Y-28683574D02*
X73795475Y-28683574D01*
X73724047Y-28683574D02*
X73724047Y-28433574D01*
X73724047Y-28433574D02*
X73747856Y-28469289D01*
X73747856Y-28469289D02*
X73771666Y-28493098D01*
X73771666Y-28493098D02*
X73795475Y-28505003D01*
X73569285Y-28433574D02*
X73414523Y-28433574D01*
X73414523Y-28433574D02*
X73497857Y-28528812D01*
X73497857Y-28528812D02*
X73462142Y-28528812D01*
X73462142Y-28528812D02*
X73438333Y-28540717D01*
X73438333Y-28540717D02*
X73426428Y-28552622D01*
X73426428Y-28552622D02*
X73414523Y-28576431D01*
X73414523Y-28576431D02*
X73414523Y-28635955D01*
X73414523Y-28635955D02*
X73426428Y-28659765D01*
X73426428Y-28659765D02*
X73438333Y-28671670D01*
X73438333Y-28671670D02*
X73462142Y-28683574D01*
X73462142Y-28683574D02*
X73533571Y-28683574D01*
X73533571Y-28683574D02*
X73557380Y-28671670D01*
X73557380Y-28671670D02*
X73569285Y-28659765D01*
D12*
X74061904Y-32854819D02*
X74061904Y-33664342D01*
X74061904Y-33664342D02*
X74014285Y-33759580D01*
X74014285Y-33759580D02*
X73966666Y-33807200D01*
X73966666Y-33807200D02*
X73871428Y-33854819D01*
X73871428Y-33854819D02*
X73680952Y-33854819D01*
X73680952Y-33854819D02*
X73585714Y-33807200D01*
X73585714Y-33807200D02*
X73538095Y-33759580D01*
X73538095Y-33759580D02*
X73490476Y-33664342D01*
X73490476Y-33664342D02*
X73490476Y-32854819D01*
X73061904Y-32950057D02*
X73014285Y-32902438D01*
X73014285Y-32902438D02*
X72919047Y-32854819D01*
X72919047Y-32854819D02*
X72680952Y-32854819D01*
X72680952Y-32854819D02*
X72585714Y-32902438D01*
X72585714Y-32902438D02*
X72538095Y-32950057D01*
X72538095Y-32950057D02*
X72490476Y-33045295D01*
X72490476Y-33045295D02*
X72490476Y-33140533D01*
X72490476Y-33140533D02*
X72538095Y-33283390D01*
X72538095Y-33283390D02*
X73109523Y-33854819D01*
X73109523Y-33854819D02*
X72490476Y-33854819D01*
D10*
X69690714Y-28659765D02*
X69702618Y-28671670D01*
X69702618Y-28671670D02*
X69738333Y-28683574D01*
X69738333Y-28683574D02*
X69762142Y-28683574D01*
X69762142Y-28683574D02*
X69797856Y-28671670D01*
X69797856Y-28671670D02*
X69821666Y-28647860D01*
X69821666Y-28647860D02*
X69833571Y-28624050D01*
X69833571Y-28624050D02*
X69845475Y-28576431D01*
X69845475Y-28576431D02*
X69845475Y-28540717D01*
X69845475Y-28540717D02*
X69833571Y-28493098D01*
X69833571Y-28493098D02*
X69821666Y-28469289D01*
X69821666Y-28469289D02*
X69797856Y-28445479D01*
X69797856Y-28445479D02*
X69762142Y-28433574D01*
X69762142Y-28433574D02*
X69738333Y-28433574D01*
X69738333Y-28433574D02*
X69702618Y-28445479D01*
X69702618Y-28445479D02*
X69690714Y-28457384D01*
X69452618Y-28683574D02*
X69595475Y-28683574D01*
X69524047Y-28683574D02*
X69524047Y-28433574D01*
X69524047Y-28433574D02*
X69547856Y-28469289D01*
X69547856Y-28469289D02*
X69571666Y-28493098D01*
X69571666Y-28493098D02*
X69595475Y-28505003D01*
X69297857Y-28433574D02*
X69274047Y-28433574D01*
X69274047Y-28433574D02*
X69250238Y-28445479D01*
X69250238Y-28445479D02*
X69238333Y-28457384D01*
X69238333Y-28457384D02*
X69226428Y-28481193D01*
X69226428Y-28481193D02*
X69214523Y-28528812D01*
X69214523Y-28528812D02*
X69214523Y-28588336D01*
X69214523Y-28588336D02*
X69226428Y-28635955D01*
X69226428Y-28635955D02*
X69238333Y-28659765D01*
X69238333Y-28659765D02*
X69250238Y-28671670D01*
X69250238Y-28671670D02*
X69274047Y-28683574D01*
X69274047Y-28683574D02*
X69297857Y-28683574D01*
X69297857Y-28683574D02*
X69321666Y-28671670D01*
X69321666Y-28671670D02*
X69333571Y-28659765D01*
X69333571Y-28659765D02*
X69345476Y-28635955D01*
X69345476Y-28635955D02*
X69357380Y-28588336D01*
X69357380Y-28588336D02*
X69357380Y-28528812D01*
X69357380Y-28528812D02*
X69345476Y-28481193D01*
X69345476Y-28481193D02*
X69333571Y-28457384D01*
X69333571Y-28457384D02*
X69321666Y-28445479D01*
X69321666Y-28445479D02*
X69297857Y-28433574D01*
X73072428Y-28659765D02*
X73084332Y-28671670D01*
X73084332Y-28671670D02*
X73120047Y-28683574D01*
X73120047Y-28683574D02*
X73143856Y-28683574D01*
X73143856Y-28683574D02*
X73179570Y-28671670D01*
X73179570Y-28671670D02*
X73203380Y-28647860D01*
X73203380Y-28647860D02*
X73215285Y-28624050D01*
X73215285Y-28624050D02*
X73227189Y-28576431D01*
X73227189Y-28576431D02*
X73227189Y-28540717D01*
X73227189Y-28540717D02*
X73215285Y-28493098D01*
X73215285Y-28493098D02*
X73203380Y-28469289D01*
X73203380Y-28469289D02*
X73179570Y-28445479D01*
X73179570Y-28445479D02*
X73143856Y-28433574D01*
X73143856Y-28433574D02*
X73120047Y-28433574D01*
X73120047Y-28433574D02*
X73084332Y-28445479D01*
X73084332Y-28445479D02*
X73072428Y-28457384D01*
X72953380Y-28683574D02*
X72905761Y-28683574D01*
X72905761Y-28683574D02*
X72881951Y-28671670D01*
X72881951Y-28671670D02*
X72870047Y-28659765D01*
X72870047Y-28659765D02*
X72846237Y-28624050D01*
X72846237Y-28624050D02*
X72834332Y-28576431D01*
X72834332Y-28576431D02*
X72834332Y-28481193D01*
X72834332Y-28481193D02*
X72846237Y-28457384D01*
X72846237Y-28457384D02*
X72858142Y-28445479D01*
X72858142Y-28445479D02*
X72881951Y-28433574D01*
X72881951Y-28433574D02*
X72929570Y-28433574D01*
X72929570Y-28433574D02*
X72953380Y-28445479D01*
X72953380Y-28445479D02*
X72965285Y-28457384D01*
X72965285Y-28457384D02*
X72977189Y-28481193D01*
X72977189Y-28481193D02*
X72977189Y-28540717D01*
X72977189Y-28540717D02*
X72965285Y-28564527D01*
X72965285Y-28564527D02*
X72953380Y-28576431D01*
X72953380Y-28576431D02*
X72929570Y-28588336D01*
X72929570Y-28588336D02*
X72881951Y-28588336D01*
X72881951Y-28588336D02*
X72858142Y-28576431D01*
X72858142Y-28576431D02*
X72846237Y-28564527D01*
X72846237Y-28564527D02*
X72834332Y-28540717D01*
X72560715Y-38319767D02*
X72572619Y-38331672D01*
X72572619Y-38331672D02*
X72608334Y-38343576D01*
X72608334Y-38343576D02*
X72632143Y-38343576D01*
X72632143Y-38343576D02*
X72667857Y-38331672D01*
X72667857Y-38331672D02*
X72691667Y-38307862D01*
X72691667Y-38307862D02*
X72703572Y-38284052D01*
X72703572Y-38284052D02*
X72715476Y-38236433D01*
X72715476Y-38236433D02*
X72715476Y-38200719D01*
X72715476Y-38200719D02*
X72703572Y-38153100D01*
X72703572Y-38153100D02*
X72691667Y-38129291D01*
X72691667Y-38129291D02*
X72667857Y-38105481D01*
X72667857Y-38105481D02*
X72632143Y-38093576D01*
X72632143Y-38093576D02*
X72608334Y-38093576D01*
X72608334Y-38093576D02*
X72572619Y-38105481D01*
X72572619Y-38105481D02*
X72560715Y-38117386D01*
X72322619Y-38343576D02*
X72465476Y-38343576D01*
X72394048Y-38343576D02*
X72394048Y-38093576D01*
X72394048Y-38093576D02*
X72417857Y-38129291D01*
X72417857Y-38129291D02*
X72441667Y-38153100D01*
X72441667Y-38153100D02*
X72465476Y-38165005D01*
X72108334Y-38176910D02*
X72108334Y-38343576D01*
X72167858Y-38081672D02*
X72227381Y-38260243D01*
X72227381Y-38260243D02*
X72072620Y-38260243D01*
X70271666Y-28659765D02*
X70283570Y-28671670D01*
X70283570Y-28671670D02*
X70319285Y-28683574D01*
X70319285Y-28683574D02*
X70343094Y-28683574D01*
X70343094Y-28683574D02*
X70378808Y-28671670D01*
X70378808Y-28671670D02*
X70402618Y-28647860D01*
X70402618Y-28647860D02*
X70414523Y-28624050D01*
X70414523Y-28624050D02*
X70426427Y-28576431D01*
X70426427Y-28576431D02*
X70426427Y-28540717D01*
X70426427Y-28540717D02*
X70414523Y-28493098D01*
X70414523Y-28493098D02*
X70402618Y-28469289D01*
X70402618Y-28469289D02*
X70378808Y-28445479D01*
X70378808Y-28445479D02*
X70343094Y-28433574D01*
X70343094Y-28433574D02*
X70319285Y-28433574D01*
X70319285Y-28433574D02*
X70283570Y-28445479D01*
X70283570Y-28445479D02*
X70271666Y-28457384D01*
X70128808Y-28540717D02*
X70152618Y-28528812D01*
X70152618Y-28528812D02*
X70164523Y-28516908D01*
X70164523Y-28516908D02*
X70176427Y-28493098D01*
X70176427Y-28493098D02*
X70176427Y-28481193D01*
X70176427Y-28481193D02*
X70164523Y-28457384D01*
X70164523Y-28457384D02*
X70152618Y-28445479D01*
X70152618Y-28445479D02*
X70128808Y-28433574D01*
X70128808Y-28433574D02*
X70081189Y-28433574D01*
X70081189Y-28433574D02*
X70057380Y-28445479D01*
X70057380Y-28445479D02*
X70045475Y-28457384D01*
X70045475Y-28457384D02*
X70033570Y-28481193D01*
X70033570Y-28481193D02*
X70033570Y-28493098D01*
X70033570Y-28493098D02*
X70045475Y-28516908D01*
X70045475Y-28516908D02*
X70057380Y-28528812D01*
X70057380Y-28528812D02*
X70081189Y-28540717D01*
X70081189Y-28540717D02*
X70128808Y-28540717D01*
X70128808Y-28540717D02*
X70152618Y-28552622D01*
X70152618Y-28552622D02*
X70164523Y-28564527D01*
X70164523Y-28564527D02*
X70176427Y-28588336D01*
X70176427Y-28588336D02*
X70176427Y-28635955D01*
X70176427Y-28635955D02*
X70164523Y-28659765D01*
X70164523Y-28659765D02*
X70152618Y-28671670D01*
X70152618Y-28671670D02*
X70128808Y-28683574D01*
X70128808Y-28683574D02*
X70081189Y-28683574D01*
X70081189Y-28683574D02*
X70057380Y-28671670D01*
X70057380Y-28671670D02*
X70045475Y-28659765D01*
X70045475Y-28659765D02*
X70033570Y-28635955D01*
X70033570Y-28635955D02*
X70033570Y-28588336D01*
X70033570Y-28588336D02*
X70045475Y-28564527D01*
X70045475Y-28564527D02*
X70057380Y-28552622D01*
X70057380Y-28552622D02*
X70081189Y-28540717D01*
X68559765Y-34358333D02*
X68571670Y-34346429D01*
X68571670Y-34346429D02*
X68583574Y-34310714D01*
X68583574Y-34310714D02*
X68583574Y-34286905D01*
X68583574Y-34286905D02*
X68571670Y-34251191D01*
X68571670Y-34251191D02*
X68547860Y-34227381D01*
X68547860Y-34227381D02*
X68524050Y-34215476D01*
X68524050Y-34215476D02*
X68476431Y-34203572D01*
X68476431Y-34203572D02*
X68440717Y-34203572D01*
X68440717Y-34203572D02*
X68393098Y-34215476D01*
X68393098Y-34215476D02*
X68369289Y-34227381D01*
X68369289Y-34227381D02*
X68345479Y-34251191D01*
X68345479Y-34251191D02*
X68333574Y-34286905D01*
X68333574Y-34286905D02*
X68333574Y-34310714D01*
X68333574Y-34310714D02*
X68345479Y-34346429D01*
X68345479Y-34346429D02*
X68357384Y-34358333D01*
X68416908Y-34572619D02*
X68583574Y-34572619D01*
X68321670Y-34513095D02*
X68500241Y-34453572D01*
X68500241Y-34453572D02*
X68500241Y-34608333D01*
X77821666Y-30569765D02*
X77833570Y-30581670D01*
X77833570Y-30581670D02*
X77869285Y-30593574D01*
X77869285Y-30593574D02*
X77893094Y-30593574D01*
X77893094Y-30593574D02*
X77928808Y-30581670D01*
X77928808Y-30581670D02*
X77952618Y-30557860D01*
X77952618Y-30557860D02*
X77964523Y-30534050D01*
X77964523Y-30534050D02*
X77976427Y-30486431D01*
X77976427Y-30486431D02*
X77976427Y-30450717D01*
X77976427Y-30450717D02*
X77964523Y-30403098D01*
X77964523Y-30403098D02*
X77952618Y-30379289D01*
X77952618Y-30379289D02*
X77928808Y-30355479D01*
X77928808Y-30355479D02*
X77893094Y-30343574D01*
X77893094Y-30343574D02*
X77869285Y-30343574D01*
X77869285Y-30343574D02*
X77833570Y-30355479D01*
X77833570Y-30355479D02*
X77821666Y-30367384D01*
X77595475Y-30343574D02*
X77714523Y-30343574D01*
X77714523Y-30343574D02*
X77726427Y-30462622D01*
X77726427Y-30462622D02*
X77714523Y-30450717D01*
X77714523Y-30450717D02*
X77690713Y-30438812D01*
X77690713Y-30438812D02*
X77631189Y-30438812D01*
X77631189Y-30438812D02*
X77607380Y-30450717D01*
X77607380Y-30450717D02*
X77595475Y-30462622D01*
X77595475Y-30462622D02*
X77583570Y-30486431D01*
X77583570Y-30486431D02*
X77583570Y-30545955D01*
X77583570Y-30545955D02*
X77595475Y-30569765D01*
X77595475Y-30569765D02*
X77607380Y-30581670D01*
X77607380Y-30581670D02*
X77631189Y-30593574D01*
X77631189Y-30593574D02*
X77690713Y-30593574D01*
X77690713Y-30593574D02*
X77714523Y-30581670D01*
X77714523Y-30581670D02*
X77726427Y-30569765D01*
X73071666Y-27259765D02*
X73083570Y-27271670D01*
X73083570Y-27271670D02*
X73119285Y-27283574D01*
X73119285Y-27283574D02*
X73143094Y-27283574D01*
X73143094Y-27283574D02*
X73178808Y-27271670D01*
X73178808Y-27271670D02*
X73202618Y-27247860D01*
X73202618Y-27247860D02*
X73214523Y-27224050D01*
X73214523Y-27224050D02*
X73226427Y-27176431D01*
X73226427Y-27176431D02*
X73226427Y-27140717D01*
X73226427Y-27140717D02*
X73214523Y-27093098D01*
X73214523Y-27093098D02*
X73202618Y-27069289D01*
X73202618Y-27069289D02*
X73178808Y-27045479D01*
X73178808Y-27045479D02*
X73143094Y-27033574D01*
X73143094Y-27033574D02*
X73119285Y-27033574D01*
X73119285Y-27033574D02*
X73083570Y-27045479D01*
X73083570Y-27045479D02*
X73071666Y-27057384D01*
X72833570Y-27283574D02*
X72976427Y-27283574D01*
X72904999Y-27283574D02*
X72904999Y-27033574D01*
X72904999Y-27033574D02*
X72928808Y-27069289D01*
X72928808Y-27069289D02*
X72952618Y-27093098D01*
X72952618Y-27093098D02*
X72976427Y-27105003D01*
D11*
X62781927Y-29695238D02*
X63105737Y-29695238D01*
X63105737Y-29695238D02*
X63143832Y-29714285D01*
X63143832Y-29714285D02*
X63162880Y-29733333D01*
X63162880Y-29733333D02*
X63181927Y-29771428D01*
X63181927Y-29771428D02*
X63181927Y-29847619D01*
X63181927Y-29847619D02*
X63162880Y-29885714D01*
X63162880Y-29885714D02*
X63143832Y-29904761D01*
X63143832Y-29904761D02*
X63105737Y-29923809D01*
X63105737Y-29923809D02*
X62781927Y-29923809D01*
X63181927Y-30323809D02*
X63181927Y-30095238D01*
X63181927Y-30209524D02*
X62781927Y-30209524D01*
X62781927Y-30209524D02*
X62839070Y-30171428D01*
X62839070Y-30171428D02*
X62877165Y-30133333D01*
X62877165Y-30133333D02*
X62896213Y-30095238D01*
D10*
X60971665Y-29053574D02*
X61054998Y-28934527D01*
X61114522Y-29053574D02*
X61114522Y-28803574D01*
X61114522Y-28803574D02*
X61019284Y-28803574D01*
X61019284Y-28803574D02*
X60995474Y-28815479D01*
X60995474Y-28815479D02*
X60983569Y-28827384D01*
X60983569Y-28827384D02*
X60971665Y-28851193D01*
X60971665Y-28851193D02*
X60971665Y-28886908D01*
X60971665Y-28886908D02*
X60983569Y-28910717D01*
X60983569Y-28910717D02*
X60995474Y-28922622D01*
X60995474Y-28922622D02*
X61019284Y-28934527D01*
X61019284Y-28934527D02*
X61114522Y-28934527D01*
X60888331Y-28803574D02*
X60733569Y-28803574D01*
X60733569Y-28803574D02*
X60816903Y-28898812D01*
X60816903Y-28898812D02*
X60781188Y-28898812D01*
X60781188Y-28898812D02*
X60757379Y-28910717D01*
X60757379Y-28910717D02*
X60745474Y-28922622D01*
X60745474Y-28922622D02*
X60733569Y-28946431D01*
X60733569Y-28946431D02*
X60733569Y-29005955D01*
X60733569Y-29005955D02*
X60745474Y-29029765D01*
X60745474Y-29029765D02*
X60757379Y-29041670D01*
X60757379Y-29041670D02*
X60781188Y-29053574D01*
X60781188Y-29053574D02*
X60852617Y-29053574D01*
X60852617Y-29053574D02*
X60876426Y-29041670D01*
X60876426Y-29041670D02*
X60888331Y-29029765D01*
X65121665Y-29068574D02*
X65204998Y-28949527D01*
X65264522Y-29068574D02*
X65264522Y-28818574D01*
X65264522Y-28818574D02*
X65169284Y-28818574D01*
X65169284Y-28818574D02*
X65145474Y-28830479D01*
X65145474Y-28830479D02*
X65133569Y-28842384D01*
X65133569Y-28842384D02*
X65121665Y-28866193D01*
X65121665Y-28866193D02*
X65121665Y-28901908D01*
X65121665Y-28901908D02*
X65133569Y-28925717D01*
X65133569Y-28925717D02*
X65145474Y-28937622D01*
X65145474Y-28937622D02*
X65169284Y-28949527D01*
X65169284Y-28949527D02*
X65264522Y-28949527D01*
X65026426Y-28842384D02*
X65014522Y-28830479D01*
X65014522Y-28830479D02*
X64990712Y-28818574D01*
X64990712Y-28818574D02*
X64931188Y-28818574D01*
X64931188Y-28818574D02*
X64907379Y-28830479D01*
X64907379Y-28830479D02*
X64895474Y-28842384D01*
X64895474Y-28842384D02*
X64883569Y-28866193D01*
X64883569Y-28866193D02*
X64883569Y-28890003D01*
X64883569Y-28890003D02*
X64895474Y-28925717D01*
X64895474Y-28925717D02*
X65038331Y-29068574D01*
X65038331Y-29068574D02*
X64883569Y-29068574D01*
X73841666Y-38343574D02*
X73924999Y-38224527D01*
X73984523Y-38343574D02*
X73984523Y-38093574D01*
X73984523Y-38093574D02*
X73889285Y-38093574D01*
X73889285Y-38093574D02*
X73865475Y-38105479D01*
X73865475Y-38105479D02*
X73853570Y-38117384D01*
X73853570Y-38117384D02*
X73841666Y-38141193D01*
X73841666Y-38141193D02*
X73841666Y-38176908D01*
X73841666Y-38176908D02*
X73853570Y-38200717D01*
X73853570Y-38200717D02*
X73865475Y-38212622D01*
X73865475Y-38212622D02*
X73889285Y-38224527D01*
X73889285Y-38224527D02*
X73984523Y-38224527D01*
X73603570Y-38343574D02*
X73746427Y-38343574D01*
X73674999Y-38343574D02*
X73674999Y-38093574D01*
X73674999Y-38093574D02*
X73698808Y-38129289D01*
X73698808Y-38129289D02*
X73722618Y-38153098D01*
X73722618Y-38153098D02*
X73746427Y-38165003D01*
D16*
X100383095Y-24419892D02*
X100421190Y-24400845D01*
X100421190Y-24400845D02*
X100459285Y-24362750D01*
X100459285Y-24362750D02*
X100516428Y-24305607D01*
X100516428Y-24305607D02*
X100554523Y-24286559D01*
X100554523Y-24286559D02*
X100592619Y-24286559D01*
X100573571Y-24381797D02*
X100611666Y-24362750D01*
X100611666Y-24362750D02*
X100649761Y-24324654D01*
X100649761Y-24324654D02*
X100668809Y-24248464D01*
X100668809Y-24248464D02*
X100668809Y-24115130D01*
X100668809Y-24115130D02*
X100649761Y-24038940D01*
X100649761Y-24038940D02*
X100611666Y-24000845D01*
X100611666Y-24000845D02*
X100573571Y-23981797D01*
X100573571Y-23981797D02*
X100497380Y-23981797D01*
X100497380Y-23981797D02*
X100459285Y-24000845D01*
X100459285Y-24000845D02*
X100421190Y-24038940D01*
X100421190Y-24038940D02*
X100402142Y-24115130D01*
X100402142Y-24115130D02*
X100402142Y-24248464D01*
X100402142Y-24248464D02*
X100421190Y-24324654D01*
X100421190Y-24324654D02*
X100459285Y-24362750D01*
X100459285Y-24362750D02*
X100497380Y-24381797D01*
X100497380Y-24381797D02*
X100573571Y-24381797D01*
X100021190Y-24381797D02*
X100249761Y-24381797D01*
X100135475Y-24381797D02*
X100135475Y-23981797D01*
X100135475Y-23981797D02*
X100173571Y-24038940D01*
X100173571Y-24038940D02*
X100211666Y-24077035D01*
X100211666Y-24077035D02*
X100249761Y-24096083D01*
D17*
X52416666Y-21603600D02*
X52345238Y-21627409D01*
X52345238Y-21627409D02*
X52226190Y-21627409D01*
X52226190Y-21627409D02*
X52178571Y-21603600D01*
X52178571Y-21603600D02*
X52154762Y-21579790D01*
X52154762Y-21579790D02*
X52130952Y-21532171D01*
X52130952Y-21532171D02*
X52130952Y-21484552D01*
X52130952Y-21484552D02*
X52154762Y-21436933D01*
X52154762Y-21436933D02*
X52178571Y-21413123D01*
X52178571Y-21413123D02*
X52226190Y-21389314D01*
X52226190Y-21389314D02*
X52321428Y-21365504D01*
X52321428Y-21365504D02*
X52369047Y-21341695D01*
X52369047Y-21341695D02*
X52392857Y-21317885D01*
X52392857Y-21317885D02*
X52416666Y-21270266D01*
X52416666Y-21270266D02*
X52416666Y-21222647D01*
X52416666Y-21222647D02*
X52392857Y-21175028D01*
X52392857Y-21175028D02*
X52369047Y-21151219D01*
X52369047Y-21151219D02*
X52321428Y-21127409D01*
X52321428Y-21127409D02*
X52202381Y-21127409D01*
X52202381Y-21127409D02*
X52130952Y-21151219D01*
X51964286Y-21127409D02*
X51845238Y-21627409D01*
X51845238Y-21627409D02*
X51750000Y-21270266D01*
X51750000Y-21270266D02*
X51654762Y-21627409D01*
X51654762Y-21627409D02*
X51535715Y-21127409D01*
X51392857Y-21127409D02*
X51083333Y-21127409D01*
X51083333Y-21127409D02*
X51250000Y-21317885D01*
X51250000Y-21317885D02*
X51178571Y-21317885D01*
X51178571Y-21317885D02*
X51130952Y-21341695D01*
X51130952Y-21341695D02*
X51107143Y-21365504D01*
X51107143Y-21365504D02*
X51083333Y-21413123D01*
X51083333Y-21413123D02*
X51083333Y-21532171D01*
X51083333Y-21532171D02*
X51107143Y-21579790D01*
X51107143Y-21579790D02*
X51130952Y-21603600D01*
X51130952Y-21603600D02*
X51178571Y-21627409D01*
X51178571Y-21627409D02*
X51321428Y-21627409D01*
X51321428Y-21627409D02*
X51369047Y-21603600D01*
X51369047Y-21603600D02*
X51392857Y-21579790D01*
D10*
X78160714Y-36589765D02*
X78172618Y-36601670D01*
X78172618Y-36601670D02*
X78208333Y-36613574D01*
X78208333Y-36613574D02*
X78232142Y-36613574D01*
X78232142Y-36613574D02*
X78267856Y-36601670D01*
X78267856Y-36601670D02*
X78291666Y-36577860D01*
X78291666Y-36577860D02*
X78303571Y-36554050D01*
X78303571Y-36554050D02*
X78315475Y-36506431D01*
X78315475Y-36506431D02*
X78315475Y-36470717D01*
X78315475Y-36470717D02*
X78303571Y-36423098D01*
X78303571Y-36423098D02*
X78291666Y-36399289D01*
X78291666Y-36399289D02*
X78267856Y-36375479D01*
X78267856Y-36375479D02*
X78232142Y-36363574D01*
X78232142Y-36363574D02*
X78208333Y-36363574D01*
X78208333Y-36363574D02*
X78172618Y-36375479D01*
X78172618Y-36375479D02*
X78160714Y-36387384D01*
X77922618Y-36613574D02*
X78065475Y-36613574D01*
X77994047Y-36613574D02*
X77994047Y-36363574D01*
X77994047Y-36363574D02*
X78017856Y-36399289D01*
X78017856Y-36399289D02*
X78041666Y-36423098D01*
X78041666Y-36423098D02*
X78065475Y-36435003D01*
X77696428Y-36363574D02*
X77815476Y-36363574D01*
X77815476Y-36363574D02*
X77827380Y-36482622D01*
X77827380Y-36482622D02*
X77815476Y-36470717D01*
X77815476Y-36470717D02*
X77791666Y-36458812D01*
X77791666Y-36458812D02*
X77732142Y-36458812D01*
X77732142Y-36458812D02*
X77708333Y-36470717D01*
X77708333Y-36470717D02*
X77696428Y-36482622D01*
X77696428Y-36482622D02*
X77684523Y-36506431D01*
X77684523Y-36506431D02*
X77684523Y-36565955D01*
X77684523Y-36565955D02*
X77696428Y-36589765D01*
X77696428Y-36589765D02*
X77708333Y-36601670D01*
X77708333Y-36601670D02*
X77732142Y-36613574D01*
X77732142Y-36613574D02*
X77791666Y-36613574D01*
X77791666Y-36613574D02*
X77815476Y-36601670D01*
X77815476Y-36601670D02*
X77827380Y-36589765D01*
X83040714Y-38184765D02*
X83052618Y-38196670D01*
X83052618Y-38196670D02*
X83088333Y-38208574D01*
X83088333Y-38208574D02*
X83112142Y-38208574D01*
X83112142Y-38208574D02*
X83147856Y-38196670D01*
X83147856Y-38196670D02*
X83171666Y-38172860D01*
X83171666Y-38172860D02*
X83183571Y-38149050D01*
X83183571Y-38149050D02*
X83195475Y-38101431D01*
X83195475Y-38101431D02*
X83195475Y-38065717D01*
X83195475Y-38065717D02*
X83183571Y-38018098D01*
X83183571Y-38018098D02*
X83171666Y-37994289D01*
X83171666Y-37994289D02*
X83147856Y-37970479D01*
X83147856Y-37970479D02*
X83112142Y-37958574D01*
X83112142Y-37958574D02*
X83088333Y-37958574D01*
X83088333Y-37958574D02*
X83052618Y-37970479D01*
X83052618Y-37970479D02*
X83040714Y-37982384D01*
X82802618Y-38208574D02*
X82945475Y-38208574D01*
X82874047Y-38208574D02*
X82874047Y-37958574D01*
X82874047Y-37958574D02*
X82897856Y-37994289D01*
X82897856Y-37994289D02*
X82921666Y-38018098D01*
X82921666Y-38018098D02*
X82945475Y-38030003D01*
X82588333Y-37958574D02*
X82635952Y-37958574D01*
X82635952Y-37958574D02*
X82659761Y-37970479D01*
X82659761Y-37970479D02*
X82671666Y-37982384D01*
X82671666Y-37982384D02*
X82695476Y-38018098D01*
X82695476Y-38018098D02*
X82707380Y-38065717D01*
X82707380Y-38065717D02*
X82707380Y-38160955D01*
X82707380Y-38160955D02*
X82695476Y-38184765D01*
X82695476Y-38184765D02*
X82683571Y-38196670D01*
X82683571Y-38196670D02*
X82659761Y-38208574D01*
X82659761Y-38208574D02*
X82612142Y-38208574D01*
X82612142Y-38208574D02*
X82588333Y-38196670D01*
X82588333Y-38196670D02*
X82576428Y-38184765D01*
X82576428Y-38184765D02*
X82564523Y-38160955D01*
X82564523Y-38160955D02*
X82564523Y-38101431D01*
X82564523Y-38101431D02*
X82576428Y-38077622D01*
X82576428Y-38077622D02*
X82588333Y-38065717D01*
X82588333Y-38065717D02*
X82612142Y-38053812D01*
X82612142Y-38053812D02*
X82659761Y-38053812D01*
X82659761Y-38053812D02*
X82683571Y-38065717D01*
X82683571Y-38065717D02*
X82695476Y-38077622D01*
X82695476Y-38077622D02*
X82707380Y-38101431D01*
X99618200Y-27032857D02*
X99494391Y-26946190D01*
X99618200Y-26884285D02*
X99358200Y-26884285D01*
X99358200Y-26884285D02*
X99358200Y-26983333D01*
X99358200Y-26983333D02*
X99370581Y-27008095D01*
X99370581Y-27008095D02*
X99382962Y-27020476D01*
X99382962Y-27020476D02*
X99407724Y-27032857D01*
X99407724Y-27032857D02*
X99444867Y-27032857D01*
X99444867Y-27032857D02*
X99469629Y-27020476D01*
X99469629Y-27020476D02*
X99482010Y-27008095D01*
X99482010Y-27008095D02*
X99494391Y-26983333D01*
X99494391Y-26983333D02*
X99494391Y-26884285D01*
X99618200Y-27280476D02*
X99618200Y-27131904D01*
X99618200Y-27206190D02*
X99358200Y-27206190D01*
X99358200Y-27206190D02*
X99395343Y-27181428D01*
X99395343Y-27181428D02*
X99420105Y-27156666D01*
X99420105Y-27156666D02*
X99432486Y-27131904D01*
X99444867Y-27503333D02*
X99618200Y-27503333D01*
X99345820Y-27441428D02*
X99531534Y-27379523D01*
X99531534Y-27379523D02*
X99531534Y-27540476D01*
X86160714Y-36809765D02*
X86172618Y-36821670D01*
X86172618Y-36821670D02*
X86208333Y-36833574D01*
X86208333Y-36833574D02*
X86232142Y-36833574D01*
X86232142Y-36833574D02*
X86267856Y-36821670D01*
X86267856Y-36821670D02*
X86291666Y-36797860D01*
X86291666Y-36797860D02*
X86303571Y-36774050D01*
X86303571Y-36774050D02*
X86315475Y-36726431D01*
X86315475Y-36726431D02*
X86315475Y-36690717D01*
X86315475Y-36690717D02*
X86303571Y-36643098D01*
X86303571Y-36643098D02*
X86291666Y-36619289D01*
X86291666Y-36619289D02*
X86267856Y-36595479D01*
X86267856Y-36595479D02*
X86232142Y-36583574D01*
X86232142Y-36583574D02*
X86208333Y-36583574D01*
X86208333Y-36583574D02*
X86172618Y-36595479D01*
X86172618Y-36595479D02*
X86160714Y-36607384D01*
X86065475Y-36607384D02*
X86053571Y-36595479D01*
X86053571Y-36595479D02*
X86029761Y-36583574D01*
X86029761Y-36583574D02*
X85970237Y-36583574D01*
X85970237Y-36583574D02*
X85946428Y-36595479D01*
X85946428Y-36595479D02*
X85934523Y-36607384D01*
X85934523Y-36607384D02*
X85922618Y-36631193D01*
X85922618Y-36631193D02*
X85922618Y-36655003D01*
X85922618Y-36655003D02*
X85934523Y-36690717D01*
X85934523Y-36690717D02*
X86077380Y-36833574D01*
X86077380Y-36833574D02*
X85922618Y-36833574D01*
X85827380Y-36607384D02*
X85815476Y-36595479D01*
X85815476Y-36595479D02*
X85791666Y-36583574D01*
X85791666Y-36583574D02*
X85732142Y-36583574D01*
X85732142Y-36583574D02*
X85708333Y-36595479D01*
X85708333Y-36595479D02*
X85696428Y-36607384D01*
X85696428Y-36607384D02*
X85684523Y-36631193D01*
X85684523Y-36631193D02*
X85684523Y-36655003D01*
X85684523Y-36655003D02*
X85696428Y-36690717D01*
X85696428Y-36690717D02*
X85839285Y-36833574D01*
X85839285Y-36833574D02*
X85684523Y-36833574D01*
X101608200Y-27032857D02*
X101484391Y-26946190D01*
X101608200Y-26884285D02*
X101348200Y-26884285D01*
X101348200Y-26884285D02*
X101348200Y-26983333D01*
X101348200Y-26983333D02*
X101360581Y-27008095D01*
X101360581Y-27008095D02*
X101372962Y-27020476D01*
X101372962Y-27020476D02*
X101397724Y-27032857D01*
X101397724Y-27032857D02*
X101434867Y-27032857D01*
X101434867Y-27032857D02*
X101459629Y-27020476D01*
X101459629Y-27020476D02*
X101472010Y-27008095D01*
X101472010Y-27008095D02*
X101484391Y-26983333D01*
X101484391Y-26983333D02*
X101484391Y-26884285D01*
X101608200Y-27280476D02*
X101608200Y-27131904D01*
X101608200Y-27206190D02*
X101348200Y-27206190D01*
X101348200Y-27206190D02*
X101385343Y-27181428D01*
X101385343Y-27181428D02*
X101410105Y-27156666D01*
X101410105Y-27156666D02*
X101422486Y-27131904D01*
X101348200Y-27515714D02*
X101348200Y-27391904D01*
X101348200Y-27391904D02*
X101472010Y-27379523D01*
X101472010Y-27379523D02*
X101459629Y-27391904D01*
X101459629Y-27391904D02*
X101447248Y-27416666D01*
X101447248Y-27416666D02*
X101447248Y-27478571D01*
X101447248Y-27478571D02*
X101459629Y-27503333D01*
X101459629Y-27503333D02*
X101472010Y-27515714D01*
X101472010Y-27515714D02*
X101496772Y-27528095D01*
X101496772Y-27528095D02*
X101558677Y-27528095D01*
X101558677Y-27528095D02*
X101583439Y-27515714D01*
X101583439Y-27515714D02*
X101595820Y-27503333D01*
X101595820Y-27503333D02*
X101608200Y-27478571D01*
X101608200Y-27478571D02*
X101608200Y-27416666D01*
X101608200Y-27416666D02*
X101595820Y-27391904D01*
X101595820Y-27391904D02*
X101583439Y-27379523D01*
D11*
X93901927Y-26833333D02*
X93901927Y-26642857D01*
X93901927Y-26642857D02*
X93501927Y-26642857D01*
X93540022Y-26947619D02*
X93520975Y-26966667D01*
X93520975Y-26966667D02*
X93501927Y-27004762D01*
X93501927Y-27004762D02*
X93501927Y-27100000D01*
X93501927Y-27100000D02*
X93520975Y-27138095D01*
X93520975Y-27138095D02*
X93540022Y-27157143D01*
X93540022Y-27157143D02*
X93578118Y-27176190D01*
X93578118Y-27176190D02*
X93616213Y-27176190D01*
X93616213Y-27176190D02*
X93673356Y-27157143D01*
X93673356Y-27157143D02*
X93901927Y-26928571D01*
X93901927Y-26928571D02*
X93901927Y-27176190D01*
X91353832Y-26642857D02*
X91372880Y-26623809D01*
X91372880Y-26623809D02*
X91391927Y-26566667D01*
X91391927Y-26566667D02*
X91391927Y-26528571D01*
X91391927Y-26528571D02*
X91372880Y-26471428D01*
X91372880Y-26471428D02*
X91334784Y-26433333D01*
X91334784Y-26433333D02*
X91296689Y-26414286D01*
X91296689Y-26414286D02*
X91220499Y-26395238D01*
X91220499Y-26395238D02*
X91163356Y-26395238D01*
X91163356Y-26395238D02*
X91087165Y-26414286D01*
X91087165Y-26414286D02*
X91049070Y-26433333D01*
X91049070Y-26433333D02*
X91010975Y-26471428D01*
X91010975Y-26471428D02*
X90991927Y-26528571D01*
X90991927Y-26528571D02*
X90991927Y-26566667D01*
X90991927Y-26566667D02*
X91010975Y-26623809D01*
X91010975Y-26623809D02*
X91030022Y-26642857D01*
X90991927Y-26776190D02*
X90991927Y-27023809D01*
X90991927Y-27023809D02*
X91144308Y-26890476D01*
X91144308Y-26890476D02*
X91144308Y-26947619D01*
X91144308Y-26947619D02*
X91163356Y-26985714D01*
X91163356Y-26985714D02*
X91182403Y-27004762D01*
X91182403Y-27004762D02*
X91220499Y-27023809D01*
X91220499Y-27023809D02*
X91315737Y-27023809D01*
X91315737Y-27023809D02*
X91353832Y-27004762D01*
X91353832Y-27004762D02*
X91372880Y-26985714D01*
X91372880Y-26985714D02*
X91391927Y-26947619D01*
X91391927Y-26947619D02*
X91391927Y-26833333D01*
X91391927Y-26833333D02*
X91372880Y-26795238D01*
X91372880Y-26795238D02*
X91353832Y-26776190D01*
X90991927Y-27385714D02*
X90991927Y-27195238D01*
X90991927Y-27195238D02*
X91182403Y-27176190D01*
X91182403Y-27176190D02*
X91163356Y-27195238D01*
X91163356Y-27195238D02*
X91144308Y-27233333D01*
X91144308Y-27233333D02*
X91144308Y-27328571D01*
X91144308Y-27328571D02*
X91163356Y-27366666D01*
X91163356Y-27366666D02*
X91182403Y-27385714D01*
X91182403Y-27385714D02*
X91220499Y-27404761D01*
X91220499Y-27404761D02*
X91315737Y-27404761D01*
X91315737Y-27404761D02*
X91353832Y-27385714D01*
X91353832Y-27385714D02*
X91372880Y-27366666D01*
X91372880Y-27366666D02*
X91391927Y-27328571D01*
X91391927Y-27328571D02*
X91391927Y-27233333D01*
X91391927Y-27233333D02*
X91372880Y-27195238D01*
X91372880Y-27195238D02*
X91353832Y-27176190D01*
D10*
X100828572Y-20919285D02*
X100709525Y-20835952D01*
X100828572Y-20776428D02*
X100578572Y-20776428D01*
X100578572Y-20776428D02*
X100578572Y-20871666D01*
X100578572Y-20871666D02*
X100590477Y-20895476D01*
X100590477Y-20895476D02*
X100602382Y-20907381D01*
X100602382Y-20907381D02*
X100626191Y-20919285D01*
X100626191Y-20919285D02*
X100661906Y-20919285D01*
X100661906Y-20919285D02*
X100685715Y-20907381D01*
X100685715Y-20907381D02*
X100697620Y-20895476D01*
X100697620Y-20895476D02*
X100709525Y-20871666D01*
X100709525Y-20871666D02*
X100709525Y-20776428D01*
X100828572Y-21157381D02*
X100828572Y-21014524D01*
X100828572Y-21085952D02*
X100578572Y-21085952D01*
X100578572Y-21085952D02*
X100614287Y-21062143D01*
X100614287Y-21062143D02*
X100638096Y-21038333D01*
X100638096Y-21038333D02*
X100650001Y-21014524D01*
X100828572Y-21276428D02*
X100828572Y-21324047D01*
X100828572Y-21324047D02*
X100816668Y-21347857D01*
X100816668Y-21347857D02*
X100804763Y-21359761D01*
X100804763Y-21359761D02*
X100769048Y-21383571D01*
X100769048Y-21383571D02*
X100721429Y-21395476D01*
X100721429Y-21395476D02*
X100626191Y-21395476D01*
X100626191Y-21395476D02*
X100602382Y-21383571D01*
X100602382Y-21383571D02*
X100590477Y-21371666D01*
X100590477Y-21371666D02*
X100578572Y-21347857D01*
X100578572Y-21347857D02*
X100578572Y-21300238D01*
X100578572Y-21300238D02*
X100590477Y-21276428D01*
X100590477Y-21276428D02*
X100602382Y-21264523D01*
X100602382Y-21264523D02*
X100626191Y-21252619D01*
X100626191Y-21252619D02*
X100685715Y-21252619D01*
X100685715Y-21252619D02*
X100709525Y-21264523D01*
X100709525Y-21264523D02*
X100721429Y-21276428D01*
X100721429Y-21276428D02*
X100733334Y-21300238D01*
X100733334Y-21300238D02*
X100733334Y-21347857D01*
X100733334Y-21347857D02*
X100721429Y-21371666D01*
X100721429Y-21371666D02*
X100709525Y-21383571D01*
X100709525Y-21383571D02*
X100685715Y-21395476D01*
X99054764Y-20919284D02*
X99066669Y-20907380D01*
X99066669Y-20907380D02*
X99078573Y-20871665D01*
X99078573Y-20871665D02*
X99078573Y-20847856D01*
X99078573Y-20847856D02*
X99066669Y-20812142D01*
X99066669Y-20812142D02*
X99042859Y-20788332D01*
X99042859Y-20788332D02*
X99019049Y-20776427D01*
X99019049Y-20776427D02*
X98971430Y-20764523D01*
X98971430Y-20764523D02*
X98935716Y-20764523D01*
X98935716Y-20764523D02*
X98888097Y-20776427D01*
X98888097Y-20776427D02*
X98864288Y-20788332D01*
X98864288Y-20788332D02*
X98840478Y-20812142D01*
X98840478Y-20812142D02*
X98828573Y-20847856D01*
X98828573Y-20847856D02*
X98828573Y-20871665D01*
X98828573Y-20871665D02*
X98840478Y-20907380D01*
X98840478Y-20907380D02*
X98852383Y-20919284D01*
X98828573Y-21002618D02*
X98828573Y-21157380D01*
X98828573Y-21157380D02*
X98923811Y-21074046D01*
X98923811Y-21074046D02*
X98923811Y-21109761D01*
X98923811Y-21109761D02*
X98935716Y-21133570D01*
X98935716Y-21133570D02*
X98947621Y-21145475D01*
X98947621Y-21145475D02*
X98971430Y-21157380D01*
X98971430Y-21157380D02*
X99030954Y-21157380D01*
X99030954Y-21157380D02*
X99054764Y-21145475D01*
X99054764Y-21145475D02*
X99066669Y-21133570D01*
X99066669Y-21133570D02*
X99078573Y-21109761D01*
X99078573Y-21109761D02*
X99078573Y-21038332D01*
X99078573Y-21038332D02*
X99066669Y-21014523D01*
X99066669Y-21014523D02*
X99054764Y-21002618D01*
X98852383Y-21252618D02*
X98840478Y-21264522D01*
X98840478Y-21264522D02*
X98828573Y-21288332D01*
X98828573Y-21288332D02*
X98828573Y-21347856D01*
X98828573Y-21347856D02*
X98840478Y-21371665D01*
X98840478Y-21371665D02*
X98852383Y-21383570D01*
X98852383Y-21383570D02*
X98876192Y-21395475D01*
X98876192Y-21395475D02*
X98900002Y-21395475D01*
X98900002Y-21395475D02*
X98935716Y-21383570D01*
X98935716Y-21383570D02*
X99078573Y-21240713D01*
X99078573Y-21240713D02*
X99078573Y-21395475D01*
D11*
X88843832Y-26642857D02*
X88862880Y-26623809D01*
X88862880Y-26623809D02*
X88881927Y-26566667D01*
X88881927Y-26566667D02*
X88881927Y-26528571D01*
X88881927Y-26528571D02*
X88862880Y-26471428D01*
X88862880Y-26471428D02*
X88824784Y-26433333D01*
X88824784Y-26433333D02*
X88786689Y-26414286D01*
X88786689Y-26414286D02*
X88710499Y-26395238D01*
X88710499Y-26395238D02*
X88653356Y-26395238D01*
X88653356Y-26395238D02*
X88577165Y-26414286D01*
X88577165Y-26414286D02*
X88539070Y-26433333D01*
X88539070Y-26433333D02*
X88500975Y-26471428D01*
X88500975Y-26471428D02*
X88481927Y-26528571D01*
X88481927Y-26528571D02*
X88481927Y-26566667D01*
X88481927Y-26566667D02*
X88500975Y-26623809D01*
X88500975Y-26623809D02*
X88520022Y-26642857D01*
X88481927Y-26776190D02*
X88481927Y-27023809D01*
X88481927Y-27023809D02*
X88634308Y-26890476D01*
X88634308Y-26890476D02*
X88634308Y-26947619D01*
X88634308Y-26947619D02*
X88653356Y-26985714D01*
X88653356Y-26985714D02*
X88672403Y-27004762D01*
X88672403Y-27004762D02*
X88710499Y-27023809D01*
X88710499Y-27023809D02*
X88805737Y-27023809D01*
X88805737Y-27023809D02*
X88843832Y-27004762D01*
X88843832Y-27004762D02*
X88862880Y-26985714D01*
X88862880Y-26985714D02*
X88881927Y-26947619D01*
X88881927Y-26947619D02*
X88881927Y-26833333D01*
X88881927Y-26833333D02*
X88862880Y-26795238D01*
X88862880Y-26795238D02*
X88843832Y-26776190D01*
X88881927Y-27404761D02*
X88881927Y-27176190D01*
X88881927Y-27290476D02*
X88481927Y-27290476D01*
X88481927Y-27290476D02*
X88539070Y-27252380D01*
X88539070Y-27252380D02*
X88577165Y-27214285D01*
X88577165Y-27214285D02*
X88596213Y-27176190D01*
X93381927Y-22995238D02*
X93705737Y-22995238D01*
X93705737Y-22995238D02*
X93743832Y-23014285D01*
X93743832Y-23014285D02*
X93762880Y-23033333D01*
X93762880Y-23033333D02*
X93781927Y-23071428D01*
X93781927Y-23071428D02*
X93781927Y-23147619D01*
X93781927Y-23147619D02*
X93762880Y-23185714D01*
X93762880Y-23185714D02*
X93743832Y-23204761D01*
X93743832Y-23204761D02*
X93705737Y-23223809D01*
X93705737Y-23223809D02*
X93381927Y-23223809D01*
X93381927Y-23376190D02*
X93381927Y-23642857D01*
X93381927Y-23642857D02*
X93781927Y-23471428D01*
D10*
X82909765Y-35004285D02*
X82921670Y-34992381D01*
X82921670Y-34992381D02*
X82933574Y-34956666D01*
X82933574Y-34956666D02*
X82933574Y-34932857D01*
X82933574Y-34932857D02*
X82921670Y-34897143D01*
X82921670Y-34897143D02*
X82897860Y-34873333D01*
X82897860Y-34873333D02*
X82874050Y-34861428D01*
X82874050Y-34861428D02*
X82826431Y-34849524D01*
X82826431Y-34849524D02*
X82790717Y-34849524D01*
X82790717Y-34849524D02*
X82743098Y-34861428D01*
X82743098Y-34861428D02*
X82719289Y-34873333D01*
X82719289Y-34873333D02*
X82695479Y-34897143D01*
X82695479Y-34897143D02*
X82683574Y-34932857D01*
X82683574Y-34932857D02*
X82683574Y-34956666D01*
X82683574Y-34956666D02*
X82695479Y-34992381D01*
X82695479Y-34992381D02*
X82707384Y-35004285D01*
X82707384Y-35099524D02*
X82695479Y-35111428D01*
X82695479Y-35111428D02*
X82683574Y-35135238D01*
X82683574Y-35135238D02*
X82683574Y-35194762D01*
X82683574Y-35194762D02*
X82695479Y-35218571D01*
X82695479Y-35218571D02*
X82707384Y-35230476D01*
X82707384Y-35230476D02*
X82731193Y-35242381D01*
X82731193Y-35242381D02*
X82755003Y-35242381D01*
X82755003Y-35242381D02*
X82790717Y-35230476D01*
X82790717Y-35230476D02*
X82933574Y-35087619D01*
X82933574Y-35087619D02*
X82933574Y-35242381D01*
X82766908Y-35456666D02*
X82933574Y-35456666D01*
X82671670Y-35397142D02*
X82850241Y-35337619D01*
X82850241Y-35337619D02*
X82850241Y-35492380D01*
D12*
X62981009Y-31059523D02*
X63028628Y-31202380D01*
X63028628Y-31202380D02*
X63076247Y-31249999D01*
X63076247Y-31249999D02*
X63171485Y-31297618D01*
X63171485Y-31297618D02*
X63314342Y-31297618D01*
X63314342Y-31297618D02*
X63409580Y-31249999D01*
X63409580Y-31249999D02*
X63457200Y-31202380D01*
X63457200Y-31202380D02*
X63504819Y-31107142D01*
X63504819Y-31107142D02*
X63504819Y-30726190D01*
X63504819Y-30726190D02*
X62504819Y-30726190D01*
X62504819Y-30726190D02*
X62504819Y-31059523D01*
X62504819Y-31059523D02*
X62552438Y-31154761D01*
X62552438Y-31154761D02*
X62600057Y-31202380D01*
X62600057Y-31202380D02*
X62695295Y-31249999D01*
X62695295Y-31249999D02*
X62790533Y-31249999D01*
X62790533Y-31249999D02*
X62885771Y-31202380D01*
X62885771Y-31202380D02*
X62933390Y-31154761D01*
X62933390Y-31154761D02*
X62981009Y-31059523D01*
X62981009Y-31059523D02*
X62981009Y-30726190D01*
X62504819Y-31916666D02*
X62504819Y-32107142D01*
X62504819Y-32107142D02*
X62552438Y-32202380D01*
X62552438Y-32202380D02*
X62647676Y-32297618D01*
X62647676Y-32297618D02*
X62838152Y-32345237D01*
X62838152Y-32345237D02*
X63171485Y-32345237D01*
X63171485Y-32345237D02*
X63361961Y-32297618D01*
X63361961Y-32297618D02*
X63457200Y-32202380D01*
X63457200Y-32202380D02*
X63504819Y-32107142D01*
X63504819Y-32107142D02*
X63504819Y-31916666D01*
X63504819Y-31916666D02*
X63457200Y-31821428D01*
X63457200Y-31821428D02*
X63361961Y-31726190D01*
X63361961Y-31726190D02*
X63171485Y-31678571D01*
X63171485Y-31678571D02*
X62838152Y-31678571D01*
X62838152Y-31678571D02*
X62647676Y-31726190D01*
X62647676Y-31726190D02*
X62552438Y-31821428D01*
X62552438Y-31821428D02*
X62504819Y-31916666D01*
X62504819Y-32964285D02*
X62504819Y-33154761D01*
X62504819Y-33154761D02*
X62552438Y-33249999D01*
X62552438Y-33249999D02*
X62647676Y-33345237D01*
X62647676Y-33345237D02*
X62838152Y-33392856D01*
X62838152Y-33392856D02*
X63171485Y-33392856D01*
X63171485Y-33392856D02*
X63361961Y-33345237D01*
X63361961Y-33345237D02*
X63457200Y-33249999D01*
X63457200Y-33249999D02*
X63504819Y-33154761D01*
X63504819Y-33154761D02*
X63504819Y-32964285D01*
X63504819Y-32964285D02*
X63457200Y-32869047D01*
X63457200Y-32869047D02*
X63361961Y-32773809D01*
X63361961Y-32773809D02*
X63171485Y-32726190D01*
X63171485Y-32726190D02*
X62838152Y-32726190D01*
X62838152Y-32726190D02*
X62647676Y-32773809D01*
X62647676Y-32773809D02*
X62552438Y-32869047D01*
X62552438Y-32869047D02*
X62504819Y-32964285D01*
X62504819Y-33678571D02*
X62504819Y-34249999D01*
X63504819Y-33964285D02*
X62504819Y-33964285D01*
X63457200Y-34535714D02*
X63504819Y-34678571D01*
X63504819Y-34678571D02*
X63504819Y-34916666D01*
X63504819Y-34916666D02*
X63457200Y-35011904D01*
X63457200Y-35011904D02*
X63409580Y-35059523D01*
X63409580Y-35059523D02*
X63314342Y-35107142D01*
X63314342Y-35107142D02*
X63219104Y-35107142D01*
X63219104Y-35107142D02*
X63123866Y-35059523D01*
X63123866Y-35059523D02*
X63076247Y-35011904D01*
X63076247Y-35011904D02*
X63028628Y-34916666D01*
X63028628Y-34916666D02*
X62981009Y-34726190D01*
X62981009Y-34726190D02*
X62933390Y-34630952D01*
X62933390Y-34630952D02*
X62885771Y-34583333D01*
X62885771Y-34583333D02*
X62790533Y-34535714D01*
X62790533Y-34535714D02*
X62695295Y-34535714D01*
X62695295Y-34535714D02*
X62600057Y-34583333D01*
X62600057Y-34583333D02*
X62552438Y-34630952D01*
X62552438Y-34630952D02*
X62504819Y-34726190D01*
X62504819Y-34726190D02*
X62504819Y-34964285D01*
X62504819Y-34964285D02*
X62552438Y-35107142D01*
X62981009Y-35535714D02*
X62981009Y-35869047D01*
X63504819Y-36011904D02*
X63504819Y-35535714D01*
X63504819Y-35535714D02*
X62504819Y-35535714D01*
X62504819Y-35535714D02*
X62504819Y-36011904D01*
X63504819Y-36916666D02*
X63504819Y-36440476D01*
X63504819Y-36440476D02*
X62504819Y-36440476D01*
X37361904Y-23204819D02*
X36790476Y-23204819D01*
X37076190Y-24204819D02*
X37076190Y-23204819D01*
X36457142Y-24204819D02*
X36457142Y-23204819D01*
X36457142Y-23204819D02*
X36076190Y-23204819D01*
X36076190Y-23204819D02*
X35980952Y-23252438D01*
X35980952Y-23252438D02*
X35933333Y-23300057D01*
X35933333Y-23300057D02*
X35885714Y-23395295D01*
X35885714Y-23395295D02*
X35885714Y-23538152D01*
X35885714Y-23538152D02*
X35933333Y-23633390D01*
X35933333Y-23633390D02*
X35980952Y-23681009D01*
X35980952Y-23681009D02*
X36076190Y-23728628D01*
X36076190Y-23728628D02*
X36457142Y-23728628D01*
X35552380Y-23204819D02*
X34885714Y-23204819D01*
X34885714Y-23204819D02*
X35314285Y-24204819D01*
D10*
X78166666Y-32663574D02*
X78249999Y-32544527D01*
X78309523Y-32663574D02*
X78309523Y-32413574D01*
X78309523Y-32413574D02*
X78214285Y-32413574D01*
X78214285Y-32413574D02*
X78190475Y-32425479D01*
X78190475Y-32425479D02*
X78178570Y-32437384D01*
X78178570Y-32437384D02*
X78166666Y-32461193D01*
X78166666Y-32461193D02*
X78166666Y-32496908D01*
X78166666Y-32496908D02*
X78178570Y-32520717D01*
X78178570Y-32520717D02*
X78190475Y-32532622D01*
X78190475Y-32532622D02*
X78214285Y-32544527D01*
X78214285Y-32544527D02*
X78309523Y-32544527D01*
X77940475Y-32413574D02*
X78059523Y-32413574D01*
X78059523Y-32413574D02*
X78071427Y-32532622D01*
X78071427Y-32532622D02*
X78059523Y-32520717D01*
X78059523Y-32520717D02*
X78035713Y-32508812D01*
X78035713Y-32508812D02*
X77976189Y-32508812D01*
X77976189Y-32508812D02*
X77952380Y-32520717D01*
X77952380Y-32520717D02*
X77940475Y-32532622D01*
X77940475Y-32532622D02*
X77928570Y-32556431D01*
X77928570Y-32556431D02*
X77928570Y-32615955D01*
X77928570Y-32615955D02*
X77940475Y-32639765D01*
X77940475Y-32639765D02*
X77952380Y-32651670D01*
X77952380Y-32651670D02*
X77976189Y-32663574D01*
X77976189Y-32663574D02*
X78035713Y-32663574D01*
X78035713Y-32663574D02*
X78059523Y-32651670D01*
X78059523Y-32651670D02*
X78071427Y-32639765D01*
X79841666Y-20868574D02*
X79924999Y-20749527D01*
X79984523Y-20868574D02*
X79984523Y-20618574D01*
X79984523Y-20618574D02*
X79889285Y-20618574D01*
X79889285Y-20618574D02*
X79865475Y-20630479D01*
X79865475Y-20630479D02*
X79853570Y-20642384D01*
X79853570Y-20642384D02*
X79841666Y-20666193D01*
X79841666Y-20666193D02*
X79841666Y-20701908D01*
X79841666Y-20701908D02*
X79853570Y-20725717D01*
X79853570Y-20725717D02*
X79865475Y-20737622D01*
X79865475Y-20737622D02*
X79889285Y-20749527D01*
X79889285Y-20749527D02*
X79984523Y-20749527D01*
X79698808Y-20725717D02*
X79722618Y-20713812D01*
X79722618Y-20713812D02*
X79734523Y-20701908D01*
X79734523Y-20701908D02*
X79746427Y-20678098D01*
X79746427Y-20678098D02*
X79746427Y-20666193D01*
X79746427Y-20666193D02*
X79734523Y-20642384D01*
X79734523Y-20642384D02*
X79722618Y-20630479D01*
X79722618Y-20630479D02*
X79698808Y-20618574D01*
X79698808Y-20618574D02*
X79651189Y-20618574D01*
X79651189Y-20618574D02*
X79627380Y-20630479D01*
X79627380Y-20630479D02*
X79615475Y-20642384D01*
X79615475Y-20642384D02*
X79603570Y-20666193D01*
X79603570Y-20666193D02*
X79603570Y-20678098D01*
X79603570Y-20678098D02*
X79615475Y-20701908D01*
X79615475Y-20701908D02*
X79627380Y-20713812D01*
X79627380Y-20713812D02*
X79651189Y-20725717D01*
X79651189Y-20725717D02*
X79698808Y-20725717D01*
X79698808Y-20725717D02*
X79722618Y-20737622D01*
X79722618Y-20737622D02*
X79734523Y-20749527D01*
X79734523Y-20749527D02*
X79746427Y-20773336D01*
X79746427Y-20773336D02*
X79746427Y-20820955D01*
X79746427Y-20820955D02*
X79734523Y-20844765D01*
X79734523Y-20844765D02*
X79722618Y-20856670D01*
X79722618Y-20856670D02*
X79698808Y-20868574D01*
X79698808Y-20868574D02*
X79651189Y-20868574D01*
X79651189Y-20868574D02*
X79627380Y-20856670D01*
X79627380Y-20856670D02*
X79615475Y-20844765D01*
X79615475Y-20844765D02*
X79603570Y-20820955D01*
X79603570Y-20820955D02*
X79603570Y-20773336D01*
X79603570Y-20773336D02*
X79615475Y-20749527D01*
X79615475Y-20749527D02*
X79627380Y-20737622D01*
X79627380Y-20737622D02*
X79651189Y-20725717D01*
X57915714Y-34213574D02*
X57999047Y-34094527D01*
X58058571Y-34213574D02*
X58058571Y-33963574D01*
X58058571Y-33963574D02*
X57963333Y-33963574D01*
X57963333Y-33963574D02*
X57939523Y-33975479D01*
X57939523Y-33975479D02*
X57927618Y-33987384D01*
X57927618Y-33987384D02*
X57915714Y-34011193D01*
X57915714Y-34011193D02*
X57915714Y-34046908D01*
X57915714Y-34046908D02*
X57927618Y-34070717D01*
X57927618Y-34070717D02*
X57939523Y-34082622D01*
X57939523Y-34082622D02*
X57963333Y-34094527D01*
X57963333Y-34094527D02*
X58058571Y-34094527D01*
X57677618Y-34213574D02*
X57820475Y-34213574D01*
X57749047Y-34213574D02*
X57749047Y-33963574D01*
X57749047Y-33963574D02*
X57772856Y-33999289D01*
X57772856Y-33999289D02*
X57796666Y-34023098D01*
X57796666Y-34023098D02*
X57820475Y-34035003D01*
X57463333Y-33963574D02*
X57510952Y-33963574D01*
X57510952Y-33963574D02*
X57534761Y-33975479D01*
X57534761Y-33975479D02*
X57546666Y-33987384D01*
X57546666Y-33987384D02*
X57570476Y-34023098D01*
X57570476Y-34023098D02*
X57582380Y-34070717D01*
X57582380Y-34070717D02*
X57582380Y-34165955D01*
X57582380Y-34165955D02*
X57570476Y-34189765D01*
X57570476Y-34189765D02*
X57558571Y-34201670D01*
X57558571Y-34201670D02*
X57534761Y-34213574D01*
X57534761Y-34213574D02*
X57487142Y-34213574D01*
X57487142Y-34213574D02*
X57463333Y-34201670D01*
X57463333Y-34201670D02*
X57451428Y-34189765D01*
X57451428Y-34189765D02*
X57439523Y-34165955D01*
X57439523Y-34165955D02*
X57439523Y-34106431D01*
X57439523Y-34106431D02*
X57451428Y-34082622D01*
X57451428Y-34082622D02*
X57463333Y-34070717D01*
X57463333Y-34070717D02*
X57487142Y-34058812D01*
X57487142Y-34058812D02*
X57534761Y-34058812D01*
X57534761Y-34058812D02*
X57558571Y-34070717D01*
X57558571Y-34070717D02*
X57570476Y-34082622D01*
X57570476Y-34082622D02*
X57582380Y-34106431D01*
X57915714Y-32463574D02*
X57999047Y-32344527D01*
X58058571Y-32463574D02*
X58058571Y-32213574D01*
X58058571Y-32213574D02*
X57963333Y-32213574D01*
X57963333Y-32213574D02*
X57939523Y-32225479D01*
X57939523Y-32225479D02*
X57927618Y-32237384D01*
X57927618Y-32237384D02*
X57915714Y-32261193D01*
X57915714Y-32261193D02*
X57915714Y-32296908D01*
X57915714Y-32296908D02*
X57927618Y-32320717D01*
X57927618Y-32320717D02*
X57939523Y-32332622D01*
X57939523Y-32332622D02*
X57963333Y-32344527D01*
X57963333Y-32344527D02*
X58058571Y-32344527D01*
X57677618Y-32463574D02*
X57820475Y-32463574D01*
X57749047Y-32463574D02*
X57749047Y-32213574D01*
X57749047Y-32213574D02*
X57772856Y-32249289D01*
X57772856Y-32249289D02*
X57796666Y-32273098D01*
X57796666Y-32273098D02*
X57820475Y-32285003D01*
X57594285Y-32213574D02*
X57427619Y-32213574D01*
X57427619Y-32213574D02*
X57534761Y-32463574D01*
X48095714Y-32059765D02*
X48107618Y-32071670D01*
X48107618Y-32071670D02*
X48143333Y-32083574D01*
X48143333Y-32083574D02*
X48167142Y-32083574D01*
X48167142Y-32083574D02*
X48202856Y-32071670D01*
X48202856Y-32071670D02*
X48226666Y-32047860D01*
X48226666Y-32047860D02*
X48238571Y-32024050D01*
X48238571Y-32024050D02*
X48250475Y-31976431D01*
X48250475Y-31976431D02*
X48250475Y-31940717D01*
X48250475Y-31940717D02*
X48238571Y-31893098D01*
X48238571Y-31893098D02*
X48226666Y-31869289D01*
X48226666Y-31869289D02*
X48202856Y-31845479D01*
X48202856Y-31845479D02*
X48167142Y-31833574D01*
X48167142Y-31833574D02*
X48143333Y-31833574D01*
X48143333Y-31833574D02*
X48107618Y-31845479D01*
X48107618Y-31845479D02*
X48095714Y-31857384D01*
X48012380Y-31833574D02*
X47857618Y-31833574D01*
X47857618Y-31833574D02*
X47940952Y-31928812D01*
X47940952Y-31928812D02*
X47905237Y-31928812D01*
X47905237Y-31928812D02*
X47881428Y-31940717D01*
X47881428Y-31940717D02*
X47869523Y-31952622D01*
X47869523Y-31952622D02*
X47857618Y-31976431D01*
X47857618Y-31976431D02*
X47857618Y-32035955D01*
X47857618Y-32035955D02*
X47869523Y-32059765D01*
X47869523Y-32059765D02*
X47881428Y-32071670D01*
X47881428Y-32071670D02*
X47905237Y-32083574D01*
X47905237Y-32083574D02*
X47976666Y-32083574D01*
X47976666Y-32083574D02*
X48000475Y-32071670D01*
X48000475Y-32071670D02*
X48012380Y-32059765D01*
X47643333Y-31916908D02*
X47643333Y-32083574D01*
X47702857Y-31821670D02*
X47762380Y-32000241D01*
X47762380Y-32000241D02*
X47607619Y-32000241D01*
D11*
X44957142Y-32463832D02*
X44976190Y-32482880D01*
X44976190Y-32482880D02*
X45033332Y-32501927D01*
X45033332Y-32501927D02*
X45071428Y-32501927D01*
X45071428Y-32501927D02*
X45128571Y-32482880D01*
X45128571Y-32482880D02*
X45166666Y-32444784D01*
X45166666Y-32444784D02*
X45185713Y-32406689D01*
X45185713Y-32406689D02*
X45204761Y-32330499D01*
X45204761Y-32330499D02*
X45204761Y-32273356D01*
X45204761Y-32273356D02*
X45185713Y-32197165D01*
X45185713Y-32197165D02*
X45166666Y-32159070D01*
X45166666Y-32159070D02*
X45128571Y-32120975D01*
X45128571Y-32120975D02*
X45071428Y-32101927D01*
X45071428Y-32101927D02*
X45033332Y-32101927D01*
X45033332Y-32101927D02*
X44976190Y-32120975D01*
X44976190Y-32120975D02*
X44957142Y-32140022D01*
X44823809Y-32101927D02*
X44576190Y-32101927D01*
X44576190Y-32101927D02*
X44709523Y-32254308D01*
X44709523Y-32254308D02*
X44652380Y-32254308D01*
X44652380Y-32254308D02*
X44614285Y-32273356D01*
X44614285Y-32273356D02*
X44595237Y-32292403D01*
X44595237Y-32292403D02*
X44576190Y-32330499D01*
X44576190Y-32330499D02*
X44576190Y-32425737D01*
X44576190Y-32425737D02*
X44595237Y-32463832D01*
X44595237Y-32463832D02*
X44614285Y-32482880D01*
X44614285Y-32482880D02*
X44652380Y-32501927D01*
X44652380Y-32501927D02*
X44766666Y-32501927D01*
X44766666Y-32501927D02*
X44804761Y-32482880D01*
X44804761Y-32482880D02*
X44823809Y-32463832D01*
X44442857Y-32101927D02*
X44195238Y-32101927D01*
X44195238Y-32101927D02*
X44328571Y-32254308D01*
X44328571Y-32254308D02*
X44271428Y-32254308D01*
X44271428Y-32254308D02*
X44233333Y-32273356D01*
X44233333Y-32273356D02*
X44214285Y-32292403D01*
X44214285Y-32292403D02*
X44195238Y-32330499D01*
X44195238Y-32330499D02*
X44195238Y-32425737D01*
X44195238Y-32425737D02*
X44214285Y-32463832D01*
X44214285Y-32463832D02*
X44233333Y-32482880D01*
X44233333Y-32482880D02*
X44271428Y-32501927D01*
X44271428Y-32501927D02*
X44385714Y-32501927D01*
X44385714Y-32501927D02*
X44423809Y-32482880D01*
X44423809Y-32482880D02*
X44442857Y-32463832D01*
D12*
X48261904Y-34454819D02*
X48261904Y-35264342D01*
X48261904Y-35264342D02*
X48214285Y-35359580D01*
X48214285Y-35359580D02*
X48166666Y-35407200D01*
X48166666Y-35407200D02*
X48071428Y-35454819D01*
X48071428Y-35454819D02*
X47880952Y-35454819D01*
X47880952Y-35454819D02*
X47785714Y-35407200D01*
X47785714Y-35407200D02*
X47738095Y-35359580D01*
X47738095Y-35359580D02*
X47690476Y-35264342D01*
X47690476Y-35264342D02*
X47690476Y-34454819D01*
X47071428Y-34883390D02*
X47166666Y-34835771D01*
X47166666Y-34835771D02*
X47214285Y-34788152D01*
X47214285Y-34788152D02*
X47261904Y-34692914D01*
X47261904Y-34692914D02*
X47261904Y-34645295D01*
X47261904Y-34645295D02*
X47214285Y-34550057D01*
X47214285Y-34550057D02*
X47166666Y-34502438D01*
X47166666Y-34502438D02*
X47071428Y-34454819D01*
X47071428Y-34454819D02*
X46880952Y-34454819D01*
X46880952Y-34454819D02*
X46785714Y-34502438D01*
X46785714Y-34502438D02*
X46738095Y-34550057D01*
X46738095Y-34550057D02*
X46690476Y-34645295D01*
X46690476Y-34645295D02*
X46690476Y-34692914D01*
X46690476Y-34692914D02*
X46738095Y-34788152D01*
X46738095Y-34788152D02*
X46785714Y-34835771D01*
X46785714Y-34835771D02*
X46880952Y-34883390D01*
X46880952Y-34883390D02*
X47071428Y-34883390D01*
X47071428Y-34883390D02*
X47166666Y-34931009D01*
X47166666Y-34931009D02*
X47214285Y-34978628D01*
X47214285Y-34978628D02*
X47261904Y-35073866D01*
X47261904Y-35073866D02*
X47261904Y-35264342D01*
X47261904Y-35264342D02*
X47214285Y-35359580D01*
X47214285Y-35359580D02*
X47166666Y-35407200D01*
X47166666Y-35407200D02*
X47071428Y-35454819D01*
X47071428Y-35454819D02*
X46880952Y-35454819D01*
X46880952Y-35454819D02*
X46785714Y-35407200D01*
X46785714Y-35407200D02*
X46738095Y-35359580D01*
X46738095Y-35359580D02*
X46690476Y-35264342D01*
X46690476Y-35264342D02*
X46690476Y-35073866D01*
X46690476Y-35073866D02*
X46738095Y-34978628D01*
X46738095Y-34978628D02*
X46785714Y-34931009D01*
X46785714Y-34931009D02*
X46880952Y-34883390D01*
X29811904Y-23354819D02*
X29240476Y-23354819D01*
X29526190Y-24354819D02*
X29526190Y-23354819D01*
X28907142Y-24354819D02*
X28907142Y-23354819D01*
X28907142Y-23354819D02*
X28526190Y-23354819D01*
X28526190Y-23354819D02*
X28430952Y-23402438D01*
X28430952Y-23402438D02*
X28383333Y-23450057D01*
X28383333Y-23450057D02*
X28335714Y-23545295D01*
X28335714Y-23545295D02*
X28335714Y-23688152D01*
X28335714Y-23688152D02*
X28383333Y-23783390D01*
X28383333Y-23783390D02*
X28430952Y-23831009D01*
X28430952Y-23831009D02*
X28526190Y-23878628D01*
X28526190Y-23878628D02*
X28907142Y-23878628D01*
X27478571Y-23354819D02*
X27669047Y-23354819D01*
X27669047Y-23354819D02*
X27764285Y-23402438D01*
X27764285Y-23402438D02*
X27811904Y-23450057D01*
X27811904Y-23450057D02*
X27907142Y-23592914D01*
X27907142Y-23592914D02*
X27954761Y-23783390D01*
X27954761Y-23783390D02*
X27954761Y-24164342D01*
X27954761Y-24164342D02*
X27907142Y-24259580D01*
X27907142Y-24259580D02*
X27859523Y-24307200D01*
X27859523Y-24307200D02*
X27764285Y-24354819D01*
X27764285Y-24354819D02*
X27573809Y-24354819D01*
X27573809Y-24354819D02*
X27478571Y-24307200D01*
X27478571Y-24307200D02*
X27430952Y-24259580D01*
X27430952Y-24259580D02*
X27383333Y-24164342D01*
X27383333Y-24164342D02*
X27383333Y-23926247D01*
X27383333Y-23926247D02*
X27430952Y-23831009D01*
X27430952Y-23831009D02*
X27478571Y-23783390D01*
X27478571Y-23783390D02*
X27573809Y-23735771D01*
X27573809Y-23735771D02*
X27764285Y-23735771D01*
X27764285Y-23735771D02*
X27859523Y-23783390D01*
X27859523Y-23783390D02*
X27907142Y-23831009D01*
X27907142Y-23831009D02*
X27954761Y-23926247D01*
D10*
X70260714Y-21834765D02*
X70272618Y-21846670D01*
X70272618Y-21846670D02*
X70308333Y-21858574D01*
X70308333Y-21858574D02*
X70332142Y-21858574D01*
X70332142Y-21858574D02*
X70367856Y-21846670D01*
X70367856Y-21846670D02*
X70391666Y-21822860D01*
X70391666Y-21822860D02*
X70403571Y-21799050D01*
X70403571Y-21799050D02*
X70415475Y-21751431D01*
X70415475Y-21751431D02*
X70415475Y-21715717D01*
X70415475Y-21715717D02*
X70403571Y-21668098D01*
X70403571Y-21668098D02*
X70391666Y-21644289D01*
X70391666Y-21644289D02*
X70367856Y-21620479D01*
X70367856Y-21620479D02*
X70332142Y-21608574D01*
X70332142Y-21608574D02*
X70308333Y-21608574D01*
X70308333Y-21608574D02*
X70272618Y-21620479D01*
X70272618Y-21620479D02*
X70260714Y-21632384D01*
X70022618Y-21858574D02*
X70165475Y-21858574D01*
X70094047Y-21858574D02*
X70094047Y-21608574D01*
X70094047Y-21608574D02*
X70117856Y-21644289D01*
X70117856Y-21644289D02*
X70141666Y-21668098D01*
X70141666Y-21668098D02*
X70165475Y-21680003D01*
X69903571Y-21858574D02*
X69855952Y-21858574D01*
X69855952Y-21858574D02*
X69832142Y-21846670D01*
X69832142Y-21846670D02*
X69820238Y-21834765D01*
X69820238Y-21834765D02*
X69796428Y-21799050D01*
X69796428Y-21799050D02*
X69784523Y-21751431D01*
X69784523Y-21751431D02*
X69784523Y-21656193D01*
X69784523Y-21656193D02*
X69796428Y-21632384D01*
X69796428Y-21632384D02*
X69808333Y-21620479D01*
X69808333Y-21620479D02*
X69832142Y-21608574D01*
X69832142Y-21608574D02*
X69879761Y-21608574D01*
X69879761Y-21608574D02*
X69903571Y-21620479D01*
X69903571Y-21620479D02*
X69915476Y-21632384D01*
X69915476Y-21632384D02*
X69927380Y-21656193D01*
X69927380Y-21656193D02*
X69927380Y-21715717D01*
X69927380Y-21715717D02*
X69915476Y-21739527D01*
X69915476Y-21739527D02*
X69903571Y-21751431D01*
X69903571Y-21751431D02*
X69879761Y-21763336D01*
X69879761Y-21763336D02*
X69832142Y-21763336D01*
X69832142Y-21763336D02*
X69808333Y-21751431D01*
X69808333Y-21751431D02*
X69796428Y-21739527D01*
X69796428Y-21739527D02*
X69784523Y-21715717D01*
X78166666Y-31963574D02*
X78249999Y-31844527D01*
X78309523Y-31963574D02*
X78309523Y-31713574D01*
X78309523Y-31713574D02*
X78214285Y-31713574D01*
X78214285Y-31713574D02*
X78190475Y-31725479D01*
X78190475Y-31725479D02*
X78178570Y-31737384D01*
X78178570Y-31737384D02*
X78166666Y-31761193D01*
X78166666Y-31761193D02*
X78166666Y-31796908D01*
X78166666Y-31796908D02*
X78178570Y-31820717D01*
X78178570Y-31820717D02*
X78190475Y-31832622D01*
X78190475Y-31832622D02*
X78214285Y-31844527D01*
X78214285Y-31844527D02*
X78309523Y-31844527D01*
X77952380Y-31796908D02*
X77952380Y-31963574D01*
X78011904Y-31701670D02*
X78071427Y-31880241D01*
X78071427Y-31880241D02*
X77916666Y-31880241D01*
X79141666Y-20868574D02*
X79224999Y-20749527D01*
X79284523Y-20868574D02*
X79284523Y-20618574D01*
X79284523Y-20618574D02*
X79189285Y-20618574D01*
X79189285Y-20618574D02*
X79165475Y-20630479D01*
X79165475Y-20630479D02*
X79153570Y-20642384D01*
X79153570Y-20642384D02*
X79141666Y-20666193D01*
X79141666Y-20666193D02*
X79141666Y-20701908D01*
X79141666Y-20701908D02*
X79153570Y-20725717D01*
X79153570Y-20725717D02*
X79165475Y-20737622D01*
X79165475Y-20737622D02*
X79189285Y-20749527D01*
X79189285Y-20749527D02*
X79284523Y-20749527D01*
X79022618Y-20868574D02*
X78974999Y-20868574D01*
X78974999Y-20868574D02*
X78951189Y-20856670D01*
X78951189Y-20856670D02*
X78939285Y-20844765D01*
X78939285Y-20844765D02*
X78915475Y-20809050D01*
X78915475Y-20809050D02*
X78903570Y-20761431D01*
X78903570Y-20761431D02*
X78903570Y-20666193D01*
X78903570Y-20666193D02*
X78915475Y-20642384D01*
X78915475Y-20642384D02*
X78927380Y-20630479D01*
X78927380Y-20630479D02*
X78951189Y-20618574D01*
X78951189Y-20618574D02*
X78998808Y-20618574D01*
X78998808Y-20618574D02*
X79022618Y-20630479D01*
X79022618Y-20630479D02*
X79034523Y-20642384D01*
X79034523Y-20642384D02*
X79046427Y-20666193D01*
X79046427Y-20666193D02*
X79046427Y-20725717D01*
X79046427Y-20725717D02*
X79034523Y-20749527D01*
X79034523Y-20749527D02*
X79022618Y-20761431D01*
X79022618Y-20761431D02*
X78998808Y-20773336D01*
X78998808Y-20773336D02*
X78951189Y-20773336D01*
X78951189Y-20773336D02*
X78927380Y-20761431D01*
X78927380Y-20761431D02*
X78915475Y-20749527D01*
X78915475Y-20749527D02*
X78903570Y-20725717D01*
D12*
X25361904Y-20054819D02*
X24790476Y-20054819D01*
X25076190Y-21054819D02*
X25076190Y-20054819D01*
X24457142Y-21054819D02*
X24457142Y-20054819D01*
X24457142Y-20054819D02*
X24076190Y-20054819D01*
X24076190Y-20054819D02*
X23980952Y-20102438D01*
X23980952Y-20102438D02*
X23933333Y-20150057D01*
X23933333Y-20150057D02*
X23885714Y-20245295D01*
X23885714Y-20245295D02*
X23885714Y-20388152D01*
X23885714Y-20388152D02*
X23933333Y-20483390D01*
X23933333Y-20483390D02*
X23980952Y-20531009D01*
X23980952Y-20531009D02*
X24076190Y-20578628D01*
X24076190Y-20578628D02*
X24457142Y-20578628D01*
X22933333Y-21054819D02*
X23504761Y-21054819D01*
X23219047Y-21054819D02*
X23219047Y-20054819D01*
X23219047Y-20054819D02*
X23314285Y-20197676D01*
X23314285Y-20197676D02*
X23409523Y-20292914D01*
X23409523Y-20292914D02*
X23504761Y-20340533D01*
X33461904Y-20054819D02*
X32890476Y-20054819D01*
X33176190Y-21054819D02*
X33176190Y-20054819D01*
X32557142Y-21054819D02*
X32557142Y-20054819D01*
X32557142Y-20054819D02*
X32176190Y-20054819D01*
X32176190Y-20054819D02*
X32080952Y-20102438D01*
X32080952Y-20102438D02*
X32033333Y-20150057D01*
X32033333Y-20150057D02*
X31985714Y-20245295D01*
X31985714Y-20245295D02*
X31985714Y-20388152D01*
X31985714Y-20388152D02*
X32033333Y-20483390D01*
X32033333Y-20483390D02*
X32080952Y-20531009D01*
X32080952Y-20531009D02*
X32176190Y-20578628D01*
X32176190Y-20578628D02*
X32557142Y-20578628D01*
X31414285Y-20483390D02*
X31509523Y-20435771D01*
X31509523Y-20435771D02*
X31557142Y-20388152D01*
X31557142Y-20388152D02*
X31604761Y-20292914D01*
X31604761Y-20292914D02*
X31604761Y-20245295D01*
X31604761Y-20245295D02*
X31557142Y-20150057D01*
X31557142Y-20150057D02*
X31509523Y-20102438D01*
X31509523Y-20102438D02*
X31414285Y-20054819D01*
X31414285Y-20054819D02*
X31223809Y-20054819D01*
X31223809Y-20054819D02*
X31128571Y-20102438D01*
X31128571Y-20102438D02*
X31080952Y-20150057D01*
X31080952Y-20150057D02*
X31033333Y-20245295D01*
X31033333Y-20245295D02*
X31033333Y-20292914D01*
X31033333Y-20292914D02*
X31080952Y-20388152D01*
X31080952Y-20388152D02*
X31128571Y-20435771D01*
X31128571Y-20435771D02*
X31223809Y-20483390D01*
X31223809Y-20483390D02*
X31414285Y-20483390D01*
X31414285Y-20483390D02*
X31509523Y-20531009D01*
X31509523Y-20531009D02*
X31557142Y-20578628D01*
X31557142Y-20578628D02*
X31604761Y-20673866D01*
X31604761Y-20673866D02*
X31604761Y-20864342D01*
X31604761Y-20864342D02*
X31557142Y-20959580D01*
X31557142Y-20959580D02*
X31509523Y-21007200D01*
X31509523Y-21007200D02*
X31414285Y-21054819D01*
X31414285Y-21054819D02*
X31223809Y-21054819D01*
X31223809Y-21054819D02*
X31128571Y-21007200D01*
X31128571Y-21007200D02*
X31080952Y-20959580D01*
X31080952Y-20959580D02*
X31033333Y-20864342D01*
X31033333Y-20864342D02*
X31033333Y-20673866D01*
X31033333Y-20673866D02*
X31080952Y-20578628D01*
X31080952Y-20578628D02*
X31128571Y-20531009D01*
X31128571Y-20531009D02*
X31223809Y-20483390D01*
X66154819Y-32297619D02*
X65678628Y-31964286D01*
X66154819Y-31726191D02*
X65154819Y-31726191D01*
X65154819Y-31726191D02*
X65154819Y-32107143D01*
X65154819Y-32107143D02*
X65202438Y-32202381D01*
X65202438Y-32202381D02*
X65250057Y-32250000D01*
X65250057Y-32250000D02*
X65345295Y-32297619D01*
X65345295Y-32297619D02*
X65488152Y-32297619D01*
X65488152Y-32297619D02*
X65583390Y-32250000D01*
X65583390Y-32250000D02*
X65631009Y-32202381D01*
X65631009Y-32202381D02*
X65678628Y-32107143D01*
X65678628Y-32107143D02*
X65678628Y-31726191D01*
X65631009Y-32726191D02*
X65631009Y-33059524D01*
X66154819Y-33202381D02*
X66154819Y-32726191D01*
X66154819Y-32726191D02*
X65154819Y-32726191D01*
X65154819Y-32726191D02*
X65154819Y-33202381D01*
X66107200Y-33583334D02*
X66154819Y-33726191D01*
X66154819Y-33726191D02*
X66154819Y-33964286D01*
X66154819Y-33964286D02*
X66107200Y-34059524D01*
X66107200Y-34059524D02*
X66059580Y-34107143D01*
X66059580Y-34107143D02*
X65964342Y-34154762D01*
X65964342Y-34154762D02*
X65869104Y-34154762D01*
X65869104Y-34154762D02*
X65773866Y-34107143D01*
X65773866Y-34107143D02*
X65726247Y-34059524D01*
X65726247Y-34059524D02*
X65678628Y-33964286D01*
X65678628Y-33964286D02*
X65631009Y-33773810D01*
X65631009Y-33773810D02*
X65583390Y-33678572D01*
X65583390Y-33678572D02*
X65535771Y-33630953D01*
X65535771Y-33630953D02*
X65440533Y-33583334D01*
X65440533Y-33583334D02*
X65345295Y-33583334D01*
X65345295Y-33583334D02*
X65250057Y-33630953D01*
X65250057Y-33630953D02*
X65202438Y-33678572D01*
X65202438Y-33678572D02*
X65154819Y-33773810D01*
X65154819Y-33773810D02*
X65154819Y-34011905D01*
X65154819Y-34011905D02*
X65202438Y-34154762D01*
X65631009Y-34583334D02*
X65631009Y-34916667D01*
X66154819Y-35059524D02*
X66154819Y-34583334D01*
X66154819Y-34583334D02*
X65154819Y-34583334D01*
X65154819Y-34583334D02*
X65154819Y-35059524D01*
X65154819Y-35345239D02*
X65154819Y-35916667D01*
X66154819Y-35630953D02*
X65154819Y-35630953D01*
X63333333Y-36754819D02*
X63333333Y-37469104D01*
X63333333Y-37469104D02*
X63380952Y-37611961D01*
X63380952Y-37611961D02*
X63476190Y-37707200D01*
X63476190Y-37707200D02*
X63619047Y-37754819D01*
X63619047Y-37754819D02*
X63714285Y-37754819D01*
X62952380Y-36754819D02*
X62333333Y-36754819D01*
X62333333Y-36754819D02*
X62666666Y-37135771D01*
X62666666Y-37135771D02*
X62523809Y-37135771D01*
X62523809Y-37135771D02*
X62428571Y-37183390D01*
X62428571Y-37183390D02*
X62380952Y-37231009D01*
X62380952Y-37231009D02*
X62333333Y-37326247D01*
X62333333Y-37326247D02*
X62333333Y-37564342D01*
X62333333Y-37564342D02*
X62380952Y-37659580D01*
X62380952Y-37659580D02*
X62428571Y-37707200D01*
X62428571Y-37707200D02*
X62523809Y-37754819D01*
X62523809Y-37754819D02*
X62809523Y-37754819D01*
X62809523Y-37754819D02*
X62904761Y-37707200D01*
X62904761Y-37707200D02*
X62952380Y-37659580D01*
X62108333Y-37254819D02*
X63933576Y-37254819D01*
X74561904Y-22769819D02*
X74561904Y-23579342D01*
X74561904Y-23579342D02*
X74514285Y-23674580D01*
X74514285Y-23674580D02*
X74466666Y-23722200D01*
X74466666Y-23722200D02*
X74371428Y-23769819D01*
X74371428Y-23769819D02*
X74180952Y-23769819D01*
X74180952Y-23769819D02*
X74085714Y-23722200D01*
X74085714Y-23722200D02*
X74038095Y-23674580D01*
X74038095Y-23674580D02*
X73990476Y-23579342D01*
X73990476Y-23579342D02*
X73990476Y-22769819D01*
X73609523Y-22769819D02*
X72990476Y-22769819D01*
X72990476Y-22769819D02*
X73323809Y-23150771D01*
X73323809Y-23150771D02*
X73180952Y-23150771D01*
X73180952Y-23150771D02*
X73085714Y-23198390D01*
X73085714Y-23198390D02*
X73038095Y-23246009D01*
X73038095Y-23246009D02*
X72990476Y-23341247D01*
X72990476Y-23341247D02*
X72990476Y-23579342D01*
X72990476Y-23579342D02*
X73038095Y-23674580D01*
X73038095Y-23674580D02*
X73085714Y-23722200D01*
X73085714Y-23722200D02*
X73180952Y-23769819D01*
X73180952Y-23769819D02*
X73466666Y-23769819D01*
X73466666Y-23769819D02*
X73561904Y-23722200D01*
X73561904Y-23722200D02*
X73609523Y-23674580D01*
D10*
X78460714Y-26168574D02*
X78544047Y-26049527D01*
X78603571Y-26168574D02*
X78603571Y-25918574D01*
X78603571Y-25918574D02*
X78508333Y-25918574D01*
X78508333Y-25918574D02*
X78484523Y-25930479D01*
X78484523Y-25930479D02*
X78472618Y-25942384D01*
X78472618Y-25942384D02*
X78460714Y-25966193D01*
X78460714Y-25966193D02*
X78460714Y-26001908D01*
X78460714Y-26001908D02*
X78472618Y-26025717D01*
X78472618Y-26025717D02*
X78484523Y-26037622D01*
X78484523Y-26037622D02*
X78508333Y-26049527D01*
X78508333Y-26049527D02*
X78603571Y-26049527D01*
X78222618Y-26168574D02*
X78365475Y-26168574D01*
X78294047Y-26168574D02*
X78294047Y-25918574D01*
X78294047Y-25918574D02*
X78317856Y-25954289D01*
X78317856Y-25954289D02*
X78341666Y-25978098D01*
X78341666Y-25978098D02*
X78365475Y-25990003D01*
X78139285Y-25918574D02*
X77984523Y-25918574D01*
X77984523Y-25918574D02*
X78067857Y-26013812D01*
X78067857Y-26013812D02*
X78032142Y-26013812D01*
X78032142Y-26013812D02*
X78008333Y-26025717D01*
X78008333Y-26025717D02*
X77996428Y-26037622D01*
X77996428Y-26037622D02*
X77984523Y-26061431D01*
X77984523Y-26061431D02*
X77984523Y-26120955D01*
X77984523Y-26120955D02*
X77996428Y-26144765D01*
X77996428Y-26144765D02*
X78008333Y-26156670D01*
X78008333Y-26156670D02*
X78032142Y-26168574D01*
X78032142Y-26168574D02*
X78103571Y-26168574D01*
X78103571Y-26168574D02*
X78127380Y-26156670D01*
X78127380Y-26156670D02*
X78139285Y-26144765D01*
X86160714Y-35889765D02*
X86172618Y-35901670D01*
X86172618Y-35901670D02*
X86208333Y-35913574D01*
X86208333Y-35913574D02*
X86232142Y-35913574D01*
X86232142Y-35913574D02*
X86267856Y-35901670D01*
X86267856Y-35901670D02*
X86291666Y-35877860D01*
X86291666Y-35877860D02*
X86303571Y-35854050D01*
X86303571Y-35854050D02*
X86315475Y-35806431D01*
X86315475Y-35806431D02*
X86315475Y-35770717D01*
X86315475Y-35770717D02*
X86303571Y-35723098D01*
X86303571Y-35723098D02*
X86291666Y-35699289D01*
X86291666Y-35699289D02*
X86267856Y-35675479D01*
X86267856Y-35675479D02*
X86232142Y-35663574D01*
X86232142Y-35663574D02*
X86208333Y-35663574D01*
X86208333Y-35663574D02*
X86172618Y-35675479D01*
X86172618Y-35675479D02*
X86160714Y-35687384D01*
X86065475Y-35687384D02*
X86053571Y-35675479D01*
X86053571Y-35675479D02*
X86029761Y-35663574D01*
X86029761Y-35663574D02*
X85970237Y-35663574D01*
X85970237Y-35663574D02*
X85946428Y-35675479D01*
X85946428Y-35675479D02*
X85934523Y-35687384D01*
X85934523Y-35687384D02*
X85922618Y-35711193D01*
X85922618Y-35711193D02*
X85922618Y-35735003D01*
X85922618Y-35735003D02*
X85934523Y-35770717D01*
X85934523Y-35770717D02*
X86077380Y-35913574D01*
X86077380Y-35913574D02*
X85922618Y-35913574D01*
X85708333Y-35663574D02*
X85755952Y-35663574D01*
X85755952Y-35663574D02*
X85779761Y-35675479D01*
X85779761Y-35675479D02*
X85791666Y-35687384D01*
X85791666Y-35687384D02*
X85815476Y-35723098D01*
X85815476Y-35723098D02*
X85827380Y-35770717D01*
X85827380Y-35770717D02*
X85827380Y-35865955D01*
X85827380Y-35865955D02*
X85815476Y-35889765D01*
X85815476Y-35889765D02*
X85803571Y-35901670D01*
X85803571Y-35901670D02*
X85779761Y-35913574D01*
X85779761Y-35913574D02*
X85732142Y-35913574D01*
X85732142Y-35913574D02*
X85708333Y-35901670D01*
X85708333Y-35901670D02*
X85696428Y-35889765D01*
X85696428Y-35889765D02*
X85684523Y-35865955D01*
X85684523Y-35865955D02*
X85684523Y-35806431D01*
X85684523Y-35806431D02*
X85696428Y-35782622D01*
X85696428Y-35782622D02*
X85708333Y-35770717D01*
X85708333Y-35770717D02*
X85732142Y-35758812D01*
X85732142Y-35758812D02*
X85779761Y-35758812D01*
X85779761Y-35758812D02*
X85803571Y-35770717D01*
X85803571Y-35770717D02*
X85815476Y-35782622D01*
X85815476Y-35782622D02*
X85827380Y-35806431D01*
D18*
%TO.C,C18*%
X52250000Y-29145000D02*
X52250000Y-29745000D01*
X52250000Y-29745000D02*
X52550000Y-29745000D01*
X52550000Y-29145000D02*
X52250000Y-29145000D01*
X52550000Y-29745000D02*
X52550000Y-29145000D01*
%TO.C,C21*%
X48975001Y-26349999D02*
X48975001Y-24749999D01*
X48975001Y-24749999D02*
X48175001Y-24749999D01*
X48175001Y-26349999D02*
X48975001Y-26349999D01*
X48175001Y-24749999D02*
X48175001Y-26349999D01*
%TO.C,C17*%
X54737501Y-29350004D02*
X54737501Y-27750004D01*
X54737501Y-27750004D02*
X53937501Y-27750004D01*
X53937501Y-29350004D02*
X54737501Y-29350004D01*
X53937501Y-27750004D02*
X53937501Y-29350004D01*
%TO.C,R10*%
X51587500Y-29749999D02*
X51587500Y-29149999D01*
X51587500Y-29149999D02*
X51287500Y-29149999D01*
X51287500Y-29749999D02*
X51587500Y-29749999D01*
X51287500Y-29149999D02*
X51287500Y-29749999D01*
%TO.C,R11*%
X50587502Y-29749999D02*
X50587502Y-29149999D01*
X50587502Y-29149999D02*
X50287502Y-29149999D01*
X50287502Y-29749999D02*
X50587502Y-29749999D01*
X50287502Y-29149999D02*
X50287502Y-29749999D01*
%TO.C,C20*%
X54737504Y-26349999D02*
X54737504Y-24749999D01*
X54737504Y-24749999D02*
X53937504Y-24749999D01*
X53937504Y-26349999D02*
X54737504Y-26349999D01*
X53937504Y-24749999D02*
X53937504Y-26349999D01*
%TO.C,U4*%
X52937500Y-27850000D02*
X50687500Y-27850000D01*
X49937500Y-27100000D01*
X49937500Y-24850000D01*
X52937500Y-24850000D01*
X52937500Y-27850000D01*
%TO.C,D1*%
X97995001Y-24650000D02*
X97995001Y-22850000D01*
X96595001Y-24650000D02*
X97995001Y-24650000D01*
X97645001Y-23950000D02*
X97295001Y-23450000D01*
X97295001Y-23949999D02*
X97295001Y-24200000D01*
X96945001Y-23950000D02*
X97645001Y-23950000D01*
X97295001Y-23450000D02*
X96945001Y-23950000D01*
X97295001Y-23450000D02*
X97295001Y-23250001D01*
X96945002Y-23450000D02*
X97645000Y-23450000D01*
X97995001Y-22850000D02*
X96595001Y-22850000D01*
X96595001Y-22850000D02*
X96595001Y-24650000D01*
%TO.C,C29*%
X51362499Y-36100000D02*
X51362499Y-36900000D01*
X51362499Y-36900000D02*
X52962499Y-36900000D01*
X52962499Y-36100000D02*
X51362499Y-36100000D01*
X52962499Y-36900000D02*
X52962499Y-36100000D01*
%TO.C,C27*%
X51362500Y-31499999D02*
X51362500Y-32299999D01*
X51362500Y-32299999D02*
X52962500Y-32299999D01*
X52962500Y-31499999D02*
X51362500Y-31499999D01*
X52962500Y-32299999D02*
X52962500Y-31499999D01*
%TO.C,U5*%
X54000000Y-32750000D02*
X54000000Y-35250001D01*
X54000000Y-35250001D02*
X54400000Y-35650000D01*
X54400000Y-35650000D02*
X55600000Y-35650000D01*
X55600000Y-32750000D02*
X54000000Y-32750000D01*
X55600000Y-35650000D02*
X55600000Y-32750000D01*
%TO.C,U6*%
X51037501Y-33050000D02*
X52237501Y-33050000D01*
X51037501Y-35350000D02*
X51037501Y-33050000D01*
X52237501Y-33050000D02*
X52437501Y-33300000D01*
X52437501Y-33300000D02*
X52437501Y-35350000D01*
X52437501Y-35350000D02*
X51037501Y-35350000D01*
%TO.C,C30*%
X51362500Y-37600000D02*
X51362500Y-38400000D01*
X51362500Y-38400000D02*
X52962500Y-38400000D01*
X52962500Y-37600000D02*
X51362500Y-37600000D01*
X52962500Y-38400000D02*
X52962500Y-37600000D01*
%TO.C,C28*%
X50112500Y-31599999D02*
X50112500Y-32199999D01*
X50112500Y-32199999D02*
X50412500Y-32199999D01*
X50412500Y-31599999D02*
X50112500Y-31599999D01*
X50412500Y-32199999D02*
X50412500Y-31599999D01*
%TO.C,L1*%
X50537500Y-35200000D02*
X48937500Y-35200000D01*
X48937500Y-33200000D01*
X50537500Y-33200000D01*
X50537500Y-35200000D01*
%TO.C,Y1*%
X82030000Y-38005000D02*
X81405001Y-38630000D01*
X78830000Y-38630000D01*
X78830000Y-36130000D01*
X82030000Y-36130000D01*
X82030000Y-38005000D01*
%TO.C,C25*%
X79645000Y-35350000D02*
X80245000Y-35350000D01*
X79645000Y-35050000D02*
X79645000Y-35350000D01*
X80245000Y-35350000D02*
X80245000Y-35050000D01*
X80245000Y-35050000D02*
X79645000Y-35050000D01*
%TO.C,R12*%
X78150000Y-24200000D02*
X78150000Y-24800000D01*
X78450000Y-24200000D02*
X78150000Y-24200000D01*
X78150000Y-24800000D02*
X78450000Y-24800000D01*
X78450000Y-24800000D02*
X78450000Y-24200000D01*
%TO.C,C23*%
X81120000Y-35350000D02*
X81720000Y-35350000D01*
X81120000Y-35050000D02*
X81120000Y-35350000D01*
X81720000Y-35350000D02*
X81720000Y-35050000D01*
X81720000Y-35050000D02*
X81120000Y-35050000D01*
%TO.C,DS1*%
X83800000Y-23300000D02*
G75*
G02*
X83000000Y-23300000I-400000J0D01*
G01*
X83000000Y-23300000D02*
G75*
G02*
X83800000Y-23300000I400000J0D01*
G01*
X83800000Y-33700000D02*
G75*
G02*
X83000000Y-33700000I-400000J0D01*
G01*
X83000000Y-33700000D02*
G75*
G02*
X83800000Y-33700000I400000J0D01*
G01*
X79400000Y-22800000D02*
G75*
G02*
X79900000Y-22300000I500000J0D01*
G01*
X83900000Y-22300000D02*
X83904363Y-22300019D01*
X83904363Y-22300019D02*
X83908726Y-22300076D01*
X83908726Y-22300076D02*
X83913088Y-22300171D01*
X83913088Y-22300171D02*
X83917450Y-22300305D01*
X83917450Y-22300305D02*
X83921810Y-22300476D01*
X83921810Y-22300476D02*
X83926168Y-22300685D01*
X83926168Y-22300685D02*
X83930524Y-22300933D01*
X83930524Y-22300933D02*
X83934878Y-22301218D01*
X83934878Y-22301218D02*
X83939230Y-22301541D01*
X83939230Y-22301541D02*
X83943578Y-22301903D01*
X83943578Y-22301903D02*
X83947923Y-22302302D01*
X83947923Y-22302302D02*
X83952264Y-22302739D01*
X83952264Y-22302739D02*
X83956602Y-22303214D01*
X83956602Y-22303214D02*
X83960935Y-22303727D01*
X83960935Y-22303727D02*
X83965263Y-22304278D01*
X83965263Y-22304278D02*
X83969587Y-22304866D01*
X83969587Y-22304866D02*
X83973905Y-22305492D01*
X83973905Y-22305492D02*
X83978217Y-22306156D01*
X83978217Y-22306156D02*
X83982524Y-22306857D01*
X83982524Y-22306857D02*
X83986824Y-22307596D01*
X83986824Y-22307596D02*
X83991118Y-22308373D01*
X83991118Y-22308373D02*
X83995404Y-22309186D01*
X83995404Y-22309186D02*
X83999684Y-22310038D01*
X83999684Y-22310038D02*
X84003956Y-22310926D01*
X84003956Y-22310926D02*
X84008220Y-22311852D01*
X84008220Y-22311852D02*
X84012476Y-22312815D01*
X84012476Y-22312815D02*
X84016723Y-22313815D01*
X84016723Y-22313815D02*
X84020961Y-22314852D01*
X84020961Y-22314852D02*
X84025190Y-22315926D01*
X84025190Y-22315926D02*
X84029410Y-22317037D01*
X84029410Y-22317037D02*
X84033619Y-22318185D01*
X84033619Y-22318185D02*
X84037819Y-22319369D01*
X84037819Y-22319369D02*
X84042008Y-22320590D01*
X84042008Y-22320590D02*
X84046186Y-22321848D01*
X84046186Y-22321848D02*
X84050353Y-22323142D01*
X84050353Y-22323142D02*
X84054508Y-22324472D01*
X84054508Y-22324472D02*
X84058652Y-22325838D01*
X84058652Y-22325838D02*
X84062784Y-22327241D01*
X84062784Y-22327241D02*
X84066903Y-22328679D01*
X84066903Y-22328679D02*
X84071010Y-22330154D01*
X84071010Y-22330154D02*
X84075104Y-22331664D01*
X84075104Y-22331664D02*
X84079184Y-22333210D01*
X84079184Y-22333210D02*
X84083251Y-22334791D01*
X84083251Y-22334791D02*
X84087303Y-22336408D01*
X84087303Y-22336408D02*
X84091342Y-22338060D01*
X84091342Y-22338060D02*
X84095366Y-22339748D01*
X84095366Y-22339748D02*
X84099375Y-22341470D01*
X84099375Y-22341470D02*
X84103368Y-22343227D01*
X84103368Y-22343227D02*
X84107347Y-22345019D01*
X84107347Y-22345019D02*
X84111309Y-22346846D01*
X84111309Y-22346846D02*
X84115256Y-22348707D01*
X84115256Y-22348707D02*
X84119186Y-22350603D01*
X84119186Y-22350603D02*
X84123099Y-22352533D01*
X84123099Y-22352533D02*
X84126995Y-22354497D01*
X84126995Y-22354497D02*
X84130874Y-22356495D01*
X84130874Y-22356495D02*
X84134736Y-22358526D01*
X84134736Y-22358526D02*
X84138579Y-22360591D01*
X84138579Y-22360591D02*
X84142405Y-22362690D01*
X84142405Y-22362690D02*
X84146212Y-22364822D01*
X84146212Y-22364822D02*
X84150000Y-22366987D01*
X84150000Y-22366987D02*
X84153769Y-22369185D01*
X84153769Y-22369185D02*
X84157519Y-22371416D01*
X84157519Y-22371416D02*
X84161249Y-22373680D01*
X84161249Y-22373680D02*
X84164960Y-22375976D01*
X84164960Y-22375976D02*
X84168650Y-22378304D01*
X84168650Y-22378304D02*
X84172320Y-22380665D01*
X84172320Y-22380665D02*
X84175968Y-22383057D01*
X84175968Y-22383057D02*
X84179596Y-22385481D01*
X84179596Y-22385481D02*
X84183203Y-22387937D01*
X84183203Y-22387937D02*
X84186788Y-22390424D01*
X84186788Y-22390424D02*
X84190351Y-22392942D01*
X84190351Y-22392942D02*
X84193893Y-22395492D01*
X84193893Y-22395492D02*
X84197411Y-22398072D01*
X84197411Y-22398072D02*
X84200908Y-22400682D01*
X84200908Y-22400682D02*
X84204381Y-22403323D01*
X84204381Y-22403323D02*
X84207831Y-22405995D01*
X84207831Y-22405995D02*
X84211257Y-22408696D01*
X84211257Y-22408696D02*
X84214660Y-22411427D01*
X84214660Y-22411427D02*
X84218039Y-22414188D01*
X84218039Y-22414188D02*
X84221394Y-22416978D01*
X84221394Y-22416978D02*
X84224724Y-22419797D01*
X84224724Y-22419797D02*
X84228030Y-22422645D01*
X84228030Y-22422645D02*
X84231310Y-22425522D01*
X84231310Y-22425522D02*
X84234565Y-22428428D01*
X84234565Y-22428428D02*
X84237795Y-22431361D01*
X84237795Y-22431361D02*
X84240999Y-22434323D01*
X84240999Y-22434323D02*
X84244177Y-22437313D01*
X84244177Y-22437313D02*
X84247329Y-22440330D01*
X84247329Y-22440330D02*
X84250455Y-22443375D01*
X84250455Y-22443375D02*
X84253553Y-22446447D01*
X84253553Y-22446447D02*
X84256625Y-22449545D01*
X84256625Y-22449545D02*
X84259670Y-22452671D01*
X84259670Y-22452671D02*
X84262687Y-22455823D01*
X84262687Y-22455823D02*
X84265677Y-22459001D01*
X84265677Y-22459001D02*
X84268639Y-22462205D01*
X84268639Y-22462205D02*
X84271572Y-22465435D01*
X84271572Y-22465435D02*
X84274478Y-22468690D01*
X84274478Y-22468690D02*
X84277355Y-22471970D01*
X84277355Y-22471970D02*
X84280203Y-22475276D01*
X84280203Y-22475276D02*
X84283022Y-22478606D01*
X84283022Y-22478606D02*
X84285812Y-22481961D01*
X84285812Y-22481961D02*
X84288573Y-22485340D01*
X84288573Y-22485340D02*
X84291304Y-22488743D01*
X84291304Y-22488743D02*
X84294005Y-22492169D01*
X84294005Y-22492169D02*
X84296677Y-22495619D01*
X84296677Y-22495619D02*
X84299318Y-22499092D01*
X84299318Y-22499092D02*
X84301928Y-22502589D01*
X84301928Y-22502589D02*
X84304508Y-22506107D01*
X84304508Y-22506107D02*
X84307058Y-22509649D01*
X84307058Y-22509649D02*
X84309576Y-22513212D01*
X84309576Y-22513212D02*
X84312063Y-22516797D01*
X84312063Y-22516797D02*
X84314519Y-22520404D01*
X84314519Y-22520404D02*
X84316943Y-22524032D01*
X84316943Y-22524032D02*
X84319335Y-22527680D01*
X84319335Y-22527680D02*
X84321696Y-22531350D01*
X84321696Y-22531350D02*
X84324024Y-22535040D01*
X84324024Y-22535040D02*
X84326320Y-22538751D01*
X84326320Y-22538751D02*
X84328584Y-22542481D01*
X84328584Y-22542481D02*
X84330815Y-22546231D01*
X84330815Y-22546231D02*
X84333013Y-22550000D01*
X84333013Y-22550000D02*
X84335178Y-22553788D01*
X84335178Y-22553788D02*
X84337310Y-22557595D01*
X84337310Y-22557595D02*
X84339409Y-22561421D01*
X84339409Y-22561421D02*
X84341474Y-22565264D01*
X84341474Y-22565264D02*
X84343505Y-22569126D01*
X84343505Y-22569126D02*
X84345503Y-22573005D01*
X84345503Y-22573005D02*
X84347467Y-22576901D01*
X84347467Y-22576901D02*
X84349397Y-22580814D01*
X84349397Y-22580814D02*
X84351293Y-22584744D01*
X84351293Y-22584744D02*
X84353154Y-22588691D01*
X84353154Y-22588691D02*
X84354981Y-22592653D01*
X84354981Y-22592653D02*
X84356773Y-22596632D01*
X84356773Y-22596632D02*
X84358530Y-22600625D01*
X84358530Y-22600625D02*
X84360252Y-22604634D01*
X84360252Y-22604634D02*
X84361940Y-22608658D01*
X84361940Y-22608658D02*
X84363592Y-22612697D01*
X84363592Y-22612697D02*
X84365209Y-22616749D01*
X84365209Y-22616749D02*
X84366790Y-22620816D01*
X84366790Y-22620816D02*
X84368336Y-22624896D01*
X84368336Y-22624896D02*
X84369846Y-22628990D01*
X84369846Y-22628990D02*
X84371321Y-22633097D01*
X84371321Y-22633097D02*
X84372759Y-22637216D01*
X84372759Y-22637216D02*
X84374162Y-22641348D01*
X84374162Y-22641348D02*
X84375528Y-22645492D01*
X84375528Y-22645492D02*
X84376858Y-22649647D01*
X84376858Y-22649647D02*
X84378152Y-22653814D01*
X84378152Y-22653814D02*
X84379410Y-22657992D01*
X84379410Y-22657992D02*
X84380631Y-22662181D01*
X84380631Y-22662181D02*
X84381815Y-22666381D01*
X84381815Y-22666381D02*
X84382963Y-22670590D01*
X84382963Y-22670590D02*
X84384074Y-22674810D01*
X84384074Y-22674810D02*
X84385148Y-22679039D01*
X84385148Y-22679039D02*
X84386185Y-22683277D01*
X84386185Y-22683277D02*
X84387185Y-22687524D01*
X84387185Y-22687524D02*
X84388148Y-22691780D01*
X84388148Y-22691780D02*
X84389074Y-22696044D01*
X84389074Y-22696044D02*
X84389962Y-22700316D01*
X84389962Y-22700316D02*
X84390814Y-22704596D01*
X84390814Y-22704596D02*
X84391627Y-22708882D01*
X84391627Y-22708882D02*
X84392404Y-22713176D01*
X84392404Y-22713176D02*
X84393143Y-22717476D01*
X84393143Y-22717476D02*
X84393844Y-22721783D01*
X84393844Y-22721783D02*
X84394508Y-22726095D01*
X84394508Y-22726095D02*
X84395134Y-22730413D01*
X84395134Y-22730413D02*
X84395722Y-22734737D01*
X84395722Y-22734737D02*
X84396273Y-22739065D01*
X84396273Y-22739065D02*
X84396786Y-22743398D01*
X84396786Y-22743398D02*
X84397261Y-22747736D01*
X84397261Y-22747736D02*
X84397698Y-22752077D01*
X84397698Y-22752077D02*
X84398097Y-22756422D01*
X84398097Y-22756422D02*
X84398459Y-22760770D01*
X84398459Y-22760770D02*
X84398782Y-22765122D01*
X84398782Y-22765122D02*
X84399067Y-22769476D01*
X84399067Y-22769476D02*
X84399315Y-22773832D01*
X84399315Y-22773832D02*
X84399524Y-22778190D01*
X84399524Y-22778190D02*
X84399695Y-22782550D01*
X84399695Y-22782550D02*
X84399829Y-22786912D01*
X84399829Y-22786912D02*
X84399924Y-22791274D01*
X84399924Y-22791274D02*
X84399981Y-22795637D01*
X84399981Y-22795637D02*
X84400000Y-22800000D01*
X79900000Y-34700000D02*
G75*
G02*
X79400000Y-34200000I1J500001D01*
G01*
X84400000Y-34200000D02*
X84399981Y-34204363D01*
X84399981Y-34204363D02*
X84399924Y-34208726D01*
X84399924Y-34208726D02*
X84399829Y-34213088D01*
X84399829Y-34213088D02*
X84399695Y-34217450D01*
X84399695Y-34217450D02*
X84399524Y-34221810D01*
X84399524Y-34221810D02*
X84399315Y-34226168D01*
X84399315Y-34226168D02*
X84399067Y-34230524D01*
X84399067Y-34230524D02*
X84398782Y-34234878D01*
X84398782Y-34234878D02*
X84398459Y-34239230D01*
X84398459Y-34239230D02*
X84398097Y-34243578D01*
X84398097Y-34243578D02*
X84397698Y-34247923D01*
X84397698Y-34247923D02*
X84397261Y-34252264D01*
X84397261Y-34252264D02*
X84396786Y-34256602D01*
X84396786Y-34256602D02*
X84396273Y-34260935D01*
X84396273Y-34260935D02*
X84395722Y-34265263D01*
X84395722Y-34265263D02*
X84395134Y-34269587D01*
X84395134Y-34269587D02*
X84394508Y-34273905D01*
X84394508Y-34273905D02*
X84393844Y-34278217D01*
X84393844Y-34278217D02*
X84393143Y-34282524D01*
X84393143Y-34282524D02*
X84392404Y-34286824D01*
X84392404Y-34286824D02*
X84391627Y-34291118D01*
X84391627Y-34291118D02*
X84390814Y-34295404D01*
X84390814Y-34295404D02*
X84389962Y-34299684D01*
X84389962Y-34299684D02*
X84389074Y-34303956D01*
X84389074Y-34303956D02*
X84388148Y-34308220D01*
X84388148Y-34308220D02*
X84387185Y-34312476D01*
X84387185Y-34312476D02*
X84386185Y-34316723D01*
X84386185Y-34316723D02*
X84385148Y-34320961D01*
X84385148Y-34320961D02*
X84384074Y-34325190D01*
X84384074Y-34325190D02*
X84382963Y-34329410D01*
X84382963Y-34329410D02*
X84381815Y-34333619D01*
X84381815Y-34333619D02*
X84380631Y-34337819D01*
X84380631Y-34337819D02*
X84379410Y-34342008D01*
X84379410Y-34342008D02*
X84378152Y-34346186D01*
X84378152Y-34346186D02*
X84376858Y-34350353D01*
X84376858Y-34350353D02*
X84375528Y-34354508D01*
X84375528Y-34354508D02*
X84374162Y-34358652D01*
X84374162Y-34358652D02*
X84372759Y-34362784D01*
X84372759Y-34362784D02*
X84371321Y-34366903D01*
X84371321Y-34366903D02*
X84369846Y-34371010D01*
X84369846Y-34371010D02*
X84368336Y-34375104D01*
X84368336Y-34375104D02*
X84366790Y-34379184D01*
X84366790Y-34379184D02*
X84365209Y-34383251D01*
X84365209Y-34383251D02*
X84363592Y-34387303D01*
X84363592Y-34387303D02*
X84361940Y-34391342D01*
X84361940Y-34391342D02*
X84360252Y-34395366D01*
X84360252Y-34395366D02*
X84358530Y-34399375D01*
X84358530Y-34399375D02*
X84356773Y-34403368D01*
X84356773Y-34403368D02*
X84354981Y-34407347D01*
X84354981Y-34407347D02*
X84353154Y-34411309D01*
X84353154Y-34411309D02*
X84351293Y-34415256D01*
X84351293Y-34415256D02*
X84349397Y-34419186D01*
X84349397Y-34419186D02*
X84347467Y-34423099D01*
X84347467Y-34423099D02*
X84345503Y-34426995D01*
X84345503Y-34426995D02*
X84343505Y-34430874D01*
X84343505Y-34430874D02*
X84341474Y-34434736D01*
X84341474Y-34434736D02*
X84339409Y-34438579D01*
X84339409Y-34438579D02*
X84337310Y-34442405D01*
X84337310Y-34442405D02*
X84335178Y-34446212D01*
X84335178Y-34446212D02*
X84333013Y-34450000D01*
X84333013Y-34450000D02*
X84330815Y-34453769D01*
X84330815Y-34453769D02*
X84328584Y-34457519D01*
X84328584Y-34457519D02*
X84326320Y-34461249D01*
X84326320Y-34461249D02*
X84324024Y-34464960D01*
X84324024Y-34464960D02*
X84321696Y-34468650D01*
X84321696Y-34468650D02*
X84319335Y-34472320D01*
X84319335Y-34472320D02*
X84316943Y-34475968D01*
X84316943Y-34475968D02*
X84314519Y-34479596D01*
X84314519Y-34479596D02*
X84312063Y-34483203D01*
X84312063Y-34483203D02*
X84309576Y-34486788D01*
X84309576Y-34486788D02*
X84307058Y-34490351D01*
X84307058Y-34490351D02*
X84304508Y-34493893D01*
X84304508Y-34493893D02*
X84301928Y-34497411D01*
X84301928Y-34497411D02*
X84299318Y-34500908D01*
X84299318Y-34500908D02*
X84296677Y-34504381D01*
X84296677Y-34504381D02*
X84294005Y-34507831D01*
X84294005Y-34507831D02*
X84291304Y-34511257D01*
X84291304Y-34511257D02*
X84288573Y-34514660D01*
X84288573Y-34514660D02*
X84285812Y-34518039D01*
X84285812Y-34518039D02*
X84283022Y-34521394D01*
X84283022Y-34521394D02*
X84280203Y-34524724D01*
X84280203Y-34524724D02*
X84277355Y-34528030D01*
X84277355Y-34528030D02*
X84274478Y-34531310D01*
X84274478Y-34531310D02*
X84271572Y-34534565D01*
X84271572Y-34534565D02*
X84268639Y-34537795D01*
X84268639Y-34537795D02*
X84265677Y-34540999D01*
X84265677Y-34540999D02*
X84262687Y-34544177D01*
X84262687Y-34544177D02*
X84259670Y-34547329D01*
X84259670Y-34547329D02*
X84256625Y-34550455D01*
X84256625Y-34550455D02*
X84253553Y-34553553D01*
X84253553Y-34553553D02*
X84250455Y-34556625D01*
X84250455Y-34556625D02*
X84247329Y-34559670D01*
X84247329Y-34559670D02*
X84244177Y-34562687D01*
X84244177Y-34562687D02*
X84240999Y-34565677D01*
X84240999Y-34565677D02*
X84237795Y-34568639D01*
X84237795Y-34568639D02*
X84234565Y-34571572D01*
X84234565Y-34571572D02*
X84231310Y-34574478D01*
X84231310Y-34574478D02*
X84228030Y-34577355D01*
X84228030Y-34577355D02*
X84224724Y-34580203D01*
X84224724Y-34580203D02*
X84221394Y-34583022D01*
X84221394Y-34583022D02*
X84218039Y-34585812D01*
X84218039Y-34585812D02*
X84214660Y-34588573D01*
X84214660Y-34588573D02*
X84211257Y-34591304D01*
X84211257Y-34591304D02*
X84207831Y-34594005D01*
X84207831Y-34594005D02*
X84204381Y-34596677D01*
X84204381Y-34596677D02*
X84200908Y-34599318D01*
X84200908Y-34599318D02*
X84197411Y-34601928D01*
X84197411Y-34601928D02*
X84193893Y-34604508D01*
X84193893Y-34604508D02*
X84190351Y-34607058D01*
X84190351Y-34607058D02*
X84186788Y-34609576D01*
X84186788Y-34609576D02*
X84183203Y-34612063D01*
X84183203Y-34612063D02*
X84179596Y-34614519D01*
X84179596Y-34614519D02*
X84175968Y-34616943D01*
X84175968Y-34616943D02*
X84172320Y-34619335D01*
X84172320Y-34619335D02*
X84168650Y-34621696D01*
X84168650Y-34621696D02*
X84164960Y-34624024D01*
X84164960Y-34624024D02*
X84161249Y-34626320D01*
X84161249Y-34626320D02*
X84157519Y-34628584D01*
X84157519Y-34628584D02*
X84153769Y-34630815D01*
X84153769Y-34630815D02*
X84150000Y-34633013D01*
X84150000Y-34633013D02*
X84146212Y-34635178D01*
X84146212Y-34635178D02*
X84142405Y-34637310D01*
X84142405Y-34637310D02*
X84138579Y-34639409D01*
X84138579Y-34639409D02*
X84134736Y-34641474D01*
X84134736Y-34641474D02*
X84130874Y-34643505D01*
X84130874Y-34643505D02*
X84126995Y-34645503D01*
X84126995Y-34645503D02*
X84123099Y-34647467D01*
X84123099Y-34647467D02*
X84119186Y-34649397D01*
X84119186Y-34649397D02*
X84115256Y-34651293D01*
X84115256Y-34651293D02*
X84111309Y-34653154D01*
X84111309Y-34653154D02*
X84107347Y-34654981D01*
X84107347Y-34654981D02*
X84103368Y-34656773D01*
X84103368Y-34656773D02*
X84099375Y-34658530D01*
X84099375Y-34658530D02*
X84095366Y-34660252D01*
X84095366Y-34660252D02*
X84091342Y-34661940D01*
X84091342Y-34661940D02*
X84087303Y-34663592D01*
X84087303Y-34663592D02*
X84083251Y-34665209D01*
X84083251Y-34665209D02*
X84079184Y-34666790D01*
X84079184Y-34666790D02*
X84075104Y-34668336D01*
X84075104Y-34668336D02*
X84071010Y-34669846D01*
X84071010Y-34669846D02*
X84066903Y-34671321D01*
X84066903Y-34671321D02*
X84062784Y-34672759D01*
X84062784Y-34672759D02*
X84058652Y-34674162D01*
X84058652Y-34674162D02*
X84054508Y-34675528D01*
X84054508Y-34675528D02*
X84050353Y-34676858D01*
X84050353Y-34676858D02*
X84046186Y-34678152D01*
X84046186Y-34678152D02*
X84042008Y-34679410D01*
X84042008Y-34679410D02*
X84037819Y-34680631D01*
X84037819Y-34680631D02*
X84033619Y-34681815D01*
X84033619Y-34681815D02*
X84029410Y-34682963D01*
X84029410Y-34682963D02*
X84025190Y-34684074D01*
X84025190Y-34684074D02*
X84020961Y-34685148D01*
X84020961Y-34685148D02*
X84016723Y-34686185D01*
X84016723Y-34686185D02*
X84012476Y-34687185D01*
X84012476Y-34687185D02*
X84008220Y-34688148D01*
X84008220Y-34688148D02*
X84003956Y-34689074D01*
X84003956Y-34689074D02*
X83999684Y-34689962D01*
X83999684Y-34689962D02*
X83995404Y-34690814D01*
X83995404Y-34690814D02*
X83991118Y-34691627D01*
X83991118Y-34691627D02*
X83986824Y-34692404D01*
X83986824Y-34692404D02*
X83982524Y-34693143D01*
X83982524Y-34693143D02*
X83978217Y-34693844D01*
X83978217Y-34693844D02*
X83973905Y-34694508D01*
X83973905Y-34694508D02*
X83969587Y-34695134D01*
X83969587Y-34695134D02*
X83965263Y-34695722D01*
X83965263Y-34695722D02*
X83960935Y-34696273D01*
X83960935Y-34696273D02*
X83956602Y-34696786D01*
X83956602Y-34696786D02*
X83952264Y-34697261D01*
X83952264Y-34697261D02*
X83947923Y-34697698D01*
X83947923Y-34697698D02*
X83943578Y-34698097D01*
X83943578Y-34698097D02*
X83939230Y-34698459D01*
X83939230Y-34698459D02*
X83934878Y-34698782D01*
X83934878Y-34698782D02*
X83930524Y-34699067D01*
X83930524Y-34699067D02*
X83926168Y-34699315D01*
X83926168Y-34699315D02*
X83921810Y-34699524D01*
X83921810Y-34699524D02*
X83917450Y-34699695D01*
X83917450Y-34699695D02*
X83913088Y-34699829D01*
X83913088Y-34699829D02*
X83908726Y-34699924D01*
X83908726Y-34699924D02*
X83904363Y-34699981D01*
X83904363Y-34699981D02*
X83900000Y-34700000D01*
X83900000Y-22300000D02*
X79900000Y-22300000D01*
X79400000Y-22800000D02*
X79400000Y-23700000D01*
X84400000Y-23850000D02*
X84400000Y-22800000D01*
X84400000Y-23850000D02*
X85500000Y-23850000D01*
X85900000Y-23850000D02*
X85920000Y-23850000D01*
X86320000Y-23850000D02*
X86340000Y-23850000D01*
X86740000Y-23850000D02*
X86750000Y-23850000D01*
X84400000Y-33150000D02*
X85500000Y-33150000D01*
X85900000Y-33150000D02*
X85920000Y-33150000D01*
X86320000Y-33150000D02*
X86340000Y-33150000D01*
X86740000Y-33150000D02*
X86750000Y-33150000D01*
X79400000Y-34200000D02*
X79400000Y-33300000D01*
X84400000Y-34200000D02*
X84400000Y-33150000D01*
X79900000Y-34700000D02*
X83900000Y-34700000D01*
%TO.C,C3*%
X70380000Y-26865000D02*
X70080000Y-26865000D01*
X70080000Y-26865000D02*
X70080000Y-27465000D01*
X70380000Y-27465000D02*
X70380000Y-26865000D01*
X70080000Y-27465000D02*
X70380000Y-27465000D01*
%TO.C,C6*%
X68970000Y-30780000D02*
X68970000Y-30180000D01*
X68670000Y-30780000D02*
X68970000Y-30780000D01*
X68970000Y-30180000D02*
X68670000Y-30180000D01*
X68670000Y-30180000D02*
X68670000Y-30780000D01*
%TO.C,C12*%
X70780762Y-28870000D02*
X71080762Y-28870000D01*
X71080762Y-28870000D02*
X71080762Y-28270000D01*
X70780762Y-28270000D02*
X70780762Y-28870000D01*
X71080762Y-28270000D02*
X70780762Y-28270000D01*
%TO.C,C11*%
X70780000Y-26865000D02*
X70780000Y-27465000D01*
X71080000Y-26865000D02*
X70780000Y-26865000D01*
X70780000Y-27465000D02*
X71080000Y-27465000D01*
X71080000Y-27465000D02*
X71080000Y-26865000D01*
%TO.C,C2*%
X72950000Y-38530000D02*
X73250000Y-38530000D01*
X73250000Y-38530000D02*
X73250000Y-37930000D01*
X72950000Y-37930000D02*
X72950000Y-38530000D01*
X73250000Y-37930000D02*
X72950000Y-37930000D01*
%TO.C,R6*%
X72180761Y-28870002D02*
X72480761Y-28870002D01*
X72480761Y-28870002D02*
X72480761Y-28270002D01*
X72180761Y-28270002D02*
X72180761Y-28870002D01*
X72480761Y-28270002D02*
X72180761Y-28270002D01*
%TO.C,C7*%
X77950000Y-35045000D02*
X77950000Y-34445000D01*
X77650000Y-35045000D02*
X77950000Y-35045000D01*
X77950000Y-34445000D02*
X77650000Y-34445000D01*
X77650000Y-34445000D02*
X77650000Y-35045000D01*
%TO.C,R7*%
X71480763Y-28870000D02*
X71780763Y-28870000D01*
X71780763Y-28870000D02*
X71780763Y-28270000D01*
X71480763Y-28270000D02*
X71480763Y-28870000D01*
X71780763Y-28270000D02*
X71480763Y-28270000D01*
%TO.C,C13*%
X73580000Y-28870000D02*
X73880000Y-28870000D01*
X73880000Y-28870000D02*
X73880000Y-28270000D01*
X73580000Y-28270000D02*
X73580000Y-28870000D01*
X73880000Y-28270000D02*
X73580000Y-28270000D01*
%TO.C,U2*%
X76800000Y-30900000D02*
X76800000Y-36900000D01*
X69800000Y-36900000D01*
X69800000Y-29900000D01*
X75800000Y-29900000D01*
X76800000Y-30900000D01*
%TO.C,C10*%
X69380000Y-28870000D02*
X69680000Y-28870000D01*
X69680000Y-28870000D02*
X69680000Y-28270000D01*
X69380000Y-28270000D02*
X69380000Y-28870000D01*
X69680000Y-28270000D02*
X69380000Y-28270000D01*
%TO.C,C9*%
X72880762Y-28870000D02*
X73180762Y-28870000D01*
X73180762Y-28870000D02*
X73180762Y-28270000D01*
X72880762Y-28270000D02*
X72880762Y-28870000D01*
X73180762Y-28270000D02*
X72880762Y-28270000D01*
%TO.C,C14*%
X72250001Y-38530002D02*
X72550001Y-38530002D01*
X72550001Y-38530002D02*
X72550001Y-37930002D01*
X72250001Y-37930002D02*
X72250001Y-38530002D01*
X72550001Y-37930002D02*
X72250001Y-37930002D01*
%TO.C,C8*%
X70080000Y-28270000D02*
X70080000Y-28870000D01*
X70380000Y-28270000D02*
X70080000Y-28270000D01*
X70080000Y-28870000D02*
X70380000Y-28870000D01*
X70380000Y-28870000D02*
X70380000Y-28270000D01*
%TO.C,C4*%
X68770000Y-34250000D02*
X68170000Y-34250000D01*
X68770000Y-34550000D02*
X68770000Y-34250000D01*
X68170000Y-34250000D02*
X68170000Y-34550000D01*
X68170000Y-34550000D02*
X68770000Y-34550000D01*
%TO.C,C5*%
X77630000Y-30180000D02*
X77630000Y-30780000D01*
X77930000Y-30180000D02*
X77630000Y-30180000D01*
X77630000Y-30780000D02*
X77930000Y-30780000D01*
X77930000Y-30780000D02*
X77930000Y-30180000D01*
%TO.C,C1*%
X72880000Y-26870000D02*
X72880000Y-27470000D01*
X73180000Y-26870000D02*
X72880000Y-26870000D01*
X72880000Y-27470000D02*
X73180000Y-27470000D01*
X73180000Y-27470000D02*
X73180000Y-26870000D01*
%TO.C,U1*%
X61550000Y-29200000D02*
X61550000Y-30800000D01*
X61550000Y-30800000D02*
X64050001Y-30800000D01*
X64050001Y-30800000D02*
X64450000Y-30400000D01*
X64450000Y-29200000D02*
X61550000Y-29200000D01*
X64450000Y-30400000D02*
X64450000Y-29200000D01*
%TO.C,R3*%
X60779999Y-29240000D02*
X61079999Y-29240000D01*
X61079999Y-29240000D02*
X61079999Y-28640000D01*
X60779999Y-28640000D02*
X60779999Y-29240000D01*
X61079999Y-28640000D02*
X60779999Y-28640000D01*
%TO.C,R2*%
X65229999Y-28650000D02*
X64929999Y-28650000D01*
X64929999Y-28650000D02*
X64929999Y-29250000D01*
X65229999Y-29250000D02*
X65229999Y-28650000D01*
X64929999Y-29250000D02*
X65229999Y-29250000D01*
%TO.C,R1*%
X73650000Y-38530000D02*
X73950000Y-38530000D01*
X73950000Y-38530000D02*
X73950000Y-37930000D01*
X73650000Y-37930000D02*
X73650000Y-38530000D01*
X73950000Y-37930000D02*
X73650000Y-37930000D01*
D19*
%TO.C,J1*%
X58530000Y-25700000D02*
X58530000Y-20000000D01*
X58530000Y-20000000D02*
X59655000Y-20000000D01*
X59655000Y-20000000D02*
X59655000Y-19350000D01*
X59655000Y-19350000D02*
X66345000Y-19350000D01*
X66345000Y-20000000D02*
X67470000Y-20000000D01*
X66345000Y-19350000D02*
X66345000Y-20000000D01*
X67470000Y-25700000D02*
X58530000Y-25700000D01*
X67470000Y-20000000D02*
X67470000Y-25700000D01*
D20*
X59100000Y-26500000D02*
G75*
G02*
X58900000Y-26500000I-100000J0D01*
G01*
X58900000Y-26500000D02*
G75*
G02*
X59100000Y-26500000I100000J0D01*
G01*
D18*
%TO.C,Q1*%
X101145000Y-24600000D02*
X99545000Y-24600000D01*
X99545000Y-24600000D02*
X99545000Y-24150000D01*
X101145000Y-23800000D02*
X101145000Y-24600000D01*
X99895000Y-23800000D02*
X99545000Y-24150000D01*
X99895000Y-23800000D02*
X101145000Y-23800000D01*
%TO.C,SW3*%
X53850001Y-22800000D02*
X53850001Y-20000000D01*
X53000001Y-20000000D02*
X53000001Y-19250000D01*
X50500001Y-19250000D02*
X53000001Y-19250000D01*
X50500001Y-20000000D02*
X50500001Y-19250000D01*
X49650001Y-20000000D02*
X53850001Y-20000000D01*
X49650001Y-22800000D02*
X53850001Y-22800000D01*
X49650001Y-22800000D02*
X49650001Y-20000000D01*
%TO.C,C15*%
X77850000Y-36800000D02*
X78150000Y-36800000D01*
X78150000Y-36800000D02*
X78150000Y-36200000D01*
X77850000Y-36200000D02*
X77850000Y-36800000D01*
X78150000Y-36200000D02*
X77850000Y-36200000D01*
%TO.C,C16*%
X83030000Y-37795000D02*
X82730000Y-37795000D01*
X82730000Y-37795000D02*
X82730000Y-38395000D01*
X83030000Y-38395000D02*
X83030000Y-37795000D01*
X82730000Y-38395000D02*
X83030000Y-38395000D01*
D15*
%TO.C,SW1*%
X35700000Y-34500000D02*
G75*
G02*
X33700000Y-36500000I-2000000J0D01*
G01*
X32000000Y-30500000D02*
G75*
G02*
X30000000Y-32500000I-2000000J0D01*
G01*
X33700000Y-36500000D02*
X24900000Y-36500000D01*
X24900000Y-36500000D02*
X24900000Y-32500000D01*
X30000000Y-32500000D02*
X24900000Y-32500000D01*
X35700000Y-30500000D02*
X32000000Y-30500000D01*
X35700000Y-30500000D02*
X35700000Y-34500000D01*
%TO.C,SW2*%
X102300000Y-30500000D02*
X102300000Y-34500000D01*
X102300000Y-30500000D02*
X98600000Y-30500000D01*
X96600000Y-32500000D02*
X91500000Y-32500000D01*
X91500000Y-36500000D02*
X91500000Y-32500000D01*
X100300000Y-36500000D02*
X91500000Y-36500000D01*
X98600000Y-30500000D02*
G75*
G02*
X96600000Y-32500000I-2000000J0D01*
G01*
X102300000Y-34500000D02*
G75*
G02*
X100300000Y-36500000I-2000000J0D01*
G01*
D18*
%TO.C,R14*%
X99770000Y-27725000D02*
X99770000Y-26675000D01*
X99230000Y-27725000D02*
X99770000Y-27725000D01*
X99770000Y-26675000D02*
X99230000Y-26675000D01*
X99230000Y-26675000D02*
X99230000Y-27725000D01*
%TO.C,C22*%
X86500000Y-36470000D02*
X85500000Y-36470000D01*
X86500000Y-36970000D02*
X86500000Y-36470000D01*
X85500000Y-36470000D02*
X85500000Y-36970000D01*
X85500000Y-36970000D02*
X86500000Y-36970000D01*
%TO.C,R15*%
X101760000Y-27725000D02*
X101760000Y-26675000D01*
X101220000Y-27725000D02*
X101760000Y-27725000D01*
X101760000Y-26675000D02*
X101220000Y-26675000D01*
X101220000Y-26675000D02*
X101220000Y-27725000D01*
%TO.C,L2*%
X94120000Y-27700000D02*
X94120000Y-26100000D01*
X93320000Y-27700000D02*
X94120000Y-27700000D01*
X94120000Y-26100000D02*
X93320000Y-26100000D01*
X93320000Y-26100000D02*
X93320000Y-27700000D01*
%TO.C,C35*%
X91610000Y-27700000D02*
X91610000Y-26100000D01*
X90810000Y-27700000D02*
X91610000Y-27700000D01*
X91610000Y-26100000D02*
X90810000Y-26100000D01*
X90810000Y-26100000D02*
X90810000Y-27700000D01*
%TO.C,R19*%
X101544999Y-21380000D02*
X101544999Y-20780000D01*
X101244999Y-21380000D02*
X101544999Y-21380000D01*
X101544999Y-20780000D02*
X101244999Y-20780000D01*
X101244999Y-20780000D02*
X101244999Y-21380000D01*
%TO.C,C32*%
X99795000Y-21379999D02*
X99795000Y-20779999D01*
X99495000Y-21379999D02*
X99795000Y-21379999D01*
X99795000Y-20779999D02*
X99495000Y-20779999D01*
X99495000Y-20779999D02*
X99495000Y-21379999D01*
%TO.C,C31*%
X89100000Y-27700000D02*
X89100000Y-26100000D01*
X88300000Y-27700000D02*
X89100000Y-27700000D01*
X89100000Y-26100000D02*
X88300000Y-26100000D01*
X88300000Y-26100000D02*
X88300000Y-27700000D01*
%TO.C,U7*%
X95050000Y-24100000D02*
X95050000Y-22500000D01*
X92150000Y-24100000D02*
X95050000Y-24100000D01*
X92150000Y-22900000D02*
X92150000Y-24100000D01*
X95050000Y-22500000D02*
X92549999Y-22500000D01*
X92549999Y-22500000D02*
X92150000Y-22900000D01*
%TO.C,C24*%
X83120000Y-35050000D02*
X82520000Y-35050000D01*
X83120000Y-35350000D02*
X83120000Y-35050000D01*
X82520000Y-35050000D02*
X82520000Y-35350000D01*
X82520000Y-35350000D02*
X83120000Y-35350000D01*
%TO.C,R5*%
X77825000Y-32400000D02*
X77825000Y-32700000D01*
X77825000Y-32700000D02*
X78425000Y-32700000D01*
X78425000Y-32400000D02*
X77825000Y-32400000D01*
X78425000Y-32700000D02*
X78425000Y-32400000D01*
%TO.C,R8*%
X79950000Y-21055000D02*
X79950000Y-20455000D01*
X79950000Y-20455000D02*
X79650000Y-20455000D01*
X79650000Y-21055000D02*
X79950000Y-21055000D01*
X79650000Y-20455000D02*
X79650000Y-21055000D01*
%TO.C,R16*%
X57455000Y-33950000D02*
X57455000Y-34250000D01*
X57455000Y-34250000D02*
X58055000Y-34250000D01*
X58055000Y-33950000D02*
X57455000Y-33950000D01*
X58055000Y-34250000D02*
X58055000Y-33950000D01*
%TO.C,R17*%
X57455000Y-32200000D02*
X57455000Y-32500000D01*
X57455000Y-32500000D02*
X58055000Y-32500000D01*
X58055000Y-32200000D02*
X57455000Y-32200000D01*
X58055000Y-32500000D02*
X58055000Y-32200000D01*
%TO.C,C34*%
X47630000Y-31790000D02*
X47630000Y-32090000D01*
X47630000Y-32090000D02*
X48230000Y-32090000D01*
X48230000Y-31790000D02*
X47630000Y-31790000D01*
X48230000Y-32090000D02*
X48230000Y-31790000D01*
%TO.C,C33*%
X43900000Y-31920000D02*
X43900000Y-32720000D01*
X43900000Y-32720000D02*
X45500000Y-32720000D01*
X45500000Y-31920000D02*
X43900000Y-31920000D01*
X45500000Y-32720000D02*
X45500000Y-31920000D01*
%TO.C,U8*%
X46781500Y-34326500D02*
X48000000Y-34326500D01*
X46781500Y-35673500D02*
X46781500Y-34326500D01*
X48000000Y-34326500D02*
X48218500Y-34600000D01*
X48218500Y-34600000D02*
X48218500Y-35673500D01*
X48218500Y-35673500D02*
X46781500Y-35673500D01*
%TO.C,C19*%
X70250000Y-22045000D02*
X70250000Y-21445000D01*
X70250000Y-21445000D02*
X69950000Y-21445000D01*
X69950000Y-22045000D02*
X70250000Y-22045000D01*
X69950000Y-21445000D02*
X69950000Y-22045000D01*
%TO.C,R4*%
X78425000Y-32000000D02*
X78425000Y-31700000D01*
X78425000Y-31700000D02*
X77825000Y-31700000D01*
X77825000Y-32000000D02*
X78425000Y-32000000D01*
X77825000Y-31700000D02*
X77825000Y-32000000D01*
%TO.C,R9*%
X79250000Y-21055000D02*
X79250000Y-20455000D01*
X79250000Y-20455000D02*
X78950000Y-20455000D01*
X78950000Y-21055000D02*
X79250000Y-21055000D01*
X78950000Y-20455000D02*
X78950000Y-21055000D01*
X59140000Y-36029999D02*
X59140000Y-38570001D01*
X59240000Y-38570001D02*
G75*
G02*
X59140000Y-38570001I-50000J0D01*
G01*
X59240000Y-38570001D02*
X59240000Y-36029999D01*
X59240000Y-36029999D02*
G75*
G03*
X59140000Y-36029999I-50000J0D01*
G01*
X59190000Y-38620000D02*
X66175000Y-38619999D01*
X66175000Y-38520000D02*
G75*
G02*
X66175000Y-38620000I0J-50000D01*
G01*
X66175000Y-38520000D02*
X59190000Y-38520001D01*
X59190000Y-38520000D02*
G75*
G03*
X59190000Y-38620000I0J-50000D01*
G01*
X66210355Y-38605355D02*
X66845355Y-37970355D01*
X66774645Y-37899645D02*
G75*
G02*
X66845355Y-37970355I35355J-35355D01*
G01*
X66774645Y-37899645D02*
X66139645Y-38534645D01*
X66139645Y-38534645D02*
G75*
G03*
X66210355Y-38605355I35355J-35355D01*
G01*
X66810000Y-35980000D02*
X59190000Y-35979999D01*
X59190000Y-36079999D02*
G75*
G02*
X59190000Y-35979999I0J50000D01*
G01*
X59190000Y-36079998D02*
X66810000Y-36079999D01*
X66810000Y-36079999D02*
G75*
G03*
X66810000Y-35979999I0J50000D01*
G01*
X66860000Y-37935000D02*
X66860000Y-36030000D01*
X66760000Y-36030000D02*
G75*
G02*
X66860000Y-36030000I50000J0D01*
G01*
X66760000Y-36030000D02*
X66760000Y-37935000D01*
X66760000Y-37935000D02*
G75*
G03*
X66860000Y-37935000I50000J0D01*
G01*
%TO.C,U3*%
X76800000Y-21815000D02*
X76800000Y-25815000D01*
X70800000Y-25815000D01*
X70800000Y-20815000D01*
X75800000Y-20815000D01*
X76800000Y-21815000D01*
%TO.C,R13*%
X78450000Y-26355000D02*
X78450000Y-25755000D01*
X78150000Y-26355000D02*
X78450000Y-26355000D01*
X78450000Y-25755000D02*
X78150000Y-25755000D01*
X78150000Y-25755000D02*
X78150000Y-26355000D01*
%TO.C,C26*%
X86500000Y-35550000D02*
X85500000Y-35550000D01*
X86500000Y-36050000D02*
X86500000Y-35550000D01*
X85500000Y-35550000D02*
X85500000Y-36050000D01*
X85500000Y-36050000D02*
X86500000Y-36050000D01*
%TD*%
X58665001Y-35505000D02*
X67335000Y-39095000D01*
X58665001Y-39095000D02*
X67335000Y-35505000D01*
M02*
