%TF.GenerationSoftware,KiCad,Pcbnew,9.0.3*%
%TF.CreationDate,2025-07-18T01:49:26-04:00*%
%TF.ProjectId,board,626f6172-642e-46b6-9963-61645f706362,rev?*%
%TF.SameCoordinates,Original*%
%TF.FileFunction,Copper,L1,Top*%
%TF.FilePolarity,Positive*%
%FSLAX46Y46*%
G04 Gerber Fmt 4.6, Leading zero omitted, Abs format (unit mm)*
G04 Created by KiCad (PCBNEW 9.0.3) date 2025-07-18 01:49:26*
%MOMM*%
%LPD*%
G01*
G04 APERTURE LIST*
G04 Aperture macros list*
%AMRoundRect*
0 Rectangle with rounded corners*
0 $1 Rounding radius*
0 $2 $3 $4 $5 $6 $7 $8 $9 X,Y pos of 4 corners*
0 Add a 4 corners polygon primitive as box body*
4,1,4,$2,$3,$4,$5,$6,$7,$8,$9,$2,$3,0*
0 Add four circle primitives for the rounded corners*
1,1,$1+$1,$2,$3*
1,1,$1+$1,$4,$5*
1,1,$1+$1,$6,$7*
1,1,$1+$1,$8,$9*
0 Add four rect primitives between the rounded corners*
20,1,$1+$1,$2,$3,$4,$5,0*
20,1,$1+$1,$4,$5,$6,$7,0*
20,1,$1+$1,$6,$7,$8,$9,0*
20,1,$1+$1,$8,$9,$2,$3,0*%
G04 Aperture macros list end*
%TA.AperFunction,ComponentPad*%
%ADD10RoundRect,0.250000X-0.350000X-0.625000X0.350000X-0.625000X0.350000X0.625000X-0.350000X0.625000X0*%
%TD*%
%TA.AperFunction,ComponentPad*%
%ADD11O,1.200000X1.750000*%
%TD*%
%TA.AperFunction,ComponentPad*%
%ADD12R,1.700000X1.700000*%
%TD*%
%TA.AperFunction,ComponentPad*%
%ADD13C,1.700000*%
%TD*%
%TA.AperFunction,ComponentPad*%
%ADD14C,3.600000*%
%TD*%
%TA.AperFunction,ComponentPad*%
%ADD15O,1.000000X1.800000*%
%TD*%
%TA.AperFunction,ComponentPad*%
%ADD16O,1.000000X2.000000*%
%TD*%
%TA.AperFunction,ViaPad*%
%ADD17C,0.450000*%
%TD*%
%TA.AperFunction,Conductor*%
%ADD18C,0.200000*%
%TD*%
%TA.AperFunction,Conductor*%
%ADD19C,0.400000*%
%TD*%
G04 APERTURE END LIST*
D10*
%TO.P,J2,1,Pin_1*%
%TO.N,GND*%
X42900001Y-22250000D03*
D11*
%TO.P,J2,2,Pin_2*%
%TO.N,VBAT*%
X44900002Y-22250000D03*
%TD*%
D12*
%TO.P,J4,1,Pin_1*%
%TO.N,Net-(J4-Pin_1)*%
X42625000Y-37600000D03*
D13*
%TO.P,J4,2,Pin_2*%
%TO.N,Net-(J4-Pin_2)*%
X45165000Y-37600000D03*
%TD*%
D14*
%TO.P,SW1,1,1*%
%TO.N,/BUTTON_L*%
X25890000Y-27160000D03*
%TO.P,SW1,2,2*%
%TO.N,GND*%
X32240000Y-24620000D03*
%TD*%
%TO.P,SW2,1,1*%
%TO.N,/BUTTON_R*%
X92490000Y-27160000D03*
%TO.P,SW2,2,2*%
%TO.N,GND*%
X98840000Y-24620000D03*
%TD*%
D15*
%TO.P,J1,SH1,SHIELD*%
%TO.N,GND*%
X57050000Y-25300000D03*
%TO.P,J1,SH2,SHIELD*%
X68950000Y-25300000D03*
D16*
%TO.P,J1,SH3,SHIELD*%
X57050000Y-21800000D03*
%TO.P,J1,SH4,SHIELD*%
X68950000Y-21800000D03*
%TD*%
D17*
%TO.N,/BUTTON_R*%
X88900000Y-29200000D03*
%TO.N,/BUTTON_L*%
X23100000Y-24500000D03*
%TO.N,GND*%
X63540000Y-33200000D03*
X53500000Y-29050000D03*
X63550000Y-34280000D03*
X63000000Y-33750000D03*
X83500000Y-37140000D03*
X62450000Y-34300000D03*
X71762501Y-23350000D03*
X77490000Y-32330000D03*
X51437500Y-23850000D03*
X53850000Y-37950000D03*
X61900000Y-33750000D03*
X51940000Y-23850000D03*
X58600000Y-30750000D03*
X51940000Y-23350000D03*
X62470000Y-33210000D03*
X59800000Y-37800000D03*
X49900000Y-37850000D03*
X63000000Y-34850000D03*
X77800000Y-29935000D03*
X64100000Y-33750000D03*
X81900000Y-25000000D03*
X63000000Y-32650000D03*
X49250000Y-28950000D03*
X51942500Y-22860000D03*
X52200000Y-32800000D03*
X51440000Y-22860000D03*
X50940000Y-23850000D03*
X62520000Y-28200000D03*
X32400000Y-36400000D03*
X50942500Y-22860000D03*
X51437500Y-23350000D03*
X69720000Y-34650000D03*
X99000000Y-36500000D03*
X71250000Y-33700000D03*
X66240000Y-28300000D03*
X68320000Y-28450000D03*
X56050000Y-36250000D03*
X50940000Y-23350000D03*
X60568700Y-28878752D03*
X50000000Y-28950000D03*
%TO.N,VBUS*%
X60600000Y-26450000D03*
X70062500Y-22250000D03*
X55700000Y-24800000D03*
X65400000Y-26450000D03*
%TO.N,VSYS*%
X50800000Y-21000000D03*
X54700000Y-28800000D03*
X49830000Y-25970000D03*
X55700000Y-23900000D03*
X55700000Y-22700000D03*
X54650000Y-31880000D03*
X51510000Y-27620000D03*
X52000000Y-27100000D03*
X51500000Y-27100000D03*
X85787500Y-37150000D03*
X81850000Y-36349999D03*
X53600000Y-23325000D03*
X55700000Y-23300000D03*
X57800000Y-33250000D03*
%TO.N,3V3*%
X64510000Y-28760000D03*
X59076274Y-31226274D03*
X77800000Y-30575000D03*
X62980000Y-29250000D03*
X50730000Y-31860000D03*
X57525000Y-35175000D03*
X50840000Y-30410000D03*
X64940000Y-28340000D03*
X65340000Y-27940000D03*
X51250000Y-31860000D03*
X50975000Y-34600000D03*
X69700000Y-33900000D03*
X75050000Y-24550000D03*
X51330000Y-30410000D03*
X77830000Y-28500000D03*
X75050000Y-26500000D03*
X69080000Y-29150000D03*
%TO.N,1V1*%
X67680000Y-28450000D03*
X69080000Y-28450000D03*
X69080000Y-29850000D03*
%TO.N,/DISP_PIN_CS*%
X75700000Y-29700000D03*
X78470000Y-28500000D03*
%TO.N,/DISP_PIN_RST*%
X78500000Y-27800000D03*
X75125085Y-29710008D03*
%TO.N,Net-(J1-DN1)*%
X70812500Y-21050000D03*
X63250000Y-27250000D03*
X62250000Y-27250000D03*
%TO.N,/DISP_PIN_MOSI*%
X78500000Y-25700000D03*
X76900000Y-26950000D03*
%TO.N,/BUTTON_L*%
X62550000Y-36500000D03*
%TO.N,/BUTTON_R*%
X64650000Y-38350000D03*
%TO.N,/BUTTON_MENU*%
X74399999Y-22200000D03*
X61200000Y-38400000D03*
X78499999Y-22200000D03*
%TO.N,/AUDIO_I2S_DOUT*%
X50850000Y-37000000D03*
X56559994Y-32600000D03*
%TO.N,Net-(J1-DP1)*%
X64250000Y-27450000D03*
X72712500Y-21075000D03*
%TO.N,/AUDIO_I2S_SD*%
X55984991Y-32600000D03*
X50850000Y-36424997D03*
%TO.N,/AUDIO_I2S_LRCK*%
X49324997Y-37850000D03*
X57710000Y-32600000D03*
%TO.N,/AUDIO_I2S_BCLK*%
X50850000Y-37600000D03*
X57134997Y-32600000D03*
%TO.N,/USB_D+*%
X66151249Y-29618701D03*
X72712500Y-24300000D03*
%TO.N,/USB_D-*%
X72172500Y-24650000D03*
X65656274Y-29123726D03*
%TO.N,/DISP_REG_EN*%
X77310000Y-34970000D03*
X85787500Y-36200001D03*
%TO.N,/PWR_~{PGOOD}*%
X52100000Y-21000000D03*
X57800000Y-28350000D03*
%TO.N,/PWR_~{CHG}*%
X57800000Y-27700000D03*
X53600000Y-21000000D03*
%TO.N,/PWR_CHG_EN*%
X57150000Y-28350000D03*
X49800000Y-22000000D03*
%TO.N,Net-(D1-DIN)*%
X34100000Y-34000000D03*
X93550000Y-36400000D03*
%TO.N,Net-(D2-DIN)*%
X77750000Y-34400000D03*
X91850000Y-32550000D03*
%TO.N,VSYS_GATED*%
X53500000Y-33800000D03*
X26960000Y-32770000D03*
X59640000Y-28940000D03*
X93550000Y-33030000D03*
%TD*%
D18*
%TO.N,/BUTTON_R*%
X92490000Y-32560000D02*
X86700000Y-38350000D01*
X92100000Y-31700000D02*
X92490000Y-32090000D01*
X86700000Y-38350000D02*
X64650000Y-38350000D01*
X88900000Y-30300000D02*
X90300000Y-31700000D01*
X92490000Y-32090000D02*
X92490000Y-32560000D01*
X88900000Y-29200000D02*
X88900000Y-30300000D01*
X90300000Y-31700000D02*
X92100000Y-31700000D01*
%TO.N,/BUTTON_L*%
X23100000Y-24500000D02*
X23100000Y-24400000D01*
X23700000Y-23900000D02*
X23100000Y-24500000D01*
X27700000Y-23900000D02*
X24500000Y-23900000D01*
X24500000Y-23900000D02*
X23700000Y-23900000D01*
X28000000Y-24200000D02*
X27700000Y-23900000D01*
X30960000Y-27160000D02*
X28000000Y-24200000D01*
X34660000Y-27160000D02*
X30960000Y-27160000D01*
%TO.N,VBAT*%
X45200001Y-22549999D02*
X44900002Y-22250000D01*
D19*
%TO.N,VBUS*%
X55700000Y-24800000D02*
X55700000Y-26000000D01*
X67375000Y-26450000D02*
X65400000Y-26450000D01*
X58600000Y-26800000D02*
X58950000Y-26450000D01*
X70062500Y-26087500D02*
X69550000Y-26600000D01*
X56500000Y-26800000D02*
X58600000Y-26800000D01*
X70062500Y-22250000D02*
X70062500Y-26087500D01*
X58950000Y-26450000D02*
X60600000Y-26450000D01*
X65400000Y-26450000D02*
X60600000Y-26450000D01*
X55700000Y-26000000D02*
X56500000Y-26800000D01*
X69550000Y-26600000D02*
X67525000Y-26600000D01*
X67525000Y-26600000D02*
X67375000Y-26450000D01*
D18*
%TO.N,3V3*%
X75050000Y-26500000D02*
X75050000Y-24550000D01*
%TO.N,1V1*%
X69600000Y-29330000D02*
X69080000Y-29850000D01*
X68131000Y-28901000D02*
X67680000Y-28450000D01*
X68630000Y-28900000D02*
X68550000Y-28900000D01*
X69080000Y-28450000D02*
X68630000Y-28900000D01*
X69600000Y-28970000D02*
X69600000Y-29330000D01*
X68550000Y-28900000D02*
X68549000Y-28901000D01*
X68549000Y-28901000D02*
X68131000Y-28901000D01*
X69080000Y-28450000D02*
X69600000Y-28970000D01*
%TO.N,/DISP_PIN_CS*%
X75700000Y-29700000D02*
X77360000Y-28040000D01*
X77360000Y-28040000D02*
X78102189Y-28040000D01*
X78470000Y-28407811D02*
X78470000Y-28500000D01*
X78102189Y-28040000D02*
X78470000Y-28407811D01*
%TO.N,/DISP_PIN_RST*%
X77235322Y-27739000D02*
X78439000Y-27739000D01*
X75725322Y-29249000D02*
X77235322Y-27739000D01*
X78439000Y-27739000D02*
X78500000Y-27800000D01*
X75125085Y-29710008D02*
X75125085Y-29637104D01*
X75125085Y-29637104D02*
X75513189Y-29249000D01*
X78500000Y-27800000D02*
X78415095Y-27715095D01*
X75513189Y-29249000D02*
X75725322Y-29249000D01*
%TO.N,Net-(J1-DN1)*%
X63250000Y-27425000D02*
X62975000Y-27700000D01*
X63600000Y-26900000D02*
X63250000Y-27250000D01*
X70025000Y-27025000D02*
X67375000Y-27025000D01*
X62500000Y-27700000D02*
X62250000Y-27450000D01*
X67375000Y-27025000D02*
X67250000Y-26900000D01*
X62975000Y-27700000D02*
X62500000Y-27700000D01*
X63250000Y-27250000D02*
X63250000Y-27425000D01*
X70812500Y-26237500D02*
X70025000Y-27025000D01*
X62250000Y-27450000D02*
X62250000Y-27250000D01*
X70812500Y-21050000D02*
X70812500Y-26237500D01*
X67250000Y-26900000D02*
X63600000Y-26900000D01*
%TO.N,/DISP_PIN_MOSI*%
X76900000Y-26050000D02*
X77250000Y-25700000D01*
X77250000Y-25700000D02*
X78500000Y-25700000D01*
X76900000Y-26950000D02*
X76900000Y-26050000D01*
%TO.N,/BUTTON_MENU*%
X61200000Y-38400000D02*
X62600000Y-38400000D01*
X74399999Y-22200000D02*
X78499999Y-22200000D01*
X74399999Y-26600001D02*
X74399999Y-22200000D01*
X62600000Y-38400000D02*
X74399999Y-26600001D01*
%TO.N,/AUDIO_I2S_DOUT*%
X56559994Y-32812133D02*
X52372127Y-37000000D01*
X56559994Y-32600000D02*
X56559994Y-32812133D01*
X52372127Y-37000000D02*
X50850000Y-37000000D01*
%TO.N,Net-(J1-DP1)*%
X66800000Y-27450000D02*
X66925000Y-27325000D01*
X71250000Y-24700000D02*
X72712500Y-23237500D01*
X71250000Y-26750000D02*
X71250000Y-24700000D01*
X64250000Y-27450000D02*
X66800000Y-27450000D01*
X70675000Y-27325000D02*
X71250000Y-26750000D01*
X66925000Y-27325000D02*
X70675000Y-27325000D01*
X72712500Y-23237500D02*
X72712500Y-21075000D01*
%TO.N,/AUDIO_I2S_SD*%
X50912808Y-36424997D02*
X51187811Y-36700000D01*
X55984991Y-32961458D02*
X52246449Y-36700000D01*
X55984991Y-32600000D02*
X55984991Y-32961458D01*
X52246449Y-36700000D02*
X51187811Y-36700000D01*
X50850000Y-36424997D02*
X50912808Y-36424997D01*
%TO.N,/AUDIO_I2S_LRCK*%
X49713189Y-38301000D02*
X50799000Y-38301000D01*
X57710000Y-32662808D02*
X57710000Y-32600000D01*
X51498000Y-37602000D02*
X52621483Y-37602000D01*
X57321808Y-33051000D02*
X57710000Y-32662808D01*
X50799000Y-38301000D02*
X51498000Y-37602000D01*
X57174678Y-33051000D02*
X57321808Y-33051000D01*
X52624678Y-37601000D02*
X57174678Y-33051000D01*
X52622483Y-37601000D02*
X52624678Y-37601000D01*
X49324997Y-37850000D02*
X49324997Y-37912808D01*
X49324997Y-37912808D02*
X49713189Y-38301000D01*
X57585997Y-32614003D02*
X57600000Y-32600000D01*
X57600000Y-32600000D02*
X57710000Y-32600000D01*
X52621483Y-37602000D02*
X52622483Y-37601000D01*
%TO.N,/AUDIO_I2S_BCLK*%
X52496805Y-37301000D02*
X51199000Y-37301000D01*
X52497805Y-37300000D02*
X52496805Y-37301000D01*
X50900000Y-37600000D02*
X50850000Y-37600000D01*
X52500000Y-37300000D02*
X52497805Y-37300000D01*
X51199000Y-37301000D02*
X50900000Y-37600000D01*
X57134997Y-32600000D02*
X57134997Y-32665003D01*
X57134997Y-32665003D02*
X52500000Y-37300000D01*
%TO.N,/USB_D+*%
X67150000Y-28540000D02*
X67150000Y-28200000D01*
X67150000Y-28200000D02*
X67351000Y-27999000D01*
X66151249Y-29538751D02*
X67150000Y-28540000D01*
X72712500Y-27177500D02*
X72712500Y-24300000D01*
X66151249Y-29618701D02*
X66151249Y-29538751D01*
X67351000Y-27999000D02*
X71891000Y-27999000D01*
X71891000Y-27999000D02*
X72712500Y-27177500D01*
%TO.N,/USB_D-*%
X67154000Y-27626000D02*
X66820000Y-27960000D01*
X66820000Y-28444322D02*
X66140596Y-29123726D01*
X66140596Y-29123726D02*
X65656274Y-29123726D01*
X66820000Y-27960000D02*
X66820000Y-28444322D01*
X71634000Y-27626000D02*
X67154000Y-27626000D01*
X72172500Y-24650000D02*
X72172500Y-27087500D01*
X72172500Y-27087500D02*
X71634000Y-27626000D01*
%TO.N,/PWR_~{PGOOD}*%
X54719000Y-26144678D02*
X54719000Y-23619000D01*
X57151356Y-27700000D02*
X56274322Y-27700000D01*
X57151356Y-27701356D02*
X57151356Y-27700000D01*
X54719000Y-23619000D02*
X52100000Y-21000000D01*
X56274322Y-27700000D02*
X54719000Y-26144678D01*
X57800000Y-28350000D02*
X57151356Y-27701356D01*
%TO.N,/PWR_~{CHG}*%
X55020000Y-22420000D02*
X55020000Y-26020000D01*
X55020000Y-26020000D02*
X56249000Y-27249000D01*
X57349000Y-27249000D02*
X57800000Y-27700000D01*
X53600000Y-21000000D02*
X55020000Y-22420000D01*
X56249000Y-27249000D02*
X57349000Y-27249000D01*
%TO.N,/PWR_CHG_EN*%
X49800000Y-22000000D02*
X50300000Y-21500000D01*
X53149000Y-23581000D02*
X54418000Y-24850000D01*
X56248644Y-28100000D02*
X56900000Y-28100000D01*
X54418000Y-26269356D02*
X56248644Y-28100000D01*
X50300000Y-21500000D02*
X51900000Y-21500000D01*
X56900000Y-28100000D02*
X57150000Y-28350000D01*
X51900000Y-21500000D02*
X53149000Y-22749000D01*
X54418000Y-24850000D02*
X54418000Y-26269356D01*
X53149000Y-22749000D02*
X53149000Y-23581000D01*
%TO.N,Net-(D2-DIN)*%
X77750000Y-34400000D02*
X78300000Y-34950000D01*
X84550000Y-34950000D02*
X85150000Y-35550000D01*
X85150000Y-35550000D02*
X88850000Y-35550000D01*
X78300000Y-34950000D02*
X84550000Y-34950000D01*
X88850000Y-35550000D02*
X91850000Y-32550000D01*
%TO.N,/BUTTON_L*%
X62550000Y-36500000D02*
X56100000Y-30050000D01*
X56100000Y-30050000D02*
X56100000Y-28800000D01*
X56100000Y-28800000D02*
X52300000Y-25000000D01*
X52300000Y-25000000D02*
X36820000Y-25000000D01*
X36820000Y-25000000D02*
X34660000Y-27160000D01*
%TD*%
%TA.AperFunction,Conductor*%
%TO.N,3V3*%
G36*
X57607826Y-20222174D02*
G01*
X57629500Y-20274500D01*
X57629500Y-20586012D01*
X57607826Y-20638338D01*
X57555500Y-20660012D01*
X57514388Y-20647541D01*
X57487380Y-20629495D01*
X57429179Y-20590606D01*
X57429175Y-20590604D01*
X57429173Y-20590603D01*
X57429174Y-20590603D01*
X57283501Y-20530264D01*
X57283491Y-20530261D01*
X57179925Y-20509661D01*
X57128842Y-20499500D01*
X56971158Y-20499500D01*
X56927315Y-20508220D01*
X56816508Y-20530261D01*
X56816498Y-20530264D01*
X56670825Y-20590603D01*
X56539711Y-20678210D01*
X56539710Y-20678212D01*
X56428212Y-20789710D01*
X56428210Y-20789711D01*
X56340603Y-20920825D01*
X56280264Y-21066498D01*
X56280261Y-21066508D01*
X56258286Y-21176987D01*
X56253145Y-21202836D01*
X56249500Y-21221159D01*
X56249500Y-22327678D01*
X56227826Y-22380004D01*
X56175500Y-22401678D01*
X56123174Y-22380004D01*
X56022665Y-22279495D01*
X55902836Y-22210312D01*
X55902831Y-22210310D01*
X55769185Y-22174500D01*
X55769183Y-22174500D01*
X55630817Y-22174500D01*
X55630815Y-22174500D01*
X55497168Y-22210310D01*
X55497164Y-22210312D01*
X55459422Y-22232102D01*
X55403269Y-22239493D01*
X55358337Y-22205015D01*
X55340482Y-22174090D01*
X55340481Y-22174089D01*
X55340480Y-22174087D01*
X54147174Y-20980781D01*
X54128348Y-20935332D01*
X54126133Y-20935624D01*
X54125500Y-20930821D01*
X54125500Y-20930817D01*
X54089688Y-20797164D01*
X54020505Y-20677335D01*
X53922665Y-20579495D01*
X53802836Y-20510312D01*
X53802831Y-20510310D01*
X53669185Y-20474500D01*
X53669183Y-20474500D01*
X53530817Y-20474500D01*
X53530815Y-20474500D01*
X53397168Y-20510310D01*
X53397163Y-20510312D01*
X53277334Y-20579495D01*
X53179495Y-20677334D01*
X53110312Y-20797163D01*
X53110310Y-20797168D01*
X53074500Y-20930814D01*
X53074500Y-21069185D01*
X53110310Y-21202831D01*
X53110312Y-21202836D01*
X53152283Y-21275533D01*
X53158594Y-21286463D01*
X53165986Y-21342616D01*
X53131508Y-21387549D01*
X53075355Y-21394941D01*
X53042182Y-21375789D01*
X52647174Y-20980781D01*
X52628348Y-20935332D01*
X52626133Y-20935624D01*
X52625500Y-20930821D01*
X52625500Y-20930817D01*
X52589688Y-20797164D01*
X52520505Y-20677335D01*
X52422665Y-20579495D01*
X52302836Y-20510312D01*
X52302831Y-20510310D01*
X52169185Y-20474500D01*
X52169183Y-20474500D01*
X52030817Y-20474500D01*
X52030815Y-20474500D01*
X51897168Y-20510310D01*
X51897163Y-20510312D01*
X51777334Y-20579495D01*
X51679495Y-20677334D01*
X51610312Y-20797163D01*
X51610310Y-20797168D01*
X51574500Y-20930814D01*
X51574500Y-21025500D01*
X51552826Y-21077826D01*
X51500500Y-21099500D01*
X51399500Y-21099500D01*
X51347174Y-21077826D01*
X51325500Y-21025500D01*
X51325500Y-20930815D01*
X51325499Y-20930814D01*
X51322822Y-20920825D01*
X51289688Y-20797164D01*
X51220505Y-20677335D01*
X51122665Y-20579495D01*
X51002836Y-20510312D01*
X51002831Y-20510310D01*
X50869185Y-20474500D01*
X50869183Y-20474500D01*
X50730817Y-20474500D01*
X50730815Y-20474500D01*
X50597168Y-20510310D01*
X50597163Y-20510312D01*
X50477334Y-20579495D01*
X50379495Y-20677334D01*
X50310312Y-20797163D01*
X50310310Y-20797168D01*
X50274500Y-20930814D01*
X50274500Y-21035422D01*
X50268577Y-21049719D01*
X50268248Y-21065191D01*
X50258816Y-21073286D01*
X50252826Y-21087748D01*
X50227355Y-21104377D01*
X50223570Y-21105851D01*
X50145412Y-21126793D01*
X50099750Y-21153156D01*
X50094869Y-21155973D01*
X50094864Y-21155976D01*
X50054090Y-21179517D01*
X49780781Y-21452826D01*
X49735332Y-21471651D01*
X49735624Y-21473867D01*
X49730814Y-21474500D01*
X49597168Y-21510310D01*
X49597163Y-21510312D01*
X49477334Y-21579495D01*
X49379495Y-21677334D01*
X49310312Y-21797163D01*
X49310310Y-21797168D01*
X49274500Y-21930814D01*
X49274500Y-22069185D01*
X49310310Y-22202831D01*
X49310312Y-22202836D01*
X49379495Y-22322665D01*
X49477335Y-22420505D01*
X49597164Y-22489688D01*
X49730814Y-22525499D01*
X49730815Y-22525500D01*
X49730817Y-22525500D01*
X49869185Y-22525500D01*
X49869185Y-22525499D01*
X50002836Y-22489688D01*
X50122665Y-22420505D01*
X50220505Y-22322665D01*
X50289688Y-22202836D01*
X50325500Y-22069183D01*
X50325500Y-22069177D01*
X50326133Y-22064376D01*
X50328348Y-22064667D01*
X50347174Y-22019218D01*
X50444218Y-21922174D01*
X50496544Y-21900500D01*
X51703455Y-21900500D01*
X51755781Y-21922174D01*
X52041781Y-22208174D01*
X52063455Y-22260500D01*
X52041781Y-22312826D01*
X51989455Y-22334500D01*
X51873315Y-22334500D01*
X51739668Y-22370310D01*
X51739659Y-22370314D01*
X51728249Y-22376902D01*
X51672096Y-22384294D01*
X51654251Y-22376902D01*
X51642840Y-22370314D01*
X51642831Y-22370310D01*
X51509185Y-22334500D01*
X51509183Y-22334500D01*
X51370817Y-22334500D01*
X51370815Y-22334500D01*
X51237168Y-22370310D01*
X51237162Y-22370313D01*
X51228247Y-22375460D01*
X51172094Y-22382849D01*
X51154253Y-22375460D01*
X51145339Y-22370314D01*
X51145336Y-22370312D01*
X51145333Y-22370311D01*
X51145331Y-22370310D01*
X51011685Y-22334500D01*
X51011683Y-22334500D01*
X50873317Y-22334500D01*
X50873315Y-22334500D01*
X50739668Y-22370310D01*
X50739663Y-22370312D01*
X50619834Y-22439495D01*
X50521995Y-22537334D01*
X50452812Y-22657163D01*
X50452810Y-22657168D01*
X50417000Y-22790814D01*
X50417000Y-22929185D01*
X50452810Y-23062832D01*
X50452813Y-23062840D01*
X50454544Y-23065837D01*
X50461935Y-23121990D01*
X50454545Y-23139831D01*
X50450314Y-23147159D01*
X50450310Y-23147168D01*
X50414500Y-23280814D01*
X50414500Y-23419185D01*
X50450310Y-23552831D01*
X50450313Y-23552838D01*
X50456181Y-23563002D01*
X50463572Y-23619155D01*
X50456181Y-23636998D01*
X50450313Y-23647161D01*
X50450310Y-23647168D01*
X50414500Y-23780814D01*
X50414500Y-23919185D01*
X50450310Y-24052831D01*
X50450312Y-24052836D01*
X50519495Y-24172665D01*
X50617335Y-24270505D01*
X50737164Y-24339688D01*
X50870814Y-24375499D01*
X50870815Y-24375500D01*
X50870817Y-24375500D01*
X51009185Y-24375500D01*
X51009185Y-24375499D01*
X51142836Y-24339688D01*
X51151749Y-24334541D01*
X51207900Y-24327148D01*
X51225748Y-24334540D01*
X51234664Y-24339688D01*
X51234666Y-24339688D01*
X51234667Y-24339689D01*
X51273149Y-24350000D01*
X51368314Y-24375499D01*
X51368315Y-24375500D01*
X51368317Y-24375500D01*
X51506685Y-24375500D01*
X51506685Y-24375499D01*
X51640336Y-24339688D01*
X51640338Y-24339686D01*
X51640340Y-24339686D01*
X51651749Y-24333099D01*
X51707902Y-24325705D01*
X51725751Y-24333099D01*
X51737159Y-24339686D01*
X51737167Y-24339689D01*
X51775649Y-24350000D01*
X51870814Y-24375499D01*
X51870815Y-24375500D01*
X51870817Y-24375500D01*
X52009185Y-24375500D01*
X52009185Y-24375499D01*
X52142836Y-24339688D01*
X52262665Y-24270505D01*
X52360505Y-24172665D01*
X52429688Y-24052836D01*
X52465499Y-23919185D01*
X52465500Y-23919185D01*
X52465500Y-23780815D01*
X52465499Y-23780814D01*
X52462377Y-23769164D01*
X52429688Y-23647164D01*
X52423820Y-23637002D01*
X52416426Y-23580851D01*
X52423821Y-23562997D01*
X52429688Y-23552836D01*
X52465499Y-23419185D01*
X52465500Y-23419185D01*
X52465500Y-23280815D01*
X52465499Y-23280814D01*
X52462044Y-23267921D01*
X52429736Y-23147342D01*
X52429689Y-23147167D01*
X52429688Y-23147165D01*
X52429688Y-23147164D01*
X52427955Y-23144163D01*
X52420563Y-23088012D01*
X52427956Y-23070164D01*
X52432188Y-23062836D01*
X52467999Y-22929185D01*
X52468000Y-22929185D01*
X52468000Y-22813044D01*
X52489674Y-22760718D01*
X52542000Y-22739044D01*
X52594326Y-22760718D01*
X52726826Y-22893218D01*
X52748500Y-22945544D01*
X52748500Y-23528273D01*
X52748500Y-23633727D01*
X52768571Y-23708633D01*
X52775793Y-23735588D01*
X52775795Y-23735592D01*
X52828517Y-23826909D01*
X52828518Y-23826910D01*
X52828520Y-23826913D01*
X53995826Y-24994219D01*
X54017500Y-25046544D01*
X54017500Y-25972455D01*
X53995826Y-26024781D01*
X53943500Y-26046455D01*
X53891174Y-26024781D01*
X53219549Y-25353156D01*
X52545913Y-24679520D01*
X52545910Y-24679518D01*
X52545909Y-24679517D01*
X52454592Y-24626795D01*
X52454588Y-24626793D01*
X52439182Y-24622665D01*
X52352727Y-24599500D01*
X36872727Y-24599500D01*
X36767273Y-24599500D01*
X36716342Y-24613146D01*
X36665411Y-24626793D01*
X36665407Y-24626795D01*
X36574090Y-24679517D01*
X34515781Y-26737826D01*
X34463455Y-26759500D01*
X32933076Y-26759500D01*
X32880750Y-26737826D01*
X32859076Y-26685500D01*
X32880750Y-26633174D01*
X32913922Y-26614022D01*
X32916238Y-26613400D01*
X32916632Y-26613295D01*
X33171021Y-26507923D01*
X33409479Y-26370249D01*
X33593587Y-26228979D01*
X33627922Y-26202633D01*
X33627923Y-26202631D01*
X33627928Y-26202628D01*
X33822628Y-26007928D01*
X33835983Y-25990524D01*
X33990247Y-25789481D01*
X33990249Y-25789479D01*
X34127923Y-25551021D01*
X34233295Y-25296632D01*
X34304560Y-25030666D01*
X34340500Y-24757674D01*
X34340500Y-24482326D01*
X34304560Y-24209334D01*
X34233295Y-23943368D01*
X34127923Y-23688979D01*
X33990249Y-23450521D01*
X33971050Y-23425500D01*
X33822633Y-23232077D01*
X33627922Y-23037366D01*
X33472495Y-22918104D01*
X41999500Y-22918104D01*
X42006078Y-22972875D01*
X42010124Y-23006564D01*
X42022271Y-23037366D01*
X42065639Y-23147341D01*
X42124124Y-23224464D01*
X42157079Y-23267922D01*
X42277659Y-23359361D01*
X42418437Y-23414877D01*
X42489765Y-23423442D01*
X42506897Y-23425500D01*
X42506899Y-23425500D01*
X43293105Y-23425500D01*
X43308723Y-23423624D01*
X43381565Y-23414877D01*
X43522343Y-23359361D01*
X43642923Y-23267922D01*
X43734362Y-23147342D01*
X43789878Y-23006564D01*
X43800501Y-22918102D01*
X43800501Y-21886309D01*
X43999502Y-21886309D01*
X43999502Y-22613691D01*
X44002091Y-22626705D01*
X44034106Y-22787660D01*
X44034109Y-22787670D01*
X44101987Y-22951544D01*
X44193172Y-23088012D01*
X44200538Y-23099035D01*
X44325967Y-23224464D01*
X44473455Y-23323013D01*
X44473456Y-23323013D01*
X44473457Y-23323014D01*
X44584920Y-23369183D01*
X44637336Y-23390894D01*
X44811311Y-23425500D01*
X44811313Y-23425500D01*
X44988691Y-23425500D01*
X44988693Y-23425500D01*
X45162668Y-23390894D01*
X45326549Y-23323013D01*
X45474037Y-23224464D01*
X45599466Y-23099035D01*
X45698015Y-22951547D01*
X45765896Y-22787666D01*
X45800502Y-22613691D01*
X45800502Y-21886309D01*
X45765896Y-21712334D01*
X45765894Y-21712329D01*
X45698016Y-21548455D01*
X45682677Y-21525499D01*
X45599466Y-21400965D01*
X45474037Y-21275536D01*
X45466913Y-21270776D01*
X45326546Y-21176985D01*
X45162672Y-21109107D01*
X45162662Y-21109104D01*
X45042098Y-21085123D01*
X44988693Y-21074500D01*
X44811311Y-21074500D01*
X44761991Y-21084310D01*
X44637341Y-21109104D01*
X44637331Y-21109107D01*
X44473457Y-21176985D01*
X44325970Y-21275533D01*
X44200535Y-21400968D01*
X44101987Y-21548455D01*
X44034109Y-21712329D01*
X44034106Y-21712339D01*
X44017234Y-21797163D01*
X43999502Y-21886309D01*
X43800501Y-21886309D01*
X43800501Y-21581898D01*
X43800212Y-21579495D01*
X43793728Y-21525499D01*
X43789878Y-21493436D01*
X43734362Y-21352658D01*
X43642923Y-21232078D01*
X43628525Y-21221159D01*
X43522342Y-21140638D01*
X43388221Y-21087748D01*
X43381565Y-21085123D01*
X43352077Y-21081582D01*
X43293105Y-21074500D01*
X43293103Y-21074500D01*
X42506899Y-21074500D01*
X42506897Y-21074500D01*
X42418437Y-21085123D01*
X42277659Y-21140638D01*
X42157079Y-21232077D01*
X42157078Y-21232078D01*
X42065639Y-21352658D01*
X42010124Y-21493436D01*
X41999790Y-21579495D01*
X41999501Y-21581898D01*
X41999501Y-22918102D01*
X41999501Y-22918104D01*
X41999500Y-22918104D01*
X33472495Y-22918104D01*
X33409481Y-22869752D01*
X33409475Y-22869748D01*
X33171020Y-22732076D01*
X33171017Y-22732075D01*
X32916631Y-22626704D01*
X32650664Y-22555439D01*
X32441281Y-22527874D01*
X32377674Y-22519500D01*
X32102326Y-22519500D01*
X32038810Y-22527862D01*
X31829335Y-22555439D01*
X31563368Y-22626704D01*
X31308982Y-22732075D01*
X31308979Y-22732076D01*
X31070524Y-22869748D01*
X31070518Y-22869752D01*
X30852077Y-23037366D01*
X30657366Y-23232077D01*
X30489752Y-23450518D01*
X30489751Y-23450521D01*
X30352076Y-23688979D01*
X30352075Y-23688982D01*
X30246704Y-23943368D01*
X30175439Y-24209335D01*
X30151693Y-24389710D01*
X30139500Y-24482326D01*
X30139500Y-24757674D01*
X30147858Y-24821158D01*
X30175439Y-25030664D01*
X30246704Y-25296631D01*
X30352075Y-25551017D01*
X30352076Y-25551020D01*
X30489748Y-25789475D01*
X30489752Y-25789481D01*
X30657366Y-26007922D01*
X30852077Y-26202633D01*
X31070518Y-26370247D01*
X31070524Y-26370251D01*
X31287460Y-26495499D01*
X31308979Y-26507923D01*
X31563368Y-26613295D01*
X31563372Y-26613296D01*
X31563375Y-26613297D01*
X31566078Y-26614022D01*
X31611011Y-26648501D01*
X31618402Y-26704654D01*
X31583923Y-26749587D01*
X31546924Y-26759500D01*
X31156545Y-26759500D01*
X31104219Y-26737826D01*
X28245913Y-23879520D01*
X28101981Y-23735588D01*
X27945913Y-23579520D01*
X27945910Y-23579518D01*
X27945909Y-23579517D01*
X27854592Y-23526795D01*
X27854588Y-23526793D01*
X27752727Y-23499500D01*
X24552727Y-23499500D01*
X23752727Y-23499500D01*
X23647273Y-23499500D01*
X23596342Y-23513146D01*
X23545411Y-23526793D01*
X23545407Y-23526795D01*
X23454090Y-23579517D01*
X23080781Y-23952826D01*
X23035332Y-23971651D01*
X23035624Y-23973867D01*
X23030814Y-23974500D01*
X22897168Y-24010310D01*
X22897163Y-24010312D01*
X22777334Y-24079495D01*
X22679495Y-24177334D01*
X22610312Y-24297163D01*
X22610310Y-24297168D01*
X22574500Y-24430814D01*
X22574500Y-24569185D01*
X22610310Y-24702831D01*
X22610312Y-24702836D01*
X22679495Y-24822665D01*
X22777335Y-24920505D01*
X22897164Y-24989688D01*
X23030814Y-25025499D01*
X23030815Y-25025500D01*
X23030817Y-25025500D01*
X23169185Y-25025500D01*
X23169185Y-25025499D01*
X23302836Y-24989688D01*
X23422665Y-24920505D01*
X23520505Y-24822665D01*
X23589688Y-24702836D01*
X23625500Y-24569183D01*
X23625500Y-24569177D01*
X23626133Y-24564376D01*
X23628348Y-24564667D01*
X23647174Y-24519219D01*
X23844219Y-24322174D01*
X23896545Y-24300500D01*
X24447273Y-24300500D01*
X27503455Y-24300500D01*
X27555781Y-24322174D01*
X27679520Y-24445913D01*
X30714087Y-27480480D01*
X30805412Y-27533207D01*
X30907273Y-27560500D01*
X30907274Y-27560500D01*
X34712726Y-27560500D01*
X34712727Y-27560500D01*
X34814588Y-27533207D01*
X34905913Y-27480480D01*
X35455385Y-26931008D01*
X40299500Y-26931008D01*
X40299500Y-27068991D01*
X40326418Y-27204322D01*
X40326421Y-27204332D01*
X40379223Y-27331808D01*
X40432471Y-27411500D01*
X40455886Y-27446542D01*
X40553458Y-27544114D01*
X40668189Y-27620775D01*
X40668190Y-27620775D01*
X40668191Y-27620776D01*
X40795247Y-27673404D01*
X40795672Y-27673580D01*
X40931007Y-27700500D01*
X40931009Y-27700500D01*
X41068991Y-27700500D01*
X41068993Y-27700500D01*
X41204328Y-27673580D01*
X41331811Y-27620775D01*
X41446542Y-27544114D01*
X41544114Y-27446542D01*
X41620775Y-27331811D01*
X41673580Y-27204328D01*
X41700500Y-27068993D01*
X41700500Y-27030814D01*
X50974500Y-27030814D01*
X50974500Y-27169185D01*
X51010310Y-27302831D01*
X51010311Y-27302833D01*
X51010312Y-27302836D01*
X51018389Y-27316826D01*
X51026954Y-27331661D01*
X51034345Y-27387814D01*
X51026955Y-27405656D01*
X51020314Y-27417159D01*
X51020310Y-27417168D01*
X50984500Y-27550814D01*
X50984500Y-27689185D01*
X51020310Y-27822831D01*
X51020312Y-27822836D01*
X51089495Y-27942665D01*
X51187335Y-28040505D01*
X51307164Y-28109688D01*
X51440814Y-28145499D01*
X51440815Y-28145500D01*
X51440817Y-28145500D01*
X51579185Y-28145500D01*
X51579185Y-28145499D01*
X51712836Y-28109688D01*
X51832665Y-28040505D01*
X51930505Y-27942665D01*
X51999688Y-27822836D01*
X52035500Y-27689183D01*
X52035500Y-27689177D01*
X52036133Y-27684376D01*
X52038255Y-27684655D01*
X52057174Y-27638981D01*
X52090345Y-27619829D01*
X52202836Y-27589688D01*
X52322665Y-27520505D01*
X52420505Y-27422665D01*
X52489688Y-27302836D01*
X52525499Y-27169185D01*
X52525500Y-27169185D01*
X52525500Y-27030815D01*
X52525499Y-27030814D01*
X52516147Y-26995913D01*
X52489688Y-26897164D01*
X52420505Y-26777335D01*
X52322665Y-26679495D01*
X52202836Y-26610312D01*
X52202831Y-26610310D01*
X52069185Y-26574500D01*
X52069183Y-26574500D01*
X51930817Y-26574500D01*
X51930815Y-26574500D01*
X51797168Y-26610310D01*
X51797161Y-26610313D01*
X51786998Y-26616181D01*
X51730845Y-26623572D01*
X51713002Y-26616181D01*
X51702838Y-26610313D01*
X51702831Y-26610310D01*
X51569185Y-26574500D01*
X51569183Y-26574500D01*
X51430817Y-26574500D01*
X51430815Y-26574500D01*
X51297168Y-26610310D01*
X51297163Y-26610312D01*
X51177334Y-26679495D01*
X51079495Y-26777334D01*
X51010312Y-26897163D01*
X51010310Y-26897168D01*
X50974500Y-27030814D01*
X41700500Y-27030814D01*
X41700500Y-26931007D01*
X41673580Y-26795672D01*
X41653489Y-26747168D01*
X41620776Y-26668191D01*
X41597378Y-26633174D01*
X41544114Y-26553458D01*
X41446542Y-26455886D01*
X41446386Y-26455782D01*
X41331808Y-26379223D01*
X41204332Y-26326421D01*
X41204322Y-26326418D01*
X41113694Y-26308391D01*
X41068993Y-26299500D01*
X40931007Y-26299500D01*
X40892642Y-26307131D01*
X40795677Y-26326418D01*
X40795667Y-26326421D01*
X40668191Y-26379223D01*
X40553461Y-26455883D01*
X40455883Y-26553461D01*
X40379223Y-26668191D01*
X40326421Y-26795667D01*
X40326418Y-26795677D01*
X40299500Y-26931008D01*
X35455385Y-26931008D01*
X36964219Y-25422174D01*
X37016545Y-25400500D01*
X49489230Y-25400500D01*
X49541556Y-25422174D01*
X49563230Y-25474500D01*
X49541556Y-25526826D01*
X49526230Y-25538586D01*
X49507334Y-25549495D01*
X49409495Y-25647334D01*
X49340312Y-25767163D01*
X49340310Y-25767168D01*
X49304500Y-25900814D01*
X49304500Y-26039185D01*
X49340310Y-26172831D01*
X49340312Y-26172836D01*
X49409495Y-26292665D01*
X49507335Y-26390505D01*
X49627164Y-26459688D01*
X49760814Y-26495499D01*
X49760815Y-26495500D01*
X49760817Y-26495500D01*
X49899185Y-26495500D01*
X49899185Y-26495499D01*
X50032836Y-26459688D01*
X50152665Y-26390505D01*
X50250505Y-26292665D01*
X50319688Y-26172836D01*
X50355499Y-26039185D01*
X50355500Y-26039185D01*
X50355500Y-25900815D01*
X50355499Y-25900814D01*
X50354052Y-25895415D01*
X50319688Y-25767164D01*
X50250505Y-25647335D01*
X50152665Y-25549495D01*
X50133770Y-25538586D01*
X50099291Y-25493652D01*
X50106684Y-25437500D01*
X50151618Y-25403021D01*
X50170770Y-25400500D01*
X52103455Y-25400500D01*
X52155781Y-25422174D01*
X53915931Y-27182324D01*
X54900277Y-28166669D01*
X54921951Y-28218995D01*
X54900277Y-28271321D01*
X54847951Y-28292995D01*
X54828799Y-28290474D01*
X54792758Y-28280817D01*
X54769183Y-28274500D01*
X54630817Y-28274500D01*
X54630815Y-28274500D01*
X54497168Y-28310310D01*
X54497163Y-28310312D01*
X54377334Y-28379495D01*
X54279495Y-28477334D01*
X54210312Y-28597163D01*
X54210310Y-28597168D01*
X54174500Y-28730814D01*
X54174500Y-28869185D01*
X54210310Y-29002831D01*
X54210312Y-29002836D01*
X54279495Y-29122665D01*
X54377335Y-29220505D01*
X54497164Y-29289688D01*
X54630814Y-29325499D01*
X54630815Y-29325500D01*
X54630817Y-29325500D01*
X54769185Y-29325500D01*
X54769185Y-29325499D01*
X54902836Y-29289688D01*
X55022665Y-29220505D01*
X55120505Y-29122665D01*
X55189688Y-29002836D01*
X55225499Y-28869185D01*
X55225500Y-28869185D01*
X55225500Y-28730815D01*
X55225499Y-28730814D01*
X55223697Y-28724090D01*
X55209526Y-28671200D01*
X55216918Y-28615049D01*
X55261851Y-28580570D01*
X55318003Y-28587962D01*
X55333330Y-28599722D01*
X55677826Y-28944218D01*
X55699500Y-28996544D01*
X55699500Y-29997273D01*
X55699500Y-30102727D01*
X55726793Y-30204588D01*
X55726795Y-30204592D01*
X55779517Y-30295909D01*
X55779518Y-30295910D01*
X55779520Y-30295913D01*
X57493972Y-32010365D01*
X57497798Y-32019602D01*
X57505732Y-32025690D01*
X57508253Y-32044842D01*
X57515646Y-32062690D01*
X57511818Y-32071929D01*
X57513124Y-32081843D01*
X57501364Y-32097167D01*
X57493972Y-32115016D01*
X57478646Y-32126776D01*
X57459498Y-32137831D01*
X57403345Y-32145223D01*
X57385499Y-32137831D01*
X57337837Y-32110314D01*
X57337828Y-32110310D01*
X57204182Y-32074500D01*
X57204180Y-32074500D01*
X57065814Y-32074500D01*
X57065812Y-32074500D01*
X56932165Y-32110310D01*
X56932162Y-32110311D01*
X56932161Y-32110312D01*
X56886642Y-32136591D01*
X56884494Y-32137832D01*
X56828341Y-32145223D01*
X56810496Y-32137831D01*
X56762834Y-32110314D01*
X56762825Y-32110310D01*
X56629179Y-32074500D01*
X56629177Y-32074500D01*
X56490811Y-32074500D01*
X56490809Y-32074500D01*
X56357162Y-32110310D01*
X56357159Y-32110311D01*
X56357158Y-32110312D01*
X56311639Y-32136591D01*
X56309491Y-32137832D01*
X56253338Y-32145223D01*
X56235493Y-32137831D01*
X56187831Y-32110314D01*
X56187822Y-32110310D01*
X56054176Y-32074500D01*
X56054174Y-32074500D01*
X55915808Y-32074500D01*
X55915806Y-32074500D01*
X55782159Y-32110310D01*
X55782154Y-32110312D01*
X55662325Y-32179495D01*
X55564486Y-32277334D01*
X55495303Y-32397163D01*
X55495301Y-32397168D01*
X55459491Y-32530814D01*
X55459491Y-32669185D01*
X55495301Y-32802831D01*
X55495302Y-32802833D01*
X55495303Y-32802836D01*
X55496896Y-32805595D01*
X55497105Y-32807186D01*
X55497160Y-32807318D01*
X55497124Y-32807332D01*
X55504287Y-32861747D01*
X55485135Y-32894919D01*
X52102230Y-36277826D01*
X52049904Y-36299500D01*
X51417193Y-36299500D01*
X51364867Y-36277826D01*
X51345714Y-36244652D01*
X51341408Y-36228582D01*
X51339688Y-36222161D01*
X51270505Y-36102332D01*
X51172665Y-36004492D01*
X51052836Y-35935309D01*
X51052831Y-35935307D01*
X50919185Y-35899497D01*
X50919183Y-35899497D01*
X50780817Y-35899497D01*
X50780815Y-35899497D01*
X50647168Y-35935307D01*
X50647163Y-35935309D01*
X50527334Y-36004492D01*
X50429495Y-36102331D01*
X50360312Y-36222160D01*
X50360310Y-36222165D01*
X50324500Y-36355811D01*
X50324500Y-36494182D01*
X50360310Y-36627828D01*
X50360314Y-36627837D01*
X50387831Y-36675499D01*
X50395223Y-36731651D01*
X50387831Y-36749497D01*
X50360312Y-36797164D01*
X50360312Y-36797165D01*
X50360310Y-36797168D01*
X50324500Y-36930814D01*
X50324500Y-37069185D01*
X50360310Y-37202831D01*
X50360314Y-37202840D01*
X50395047Y-37263001D01*
X50396095Y-37270965D01*
X50401319Y-37277071D01*
X50399361Y-37295775D01*
X50402439Y-37319154D01*
X50396925Y-37333537D01*
X50396027Y-37335301D01*
X50360312Y-37397164D01*
X50355560Y-37414895D01*
X50352050Y-37421801D01*
X50335967Y-37435561D01*
X50323083Y-37452351D01*
X50315119Y-37453399D01*
X50309015Y-37458622D01*
X50287914Y-37456980D01*
X50266931Y-37459742D01*
X50258133Y-37454662D01*
X50252549Y-37454228D01*
X50247831Y-37448714D01*
X50233760Y-37440590D01*
X50222665Y-37429495D01*
X50102836Y-37360312D01*
X50102831Y-37360310D01*
X49969185Y-37324500D01*
X49969183Y-37324500D01*
X49830817Y-37324500D01*
X49830815Y-37324500D01*
X49697168Y-37360310D01*
X49697165Y-37360311D01*
X49697164Y-37360312D01*
X49655367Y-37384443D01*
X49649497Y-37387832D01*
X49593344Y-37395223D01*
X49575499Y-37387831D01*
X49527837Y-37360314D01*
X49527828Y-37360310D01*
X49394182Y-37324500D01*
X49394180Y-37324500D01*
X49255814Y-37324500D01*
X49255812Y-37324500D01*
X49122165Y-37360310D01*
X49122160Y-37360312D01*
X49002331Y-37429495D01*
X48904492Y-37527334D01*
X48835309Y-37647163D01*
X48835307Y-37647168D01*
X48799497Y-37780814D01*
X48799497Y-37919185D01*
X48835307Y-38052831D01*
X48835309Y-38052836D01*
X48904492Y-38172665D01*
X49002332Y-38270505D01*
X49122161Y-38339688D01*
X49189509Y-38357733D01*
X49222681Y-38376885D01*
X49392708Y-38546912D01*
X49392709Y-38546913D01*
X49467276Y-38621480D01*
X49558602Y-38674207D01*
X49660459Y-38701499D01*
X49660460Y-38701500D01*
X49660462Y-38701500D01*
X50851726Y-38701500D01*
X50851727Y-38701500D01*
X50953588Y-38674207D01*
X51044913Y-38621480D01*
X51642219Y-38024174D01*
X51694545Y-38002500D01*
X52674209Y-38002500D01*
X52674210Y-38002500D01*
X52776071Y-37975207D01*
X52776073Y-37975205D01*
X52778281Y-37974614D01*
X52779260Y-37974208D01*
X52779266Y-37974207D01*
X52870591Y-37921480D01*
X52911257Y-37880814D01*
X53324500Y-37880814D01*
X53324500Y-38019185D01*
X53360310Y-38152831D01*
X53360312Y-38152836D01*
X53429495Y-38272665D01*
X53527335Y-38370505D01*
X53647164Y-38439688D01*
X53780814Y-38475499D01*
X53780815Y-38475500D01*
X53780817Y-38475500D01*
X53919185Y-38475500D01*
X53919185Y-38475499D01*
X54052836Y-38439688D01*
X54172665Y-38370505D01*
X54270505Y-38272665D01*
X54339688Y-38152836D01*
X54375499Y-38019185D01*
X54375500Y-38019185D01*
X54375500Y-37880815D01*
X54375499Y-37880814D01*
X54372383Y-37869185D01*
X54339688Y-37747164D01*
X54330248Y-37730814D01*
X59274500Y-37730814D01*
X59274500Y-37869185D01*
X59310310Y-38002831D01*
X59310312Y-38002836D01*
X59379495Y-38122665D01*
X59477335Y-38220505D01*
X59597164Y-38289688D01*
X59730814Y-38325499D01*
X59730815Y-38325500D01*
X59730817Y-38325500D01*
X59869185Y-38325500D01*
X59869185Y-38325499D01*
X60002836Y-38289688D01*
X60122665Y-38220505D01*
X60220505Y-38122665D01*
X60289688Y-38002836D01*
X60325499Y-37869185D01*
X60325500Y-37869185D01*
X60325500Y-37730815D01*
X60325499Y-37730814D01*
X60324197Y-37725956D01*
X60289688Y-37597164D01*
X60220505Y-37477335D01*
X60122665Y-37379495D01*
X60002836Y-37310312D01*
X60002831Y-37310310D01*
X59869185Y-37274500D01*
X59869183Y-37274500D01*
X59730817Y-37274500D01*
X59730815Y-37274500D01*
X59597168Y-37310310D01*
X59597163Y-37310312D01*
X59477334Y-37379495D01*
X59379495Y-37477334D01*
X59310312Y-37597163D01*
X59310310Y-37597168D01*
X59274500Y-37730814D01*
X54330248Y-37730814D01*
X54270505Y-37627335D01*
X54172665Y-37529495D01*
X54052836Y-37460312D01*
X54052831Y-37460310D01*
X53919185Y-37424500D01*
X53919183Y-37424500D01*
X53780817Y-37424500D01*
X53780815Y-37424500D01*
X53647168Y-37460310D01*
X53647163Y-37460312D01*
X53527334Y-37529495D01*
X53429495Y-37627334D01*
X53360312Y-37747163D01*
X53360310Y-37747168D01*
X53324500Y-37880814D01*
X52911257Y-37880814D01*
X54611256Y-36180814D01*
X55524500Y-36180814D01*
X55524500Y-36319185D01*
X55560310Y-36452831D01*
X55560312Y-36452836D01*
X55629495Y-36572665D01*
X55727335Y-36670505D01*
X55847164Y-36739688D01*
X55980814Y-36775499D01*
X55980815Y-36775500D01*
X55980817Y-36775500D01*
X56119185Y-36775500D01*
X56119185Y-36775499D01*
X56252836Y-36739688D01*
X56372665Y-36670505D01*
X56470505Y-36572665D01*
X56539688Y-36452836D01*
X56575499Y-36319185D01*
X56575500Y-36319185D01*
X56575500Y-36180815D01*
X56575499Y-36180814D01*
X56569711Y-36159214D01*
X56539688Y-36047164D01*
X56470505Y-35927335D01*
X56372665Y-35829495D01*
X56252836Y-35760312D01*
X56252831Y-35760310D01*
X56119185Y-35724500D01*
X56119183Y-35724500D01*
X55980817Y-35724500D01*
X55980815Y-35724500D01*
X55847168Y-35760310D01*
X55847163Y-35760312D01*
X55727334Y-35829495D01*
X55629495Y-35927334D01*
X55560312Y-36047163D01*
X55560310Y-36047168D01*
X55524500Y-36180814D01*
X54611256Y-36180814D01*
X57252706Y-33539362D01*
X57305031Y-33517689D01*
X57357357Y-33539363D01*
X57369117Y-33554690D01*
X57379495Y-33572665D01*
X57477335Y-33670505D01*
X57597164Y-33739688D01*
X57730814Y-33775499D01*
X57730815Y-33775500D01*
X57730817Y-33775500D01*
X57869185Y-33775500D01*
X57869185Y-33775499D01*
X58002836Y-33739688D01*
X58122665Y-33670505D01*
X58220505Y-33572665D01*
X58289688Y-33452836D01*
X58325499Y-33319185D01*
X58325500Y-33319185D01*
X58325500Y-33180815D01*
X58325499Y-33180814D01*
X58317376Y-33150500D01*
X58289688Y-33047164D01*
X58241404Y-32963534D01*
X58234013Y-32907383D01*
X58268491Y-32862450D01*
X58324644Y-32855058D01*
X58357817Y-32874210D01*
X62002826Y-36519219D01*
X62021651Y-36564667D01*
X62023867Y-36564376D01*
X62024500Y-36569185D01*
X62060310Y-36702831D01*
X62060312Y-36702836D01*
X62129495Y-36822665D01*
X62227335Y-36920505D01*
X62347164Y-36989688D01*
X62480814Y-37025499D01*
X62480815Y-37025500D01*
X62480817Y-37025500D01*
X62619185Y-37025500D01*
X62619185Y-37025499D01*
X62752836Y-36989688D01*
X62872665Y-36920505D01*
X62970505Y-36822665D01*
X63039688Y-36702836D01*
X63075499Y-36569185D01*
X63075500Y-36569185D01*
X63075500Y-36430815D01*
X63075499Y-36430814D01*
X63054028Y-36350684D01*
X63039688Y-36297164D01*
X62970505Y-36177335D01*
X62872665Y-36079495D01*
X62752836Y-36010312D01*
X62752831Y-36010310D01*
X62619185Y-35974500D01*
X62614376Y-35973867D01*
X62614667Y-35971651D01*
X62569219Y-35952826D01*
X60297207Y-33680814D01*
X61374500Y-33680814D01*
X61374500Y-33819185D01*
X61410310Y-33952831D01*
X61410312Y-33952836D01*
X61479495Y-34072665D01*
X61577335Y-34170505D01*
X61697164Y-34239688D01*
X61830814Y-34275499D01*
X61830815Y-34275500D01*
X61830817Y-34275500D01*
X61850500Y-34275500D01*
X61902826Y-34297174D01*
X61924500Y-34349500D01*
X61924500Y-34369185D01*
X61960310Y-34502831D01*
X61960312Y-34502836D01*
X62029495Y-34622665D01*
X62127335Y-34720505D01*
X62247164Y-34789688D01*
X62380814Y-34825499D01*
X62380815Y-34825500D01*
X62380817Y-34825500D01*
X62400500Y-34825500D01*
X62452826Y-34847174D01*
X62474500Y-34899500D01*
X62474500Y-34919185D01*
X62510310Y-35052831D01*
X62510312Y-35052836D01*
X62579495Y-35172665D01*
X62677335Y-35270505D01*
X62797164Y-35339688D01*
X62930814Y-35375499D01*
X62930815Y-35375500D01*
X62930817Y-35375500D01*
X63069185Y-35375500D01*
X63069185Y-35375499D01*
X63202836Y-35339688D01*
X63322665Y-35270505D01*
X63420505Y-35172665D01*
X63489688Y-35052836D01*
X63525499Y-34919185D01*
X63525500Y-34919185D01*
X63525500Y-34879500D01*
X63547174Y-34827174D01*
X63599500Y-34805500D01*
X63619185Y-34805500D01*
X63619185Y-34805499D01*
X63752836Y-34769688D01*
X63872665Y-34700505D01*
X63970505Y-34602665D01*
X64039688Y-34482836D01*
X64075500Y-34349183D01*
X64075500Y-34349177D01*
X64076133Y-34344376D01*
X64077545Y-34344561D01*
X64097174Y-34297174D01*
X64149500Y-34275500D01*
X64169185Y-34275500D01*
X64169185Y-34275499D01*
X64302836Y-34239688D01*
X64422665Y-34170505D01*
X64520505Y-34072665D01*
X64589688Y-33952836D01*
X64625499Y-33819185D01*
X64625500Y-33819185D01*
X64625500Y-33680815D01*
X64625499Y-33680814D01*
X64622736Y-33670504D01*
X64589688Y-33547164D01*
X64520505Y-33427335D01*
X64422665Y-33329495D01*
X64302836Y-33260312D01*
X64302831Y-33260310D01*
X64169185Y-33224500D01*
X64169183Y-33224500D01*
X64139500Y-33224500D01*
X64087174Y-33202826D01*
X64065500Y-33150500D01*
X64065500Y-33130815D01*
X64065499Y-33130814D01*
X64043710Y-33049497D01*
X64029688Y-32997164D01*
X63960505Y-32877335D01*
X63862665Y-32779495D01*
X63742836Y-32710312D01*
X63742831Y-32710310D01*
X63609185Y-32674500D01*
X63609183Y-32674500D01*
X63599500Y-32674500D01*
X63547174Y-32652826D01*
X63525500Y-32600500D01*
X63525500Y-32580815D01*
X63525499Y-32580814D01*
X63512643Y-32532836D01*
X63489688Y-32447164D01*
X63420505Y-32327335D01*
X63322665Y-32229495D01*
X63202836Y-32160312D01*
X63202831Y-32160310D01*
X63069185Y-32124500D01*
X63069183Y-32124500D01*
X62930817Y-32124500D01*
X62930815Y-32124500D01*
X62797168Y-32160310D01*
X62797163Y-32160312D01*
X62677334Y-32229495D01*
X62579495Y-32327334D01*
X62510312Y-32447163D01*
X62510310Y-32447168D01*
X62474500Y-32580814D01*
X62474500Y-32610500D01*
X62452826Y-32662826D01*
X62405438Y-32682454D01*
X62405624Y-32683867D01*
X62400814Y-32684500D01*
X62267168Y-32720310D01*
X62267163Y-32720312D01*
X62147334Y-32789495D01*
X62049495Y-32887334D01*
X61980312Y-33007163D01*
X61980310Y-33007168D01*
X61944500Y-33140814D01*
X61944500Y-33150500D01*
X61922826Y-33202826D01*
X61870500Y-33224500D01*
X61830815Y-33224500D01*
X61697168Y-33260310D01*
X61697163Y-33260312D01*
X61577334Y-33329495D01*
X61479495Y-33427334D01*
X61410312Y-33547163D01*
X61410310Y-33547168D01*
X61374500Y-33680814D01*
X60297207Y-33680814D01*
X57297207Y-30680814D01*
X58074500Y-30680814D01*
X58074500Y-30819185D01*
X58110310Y-30952831D01*
X58110312Y-30952836D01*
X58179495Y-31072665D01*
X58277335Y-31170505D01*
X58397164Y-31239688D01*
X58530814Y-31275499D01*
X58530815Y-31275500D01*
X58530817Y-31275500D01*
X58669185Y-31275500D01*
X58669185Y-31275499D01*
X58802836Y-31239688D01*
X58922665Y-31170505D01*
X59020505Y-31072665D01*
X59089688Y-30952836D01*
X59125499Y-30819185D01*
X59125500Y-30819185D01*
X59125500Y-30680815D01*
X59125499Y-30680814D01*
X59120622Y-30662614D01*
X59089688Y-30547164D01*
X59020505Y-30427335D01*
X58922665Y-30329495D01*
X58802836Y-30260312D01*
X58802831Y-30260310D01*
X58669185Y-30224500D01*
X58669183Y-30224500D01*
X58530817Y-30224500D01*
X58530815Y-30224500D01*
X58397168Y-30260310D01*
X58397163Y-30260312D01*
X58277334Y-30329495D01*
X58179495Y-30427334D01*
X58110312Y-30547163D01*
X58110310Y-30547168D01*
X58074500Y-30680814D01*
X57297207Y-30680814D01*
X56522174Y-29905781D01*
X56500500Y-29853455D01*
X56500500Y-28858698D01*
X56500501Y-28858685D01*
X56500501Y-28747271D01*
X56500500Y-28747270D01*
X56500471Y-28747163D01*
X56485071Y-28689688D01*
X56473208Y-28645416D01*
X56473206Y-28645411D01*
X56456996Y-28617335D01*
X56456996Y-28617334D01*
X56453628Y-28611501D01*
X56451106Y-28592348D01*
X56443713Y-28574500D01*
X56447539Y-28565262D01*
X56446234Y-28555349D01*
X56457993Y-28540022D01*
X56465387Y-28522174D01*
X56474625Y-28518347D01*
X56480712Y-28510415D01*
X56517713Y-28500500D01*
X56589507Y-28500500D01*
X56641833Y-28522174D01*
X56657238Y-28548860D01*
X56658457Y-28548356D01*
X56660312Y-28552836D01*
X56729495Y-28672665D01*
X56827335Y-28770505D01*
X56947164Y-28839688D01*
X57080814Y-28875499D01*
X57080815Y-28875500D01*
X57080817Y-28875500D01*
X57219185Y-28875500D01*
X57219185Y-28875499D01*
X57352836Y-28839688D01*
X57438001Y-28790517D01*
X57494153Y-28783125D01*
X57511995Y-28790516D01*
X57597164Y-28839688D01*
X57730814Y-28875499D01*
X57730815Y-28875500D01*
X57730817Y-28875500D01*
X57869185Y-28875500D01*
X57869185Y-28875499D01*
X57886670Y-28870814D01*
X59114500Y-28870814D01*
X59114500Y-29009185D01*
X59150310Y-29142831D01*
X59150312Y-29142836D01*
X59219495Y-29262665D01*
X59317335Y-29360505D01*
X59437164Y-29429688D01*
X59570814Y-29465499D01*
X59570815Y-29465500D01*
X59570817Y-29465500D01*
X59709185Y-29465500D01*
X59709185Y-29465499D01*
X59842836Y-29429688D01*
X59962665Y-29360505D01*
X60060505Y-29262665D01*
X60066799Y-29251762D01*
X60111730Y-29217282D01*
X60167883Y-29224673D01*
X60183212Y-29236434D01*
X60246035Y-29299257D01*
X60365864Y-29368440D01*
X60499514Y-29404251D01*
X60499515Y-29404252D01*
X60499517Y-29404252D01*
X60637885Y-29404252D01*
X60637885Y-29404251D01*
X60771536Y-29368440D01*
X60891365Y-29299257D01*
X60989205Y-29201417D01*
X61058388Y-29081588D01*
X61094199Y-28947937D01*
X61094200Y-28947937D01*
X61094200Y-28809567D01*
X61094199Y-28809566D01*
X61083732Y-28770504D01*
X61058388Y-28675916D01*
X60989205Y-28556087D01*
X60891365Y-28458247D01*
X60771536Y-28389064D01*
X60771531Y-28389062D01*
X60637885Y-28353252D01*
X60637883Y-28353252D01*
X60499517Y-28353252D01*
X60499515Y-28353252D01*
X60365868Y-28389062D01*
X60365863Y-28389064D01*
X60246034Y-28458247D01*
X60148195Y-28556086D01*
X60141898Y-28566993D01*
X60096963Y-28601470D01*
X60040811Y-28594076D01*
X60025487Y-28582317D01*
X59962665Y-28519495D01*
X59842836Y-28450312D01*
X59842831Y-28450310D01*
X59709185Y-28414500D01*
X59709183Y-28414500D01*
X59570817Y-28414500D01*
X59570815Y-28414500D01*
X59437168Y-28450310D01*
X59437163Y-28450312D01*
X59317334Y-28519495D01*
X59219495Y-28617334D01*
X59150312Y-28737163D01*
X59150310Y-28737168D01*
X59114500Y-28870814D01*
X57886670Y-28870814D01*
X58002836Y-28839688D01*
X58122665Y-28770505D01*
X58220505Y-28672665D01*
X58289688Y-28552836D01*
X58325499Y-28419185D01*
X58325500Y-28419185D01*
X58325500Y-28280815D01*
X58325499Y-28280814D01*
X58322955Y-28271321D01*
X58289688Y-28147164D01*
X58240517Y-28061998D01*
X58233125Y-28005847D01*
X58240516Y-27988004D01*
X58289688Y-27902836D01*
X58325499Y-27769185D01*
X58325500Y-27769185D01*
X58325500Y-27630815D01*
X58325499Y-27630814D01*
X58322809Y-27620776D01*
X58289688Y-27497164D01*
X58240229Y-27411499D01*
X58232838Y-27355347D01*
X58267316Y-27310414D01*
X58304316Y-27300500D01*
X58665894Y-27300500D01*
X58665894Y-27300499D01*
X58793186Y-27266392D01*
X58907314Y-27200500D01*
X59135640Y-26972174D01*
X59187966Y-26950500D01*
X60427772Y-26950500D01*
X60446922Y-26953020D01*
X60530817Y-26975500D01*
X60530818Y-26975500D01*
X60669182Y-26975500D01*
X60669183Y-26975500D01*
X60753077Y-26953020D01*
X60772228Y-26950500D01*
X61689775Y-26950500D01*
X61742101Y-26972174D01*
X61763775Y-27024500D01*
X61761253Y-27043653D01*
X61724500Y-27180814D01*
X61724500Y-27319185D01*
X61760310Y-27452831D01*
X61760312Y-27452836D01*
X61829495Y-27572665D01*
X61890907Y-27634077D01*
X61902667Y-27649403D01*
X61929517Y-27695909D01*
X61929518Y-27695910D01*
X61929520Y-27695913D01*
X62002790Y-27769183D01*
X62063533Y-27829926D01*
X62085207Y-27882252D01*
X62075294Y-27919251D01*
X62047975Y-27966570D01*
X62030312Y-27997164D01*
X62030312Y-27997165D01*
X62030310Y-27997168D01*
X61994500Y-28130814D01*
X61994500Y-28269185D01*
X62030310Y-28402831D01*
X62030312Y-28402836D01*
X62099495Y-28522665D01*
X62197335Y-28620505D01*
X62317164Y-28689688D01*
X62450814Y-28725499D01*
X62450815Y-28725500D01*
X62450817Y-28725500D01*
X62589185Y-28725500D01*
X62589185Y-28725499D01*
X62722836Y-28689688D01*
X62842665Y-28620505D01*
X62940505Y-28522665D01*
X63009688Y-28402836D01*
X63045499Y-28269185D01*
X63045500Y-28269185D01*
X63045500Y-28152519D01*
X63067174Y-28100193D01*
X63100347Y-28081041D01*
X63129588Y-28073207D01*
X63220913Y-28020480D01*
X63495911Y-27745481D01*
X63495913Y-27745480D01*
X63561613Y-27679778D01*
X63568885Y-27673404D01*
X63572657Y-27670509D01*
X63572665Y-27670505D01*
X63633760Y-27609410D01*
X63686085Y-27587735D01*
X63738411Y-27609409D01*
X63757564Y-27642581D01*
X63760312Y-27652836D01*
X63829495Y-27772665D01*
X63927335Y-27870505D01*
X64047164Y-27939688D01*
X64180814Y-27975499D01*
X64180815Y-27975500D01*
X64180817Y-27975500D01*
X64319185Y-27975500D01*
X64319185Y-27975499D01*
X64452836Y-27939688D01*
X64572665Y-27870505D01*
X64572667Y-27870503D01*
X64576514Y-27867552D01*
X64577874Y-27869324D01*
X64623322Y-27850500D01*
X65767678Y-27850500D01*
X65820004Y-27872174D01*
X65841678Y-27924500D01*
X65821643Y-27972868D01*
X65822448Y-27973486D01*
X65820143Y-27976489D01*
X65820004Y-27976826D01*
X65819495Y-27977334D01*
X65750312Y-28097163D01*
X65750310Y-28097168D01*
X65714500Y-28230814D01*
X65714500Y-28230817D01*
X65714500Y-28369183D01*
X65750312Y-28502836D01*
X65750313Y-28502837D01*
X65750912Y-28505073D01*
X65743519Y-28561226D01*
X65698586Y-28595705D01*
X65679433Y-28598226D01*
X65587089Y-28598226D01*
X65453442Y-28634036D01*
X65453437Y-28634038D01*
X65333608Y-28703221D01*
X65235769Y-28801060D01*
X65166586Y-28920889D01*
X65166584Y-28920894D01*
X65130774Y-29054540D01*
X65130774Y-29192911D01*
X65166584Y-29326557D01*
X65166586Y-29326562D01*
X65235769Y-29446391D01*
X65333609Y-29544231D01*
X65453438Y-29613414D01*
X65469571Y-29617736D01*
X65576311Y-29646338D01*
X65621244Y-29680816D01*
X65628636Y-29698663D01*
X65661559Y-29821532D01*
X65661561Y-29821537D01*
X65730744Y-29941366D01*
X65828584Y-30039206D01*
X65948413Y-30108389D01*
X66082063Y-30144200D01*
X66082064Y-30144201D01*
X66082066Y-30144201D01*
X66220434Y-30144201D01*
X66220434Y-30144200D01*
X66354085Y-30108389D01*
X66473914Y-30039206D01*
X66571754Y-29941366D01*
X66640937Y-29821537D01*
X66676748Y-29687886D01*
X66676749Y-29687886D01*
X66676749Y-29610295D01*
X66698422Y-29557970D01*
X67335286Y-28921105D01*
X67387611Y-28899432D01*
X67424608Y-28909345D01*
X67477164Y-28939688D01*
X67610817Y-28975500D01*
X67610822Y-28975500D01*
X67615624Y-28976133D01*
X67615332Y-28978348D01*
X67660781Y-28997174D01*
X67810519Y-29146912D01*
X67810520Y-29146913D01*
X67885087Y-29221480D01*
X67976413Y-29274207D01*
X68078270Y-29301499D01*
X68078271Y-29301500D01*
X68078273Y-29301500D01*
X68601729Y-29301500D01*
X68604517Y-29301133D01*
X68609678Y-29300637D01*
X68611929Y-29300500D01*
X68682727Y-29300500D01*
X68703539Y-29294923D01*
X68710988Y-29294470D01*
X68731244Y-29301451D01*
X68752483Y-29304247D01*
X68757202Y-29310397D01*
X68764534Y-29312924D01*
X68773921Y-29332185D01*
X68786962Y-29349180D01*
X68785950Y-29356866D01*
X68789347Y-29363837D01*
X68782365Y-29384093D01*
X68779570Y-29405332D01*
X68772117Y-29413830D01*
X68770893Y-29417383D01*
X68767590Y-29418992D01*
X68760533Y-29427040D01*
X68757339Y-29429490D01*
X68659495Y-29527334D01*
X68590312Y-29647163D01*
X68590310Y-29647168D01*
X68554500Y-29780814D01*
X68554500Y-29919185D01*
X68590310Y-30052831D01*
X68590312Y-30052836D01*
X68659495Y-30172665D01*
X68757335Y-30270505D01*
X68877164Y-30339688D01*
X69010814Y-30375499D01*
X69010815Y-30375500D01*
X69010817Y-30375500D01*
X69149185Y-30375500D01*
X69149185Y-30375499D01*
X69282836Y-30339688D01*
X69402665Y-30270505D01*
X69500505Y-30172665D01*
X69569688Y-30052836D01*
X69605500Y-29919183D01*
X69605500Y-29919177D01*
X69606133Y-29914376D01*
X69608348Y-29914667D01*
X69627173Y-29869219D01*
X69920480Y-29575913D01*
X69973207Y-29484588D01*
X70000500Y-29382727D01*
X70000500Y-29277273D01*
X70000500Y-28917273D01*
X69998618Y-28910247D01*
X69992410Y-28887078D01*
X69992410Y-28887077D01*
X69973208Y-28815415D01*
X69973206Y-28815410D01*
X69920482Y-28724090D01*
X69920481Y-28724089D01*
X69920480Y-28724087D01*
X69722219Y-28525826D01*
X69700545Y-28473500D01*
X69722219Y-28421174D01*
X69774545Y-28399500D01*
X71855455Y-28399500D01*
X71907781Y-28421174D01*
X71929455Y-28473500D01*
X71907781Y-28525826D01*
X62455781Y-37977826D01*
X62403455Y-37999500D01*
X61573322Y-37999500D01*
X61527874Y-37980675D01*
X61526514Y-37982448D01*
X61522667Y-37979496D01*
X61402836Y-37910312D01*
X61402831Y-37910310D01*
X61269185Y-37874500D01*
X61269183Y-37874500D01*
X61130817Y-37874500D01*
X61130815Y-37874500D01*
X60997168Y-37910310D01*
X60997163Y-37910312D01*
X60877334Y-37979495D01*
X60779495Y-38077334D01*
X60710312Y-38197163D01*
X60710310Y-38197168D01*
X60674500Y-38330814D01*
X60674500Y-38469185D01*
X60710310Y-38602831D01*
X60710312Y-38602836D01*
X60779495Y-38722665D01*
X60877335Y-38820505D01*
X60997164Y-38889688D01*
X61130814Y-38925499D01*
X61130815Y-38925500D01*
X61130817Y-38925500D01*
X61269185Y-38925500D01*
X61269185Y-38925499D01*
X61402836Y-38889688D01*
X61522665Y-38820505D01*
X61522667Y-38820503D01*
X61526514Y-38817552D01*
X61527874Y-38819324D01*
X61573322Y-38800500D01*
X62652726Y-38800500D01*
X62652727Y-38800500D01*
X62754588Y-38773207D01*
X62845913Y-38720480D01*
X63285579Y-38280814D01*
X64124500Y-38280814D01*
X64124500Y-38419185D01*
X64160310Y-38552831D01*
X64160312Y-38552836D01*
X64229495Y-38672665D01*
X64327335Y-38770505D01*
X64447164Y-38839688D01*
X64580814Y-38875499D01*
X64580815Y-38875500D01*
X64580817Y-38875500D01*
X64719185Y-38875500D01*
X64719185Y-38875499D01*
X64852836Y-38839688D01*
X64972665Y-38770505D01*
X64972667Y-38770503D01*
X64976514Y-38767552D01*
X64977874Y-38769324D01*
X65023322Y-38750500D01*
X86752726Y-38750500D01*
X86752727Y-38750500D01*
X86854588Y-38723207D01*
X86945913Y-38670480D01*
X89285578Y-36330814D01*
X93024500Y-36330814D01*
X93024500Y-36469185D01*
X93060310Y-36602831D01*
X93060312Y-36602836D01*
X93129495Y-36722665D01*
X93227335Y-36820505D01*
X93347164Y-36889688D01*
X93480814Y-36925499D01*
X93480815Y-36925500D01*
X93480817Y-36925500D01*
X93619185Y-36925500D01*
X93619185Y-36925499D01*
X93752836Y-36889688D01*
X93872665Y-36820505D01*
X93970505Y-36722665D01*
X94039688Y-36602836D01*
X94075499Y-36469185D01*
X94075500Y-36469185D01*
X94075500Y-36330815D01*
X94075499Y-36330814D01*
X94062101Y-36280813D01*
X94039688Y-36197164D01*
X93970505Y-36077335D01*
X93872665Y-35979495D01*
X93811962Y-35944448D01*
X94274009Y-35944448D01*
X94294045Y-36049534D01*
X94301973Y-36091111D01*
X94301974Y-36091116D01*
X94360216Y-36228575D01*
X94360219Y-36228582D01*
X94408476Y-36297168D01*
X94446131Y-36350686D01*
X94555850Y-36451942D01*
X94684446Y-36527797D01*
X94826142Y-36574844D01*
X94974570Y-36590969D01*
X94974570Y-36590968D01*
X94974571Y-36590969D01*
X95024067Y-36585795D01*
X95123063Y-36575447D01*
X95264948Y-36528975D01*
X95290341Y-36514183D01*
X95294871Y-36511545D01*
X95295028Y-36511525D01*
X95326744Y-36492988D01*
X95326756Y-36492987D01*
X95332391Y-36490019D01*
X95371243Y-36471692D01*
X95383450Y-36467199D01*
X95421745Y-36456827D01*
X95434547Y-36454545D01*
X95469225Y-36451477D01*
X95477033Y-36450787D01*
X95483553Y-36450499D01*
X97029579Y-36450499D01*
X97029589Y-36450503D01*
X97066227Y-36450499D01*
X97072719Y-36450785D01*
X97115479Y-36454560D01*
X97128297Y-36456841D01*
X97166554Y-36467196D01*
X97166580Y-36467203D01*
X97178805Y-36471700D01*
X97217402Y-36489899D01*
X97223145Y-36492922D01*
X97255006Y-36511537D01*
X97260826Y-36514937D01*
X97261764Y-36515365D01*
X97285069Y-36528940D01*
X97426946Y-36575409D01*
X97547324Y-36587992D01*
X97575429Y-36590930D01*
X97575429Y-36590929D01*
X97575431Y-36590930D01*
X97723851Y-36574805D01*
X97865539Y-36527761D01*
X97994128Y-36451910D01*
X98016987Y-36430814D01*
X98474500Y-36430814D01*
X98474500Y-36569185D01*
X98510310Y-36702831D01*
X98510312Y-36702836D01*
X98579495Y-36822665D01*
X98677335Y-36920505D01*
X98797164Y-36989688D01*
X98930814Y-37025499D01*
X98930815Y-37025500D01*
X98930817Y-37025500D01*
X99069185Y-37025500D01*
X99069185Y-37025499D01*
X99202836Y-36989688D01*
X99322665Y-36920505D01*
X99420505Y-36822665D01*
X99489688Y-36702836D01*
X99525499Y-36569185D01*
X99525500Y-36569185D01*
X99525500Y-36430815D01*
X99525499Y-36430814D01*
X99504028Y-36350684D01*
X99489688Y-36297164D01*
X99420505Y-36177335D01*
X99322665Y-36079495D01*
X99202836Y-36010312D01*
X99202831Y-36010310D01*
X99069185Y-35974500D01*
X99069183Y-35974500D01*
X98930817Y-35974500D01*
X98930815Y-35974500D01*
X98797168Y-36010310D01*
X98797163Y-36010312D01*
X98677334Y-36079495D01*
X98579495Y-36177334D01*
X98510312Y-36297163D01*
X98510310Y-36297168D01*
X98474500Y-36430814D01*
X98016987Y-36430814D01*
X98103841Y-36350659D01*
X98189748Y-36228559D01*
X98203050Y-36197163D01*
X98247988Y-36091103D01*
X98247988Y-36091100D01*
X98247991Y-36091095D01*
X98275952Y-35944444D01*
X98272374Y-35795193D01*
X98237420Y-35650049D01*
X98222444Y-35618828D01*
X98222436Y-35618671D01*
X98206289Y-35585136D01*
X98206288Y-35585123D01*
X98204130Y-35580175D01*
X98190812Y-35546239D01*
X98187554Y-35535679D01*
X98180061Y-35502848D01*
X98178414Y-35491921D01*
X98175706Y-35455808D01*
X98175499Y-35450275D01*
X98175499Y-34049949D01*
X98175706Y-34044416D01*
X98177337Y-34022665D01*
X98178432Y-34008068D01*
X98180078Y-33997152D01*
X98187572Y-33964319D01*
X98190823Y-33953778D01*
X98204049Y-33920073D01*
X98206205Y-33915122D01*
X98216989Y-33892638D01*
X98216990Y-33892635D01*
X98217042Y-33892527D01*
X98222436Y-33881327D01*
X98222438Y-33881277D01*
X98237460Y-33849961D01*
X98272416Y-33704809D01*
X98275992Y-33555550D01*
X98248029Y-33408890D01*
X98248026Y-33408884D01*
X98248026Y-33408881D01*
X98197524Y-33289689D01*
X98189783Y-33271419D01*
X98189782Y-33271417D01*
X98189781Y-33271415D01*
X98127097Y-33182324D01*
X98103870Y-33149312D01*
X97994151Y-33048057D01*
X97992644Y-33047168D01*
X97865558Y-32972202D01*
X97865551Y-32972199D01*
X97723859Y-32925154D01*
X97575433Y-32909029D01*
X97575429Y-32909028D01*
X97426936Y-32924551D01*
X97285057Y-32971019D01*
X97261501Y-32984739D01*
X97261498Y-32984740D01*
X97255137Y-32988443D01*
X97255005Y-32988462D01*
X97224194Y-33006463D01*
X97223297Y-33006986D01*
X97223283Y-33006987D01*
X97217617Y-33009972D01*
X97178794Y-33028277D01*
X97166568Y-33032774D01*
X97128299Y-33043132D01*
X97115472Y-33045415D01*
X97072454Y-33049212D01*
X97065941Y-33049499D01*
X97022561Y-33049495D01*
X97022509Y-33049500D01*
X95527759Y-33049500D01*
X95520421Y-33049499D01*
X95520410Y-33049495D01*
X95488401Y-33049498D01*
X95483776Y-33049498D01*
X95483774Y-33049497D01*
X95477273Y-33049211D01*
X95434524Y-33045438D01*
X95421696Y-33043155D01*
X95383417Y-33032794D01*
X95371194Y-33028297D01*
X95332608Y-33010103D01*
X95326840Y-33007066D01*
X95299527Y-32991109D01*
X95294995Y-32988461D01*
X95294994Y-32988460D01*
X95289312Y-32985141D01*
X95288334Y-32984691D01*
X95267979Y-32972836D01*
X95264930Y-32971060D01*
X95264928Y-32971059D01*
X95264926Y-32971058D01*
X95123054Y-32924592D01*
X94974570Y-32909070D01*
X94974565Y-32909071D01*
X94826148Y-32925195D01*
X94684466Y-32972238D01*
X94684463Y-32972239D01*
X94684462Y-32972240D01*
X94656994Y-32988443D01*
X94555876Y-33048089D01*
X94446161Y-33149339D01*
X94360254Y-33271436D01*
X94360251Y-33271443D01*
X94302013Y-33408896D01*
X94302009Y-33408908D01*
X94274049Y-33555549D01*
X94274049Y-33555552D01*
X94277625Y-33704803D01*
X94277626Y-33704805D01*
X94312578Y-33849943D01*
X94312580Y-33849947D01*
X94324356Y-33874500D01*
X94324366Y-33874519D01*
X94324368Y-33874525D01*
X94327547Y-33881154D01*
X94327555Y-33881292D01*
X94343435Y-33914288D01*
X94343694Y-33914828D01*
X94343694Y-33914838D01*
X94345860Y-33919805D01*
X94359164Y-33953726D01*
X94362421Y-33964291D01*
X94369905Y-33997107D01*
X94371551Y-34008040D01*
X94374294Y-34044706D01*
X94374500Y-34050235D01*
X94374495Y-34094306D01*
X94374501Y-34094367D01*
X94374501Y-35450057D01*
X94374294Y-35455585D01*
X94373987Y-35459687D01*
X94371568Y-35491952D01*
X94369923Y-35502873D01*
X94362432Y-35535721D01*
X94359177Y-35546283D01*
X94346138Y-35579535D01*
X94343967Y-35584523D01*
X94343673Y-35585136D01*
X94330577Y-35612439D01*
X94327546Y-35618740D01*
X94327544Y-35618761D01*
X94318875Y-35636835D01*
X94312541Y-35650040D01*
X94277587Y-35795186D01*
X94277586Y-35795190D01*
X94274827Y-35910310D01*
X94274009Y-35944448D01*
X93811962Y-35944448D01*
X93752836Y-35910312D01*
X93752831Y-35910310D01*
X93619185Y-35874500D01*
X93619183Y-35874500D01*
X93480817Y-35874500D01*
X93480815Y-35874500D01*
X93347168Y-35910310D01*
X93347163Y-35910312D01*
X93227334Y-35979495D01*
X93129495Y-36077334D01*
X93060312Y-36197163D01*
X93060310Y-36197168D01*
X93024500Y-36330814D01*
X89285578Y-36330814D01*
X92655577Y-32960814D01*
X93024500Y-32960814D01*
X93024500Y-33099185D01*
X93060310Y-33232831D01*
X93060312Y-33232836D01*
X93129495Y-33352665D01*
X93227335Y-33450505D01*
X93347164Y-33519688D01*
X93480814Y-33555499D01*
X93480815Y-33555500D01*
X93480817Y-33555500D01*
X93619185Y-33555500D01*
X93619185Y-33555499D01*
X93752836Y-33519688D01*
X93872665Y-33450505D01*
X93970505Y-33352665D01*
X94039688Y-33232836D01*
X94075499Y-33099185D01*
X94075500Y-33099185D01*
X94075500Y-32960815D01*
X94075499Y-32960814D01*
X94066528Y-32927335D01*
X94039688Y-32827164D01*
X93970505Y-32707335D01*
X93872665Y-32609495D01*
X93752836Y-32540312D01*
X93752831Y-32540310D01*
X93619185Y-32504500D01*
X93619183Y-32504500D01*
X93480817Y-32504500D01*
X93480815Y-32504500D01*
X93347168Y-32540310D01*
X93347163Y-32540312D01*
X93227334Y-32609495D01*
X93129495Y-32707334D01*
X93060312Y-32827163D01*
X93060310Y-32827168D01*
X93024500Y-32960814D01*
X92655577Y-32960814D01*
X92735910Y-32880481D01*
X92735913Y-32880480D01*
X92810480Y-32805913D01*
X92863207Y-32714587D01*
X92890500Y-32612728D01*
X92890501Y-32612728D01*
X92890501Y-32502744D01*
X92890500Y-32502726D01*
X92890500Y-32037274D01*
X92866897Y-31949182D01*
X92866897Y-31949181D01*
X92863207Y-31935413D01*
X92863206Y-31935410D01*
X92810482Y-31844090D01*
X92810481Y-31844089D01*
X92810480Y-31844087D01*
X92345913Y-31379520D01*
X92345910Y-31379518D01*
X92345909Y-31379517D01*
X92254592Y-31326795D01*
X92254588Y-31326793D01*
X92152727Y-31299500D01*
X92152726Y-31299500D01*
X90496545Y-31299500D01*
X90444219Y-31277826D01*
X89322174Y-30155781D01*
X89300500Y-30103455D01*
X89300500Y-29611421D01*
X90094501Y-29611421D01*
X90094501Y-29788579D01*
X90109631Y-29884107D01*
X90122215Y-29963554D01*
X90122217Y-29963565D01*
X90176957Y-30132039D01*
X90176959Y-30132043D01*
X90257385Y-30289886D01*
X90257388Y-30289892D01*
X90361514Y-30433209D01*
X90361518Y-30433214D01*
X90486787Y-30558483D01*
X90630111Y-30662614D01*
X90782464Y-30740242D01*
X90787957Y-30743041D01*
X90787961Y-30743043D01*
X90956435Y-30797783D01*
X90956439Y-30797783D01*
X90956446Y-30797786D01*
X91107496Y-30821710D01*
X91131421Y-30825500D01*
X91131422Y-30825500D01*
X91308581Y-30825500D01*
X91329627Y-30822166D01*
X91483556Y-30797786D01*
X91483564Y-30797783D01*
X91483566Y-30797783D01*
X91652040Y-30743043D01*
X91652040Y-30743042D01*
X91652043Y-30743042D01*
X91809891Y-30662614D01*
X91953215Y-30558483D01*
X92078484Y-30433214D01*
X92182615Y-30289890D01*
X92263043Y-30132042D01*
X92304586Y-30004185D01*
X92317784Y-29963565D01*
X92317784Y-29963563D01*
X92317787Y-29963555D01*
X92345501Y-29788579D01*
X92345501Y-29611421D01*
X92343943Y-29601582D01*
X92337618Y-29561647D01*
X92336168Y-29552494D01*
X94049500Y-29552494D01*
X94049500Y-29847506D01*
X94054319Y-29884107D01*
X94088006Y-30139991D01*
X94164361Y-30424953D01*
X94277253Y-30697498D01*
X94277256Y-30697506D01*
X94370428Y-30858884D01*
X94424762Y-30952994D01*
X94604354Y-31187042D01*
X94812958Y-31395646D01*
X95047006Y-31575238D01*
X95302493Y-31722743D01*
X95575048Y-31835639D01*
X95860007Y-31911993D01*
X96152494Y-31950500D01*
X96152496Y-31950500D01*
X96447504Y-31950500D01*
X96447506Y-31950500D01*
X96739993Y-31911993D01*
X97024952Y-31835639D01*
X97297507Y-31722743D01*
X97552994Y-31575238D01*
X97787042Y-31395646D01*
X97995646Y-31187042D01*
X98175238Y-30952994D01*
X98322743Y-30697507D01*
X98435639Y-30424952D01*
X98511993Y-30139993D01*
X98550500Y-29847506D01*
X98550500Y-29611421D01*
X100254499Y-29611421D01*
X100254499Y-29788579D01*
X100269629Y-29884107D01*
X100282213Y-29963554D01*
X100282215Y-29963565D01*
X100336955Y-30132039D01*
X100336957Y-30132043D01*
X100417383Y-30289886D01*
X100417386Y-30289892D01*
X100521512Y-30433209D01*
X100521516Y-30433214D01*
X100646785Y-30558483D01*
X100790109Y-30662614D01*
X100942462Y-30740242D01*
X100947955Y-30743041D01*
X100947959Y-30743043D01*
X101116433Y-30797783D01*
X101116437Y-30797783D01*
X101116444Y-30797786D01*
X101267494Y-30821710D01*
X101291419Y-30825500D01*
X101291420Y-30825500D01*
X101468579Y-30825500D01*
X101489625Y-30822166D01*
X101643554Y-30797786D01*
X101643562Y-30797783D01*
X101643564Y-30797783D01*
X101812038Y-30743043D01*
X101812038Y-30743042D01*
X101812041Y-30743042D01*
X101969889Y-30662614D01*
X102113213Y-30558483D01*
X102238482Y-30433214D01*
X102342613Y-30289890D01*
X102423041Y-30132042D01*
X102464584Y-30004185D01*
X102477782Y-29963565D01*
X102477782Y-29963563D01*
X102477785Y-29963555D01*
X102505499Y-29788579D01*
X102505499Y-29611421D01*
X102477785Y-29436445D01*
X102477782Y-29436438D01*
X102477782Y-29436434D01*
X102423042Y-29267960D01*
X102423040Y-29267956D01*
X102399359Y-29221480D01*
X102342613Y-29110110D01*
X102297431Y-29047923D01*
X102238485Y-28966790D01*
X102238484Y-28966789D01*
X102238482Y-28966786D01*
X102113213Y-28841517D01*
X102113210Y-28841514D01*
X102113208Y-28841513D01*
X101969891Y-28737387D01*
X101969885Y-28737384D01*
X101812042Y-28656958D01*
X101812038Y-28656956D01*
X101643564Y-28602216D01*
X101643555Y-28602214D01*
X101643554Y-28602214D01*
X101506902Y-28580570D01*
X101468579Y-28574500D01*
X101468578Y-28574500D01*
X101291420Y-28574500D01*
X101291419Y-28574500D01*
X101116444Y-28602214D01*
X101116433Y-28602216D01*
X100947959Y-28656956D01*
X100947955Y-28656958D01*
X100790112Y-28737384D01*
X100790106Y-28737387D01*
X100646789Y-28841513D01*
X100521512Y-28966790D01*
X100417386Y-29110107D01*
X100417383Y-29110113D01*
X100336957Y-29267956D01*
X100336955Y-29267960D01*
X100282215Y-29436434D01*
X100282213Y-29436445D01*
X100260189Y-29575499D01*
X100254499Y-29611421D01*
X98550500Y-29611421D01*
X98550500Y-29552494D01*
X98511993Y-29260007D01*
X98435639Y-28975048D01*
X98322743Y-28702493D01*
X98175238Y-28447006D01*
X97995646Y-28212958D01*
X97787042Y-28004354D01*
X97552994Y-27824762D01*
X97549658Y-27822836D01*
X97297506Y-27677256D01*
X97297498Y-27677253D01*
X97024953Y-27564361D01*
X96739991Y-27488006D01*
X96524518Y-27459638D01*
X96447506Y-27449500D01*
X96152494Y-27449500D01*
X96084441Y-27458459D01*
X95860008Y-27488006D01*
X95575046Y-27564361D01*
X95302501Y-27677253D01*
X95302493Y-27677256D01*
X95047010Y-27824759D01*
X95047006Y-27824761D01*
X95047006Y-27824762D01*
X94814937Y-28002836D01*
X94812953Y-28004358D01*
X94604358Y-28212953D01*
X94604354Y-28212957D01*
X94604354Y-28212958D01*
X94484478Y-28369183D01*
X94424759Y-28447010D01*
X94277256Y-28702493D01*
X94277253Y-28702501D01*
X94164361Y-28975046D01*
X94088006Y-29260008D01*
X94055467Y-29507171D01*
X94049500Y-29552494D01*
X92336168Y-29552494D01*
X92328989Y-29507171D01*
X92317787Y-29436445D01*
X92317784Y-29436438D01*
X92317784Y-29436434D01*
X92292094Y-29357367D01*
X92296538Y-29300904D01*
X92339605Y-29264122D01*
X92362472Y-29260500D01*
X92627672Y-29260500D01*
X92627674Y-29260500D01*
X92900666Y-29224560D01*
X93166632Y-29153295D01*
X93421021Y-29047923D01*
X93659479Y-28910249D01*
X93844641Y-28768170D01*
X93877922Y-28742633D01*
X93877923Y-28742631D01*
X93877928Y-28742628D01*
X94072628Y-28547928D01*
X94077858Y-28541113D01*
X94162490Y-28430817D01*
X94240249Y-28329479D01*
X94377923Y-28091021D01*
X94483295Y-27836632D01*
X94554560Y-27570666D01*
X94590500Y-27297674D01*
X94590500Y-27022326D01*
X94554560Y-26749334D01*
X94483295Y-26483368D01*
X94377923Y-26228979D01*
X94316259Y-26122174D01*
X94240251Y-25990524D01*
X94240247Y-25990518D01*
X94072633Y-25772077D01*
X93877922Y-25577366D01*
X93659481Y-25409752D01*
X93659475Y-25409748D01*
X93421020Y-25272076D01*
X93421017Y-25272075D01*
X93166631Y-25166704D01*
X92900664Y-25095439D01*
X92699552Y-25068962D01*
X92627674Y-25059500D01*
X92352326Y-25059500D01*
X92288810Y-25067862D01*
X92079335Y-25095439D01*
X91813368Y-25166704D01*
X91558982Y-25272075D01*
X91558979Y-25272076D01*
X91320524Y-25409748D01*
X91320518Y-25409752D01*
X91102077Y-25577366D01*
X90907366Y-25772077D01*
X90739752Y-25990518D01*
X90739748Y-25990524D01*
X90602076Y-26228979D01*
X90602075Y-26228982D01*
X90496704Y-26483368D01*
X90425439Y-26749335D01*
X90408130Y-26880814D01*
X90389500Y-27022326D01*
X90389500Y-27297674D01*
X90393994Y-27331808D01*
X90425439Y-27570664D01*
X90496704Y-27836631D01*
X90602075Y-28091017D01*
X90602076Y-28091020D01*
X90739748Y-28329475D01*
X90739752Y-28329481D01*
X90886765Y-28521073D01*
X90901424Y-28575780D01*
X90873105Y-28624829D01*
X90850924Y-28636499D01*
X90787962Y-28656956D01*
X90787957Y-28656958D01*
X90630114Y-28737384D01*
X90630108Y-28737387D01*
X90486791Y-28841513D01*
X90361514Y-28966790D01*
X90257388Y-29110107D01*
X90257385Y-29110113D01*
X90176959Y-29267956D01*
X90176957Y-29267960D01*
X90122217Y-29436434D01*
X90122215Y-29436445D01*
X90100191Y-29575499D01*
X90094501Y-29611421D01*
X89300500Y-29611421D01*
X89300500Y-29573322D01*
X89319324Y-29527874D01*
X89317552Y-29526514D01*
X89320503Y-29522667D01*
X89320505Y-29522665D01*
X89389688Y-29402836D01*
X89425499Y-29269185D01*
X89425500Y-29269185D01*
X89425500Y-29130815D01*
X89425499Y-29130814D01*
X89419951Y-29110110D01*
X89389688Y-28997164D01*
X89320505Y-28877335D01*
X89222665Y-28779495D01*
X89102836Y-28710312D01*
X89102831Y-28710310D01*
X88969185Y-28674500D01*
X88969183Y-28674500D01*
X88830817Y-28674500D01*
X88830815Y-28674500D01*
X88697168Y-28710310D01*
X88697163Y-28710312D01*
X88577334Y-28779495D01*
X88479495Y-28877334D01*
X88410312Y-28997163D01*
X88410310Y-28997168D01*
X88374500Y-29130814D01*
X88374500Y-29269185D01*
X88410310Y-29402831D01*
X88410312Y-29402836D01*
X88479496Y-29522667D01*
X88482448Y-29526514D01*
X88480675Y-29527874D01*
X88499500Y-29573322D01*
X88499500Y-30247273D01*
X88499500Y-30352727D01*
X88519491Y-30427335D01*
X88526793Y-30454588D01*
X88526795Y-30454592D01*
X88579517Y-30545909D01*
X88579518Y-30545910D01*
X88579520Y-30545913D01*
X90054087Y-32020480D01*
X90145412Y-32073207D01*
X90247273Y-32100500D01*
X91377678Y-32100500D01*
X91430004Y-32122174D01*
X91451678Y-32174500D01*
X91431643Y-32222868D01*
X91432448Y-32223486D01*
X91430143Y-32226489D01*
X91430004Y-32226826D01*
X91429495Y-32227334D01*
X91360312Y-32347163D01*
X91360310Y-32347168D01*
X91324500Y-32480814D01*
X91323867Y-32485624D01*
X91321651Y-32485332D01*
X91302826Y-32530781D01*
X88705781Y-35127826D01*
X88653455Y-35149500D01*
X86560046Y-35149500D01*
X86507720Y-35127826D01*
X86486046Y-35075500D01*
X86507720Y-35023174D01*
X86512467Y-35018823D01*
X86624673Y-34924673D01*
X86731578Y-34797267D01*
X86814736Y-34653233D01*
X86871620Y-34496947D01*
X86900500Y-34333158D01*
X86900500Y-34250000D01*
X86900500Y-34210118D01*
X86900500Y-24482326D01*
X96739500Y-24482326D01*
X96739500Y-24757674D01*
X96747858Y-24821158D01*
X96775439Y-25030664D01*
X96846704Y-25296631D01*
X96952075Y-25551017D01*
X96952076Y-25551020D01*
X97089748Y-25789475D01*
X97089752Y-25789481D01*
X97257366Y-26007922D01*
X97452077Y-26202633D01*
X97670518Y-26370247D01*
X97670524Y-26370251D01*
X97887460Y-26495499D01*
X97908979Y-26507923D01*
X98163368Y-26613295D01*
X98429334Y-26684560D01*
X98702326Y-26720500D01*
X98702328Y-26720500D01*
X98977672Y-26720500D01*
X98977674Y-26720500D01*
X99250666Y-26684560D01*
X99516632Y-26613295D01*
X99771021Y-26507923D01*
X100009479Y-26370249D01*
X100193587Y-26228979D01*
X100227922Y-26202633D01*
X100227923Y-26202631D01*
X100227928Y-26202628D01*
X100422628Y-26007928D01*
X100435983Y-25990524D01*
X100590247Y-25789481D01*
X100590249Y-25789479D01*
X100727923Y-25551021D01*
X100833295Y-25296632D01*
X100904560Y-25030666D01*
X100940500Y-24757674D01*
X100940500Y-24482326D01*
X100904560Y-24209334D01*
X100833295Y-23943368D01*
X100727923Y-23688979D01*
X100590249Y-23450521D01*
X100571050Y-23425500D01*
X100422633Y-23232077D01*
X100227922Y-23037366D01*
X100009481Y-22869752D01*
X100009475Y-22869748D01*
X99771020Y-22732076D01*
X99771017Y-22732075D01*
X99516631Y-22626704D01*
X99250664Y-22555439D01*
X99041281Y-22527874D01*
X98977674Y-22519500D01*
X98702326Y-22519500D01*
X98638810Y-22527862D01*
X98429335Y-22555439D01*
X98163368Y-22626704D01*
X97908982Y-22732075D01*
X97908979Y-22732076D01*
X97670524Y-22869748D01*
X97670518Y-22869752D01*
X97452077Y-23037366D01*
X97257366Y-23232077D01*
X97089752Y-23450518D01*
X97089751Y-23450521D01*
X96952076Y-23688979D01*
X96952075Y-23688982D01*
X96846704Y-23943368D01*
X96775439Y-24209335D01*
X96751693Y-24389710D01*
X96739500Y-24482326D01*
X86900500Y-24482326D01*
X86900500Y-22710118D01*
X86900500Y-22666842D01*
X86871620Y-22503053D01*
X86814736Y-22346767D01*
X86731578Y-22202733D01*
X86624673Y-22075327D01*
X86497267Y-21968422D01*
X86353233Y-21885264D01*
X86331446Y-21877334D01*
X86196946Y-21828379D01*
X86033161Y-21799500D01*
X86033158Y-21799500D01*
X85989882Y-21799500D01*
X85950000Y-21799500D01*
X85866842Y-21799500D01*
X85866838Y-21799500D01*
X85703053Y-21828379D01*
X85546769Y-21885263D01*
X85546767Y-21885263D01*
X85546767Y-21885264D01*
X85402733Y-21968422D01*
X85275327Y-22075327D01*
X85168422Y-22202733D01*
X85124104Y-22279495D01*
X85085263Y-22346769D01*
X85028379Y-22503053D01*
X84999500Y-22666838D01*
X84999500Y-34333161D01*
X85028379Y-34496946D01*
X85074138Y-34622665D01*
X85085264Y-34653233D01*
X85151042Y-34767164D01*
X85167090Y-34794960D01*
X85174482Y-34851113D01*
X85140004Y-34896046D01*
X85083851Y-34903438D01*
X85050680Y-34884287D01*
X84795913Y-34629520D01*
X84795910Y-34629518D01*
X84795909Y-34629517D01*
X84704592Y-34576795D01*
X84704588Y-34576793D01*
X84602727Y-34549500D01*
X84602726Y-34549500D01*
X78496545Y-34549500D01*
X78444219Y-34527826D01*
X78297174Y-34380781D01*
X78278348Y-34335332D01*
X78276133Y-34335624D01*
X78275500Y-34330821D01*
X78275500Y-34330817D01*
X78239688Y-34197164D01*
X78170505Y-34077335D01*
X78072665Y-33979495D01*
X77952836Y-33910312D01*
X77952831Y-33910310D01*
X77819185Y-33874500D01*
X77819183Y-33874500D01*
X77680817Y-33874500D01*
X77680815Y-33874500D01*
X77547168Y-33910310D01*
X77547163Y-33910312D01*
X77427334Y-33979495D01*
X77329495Y-34077334D01*
X77260312Y-34197163D01*
X77260310Y-34197168D01*
X77224500Y-34330814D01*
X77224500Y-34392089D01*
X77202826Y-34444415D01*
X77169654Y-34463567D01*
X77107167Y-34480311D01*
X77107163Y-34480312D01*
X76987334Y-34549495D01*
X76889495Y-34647334D01*
X76820312Y-34767163D01*
X76820310Y-34767168D01*
X76784500Y-34900814D01*
X76784500Y-35039185D01*
X76820310Y-35172831D01*
X76820312Y-35172836D01*
X76889495Y-35292665D01*
X76987335Y-35390505D01*
X77107164Y-35459688D01*
X77240814Y-35495499D01*
X77240815Y-35495500D01*
X77240817Y-35495500D01*
X77379185Y-35495500D01*
X77379185Y-35495499D01*
X77512836Y-35459688D01*
X77632665Y-35390505D01*
X77730505Y-35292665D01*
X77799688Y-35172836D01*
X77799689Y-35172829D01*
X77801543Y-35168356D01*
X77802811Y-35168881D01*
X77834117Y-35128080D01*
X77890269Y-35120685D01*
X77923445Y-35139838D01*
X77979519Y-35195912D01*
X77979520Y-35195913D01*
X78054087Y-35270480D01*
X78145413Y-35323207D01*
X78247270Y-35350499D01*
X78247271Y-35350500D01*
X78247273Y-35350500D01*
X84353455Y-35350500D01*
X84405781Y-35372174D01*
X84904087Y-35870480D01*
X84904089Y-35870481D01*
X84904090Y-35870482D01*
X84954345Y-35899497D01*
X84995412Y-35923207D01*
X85097273Y-35950500D01*
X85213877Y-35950500D01*
X85266203Y-35972174D01*
X85287877Y-36024500D01*
X85285356Y-36043650D01*
X85262000Y-36130818D01*
X85262000Y-36130819D01*
X85262000Y-36269186D01*
X85297810Y-36402832D01*
X85297812Y-36402837D01*
X85366995Y-36522666D01*
X85467003Y-36622674D01*
X85488677Y-36675000D01*
X85467003Y-36727326D01*
X85366995Y-36827334D01*
X85297812Y-36947163D01*
X85297810Y-36947168D01*
X85262000Y-37080814D01*
X85262000Y-37219185D01*
X85297810Y-37352831D01*
X85297812Y-37352836D01*
X85366995Y-37472665D01*
X85464835Y-37570505D01*
X85584664Y-37639688D01*
X85718314Y-37675499D01*
X85718315Y-37675500D01*
X85718317Y-37675500D01*
X85856685Y-37675500D01*
X85856685Y-37675499D01*
X85990336Y-37639688D01*
X86110165Y-37570505D01*
X86208005Y-37472665D01*
X86277188Y-37352836D01*
X86312999Y-37219185D01*
X86313000Y-37219185D01*
X86313000Y-37080815D01*
X86312999Y-37080814D01*
X86310320Y-37070817D01*
X86277188Y-36947164D01*
X86208005Y-36827335D01*
X86110165Y-36729495D01*
X86107996Y-36727326D01*
X86086322Y-36675000D01*
X86107996Y-36622674D01*
X86110162Y-36620507D01*
X86110165Y-36620506D01*
X86208005Y-36522666D01*
X86277188Y-36402837D01*
X86312999Y-36269186D01*
X86313000Y-36269186D01*
X86313000Y-36130819D01*
X86313000Y-36130818D01*
X86289644Y-36043652D01*
X86297037Y-35987500D01*
X86341970Y-35953021D01*
X86361123Y-35950500D01*
X88354455Y-35950500D01*
X88406781Y-35972174D01*
X88428455Y-36024500D01*
X88406781Y-36076826D01*
X86555781Y-37927826D01*
X86503455Y-37949500D01*
X65023322Y-37949500D01*
X64977874Y-37930675D01*
X64976514Y-37932448D01*
X64972667Y-37929496D01*
X64852836Y-37860312D01*
X64852831Y-37860310D01*
X64719185Y-37824500D01*
X64719183Y-37824500D01*
X64580817Y-37824500D01*
X64580815Y-37824500D01*
X64447168Y-37860310D01*
X64447163Y-37860312D01*
X64327334Y-37929495D01*
X64229495Y-38027334D01*
X64160312Y-38147163D01*
X64160310Y-38147168D01*
X64124500Y-38280814D01*
X63285579Y-38280814D01*
X64495578Y-37070814D01*
X82974500Y-37070814D01*
X82974500Y-37209185D01*
X83010310Y-37342831D01*
X83010312Y-37342836D01*
X83079495Y-37462665D01*
X83177335Y-37560505D01*
X83297164Y-37629688D01*
X83430814Y-37665499D01*
X83430815Y-37665500D01*
X83430817Y-37665500D01*
X83569185Y-37665500D01*
X83569185Y-37665499D01*
X83702836Y-37629688D01*
X83822665Y-37560505D01*
X83920505Y-37462665D01*
X83989688Y-37342836D01*
X84025499Y-37209185D01*
X84025500Y-37209185D01*
X84025500Y-37070815D01*
X84025499Y-37070814D01*
X84005722Y-36997006D01*
X83989688Y-36937164D01*
X83920505Y-36817335D01*
X83822665Y-36719495D01*
X83702836Y-36650312D01*
X83702831Y-36650310D01*
X83569185Y-36614500D01*
X83569183Y-36614500D01*
X83430817Y-36614500D01*
X83430815Y-36614500D01*
X83297168Y-36650310D01*
X83297163Y-36650312D01*
X83177334Y-36719495D01*
X83079495Y-36817334D01*
X83010312Y-36937163D01*
X83010310Y-36937168D01*
X82974500Y-37070814D01*
X64495578Y-37070814D01*
X65285579Y-36280813D01*
X81324500Y-36280813D01*
X81324500Y-36419184D01*
X81360310Y-36552830D01*
X81360312Y-36552835D01*
X81429495Y-36672664D01*
X81527335Y-36770504D01*
X81647164Y-36839687D01*
X81780814Y-36875498D01*
X81780815Y-36875499D01*
X81780817Y-36875499D01*
X81919185Y-36875499D01*
X81919185Y-36875498D01*
X82052836Y-36839687D01*
X82172665Y-36770504D01*
X82270505Y-36672664D01*
X82339688Y-36552835D01*
X82375499Y-36419184D01*
X82375500Y-36419184D01*
X82375500Y-36280814D01*
X82375499Y-36280813D01*
X82359784Y-36222165D01*
X82339688Y-36147163D01*
X82270505Y-36027334D01*
X82172665Y-35929494D01*
X82052836Y-35860311D01*
X82052831Y-35860309D01*
X81919185Y-35824499D01*
X81919183Y-35824499D01*
X81780817Y-35824499D01*
X81780815Y-35824499D01*
X81647168Y-35860309D01*
X81647163Y-35860311D01*
X81527334Y-35929494D01*
X81429495Y-36027333D01*
X81360312Y-36147162D01*
X81360310Y-36147167D01*
X81324500Y-36280813D01*
X65285579Y-36280813D01*
X66985578Y-34580814D01*
X69194500Y-34580814D01*
X69194500Y-34719185D01*
X69230310Y-34852831D01*
X69230312Y-34852836D01*
X69299495Y-34972665D01*
X69397335Y-35070505D01*
X69517164Y-35139688D01*
X69650814Y-35175499D01*
X69650815Y-35175500D01*
X69650817Y-35175500D01*
X69789185Y-35175500D01*
X69789185Y-35175499D01*
X69922836Y-35139688D01*
X70042665Y-35070505D01*
X70140505Y-34972665D01*
X70209688Y-34852836D01*
X70245499Y-34719185D01*
X70245500Y-34719185D01*
X70245500Y-34580815D01*
X70245499Y-34580814D01*
X70209689Y-34447168D01*
X70209688Y-34447164D01*
X70140505Y-34327335D01*
X70042665Y-34229495D01*
X69922836Y-34160312D01*
X69922831Y-34160310D01*
X69789185Y-34124500D01*
X69789183Y-34124500D01*
X69650817Y-34124500D01*
X69650815Y-34124500D01*
X69517168Y-34160310D01*
X69517163Y-34160312D01*
X69397334Y-34229495D01*
X69299495Y-34327334D01*
X69230312Y-34447163D01*
X69230310Y-34447168D01*
X69194500Y-34580814D01*
X66985578Y-34580814D01*
X67935578Y-33630814D01*
X70724500Y-33630814D01*
X70724500Y-33769185D01*
X70760310Y-33902831D01*
X70760312Y-33902836D01*
X70829495Y-34022665D01*
X70927335Y-34120505D01*
X71047164Y-34189688D01*
X71180814Y-34225499D01*
X71180815Y-34225500D01*
X71180817Y-34225500D01*
X71319185Y-34225500D01*
X71319185Y-34225499D01*
X71452836Y-34189688D01*
X71572665Y-34120505D01*
X71670505Y-34022665D01*
X71739688Y-33902836D01*
X71775499Y-33769185D01*
X71775500Y-33769185D01*
X71775500Y-33630815D01*
X71775499Y-33630814D01*
X71772809Y-33620776D01*
X71739688Y-33497164D01*
X71670505Y-33377335D01*
X71572665Y-33279495D01*
X71452836Y-33210312D01*
X71452831Y-33210310D01*
X71319185Y-33174500D01*
X71319183Y-33174500D01*
X71180817Y-33174500D01*
X71180815Y-33174500D01*
X71047168Y-33210310D01*
X71047163Y-33210312D01*
X70927334Y-33279495D01*
X70829495Y-33377334D01*
X70760312Y-33497163D01*
X70760310Y-33497168D01*
X70724500Y-33630814D01*
X67935578Y-33630814D01*
X69305578Y-32260814D01*
X76964500Y-32260814D01*
X76964500Y-32399185D01*
X77000310Y-32532831D01*
X77000312Y-32532836D01*
X77069495Y-32652665D01*
X77167335Y-32750505D01*
X77287164Y-32819688D01*
X77420814Y-32855499D01*
X77420815Y-32855500D01*
X77420817Y-32855500D01*
X77559185Y-32855500D01*
X77559185Y-32855499D01*
X77692836Y-32819688D01*
X77812665Y-32750505D01*
X77910505Y-32652665D01*
X77979688Y-32532836D01*
X78015499Y-32399185D01*
X78015500Y-32399185D01*
X78015500Y-32260815D01*
X78015499Y-32260814D01*
X78006528Y-32227335D01*
X77979688Y-32127164D01*
X77910505Y-32007335D01*
X77812665Y-31909495D01*
X77692836Y-31840312D01*
X77692831Y-31840310D01*
X77559185Y-31804500D01*
X77559183Y-31804500D01*
X77420817Y-31804500D01*
X77420815Y-31804500D01*
X77287168Y-31840310D01*
X77287163Y-31840312D01*
X77167334Y-31909495D01*
X77069495Y-32007334D01*
X77000312Y-32127163D01*
X77000310Y-32127168D01*
X76964500Y-32260814D01*
X69305578Y-32260814D01*
X71925569Y-29640822D01*
X74599585Y-29640822D01*
X74599585Y-29779193D01*
X74635395Y-29912839D01*
X74635397Y-29912844D01*
X74704580Y-30032673D01*
X74802420Y-30130513D01*
X74922249Y-30199696D01*
X75055899Y-30235507D01*
X75055900Y-30235508D01*
X75055902Y-30235508D01*
X75194270Y-30235508D01*
X75194270Y-30235507D01*
X75327921Y-30199696D01*
X75384208Y-30167198D01*
X75440361Y-30159804D01*
X75458205Y-30167195D01*
X75497164Y-30189688D01*
X75497166Y-30189688D01*
X75497167Y-30189689D01*
X75534518Y-30199697D01*
X75630814Y-30225499D01*
X75630815Y-30225500D01*
X75630817Y-30225500D01*
X75769185Y-30225500D01*
X75769185Y-30225499D01*
X75902836Y-30189688D01*
X76022665Y-30120505D01*
X76120505Y-30022665D01*
X76189688Y-29902836D01*
X76199608Y-29865814D01*
X77274500Y-29865814D01*
X77274500Y-30004185D01*
X77310310Y-30137831D01*
X77310312Y-30137836D01*
X77379495Y-30257665D01*
X77477335Y-30355505D01*
X77597164Y-30424688D01*
X77730814Y-30460499D01*
X77730815Y-30460500D01*
X77730817Y-30460500D01*
X77869185Y-30460500D01*
X77869185Y-30460499D01*
X78002836Y-30424688D01*
X78122665Y-30355505D01*
X78220505Y-30257665D01*
X78289688Y-30137836D01*
X78325499Y-30004185D01*
X78325500Y-30004185D01*
X78325500Y-29865815D01*
X78325499Y-29865814D01*
X78322187Y-29853455D01*
X78289688Y-29732164D01*
X78220505Y-29612335D01*
X78122665Y-29514495D01*
X78002836Y-29445312D01*
X78002831Y-29445310D01*
X77869185Y-29409500D01*
X77869183Y-29409500D01*
X77730817Y-29409500D01*
X77730815Y-29409500D01*
X77597168Y-29445310D01*
X77597163Y-29445312D01*
X77477334Y-29514495D01*
X77379495Y-29612334D01*
X77310312Y-29732163D01*
X77310310Y-29732168D01*
X77274500Y-29865814D01*
X76199608Y-29865814D01*
X76225500Y-29769183D01*
X76225500Y-29762582D01*
X76227640Y-29753878D01*
X76239505Y-29737731D01*
X76247174Y-29719218D01*
X77504218Y-28462174D01*
X77556544Y-28440500D01*
X77870500Y-28440500D01*
X77922826Y-28462174D01*
X77944500Y-28514500D01*
X77944500Y-28569185D01*
X77980310Y-28702831D01*
X77980312Y-28702836D01*
X78049495Y-28822665D01*
X78147335Y-28920505D01*
X78267164Y-28989688D01*
X78400814Y-29025499D01*
X78400815Y-29025500D01*
X78400817Y-29025500D01*
X78539185Y-29025500D01*
X78539185Y-29025499D01*
X78672836Y-28989688D01*
X78792665Y-28920505D01*
X78890505Y-28822665D01*
X78959688Y-28702836D01*
X78995499Y-28569185D01*
X78995500Y-28569185D01*
X78995500Y-28430815D01*
X78995499Y-28430814D01*
X78988002Y-28402836D01*
X78959688Y-28297164D01*
X78909866Y-28210869D01*
X78902474Y-28154716D01*
X78918389Y-28127156D01*
X78917552Y-28126514D01*
X78920503Y-28122667D01*
X78920505Y-28122665D01*
X78989688Y-28002836D01*
X79025499Y-27869185D01*
X79025500Y-27869185D01*
X79025500Y-27730815D01*
X79025499Y-27730814D01*
X79017376Y-27700500D01*
X78989688Y-27597164D01*
X78920505Y-27477335D01*
X78822665Y-27379495D01*
X78702836Y-27310312D01*
X78702831Y-27310310D01*
X78569185Y-27274500D01*
X78569183Y-27274500D01*
X78430817Y-27274500D01*
X78430815Y-27274500D01*
X78297168Y-27310310D01*
X78297159Y-27310314D01*
X78265512Y-27328586D01*
X78228512Y-27338500D01*
X77410667Y-27338500D01*
X77358341Y-27316826D01*
X77336667Y-27264500D01*
X77346581Y-27227500D01*
X77359959Y-27204328D01*
X77389688Y-27152836D01*
X77425499Y-27019185D01*
X77425500Y-27019185D01*
X77425500Y-26880815D01*
X77425499Y-26880814D01*
X77423953Y-26875046D01*
X77389688Y-26747164D01*
X77320505Y-26627335D01*
X77320504Y-26627334D01*
X77320503Y-26627332D01*
X77317552Y-26623486D01*
X77319324Y-26622125D01*
X77300500Y-26576678D01*
X77300500Y-26246544D01*
X77322174Y-26194218D01*
X77394218Y-26122174D01*
X77446544Y-26100500D01*
X78126678Y-26100500D01*
X78172125Y-26119324D01*
X78173486Y-26117552D01*
X78177332Y-26120503D01*
X78177334Y-26120504D01*
X78177335Y-26120505D01*
X78297164Y-26189688D01*
X78430814Y-26225499D01*
X78430815Y-26225500D01*
X78430817Y-26225500D01*
X78569185Y-26225500D01*
X78569185Y-26225499D01*
X78702836Y-26189688D01*
X78822665Y-26120505D01*
X78920505Y-26022665D01*
X78989688Y-25902836D01*
X79025499Y-25769185D01*
X79025500Y-25769185D01*
X79025500Y-25630815D01*
X79025499Y-25630814D01*
X79011179Y-25577372D01*
X78989688Y-25497164D01*
X78920505Y-25377335D01*
X78822665Y-25279495D01*
X78702836Y-25210312D01*
X78702831Y-25210310D01*
X78569185Y-25174500D01*
X78569183Y-25174500D01*
X78430817Y-25174500D01*
X78430815Y-25174500D01*
X78297168Y-25210310D01*
X78297163Y-25210312D01*
X78177332Y-25279496D01*
X78173486Y-25282448D01*
X78172125Y-25280675D01*
X78126678Y-25299500D01*
X77307273Y-25299500D01*
X77307257Y-25299499D01*
X77302727Y-25299499D01*
X77197273Y-25299499D01*
X77197271Y-25299499D01*
X77095415Y-25326791D01*
X77095410Y-25326793D01*
X77049750Y-25353156D01*
X77004090Y-25379517D01*
X76933738Y-25449868D01*
X76579518Y-25804088D01*
X76526793Y-25895410D01*
X76526791Y-25895415D01*
X76507907Y-25965890D01*
X76507908Y-25965891D01*
X76499500Y-25997272D01*
X76499500Y-26576678D01*
X76480675Y-26622125D01*
X76482448Y-26623486D01*
X76479496Y-26627332D01*
X76410312Y-26747163D01*
X76410310Y-26747168D01*
X76374500Y-26880814D01*
X76374500Y-27019185D01*
X76410310Y-27152831D01*
X76410312Y-27152836D01*
X76479495Y-27272665D01*
X76577335Y-27370505D01*
X76697164Y-27439688D01*
X76787152Y-27463800D01*
X76832084Y-27498278D01*
X76839477Y-27554431D01*
X76820324Y-27587604D01*
X75581103Y-28826826D01*
X75528777Y-28848500D01*
X75460462Y-28848500D01*
X75422402Y-28858698D01*
X75358600Y-28875793D01*
X75358596Y-28875795D01*
X75267277Y-28928518D01*
X75008977Y-29186817D01*
X74975804Y-29205969D01*
X74922252Y-29220318D01*
X74922247Y-29220320D01*
X74802419Y-29289503D01*
X74704580Y-29387342D01*
X74635397Y-29507171D01*
X74635395Y-29507176D01*
X74599585Y-29640822D01*
X71925569Y-29640822D01*
X74645909Y-26920482D01*
X74645912Y-26920481D01*
X74720479Y-26845914D01*
X74773206Y-26754588D01*
X74786738Y-26704087D01*
X74800500Y-26652728D01*
X74800500Y-26547274D01*
X74800500Y-26542745D01*
X74800499Y-26542727D01*
X74800499Y-24930814D01*
X81374500Y-24930814D01*
X81374500Y-25069185D01*
X81410310Y-25202831D01*
X81410312Y-25202836D01*
X81479495Y-25322665D01*
X81577335Y-25420505D01*
X81697164Y-25489688D01*
X81830814Y-25525499D01*
X81830815Y-25525500D01*
X81830817Y-25525500D01*
X81969185Y-25525500D01*
X81969185Y-25525499D01*
X82102836Y-25489688D01*
X82222665Y-25420505D01*
X82320505Y-25322665D01*
X82389688Y-25202836D01*
X82425499Y-25069185D01*
X82425500Y-25069185D01*
X82425500Y-24930815D01*
X82425499Y-24930814D01*
X82422736Y-24920504D01*
X82389688Y-24797164D01*
X82320505Y-24677335D01*
X82222665Y-24579495D01*
X82102836Y-24510312D01*
X82102831Y-24510310D01*
X81969185Y-24474500D01*
X81969183Y-24474500D01*
X81830817Y-24474500D01*
X81830815Y-24474500D01*
X81697168Y-24510310D01*
X81697163Y-24510312D01*
X81577334Y-24579495D01*
X81479495Y-24677334D01*
X81410312Y-24797163D01*
X81410310Y-24797168D01*
X81374500Y-24930814D01*
X74800499Y-24930814D01*
X74800499Y-22674500D01*
X74822173Y-22622174D01*
X74874499Y-22600500D01*
X78126677Y-22600500D01*
X78172124Y-22619324D01*
X78173485Y-22617552D01*
X78177331Y-22620503D01*
X78177333Y-22620504D01*
X78177334Y-22620505D01*
X78297163Y-22689688D01*
X78430813Y-22725499D01*
X78430814Y-22725500D01*
X78430816Y-22725500D01*
X78569184Y-22725500D01*
X78569184Y-22725499D01*
X78702835Y-22689688D01*
X78822664Y-22620505D01*
X78920504Y-22522665D01*
X78989687Y-22402836D01*
X79025498Y-22269185D01*
X79025499Y-22269185D01*
X79025499Y-22130815D01*
X79025498Y-22130814D01*
X79020152Y-22110864D01*
X78989687Y-21997164D01*
X78920504Y-21877335D01*
X78822664Y-21779495D01*
X78702835Y-21710312D01*
X78702830Y-21710310D01*
X78569184Y-21674500D01*
X78569182Y-21674500D01*
X78430816Y-21674500D01*
X78430814Y-21674500D01*
X78297167Y-21710310D01*
X78297162Y-21710312D01*
X78177331Y-21779496D01*
X78173485Y-21782448D01*
X78172124Y-21780675D01*
X78126677Y-21799500D01*
X74773321Y-21799500D01*
X74727873Y-21780675D01*
X74726513Y-21782448D01*
X74722666Y-21779496D01*
X74602835Y-21710312D01*
X74602830Y-21710310D01*
X74469184Y-21674500D01*
X74469182Y-21674500D01*
X74330816Y-21674500D01*
X74330814Y-21674500D01*
X74197167Y-21710310D01*
X74197162Y-21710312D01*
X74077333Y-21779495D01*
X73979494Y-21877334D01*
X73910311Y-21997163D01*
X73910309Y-21997168D01*
X73874499Y-22130814D01*
X73874499Y-22269185D01*
X73910309Y-22402831D01*
X73910311Y-22402836D01*
X73979495Y-22522667D01*
X73982447Y-22526514D01*
X73980674Y-22527874D01*
X73999499Y-22573322D01*
X73999499Y-26403456D01*
X73977825Y-26455782D01*
X73239326Y-27194281D01*
X73187000Y-27215955D01*
X73134674Y-27194281D01*
X73113000Y-27141955D01*
X73113000Y-24673322D01*
X73131824Y-24627874D01*
X73130052Y-24626514D01*
X73133003Y-24622667D01*
X73133005Y-24622665D01*
X73202188Y-24502836D01*
X73237999Y-24369185D01*
X73238000Y-24369185D01*
X73238000Y-24230815D01*
X73237999Y-24230814D01*
X73227225Y-24190606D01*
X73202188Y-24097164D01*
X73133005Y-23977335D01*
X73035165Y-23879495D01*
X72915336Y-23810312D01*
X72915331Y-23810310D01*
X72874105Y-23799264D01*
X72829172Y-23764786D01*
X72821780Y-23708633D01*
X72840930Y-23675462D01*
X73032980Y-23483413D01*
X73051970Y-23450521D01*
X73085707Y-23392087D01*
X73112999Y-23290229D01*
X73113000Y-23290229D01*
X73113000Y-21448322D01*
X73131824Y-21402874D01*
X73130052Y-21401514D01*
X73133003Y-21397667D01*
X73133005Y-21397665D01*
X73202188Y-21277836D01*
X73237999Y-21144185D01*
X73238000Y-21144185D01*
X73238000Y-21005815D01*
X73237999Y-21005814D01*
X73231567Y-20981811D01*
X73202188Y-20872164D01*
X73133005Y-20752335D01*
X73035165Y-20654495D01*
X72915336Y-20585312D01*
X72915331Y-20585310D01*
X72781685Y-20549500D01*
X72781683Y-20549500D01*
X72643317Y-20549500D01*
X72643315Y-20549500D01*
X72509668Y-20585310D01*
X72509663Y-20585312D01*
X72389834Y-20654495D01*
X72291995Y-20752334D01*
X72222812Y-20872163D01*
X72222810Y-20872168D01*
X72187000Y-21005814D01*
X72187000Y-21144185D01*
X72222810Y-21277831D01*
X72222812Y-21277836D01*
X72291996Y-21397667D01*
X72294948Y-21401514D01*
X72293175Y-21402874D01*
X72312000Y-21448322D01*
X72312000Y-22977677D01*
X72290326Y-23030003D01*
X72238000Y-23051677D01*
X72185674Y-23030003D01*
X72085166Y-22929495D01*
X71965337Y-22860312D01*
X71965332Y-22860310D01*
X71831686Y-22824500D01*
X71831684Y-22824500D01*
X71693318Y-22824500D01*
X71693316Y-22824500D01*
X71559669Y-22860310D01*
X71559664Y-22860312D01*
X71439835Y-22929495D01*
X71339326Y-23030005D01*
X71287000Y-23051679D01*
X71234674Y-23030005D01*
X71213000Y-22977679D01*
X71213000Y-21423322D01*
X71231824Y-21377874D01*
X71230052Y-21376514D01*
X71233003Y-21372667D01*
X71233005Y-21372665D01*
X71302188Y-21252836D01*
X71337999Y-21119185D01*
X71338000Y-21119185D01*
X71338000Y-20980815D01*
X71337999Y-20980814D01*
X71325890Y-20935624D01*
X71302188Y-20847164D01*
X71233005Y-20727335D01*
X71135165Y-20629495D01*
X71015336Y-20560312D01*
X71015331Y-20560310D01*
X70881685Y-20524500D01*
X70881683Y-20524500D01*
X70743317Y-20524500D01*
X70743315Y-20524500D01*
X70609668Y-20560310D01*
X70609663Y-20560312D01*
X70489834Y-20629495D01*
X70391995Y-20727334D01*
X70322812Y-20847163D01*
X70322810Y-20847168D01*
X70287000Y-20980814D01*
X70287000Y-21119185D01*
X70322810Y-21252831D01*
X70322812Y-21252836D01*
X70391996Y-21372667D01*
X70394948Y-21376514D01*
X70393175Y-21377874D01*
X70412000Y-21423322D01*
X70412000Y-21716816D01*
X70390326Y-21769142D01*
X70338000Y-21790816D01*
X70301001Y-21780903D01*
X70297990Y-21779164D01*
X70265336Y-21760312D01*
X70265332Y-21760311D01*
X70265331Y-21760310D01*
X70131685Y-21724500D01*
X70131683Y-21724500D01*
X69993317Y-21724500D01*
X69993315Y-21724500D01*
X69859668Y-21760310D01*
X69855182Y-21762169D01*
X69854364Y-21760194D01*
X69805338Y-21766642D01*
X69760409Y-21732157D01*
X69750500Y-21695166D01*
X69750500Y-21221159D01*
X69746855Y-21202836D01*
X69719737Y-21066503D01*
X69701224Y-21021809D01*
X69659396Y-20920825D01*
X69659395Y-20920823D01*
X69659394Y-20920821D01*
X69571789Y-20789711D01*
X69460289Y-20678211D01*
X69458976Y-20677334D01*
X69427842Y-20656530D01*
X69329179Y-20590606D01*
X69329175Y-20590604D01*
X69329173Y-20590603D01*
X69329174Y-20590603D01*
X69183501Y-20530264D01*
X69183491Y-20530261D01*
X69079925Y-20509661D01*
X69028842Y-20499500D01*
X68871158Y-20499500D01*
X68827315Y-20508220D01*
X68716508Y-20530261D01*
X68716498Y-20530264D01*
X68570825Y-20590603D01*
X68485612Y-20647541D01*
X68430063Y-20658590D01*
X68382971Y-20627124D01*
X68370500Y-20586012D01*
X68370500Y-20274500D01*
X68392174Y-20222174D01*
X68444500Y-20200500D01*
X74794418Y-20200500D01*
X74846744Y-20222174D01*
X74868418Y-20274500D01*
X74855947Y-20315611D01*
X74854226Y-20318186D01*
X74854224Y-20318190D01*
X74801421Y-20445667D01*
X74801418Y-20445677D01*
X74784593Y-20530264D01*
X74774500Y-20581007D01*
X74774500Y-20718993D01*
X74780155Y-20747422D01*
X74801418Y-20854322D01*
X74801421Y-20854332D01*
X74854223Y-20981808D01*
X74912606Y-21069185D01*
X74930886Y-21096542D01*
X75028458Y-21194114D01*
X75143189Y-21270775D01*
X75143190Y-21270775D01*
X75143191Y-21270776D01*
X75253485Y-21316461D01*
X75270672Y-21323580D01*
X75406007Y-21350500D01*
X75406009Y-21350500D01*
X75543991Y-21350500D01*
X75543993Y-21350500D01*
X75679328Y-21323580D01*
X75806811Y-21270775D01*
X75921542Y-21194114D01*
X76019114Y-21096542D01*
X76095775Y-20981811D01*
X76148580Y-20854328D01*
X76175500Y-20718993D01*
X76175500Y-20581007D01*
X76148580Y-20445672D01*
X76095775Y-20318189D01*
X76095773Y-20318186D01*
X76094053Y-20315611D01*
X76083004Y-20260062D01*
X76114471Y-20212971D01*
X76155582Y-20200500D01*
X76744418Y-20200500D01*
X76796744Y-20222174D01*
X76818418Y-20274500D01*
X76805947Y-20315611D01*
X76804226Y-20318186D01*
X76804224Y-20318190D01*
X76751421Y-20445667D01*
X76751418Y-20445677D01*
X76734593Y-20530264D01*
X76724500Y-20581007D01*
X76724500Y-20718993D01*
X76730155Y-20747422D01*
X76751418Y-20854322D01*
X76751421Y-20854332D01*
X76804223Y-20981808D01*
X76862606Y-21069185D01*
X76880886Y-21096542D01*
X76978458Y-21194114D01*
X77093189Y-21270775D01*
X77093190Y-21270775D01*
X77093191Y-21270776D01*
X77203485Y-21316461D01*
X77220672Y-21323580D01*
X77356007Y-21350500D01*
X77356009Y-21350500D01*
X77493991Y-21350500D01*
X77493993Y-21350500D01*
X77629328Y-21323580D01*
X77756811Y-21270775D01*
X77871542Y-21194114D01*
X77969114Y-21096542D01*
X78045775Y-20981811D01*
X78098580Y-20854328D01*
X78125500Y-20718993D01*
X78125500Y-20581007D01*
X78098580Y-20445672D01*
X78045775Y-20318189D01*
X78045773Y-20318186D01*
X78044053Y-20315611D01*
X78033004Y-20260062D01*
X78064471Y-20212971D01*
X78105582Y-20200500D01*
X103932118Y-20200500D01*
X103984444Y-20222174D01*
X104006118Y-20274500D01*
X103996661Y-20310696D01*
X103956225Y-20382798D01*
X103956223Y-20382802D01*
X103884308Y-20587250D01*
X103877654Y-20627124D01*
X103848632Y-20801020D01*
X103848632Y-20801022D01*
X103848632Y-20801023D01*
X103850257Y-21017738D01*
X103889136Y-21230948D01*
X103964108Y-21434292D01*
X103964109Y-21434295D01*
X104072938Y-21621707D01*
X104072940Y-21621710D01*
X104212386Y-21787614D01*
X104378290Y-21927060D01*
X104380885Y-21928567D01*
X104565704Y-22035890D01*
X104565705Y-22035890D01*
X104565708Y-22035892D01*
X104769052Y-22110864D01*
X104982261Y-22149742D01*
X105198980Y-22151368D01*
X105412748Y-22115692D01*
X105617194Y-22043778D01*
X105689305Y-22003337D01*
X105745544Y-21996647D01*
X105790043Y-22031684D01*
X105799500Y-22067881D01*
X105799500Y-37332117D01*
X105777826Y-37384443D01*
X105725500Y-37406117D01*
X105689304Y-37396661D01*
X105624487Y-37360312D01*
X105617194Y-37356222D01*
X105617193Y-37356221D01*
X105617192Y-37356221D01*
X105617187Y-37356219D01*
X105412749Y-37284308D01*
X105353979Y-37274500D01*
X105198980Y-37248632D01*
X105198976Y-37248632D01*
X104982261Y-37250257D01*
X104769051Y-37289136D01*
X104565707Y-37364108D01*
X104565704Y-37364109D01*
X104378292Y-37472938D01*
X104212386Y-37612386D01*
X104072938Y-37778292D01*
X103964109Y-37965704D01*
X103964108Y-37965707D01*
X103889136Y-38169051D01*
X103850257Y-38382261D01*
X103848978Y-38552831D01*
X103848632Y-38598980D01*
X103873433Y-38747584D01*
X103884308Y-38812749D01*
X103956219Y-39017187D01*
X103956225Y-39017201D01*
X103996660Y-39089303D01*
X104003351Y-39145544D01*
X103968313Y-39190042D01*
X103932117Y-39199499D01*
X22067883Y-39199499D01*
X22015557Y-39177825D01*
X21993883Y-39125499D01*
X22003340Y-39089303D01*
X22043775Y-39017199D01*
X22043774Y-39017199D01*
X22043779Y-39017192D01*
X22050543Y-38997964D01*
X22115691Y-38812749D01*
X22115692Y-38812746D01*
X22151368Y-38598978D01*
X22149742Y-38382259D01*
X22147598Y-38370504D01*
X22129363Y-38270504D01*
X22110863Y-38169051D01*
X22035891Y-37965707D01*
X22023439Y-37944264D01*
X21927060Y-37778289D01*
X21927059Y-37778288D01*
X21900899Y-37747165D01*
X21787613Y-37612385D01*
X21621709Y-37472939D01*
X21490351Y-37396661D01*
X21434294Y-37364109D01*
X21434291Y-37364108D01*
X21230947Y-37289136D01*
X21017737Y-37250257D01*
X20801022Y-37248632D01*
X20801021Y-37248632D01*
X20801019Y-37248632D01*
X20672758Y-37270037D01*
X20587249Y-37284308D01*
X20382804Y-37356222D01*
X20310696Y-37396661D01*
X20254455Y-37403350D01*
X20209956Y-37368313D01*
X20200500Y-37332117D01*
X20200500Y-35944448D01*
X27674009Y-35944448D01*
X27694045Y-36049534D01*
X27701973Y-36091111D01*
X27701974Y-36091116D01*
X27760216Y-36228575D01*
X27760219Y-36228582D01*
X27808476Y-36297168D01*
X27846131Y-36350686D01*
X27955850Y-36451942D01*
X28084446Y-36527797D01*
X28226142Y-36574844D01*
X28374570Y-36590969D01*
X28374570Y-36590968D01*
X28374571Y-36590969D01*
X28424067Y-36585795D01*
X28523063Y-36575447D01*
X28664948Y-36528975D01*
X28690341Y-36514183D01*
X28694871Y-36511545D01*
X28695028Y-36511525D01*
X28726744Y-36492988D01*
X28726756Y-36492987D01*
X28732391Y-36490019D01*
X28771243Y-36471692D01*
X28783450Y-36467199D01*
X28821745Y-36456827D01*
X28834547Y-36454545D01*
X28869225Y-36451477D01*
X28877033Y-36450787D01*
X28883553Y-36450499D01*
X30429579Y-36450499D01*
X30429589Y-36450503D01*
X30466227Y-36450499D01*
X30472719Y-36450785D01*
X30515479Y-36454560D01*
X30528297Y-36456841D01*
X30566554Y-36467196D01*
X30566580Y-36467203D01*
X30578805Y-36471700D01*
X30617402Y-36489899D01*
X30623145Y-36492922D01*
X30655006Y-36511537D01*
X30660826Y-36514937D01*
X30661764Y-36515365D01*
X30685069Y-36528940D01*
X30826946Y-36575409D01*
X30947324Y-36587992D01*
X30975429Y-36590930D01*
X30975429Y-36590929D01*
X30975431Y-36590930D01*
X31123851Y-36574805D01*
X31265539Y-36527761D01*
X31394128Y-36451910D01*
X31503841Y-36350659D01*
X31517804Y-36330814D01*
X31874500Y-36330814D01*
X31874500Y-36469185D01*
X31910310Y-36602831D01*
X31910312Y-36602836D01*
X31979495Y-36722665D01*
X32077335Y-36820505D01*
X32197164Y-36889688D01*
X32330814Y-36925499D01*
X32330815Y-36925500D01*
X32330817Y-36925500D01*
X32469185Y-36925500D01*
X32469185Y-36925499D01*
X32602836Y-36889688D01*
X32722665Y-36820505D01*
X32820505Y-36722665D01*
X32830626Y-36705135D01*
X41474500Y-36705135D01*
X41474500Y-38494863D01*
X41477414Y-38519986D01*
X41477415Y-38519992D01*
X41522794Y-38622765D01*
X41602235Y-38702206D01*
X41705009Y-38747585D01*
X41730135Y-38750500D01*
X43519864Y-38750499D01*
X43544991Y-38747585D01*
X43647765Y-38702206D01*
X43727206Y-38622765D01*
X43772585Y-38519991D01*
X43775500Y-38494865D01*
X43775499Y-37509453D01*
X44014500Y-37509453D01*
X44014500Y-37690546D01*
X44042828Y-37869406D01*
X44042831Y-37869419D01*
X44098787Y-38041635D01*
X44098788Y-38041638D01*
X44098789Y-38041639D01*
X44178035Y-38197168D01*
X44181005Y-38202995D01*
X44181005Y-38202996D01*
X44193726Y-38220505D01*
X44287447Y-38349501D01*
X44415499Y-38477553D01*
X44562006Y-38583996D01*
X44723361Y-38666211D01*
X44723364Y-38666212D01*
X44723363Y-38666212D01*
X44895580Y-38722168D01*
X44895586Y-38722169D01*
X44895591Y-38722171D01*
X45014833Y-38741057D01*
X45074453Y-38750500D01*
X45074454Y-38750500D01*
X45255547Y-38750500D01*
X45300261Y-38743417D01*
X45434409Y-38722171D01*
X45434416Y-38722168D01*
X45434419Y-38722168D01*
X45582029Y-38674207D01*
X45606639Y-38666211D01*
X45767994Y-38583996D01*
X45914501Y-38477553D01*
X46042553Y-38349501D01*
X46148996Y-38202994D01*
X46231211Y-38041639D01*
X46267648Y-37929495D01*
X46287168Y-37869419D01*
X46287168Y-37869416D01*
X46287171Y-37869409D01*
X46315500Y-37690546D01*
X46315500Y-37509454D01*
X46309716Y-37472938D01*
X46295700Y-37384443D01*
X46287171Y-37330591D01*
X46287169Y-37330586D01*
X46287168Y-37330580D01*
X46231212Y-37158364D01*
X46231211Y-37158363D01*
X46231211Y-37158361D01*
X46148996Y-36997006D01*
X46143678Y-36989687D01*
X46105518Y-36937164D01*
X46042553Y-36850499D01*
X45914501Y-36722447D01*
X45815215Y-36650312D01*
X45767996Y-36616005D01*
X45687213Y-36574844D01*
X45606639Y-36533789D01*
X45606638Y-36533788D01*
X45606635Y-36533787D01*
X45606636Y-36533787D01*
X45434419Y-36477831D01*
X45434406Y-36477828D01*
X45255547Y-36449500D01*
X45255546Y-36449500D01*
X45074454Y-36449500D01*
X45074453Y-36449500D01*
X44895593Y-36477828D01*
X44895580Y-36477831D01*
X44723364Y-36533787D01*
X44562004Y-36616005D01*
X44562003Y-36616005D01*
X44419562Y-36719495D01*
X44415499Y-36722447D01*
X44287447Y-36850499D01*
X44287444Y-36850502D01*
X44287444Y-36850503D01*
X44181005Y-36997003D01*
X44181005Y-36997004D01*
X44098787Y-37158364D01*
X44042831Y-37330580D01*
X44042828Y-37330593D01*
X44014500Y-37509453D01*
X43775499Y-37509453D01*
X43775499Y-36705136D01*
X43772585Y-36680009D01*
X43727206Y-36577235D01*
X43647765Y-36497794D01*
X43544991Y-36452415D01*
X43544990Y-36452414D01*
X43544988Y-36452414D01*
X43523659Y-36449940D01*
X43519865Y-36449500D01*
X43519864Y-36449500D01*
X41730136Y-36449500D01*
X41705013Y-36452414D01*
X41705007Y-36452415D01*
X41602234Y-36497794D01*
X41522794Y-36577234D01*
X41477414Y-36680011D01*
X41474500Y-36705135D01*
X32830626Y-36705135D01*
X32889688Y-36602836D01*
X32925499Y-36469185D01*
X32925500Y-36469185D01*
X32925500Y-36330815D01*
X32925499Y-36330814D01*
X32912101Y-36280813D01*
X32889688Y-36197164D01*
X32820505Y-36077335D01*
X32722665Y-35979495D01*
X32602836Y-35910312D01*
X32602831Y-35910310D01*
X32469185Y-35874500D01*
X32469183Y-35874500D01*
X32330817Y-35874500D01*
X32330815Y-35874500D01*
X32197168Y-35910310D01*
X32197163Y-35910312D01*
X32077334Y-35979495D01*
X31979495Y-36077334D01*
X31910312Y-36197163D01*
X31910310Y-36197168D01*
X31874500Y-36330814D01*
X31517804Y-36330814D01*
X31589748Y-36228559D01*
X31619129Y-36159214D01*
X31647988Y-36091103D01*
X31647988Y-36091100D01*
X31647991Y-36091095D01*
X31675952Y-35944444D01*
X31672374Y-35795193D01*
X31637420Y-35650049D01*
X31622444Y-35618828D01*
X31622436Y-35618671D01*
X31606289Y-35585136D01*
X31606288Y-35585123D01*
X31604130Y-35580175D01*
X31590812Y-35546239D01*
X31587554Y-35535679D01*
X31580061Y-35502848D01*
X31578414Y-35491921D01*
X31575706Y-35455808D01*
X31575499Y-35450275D01*
X31575499Y-34049949D01*
X31575706Y-34044416D01*
X31577337Y-34022665D01*
X31578432Y-34008068D01*
X31580078Y-33997152D01*
X31587572Y-33964319D01*
X31590823Y-33953778D01*
X31599834Y-33930814D01*
X33574500Y-33930814D01*
X33574500Y-34069185D01*
X33610310Y-34202831D01*
X33610312Y-34202836D01*
X33679495Y-34322665D01*
X33777335Y-34420505D01*
X33897164Y-34489688D01*
X34030814Y-34525499D01*
X34030815Y-34525500D01*
X34030817Y-34525500D01*
X34169185Y-34525500D01*
X34169185Y-34525499D01*
X34302836Y-34489688D01*
X34422665Y-34420505D01*
X34520505Y-34322665D01*
X34589688Y-34202836D01*
X34625499Y-34069185D01*
X34625500Y-34069185D01*
X34625500Y-33930815D01*
X34625499Y-33930814D01*
X34622626Y-33920093D01*
X34589688Y-33797164D01*
X34551381Y-33730814D01*
X52974500Y-33730814D01*
X52974500Y-33869185D01*
X53010310Y-34002831D01*
X53010312Y-34002836D01*
X53079495Y-34122665D01*
X53177335Y-34220505D01*
X53297164Y-34289688D01*
X53430814Y-34325499D01*
X53430815Y-34325500D01*
X53430817Y-34325500D01*
X53569185Y-34325500D01*
X53569185Y-34325499D01*
X53702836Y-34289688D01*
X53822665Y-34220505D01*
X53920505Y-34122665D01*
X53989688Y-34002836D01*
X54025499Y-33869185D01*
X54025500Y-33869185D01*
X54025500Y-33730815D01*
X54025499Y-33730814D01*
X54018529Y-33704803D01*
X53989688Y-33597164D01*
X53920505Y-33477335D01*
X53822665Y-33379495D01*
X53702836Y-33310312D01*
X53702831Y-33310310D01*
X53569185Y-33274500D01*
X53569183Y-33274500D01*
X53430817Y-33274500D01*
X53430815Y-33274500D01*
X53297168Y-33310310D01*
X53297163Y-33310312D01*
X53177334Y-33379495D01*
X53079495Y-33477334D01*
X53010312Y-33597163D01*
X53010310Y-33597168D01*
X52974500Y-33730814D01*
X34551381Y-33730814D01*
X34520505Y-33677335D01*
X34422665Y-33579495D01*
X34302836Y-33510312D01*
X34302831Y-33510310D01*
X34169185Y-33474500D01*
X34169183Y-33474500D01*
X34030817Y-33474500D01*
X34030815Y-33474500D01*
X33897168Y-33510310D01*
X33897163Y-33510312D01*
X33777334Y-33579495D01*
X33679495Y-33677334D01*
X33610312Y-33797163D01*
X33610310Y-33797168D01*
X33574500Y-33930814D01*
X31599834Y-33930814D01*
X31604049Y-33920073D01*
X31606206Y-33915120D01*
X31616355Y-33893962D01*
X31616640Y-33893365D01*
X31616982Y-33892653D01*
X31617005Y-33892664D01*
X31617011Y-33892659D01*
X31617042Y-33892527D01*
X31617819Y-33890915D01*
X31622436Y-33881327D01*
X31622436Y-33881326D01*
X31625613Y-33874730D01*
X31625714Y-33874445D01*
X31637460Y-33849961D01*
X31672416Y-33704809D01*
X31675992Y-33555550D01*
X31648029Y-33408890D01*
X31648026Y-33408884D01*
X31648026Y-33408881D01*
X31597524Y-33289689D01*
X31589783Y-33271419D01*
X31589782Y-33271417D01*
X31589781Y-33271415D01*
X31527097Y-33182324D01*
X31503870Y-33149312D01*
X31394151Y-33048057D01*
X31392637Y-33047164D01*
X31297609Y-32991109D01*
X31265558Y-32972202D01*
X31265551Y-32972199D01*
X31141490Y-32931008D01*
X43199500Y-32931008D01*
X43199500Y-33068991D01*
X43226418Y-33204322D01*
X43226421Y-33204332D01*
X43279223Y-33331808D01*
X43343999Y-33428753D01*
X43355886Y-33446542D01*
X43453458Y-33544114D01*
X43568189Y-33620775D01*
X43568190Y-33620775D01*
X43568191Y-33620776D01*
X43688246Y-33670504D01*
X43695672Y-33673580D01*
X43831007Y-33700500D01*
X43831009Y-33700500D01*
X43968991Y-33700500D01*
X43968993Y-33700500D01*
X44104328Y-33673580D01*
X44124835Y-33665085D01*
X44142908Y-33657600D01*
X44207572Y-33630815D01*
X44231811Y-33620775D01*
X44346542Y-33544114D01*
X44444114Y-33446542D01*
X44520775Y-33331811D01*
X44573580Y-33204328D01*
X44600500Y-33068993D01*
X44600500Y-32931007D01*
X44573580Y-32795672D01*
X44546715Y-32730814D01*
X51674500Y-32730814D01*
X51674500Y-32869185D01*
X51710310Y-33002831D01*
X51710312Y-33002836D01*
X51779495Y-33122665D01*
X51877335Y-33220505D01*
X51997164Y-33289688D01*
X52130814Y-33325499D01*
X52130815Y-33325500D01*
X52130817Y-33325500D01*
X52269185Y-33325500D01*
X52269185Y-33325499D01*
X52402836Y-33289688D01*
X52522665Y-33220505D01*
X52620505Y-33122665D01*
X52689688Y-33002836D01*
X52725499Y-32869185D01*
X52725500Y-32869185D01*
X52725500Y-32730815D01*
X52725499Y-32730814D01*
X52722684Y-32720310D01*
X52689688Y-32597164D01*
X52620505Y-32477335D01*
X52522665Y-32379495D01*
X52402836Y-32310312D01*
X52402831Y-32310310D01*
X52269185Y-32274500D01*
X52269183Y-32274500D01*
X52130817Y-32274500D01*
X52130815Y-32274500D01*
X51997168Y-32310310D01*
X51997163Y-32310312D01*
X51877334Y-32379495D01*
X51779495Y-32477334D01*
X51710312Y-32597163D01*
X51710310Y-32597168D01*
X51674500Y-32730814D01*
X44546715Y-32730814D01*
X44520775Y-32668189D01*
X44444114Y-32553458D01*
X44346542Y-32455886D01*
X44333487Y-32447163D01*
X44231808Y-32379223D01*
X44104332Y-32326421D01*
X44104322Y-32326418D01*
X44013694Y-32308391D01*
X43968993Y-32299500D01*
X43831007Y-32299500D01*
X43792642Y-32307131D01*
X43695677Y-32326418D01*
X43695667Y-32326421D01*
X43568191Y-32379223D01*
X43453461Y-32455883D01*
X43355883Y-32553461D01*
X43279223Y-32668191D01*
X43226421Y-32795667D01*
X43226418Y-32795677D01*
X43208187Y-32887334D01*
X43200231Y-32927335D01*
X43199500Y-32931008D01*
X31141490Y-32931008D01*
X31123859Y-32925154D01*
X30975433Y-32909029D01*
X30975429Y-32909028D01*
X30826936Y-32924551D01*
X30685057Y-32971019D01*
X30661501Y-32984739D01*
X30661498Y-32984740D01*
X30655137Y-32988443D01*
X30655005Y-32988462D01*
X30624194Y-33006463D01*
X30623297Y-33006986D01*
X30623283Y-33006987D01*
X30617617Y-33009972D01*
X30578794Y-33028277D01*
X30566568Y-33032774D01*
X30528299Y-33043132D01*
X30515472Y-33045415D01*
X30472454Y-33049212D01*
X30465941Y-33049499D01*
X30422561Y-33049495D01*
X30422509Y-33049500D01*
X28927759Y-33049500D01*
X28920421Y-33049499D01*
X28920410Y-33049495D01*
X28888401Y-33049498D01*
X28883776Y-33049498D01*
X28883774Y-33049497D01*
X28877273Y-33049211D01*
X28834524Y-33045438D01*
X28821696Y-33043155D01*
X28783417Y-33032794D01*
X28771194Y-33028297D01*
X28732608Y-33010103D01*
X28726840Y-33007066D01*
X28699527Y-32991109D01*
X28694995Y-32988461D01*
X28694994Y-32988460D01*
X28689312Y-32985141D01*
X28688334Y-32984691D01*
X28667979Y-32972836D01*
X28664930Y-32971060D01*
X28664928Y-32971059D01*
X28664926Y-32971058D01*
X28523054Y-32924592D01*
X28374570Y-32909070D01*
X28374565Y-32909071D01*
X28226148Y-32925195D01*
X28084466Y-32972238D01*
X28084463Y-32972239D01*
X28084462Y-32972240D01*
X28056994Y-32988443D01*
X27955876Y-33048089D01*
X27846161Y-33149339D01*
X27760254Y-33271436D01*
X27760251Y-33271443D01*
X27702013Y-33408896D01*
X27702009Y-33408908D01*
X27674049Y-33555549D01*
X27674049Y-33555552D01*
X27677625Y-33704803D01*
X27677626Y-33704805D01*
X27712578Y-33849943D01*
X27712580Y-33849947D01*
X27724356Y-33874500D01*
X27724366Y-33874519D01*
X27724368Y-33874525D01*
X27727547Y-33881154D01*
X27727555Y-33881292D01*
X27743435Y-33914288D01*
X27743694Y-33914828D01*
X27743694Y-33914838D01*
X27745860Y-33919805D01*
X27759164Y-33953726D01*
X27762421Y-33964291D01*
X27769905Y-33997107D01*
X27771551Y-34008040D01*
X27774294Y-34044706D01*
X27774500Y-34050235D01*
X27774495Y-34094306D01*
X27774501Y-34094367D01*
X27774501Y-35450057D01*
X27774294Y-35455585D01*
X27773987Y-35459687D01*
X27771568Y-35491952D01*
X27769923Y-35502873D01*
X27762432Y-35535721D01*
X27759177Y-35546283D01*
X27746138Y-35579535D01*
X27743967Y-35584523D01*
X27743673Y-35585136D01*
X27730577Y-35612439D01*
X27727546Y-35618740D01*
X27727544Y-35618761D01*
X27718875Y-35636835D01*
X27712541Y-35650040D01*
X27677587Y-35795186D01*
X27677586Y-35795190D01*
X27674827Y-35910310D01*
X27674009Y-35944448D01*
X20200500Y-35944448D01*
X20200500Y-32700814D01*
X26434500Y-32700814D01*
X26434500Y-32839185D01*
X26470310Y-32972831D01*
X26470312Y-32972836D01*
X26539495Y-33092665D01*
X26637335Y-33190505D01*
X26757164Y-33259688D01*
X26890814Y-33295499D01*
X26890815Y-33295500D01*
X26890817Y-33295500D01*
X27029185Y-33295500D01*
X27029185Y-33295499D01*
X27162836Y-33259688D01*
X27282665Y-33190505D01*
X27380505Y-33092665D01*
X27449688Y-32972836D01*
X27485499Y-32839185D01*
X27485500Y-32839185D01*
X27485500Y-32700815D01*
X27485499Y-32700814D01*
X27480579Y-32682454D01*
X27449688Y-32567164D01*
X27380505Y-32447335D01*
X27282665Y-32349495D01*
X27162836Y-32280312D01*
X27162831Y-32280310D01*
X27029185Y-32244500D01*
X27029183Y-32244500D01*
X26890817Y-32244500D01*
X26890815Y-32244500D01*
X26757168Y-32280310D01*
X26757163Y-32280312D01*
X26637334Y-32349495D01*
X26539495Y-32447334D01*
X26470312Y-32567163D01*
X26470310Y-32567168D01*
X26434500Y-32700814D01*
X20200500Y-32700814D01*
X20200500Y-29611421D01*
X23494501Y-29611421D01*
X23494501Y-29788579D01*
X23509631Y-29884107D01*
X23522215Y-29963554D01*
X23522217Y-29963565D01*
X23576957Y-30132039D01*
X23576959Y-30132043D01*
X23657385Y-30289886D01*
X23657388Y-30289892D01*
X23761514Y-30433209D01*
X23761518Y-30433214D01*
X23886787Y-30558483D01*
X24030111Y-30662614D01*
X24182464Y-30740242D01*
X24187957Y-30743041D01*
X24187961Y-30743043D01*
X24356435Y-30797783D01*
X24356439Y-30797783D01*
X24356446Y-30797786D01*
X24507496Y-30821710D01*
X24531421Y-30825500D01*
X24531422Y-30825500D01*
X24708581Y-30825500D01*
X24729627Y-30822166D01*
X24883556Y-30797786D01*
X24883564Y-30797783D01*
X24883566Y-30797783D01*
X25052040Y-30743043D01*
X25052040Y-30743042D01*
X25052043Y-30743042D01*
X25209891Y-30662614D01*
X25353215Y-30558483D01*
X25478484Y-30433214D01*
X25582615Y-30289890D01*
X25663043Y-30132042D01*
X25704586Y-30004185D01*
X25717784Y-29963565D01*
X25717784Y-29963563D01*
X25717787Y-29963555D01*
X25745501Y-29788579D01*
X25745501Y-29611421D01*
X25743943Y-29601582D01*
X25737618Y-29561647D01*
X25736168Y-29552494D01*
X27449500Y-29552494D01*
X27449500Y-29847506D01*
X27454319Y-29884107D01*
X27488006Y-30139991D01*
X27564361Y-30424953D01*
X27677253Y-30697498D01*
X27677256Y-30697506D01*
X27770428Y-30858884D01*
X27824762Y-30952994D01*
X28004354Y-31187042D01*
X28212958Y-31395646D01*
X28447006Y-31575238D01*
X28702493Y-31722743D01*
X28975048Y-31835639D01*
X29260007Y-31911993D01*
X29552494Y-31950500D01*
X29552496Y-31950500D01*
X29847504Y-31950500D01*
X29847506Y-31950500D01*
X30139993Y-31911993D01*
X30424952Y-31835639D01*
X30484885Y-31810814D01*
X54124500Y-31810814D01*
X54124500Y-31949185D01*
X54160310Y-32082831D01*
X54160312Y-32082836D01*
X54229495Y-32202665D01*
X54327335Y-32300505D01*
X54447164Y-32369688D01*
X54580814Y-32405499D01*
X54580815Y-32405500D01*
X54580817Y-32405500D01*
X54719185Y-32405500D01*
X54719185Y-32405499D01*
X54852836Y-32369688D01*
X54972665Y-32300505D01*
X55070505Y-32202665D01*
X55139688Y-32082836D01*
X55175500Y-31949183D01*
X55175500Y-31810817D01*
X55175500Y-31810815D01*
X55175499Y-31810814D01*
X55151901Y-31722746D01*
X55139688Y-31677164D01*
X55070505Y-31557335D01*
X54972665Y-31459495D01*
X54852836Y-31390312D01*
X54852831Y-31390310D01*
X54719185Y-31354500D01*
X54719183Y-31354500D01*
X54580817Y-31354500D01*
X54580815Y-31354500D01*
X54447168Y-31390310D01*
X54447163Y-31390312D01*
X54327334Y-31459495D01*
X54229495Y-31557334D01*
X54160312Y-31677163D01*
X54160310Y-31677168D01*
X54124500Y-31810814D01*
X30484885Y-31810814D01*
X30697507Y-31722743D01*
X30952994Y-31575238D01*
X31187042Y-31395646D01*
X31395646Y-31187042D01*
X31575238Y-30952994D01*
X31722743Y-30697507D01*
X31835639Y-30424952D01*
X31911993Y-30139993D01*
X31950500Y-29847506D01*
X31950500Y-29611421D01*
X33654499Y-29611421D01*
X33654499Y-29788579D01*
X33669629Y-29884107D01*
X33682213Y-29963554D01*
X33682215Y-29963565D01*
X33736955Y-30132039D01*
X33736957Y-30132043D01*
X33817383Y-30289886D01*
X33817386Y-30289892D01*
X33921512Y-30433209D01*
X33921516Y-30433214D01*
X34046785Y-30558483D01*
X34190109Y-30662614D01*
X34342462Y-30740242D01*
X34347955Y-30743041D01*
X34347959Y-30743043D01*
X34516433Y-30797783D01*
X34516437Y-30797783D01*
X34516444Y-30797786D01*
X34667494Y-30821710D01*
X34691419Y-30825500D01*
X34691420Y-30825500D01*
X34868579Y-30825500D01*
X34889625Y-30822166D01*
X35043554Y-30797786D01*
X35043562Y-30797783D01*
X35043564Y-30797783D01*
X35212038Y-30743043D01*
X35212038Y-30743042D01*
X35212041Y-30743042D01*
X35369889Y-30662614D01*
X35513213Y-30558483D01*
X35638482Y-30433214D01*
X35742613Y-30289890D01*
X35823041Y-30132042D01*
X35864584Y-30004185D01*
X35877782Y-29963565D01*
X35877782Y-29963563D01*
X35877785Y-29963555D01*
X35905499Y-29788579D01*
X35905499Y-29611421D01*
X35903941Y-29601582D01*
X42649500Y-29601582D01*
X42649500Y-29798417D01*
X42680290Y-29992823D01*
X42680293Y-29992836D01*
X42741113Y-30180019D01*
X42830475Y-30355404D01*
X42944918Y-30512921D01*
X42946172Y-30514646D01*
X43085354Y-30653828D01*
X43244595Y-30769524D01*
X43419975Y-30858884D01*
X43419977Y-30858884D01*
X43419980Y-30858886D01*
X43607163Y-30919706D01*
X43607169Y-30919707D01*
X43607174Y-30919709D01*
X43736780Y-30940236D01*
X43801582Y-30950500D01*
X43801583Y-30950500D01*
X43998418Y-30950500D01*
X44047019Y-30942802D01*
X44192826Y-30919709D01*
X44192833Y-30919706D01*
X44192836Y-30919706D01*
X44380019Y-30858886D01*
X44380019Y-30858885D01*
X44380025Y-30858884D01*
X44555405Y-30769524D01*
X44714646Y-30653828D01*
X44853828Y-30514646D01*
X44969524Y-30355405D01*
X45058884Y-30180025D01*
X45082160Y-30108389D01*
X45119706Y-29992836D01*
X45119706Y-29992833D01*
X45119709Y-29992826D01*
X45150500Y-29798417D01*
X45150500Y-29601583D01*
X45119709Y-29407174D01*
X45119707Y-29407169D01*
X45119706Y-29407163D01*
X45058886Y-29219980D01*
X45058884Y-29219977D01*
X45058884Y-29219975D01*
X44988370Y-29081583D01*
X44969524Y-29044594D01*
X44879649Y-28920894D01*
X44853828Y-28885354D01*
X44849288Y-28880814D01*
X48724500Y-28880814D01*
X48724500Y-29019185D01*
X48760310Y-29152831D01*
X48760312Y-29152836D01*
X48829495Y-29272665D01*
X48927335Y-29370505D01*
X49047164Y-29439688D01*
X49180814Y-29475499D01*
X49180815Y-29475500D01*
X49180817Y-29475500D01*
X49319185Y-29475500D01*
X49319185Y-29475499D01*
X49452836Y-29439688D01*
X49572665Y-29370505D01*
X49572674Y-29370496D01*
X49572680Y-29370493D01*
X49576514Y-29367552D01*
X49577302Y-29368579D01*
X49625000Y-29348822D01*
X49672697Y-29368579D01*
X49673486Y-29367552D01*
X49677319Y-29370493D01*
X49677326Y-29370496D01*
X49677335Y-29370505D01*
X49797164Y-29439688D01*
X49930814Y-29475499D01*
X49930815Y-29475500D01*
X49930817Y-29475500D01*
X50069185Y-29475500D01*
X50069185Y-29475499D01*
X50202836Y-29439688D01*
X50322665Y-29370505D01*
X50420505Y-29272665D01*
X50489688Y-29152836D01*
X50525499Y-29019185D01*
X50525500Y-29019185D01*
X50525500Y-28980814D01*
X52974500Y-28980814D01*
X52974500Y-29119185D01*
X53010310Y-29252831D01*
X53010312Y-29252836D01*
X53079495Y-29372665D01*
X53177335Y-29470505D01*
X53297164Y-29539688D01*
X53430814Y-29575499D01*
X53430815Y-29575500D01*
X53430817Y-29575500D01*
X53569185Y-29575500D01*
X53569185Y-29575499D01*
X53702836Y-29539688D01*
X53822665Y-29470505D01*
X53920505Y-29372665D01*
X53989688Y-29252836D01*
X54025499Y-29119185D01*
X54025500Y-29119185D01*
X54025500Y-28980815D01*
X54025499Y-28980814D01*
X54023953Y-28975046D01*
X53989688Y-28847164D01*
X53920505Y-28727335D01*
X53822665Y-28629495D01*
X53702836Y-28560312D01*
X53702831Y-28560310D01*
X53569185Y-28524500D01*
X53569183Y-28524500D01*
X53430817Y-28524500D01*
X53430815Y-28524500D01*
X53297168Y-28560310D01*
X53297163Y-28560312D01*
X53177334Y-28629495D01*
X53079495Y-28727334D01*
X53010312Y-28847163D01*
X53010310Y-28847168D01*
X52974500Y-28980814D01*
X50525500Y-28980814D01*
X50525500Y-28880815D01*
X50525499Y-28880814D01*
X50522820Y-28870817D01*
X50489688Y-28747164D01*
X50420505Y-28627335D01*
X50322665Y-28529495D01*
X50202836Y-28460312D01*
X50202831Y-28460310D01*
X50069185Y-28424500D01*
X50069183Y-28424500D01*
X49930817Y-28424500D01*
X49930815Y-28424500D01*
X49797168Y-28460310D01*
X49797163Y-28460312D01*
X49677334Y-28529495D01*
X49677326Y-28529504D01*
X49677319Y-28529506D01*
X49673486Y-28532448D01*
X49672697Y-28531420D01*
X49625000Y-28551178D01*
X49577302Y-28531420D01*
X49576514Y-28532448D01*
X49572680Y-28529506D01*
X49572674Y-28529504D01*
X49572665Y-28529495D01*
X49452836Y-28460312D01*
X49452831Y-28460310D01*
X49319185Y-28424500D01*
X49319183Y-28424500D01*
X49180817Y-28424500D01*
X49180815Y-28424500D01*
X49047168Y-28460310D01*
X49047163Y-28460312D01*
X48927334Y-28529495D01*
X48829495Y-28627334D01*
X48760312Y-28747163D01*
X48760310Y-28747168D01*
X48724500Y-28880814D01*
X44849288Y-28880814D01*
X44714646Y-28746172D01*
X44714643Y-28746169D01*
X44714641Y-28746168D01*
X44555404Y-28630475D01*
X44380019Y-28541113D01*
X44192836Y-28480293D01*
X44192823Y-28480290D01*
X43998418Y-28449500D01*
X43998417Y-28449500D01*
X43801583Y-28449500D01*
X43801582Y-28449500D01*
X43607176Y-28480290D01*
X43607163Y-28480293D01*
X43419980Y-28541113D01*
X43244595Y-28630475D01*
X43085358Y-28746168D01*
X42946168Y-28885358D01*
X42830475Y-29044595D01*
X42741113Y-29219980D01*
X42680293Y-29407163D01*
X42680290Y-29407176D01*
X42649500Y-29601582D01*
X35903941Y-29601582D01*
X35877785Y-29436445D01*
X35877783Y-29436440D01*
X35877782Y-29436434D01*
X35823042Y-29267960D01*
X35823040Y-29267956D01*
X35799359Y-29221480D01*
X35742613Y-29110110D01*
X35697431Y-29047923D01*
X35638485Y-28966790D01*
X35638484Y-28966789D01*
X35638482Y-28966786D01*
X35513213Y-28841517D01*
X35513210Y-28841514D01*
X35513208Y-28841513D01*
X35369891Y-28737387D01*
X35369885Y-28737384D01*
X35212042Y-28656958D01*
X35212038Y-28656956D01*
X35043564Y-28602216D01*
X35043555Y-28602214D01*
X35043554Y-28602214D01*
X34906902Y-28580570D01*
X34868579Y-28574500D01*
X34868578Y-28574500D01*
X34691420Y-28574500D01*
X34691419Y-28574500D01*
X34516444Y-28602214D01*
X34516433Y-28602216D01*
X34347959Y-28656956D01*
X34347955Y-28656958D01*
X34190112Y-28737384D01*
X34190106Y-28737387D01*
X34046789Y-28841513D01*
X33921512Y-28966790D01*
X33817386Y-29110107D01*
X33817383Y-29110113D01*
X33736957Y-29267956D01*
X33736955Y-29267960D01*
X33682215Y-29436434D01*
X33682213Y-29436445D01*
X33660189Y-29575499D01*
X33654499Y-29611421D01*
X31950500Y-29611421D01*
X31950500Y-29552494D01*
X31911993Y-29260007D01*
X31835639Y-28975048D01*
X31722743Y-28702493D01*
X31575238Y-28447006D01*
X31395646Y-28212958D01*
X31187042Y-28004354D01*
X30952994Y-27824762D01*
X30949658Y-27822836D01*
X30697506Y-27677256D01*
X30697498Y-27677253D01*
X30424953Y-27564361D01*
X30139991Y-27488006D01*
X29924518Y-27459638D01*
X29847506Y-27449500D01*
X29552494Y-27449500D01*
X29484441Y-27458459D01*
X29260008Y-27488006D01*
X28975046Y-27564361D01*
X28702501Y-27677253D01*
X28702493Y-27677256D01*
X28447010Y-27824759D01*
X28447006Y-27824761D01*
X28447006Y-27824762D01*
X28214937Y-28002836D01*
X28212953Y-28004358D01*
X28004358Y-28212953D01*
X28004354Y-28212957D01*
X28004354Y-28212958D01*
X27884478Y-28369183D01*
X27824759Y-28447010D01*
X27677256Y-28702493D01*
X27677253Y-28702501D01*
X27564361Y-28975046D01*
X27488006Y-29260008D01*
X27455467Y-29507171D01*
X27449500Y-29552494D01*
X25736168Y-29552494D01*
X25728989Y-29507171D01*
X25717787Y-29436445D01*
X25717784Y-29436438D01*
X25717784Y-29436434D01*
X25692094Y-29357367D01*
X25696538Y-29300904D01*
X25739605Y-29264122D01*
X25762472Y-29260500D01*
X26027672Y-29260500D01*
X26027674Y-29260500D01*
X26300666Y-29224560D01*
X26566632Y-29153295D01*
X26821021Y-29047923D01*
X27059479Y-28910249D01*
X27244641Y-28768170D01*
X27277922Y-28742633D01*
X27277923Y-28742631D01*
X27277928Y-28742628D01*
X27472628Y-28547928D01*
X27477858Y-28541113D01*
X27562490Y-28430817D01*
X27640249Y-28329479D01*
X27777923Y-28091021D01*
X27883295Y-27836632D01*
X27954560Y-27570666D01*
X27990500Y-27297674D01*
X27990500Y-27022326D01*
X27954560Y-26749334D01*
X27883295Y-26483368D01*
X27777923Y-26228979D01*
X27716259Y-26122174D01*
X27640251Y-25990524D01*
X27640247Y-25990518D01*
X27472633Y-25772077D01*
X27277922Y-25577366D01*
X27059481Y-25409752D01*
X27059475Y-25409748D01*
X26821020Y-25272076D01*
X26821017Y-25272075D01*
X26566631Y-25166704D01*
X26300664Y-25095439D01*
X26099552Y-25068962D01*
X26027674Y-25059500D01*
X25752326Y-25059500D01*
X25688810Y-25067862D01*
X25479335Y-25095439D01*
X25213368Y-25166704D01*
X24958982Y-25272075D01*
X24958979Y-25272076D01*
X24720524Y-25409748D01*
X24720518Y-25409752D01*
X24502077Y-25577366D01*
X24307366Y-25772077D01*
X24139752Y-25990518D01*
X24139748Y-25990524D01*
X24002076Y-26228979D01*
X24002075Y-26228982D01*
X23896704Y-26483368D01*
X23825439Y-26749335D01*
X23808130Y-26880814D01*
X23789500Y-27022326D01*
X23789500Y-27297674D01*
X23793994Y-27331808D01*
X23825439Y-27570664D01*
X23896704Y-27836631D01*
X24002075Y-28091017D01*
X24002076Y-28091020D01*
X24139748Y-28329475D01*
X24139752Y-28329481D01*
X24286765Y-28521073D01*
X24301424Y-28575780D01*
X24273105Y-28624829D01*
X24250924Y-28636499D01*
X24187962Y-28656956D01*
X24187957Y-28656958D01*
X24030114Y-28737384D01*
X24030108Y-28737387D01*
X23886791Y-28841513D01*
X23761514Y-28966790D01*
X23657388Y-29110107D01*
X23657385Y-29110113D01*
X23576959Y-29267956D01*
X23576957Y-29267960D01*
X23522217Y-29436434D01*
X23522215Y-29436445D01*
X23500191Y-29575499D01*
X23494501Y-29611421D01*
X20200500Y-29611421D01*
X20200500Y-22067067D01*
X20222174Y-22014741D01*
X20274500Y-21993067D01*
X20310728Y-22002543D01*
X20382490Y-22042843D01*
X20385140Y-22043778D01*
X20586733Y-22114910D01*
X20586737Y-22114910D01*
X20586741Y-22114912D01*
X20800331Y-22150856D01*
X21016920Y-22149609D01*
X21016929Y-22149607D01*
X21016932Y-22149607D01*
X21083016Y-22137701D01*
X21230081Y-22111206D01*
X21433488Y-22036789D01*
X21621105Y-21928566D01*
X21787363Y-21789747D01*
X21927329Y-21624454D01*
X22036849Y-21437590D01*
X22112672Y-21234703D01*
X22152549Y-21021813D01*
X22155296Y-20805238D01*
X22120831Y-20591404D01*
X22116721Y-20579495D01*
X22070540Y-20445667D01*
X22050178Y-20386660D01*
X22012345Y-20318186D01*
X22007981Y-20310287D01*
X22001647Y-20254005D01*
X22036965Y-20209729D01*
X22072752Y-20200500D01*
X57555500Y-20200500D01*
X57607826Y-20222174D01*
G37*
%TD.AperFunction*%
%TA.AperFunction,Conductor*%
G36*
X69132325Y-29068718D02*
G01*
X69161281Y-29097674D01*
X69182955Y-29150000D01*
X69161281Y-29202326D01*
X69060781Y-29302826D01*
X69015332Y-29321651D01*
X69015624Y-29323867D01*
X69010819Y-29324499D01*
X68951200Y-29340474D01*
X68895048Y-29333081D01*
X68860569Y-29288147D01*
X68867962Y-29231995D01*
X68879715Y-29216677D01*
X69027676Y-29068716D01*
X69079999Y-29047044D01*
X69132325Y-29068718D01*
G37*
%TD.AperFunction*%
%TD*%
M02*
