%TF.GenerationSoftware,KiCad,Pcbnew,9.0.3*%
%TF.CreationDate,2025-07-16T18:33:31-04:00*%
%TF.ProjectId,board,626f6172-642e-46b6-9963-61645f706362,rev?*%
%TF.SameCoordinates,Original*%
%TF.FileFunction,Legend,Bot*%
%TF.FilePolarity,Positive*%
%FSLAX46Y46*%
G04 Gerber Fmt 4.6, Leading zero omitted, Abs format (unit mm)*
G04 Created by KiCad (PCBNEW 9.0.3) date 2025-07-16 18:33:31*
%MOMM*%
%LPD*%
G01*
G04 APERTURE LIST*
%ADD10C,0.100000*%
%ADD11C,0.150000*%
%ADD12C,0.120000*%
%ADD13C,0.200000*%
%ADD14C,0.191421*%
G04 APERTURE END LIST*
D10*
X41520038Y-36252145D02*
X41820038Y-36252145D01*
X41670038Y-36102145D02*
X41670038Y-36402145D01*
D11*
X33861904Y-23356819D02*
X33290476Y-23356819D01*
X33576190Y-24356819D02*
X33576190Y-23356819D01*
X32957142Y-24356819D02*
X32957142Y-23356819D01*
X32957142Y-23356819D02*
X32576190Y-23356819D01*
X32576190Y-23356819D02*
X32480952Y-23404438D01*
X32480952Y-23404438D02*
X32433333Y-23452057D01*
X32433333Y-23452057D02*
X32385714Y-23547295D01*
X32385714Y-23547295D02*
X32385714Y-23690152D01*
X32385714Y-23690152D02*
X32433333Y-23785390D01*
X32433333Y-23785390D02*
X32480952Y-23833009D01*
X32480952Y-23833009D02*
X32576190Y-23880628D01*
X32576190Y-23880628D02*
X32957142Y-23880628D01*
X31480952Y-23356819D02*
X31957142Y-23356819D01*
X31957142Y-23356819D02*
X32004761Y-23833009D01*
X32004761Y-23833009D02*
X31957142Y-23785390D01*
X31957142Y-23785390D02*
X31861904Y-23737771D01*
X31861904Y-23737771D02*
X31623809Y-23737771D01*
X31623809Y-23737771D02*
X31528571Y-23785390D01*
X31528571Y-23785390D02*
X31480952Y-23833009D01*
X31480952Y-23833009D02*
X31433333Y-23928247D01*
X31433333Y-23928247D02*
X31433333Y-24166342D01*
X31433333Y-24166342D02*
X31480952Y-24261580D01*
X31480952Y-24261580D02*
X31528571Y-24309200D01*
X31528571Y-24309200D02*
X31623809Y-24356819D01*
X31623809Y-24356819D02*
X31861904Y-24356819D01*
X31861904Y-24356819D02*
X31957142Y-24309200D01*
X31957142Y-24309200D02*
X32004761Y-24261580D01*
X25761904Y-23356819D02*
X25190476Y-23356819D01*
X25476190Y-24356819D02*
X25476190Y-23356819D01*
X24857142Y-24356819D02*
X24857142Y-23356819D01*
X24857142Y-23356819D02*
X24476190Y-23356819D01*
X24476190Y-23356819D02*
X24380952Y-23404438D01*
X24380952Y-23404438D02*
X24333333Y-23452057D01*
X24333333Y-23452057D02*
X24285714Y-23547295D01*
X24285714Y-23547295D02*
X24285714Y-23690152D01*
X24285714Y-23690152D02*
X24333333Y-23785390D01*
X24333333Y-23785390D02*
X24380952Y-23833009D01*
X24380952Y-23833009D02*
X24476190Y-23880628D01*
X24476190Y-23880628D02*
X24857142Y-23880628D01*
X23904761Y-23452057D02*
X23857142Y-23404438D01*
X23857142Y-23404438D02*
X23761904Y-23356819D01*
X23761904Y-23356819D02*
X23523809Y-23356819D01*
X23523809Y-23356819D02*
X23428571Y-23404438D01*
X23428571Y-23404438D02*
X23380952Y-23452057D01*
X23380952Y-23452057D02*
X23333333Y-23547295D01*
X23333333Y-23547295D02*
X23333333Y-23642533D01*
X23333333Y-23642533D02*
X23380952Y-23785390D01*
X23380952Y-23785390D02*
X23952380Y-24356819D01*
X23952380Y-24356819D02*
X23333333Y-24356819D01*
X37511904Y-20056819D02*
X36940476Y-20056819D01*
X37226190Y-21056819D02*
X37226190Y-20056819D01*
X36607142Y-21056819D02*
X36607142Y-20056819D01*
X36607142Y-20056819D02*
X36226190Y-20056819D01*
X36226190Y-20056819D02*
X36130952Y-20104438D01*
X36130952Y-20104438D02*
X36083333Y-20152057D01*
X36083333Y-20152057D02*
X36035714Y-20247295D01*
X36035714Y-20247295D02*
X36035714Y-20390152D01*
X36035714Y-20390152D02*
X36083333Y-20485390D01*
X36083333Y-20485390D02*
X36130952Y-20533009D01*
X36130952Y-20533009D02*
X36226190Y-20580628D01*
X36226190Y-20580628D02*
X36607142Y-20580628D01*
X35178571Y-20390152D02*
X35178571Y-21056819D01*
X35416666Y-20009200D02*
X35654761Y-20723485D01*
X35654761Y-20723485D02*
X35035714Y-20723485D01*
X29411904Y-20056819D02*
X28840476Y-20056819D01*
X29126190Y-21056819D02*
X29126190Y-20056819D01*
X28507142Y-21056819D02*
X28507142Y-20056819D01*
X28507142Y-20056819D02*
X28126190Y-20056819D01*
X28126190Y-20056819D02*
X28030952Y-20104438D01*
X28030952Y-20104438D02*
X27983333Y-20152057D01*
X27983333Y-20152057D02*
X27935714Y-20247295D01*
X27935714Y-20247295D02*
X27935714Y-20390152D01*
X27935714Y-20390152D02*
X27983333Y-20485390D01*
X27983333Y-20485390D02*
X28030952Y-20533009D01*
X28030952Y-20533009D02*
X28126190Y-20580628D01*
X28126190Y-20580628D02*
X28507142Y-20580628D01*
X27602380Y-20056819D02*
X26983333Y-20056819D01*
X26983333Y-20056819D02*
X27316666Y-20437771D01*
X27316666Y-20437771D02*
X27173809Y-20437771D01*
X27173809Y-20437771D02*
X27078571Y-20485390D01*
X27078571Y-20485390D02*
X27030952Y-20533009D01*
X27030952Y-20533009D02*
X26983333Y-20628247D01*
X26983333Y-20628247D02*
X26983333Y-20866342D01*
X26983333Y-20866342D02*
X27030952Y-20961580D01*
X27030952Y-20961580D02*
X27078571Y-21009200D01*
X27078571Y-21009200D02*
X27173809Y-21056819D01*
X27173809Y-21056819D02*
X27459523Y-21056819D01*
X27459523Y-21056819D02*
X27554761Y-21009200D01*
X27554761Y-21009200D02*
X27602380Y-20961580D01*
X41361904Y-31056819D02*
X40790476Y-31056819D01*
X41076190Y-32056819D02*
X41076190Y-31056819D01*
X40457142Y-32056819D02*
X40457142Y-31056819D01*
X40457142Y-31056819D02*
X40076190Y-31056819D01*
X40076190Y-31056819D02*
X39980952Y-31104438D01*
X39980952Y-31104438D02*
X39933333Y-31152057D01*
X39933333Y-31152057D02*
X39885714Y-31247295D01*
X39885714Y-31247295D02*
X39885714Y-31390152D01*
X39885714Y-31390152D02*
X39933333Y-31485390D01*
X39933333Y-31485390D02*
X39980952Y-31533009D01*
X39980952Y-31533009D02*
X40076190Y-31580628D01*
X40076190Y-31580628D02*
X40457142Y-31580628D01*
X39409523Y-32056819D02*
X39219047Y-32056819D01*
X39219047Y-32056819D02*
X39123809Y-32009200D01*
X39123809Y-32009200D02*
X39076190Y-31961580D01*
X39076190Y-31961580D02*
X38980952Y-31818723D01*
X38980952Y-31818723D02*
X38933333Y-31628247D01*
X38933333Y-31628247D02*
X38933333Y-31247295D01*
X38933333Y-31247295D02*
X38980952Y-31152057D01*
X38980952Y-31152057D02*
X39028571Y-31104438D01*
X39028571Y-31104438D02*
X39123809Y-31056819D01*
X39123809Y-31056819D02*
X39314285Y-31056819D01*
X39314285Y-31056819D02*
X39409523Y-31104438D01*
X39409523Y-31104438D02*
X39457142Y-31152057D01*
X39457142Y-31152057D02*
X39504761Y-31247295D01*
X39504761Y-31247295D02*
X39504761Y-31485390D01*
X39504761Y-31485390D02*
X39457142Y-31580628D01*
X39457142Y-31580628D02*
X39409523Y-31628247D01*
X39409523Y-31628247D02*
X39314285Y-31675866D01*
X39314285Y-31675866D02*
X39123809Y-31675866D01*
X39123809Y-31675866D02*
X39028571Y-31628247D01*
X39028571Y-31628247D02*
X38980952Y-31580628D01*
X38980952Y-31580628D02*
X38933333Y-31485390D01*
D10*
X83342580Y-29714285D02*
X84342580Y-29714285D01*
X84342580Y-29714285D02*
X84342580Y-29476190D01*
X84342580Y-29476190D02*
X84294961Y-29333333D01*
X84294961Y-29333333D02*
X84199723Y-29238095D01*
X84199723Y-29238095D02*
X84104485Y-29190476D01*
X84104485Y-29190476D02*
X83914009Y-29142857D01*
X83914009Y-29142857D02*
X83771152Y-29142857D01*
X83771152Y-29142857D02*
X83580676Y-29190476D01*
X83580676Y-29190476D02*
X83485438Y-29238095D01*
X83485438Y-29238095D02*
X83390200Y-29333333D01*
X83390200Y-29333333D02*
X83342580Y-29476190D01*
X83342580Y-29476190D02*
X83342580Y-29714285D01*
X83390200Y-28761904D02*
X83342580Y-28619047D01*
X83342580Y-28619047D02*
X83342580Y-28380952D01*
X83342580Y-28380952D02*
X83390200Y-28285714D01*
X83390200Y-28285714D02*
X83437819Y-28238095D01*
X83437819Y-28238095D02*
X83533057Y-28190476D01*
X83533057Y-28190476D02*
X83628295Y-28190476D01*
X83628295Y-28190476D02*
X83723533Y-28238095D01*
X83723533Y-28238095D02*
X83771152Y-28285714D01*
X83771152Y-28285714D02*
X83818771Y-28380952D01*
X83818771Y-28380952D02*
X83866390Y-28571428D01*
X83866390Y-28571428D02*
X83914009Y-28666666D01*
X83914009Y-28666666D02*
X83961628Y-28714285D01*
X83961628Y-28714285D02*
X84056866Y-28761904D01*
X84056866Y-28761904D02*
X84152104Y-28761904D01*
X84152104Y-28761904D02*
X84247342Y-28714285D01*
X84247342Y-28714285D02*
X84294961Y-28666666D01*
X84294961Y-28666666D02*
X84342580Y-28571428D01*
X84342580Y-28571428D02*
X84342580Y-28333333D01*
X84342580Y-28333333D02*
X84294961Y-28190476D01*
X83342580Y-27238095D02*
X83342580Y-27809523D01*
X83342580Y-27523809D02*
X84342580Y-27523809D01*
X84342580Y-27523809D02*
X84199723Y-27619047D01*
X84199723Y-27619047D02*
X84104485Y-27714285D01*
X84104485Y-27714285D02*
X84056866Y-27809523D01*
D11*
X37361904Y-23206819D02*
X36790476Y-23206819D01*
X37076190Y-24206819D02*
X37076190Y-23206819D01*
X36457142Y-24206819D02*
X36457142Y-23206819D01*
X36457142Y-23206819D02*
X36076190Y-23206819D01*
X36076190Y-23206819D02*
X35980952Y-23254438D01*
X35980952Y-23254438D02*
X35933333Y-23302057D01*
X35933333Y-23302057D02*
X35885714Y-23397295D01*
X35885714Y-23397295D02*
X35885714Y-23540152D01*
X35885714Y-23540152D02*
X35933333Y-23635390D01*
X35933333Y-23635390D02*
X35980952Y-23683009D01*
X35980952Y-23683009D02*
X36076190Y-23730628D01*
X36076190Y-23730628D02*
X36457142Y-23730628D01*
X35552380Y-23206819D02*
X34885714Y-23206819D01*
X34885714Y-23206819D02*
X35314285Y-24206819D01*
X29811904Y-23356819D02*
X29240476Y-23356819D01*
X29526190Y-24356819D02*
X29526190Y-23356819D01*
X28907142Y-24356819D02*
X28907142Y-23356819D01*
X28907142Y-23356819D02*
X28526190Y-23356819D01*
X28526190Y-23356819D02*
X28430952Y-23404438D01*
X28430952Y-23404438D02*
X28383333Y-23452057D01*
X28383333Y-23452057D02*
X28335714Y-23547295D01*
X28335714Y-23547295D02*
X28335714Y-23690152D01*
X28335714Y-23690152D02*
X28383333Y-23785390D01*
X28383333Y-23785390D02*
X28430952Y-23833009D01*
X28430952Y-23833009D02*
X28526190Y-23880628D01*
X28526190Y-23880628D02*
X28907142Y-23880628D01*
X27478571Y-23356819D02*
X27669047Y-23356819D01*
X27669047Y-23356819D02*
X27764285Y-23404438D01*
X27764285Y-23404438D02*
X27811904Y-23452057D01*
X27811904Y-23452057D02*
X27907142Y-23594914D01*
X27907142Y-23594914D02*
X27954761Y-23785390D01*
X27954761Y-23785390D02*
X27954761Y-24166342D01*
X27954761Y-24166342D02*
X27907142Y-24261580D01*
X27907142Y-24261580D02*
X27859523Y-24309200D01*
X27859523Y-24309200D02*
X27764285Y-24356819D01*
X27764285Y-24356819D02*
X27573809Y-24356819D01*
X27573809Y-24356819D02*
X27478571Y-24309200D01*
X27478571Y-24309200D02*
X27430952Y-24261580D01*
X27430952Y-24261580D02*
X27383333Y-24166342D01*
X27383333Y-24166342D02*
X27383333Y-23928247D01*
X27383333Y-23928247D02*
X27430952Y-23833009D01*
X27430952Y-23833009D02*
X27478571Y-23785390D01*
X27478571Y-23785390D02*
X27573809Y-23737771D01*
X27573809Y-23737771D02*
X27764285Y-23737771D01*
X27764285Y-23737771D02*
X27859523Y-23785390D01*
X27859523Y-23785390D02*
X27907142Y-23833009D01*
X27907142Y-23833009D02*
X27954761Y-23928247D01*
X25361904Y-20056819D02*
X24790476Y-20056819D01*
X25076190Y-21056819D02*
X25076190Y-20056819D01*
X24457142Y-21056819D02*
X24457142Y-20056819D01*
X24457142Y-20056819D02*
X24076190Y-20056819D01*
X24076190Y-20056819D02*
X23980952Y-20104438D01*
X23980952Y-20104438D02*
X23933333Y-20152057D01*
X23933333Y-20152057D02*
X23885714Y-20247295D01*
X23885714Y-20247295D02*
X23885714Y-20390152D01*
X23885714Y-20390152D02*
X23933333Y-20485390D01*
X23933333Y-20485390D02*
X23980952Y-20533009D01*
X23980952Y-20533009D02*
X24076190Y-20580628D01*
X24076190Y-20580628D02*
X24457142Y-20580628D01*
X22933333Y-21056819D02*
X23504761Y-21056819D01*
X23219047Y-21056819D02*
X23219047Y-20056819D01*
X23219047Y-20056819D02*
X23314285Y-20199676D01*
X23314285Y-20199676D02*
X23409523Y-20294914D01*
X23409523Y-20294914D02*
X23504761Y-20342533D01*
X33461904Y-20056819D02*
X32890476Y-20056819D01*
X33176190Y-21056819D02*
X33176190Y-20056819D01*
X32557142Y-21056819D02*
X32557142Y-20056819D01*
X32557142Y-20056819D02*
X32176190Y-20056819D01*
X32176190Y-20056819D02*
X32080952Y-20104438D01*
X32080952Y-20104438D02*
X32033333Y-20152057D01*
X32033333Y-20152057D02*
X31985714Y-20247295D01*
X31985714Y-20247295D02*
X31985714Y-20390152D01*
X31985714Y-20390152D02*
X32033333Y-20485390D01*
X32033333Y-20485390D02*
X32080952Y-20533009D01*
X32080952Y-20533009D02*
X32176190Y-20580628D01*
X32176190Y-20580628D02*
X32557142Y-20580628D01*
X31414285Y-20485390D02*
X31509523Y-20437771D01*
X31509523Y-20437771D02*
X31557142Y-20390152D01*
X31557142Y-20390152D02*
X31604761Y-20294914D01*
X31604761Y-20294914D02*
X31604761Y-20247295D01*
X31604761Y-20247295D02*
X31557142Y-20152057D01*
X31557142Y-20152057D02*
X31509523Y-20104438D01*
X31509523Y-20104438D02*
X31414285Y-20056819D01*
X31414285Y-20056819D02*
X31223809Y-20056819D01*
X31223809Y-20056819D02*
X31128571Y-20104438D01*
X31128571Y-20104438D02*
X31080952Y-20152057D01*
X31080952Y-20152057D02*
X31033333Y-20247295D01*
X31033333Y-20247295D02*
X31033333Y-20294914D01*
X31033333Y-20294914D02*
X31080952Y-20390152D01*
X31080952Y-20390152D02*
X31128571Y-20437771D01*
X31128571Y-20437771D02*
X31223809Y-20485390D01*
X31223809Y-20485390D02*
X31414285Y-20485390D01*
X31414285Y-20485390D02*
X31509523Y-20533009D01*
X31509523Y-20533009D02*
X31557142Y-20580628D01*
X31557142Y-20580628D02*
X31604761Y-20675866D01*
X31604761Y-20675866D02*
X31604761Y-20866342D01*
X31604761Y-20866342D02*
X31557142Y-20961580D01*
X31557142Y-20961580D02*
X31509523Y-21009200D01*
X31509523Y-21009200D02*
X31414285Y-21056819D01*
X31414285Y-21056819D02*
X31223809Y-21056819D01*
X31223809Y-21056819D02*
X31128571Y-21009200D01*
X31128571Y-21009200D02*
X31080952Y-20961580D01*
X31080952Y-20961580D02*
X31033333Y-20866342D01*
X31033333Y-20866342D02*
X31033333Y-20675866D01*
X31033333Y-20675866D02*
X31080952Y-20580628D01*
X31080952Y-20580628D02*
X31128571Y-20533009D01*
X31128571Y-20533009D02*
X31223809Y-20485390D01*
D12*
%TO.C,C21*%
X49085001Y-25690580D02*
X49085001Y-25409418D01*
X48065001Y-25690580D02*
X48065001Y-25409418D01*
%TO.C,C17*%
X54847501Y-28690585D02*
X54847501Y-28409423D01*
X53827501Y-28690585D02*
X53827501Y-28409423D01*
%TO.C,TP5*%
X33800000Y-25900000D02*
G75*
G02*
X31400000Y-25900000I-1200000J0D01*
G01*
X31400000Y-25900000D02*
G75*
G02*
X33800000Y-25900000I1200000J0D01*
G01*
%TO.C,TP2*%
X25700000Y-25900000D02*
G75*
G02*
X23300000Y-25900000I-1200000J0D01*
G01*
X23300000Y-25900000D02*
G75*
G02*
X25700000Y-25900000I1200000J0D01*
G01*
%TO.C,TP4*%
X37450000Y-22600000D02*
G75*
G02*
X35050000Y-22600000I-1200000J0D01*
G01*
X35050000Y-22600000D02*
G75*
G02*
X37450000Y-22600000I1200000J0D01*
G01*
%TO.C,C20*%
X54847504Y-25409418D02*
X54847504Y-25690580D01*
X53827504Y-25409418D02*
X53827504Y-25690580D01*
%TO.C,TP3*%
X29350000Y-22600000D02*
G75*
G02*
X26950000Y-22600000I-1200000J0D01*
G01*
X26950000Y-22600000D02*
G75*
G02*
X29350000Y-22600000I1200000J0D01*
G01*
%TO.C,U4*%
X50067500Y-28290000D02*
X49587500Y-28290000D01*
X49827500Y-27960000D01*
X50067500Y-28290000D01*
G36*
X50067500Y-28290000D02*
G01*
X49587500Y-28290000D01*
X49827500Y-27960000D01*
X50067500Y-28290000D01*
G37*
X49827500Y-24740000D02*
X49827500Y-25215000D01*
X49827500Y-27485000D02*
X49827500Y-27720000D01*
X50302500Y-24740000D02*
X49827500Y-24740000D01*
X50302500Y-27960000D02*
X50127500Y-27960000D01*
X52572500Y-24740000D02*
X53047500Y-24740000D01*
X52572500Y-27960000D02*
X53047500Y-27960000D01*
X53047500Y-24740000D02*
X53047500Y-25215000D01*
X53047500Y-27960000D02*
X53047500Y-27485000D01*
%TO.C,D1*%
X98145001Y-22140000D02*
X98145001Y-24800000D01*
X96445001Y-22140000D02*
X96445001Y-24800000D01*
X96445001Y-22140000D02*
X98145001Y-22140000D01*
%TO.C,TP9*%
X41600000Y-33400000D02*
G75*
G02*
X39200000Y-33400000I-1200000J0D01*
G01*
X39200000Y-33400000D02*
G75*
G02*
X41600000Y-33400000I1200000J0D01*
G01*
%TO.C,C29*%
X52021918Y-35990000D02*
X52303080Y-35990000D01*
X52021918Y-37010000D02*
X52303080Y-37010000D01*
%TO.C,C27*%
X52021919Y-31389999D02*
X52303081Y-31389999D01*
X52021919Y-32409999D02*
X52303081Y-32409999D01*
%TO.C,U5*%
X54800000Y-32639999D02*
X54000000Y-32640000D01*
X54800000Y-32639999D02*
X55600000Y-32640000D01*
X54800000Y-35760001D02*
X54000000Y-35760000D01*
X54800000Y-35760001D02*
X55600000Y-35760000D01*
X53740000Y-36040000D02*
X53260000Y-36040000D01*
X53500000Y-35710000D01*
X53740000Y-36040000D01*
G36*
X53740000Y-36040000D02*
G01*
X53260000Y-36040000D01*
X53500000Y-35710000D01*
X53740000Y-36040000D01*
G37*
%TO.C,U6*%
X50917501Y-32930000D02*
X50917501Y-33505000D01*
X50917501Y-35470000D02*
X50917501Y-34895000D01*
X51267501Y-32930000D02*
X50917501Y-32930000D01*
X51267501Y-35470000D02*
X50917501Y-35470000D01*
X52207501Y-35470000D02*
X52557501Y-35470000D01*
X52557501Y-35470000D02*
X52557501Y-34895000D01*
D13*
X52537501Y-33050000D02*
G75*
G02*
X52337501Y-33050000I-100000J0D01*
G01*
X52337501Y-33050000D02*
G75*
G02*
X52537501Y-33050000I100000J0D01*
G01*
D12*
%TO.C,C30*%
X52021919Y-37490000D02*
X52303081Y-37490000D01*
X52021919Y-38510000D02*
X52303081Y-38510000D01*
%TO.C,L1*%
X48677500Y-33090000D02*
X48677500Y-35310000D01*
X50797500Y-35310000D02*
X50797500Y-33090000D01*
%TO.C,Y1*%
X82490000Y-35669999D02*
X82490000Y-39090001D01*
X82490000Y-39090001D02*
X78370000Y-39090001D01*
%TO.C,DS1*%
D14*
X81895710Y-32700000D02*
G75*
G02*
X81704290Y-32700000I-95710J0D01*
G01*
X81704290Y-32700000D02*
G75*
G02*
X81895710Y-32700000I95710J0D01*
G01*
D10*
X79400000Y-22800000D02*
G75*
G02*
X79900000Y-22300000I500000J0D01*
G01*
X79900000Y-34700000D02*
G75*
G02*
X79400000Y-34200000I1J500001D01*
G01*
X79900000Y-22300000D02*
X81200000Y-22300000D01*
X83117157Y-23582843D02*
X83682843Y-23017157D01*
X83682843Y-23582843D02*
X83117157Y-23017157D01*
X79400000Y-23700000D02*
X79400000Y-22800000D01*
X79400000Y-33300000D02*
X79400000Y-34200000D01*
X83117157Y-33982843D02*
X83682843Y-33417157D01*
X83682843Y-33982843D02*
X83117157Y-33417157D01*
X79900000Y-34700000D02*
X81200000Y-34700000D01*
D12*
%TO.C,U2*%
X76910000Y-29790000D02*
X76670000Y-29460000D01*
X77150000Y-29460000D01*
X76910000Y-29790000D01*
G36*
X76910000Y-29790000D02*
G01*
X76670000Y-29460000D01*
X77150000Y-29460000D01*
X76910000Y-29790000D01*
G37*
X76910000Y-30439999D02*
X76910000Y-30030000D01*
X76260001Y-29790000D02*
X76610000Y-29790000D01*
X70339999Y-29790000D02*
X69690000Y-29790000D01*
X76910000Y-37010000D02*
X76910000Y-36360001D01*
X69690000Y-29790000D02*
X69690000Y-30439999D01*
X76260001Y-37010000D02*
X76910000Y-37010000D01*
X70339999Y-37010000D02*
X69690000Y-37010000D01*
X69690000Y-37010000D02*
X69690000Y-36360001D01*
%TO.C,U1*%
X61439999Y-30000000D02*
X61440000Y-29200000D01*
X61439999Y-30000000D02*
X61440000Y-30800000D01*
X64560001Y-30000000D02*
X64560000Y-29200000D01*
X64560001Y-30000000D02*
X64560000Y-30800000D01*
X64840000Y-31540000D02*
X64510000Y-31300000D01*
X64840000Y-31060000D01*
X64840000Y-31540000D01*
G36*
X64840000Y-31540000D02*
G01*
X64510000Y-31300000D01*
X64840000Y-31060000D01*
X64840000Y-31540000D01*
G37*
D13*
%TO.C,J1*%
X59100000Y-26500000D02*
G75*
G02*
X58900000Y-26500000I-100000J0D01*
G01*
X58900000Y-26500000D02*
G75*
G02*
X59100000Y-26500000I100000J0D01*
G01*
%TO.C,Q1*%
D11*
X99910000Y-22950000D02*
G75*
G02*
X99760000Y-22950000I-75000J0D01*
G01*
X99760000Y-22950000D02*
G75*
G02*
X99910000Y-22950000I75000J0D01*
G01*
D12*
X101245001Y-24850000D02*
X101245001Y-23550000D01*
X99444999Y-24850000D02*
X99444999Y-23550000D01*
%TO.C,SW3*%
X53960001Y-21440000D02*
X53960001Y-21360000D01*
X52860001Y-22960000D02*
X53960001Y-22960001D01*
X49540001Y-21440000D02*
X49540001Y-21360000D01*
X49540001Y-22960001D02*
X50640001Y-22960000D01*
%TO.C,SW1*%
X35800000Y-34600000D02*
G75*
G02*
X33800000Y-36600000I-2000000J0D01*
G01*
X31900000Y-30400000D02*
G75*
G02*
X29900000Y-32400000I-2000000J0D01*
G01*
X33800000Y-36600000D02*
X28700000Y-36600000D01*
X29900000Y-32400000D02*
X24800000Y-32400000D01*
%TO.C,SW2*%
X96500000Y-32400000D02*
X91400000Y-32400000D01*
X100400000Y-36600000D02*
X95300000Y-36600000D01*
X98500000Y-30400000D02*
G75*
G02*
X96500000Y-32400000I-2000000J0D01*
G01*
X102400000Y-34600000D02*
G75*
G02*
X100400000Y-36600000I-2000000J0D01*
G01*
%TO.C,R14*%
X99880000Y-27046359D02*
X99880000Y-27353641D01*
X99120000Y-27046359D02*
X99120000Y-27353641D01*
%TO.C,C22*%
X85892164Y-36360000D02*
X86107836Y-36360000D01*
X85892164Y-37080000D02*
X86107836Y-37080000D01*
%TO.C,R15*%
X101870000Y-27046359D02*
X101870000Y-27353641D01*
X101110000Y-27046359D02*
X101110000Y-27353641D01*
%TO.C,L2*%
X94230000Y-26737220D02*
X94230000Y-27062780D01*
X93210000Y-26737220D02*
X93210000Y-27062780D01*
%TO.C,C35*%
X91720000Y-26759419D02*
X91720000Y-27040581D01*
X90700000Y-26759419D02*
X90700000Y-27040581D01*
%TO.C,C31*%
X89210000Y-26759419D02*
X89210000Y-27040581D01*
X88190000Y-26759419D02*
X88190000Y-27040581D01*
%TO.C,U7*%
X92090000Y-22000000D02*
X91760000Y-22240000D01*
X91760000Y-21760000D01*
X92090000Y-22000000D01*
G36*
X92090000Y-22000000D02*
G01*
X91760000Y-22240000D01*
X91760000Y-21760000D01*
X92090000Y-22000000D01*
G37*
X95160001Y-23300000D02*
X95160000Y-24100000D01*
X95160001Y-23300000D02*
X95160000Y-22500000D01*
X92039999Y-23300000D02*
X92040000Y-24100000D01*
X92039999Y-23300000D02*
X92040000Y-22500000D01*
%TO.C,JP2*%
X62250000Y-35150000D02*
X62250000Y-32350000D01*
X62250000Y-32350000D02*
X60250000Y-32350000D01*
X60250000Y-35150000D02*
X62250000Y-35150000D01*
X60250000Y-32350000D02*
X60250000Y-35150000D01*
%TO.C,TP7*%
X37300000Y-25750000D02*
G75*
G02*
X34900000Y-25750000I-1200000J0D01*
G01*
X34900000Y-25750000D02*
G75*
G02*
X37300000Y-25750000I1200000J0D01*
G01*
%TO.C,C33*%
X44840580Y-31810000D02*
X44559420Y-31810000D01*
X44840580Y-32830000D02*
X44559420Y-32830000D01*
%TO.C,U8*%
X46661500Y-34206500D02*
X46661500Y-34543250D01*
X46661500Y-35793500D02*
X46661500Y-35456750D01*
X47020750Y-34206500D02*
X46661500Y-34206500D01*
X47020750Y-35793500D02*
X46661500Y-35793500D01*
X47979250Y-35793500D02*
X48338500Y-35793500D01*
X48338500Y-35793500D02*
X48338500Y-35456750D01*
D13*
X48318500Y-34326500D02*
G75*
G02*
X48118500Y-34326500I-100000J0D01*
G01*
X48118500Y-34326500D02*
G75*
G02*
X48318500Y-34326500I100000J0D01*
G01*
D12*
%TO.C,TP6*%
X29750000Y-25900000D02*
G75*
G02*
X27350000Y-25900000I-1200000J0D01*
G01*
X27350000Y-25900000D02*
G75*
G02*
X29750000Y-25900000I1200000J0D01*
G01*
%TO.C,TP1*%
X25300000Y-22600000D02*
G75*
G02*
X22900000Y-22600000I-1200000J0D01*
G01*
X22900000Y-22600000D02*
G75*
G02*
X25300000Y-22600000I1200000J0D01*
G01*
%TO.C,TP8*%
X33400000Y-22600000D02*
G75*
G02*
X31000000Y-22600000I-1200000J0D01*
G01*
X31000000Y-22600000D02*
G75*
G02*
X33400000Y-22600000I1200000J0D01*
G01*
%TO.C,JP1*%
X64800000Y-35150001D02*
X64800000Y-32350001D01*
X64800000Y-32350001D02*
X62800000Y-32350001D01*
X62800000Y-35150001D02*
X64800000Y-35150001D01*
X62800000Y-32350001D02*
X62800000Y-35150001D01*
%TO.C,J3*%
X59080000Y-38680000D02*
X59080000Y-35920000D01*
X64270000Y-35920000D02*
X59080000Y-35920000D01*
X64270000Y-38680000D02*
X59080000Y-38680000D01*
X64270000Y-38680000D02*
X64270000Y-35920000D01*
X65540000Y-38679999D02*
X66920000Y-38680000D01*
X66920000Y-38680000D02*
X66919999Y-37300000D01*
%TO.C,U3*%
X76800000Y-25925000D02*
X70800000Y-25925000D01*
X76790000Y-20705000D02*
X70800000Y-20705000D01*
X77510000Y-21005000D02*
X77030000Y-21005000D01*
X77030000Y-20525000D01*
X77510000Y-21005000D01*
G36*
X77510000Y-21005000D02*
G01*
X77030000Y-21005000D01*
X77030000Y-20525000D01*
X77510000Y-21005000D01*
G37*
%TO.C,C26*%
X85892164Y-35440000D02*
X86107836Y-35440000D01*
X85892164Y-36160000D02*
X86107836Y-36160000D01*
%TD*%
M02*
