M48
; DRILL file {KiCad 9.0.3} date 2025-07-16T18:33:37-0400
; FORMAT={-:-/ absolute / metric / decimal}
; #@! TF.CreationDate,2025-07-16T18:33:37-04:00
; #@! TF.GenerationSoftware,Kicad,Pcbnew,9.0.3
; #@! TF.FileFunction,Plated,1,4,PTH
FMAT,2
METRIC
; #@! TA.AperFunction,Plated,PTH,ViaDrill
T1C0.200
; #@! TA.AperFunction,Plated,PTH,ViaDrill
T2C0.300
; #@! TA.AperFunction,Plated,PTH,ComponentDrill
T3C0.600
; #@! TA.AperFunction,Plated,PTH,ComponentDrill
T4C0.750
; #@! TA.AperFunction,Plated,PTH,ComponentDrill
T5C1.000
; #@! TA.AperFunction,Plated,PTH,ComponentDrill
T6C3.050
%
G90
G05
T1
X62.75Y-27.45
X63.75Y-27.45
X70.1Y-20.8
X70.23Y-28.89
X70.23Y-27.475
X70.93Y-27.485
X70.931Y-28.89
X71.631Y-28.25
X72.331Y-28.25
X73.02Y-27.49
X73.02Y-28.89
X76.1Y-32.8
X77.78Y-30.8
X77.8Y-34.425
X78.3Y-24.8
X78.3Y-25.735
X78.3Y-26.375
X78.3Y-27.8
X78.3Y-28.5
X79.625Y-35.2
X80.3Y-27.1
X80.3Y-27.8
X80.3Y-28.5
X80.3Y-29.2
X80.3Y-29.9
X80.3Y-30.6
X80.3Y-31.3
X80.3Y-32.0
X81.075Y-35.2
X82.5Y-31.3
X82.5Y-32.0
T2
X60.6Y-26.45
X62.05Y-31.137
X63.0Y-28.862
X63.95Y-31.137
X65.4Y-26.45
T4
X42.9Y-22.25
X44.9Y-22.25
T5
X42.625Y-37.2
X45.165Y-37.2
X60.46Y-37.3
X63.0Y-37.3
X65.54Y-37.3
T6
X27.16Y-34.78
X33.51Y-32.24
X93.76Y-34.78
X100.11Y-32.24
T3
G00X57.05Y-21.3
M15
G01X57.05Y-22.3
M16
G05
G00X57.05Y-24.9
M15
G01X57.05Y-25.7
M16
G05
G00X68.95Y-21.3
M15
G01X68.95Y-22.3
M16
G05
G00X68.95Y-24.9
M15
G01X68.95Y-25.7
M16
G05
M30
