M48
; DRILL file {KiCad 9.0.3} date 2025-07-19T05:00:43-0400
; FORMAT={-:-/ absolute / inch / decimal}
; #@! TF.CreationDate,2025-07-19T05:00:43-04:00
; #@! TF.GenerationSoftware,Kicad,Pcbnew,9.0.3
; #@! TF.FileFunction,Plated,1,4,PTH
FMAT,2
INCH
; #@! TA.AperFunction,Plated,PTH,ViaDrill
T1C0.0079
; #@! TA.AperFunction,Plated,PTH,ComponentDrill
T2C0.0236
; #@! TA.AperFunction,Plated,PTH,ComponentDrill
T3C0.0287
; #@! TA.AperFunction,Plated,PTH,ComponentDrill
T4C0.0295
; #@! TA.AperFunction,Plated,PTH,ComponentDrill
T5C0.1201
%
G90
G05
T1
X0.9094Y-0.9646
X1.061Y-1.4409
X1.0614Y-1.2902
X1.2756Y-1.4331
X1.3425Y-1.3386
X1.5768Y-1.0925
X1.5768Y-1.25
X1.9006Y-1.0226
X1.9419Y-1.4902
X1.9618Y-1.0224
X1.9646Y-1.4902
X1.9665Y-1.1398
X1.9685Y-0.8661
X1.9843Y-1.1398
X1.9972Y-1.2543
X2.0016Y-1.1972
X2.002Y-1.4341
X2.002Y-1.4567
X2.002Y-1.4803
X2.0055Y-0.9193
X2.0055Y-0.939
X2.0056Y-0.9
X2.0069Y-1.4045
X2.0157Y-0.8268
X2.0177Y-1.2543
X2.0209Y-1.1972
X2.0251Y-0.9193
X2.0251Y-0.939
X2.0252Y-0.9
X2.0276Y-1.0669
X2.028Y-1.0874
X2.0433Y-1.4006
X2.0449Y-0.9193
X2.0449Y-0.939
X2.045Y-0.9
X2.0472Y-1.0669
X2.0512Y-0.8268
X2.0512Y-1.0413
X2.0551Y-1.2717
X2.065Y-1.3789
X2.0748Y-0.8622
X2.1063Y-0.8268
X2.1063Y-1.3307
X2.1102Y-0.9183
X2.1143Y-1.0669
X2.1201Y-1.4941
X2.1378Y-0.8278
X2.1437Y-1.1339
X2.1516Y-1.2551
X2.1929Y-0.8937
X2.1929Y-0.9173
X2.1929Y-1.0236
X2.1933Y-0.8713
X2.2041Y-1.2835
X2.2067Y-1.4272
X2.2268Y-1.2835
X2.2283Y-1.1724
X2.2461Y-0.9281
X2.2494Y-1.2835
X2.25Y-1.1161
X2.2648Y-1.3848
X2.272Y-1.2835
X2.2756Y-1.0906
X2.2756Y-1.1161
X2.2756Y-1.3091
X2.2815Y-1.2224
X2.2835Y-1.5089
X2.3051Y-1.3957
X2.3189Y-1.0925
X2.3317Y-1.4882
X2.3337Y-1.2372
X2.348Y-1.1394
X2.3543Y-1.0659
X2.3543Y-1.4882
X2.3679Y-1.1203
X2.3858Y-1.0413
X2.3984Y-1.3693
X2.4041Y-1.1195
X2.424Y-1.5181
X2.437Y-1.3287
X2.4508Y-1.0728
X2.4587Y-1.3504
X2.4594Y-1.3075
X2.4795Y-1.1516
X2.4803Y-1.1102
X2.4803Y-1.2854
X2.4803Y-1.3287
X2.4803Y-1.372
X2.4902Y-1.0728
X2.5016Y-1.3071
X2.502Y-1.3496
X2.5236Y-1.3287
X2.5295Y-1.0807
X2.5398Y-1.1323
X2.5433Y-1.5118
X2.5567Y-1.1157
X2.5724Y-1.1
X2.5748Y-1.0413
X2.5849Y-1.1466
X2.5949Y-1.4646
X2.6044Y-1.1661
X2.6079Y-1.1142
X2.6122Y-1.4852
X2.6444Y-1.1535
X2.6646Y-1.1201
X2.685Y-1.4449
X2.687Y-1.2795
X2.6898Y-1.1201
X2.6929Y-1.3563
X2.6949Y-1.3819
X2.6986Y-1.463
X2.7146Y-0.9281
X2.715Y-1.4787
X2.7197Y-1.1201
X2.7197Y-1.1476
X2.7197Y-1.1752
X2.7421Y-1.3366
X2.7451Y-1.3839
X2.7584Y-0.876
X2.7677Y-1.1201
X2.7677Y-1.1752
X2.7846Y-1.4646
X2.7879Y-0.8287
X2.8051Y-1.3268
X2.8253Y-0.9193
X2.8283Y-1.1201
X2.8414Y-0.9705
X2.8445Y-1.4114
X2.8627Y-0.8297
X2.8627Y-0.9567
X2.9008Y-0.9197
X2.9291Y-0.811
X2.9547Y-0.9449
X2.9547Y-1.0433
X2.9626Y-0.874
X2.9882Y-1.1969
X3.0059Y-1.1791
X3.0098Y-0.9217
X3.0108Y-1.4567
X3.0236Y-1.2146
X3.0453Y-1.122
X3.0453Y-1.1791
X3.0453Y-1.2047
X3.0508Y-1.3051
X3.0551Y-0.874
X3.0906Y-0.811
X3.0994Y-1.4606
X3.1122Y-1.0945
X3.1122Y-1.122
X3.2126Y-1.4882
X3.2244Y-0.9843
X3.5321Y-1.1699
X3.6831Y-1.3004
X3.8976Y-1.437
X3.9587Y-1.3386
T3
X1.6988Y-1.4577
X1.7579Y-1.4577
T4
X1.6929Y-0.9035
X1.7717Y-0.9035
T5
X1.0193Y-1.0693
X1.2693Y-0.9693
X3.6413Y-1.0693
X3.8913Y-0.9693
T2
G00X2.2461Y-0.8386
M15
G01X2.2461Y-0.878
M16
G05
G00X2.2461Y-0.9803
M15
G01X2.2461Y-1.0118
M16
G05
G00X2.7146Y-0.8386
M15
G01X2.7146Y-0.878
M16
G05
G00X2.7146Y-0.9803
M15
G01X2.7146Y-1.0118
M16
G05
M30
