%TF.GenerationSoftware,KiCad,Pcbnew,9.0.3*%
%TF.CreationDate,2025-07-19T05:00:43-04:00*%
%TF.ProjectId,board,626f6172-642e-46b6-9963-61645f706362,rev?*%
%TF.SameCoordinates,Original*%
%TF.FileFunction,Soldermask,Bot*%
%TF.FilePolarity,Negative*%
%FSLAX46Y46*%
G04 Gerber Fmt 4.6, Leading zero omitted, Abs format (unit mm)*
G04 Created by KiCad (PCBNEW 9.0.3) date 2025-07-19 05:00:43*
%MOMM*%
%LPD*%
G01*
G04 APERTURE LIST*
G04 Aperture macros list*
%AMRoundRect*
0 Rectangle with rounded corners*
0 $1 Rounding radius*
0 $2 $3 $4 $5 $6 $7 $8 $9 X,Y pos of 4 corners*
0 Add a 4 corners polygon primitive as box body*
4,1,4,$2,$3,$4,$5,$6,$7,$8,$9,$2,$3,0*
0 Add four circle primitives for the rounded corners*
1,1,$1+$1,$2,$3*
1,1,$1+$1,$4,$5*
1,1,$1+$1,$6,$7*
1,1,$1+$1,$8,$9*
0 Add four rect primitives between the rounded corners*
20,1,$1+$1,$2,$3,$4,$5,0*
20,1,$1+$1,$4,$5,$6,$7,0*
20,1,$1+$1,$6,$7,$8,$9,0*
20,1,$1+$1,$8,$9,$2,$3,0*%
%AMRotRect*
0 Rectangle, with rotation*
0 The origin of the aperture is its center*
0 $1 length*
0 $2 width*
0 $3 Rotation angle, in degrees counterclockwise*
0 Add horizontal line*
21,1,$1,$2,0,0,$3*%
%AMFreePoly0*
4,1,18,-0.410000,0.593000,-0.403758,0.624380,-0.385983,0.650983,-0.359380,0.668758,-0.328000,0.675000,0.328000,0.675000,0.359380,0.668758,0.385983,0.650983,0.403758,0.624380,0.410000,0.593000,0.410000,-0.593000,0.403758,-0.624380,0.385983,-0.650983,0.359380,-0.668758,0.328000,-0.675000,0.000000,-0.675000,-0.410000,-0.265000,-0.410000,0.593000,-0.410000,0.593000,$1*%
G04 Aperture macros list end*
%ADD10R,1.000000X1.000000*%
%ADD11RoundRect,0.250000X-0.350000X-0.625000X0.350000X-0.625000X0.350000X0.625000X-0.350000X0.625000X0*%
%ADD12O,1.200000X1.750000*%
%ADD13RoundRect,0.250000X0.265000X0.615000X-0.265000X0.615000X-0.265000X-0.615000X0.265000X-0.615000X0*%
%ADD14O,1.030000X1.730000*%
%ADD15RoundRect,0.250000X-1.025000X-1.000000X1.025000X-1.000000X1.025000X1.000000X-1.025000X1.000000X0*%
%ADD16C,1.750000*%
%ADD17C,4.000000*%
%ADD18C,3.600000*%
%ADD19RoundRect,0.100000X0.100000X-0.130000X0.100000X0.130000X-0.100000X0.130000X-0.100000X-0.130000X0*%
%ADD20RoundRect,0.140000X0.140000X0.170000X-0.140000X0.170000X-0.140000X-0.170000X0.140000X-0.170000X0*%
%ADD21RoundRect,0.100000X-0.130000X-0.100000X0.130000X-0.100000X0.130000X0.100000X-0.130000X0.100000X0*%
%ADD22RoundRect,0.100000X-0.162635X0.021213X0.021213X-0.162635X0.162635X-0.021213X-0.021213X0.162635X0*%
%ADD23RoundRect,0.100000X0.162635X-0.021213X-0.021213X0.162635X-0.162635X0.021213X0.021213X-0.162635X0*%
%ADD24RoundRect,0.100000X0.130000X0.100000X-0.130000X0.100000X-0.130000X-0.100000X0.130000X-0.100000X0*%
%ADD25RoundRect,0.050000X0.309359X-0.238649X-0.238649X0.309359X-0.309359X0.238649X0.238649X-0.309359X0*%
%ADD26RoundRect,0.050000X0.309359X0.238649X0.238649X0.309359X-0.309359X-0.238649X-0.238649X-0.309359X0*%
%ADD27RotRect,3.200000X3.200000X135.000000*%
%ADD28RoundRect,0.225000X0.250000X-0.225000X0.250000X0.225000X-0.250000X0.225000X-0.250000X-0.225000X0*%
%ADD29RoundRect,0.218750X0.218750X0.256250X-0.218750X0.256250X-0.218750X-0.256250X0.218750X-0.256250X0*%
%ADD30RoundRect,0.225000X-0.225000X-0.250000X0.225000X-0.250000X0.225000X0.250000X-0.225000X0.250000X0*%
%ADD31RoundRect,0.162500X0.162500X-0.650000X0.162500X0.650000X-0.162500X0.650000X-0.162500X-0.650000X0*%
%ADD32RoundRect,0.225000X-0.250000X0.225000X-0.250000X-0.225000X0.250000X-0.225000X0.250000X0.225000X0*%
%ADD33RoundRect,0.100000X-0.100000X0.130000X-0.100000X-0.130000X0.100000X-0.130000X0.100000X0.130000X0*%
%ADD34C,0.270000*%
%ADD35RoundRect,0.225000X0.225000X0.250000X-0.225000X0.250000X-0.225000X-0.250000X0.225000X-0.250000X0*%
%ADD36RoundRect,0.062500X-0.375000X-0.062500X0.375000X-0.062500X0.375000X0.062500X-0.375000X0.062500X0*%
%ADD37RoundRect,0.062500X-0.062500X-0.375000X0.062500X-0.375000X0.062500X0.375000X-0.062500X0.375000X0*%
%ADD38R,1.600000X1.600000*%
%ADD39C,0.900000*%
%ADD40RoundRect,0.135000X-0.315000X-0.365000X0.315000X-0.365000X0.315000X0.365000X-0.315000X0.365000X0*%
%ADD41RoundRect,0.082500X-0.767500X-0.192500X0.767500X-0.192500X0.767500X0.192500X-0.767500X0.192500X0*%
%ADD42RoundRect,0.250000X-0.450000X-0.350000X0.450000X-0.350000X0.450000X0.350000X-0.450000X0.350000X0*%
%ADD43RoundRect,0.150000X-0.512500X-0.150000X0.512500X-0.150000X0.512500X0.150000X-0.512500X0.150000X0*%
%ADD44RoundRect,0.100000X-0.021213X-0.162635X0.162635X0.021213X0.021213X0.162635X-0.162635X-0.021213X0*%
%ADD45RoundRect,0.102000X-0.300000X-0.550000X0.300000X-0.550000X0.300000X0.550000X-0.300000X0.550000X0*%
%ADD46RoundRect,0.102000X-0.150000X-0.550000X0.150000X-0.550000X0.150000X0.550000X-0.150000X0.550000X0*%
%ADD47O,1.204000X2.004000*%
%ADD48O,1.204000X2.204000*%
%ADD49R,2.000000X0.350000*%
%ADD50RoundRect,0.150000X-0.587500X-0.150000X0.587500X-0.150000X0.587500X0.150000X-0.587500X0.150000X0*%
%ADD51R,1.700000X0.800000*%
%ADD52RoundRect,0.150000X0.150000X-0.512500X0.150000X0.512500X-0.150000X0.512500X-0.150000X-0.512500X0*%
%ADD53RoundRect,0.150000X0.512500X0.150000X-0.512500X0.150000X-0.512500X-0.150000X0.512500X-0.150000X0*%
%ADD54C,0.210000*%
%ADD55RoundRect,0.112500X0.187500X0.112500X-0.187500X0.112500X-0.187500X-0.112500X0.187500X-0.112500X0*%
%ADD56RoundRect,0.100000X0.021213X0.162635X-0.162635X-0.021213X-0.021213X-0.162635X0.162635X0.021213X0*%
%ADD57RoundRect,0.082000X0.593000X-0.328000X0.593000X0.328000X-0.593000X0.328000X-0.593000X-0.328000X0*%
%ADD58FreePoly0,90.000000*%
G04 APERTURE END LIST*
D10*
%TO.C,TP3*%
X40050000Y-31750000D03*
%TD*%
%TO.C,TP1*%
X40050000Y-29750000D03*
%TD*%
D11*
%TO.C,J2*%
X43000000Y-22950000D03*
D12*
X45000001Y-22950000D03*
%TD*%
D13*
%TO.C,J3*%
X44650000Y-37025000D03*
D14*
X43150000Y-37025000D03*
%TD*%
D15*
%TO.C,SW1*%
X22615000Y-27160000D03*
D16*
X24620001Y-29700000D03*
D17*
X29700000Y-29700000D03*
D16*
X34779999Y-29700000D03*
D15*
X35542000Y-24620000D03*
D18*
X25890000Y-27160000D03*
X32240000Y-24620000D03*
%TD*%
D15*
%TO.C,SW2*%
X89215000Y-27160000D03*
D16*
X91220001Y-29700000D03*
D17*
X96300000Y-29700000D03*
D16*
X101379999Y-29700000D03*
D15*
X102142000Y-24620000D03*
D18*
X92490000Y-27160000D03*
X98840000Y-24620000D03*
%TD*%
D19*
%TO.C,R18*%
X52200000Y-31820000D03*
X52200000Y-31180000D03*
%TD*%
D20*
%TO.C,C22*%
X78450000Y-32330000D03*
X77490000Y-32330000D03*
%TD*%
D21*
%TO.C,C13*%
X69080000Y-29850000D03*
X69720000Y-29850000D03*
%TD*%
%TO.C,R21*%
X77855000Y-33850000D03*
X78495000Y-33850000D03*
%TD*%
%TO.C,C1*%
X69080000Y-29150000D03*
X69720000Y-29150000D03*
%TD*%
D22*
%TO.C,R5*%
X66817678Y-36317678D03*
X67270226Y-36770226D03*
%TD*%
D21*
%TO.C,R8*%
X69080000Y-33200001D03*
X69720000Y-33200001D03*
%TD*%
D23*
%TO.C,R19*%
X60526274Y-29826274D03*
X60073726Y-29373726D03*
%TD*%
D24*
%TO.C,C14*%
X57020000Y-34150000D03*
X56380000Y-34150000D03*
%TD*%
D22*
%TO.C,R20*%
X60568700Y-28878752D03*
X61021248Y-29331300D03*
%TD*%
D21*
%TO.C,C8*%
X67680000Y-27750000D03*
X68320000Y-27750000D03*
%TD*%
%TO.C,R13*%
X60280000Y-38300000D03*
X60920000Y-38300000D03*
%TD*%
%TO.C,C9*%
X67680000Y-29150000D03*
X68320000Y-29150000D03*
%TD*%
D24*
%TO.C,C34*%
X49900000Y-35700000D03*
X49260000Y-35700000D03*
%TD*%
D19*
%TO.C,C25*%
X77800000Y-30575000D03*
X77800000Y-29935000D03*
%TD*%
D24*
%TO.C,C10*%
X69720000Y-27750000D03*
X69080000Y-27750000D03*
%TD*%
D21*
%TO.C,R17*%
X71330000Y-37925000D03*
X71970000Y-37925000D03*
%TD*%
D25*
%TO.C,U2*%
X67269157Y-34342202D03*
X66986314Y-34625045D03*
X66703472Y-34907887D03*
X66420629Y-35190730D03*
X66137786Y-35473573D03*
X65854944Y-35756415D03*
X65572101Y-36039258D03*
X65289258Y-36322101D03*
X65006415Y-36604944D03*
X64723573Y-36887786D03*
X64440730Y-37170629D03*
X64157887Y-37453472D03*
X63875045Y-37736314D03*
X63592202Y-38019157D03*
D26*
X62407798Y-38019157D03*
X62124955Y-37736314D03*
X61842113Y-37453472D03*
X61559270Y-37170629D03*
X61276427Y-36887786D03*
X60993585Y-36604944D03*
X60710742Y-36322101D03*
X60427899Y-36039258D03*
X60145056Y-35756415D03*
X59862214Y-35473573D03*
X59579371Y-35190730D03*
X59296528Y-34907887D03*
X59013686Y-34625045D03*
X58730843Y-34342202D03*
D25*
X58730843Y-33157798D03*
X59013686Y-32874955D03*
X59296528Y-32592113D03*
X59579371Y-32309270D03*
X59862214Y-32026427D03*
X60145056Y-31743585D03*
X60427899Y-31460742D03*
X60710742Y-31177899D03*
X60993585Y-30895056D03*
X61276427Y-30612214D03*
X61559270Y-30329371D03*
X61842113Y-30046528D03*
X62124955Y-29763686D03*
X62407798Y-29480843D03*
D26*
X63592202Y-29480843D03*
X63875045Y-29763686D03*
X64157887Y-30046528D03*
X64440730Y-30329371D03*
X64723573Y-30612214D03*
X65006415Y-30895056D03*
X65289258Y-31177899D03*
X65572101Y-31460742D03*
X65854944Y-31743585D03*
X66137786Y-32026427D03*
X66420629Y-32309270D03*
X66703472Y-32592113D03*
X66986314Y-32874955D03*
X67269157Y-33157798D03*
D27*
X63000000Y-33750000D03*
%TD*%
D23*
%TO.C,C4*%
X59076274Y-31226274D03*
X58623726Y-30773726D03*
%TD*%
D28*
%TO.C,C17*%
X54299997Y-26275000D03*
X54299997Y-24725000D03*
%TD*%
D21*
%TO.C,C5*%
X69080000Y-34650000D03*
X69720000Y-34650000D03*
%TD*%
D29*
%TO.C,L2*%
X78727501Y-37860000D03*
X77152499Y-37860000D03*
%TD*%
D19*
%TO.C,R1*%
X57411213Y-36655000D03*
X57411213Y-36015000D03*
%TD*%
D30*
%TO.C,C33*%
X49425000Y-34600000D03*
X50975000Y-34600000D03*
%TD*%
D31*
%TO.C,U3*%
X75055000Y-33687500D03*
X73785000Y-33687500D03*
X72515000Y-33687500D03*
X71245000Y-33687500D03*
X71245000Y-26512500D03*
X72515000Y-26512500D03*
X73785000Y-26512500D03*
X75055000Y-26512500D03*
%TD*%
D32*
%TO.C,C35*%
X80500000Y-36225000D03*
X80500000Y-37775000D03*
%TD*%
D33*
%TO.C,R22*%
X77100000Y-33180000D03*
X77100000Y-33820000D03*
%TD*%
D19*
%TO.C,C28*%
X50950000Y-27100000D03*
X50950000Y-26460000D03*
%TD*%
D21*
%TO.C,C3*%
X66280000Y-27750000D03*
X66920000Y-27750000D03*
%TD*%
D33*
%TO.C,C15*%
X57411213Y-37660000D03*
X57411213Y-38300000D03*
%TD*%
D34*
%TO.C,U9*%
X50300000Y-36600000D03*
X49900000Y-36600000D03*
X49500000Y-36600000D03*
X50300000Y-37000000D03*
X49900000Y-37000000D03*
X49500000Y-37000000D03*
X50300000Y-37400000D03*
X49900000Y-37400000D03*
X49500000Y-37400000D03*
%TD*%
D20*
%TO.C,C26*%
X78450000Y-31410000D03*
X77490000Y-31410000D03*
%TD*%
D35*
%TO.C,C29*%
X50975000Y-32600000D03*
X49425000Y-32600000D03*
%TD*%
D36*
%TO.C,U4*%
X50000000Y-24100000D03*
X50000000Y-23600000D03*
X50000000Y-23100000D03*
X50000000Y-22600000D03*
D37*
X50687500Y-21912500D03*
X51187500Y-21912500D03*
X51687500Y-21912500D03*
X52187500Y-21912500D03*
D36*
X52875000Y-22600000D03*
X52875000Y-23100000D03*
X52875000Y-23600000D03*
X52875000Y-24100000D03*
D37*
X52187500Y-24787500D03*
X51687500Y-24787500D03*
X51187500Y-24787500D03*
X50687500Y-24787500D03*
D38*
X51437500Y-23350000D03*
%TD*%
D28*
%TO.C,C21*%
X48575001Y-23324999D03*
X48575001Y-21774999D03*
%TD*%
D21*
%TO.C,R11*%
X48280000Y-25100000D03*
X48920000Y-25100000D03*
%TD*%
D39*
%TO.C,SW3*%
X75475000Y-20650000D03*
X77425000Y-20650000D03*
D40*
X74400001Y-22200000D03*
X78499999Y-22200000D03*
X74400001Y-20600000D03*
X78499999Y-20600000D03*
D41*
X76450000Y-22825000D03*
%TD*%
D24*
%TO.C,C6*%
X60120000Y-27750000D03*
X59480000Y-27750000D03*
%TD*%
D42*
%TO.C,Y1*%
X53850000Y-36250000D03*
X56050000Y-36250000D03*
X56050000Y-37950000D03*
X53850000Y-37950000D03*
%TD*%
D19*
%TO.C,C23*%
X78500000Y-30570000D03*
X78500000Y-29930000D03*
%TD*%
D24*
%TO.C,C19*%
X75050000Y-24550000D03*
X74410000Y-24550000D03*
%TD*%
%TO.C,R3*%
X62520000Y-28200000D03*
X61880000Y-28200000D03*
%TD*%
D21*
%TO.C,R14*%
X77830000Y-29200000D03*
X78470000Y-29200000D03*
%TD*%
%TO.C,C32*%
X71330000Y-37200000D03*
X71970000Y-37200000D03*
%TD*%
D23*
%TO.C,R4*%
X67770226Y-36270226D03*
X67317678Y-35817678D03*
%TD*%
D43*
%TO.C,U7*%
X53500000Y-33249999D03*
X53500000Y-32300000D03*
X53500000Y-31350001D03*
X55775000Y-31350001D03*
X55775000Y-33249999D03*
%TD*%
D19*
%TO.C,R10*%
X55710000Y-24895000D03*
X55710000Y-24255000D03*
%TD*%
%TO.C,R16*%
X56050000Y-30420000D03*
X56050000Y-29780000D03*
%TD*%
D21*
%TO.C,C12*%
X67680000Y-28450000D03*
X68320000Y-28450000D03*
%TD*%
D10*
%TO.C,TP2*%
X40050000Y-27750000D03*
%TD*%
D24*
%TO.C,C11*%
X69720000Y-28450000D03*
X69080000Y-28450000D03*
%TD*%
D21*
%TO.C,R9*%
X69080000Y-32500005D03*
X69720000Y-32500005D03*
%TD*%
D24*
%TO.C,C2*%
X57020000Y-34850000D03*
X56380000Y-34850000D03*
%TD*%
D44*
%TO.C,R6*%
X65698701Y-30071249D03*
X66151249Y-29618701D03*
%TD*%
D45*
%TO.C,J1*%
X59800000Y-26450000D03*
X60600000Y-26450000D03*
D46*
X61750000Y-26450000D03*
X62750000Y-26450000D03*
X63250000Y-26450000D03*
X64250000Y-26450000D03*
D45*
X66200000Y-26450000D03*
X65400000Y-26450000D03*
D46*
X64750000Y-26450000D03*
X63750000Y-26450000D03*
X62250000Y-26450000D03*
X61250000Y-26450000D03*
D47*
X57050000Y-25300000D03*
X68950000Y-25300000D03*
D48*
X57050000Y-21800000D03*
X68950000Y-21800000D03*
%TD*%
D49*
%TO.C,DS1*%
X80300000Y-32700000D03*
X80300000Y-32000000D03*
X80300000Y-31300000D03*
X80300000Y-30600000D03*
X80300000Y-29900000D03*
X80300000Y-29200000D03*
X80300000Y-28500000D03*
X80300000Y-27800000D03*
X80300000Y-27100000D03*
X80300000Y-26400000D03*
X80300000Y-25700000D03*
X80300000Y-25000000D03*
X80300000Y-24300000D03*
%TD*%
D50*
%TO.C,U5*%
X53702500Y-29750000D03*
X53702500Y-27850000D03*
X55577500Y-28800000D03*
%TD*%
D30*
%TO.C,C31*%
X70000000Y-36125000D03*
X71550000Y-36125000D03*
%TD*%
D24*
%TO.C,R12*%
X48920000Y-24400000D03*
X48280000Y-24400000D03*
%TD*%
D35*
%TO.C,C27*%
X49825000Y-26800000D03*
X48275000Y-26800000D03*
%TD*%
D51*
%TO.C,L1*%
X48850000Y-28300001D03*
X48850000Y-29600001D03*
%TD*%
D52*
%TO.C,U1*%
X72712500Y-23350000D03*
X71762501Y-23350000D03*
X70812502Y-23350000D03*
X70812502Y-21075000D03*
X71762501Y-21075000D03*
X72712500Y-21075000D03*
%TD*%
D19*
%TO.C,C16*%
X52500000Y-37420001D03*
X52500000Y-36780001D03*
%TD*%
D22*
%TO.C,C7*%
X65473726Y-37673726D03*
X65926274Y-38126274D03*
%TD*%
D21*
%TO.C,R15*%
X77830000Y-28500000D03*
X78470000Y-28500000D03*
%TD*%
D53*
%TO.C,U8*%
X75537500Y-36050001D03*
X75537500Y-37000000D03*
X75537500Y-37949999D03*
X73262500Y-37949999D03*
X73262500Y-37000000D03*
X73262500Y-36050001D03*
%TD*%
D54*
%TO.C,U6*%
X51937500Y-28150000D03*
X51537500Y-28150001D03*
X51137500Y-28150000D03*
X51937500Y-28550000D03*
X51537500Y-28550000D03*
X51137500Y-28550000D03*
X51937500Y-28950000D03*
X51537500Y-28950000D03*
X51137500Y-28950000D03*
X51937500Y-29350000D03*
X51537500Y-29350000D03*
X51137500Y-29350000D03*
X51937500Y-29750000D03*
X51537500Y-29749999D03*
X51137500Y-29750000D03*
%TD*%
D55*
%TO.C,D3*%
X79150000Y-36160000D03*
X77050000Y-36160000D03*
%TD*%
D56*
%TO.C,R7*%
X65656274Y-29123726D03*
X65203726Y-29576274D03*
%TD*%
D24*
%TO.C,R2*%
X64120000Y-28200000D03*
X63480000Y-28200000D03*
%TD*%
D57*
%TO.C,D1*%
X26950000Y-34000000D03*
X26950000Y-35500000D03*
X32400000Y-34000000D03*
D58*
X32400000Y-35500000D03*
%TD*%
D19*
%TO.C,C18*%
X52950000Y-26120000D03*
X52950000Y-25480000D03*
%TD*%
D24*
%TO.C,C24*%
X78500000Y-33150000D03*
X77860000Y-33150000D03*
%TD*%
D35*
%TO.C,C30*%
X50975000Y-31100000D03*
X49425000Y-31100000D03*
%TD*%
D57*
%TO.C,D2*%
X93550000Y-34000000D03*
X93550000Y-35500000D03*
X99000000Y-34000000D03*
D58*
X99000000Y-35500000D03*
%TD*%
D32*
%TO.C,C20*%
X54300000Y-21774999D03*
X54300000Y-23324999D03*
%TD*%
M02*
