%TF.GenerationSoftware,KiCad,Pcbnew,9.0.3*%
%TF.CreationDate,2025-07-18T02:06:41-04:00*%
%TF.ProjectId,board,626f6172-642e-46b6-9963-61645f706362,rev?*%
%TF.SameCoordinates,Original*%
%TF.FileFunction,Copper,L4,Bot*%
%TF.FilePolarity,Positive*%
%FSLAX46Y46*%
G04 Gerber Fmt 4.6, Leading zero omitted, Abs format (unit mm)*
G04 Created by KiCad (PCBNEW 9.0.3) date 2025-07-18 02:06:41*
%MOMM*%
%LPD*%
G01*
G04 APERTURE LIST*
G04 Aperture macros list*
%AMRoundRect*
0 Rectangle with rounded corners*
0 $1 Rounding radius*
0 $2 $3 $4 $5 $6 $7 $8 $9 X,Y pos of 4 corners*
0 Add a 4 corners polygon primitive as box body*
4,1,4,$2,$3,$4,$5,$6,$7,$8,$9,$2,$3,0*
0 Add four circle primitives for the rounded corners*
1,1,$1+$1,$2,$3*
1,1,$1+$1,$4,$5*
1,1,$1+$1,$6,$7*
1,1,$1+$1,$8,$9*
0 Add four rect primitives between the rounded corners*
20,1,$1+$1,$2,$3,$4,$5,0*
20,1,$1+$1,$4,$5,$6,$7,0*
20,1,$1+$1,$6,$7,$8,$9,0*
20,1,$1+$1,$8,$9,$2,$3,0*%
%AMRotRect*
0 Rectangle, with rotation*
0 The origin of the aperture is its center*
0 $1 length*
0 $2 width*
0 $3 Rotation angle, in degrees counterclockwise*
0 Add horizontal line*
21,1,$1,$2,0,0,$3*%
%AMFreePoly0*
4,1,18,-0.410000,0.593000,-0.403758,0.624380,-0.385983,0.650983,-0.359380,0.668758,-0.328000,0.675000,0.328000,0.675000,0.359380,0.668758,0.385983,0.650983,0.403758,0.624380,0.410000,0.593000,0.410000,-0.593000,0.403758,-0.624380,0.385983,-0.650983,0.359380,-0.668758,0.328000,-0.675000,0.000000,-0.675000,-0.410000,-0.265000,-0.410000,0.593000,-0.410000,0.593000,$1*%
G04 Aperture macros list end*
%TA.AperFunction,Conductor*%
%ADD10C,0.200000*%
%TD*%
%TA.AperFunction,EtchedComponent*%
%ADD11C,0.000000*%
%TD*%
%TA.AperFunction,ComponentPad*%
%ADD12RoundRect,0.250000X-0.350000X-0.625000X0.350000X-0.625000X0.350000X0.625000X-0.350000X0.625000X0*%
%TD*%
%TA.AperFunction,ComponentPad*%
%ADD13O,1.200000X1.750000*%
%TD*%
%TA.AperFunction,ComponentPad*%
%ADD14R,1.700000X1.700000*%
%TD*%
%TA.AperFunction,ComponentPad*%
%ADD15C,1.700000*%
%TD*%
%TA.AperFunction,SMDPad,CuDef*%
%ADD16RoundRect,0.250000X-1.525000X-1.000000X1.525000X-1.000000X1.525000X1.000000X-1.525000X1.000000X0*%
%TD*%
%TA.AperFunction,ComponentPad*%
%ADD17C,3.600000*%
%TD*%
%TA.AperFunction,SMDPad,CuDef*%
%ADD18RoundRect,0.100000X0.100000X-0.130000X0.100000X0.130000X-0.100000X0.130000X-0.100000X-0.130000X0*%
%TD*%
%TA.AperFunction,SMDPad,CuDef*%
%ADD19RoundRect,0.140000X0.140000X0.170000X-0.140000X0.170000X-0.140000X-0.170000X0.140000X-0.170000X0*%
%TD*%
%TA.AperFunction,SMDPad,CuDef*%
%ADD20C,0.296800*%
%TD*%
%TA.AperFunction,SMDPad,CuDef*%
%ADD21RoundRect,0.100000X-0.130000X-0.100000X0.130000X-0.100000X0.130000X0.100000X-0.130000X0.100000X0*%
%TD*%
%TA.AperFunction,SMDPad,CuDef*%
%ADD22RoundRect,0.100000X0.130000X0.100000X-0.130000X0.100000X-0.130000X-0.100000X0.130000X-0.100000X0*%
%TD*%
%TA.AperFunction,SMDPad,CuDef*%
%ADD23RoundRect,0.100000X-0.162635X0.021213X0.021213X-0.162635X0.162635X-0.021213X-0.021213X0.162635X0*%
%TD*%
%TA.AperFunction,SMDPad,CuDef*%
%ADD24RoundRect,0.100000X0.162635X-0.021213X-0.021213X0.162635X-0.162635X0.021213X0.021213X-0.162635X0*%
%TD*%
%TA.AperFunction,SMDPad,CuDef*%
%ADD25RoundRect,0.050000X0.309359X-0.238649X-0.238649X0.309359X-0.309359X0.238649X0.238649X-0.309359X0*%
%TD*%
%TA.AperFunction,SMDPad,CuDef*%
%ADD26RoundRect,0.050000X0.309359X0.238649X0.238649X0.309359X-0.309359X-0.238649X-0.238649X-0.309359X0*%
%TD*%
%TA.AperFunction,HeatsinkPad*%
%ADD27RotRect,3.200000X3.200000X135.000000*%
%TD*%
%TA.AperFunction,SMDPad,CuDef*%
%ADD28RoundRect,0.225000X0.250000X-0.225000X0.250000X0.225000X-0.250000X0.225000X-0.250000X-0.225000X0*%
%TD*%
%TA.AperFunction,SMDPad,CuDef*%
%ADD29RoundRect,0.218750X-0.256250X0.218750X-0.256250X-0.218750X0.256250X-0.218750X0.256250X0.218750X0*%
%TD*%
%TA.AperFunction,SMDPad,CuDef*%
%ADD30RoundRect,0.225000X-0.225000X-0.250000X0.225000X-0.250000X0.225000X0.250000X-0.225000X0.250000X0*%
%TD*%
%TA.AperFunction,SMDPad,CuDef*%
%ADD31RoundRect,0.162500X0.162500X-0.650000X0.162500X0.650000X-0.162500X0.650000X-0.162500X-0.650000X0*%
%TD*%
%TA.AperFunction,SMDPad,CuDef*%
%ADD32RoundRect,0.100000X-0.100000X0.130000X-0.100000X-0.130000X0.100000X-0.130000X0.100000X0.130000X0*%
%TD*%
%TA.AperFunction,SMDPad,CuDef*%
%ADD33C,0.270000*%
%TD*%
%TA.AperFunction,SMDPad,CuDef*%
%ADD34RoundRect,0.225000X0.225000X0.250000X-0.225000X0.250000X-0.225000X-0.250000X0.225000X-0.250000X0*%
%TD*%
%TA.AperFunction,SMDPad,CuDef*%
%ADD35RoundRect,0.062500X-0.375000X-0.062500X0.375000X-0.062500X0.375000X0.062500X-0.375000X0.062500X0*%
%TD*%
%TA.AperFunction,SMDPad,CuDef*%
%ADD36RoundRect,0.062500X-0.062500X-0.375000X0.062500X-0.375000X0.062500X0.375000X-0.062500X0.375000X0*%
%TD*%
%TA.AperFunction,HeatsinkPad*%
%ADD37R,1.600000X1.600000*%
%TD*%
%TA.AperFunction,SMDPad,CuDef*%
%ADD38RoundRect,0.135000X-0.315000X-0.365000X0.315000X-0.365000X0.315000X0.365000X-0.315000X0.365000X0*%
%TD*%
%TA.AperFunction,SMDPad,CuDef*%
%ADD39RoundRect,0.082500X-0.767500X-0.192500X0.767500X-0.192500X0.767500X0.192500X-0.767500X0.192500X0*%
%TD*%
%TA.AperFunction,SMDPad,CuDef*%
%ADD40RoundRect,0.250000X-0.450000X-0.350000X0.450000X-0.350000X0.450000X0.350000X-0.450000X0.350000X0*%
%TD*%
%TA.AperFunction,SMDPad,CuDef*%
%ADD41RoundRect,0.150000X-0.512500X-0.150000X0.512500X-0.150000X0.512500X0.150000X-0.512500X0.150000X0*%
%TD*%
%TA.AperFunction,SMDPad,CuDef*%
%ADD42RoundRect,0.100000X-0.021213X-0.162635X0.162635X0.021213X0.021213X0.162635X-0.162635X-0.021213X0*%
%TD*%
%TA.AperFunction,SMDPad,CuDef*%
%ADD43R,0.600000X1.100000*%
%TD*%
%TA.AperFunction,SMDPad,CuDef*%
%ADD44R,0.300000X1.100000*%
%TD*%
%TA.AperFunction,ComponentPad*%
%ADD45O,1.000000X1.800000*%
%TD*%
%TA.AperFunction,ComponentPad*%
%ADD46O,1.000000X2.000000*%
%TD*%
%TA.AperFunction,ConnectorPad*%
%ADD47R,2.000000X0.350000*%
%TD*%
%TA.AperFunction,SMDPad,CuDef*%
%ADD48RoundRect,0.137500X-0.662500X0.137500X-0.662500X-0.137500X0.662500X-0.137500X0.662500X0.137500X0*%
%TD*%
%TA.AperFunction,SMDPad,CuDef*%
%ADD49RoundRect,0.150000X0.150000X-0.512500X0.150000X0.512500X-0.150000X0.512500X-0.150000X-0.512500X0*%
%TD*%
%TA.AperFunction,SMDPad,CuDef*%
%ADD50RoundRect,0.112500X-0.187500X-0.112500X0.187500X-0.112500X0.187500X0.112500X-0.187500X0.112500X0*%
%TD*%
%TA.AperFunction,SMDPad,CuDef*%
%ADD51RoundRect,0.100000X0.021213X0.162635X-0.162635X-0.021213X-0.021213X-0.162635X0.162635X0.021213X0*%
%TD*%
%TA.AperFunction,SMDPad,CuDef*%
%ADD52RoundRect,0.082000X0.593000X-0.328000X0.593000X0.328000X-0.593000X0.328000X-0.593000X-0.328000X0*%
%TD*%
%TA.AperFunction,SMDPad,CuDef*%
%ADD53FreePoly0,90.000000*%
%TD*%
%TA.AperFunction,SMDPad,CuDef*%
%ADD54RoundRect,0.225000X-0.250000X0.225000X-0.250000X-0.225000X0.250000X-0.225000X0.250000X0.225000X0*%
%TD*%
%TA.AperFunction,ViaPad*%
%ADD55C,0.450000*%
%TD*%
%TA.AperFunction,Conductor*%
%ADD56C,0.800000*%
%TD*%
%TA.AperFunction,Conductor*%
%ADD57C,0.350000*%
%TD*%
%TA.AperFunction,Conductor*%
%ADD58C,0.400000*%
%TD*%
%TA.AperFunction,Conductor*%
%ADD59C,0.300000*%
%TD*%
%TA.AperFunction,Conductor*%
%ADD60C,0.500000*%
%TD*%
%TA.AperFunction,Conductor*%
%ADD61C,0.600000*%
%TD*%
G04 APERTURE END LIST*
D10*
%TO.N,VSYS*%
X87270000Y-37442222D02*
X87361454Y-37553999D01*
X87379546Y-38350000D01*
X87000000Y-38350000D01*
X86740000Y-38090000D01*
X86740000Y-37520000D01*
X86570000Y-37350000D01*
X85880000Y-37350000D01*
X85880000Y-36950000D01*
X86580002Y-36950000D01*
X86746669Y-36800000D01*
X87270000Y-36800000D01*
X87270000Y-37442222D01*
%TA.AperFunction,Conductor*%
G36*
X87270000Y-37442222D02*
G01*
X87361454Y-37553999D01*
X87379546Y-38350000D01*
X87000000Y-38350000D01*
X86740000Y-38090000D01*
X86740000Y-37520000D01*
X86570000Y-37350000D01*
X85880000Y-37350000D01*
X85880000Y-36950000D01*
X86580002Y-36950000D01*
X86746669Y-36800000D01*
X87270000Y-36800000D01*
X87270000Y-37442222D01*
G37*
%TD.AperFunction*%
%TO.N,VBUS*%
X54680000Y-24761251D02*
X53643018Y-25620000D01*
X52670000Y-25620000D01*
X52160000Y-25150000D01*
X52160000Y-24450000D01*
X53412000Y-24450000D01*
X53516000Y-24370000D01*
X54680000Y-24370000D01*
X54680000Y-24761251D01*
%TA.AperFunction,Conductor*%
G36*
X54680000Y-24761251D02*
G01*
X53643018Y-25620000D01*
X52670000Y-25620000D01*
X52160000Y-25150000D01*
X52160000Y-24450000D01*
X53412000Y-24450000D01*
X53516000Y-24370000D01*
X54680000Y-24370000D01*
X54680000Y-24761251D01*
G37*
%TD.AperFunction*%
%TO.N,GND*%
X52160000Y-21560000D02*
X53230000Y-21560000D01*
X53230000Y-22270000D01*
X52160000Y-22270000D01*
X52160000Y-21560000D01*
%TA.AperFunction,Conductor*%
G36*
X52160000Y-21560000D02*
G01*
X53230000Y-21560000D01*
X53230000Y-22270000D01*
X52160000Y-22270000D01*
X52160000Y-21560000D01*
G37*
%TD.AperFunction*%
%TO.N,3V3*%
X64994659Y-31494659D02*
X64700000Y-31200000D01*
X65270000Y-30630000D01*
X65851665Y-30630000D01*
X64994659Y-31494659D01*
%TA.AperFunction,Conductor*%
G36*
X64994659Y-31494659D02*
G01*
X64700000Y-31200000D01*
X65270000Y-30630000D01*
X65851665Y-30630000D01*
X64994659Y-31494659D01*
G37*
%TD.AperFunction*%
%TO.N,VSYS*%
X52140000Y-27188400D02*
X51580000Y-27726000D01*
X51580000Y-28190000D01*
X51049600Y-28190000D01*
X50640000Y-27796153D01*
X50640000Y-26970000D01*
X52140000Y-26970000D01*
X52140000Y-27188400D01*
%TA.AperFunction,Conductor*%
G36*
X52140000Y-27188400D02*
G01*
X51580000Y-27726000D01*
X51580000Y-28190000D01*
X51049600Y-28190000D01*
X50640000Y-27796153D01*
X50640000Y-26970000D01*
X52140000Y-26970000D01*
X52140000Y-27188400D01*
G37*
%TD.AperFunction*%
%TO.N,3V3*%
X66400000Y-27850000D02*
X65699669Y-27850000D01*
X64150000Y-29340000D01*
X64150000Y-29520000D01*
X63630000Y-30030000D01*
X63190000Y-29600000D01*
X62830000Y-29600000D01*
X62660000Y-29740000D01*
X61800000Y-28900000D01*
X64110376Y-28965636D01*
X64101134Y-28956039D01*
X65480000Y-27590000D01*
X66400000Y-27590000D01*
X66400000Y-27850000D01*
%TA.AperFunction,Conductor*%
G36*
X66400000Y-27850000D02*
G01*
X65699669Y-27850000D01*
X64150000Y-29340000D01*
X64150000Y-29520000D01*
X63630000Y-30030000D01*
X63190000Y-29600000D01*
X62830000Y-29600000D01*
X62660000Y-29740000D01*
X61800000Y-28900000D01*
X64110376Y-28965636D01*
X64101134Y-28956039D01*
X65480000Y-27590000D01*
X66400000Y-27590000D01*
X66400000Y-27850000D01*
G37*
%TD.AperFunction*%
%TO.N,VBAT*%
X49390000Y-23080000D02*
X50340000Y-23080000D01*
X50340000Y-23619527D01*
X49385000Y-23615000D01*
X49325000Y-23675000D01*
X48550000Y-23675000D01*
X48550000Y-22980000D01*
X49290000Y-22980000D01*
X49390000Y-23080000D01*
%TA.AperFunction,Conductor*%
G36*
X49390000Y-23080000D02*
G01*
X50340000Y-23080000D01*
X50340000Y-23619527D01*
X49385000Y-23615000D01*
X49325000Y-23675000D01*
X48550000Y-23675000D01*
X48550000Y-22980000D01*
X49290000Y-22980000D01*
X49390000Y-23080000D01*
G37*
%TD.AperFunction*%
%TO.N,GND*%
X48830000Y-28740000D02*
X50290000Y-28740000D01*
X50290000Y-29160000D01*
X48830000Y-29160000D01*
X48830000Y-28740000D01*
%TA.AperFunction,Conductor*%
G36*
X48830000Y-28740000D02*
G01*
X50290000Y-28740000D01*
X50290000Y-29160000D01*
X48830000Y-29160000D01*
X48830000Y-28740000D01*
G37*
%TD.AperFunction*%
%TO.N,3V3*%
X51580000Y-30450000D02*
X51410000Y-30620000D01*
X51410000Y-32990000D01*
X50560000Y-32990000D01*
X50560000Y-30148763D01*
X51008000Y-29710000D01*
X51580000Y-29710000D01*
X51580000Y-30450000D01*
%TA.AperFunction,Conductor*%
G36*
X51580000Y-30450000D02*
G01*
X51410000Y-30620000D01*
X51410000Y-32990000D01*
X50560000Y-32990000D01*
X50560000Y-30148763D01*
X51008000Y-29710000D01*
X51580000Y-29710000D01*
X51580000Y-30450000D01*
G37*
%TD.AperFunction*%
%TO.N,VSYS*%
X56100000Y-24300000D02*
X55374999Y-24300000D01*
X54600000Y-23680000D01*
X53460000Y-23680000D01*
X53410000Y-23630000D01*
X52530000Y-23630000D01*
X52530000Y-23070000D01*
X53410000Y-23070000D01*
X53510000Y-22970000D01*
X54600000Y-22970000D01*
X55324325Y-22300000D01*
X56100000Y-22300000D01*
X56100000Y-24300000D01*
%TA.AperFunction,Conductor*%
G36*
X56100000Y-24300000D02*
G01*
X55374999Y-24300000D01*
X54600000Y-23680000D01*
X53460000Y-23680000D01*
X53410000Y-23630000D01*
X52530000Y-23630000D01*
X52530000Y-23070000D01*
X53410000Y-23070000D01*
X53510000Y-22970000D01*
X54600000Y-22970000D01*
X55324325Y-22300000D01*
X56100000Y-22300000D01*
X56100000Y-24300000D01*
G37*
%TD.AperFunction*%
D11*
%TA.AperFunction,EtchedComponent*%
%TD*%
%TO.C,NT1*%
G36*
X51935900Y-29098401D02*
G01*
X51139100Y-29098401D01*
X51139100Y-28801601D01*
X51935900Y-28801601D01*
X51935900Y-29098401D01*
G37*
%TD.AperFunction*%
D12*
%TO.P,J2,1,Pin_1*%
%TO.N,GND*%
X42900001Y-22250000D03*
D13*
%TO.P,J2,2,Pin_2*%
%TO.N,VBAT*%
X44900002Y-22250000D03*
%TD*%
D14*
%TO.P,J4,1,Pin_1*%
%TO.N,Net-(J4-Pin_1)*%
X42625000Y-37600000D03*
D15*
%TO.P,J4,2,Pin_2*%
%TO.N,Net-(J4-Pin_2)*%
X45165000Y-37600000D03*
%TD*%
D16*
%TO.P,SW1,1,1*%
%TO.N,/BUTTON_L*%
X23115000Y-27160000D03*
D17*
X25890000Y-27160000D03*
%TO.P,SW1,2,2*%
%TO.N,GND*%
X32240000Y-24620000D03*
D16*
X35020001Y-24620000D03*
%TD*%
%TO.P,SW2,1,1*%
%TO.N,/BUTTON_R*%
X89715000Y-27160000D03*
D17*
X92490000Y-27160000D03*
%TO.P,SW2,2,2*%
%TO.N,GND*%
X98840000Y-24620000D03*
D16*
X101620001Y-24620000D03*
%TD*%
D18*
%TO.P,R21,1*%
%TO.N,GND*%
X52200000Y-31820000D03*
%TO.P,R21,2*%
%TO.N,Net-(U9-SET)*%
X52200000Y-31180000D03*
%TD*%
D19*
%TO.P,C22,1*%
%TO.N,9V*%
X78450000Y-32330000D03*
%TO.P,C22,2*%
%TO.N,GND*%
X77490000Y-32330000D03*
%TD*%
D20*
%TO.P,NT1,1,1*%
%TO.N,Net-(U6-AGND)*%
X51943900Y-28950001D03*
%TO.P,NT1,2,2*%
%TO.N,GND*%
X51131100Y-28950001D03*
%TD*%
D21*
%TO.P,C13,1*%
%TO.N,1V1*%
X69080000Y-29850000D03*
%TO.P,C13,2*%
%TO.N,GND*%
X69720000Y-29850000D03*
%TD*%
D22*
%TO.P,R19,1*%
%TO.N,Net-(U7-FB)*%
X81825000Y-35250000D03*
%TO.P,R19,2*%
%TO.N,9V*%
X81185000Y-35250000D03*
%TD*%
D21*
%TO.P,C1,1*%
%TO.N,3V3*%
X69080000Y-29150000D03*
%TO.P,C1,2*%
%TO.N,GND*%
X69720000Y-29150000D03*
%TD*%
D23*
%TO.P,R5,1*%
%TO.N,Net-(U2-GPIO3)*%
X66817678Y-36317678D03*
%TO.P,R5,2*%
%TO.N,/DISP_PIN_MOSI*%
X67270226Y-36770226D03*
%TD*%
D21*
%TO.P,R8,1*%
%TO.N,3V3*%
X69080000Y-33200001D03*
%TO.P,R8,2*%
%TO.N,/QSPI_SS*%
X69720000Y-33200001D03*
%TD*%
D24*
%TO.P,R17,1*%
%TO.N,/PWR_VBAT*%
X60526274Y-29826274D03*
%TO.P,R17,2*%
%TO.N,VSYS_GATED*%
X60073726Y-29373726D03*
%TD*%
D22*
%TO.P,C14,1*%
%TO.N,1V1*%
X57020000Y-34150000D03*
%TO.P,C14,2*%
%TO.N,GND*%
X56380000Y-34150000D03*
%TD*%
D23*
%TO.P,R18,1*%
%TO.N,GND*%
X60568700Y-28878752D03*
%TO.P,R18,2*%
%TO.N,/PWR_VBAT*%
X61021248Y-29331300D03*
%TD*%
D21*
%TO.P,C8,1*%
%TO.N,3V3*%
X67680000Y-27750000D03*
%TO.P,C8,2*%
%TO.N,GND*%
X68320000Y-27750000D03*
%TD*%
D24*
%TO.P,R12,1*%
%TO.N,Net-(D2-DIN)*%
X66276274Y-37776274D03*
%TO.P,R12,2*%
%TO.N,/LED_DIN*%
X65823726Y-37323726D03*
%TD*%
D21*
%TO.P,C9,1*%
%TO.N,3V3*%
X67680000Y-29150000D03*
%TO.P,C9,2*%
%TO.N,GND*%
X68320000Y-29150000D03*
%TD*%
D22*
%TO.P,C34,1*%
%TO.N,3V3*%
X49900000Y-35700000D03*
%TO.P,C34,2*%
%TO.N,GND*%
X49260000Y-35700000D03*
%TD*%
D18*
%TO.P,C25,1*%
%TO.N,3V3*%
X77800000Y-30575000D03*
%TO.P,C25,2*%
%TO.N,GND*%
X77800000Y-29935000D03*
%TD*%
D22*
%TO.P,C10,1*%
%TO.N,GND*%
X69720000Y-27750000D03*
%TO.P,C10,2*%
%TO.N,3V3*%
X69080000Y-27750000D03*
%TD*%
%TO.P,R16,1*%
%TO.N,GND*%
X87770000Y-36200000D03*
%TO.P,R16,2*%
%TO.N,/DISP_REG_EN*%
X87130000Y-36200000D03*
%TD*%
D25*
%TO.P,U2,1,IOVDD*%
%TO.N,3V3*%
X67269157Y-34342202D03*
%TO.P,U2,2,GPIO0*%
%TO.N,/DISP_PIN_RST*%
X66986314Y-34625045D03*
%TO.P,U2,3,GPIO1*%
%TO.N,/DISP_PIN_CS*%
X66703472Y-34907887D03*
%TO.P,U2,4,GPIO2*%
%TO.N,Net-(U2-GPIO2)*%
X66420629Y-35190730D03*
%TO.P,U2,5,GPIO3*%
%TO.N,Net-(U2-GPIO3)*%
X66137786Y-35473573D03*
%TO.P,U2,6,GPIO4*%
%TO.N,/DISP_PIN_DC*%
X65854944Y-35756415D03*
%TO.P,U2,7,GPIO5*%
%TO.N,/DISP_REG_EN*%
X65572101Y-36039258D03*
%TO.P,U2,8,GPIO6*%
%TO.N,/LED_DIN*%
X65289258Y-36322101D03*
%TO.P,U2,9,GPIO7*%
%TO.N,unconnected-(U2-GPIO7-Pad9)*%
X65006415Y-36604944D03*
%TO.P,U2,10,IOVDD*%
%TO.N,3V3*%
X64723573Y-36887786D03*
%TO.P,U2,11,GPIO8*%
%TO.N,unconnected-(U2-GPIO8-Pad11)*%
X64440730Y-37170629D03*
%TO.P,U2,12,GPIO9*%
%TO.N,unconnected-(U2-GPIO9-Pad12)*%
X64157887Y-37453472D03*
%TO.P,U2,13,GPIO10*%
%TO.N,/BUTTON_L*%
X63875045Y-37736314D03*
%TO.P,U2,14,GPIO11*%
%TO.N,/BUTTON_R*%
X63592202Y-38019157D03*
D26*
%TO.P,U2,15,GPIO12*%
%TO.N,/BUTTON_MENU*%
X62407798Y-38019157D03*
%TO.P,U2,16,GPIO13*%
%TO.N,unconnected-(U2-GPIO13-Pad16)*%
X62124955Y-37736314D03*
%TO.P,U2,17,GPIO14*%
%TO.N,unconnected-(U2-GPIO14-Pad17)*%
X61842113Y-37453472D03*
%TO.P,U2,18,GPIO15*%
%TO.N,unconnected-(U2-GPIO15-Pad18)*%
X61559270Y-37170629D03*
%TO.P,U2,19,TESTEN*%
%TO.N,GND*%
X61276427Y-36887786D03*
%TO.P,U2,20,XIN*%
%TO.N,/XIN*%
X60993585Y-36604944D03*
%TO.P,U2,21,XOUT*%
%TO.N,/XOUT*%
X60710742Y-36322101D03*
%TO.P,U2,22,IOVDD*%
%TO.N,3V3*%
X60427899Y-36039258D03*
%TO.P,U2,23,DVDD*%
%TO.N,1V1*%
X60145056Y-35756415D03*
%TO.P,U2,24,SWCLK*%
%TO.N,unconnected-(U2-SWCLK-Pad24)*%
X59862214Y-35473573D03*
%TO.P,U2,25,SWD*%
%TO.N,unconnected-(U2-SWD-Pad25)*%
X59579371Y-35190730D03*
%TO.P,U2,26,RUN*%
%TO.N,Net-(U2-RUN)*%
X59296528Y-34907887D03*
%TO.P,U2,27,GPIO16*%
%TO.N,unconnected-(U2-GPIO16-Pad27)*%
X59013686Y-34625045D03*
%TO.P,U2,28,GPIO17*%
%TO.N,unconnected-(U2-GPIO17-Pad28)*%
X58730843Y-34342202D03*
D25*
%TO.P,U2,29,GPIO18*%
%TO.N,/AUDIO_I2S_LRCK*%
X58730843Y-33157798D03*
%TO.P,U2,30,GPIO19*%
%TO.N,/AUDIO_I2S_BCLK*%
X59013686Y-32874955D03*
%TO.P,U2,31,GPIO20*%
%TO.N,/AUDIO_I2S_DOUT*%
X59296528Y-32592113D03*
%TO.P,U2,32,GPIO21*%
%TO.N,/AUDIO_I2S_SD*%
X59579371Y-32309270D03*
%TO.P,U2,33,IOVDD*%
%TO.N,3V3*%
X59862214Y-32026427D03*
%TO.P,U2,34,GPIO22*%
%TO.N,/PWR_PERIPH_EN*%
X60145056Y-31743585D03*
%TO.P,U2,35,GPIO23*%
%TO.N,/PWR_CHG_EN*%
X60427899Y-31460742D03*
%TO.P,U2,36,GPIO24*%
%TO.N,/PWR_~{PGOOD}*%
X60710742Y-31177899D03*
%TO.P,U2,37,GPIO25*%
%TO.N,/PWR_~{CHG}*%
X60993585Y-30895056D03*
%TO.P,U2,38,GPIO26_ADC0*%
%TO.N,/PWR_VBAT*%
X61276427Y-30612214D03*
%TO.P,U2,39,GPIO27_ADC1*%
%TO.N,unconnected-(U2-GPIO27_ADC1-Pad39)*%
X61559270Y-30329371D03*
%TO.P,U2,40,GPIO28_ADC2*%
%TO.N,unconnected-(U2-GPIO28_ADC2-Pad40)*%
X61842113Y-30046528D03*
%TO.P,U2,41,GPIO29_ADC3*%
%TO.N,unconnected-(U2-GPIO29_ADC3-Pad41)*%
X62124955Y-29763686D03*
%TO.P,U2,42,IOVDD*%
%TO.N,3V3*%
X62407798Y-29480843D03*
D26*
%TO.P,U2,43,ADC_AVDD*%
X63592202Y-29480843D03*
%TO.P,U2,44,VREG_IN*%
X63875045Y-29763686D03*
%TO.P,U2,45,VREG_VOUT*%
%TO.N,1V1*%
X64157887Y-30046528D03*
%TO.P,U2,46,USB_DM*%
%TO.N,Net-(U2-USB_DM)*%
X64440730Y-30329371D03*
%TO.P,U2,47,USB_DP*%
%TO.N,Net-(U2-USB_DP)*%
X64723573Y-30612214D03*
%TO.P,U2,48,USB_VDD*%
%TO.N,3V3*%
X65006415Y-30895056D03*
%TO.P,U2,49,IOVDD*%
X65289258Y-31177899D03*
%TO.P,U2,50,DVDD*%
%TO.N,1V1*%
X65572101Y-31460742D03*
%TO.P,U2,51,QSPI_SD3*%
%TO.N,/QSPI_SD3*%
X65854944Y-31743585D03*
%TO.P,U2,52,QSPI_SCLK*%
%TO.N,/QSPI_SCLK*%
X66137786Y-32026427D03*
%TO.P,U2,53,QSPI_SD0*%
%TO.N,/QSPI_SD0*%
X66420629Y-32309270D03*
%TO.P,U2,54,QSPI_SD2*%
%TO.N,/QSPI_SD2*%
X66703472Y-32592113D03*
%TO.P,U2,55,QSPI_SD1*%
%TO.N,/QSPI_SD1*%
X66986314Y-32874955D03*
%TO.P,U2,56,QSPI_SS*%
%TO.N,/QSPI_SS*%
X67269157Y-33157798D03*
D27*
%TO.P,U2,57,GND*%
%TO.N,GND*%
X63000000Y-33750000D03*
%TD*%
D24*
%TO.P,C4,1*%
%TO.N,3V3*%
X59076274Y-31226274D03*
%TO.P,C4,2*%
%TO.N,GND*%
X58623726Y-30773726D03*
%TD*%
D28*
%TO.P,C17,1*%
%TO.N,GND*%
X54299997Y-26275000D03*
%TO.P,C17,2*%
%TO.N,VBUS*%
X54299997Y-24725000D03*
%TD*%
D21*
%TO.P,C5,1*%
%TO.N,3V3*%
X69080000Y-34650000D03*
%TO.P,C5,2*%
%TO.N,GND*%
X69720000Y-34650000D03*
%TD*%
D29*
%TO.P,L2,1,1*%
%TO.N,VSYS*%
X81850000Y-36349999D03*
%TO.P,L2,2,2*%
%TO.N,Net-(D3-A)*%
X81850000Y-37925001D03*
%TD*%
D18*
%TO.P,R1,1*%
%TO.N,/XOUT*%
X57580000Y-36655000D03*
%TO.P,R1,2*%
%TO.N,Net-(C16-Pad2)*%
X57580000Y-36015000D03*
%TD*%
D30*
%TO.P,C33,1*%
%TO.N,GND*%
X49425000Y-34600000D03*
%TO.P,C33,2*%
%TO.N,3V3*%
X50975000Y-34600000D03*
%TD*%
D31*
%TO.P,U3,1,~{CS}*%
%TO.N,/QSPI_SS*%
X75055000Y-33687500D03*
%TO.P,U3,2,DO/IO_{1}*%
%TO.N,/QSPI_SD1*%
X73785000Y-33687500D03*
%TO.P,U3,3,~{WP}/IO_{2}*%
%TO.N,/QSPI_SD2*%
X72515000Y-33687500D03*
%TO.P,U3,4,GND*%
%TO.N,GND*%
X71245000Y-33687500D03*
%TO.P,U3,5,DI/IO_{0}*%
%TO.N,/QSPI_SD0*%
X71245000Y-26512500D03*
%TO.P,U3,6,CLK*%
%TO.N,/QSPI_SCLK*%
X72515000Y-26512500D03*
%TO.P,U3,7,~{HOLD}/~{RESET}/IO_{3}*%
%TO.N,/QSPI_SD3*%
X73785000Y-26512500D03*
%TO.P,U3,8,VCC*%
%TO.N,3V3*%
X75055000Y-26512500D03*
%TD*%
D30*
%TO.P,C35,1*%
%TO.N,9V*%
X78525000Y-35700000D03*
%TO.P,C35,2*%
%TO.N,GND*%
X80075000Y-35700000D03*
%TD*%
D22*
%TO.P,R20,1*%
%TO.N,GND*%
X83220000Y-35250000D03*
%TO.P,R20,2*%
%TO.N,Net-(U7-FB)*%
X82580000Y-35250000D03*
%TD*%
D18*
%TO.P,C28,1*%
%TO.N,VSYS*%
X50950000Y-27100000D03*
%TO.P,C28,2*%
%TO.N,GND*%
X50950000Y-26460000D03*
%TD*%
D21*
%TO.P,C3,1*%
%TO.N,3V3*%
X66280000Y-27750000D03*
%TO.P,C3,2*%
%TO.N,GND*%
X66920000Y-27750000D03*
%TD*%
D32*
%TO.P,C15,1*%
%TO.N,/XIN*%
X57580000Y-37660000D03*
%TO.P,C15,2*%
%TO.N,GND*%
X57580000Y-38300000D03*
%TD*%
D33*
%TO.P,U8,A1,~{SD_MODE}*%
%TO.N,/AUDIO_I2S_SD*%
X50300000Y-36600000D03*
%TO.P,U8,A2,VDD*%
%TO.N,3V3*%
X49900000Y-36600000D03*
%TO.P,U8,A3,OUTP*%
%TO.N,Net-(J4-Pin_1)*%
X49500000Y-36600000D03*
%TO.P,U8,B1,DIN*%
%TO.N,/AUDIO_I2S_DOUT*%
X50300000Y-37000000D03*
%TO.P,U8,B2,GAIN_SLOT*%
%TO.N,GND*%
X49900000Y-37000000D03*
%TO.P,U8,B3,OUTN*%
%TO.N,Net-(J4-Pin_2)*%
X49500000Y-37000000D03*
%TO.P,U8,C1,BCLK*%
%TO.N,/AUDIO_I2S_BCLK*%
X50300000Y-37400000D03*
%TO.P,U8,C2,GND*%
%TO.N,GND*%
X49900000Y-37400000D03*
%TO.P,U8,C3,LRCLK*%
%TO.N,/AUDIO_I2S_LRCK*%
X49500000Y-37400000D03*
%TD*%
D19*
%TO.P,C26,1*%
%TO.N,Net-(DS1-VCOMH)*%
X78450000Y-31410000D03*
%TO.P,C26,2*%
%TO.N,GND*%
X77490000Y-31410000D03*
%TD*%
D34*
%TO.P,C29,1*%
%TO.N,3V3*%
X50975000Y-32600000D03*
%TO.P,C29,2*%
%TO.N,GND*%
X49425000Y-32600000D03*
%TD*%
D35*
%TO.P,U4,1,TS*%
%TO.N,Net-(U4-TS)*%
X50000000Y-24100000D03*
%TO.P,U4,2,BAT*%
%TO.N,VBAT*%
X50000000Y-23600000D03*
%TO.P,U4,3,BAT*%
X50000000Y-23100000D03*
%TO.P,U4,4,~{CE}*%
%TO.N,/PWR_CHG_EN*%
X50000000Y-22600000D03*
D36*
%TO.P,U4,5,EN2*%
%TO.N,GND*%
X50687500Y-21912500D03*
%TO.P,U4,6,EN1*%
%TO.N,VSYS*%
X51187500Y-21912500D03*
%TO.P,U4,7,~{PGOOD}*%
%TO.N,/PWR_~{PGOOD}*%
X51687500Y-21912500D03*
%TO.P,U4,8,VSS*%
%TO.N,GND*%
X52187500Y-21912500D03*
D35*
%TO.P,U4,9,~{CHG}*%
%TO.N,/PWR_~{CHG}*%
X52875000Y-22600000D03*
%TO.P,U4,10,OUT*%
%TO.N,VSYS*%
X52875000Y-23100000D03*
%TO.P,U4,11,OUT*%
X52875000Y-23600000D03*
%TO.P,U4,12,ILIM*%
%TO.N,unconnected-(U4-ILIM-Pad12)*%
X52875000Y-24100000D03*
D36*
%TO.P,U4,13,IN*%
%TO.N,VBUS*%
X52187500Y-24787500D03*
%TO.P,U4,14,TMR*%
%TO.N,unconnected-(U4-TMR-Pad14)*%
X51687500Y-24787500D03*
%TO.P,U4,15,ITERM*%
%TO.N,unconnected-(U4-ITERM-Pad15)*%
X51187500Y-24787500D03*
%TO.P,U4,16,ISET*%
%TO.N,Net-(U4-ISET)*%
X50687500Y-24787500D03*
D37*
%TO.P,U4,17,VSS*%
%TO.N,GND*%
X51437500Y-23350000D03*
%TD*%
D28*
%TO.P,C21,1*%
%TO.N,VBAT*%
X48575001Y-23324999D03*
%TO.P,C21,2*%
%TO.N,GND*%
X48575001Y-21774999D03*
%TD*%
D21*
%TO.P,R10,1*%
%TO.N,GND*%
X48280000Y-25100000D03*
%TO.P,R10,2*%
%TO.N,Net-(U4-ISET)*%
X48920000Y-25100000D03*
%TD*%
D38*
%TO.P,SW3,1,1*%
%TO.N,/BUTTON_MENU*%
X74400001Y-22200000D03*
X78499999Y-22200000D03*
%TO.P,SW3,2,2*%
%TO.N,GND*%
X74400001Y-20600000D03*
X78499999Y-20600000D03*
D39*
%TO.P,SW3,SH,B*%
X76450000Y-22825000D03*
%TD*%
D22*
%TO.P,C6,1*%
%TO.N,3V3*%
X60120000Y-27750000D03*
%TO.P,C6,2*%
%TO.N,GND*%
X59480000Y-27750000D03*
%TD*%
D40*
%TO.P,Y1,1,1*%
%TO.N,Net-(C16-Pad2)*%
X53850000Y-36250000D03*
%TO.P,Y1,2,2*%
%TO.N,GND*%
X56050000Y-36250000D03*
%TO.P,Y1,3,3*%
%TO.N,/XIN*%
X56050000Y-37950000D03*
%TO.P,Y1,4,4*%
%TO.N,GND*%
X53850000Y-37950000D03*
%TD*%
D18*
%TO.P,C23,1*%
%TO.N,3V3*%
X78500000Y-30570000D03*
%TO.P,C23,2*%
%TO.N,GND*%
X78500000Y-29930000D03*
%TD*%
D22*
%TO.P,C19,1*%
%TO.N,3V3*%
X75050000Y-24550000D03*
%TO.P,C19,2*%
%TO.N,GND*%
X74410000Y-24550000D03*
%TD*%
%TO.P,R3,1*%
%TO.N,GND*%
X62520000Y-28200000D03*
%TO.P,R3,2*%
%TO.N,Net-(J1-CC1)*%
X61880000Y-28200000D03*
%TD*%
D21*
%TO.P,R13,1*%
%TO.N,GND*%
X77830000Y-29200000D03*
%TO.P,R13,2*%
%TO.N,Net-(DS1-IREF)*%
X78470000Y-29200000D03*
%TD*%
D22*
%TO.P,C32,1*%
%TO.N,GND*%
X87770000Y-36900000D03*
%TO.P,C32,2*%
%TO.N,VSYS*%
X87130000Y-36900000D03*
%TD*%
D24*
%TO.P,R4,1*%
%TO.N,/DISP_PIN_SCLK*%
X67770226Y-36270226D03*
%TO.P,R4,2*%
%TO.N,Net-(U2-GPIO2)*%
X67317678Y-35817678D03*
%TD*%
D41*
%TO.P,U9,1,VOUT*%
%TO.N,VSYS_GATED*%
X53500000Y-33249999D03*
%TO.P,U9,2,GND*%
%TO.N,GND*%
X53500000Y-32300000D03*
%TO.P,U9,3,SET*%
%TO.N,Net-(U9-SET)*%
X53500000Y-31350001D03*
%TO.P,U9,4,EN*%
%TO.N,/PWR_PERIPH_EN*%
X55775000Y-31350001D03*
%TO.P,U9,5,VIN*%
%TO.N,VSYS*%
X55775000Y-33249999D03*
%TD*%
D18*
%TO.P,R22,1*%
%TO.N,/PWR_PERIPH_EN*%
X56050000Y-30420000D03*
%TO.P,R22,2*%
%TO.N,GND*%
X56050000Y-29780000D03*
%TD*%
D21*
%TO.P,C12,1*%
%TO.N,1V1*%
X67680000Y-28450000D03*
%TO.P,C12,2*%
%TO.N,GND*%
X68320000Y-28450000D03*
%TD*%
D22*
%TO.P,C11,1*%
%TO.N,GND*%
X69720000Y-28450000D03*
%TO.P,C11,2*%
%TO.N,1V1*%
X69080000Y-28450000D03*
%TD*%
D21*
%TO.P,R9,1*%
%TO.N,Net-(R9-Pad1)*%
X69080000Y-32500005D03*
%TO.P,R9,2*%
%TO.N,/QSPI_SS*%
X69720000Y-32500005D03*
%TD*%
D22*
%TO.P,C2,1*%
%TO.N,3V3*%
X57020000Y-34850000D03*
%TO.P,C2,2*%
%TO.N,GND*%
X56380000Y-34850000D03*
%TD*%
D42*
%TO.P,R6,1*%
%TO.N,Net-(U2-USB_DP)*%
X65698701Y-30071249D03*
%TO.P,R6,2*%
%TO.N,/USB_D+*%
X66151249Y-29618701D03*
%TD*%
D43*
%TO.P,J1,A1_B12,GND*%
%TO.N,GND*%
X59800000Y-26450000D03*
%TO.P,J1,A4_B9,VBUS*%
%TO.N,VBUS*%
X60600000Y-26450000D03*
D44*
%TO.P,J1,A5,CC1*%
%TO.N,Net-(J1-CC1)*%
X61750000Y-26450000D03*
%TO.P,J1,A6,DP1*%
%TO.N,Net-(J1-DP1)*%
X62750000Y-26450000D03*
%TO.P,J1,A7,DN1*%
%TO.N,Net-(J1-DN1)*%
X63250000Y-26450000D03*
%TO.P,J1,A8,SBU1*%
%TO.N,unconnected-(J1-SBU1-PadA8)*%
X64250000Y-26450000D03*
D43*
%TO.P,J1,B1_A12,GND*%
%TO.N,GND*%
X66200000Y-26450000D03*
%TO.P,J1,B4_A9,VBUS*%
%TO.N,VBUS*%
X65400000Y-26450000D03*
D44*
%TO.P,J1,B5,CC2*%
%TO.N,Net-(J1-CC2)*%
X64750000Y-26450000D03*
%TO.P,J1,B6,DP2*%
%TO.N,Net-(J1-DP1)*%
X63750000Y-26450000D03*
%TO.P,J1,B7,DN2*%
%TO.N,Net-(J1-DN1)*%
X62250000Y-26450000D03*
%TO.P,J1,B8,SBU2*%
%TO.N,unconnected-(J1-SBU2-PadB8)*%
X61250000Y-26450000D03*
D45*
%TO.P,J1,SH1,SHIELD*%
%TO.N,GND*%
X57050000Y-25300000D03*
%TO.P,J1,SH2,SHIELD*%
X68950000Y-25300000D03*
D46*
%TO.P,J1,SH3,SHIELD*%
X57050000Y-21800000D03*
%TO.P,J1,SH4,SHIELD*%
X68950000Y-21800000D03*
%TD*%
D47*
%TO.P,DS1,1,NC*%
%TO.N,unconnected-(DS1-NC-Pad1)*%
X80300000Y-32700000D03*
%TO.P,DS1,2,VPP*%
%TO.N,9V*%
X80300000Y-32000000D03*
%TO.P,DS1,3,VCOMH*%
%TO.N,Net-(DS1-VCOMH)*%
X80300000Y-31300000D03*
%TO.P,DS1,4,VDD*%
%TO.N,3V3*%
X80300000Y-30600000D03*
%TO.P,DS1,5,IM1*%
%TO.N,GND*%
X80300000Y-29900000D03*
%TO.P,DS1,6,IREF*%
%TO.N,Net-(DS1-IREF)*%
X80300000Y-29200000D03*
%TO.P,DS1,7,~{CS}*%
%TO.N,/DISP_PIN_CS*%
X80300000Y-28500000D03*
%TO.P,DS1,8,~{RES}*%
%TO.N,/DISP_PIN_RST*%
X80300000Y-27800000D03*
%TO.P,DS1,9,DC*%
%TO.N,/DISP_PIN_DC*%
X80300000Y-27100000D03*
%TO.P,DS1,10,D0*%
%TO.N,/DISP_PIN_SCLK*%
X80300000Y-26400000D03*
%TO.P,DS1,11,D1*%
%TO.N,/DISP_PIN_MOSI*%
X80300000Y-25700000D03*
%TO.P,DS1,12,VSS*%
%TO.N,GND*%
X80300000Y-25000000D03*
%TO.P,DS1,13,NC*%
%TO.N,unconnected-(DS1-NC-Pad13)*%
X80300000Y-24300000D03*
%TD*%
D41*
%TO.P,U5,1,GND*%
%TO.N,GND*%
X53502500Y-29749999D03*
%TO.P,U5,2,~{RESET}*%
%TO.N,REG_EN*%
X53502500Y-27850001D03*
%TO.P,U5,3,VCC*%
%TO.N,VSYS*%
X55777500Y-28800000D03*
%TD*%
D34*
%TO.P,C31,1*%
%TO.N,GND*%
X88975000Y-37975000D03*
%TO.P,C31,2*%
%TO.N,VSYS*%
X87425000Y-37975000D03*
%TD*%
D22*
%TO.P,R11,1*%
%TO.N,Net-(U4-TS)*%
X48920000Y-24400000D03*
%TO.P,R11,2*%
%TO.N,GND*%
X48280000Y-24400000D03*
%TD*%
D34*
%TO.P,C27,1*%
%TO.N,VSYS*%
X49825000Y-26800000D03*
%TO.P,C27,2*%
%TO.N,GND*%
X48275000Y-26800000D03*
%TD*%
D48*
%TO.P,L1,1,1*%
%TO.N,Net-(L1-Pad1)*%
X49537498Y-28225002D03*
%TO.P,L1,2,2*%
%TO.N,Net-(L1-Pad2)*%
X49537498Y-29675000D03*
%TD*%
D49*
%TO.P,U1,1,I/O1*%
%TO.N,/USB_D+*%
X72712500Y-23350000D03*
%TO.P,U1,2,GND*%
%TO.N,GND*%
X71762501Y-23350000D03*
%TO.P,U1,3,I/O2*%
%TO.N,/USB_D-*%
X70812502Y-23350000D03*
%TO.P,U1,4,I/O2*%
%TO.N,Net-(J1-DN1)*%
X70812502Y-21075000D03*
%TO.P,U1,5,VBUS*%
%TO.N,VBUS*%
X71762501Y-21075000D03*
%TO.P,U1,6,I/O1*%
%TO.N,Net-(J1-DP1)*%
X72712500Y-21075000D03*
%TD*%
D18*
%TO.P,C16,1*%
%TO.N,GND*%
X52500000Y-37420001D03*
%TO.P,C16,2*%
%TO.N,Net-(C16-Pad2)*%
X52500000Y-36780001D03*
%TD*%
D23*
%TO.P,C7,1*%
%TO.N,3V3*%
X65297452Y-37847452D03*
%TO.P,C7,2*%
%TO.N,GND*%
X65750000Y-38300000D03*
%TD*%
D21*
%TO.P,R14,1*%
%TO.N,3V3*%
X77830000Y-28500000D03*
%TO.P,R14,2*%
%TO.N,/DISP_PIN_CS*%
X78470000Y-28500000D03*
%TD*%
D41*
%TO.P,U7,1,SW*%
%TO.N,Net-(D3-A)*%
X83512500Y-38099999D03*
%TO.P,U7,2,GND*%
%TO.N,GND*%
X83512500Y-37150000D03*
%TO.P,U7,3,FB*%
%TO.N,Net-(U7-FB)*%
X83512500Y-36200001D03*
%TO.P,U7,4,EN*%
%TO.N,/DISP_REG_EN*%
X85787500Y-36200001D03*
%TO.P,U7,5,IN*%
%TO.N,VSYS*%
X85787500Y-37150000D03*
%TO.P,U7,6,NC*%
%TO.N,unconnected-(U7-NC-Pad6)*%
X85787500Y-38099999D03*
%TD*%
D33*
%TO.P,U6,A1,EN*%
%TO.N,REG_EN*%
X51937500Y-28150000D03*
%TO.P,U6,A2,VIN*%
%TO.N,VSYS*%
X51537500Y-28150001D03*
%TO.P,U6,A3,VIN*%
X51137500Y-28150000D03*
%TO.P,U6,B1,VSEL*%
%TO.N,Net-(U6-AGND)*%
X51937500Y-28550000D03*
%TO.P,U6,B2,LX1*%
%TO.N,Net-(L1-Pad1)*%
X51537500Y-28550000D03*
%TO.P,U6,B3,LX1*%
X51137500Y-28550000D03*
%TO.P,U6,C1,AGND*%
%TO.N,Net-(U6-AGND)*%
X51937500Y-28950000D03*
%TO.P,U6,C2,PGND*%
%TO.N,GND*%
X51537500Y-28950000D03*
%TO.P,U6,C3,PGND*%
X51137500Y-28950000D03*
%TO.P,U6,D1,SCL*%
%TO.N,unconnected-(U6-SCL-PadD1)*%
X51937500Y-29350000D03*
%TO.P,U6,D2,LX2*%
%TO.N,Net-(L1-Pad2)*%
X51537500Y-29350000D03*
%TO.P,U6,D3,LX2*%
X51137500Y-29350000D03*
%TO.P,U6,E1,SDA*%
%TO.N,unconnected-(U6-SDA-PadE1)*%
X51937500Y-29750000D03*
%TO.P,U6,E2,VOUT*%
%TO.N,3V3*%
X51537500Y-29749999D03*
%TO.P,U6,E3,VOUT*%
X51137500Y-29750000D03*
%TD*%
D50*
%TO.P,D3,1,K*%
%TO.N,9V*%
X78425000Y-37400000D03*
%TO.P,D3,2,A*%
%TO.N,Net-(D3-A)*%
X80525000Y-37400000D03*
%TD*%
D51*
%TO.P,R7,1*%
%TO.N,/USB_D-*%
X65656274Y-29123726D03*
%TO.P,R7,2*%
%TO.N,Net-(U2-USB_DM)*%
X65203726Y-29576274D03*
%TD*%
D22*
%TO.P,R2,1*%
%TO.N,Net-(J1-CC2)*%
X64120000Y-28200000D03*
%TO.P,R2,2*%
%TO.N,GND*%
X63480000Y-28200000D03*
%TD*%
D52*
%TO.P,D1,1,VDD*%
%TO.N,VSYS_GATED*%
X26950000Y-34000000D03*
%TO.P,D1,2,DOUT*%
%TO.N,unconnected-(D1-DOUT-Pad2)*%
X26950000Y-35500000D03*
%TO.P,D1,3,DIN*%
%TO.N,Net-(D1-DIN)*%
X32400000Y-34000000D03*
D53*
%TO.P,D1,4,VSS*%
%TO.N,GND*%
X32400000Y-35500000D03*
%TD*%
D18*
%TO.P,C18,1*%
%TO.N,GND*%
X52950000Y-26120000D03*
%TO.P,C18,2*%
%TO.N,VBUS*%
X52950000Y-25480000D03*
%TD*%
D22*
%TO.P,C24,1*%
%TO.N,9V*%
X78500000Y-33150000D03*
%TO.P,C24,2*%
%TO.N,GND*%
X77860000Y-33150000D03*
%TD*%
D34*
%TO.P,C30,1*%
%TO.N,3V3*%
X50975000Y-31100000D03*
%TO.P,C30,2*%
%TO.N,GND*%
X49425000Y-31100000D03*
%TD*%
D52*
%TO.P,D2,1,VDD*%
%TO.N,VSYS_GATED*%
X93550000Y-34000000D03*
%TO.P,D2,2,DOUT*%
%TO.N,Net-(D1-DIN)*%
X93550000Y-35500000D03*
%TO.P,D2,3,DIN*%
%TO.N,Net-(D2-DIN)*%
X99000000Y-34000000D03*
D53*
%TO.P,D2,4,VSS*%
%TO.N,GND*%
X99000000Y-35500000D03*
%TD*%
D54*
%TO.P,C20,1*%
%TO.N,GND*%
X54300000Y-21774999D03*
%TO.P,C20,2*%
%TO.N,VSYS*%
X54300000Y-23324999D03*
%TD*%
D55*
%TO.N,/BUTTON_R*%
X88900000Y-29200000D03*
%TO.N,/BUTTON_L*%
X23100000Y-24500000D03*
%TO.N,GND*%
X63540000Y-33200000D03*
X53500000Y-29050000D03*
X63550000Y-34280000D03*
X63000000Y-33750000D03*
X83500000Y-37140000D03*
X62450000Y-34300000D03*
X71762501Y-23350000D03*
X77490000Y-32330000D03*
X51437500Y-23850000D03*
X53850000Y-37950000D03*
X61900000Y-33750000D03*
X51940000Y-23850000D03*
X58600000Y-30750000D03*
X51940000Y-23350000D03*
X62470000Y-33210000D03*
X59800000Y-37800000D03*
X49900000Y-37850000D03*
X63000000Y-34850000D03*
X77800000Y-29935000D03*
X64100000Y-33750000D03*
X81900000Y-25000000D03*
X63000000Y-32650000D03*
X49250000Y-28950000D03*
X51942500Y-22860000D03*
X52200000Y-32800000D03*
X51440000Y-22860000D03*
X50940000Y-23850000D03*
X62520000Y-28200000D03*
X32400000Y-36400000D03*
X50942500Y-22860000D03*
X51437500Y-23350000D03*
X69720000Y-34650000D03*
X99000000Y-36500000D03*
X71250000Y-33700000D03*
X66240000Y-28300000D03*
X68320000Y-28450000D03*
X56050000Y-36250000D03*
X50940000Y-23350000D03*
X60568700Y-28878752D03*
X50000000Y-28950000D03*
%TO.N,VBUS*%
X60600000Y-26450000D03*
X70062500Y-22250000D03*
X55700000Y-24800000D03*
X65400000Y-26450000D03*
%TO.N,VSYS*%
X50800000Y-21000000D03*
X54700000Y-28800000D03*
X49830000Y-25970000D03*
X55700000Y-23900000D03*
X55700000Y-22700000D03*
X54650000Y-31880000D03*
X51510000Y-27620000D03*
X52000000Y-27100000D03*
X51500000Y-27100000D03*
X85787500Y-37150000D03*
X81850000Y-36349999D03*
X53600000Y-23325000D03*
X55700000Y-23300000D03*
X57800000Y-33250000D03*
%TO.N,3V3*%
X64510000Y-28760000D03*
X59076274Y-31226274D03*
X77800000Y-30575000D03*
X62980000Y-29250000D03*
X50730000Y-31860000D03*
X57525000Y-35175000D03*
X50840000Y-30410000D03*
X64940000Y-28340000D03*
X65340000Y-27940000D03*
X51250000Y-31860000D03*
X50975000Y-34600000D03*
X69700000Y-33900000D03*
X75050000Y-24550000D03*
X51330000Y-30410000D03*
X77830000Y-28500000D03*
X75050000Y-26500000D03*
X69080000Y-29150000D03*
%TO.N,1V1*%
X67680000Y-28450000D03*
X69080000Y-28450000D03*
X69080000Y-29850000D03*
%TO.N,/DISP_PIN_CS*%
X75700000Y-29700000D03*
X78470000Y-28500000D03*
%TO.N,/DISP_PIN_RST*%
X78500000Y-27800000D03*
X75125085Y-29710008D03*
%TO.N,Net-(J1-DN1)*%
X70812500Y-21050000D03*
X63250000Y-27250000D03*
X62250000Y-27250000D03*
%TO.N,/DISP_PIN_MOSI*%
X78500000Y-25700000D03*
X76900000Y-26950000D03*
%TO.N,/BUTTON_L*%
X62550000Y-36500000D03*
%TO.N,/BUTTON_R*%
X64650000Y-38350000D03*
%TO.N,/BUTTON_MENU*%
X74399999Y-22200000D03*
X61200000Y-38400000D03*
X78499999Y-22200000D03*
%TO.N,/AUDIO_I2S_DOUT*%
X50850000Y-37000000D03*
X56559994Y-32600000D03*
%TO.N,Net-(J1-DP1)*%
X64250000Y-27450000D03*
X72712500Y-21075000D03*
%TO.N,/AUDIO_I2S_SD*%
X55984991Y-32600000D03*
X50850000Y-36424997D03*
%TO.N,/AUDIO_I2S_LRCK*%
X49324997Y-37850000D03*
X57710000Y-32600000D03*
%TO.N,/AUDIO_I2S_BCLK*%
X50850000Y-37600000D03*
X57134997Y-32600000D03*
%TO.N,/USB_D+*%
X66151249Y-29618701D03*
X72712500Y-24300000D03*
%TO.N,/USB_D-*%
X72172500Y-24650000D03*
X65656274Y-29123726D03*
%TO.N,/DISP_REG_EN*%
X77310000Y-34970000D03*
X85787500Y-36200001D03*
%TO.N,/PWR_~{PGOOD}*%
X52100000Y-21000000D03*
X57800000Y-28350000D03*
%TO.N,/PWR_~{CHG}*%
X57800000Y-27700000D03*
X53600000Y-21000000D03*
%TO.N,/PWR_CHG_EN*%
X57150000Y-28350000D03*
X49800000Y-22000000D03*
%TO.N,Net-(D1-DIN)*%
X34100000Y-34000000D03*
X93550000Y-36400000D03*
%TO.N,Net-(D2-DIN)*%
X77750000Y-34400000D03*
X91850000Y-32550000D03*
%TO.N,VSYS_GATED*%
X53500000Y-33800000D03*
X26960000Y-32770000D03*
X59640000Y-28940000D03*
X93550000Y-33030000D03*
%TD*%
D10*
%TO.N,GND*%
X56380000Y-34150000D02*
X56380000Y-34850000D01*
X52200000Y-31820000D02*
X52200000Y-32800000D01*
X48280000Y-24400000D02*
X48280000Y-25100000D01*
%TO.N,VSYS*%
X53600000Y-23325000D02*
X54300000Y-23324999D01*
X55700000Y-23300000D02*
X54315000Y-23300000D01*
X55700000Y-23300000D02*
X55700000Y-23900000D01*
X55700000Y-22700000D02*
X55700000Y-23300000D01*
%TO.N,/BUTTON_R*%
X88900000Y-27975000D02*
X88900000Y-29200000D01*
X89715000Y-27160000D02*
X88900000Y-27975000D01*
%TO.N,/BUTTON_L*%
X23115000Y-24515000D02*
X23115000Y-27160000D01*
X23100000Y-24500000D02*
X23115000Y-24515000D01*
%TO.N,Net-(U6-AGND)*%
X51937500Y-28550000D02*
X51937500Y-28943601D01*
X51937500Y-28943601D02*
X51943900Y-28950001D01*
%TO.N,VBAT*%
X48575003Y-23424999D02*
X48750000Y-23599999D01*
D56*
X44900002Y-22250000D02*
X46450000Y-22250000D01*
X48570000Y-23330000D02*
X48575001Y-23324999D01*
X47524999Y-23324999D02*
X48575001Y-23324999D01*
D10*
X50000000Y-23599999D02*
X50000000Y-23100000D01*
D56*
X46450000Y-22250000D02*
X47524999Y-23324999D01*
D57*
%TO.N,GND*%
X85000000Y-35500000D02*
X87400000Y-35500000D01*
X84600000Y-36900000D02*
X84600000Y-35900000D01*
D10*
X57400000Y-26800000D02*
X57050000Y-26450000D01*
X68950000Y-26450000D02*
X68600000Y-26800000D01*
D57*
X88300000Y-36900000D02*
X88975000Y-37575000D01*
D10*
X57050000Y-25300000D02*
X57050000Y-21800000D01*
X71245000Y-33695000D02*
X71250000Y-33700000D01*
X49900000Y-37400000D02*
X49900000Y-37850000D01*
D57*
X84350000Y-37150000D02*
X84600000Y-36900000D01*
X80300000Y-29900000D02*
X77835000Y-29900000D01*
D10*
X87770000Y-36070000D02*
X87770000Y-36200000D01*
D58*
X52700000Y-32300000D02*
X52200000Y-32800000D01*
D10*
X76450000Y-22318749D02*
X77317749Y-21451000D01*
X51131100Y-28950001D02*
X49599999Y-28950001D01*
X99000000Y-35500000D02*
X99000000Y-36500000D01*
X68950000Y-25300000D02*
X68950000Y-26450000D01*
X50840000Y-22757500D02*
X50942500Y-22860000D01*
X77860000Y-33150000D02*
X77490000Y-32780000D01*
D57*
X83512500Y-37150000D02*
X84350000Y-37150000D01*
D10*
X83512500Y-37147500D02*
X83512500Y-37150000D01*
X87770000Y-36200000D02*
X87770000Y-36900000D01*
X52187500Y-22422500D02*
X51942500Y-22667500D01*
D57*
X88975000Y-37575000D02*
X88975000Y-37975000D01*
D10*
X83505000Y-37140000D02*
X83512500Y-37147500D01*
D57*
X87770000Y-35870000D02*
X87770000Y-36070000D01*
D10*
X53500000Y-32300000D02*
X52700000Y-32300000D01*
X58600000Y-26800000D02*
X57400000Y-26800000D01*
X71245000Y-33687500D02*
X71245000Y-33695000D01*
X68950000Y-25300000D02*
X68950000Y-21800000D01*
X68320000Y-29150000D02*
X68320000Y-27750000D01*
X63480000Y-28200000D02*
X62520000Y-28200000D01*
X68600000Y-26800000D02*
X67400000Y-26800000D01*
X68320000Y-28450000D02*
X68320000Y-28460000D01*
X49400000Y-31075000D02*
X49425000Y-31100000D01*
D57*
X87400000Y-35500000D02*
X87770000Y-35870000D01*
D10*
X57050000Y-26450000D02*
X57050000Y-25300000D01*
X58623726Y-30773726D02*
X58600000Y-30750000D01*
X66920000Y-27949999D02*
X66920000Y-27750000D01*
X75650999Y-21451000D02*
X75143215Y-21451000D01*
X50687500Y-22317500D02*
X50840000Y-22470000D01*
X75143215Y-21451000D02*
X74674000Y-20981785D01*
X74674000Y-20981785D02*
X74674000Y-20600000D01*
X32400000Y-35500000D02*
X32400000Y-36400000D01*
D57*
X77835000Y-29900000D02*
X77800000Y-29935000D01*
D10*
X78226000Y-20981785D02*
X78226000Y-20611499D01*
X53850000Y-37950000D02*
X53029999Y-37950000D01*
X66569999Y-28300000D02*
X66920000Y-27949999D01*
X50687500Y-21912500D02*
X50687500Y-22317500D01*
X77830000Y-29905000D02*
X77800000Y-29935000D01*
X52200000Y-31820000D02*
X52680000Y-32300000D01*
D57*
X84600000Y-35900000D02*
X85000000Y-35500000D01*
D10*
X74674000Y-20600000D02*
X74400001Y-20600000D01*
X77490000Y-31410000D02*
X77490000Y-32330000D01*
X61276427Y-36887786D02*
X60364213Y-37800000D01*
X76450000Y-22250001D02*
X75650999Y-21451000D01*
X49900000Y-37000000D02*
X49900000Y-37400000D01*
X58950000Y-26450000D02*
X58600000Y-26800000D01*
X53500000Y-29050000D02*
X53500000Y-29747499D01*
X60364213Y-37800000D02*
X59800000Y-37800000D01*
X77830000Y-29200000D02*
X77830000Y-29905000D01*
X83500000Y-37140000D02*
X83505000Y-37140000D01*
X67400000Y-26800000D02*
X67050000Y-26450000D01*
X53500000Y-29747499D02*
X53502500Y-29749999D01*
X76450000Y-22825000D02*
X76450000Y-22250001D01*
X76450000Y-22825000D02*
X76450000Y-22318749D01*
X59800000Y-26450000D02*
X58950000Y-26450000D01*
X77756785Y-21451000D02*
X78226000Y-20981785D01*
D57*
X87770000Y-36900000D02*
X88300000Y-36900000D01*
D10*
X53029999Y-37950000D02*
X52500000Y-37420001D01*
X67050000Y-26450000D02*
X66200000Y-26450000D01*
X51942500Y-22667500D02*
X51942500Y-22860000D01*
X78237499Y-20600000D02*
X78499999Y-20600000D01*
D59*
X51137500Y-28950001D02*
X51537500Y-28950001D01*
D10*
X66240000Y-28300000D02*
X66569999Y-28300000D01*
X77490000Y-32780000D02*
X77490000Y-32330000D01*
X49599999Y-28950001D02*
X49590000Y-28960000D01*
X52187500Y-21912500D02*
X52187500Y-22422500D01*
X53850000Y-37950000D02*
X53750000Y-37950000D01*
X50840000Y-22470000D02*
X50840000Y-22757500D01*
D58*
X52680000Y-32300000D02*
X53500000Y-32300000D01*
D60*
X49425000Y-31100000D02*
X49425000Y-32600000D01*
D10*
X78226000Y-20611499D02*
X78237499Y-20600000D01*
D57*
X81900000Y-25000000D02*
X80300000Y-25000000D01*
D10*
X77317749Y-21451000D02*
X77756785Y-21451000D01*
D57*
%TO.N,VBUS*%
X71762501Y-21737499D02*
X71762501Y-21075000D01*
X71250000Y-22250000D02*
X71762501Y-21737499D01*
D58*
X55700000Y-24800000D02*
X54374997Y-24800000D01*
D57*
X70062500Y-22250000D02*
X71250000Y-22250000D01*
D58*
X54374997Y-24800000D02*
X54299997Y-24725000D01*
D10*
%TO.N,VSYS*%
X54700000Y-28800000D02*
X55777500Y-28800000D01*
D61*
X54750000Y-32740000D02*
X55259999Y-33249999D01*
X55259999Y-33249999D02*
X55775000Y-33249999D01*
D57*
X49825000Y-26800000D02*
X50125000Y-27100000D01*
D61*
X54750000Y-32740000D02*
X54750000Y-31980000D01*
D10*
X51187500Y-21387500D02*
X50800000Y-21000000D01*
D57*
X51500000Y-27100000D02*
X52000000Y-27100000D01*
D10*
X51187500Y-21912500D02*
X51187500Y-21387500D01*
D61*
X57800000Y-33250000D02*
X55775001Y-33250000D01*
D57*
X50125000Y-27100000D02*
X50950000Y-27100000D01*
D61*
X54750000Y-31980000D02*
X54650000Y-31880000D01*
D10*
X49830000Y-26795000D02*
X49825000Y-26800000D01*
D56*
X49830000Y-25970000D02*
X49830000Y-26795000D01*
D57*
X50950000Y-27100000D02*
X51500000Y-27100000D01*
D61*
X55775001Y-33250000D02*
X55775000Y-33249999D01*
D10*
%TO.N,3V3*%
X57200000Y-34850000D02*
X58667754Y-36317754D01*
X64400000Y-36100000D02*
X66500000Y-34000000D01*
X67680000Y-29349999D02*
X67680000Y-29150000D01*
X59862214Y-32012214D02*
X59862214Y-32026427D01*
X67317157Y-29150000D02*
X65289258Y-31177899D01*
X61731955Y-28805000D02*
X61435000Y-28805000D01*
X62407798Y-29480843D02*
X61731955Y-28805000D01*
X75055000Y-26512500D02*
X75055000Y-26505000D01*
X67881001Y-29551000D02*
X67680000Y-29349999D01*
X69080000Y-33200001D02*
X69080000Y-33950000D01*
X66500000Y-34000000D02*
X66926955Y-34000000D01*
X69080000Y-34650000D02*
X67576955Y-34650000D01*
X67680000Y-27750000D02*
X67680000Y-27580000D01*
D57*
X77800000Y-30575000D02*
X77825000Y-30600000D01*
D10*
X67576955Y-34650000D02*
X67269157Y-34342202D01*
X65297452Y-37461665D02*
X65297452Y-37847452D01*
X67680000Y-27550001D02*
X67680000Y-27750000D01*
X64723573Y-36887786D02*
X64400000Y-36564213D01*
X64400000Y-36564213D02*
X64400000Y-36100000D01*
X61435000Y-28805000D02*
X60380000Y-27750000D01*
X58667754Y-36317754D02*
X60149403Y-36317754D01*
X69080000Y-29150000D02*
X68679000Y-29551000D01*
X67449000Y-27349000D02*
X66662550Y-27349000D01*
X69080000Y-33950000D02*
X69080000Y-34650000D01*
X67680000Y-29150000D02*
X67317157Y-29150000D01*
X66662550Y-27349000D02*
X66280000Y-27731550D01*
X69650000Y-33950000D02*
X69700000Y-33900000D01*
X68679000Y-27349000D02*
X67881001Y-27349000D01*
X80275000Y-30575000D02*
X80300000Y-30600000D01*
X57020000Y-34850000D02*
X57200000Y-34850000D01*
X60380000Y-27750000D02*
X60120000Y-27750000D01*
X75055000Y-26505000D02*
X75050000Y-26500000D01*
X69080000Y-33950000D02*
X69650000Y-33950000D01*
X68679000Y-29551000D02*
X67881001Y-29551000D01*
X66926955Y-34000000D02*
X67269157Y-34342202D01*
X50500000Y-35700000D02*
X50975000Y-35225000D01*
X69080000Y-27750000D02*
X68679000Y-27349000D01*
X49900000Y-35700000D02*
X50500000Y-35700000D01*
X49900000Y-36600000D02*
X49900000Y-35700000D01*
X64723573Y-36887786D02*
X65297452Y-37461665D01*
D57*
X77825000Y-30600000D02*
X80250000Y-30600000D01*
D10*
X66280000Y-27731550D02*
X66280000Y-27750000D01*
X59076274Y-31226274D02*
X59862214Y-32012214D01*
X50975000Y-35225000D02*
X50975000Y-34600000D01*
X60149403Y-36317754D02*
X60427899Y-36039258D01*
X67680000Y-27580000D02*
X67449000Y-27349000D01*
X67881001Y-27349000D02*
X67680000Y-27550001D01*
%TO.N,1V1*%
X59200000Y-33750000D02*
X60500000Y-35050000D01*
X59250000Y-33750000D02*
X59200000Y-33750000D01*
X65750000Y-28450000D02*
X65590000Y-28450000D01*
X57020000Y-34150000D02*
X58350000Y-34150000D01*
X65572101Y-31460742D02*
X67112843Y-29920000D01*
X64570000Y-29634415D02*
X64157887Y-30046528D01*
X67150000Y-28770000D02*
X66070000Y-28770000D01*
X66070000Y-28770000D02*
X65750000Y-28450000D01*
X58750000Y-33750000D02*
X59200000Y-33750000D01*
X67470000Y-28450000D02*
X67150000Y-28770000D01*
X67112843Y-29920000D02*
X69010000Y-29920000D01*
X65590000Y-28450000D02*
X64570000Y-29470000D01*
X64570000Y-29470000D02*
X64570000Y-29634415D01*
X67680000Y-28450000D02*
X67470000Y-28450000D01*
X62500000Y-30500000D02*
X63704415Y-30500000D01*
X60500000Y-35050000D02*
X60500000Y-35401471D01*
X62500000Y-30500000D02*
X59250000Y-33750000D01*
X58350000Y-34150000D02*
X58750000Y-33750000D01*
X69010000Y-29920000D02*
X69080000Y-29850000D01*
X64157887Y-30046528D02*
X63704415Y-30500000D01*
X60500000Y-35401471D02*
X60145056Y-35756415D01*
%TO.N,/XIN*%
X60993585Y-36604944D02*
X60248529Y-37350000D01*
X56050000Y-37950000D02*
X56340000Y-37660000D01*
X57760000Y-37660000D02*
X57580000Y-37660000D01*
X56340000Y-37660000D02*
X57580000Y-37660000D01*
X58070000Y-37350000D02*
X57760000Y-37660000D01*
X60248529Y-37350000D02*
X58070000Y-37350000D01*
%TO.N,Net-(C16-Pad2)*%
X53850000Y-36250000D02*
X53030001Y-36250000D01*
X57580000Y-36015000D02*
X57014000Y-35449000D01*
X57014000Y-35449000D02*
X54651000Y-35449000D01*
X54651000Y-35449000D02*
X53850000Y-36250000D01*
X53030001Y-36250000D02*
X52500000Y-36780001D01*
D57*
%TO.N,9V*%
X78780000Y-32000000D02*
X80300000Y-32000000D01*
X78450000Y-32330000D02*
X78780000Y-32000000D01*
D10*
X78500000Y-35675000D02*
X78525000Y-35700000D01*
X78525000Y-35700000D02*
X78525000Y-35275000D01*
X78425000Y-35800000D02*
X78525000Y-35700000D01*
D57*
X78425000Y-37400000D02*
X78425000Y-35800000D01*
X78505000Y-33140000D02*
X78505000Y-32385000D01*
D10*
X80835000Y-34900000D02*
X81185000Y-35250000D01*
X78900000Y-34900000D02*
X80835000Y-34900000D01*
D57*
X78500000Y-33150000D02*
X78500000Y-35675000D01*
D10*
X78505000Y-32385000D02*
X78450000Y-32330000D01*
X78525000Y-35275000D02*
X78900000Y-34900000D01*
%TO.N,/DISP_PIN_CS*%
X74724966Y-36348000D02*
X68448000Y-36348000D01*
X75700000Y-29700000D02*
X75950000Y-29950000D01*
X67350000Y-35250000D02*
X67045585Y-35250000D01*
X80300000Y-28500000D02*
X78470000Y-28500000D01*
X68448000Y-36348000D02*
X67350000Y-35250000D01*
X75950000Y-35122966D02*
X74724966Y-36348000D01*
X75950000Y-29950000D02*
X75950000Y-35122966D01*
X67045585Y-35250000D02*
X66703472Y-34907887D01*
D57*
%TO.N,Net-(DS1-VCOMH)*%
X78560000Y-31300000D02*
X80300000Y-31300000D01*
D10*
X78450000Y-31410000D02*
X78560000Y-31300000D01*
%TO.N,/DISP_PIN_RST*%
X75125562Y-29710485D02*
X75125562Y-29875562D01*
X75649000Y-34998288D02*
X74600288Y-36047000D01*
X68597000Y-36047000D02*
X67499000Y-34949000D01*
X75125085Y-29710008D02*
X75125562Y-29710485D01*
X67310269Y-34949000D02*
X66986314Y-34625045D01*
X75649000Y-30399000D02*
X75649000Y-34998288D01*
X67499000Y-34949000D02*
X67310269Y-34949000D01*
X74600288Y-36047000D02*
X68597000Y-36047000D01*
X78500000Y-27800000D02*
X80300000Y-27800000D01*
X75125562Y-29875562D02*
X75649000Y-30399000D01*
%TO.N,/DISP_PIN_SCLK*%
X68149000Y-36649000D02*
X74849644Y-36649000D01*
X76250000Y-26950000D02*
X76800000Y-26400000D01*
X74849644Y-36649000D02*
X76251000Y-35247644D01*
X76250000Y-29035811D02*
X76250000Y-26950000D01*
X67770226Y-36270226D02*
X68149000Y-36649000D01*
X76251000Y-29036811D02*
X76250000Y-29035811D01*
X76251000Y-35247644D02*
X76251000Y-29036811D01*
X76800000Y-26400000D02*
X80300000Y-26400000D01*
%TO.N,Net-(DS1-IREF)*%
X78475000Y-29200000D02*
X80300000Y-29200000D01*
%TO.N,Net-(J1-DN1)*%
X63250000Y-26450000D02*
X63250000Y-27250000D01*
X70812502Y-21050002D02*
X70812500Y-21050000D01*
X70812502Y-21075000D02*
X70812502Y-21050002D01*
X62250000Y-27250000D02*
X62250000Y-26450000D01*
%TO.N,/DISP_PIN_MOSI*%
X76552000Y-28912133D02*
X76552000Y-35372322D01*
X74974322Y-36950000D02*
X67450000Y-36950000D01*
X76552000Y-35372322D02*
X74974322Y-36950000D01*
X67450000Y-36950000D02*
X67270226Y-36770226D01*
X76551000Y-28911133D02*
X76552000Y-28912133D01*
X78500000Y-25700000D02*
X80300000Y-25700000D01*
X76900000Y-26950000D02*
X76551000Y-27299000D01*
X76551000Y-27299000D02*
X76551000Y-28911133D01*
%TO.N,/DISP_PIN_DC*%
X77351000Y-27129000D02*
X77380000Y-27100000D01*
X66200000Y-36350000D02*
X67100000Y-37250000D01*
X66200000Y-36101471D02*
X66200000Y-36350000D01*
X77079000Y-27401000D02*
X77086811Y-27401000D01*
X67324322Y-37250000D02*
X67325322Y-37251000D01*
X67100000Y-37250000D02*
X67324322Y-37250000D01*
X76852000Y-27628000D02*
X77079000Y-27401000D01*
X77351000Y-27136811D02*
X77351000Y-27129000D01*
X75099000Y-37251000D02*
X76853000Y-35497000D01*
X65854944Y-35756415D02*
X66200000Y-36101471D01*
X77086811Y-27401000D02*
X77351000Y-27136811D01*
X67325322Y-37251000D02*
X75099000Y-37251000D01*
X76853000Y-35497000D02*
X76853000Y-28787455D01*
X77380000Y-27100000D02*
X80300000Y-27100000D01*
X76852000Y-28786455D02*
X76852000Y-27628000D01*
X76853000Y-28787455D02*
X76852000Y-28786455D01*
%TO.N,Net-(J1-CC2)*%
X64750000Y-27699999D02*
X64249999Y-28200000D01*
X64249999Y-28200000D02*
X64120000Y-28200000D01*
X64750000Y-26450000D02*
X64750000Y-27699999D01*
%TO.N,Net-(J1-CC1)*%
X61750000Y-26450000D02*
X61750000Y-27550000D01*
X61880000Y-27680000D02*
X61880000Y-28200000D01*
X61750000Y-27550000D02*
X61880000Y-27680000D01*
%TO.N,Net-(J4-Pin_2)*%
X49500000Y-37000000D02*
X45765000Y-37000000D01*
X45765000Y-37000000D02*
X45165000Y-37600000D01*
%TO.N,Net-(J4-Pin_1)*%
X43759999Y-36465001D02*
X42625000Y-37600000D01*
X49365001Y-36465001D02*
X43759999Y-36465001D01*
X49500000Y-36600000D02*
X49365001Y-36465001D01*
D59*
%TO.N,Net-(L1-Pad1)*%
X50455002Y-28225002D02*
X49537498Y-28225002D01*
X51137500Y-28550000D02*
X50780000Y-28550000D01*
X51537500Y-28550000D02*
X51137500Y-28550000D01*
X50780000Y-28550000D02*
X50455002Y-28225002D01*
%TO.N,Net-(L1-Pad2)*%
X50760000Y-29350000D02*
X50435000Y-29675000D01*
X50435000Y-29675000D02*
X49537498Y-29675000D01*
X51537500Y-29350000D02*
X51137500Y-29350000D01*
X51137500Y-29350000D02*
X50760000Y-29350000D01*
D10*
%TO.N,Net-(U2-GPIO2)*%
X66420629Y-35190730D02*
X66779899Y-35550000D01*
X67050000Y-35550000D02*
X67317678Y-35817678D01*
X66779899Y-35550000D02*
X67050000Y-35550000D01*
%TO.N,Net-(U2-GPIO3)*%
X66550000Y-36050000D02*
X66817678Y-36317678D01*
X66550000Y-35885787D02*
X66550000Y-36050000D01*
X66137786Y-35473573D02*
X66550000Y-35885787D01*
%TO.N,/QSPI_SS*%
X70349000Y-32500000D02*
X70349000Y-34587322D01*
X70349000Y-32159000D02*
X70349000Y-32500000D01*
X67739793Y-32331563D02*
X68219356Y-31852000D01*
X70348995Y-32500005D02*
X70349000Y-32500000D01*
X74552999Y-35002000D02*
X75055000Y-34499999D01*
X70349000Y-34587322D02*
X70763678Y-35002000D01*
X69720000Y-33200001D02*
X69720000Y-32500005D01*
X70042000Y-31852000D02*
X70349000Y-32159000D01*
X67269157Y-33157798D02*
X67739793Y-32687162D01*
X75055000Y-34499999D02*
X75055000Y-33687500D01*
X70763678Y-35002000D02*
X74552999Y-35002000D01*
X67739793Y-32687162D02*
X67739793Y-32331563D01*
X69720000Y-32500005D02*
X70348995Y-32500005D01*
X68219356Y-31852000D02*
X70042000Y-31852000D01*
%TO.N,/XOUT*%
X58100000Y-36950000D02*
X60082843Y-36950000D01*
X60082843Y-36950000D02*
X60710742Y-36322101D01*
X57580000Y-36655000D02*
X57805000Y-36655000D01*
X57805000Y-36655000D02*
X58100000Y-36950000D01*
%TO.N,Net-(U2-USB_DP)*%
X65698701Y-30071249D02*
X65264538Y-30071249D01*
X65264538Y-30071249D02*
X64723573Y-30612214D01*
%TO.N,Net-(U2-USB_DM)*%
X65067678Y-29702423D02*
X64440730Y-30329371D01*
%TO.N,Net-(U4-ISET)*%
X49350000Y-25100000D02*
X49662500Y-24787500D01*
X49662500Y-24787500D02*
X50687500Y-24787500D01*
X48920000Y-25100000D02*
X49350000Y-25100000D01*
%TO.N,Net-(U4-TS)*%
X49200000Y-24400000D02*
X49500000Y-24100000D01*
X49500000Y-24100000D02*
X50000000Y-24100000D01*
X48920000Y-24400000D02*
X49200000Y-24400000D01*
%TO.N,/BUTTON_L*%
X62550000Y-36500000D02*
X63786314Y-37736314D01*
X63786314Y-37736314D02*
X63875045Y-37736314D01*
%TO.N,/BUTTON_R*%
X63923045Y-38350000D02*
X63592202Y-38019157D01*
X64650000Y-38350000D02*
X63923045Y-38350000D01*
%TO.N,/BUTTON_MENU*%
X62407798Y-38019157D02*
X62026955Y-38400000D01*
X74400001Y-22200000D02*
X74399999Y-22200000D01*
X62026955Y-38400000D02*
X61200000Y-38400000D01*
%TO.N,Net-(U7-FB)*%
X83512500Y-36200001D02*
X82580000Y-35267501D01*
X82580000Y-35250000D02*
X81825000Y-35250000D01*
X82580000Y-35267501D02*
X82580000Y-35250000D01*
%TO.N,/AUDIO_I2S_DOUT*%
X57202000Y-31848000D02*
X56559994Y-32490006D01*
X58957208Y-32252792D02*
X58678470Y-32252792D01*
X58678470Y-32252792D02*
X58273678Y-31848000D01*
X58273678Y-31848000D02*
X57202000Y-31848000D01*
X59296528Y-32592113D02*
X58957208Y-32252792D01*
X56559994Y-32490006D02*
X56559994Y-32600000D01*
X50300000Y-37000000D02*
X50850000Y-37000000D01*
%TO.N,/QSPI_SD1*%
X70650000Y-32034322D02*
X70650000Y-34462644D01*
X70650000Y-34462644D02*
X70888356Y-34701000D01*
X70166678Y-31551000D02*
X70650000Y-32034322D01*
X67438793Y-32206885D02*
X68094678Y-31551000D01*
X66986314Y-32874955D02*
X67438793Y-32422476D01*
X68094678Y-31551000D02*
X70166678Y-31551000D01*
X73785000Y-34365000D02*
X73785000Y-33687500D01*
X70888356Y-34701000D02*
X73449000Y-34701000D01*
X67438793Y-32422476D02*
X67438793Y-32206885D01*
X73449000Y-34701000D02*
X73785000Y-34365000D01*
%TO.N,Net-(J1-DP1)*%
X63750000Y-27450000D02*
X63500000Y-27700000D01*
X64250000Y-27450000D02*
X63750000Y-27450000D01*
X63750000Y-26450000D02*
X63750000Y-27450000D01*
X63025000Y-27700000D02*
X62750000Y-27425000D01*
X63500000Y-27700000D02*
X63025000Y-27700000D01*
X62750000Y-27425000D02*
X62750000Y-26450000D01*
%TO.N,/QSPI_SD3*%
X67589644Y-30349000D02*
X72551000Y-30349000D01*
X66680000Y-31250000D02*
X66681000Y-31249000D01*
X66689644Y-31249000D02*
X67589644Y-30349000D01*
X72551000Y-30349000D02*
X73785000Y-29115000D01*
X66681000Y-31249000D02*
X66689644Y-31249000D01*
X65854944Y-31743585D02*
X66348529Y-31250000D01*
X66348529Y-31250000D02*
X66680000Y-31250000D01*
X73785000Y-29115000D02*
X73785000Y-26512500D01*
%TO.N,/AUDIO_I2S_SD*%
X59220101Y-31950000D02*
X59579371Y-32309270D01*
X50475003Y-36424997D02*
X50850000Y-36424997D01*
X58801356Y-31950000D02*
X59220101Y-31950000D01*
X56201000Y-32149000D02*
X56475322Y-32149000D01*
X50300000Y-36600000D02*
X50475003Y-36424997D01*
X55984991Y-32365009D02*
X56201000Y-32149000D01*
X58398356Y-31547000D02*
X58801356Y-31950000D01*
X57077322Y-31547000D02*
X58398356Y-31547000D01*
X56475322Y-32149000D02*
X57077322Y-31547000D01*
X55984991Y-32600000D02*
X55984991Y-32365009D01*
%TO.N,/QSPI_SD2*%
X67137793Y-32082207D02*
X67137793Y-32157793D01*
X72515000Y-32065000D02*
X71700000Y-31250000D01*
X67970000Y-31250000D02*
X67137793Y-32082207D01*
X72515000Y-33687500D02*
X72515000Y-32065000D01*
X67137793Y-32157793D02*
X66703472Y-32592113D01*
X71700000Y-31250000D02*
X67970000Y-31250000D01*
%TO.N,/AUDIO_I2S_LRCK*%
X58730843Y-33157798D02*
X58173045Y-32600000D01*
X49500000Y-37400000D02*
X49324997Y-37575003D01*
X49324997Y-37575003D02*
X49324997Y-37850000D01*
X58173045Y-32600000D02*
X57710000Y-32600000D01*
%TO.N,/QSPI_SCLK*%
X74450000Y-25700000D02*
X74150000Y-25400000D01*
X66137786Y-32026427D02*
X66614213Y-31550000D01*
X74450000Y-28900000D02*
X74450000Y-25700000D01*
X72815001Y-25400000D02*
X72515000Y-25700001D01*
X66814322Y-31550000D02*
X67714322Y-30650000D01*
X74150000Y-25400000D02*
X72815001Y-25400000D01*
X72700000Y-30650000D02*
X74450000Y-28900000D01*
X67714322Y-30650000D02*
X72700000Y-30650000D01*
X66614213Y-31550000D02*
X66814322Y-31550000D01*
X72515000Y-25700001D02*
X72515000Y-26512500D01*
%TO.N,/AUDIO_I2S_BCLK*%
X58704365Y-32565635D02*
X58565635Y-32565635D01*
X59013686Y-32874955D02*
X58704365Y-32565635D01*
X57341000Y-32149000D02*
X57134997Y-32355003D01*
X50500000Y-37600000D02*
X50850000Y-37600000D01*
X57134997Y-32355003D02*
X57134997Y-32600000D01*
X58149000Y-32149000D02*
X57341000Y-32149000D01*
X50300000Y-37400000D02*
X50500000Y-37600000D01*
X58565635Y-32565635D02*
X58149000Y-32149000D01*
%TO.N,/QSPI_SD0*%
X75350000Y-25100000D02*
X75650000Y-25400000D01*
X71245000Y-26512500D02*
X71245000Y-25700001D01*
X66920051Y-31869949D02*
X66859949Y-31869949D01*
X66859949Y-31869949D02*
X66420629Y-32309270D01*
X72875000Y-30950000D02*
X67840000Y-30950000D01*
X71245000Y-25700001D02*
X71845001Y-25100000D01*
X67840000Y-30950000D02*
X66920051Y-31869949D01*
X71845001Y-25100000D02*
X75350000Y-25100000D01*
X75650000Y-28175000D02*
X72875000Y-30950000D01*
X75650000Y-25400000D02*
X75650000Y-28175000D01*
%TO.N,REG_EN*%
X51937500Y-28150000D02*
X52237499Y-27850001D01*
X52237499Y-27850001D02*
X53502500Y-27850001D01*
%TO.N,/USB_D+*%
X72712500Y-24300000D02*
X72712500Y-23350000D01*
%TO.N,/USB_D-*%
X72172500Y-24650000D02*
X71450003Y-24650000D01*
X71450003Y-24650000D02*
X70812502Y-24012499D01*
X70812502Y-24012499D02*
X70812502Y-23350000D01*
%TO.N,/DISP_REG_EN*%
X77310000Y-35465678D02*
X75223678Y-37552000D01*
X87130000Y-36200000D02*
X85787500Y-36200001D01*
X75223678Y-37552000D02*
X66943421Y-37552000D01*
X66943421Y-37552000D02*
X65572101Y-36180680D01*
X65572101Y-36180680D02*
X65572101Y-36039258D01*
X77310000Y-34970000D02*
X77310000Y-35465678D01*
%TO.N,/PWR_~{PGOOD}*%
X57800000Y-28350000D02*
X60276736Y-30826736D01*
X52112500Y-21000000D02*
X51687500Y-21425000D01*
X60276736Y-30826736D02*
X60356736Y-30826736D01*
X52100000Y-21000000D02*
X52112500Y-21000000D01*
X60356736Y-30826736D02*
X60707899Y-31177899D01*
X51687500Y-21425000D02*
X51687500Y-21912500D01*
%TO.N,/PWR_~{CHG}*%
X52875000Y-22600000D02*
X53325678Y-22600000D01*
X53600000Y-22325678D02*
X53600000Y-21000000D01*
X53325678Y-22600000D02*
X53600000Y-22325678D01*
X60401414Y-30525736D02*
X60624264Y-30525736D01*
X58450000Y-28350000D02*
X58450000Y-28574322D01*
X58450000Y-28574322D02*
X60401414Y-30525736D01*
X57800000Y-27700000D02*
X58450000Y-28350000D01*
X60624264Y-30525736D02*
X60993585Y-30895056D01*
%TO.N,/PWR_CHG_EN*%
X60060000Y-31034322D02*
X60060000Y-31092843D01*
X58025678Y-29000000D02*
X60060000Y-31034322D01*
X57800000Y-29000000D02*
X58025678Y-29000000D01*
X57150000Y-28350000D02*
X57800000Y-29000000D01*
X50000000Y-22600000D02*
X50000000Y-22200000D01*
X60060000Y-31092843D02*
X60427899Y-31460742D01*
X50000000Y-22200000D02*
X49800000Y-22000000D01*
%TO.N,Net-(D1-DIN)*%
X93550000Y-36400000D02*
X93550000Y-35500000D01*
X34100000Y-34000000D02*
X32400000Y-34000000D01*
%TO.N,Net-(D3-A)*%
X81850000Y-37925001D02*
X82024998Y-38099999D01*
D57*
X80525000Y-37400000D02*
X81324999Y-37400000D01*
X81324999Y-37400000D02*
X81850000Y-37925001D01*
X82024998Y-38099999D02*
X83512500Y-38099999D01*
D10*
%TO.N,/LED_DIN*%
X65289258Y-36322101D02*
X65823726Y-36856569D01*
X65823726Y-36856569D02*
X65823726Y-37323726D01*
%TO.N,Net-(U9-SET)*%
X53329999Y-31180000D02*
X53500000Y-31350001D01*
X52200000Y-31180000D02*
X53329999Y-31180000D01*
%TO.N,Net-(U2-RUN)*%
X59296528Y-34907887D02*
X59292113Y-34907887D01*
%TO.N,Net-(D2-DIN)*%
X77761000Y-35440356D02*
X75348356Y-37853000D01*
X67085908Y-37853000D02*
X67000000Y-37938908D01*
X77761000Y-34411000D02*
X77761000Y-35440356D01*
X77750000Y-34400000D02*
X77761000Y-34411000D01*
X99000000Y-32800000D02*
X99000000Y-34000000D01*
X75348356Y-37853000D02*
X67085908Y-37853000D01*
X91850000Y-32550000D02*
X98750000Y-32550000D01*
X98750000Y-32550000D02*
X99000000Y-32800000D01*
X67000000Y-37938908D02*
X66438908Y-37938908D01*
X66438908Y-37938908D02*
X66276274Y-37776274D01*
%TO.N,VSYS_GATED*%
X26960000Y-33990000D02*
X26950000Y-34000000D01*
X26960000Y-32770000D02*
X26960000Y-33990000D01*
X59640000Y-28940000D02*
X60073726Y-29373726D01*
X93550000Y-33030000D02*
X93550000Y-34000000D01*
D58*
X53500000Y-33249999D02*
X53500000Y-33800000D01*
D10*
%TO.N,/PWR_PERIPH_EN*%
X60145056Y-31743585D02*
X60143585Y-31743585D01*
X59750000Y-31150000D02*
X58750000Y-30150000D01*
X58080000Y-30420000D02*
X56050000Y-30420000D01*
X59750000Y-31350000D02*
X59750000Y-31150000D01*
X60143585Y-31743585D02*
X59750000Y-31350000D01*
X56050000Y-30420000D02*
X56050000Y-31075001D01*
X58350000Y-30150000D02*
X58080000Y-30420000D01*
X58750000Y-30150000D02*
X58350000Y-30150000D01*
X56050000Y-31075001D02*
X55775000Y-31350001D01*
%TO.N,/PWR_VBAT*%
X61021248Y-29331300D02*
X60526274Y-29826274D01*
X60446535Y-29782322D02*
X61276427Y-30612214D01*
%TD*%
%TA.AperFunction,Conductor*%
%TO.N,GND*%
G36*
X56771604Y-20222174D02*
G01*
X56793278Y-20274500D01*
X56771604Y-20326826D01*
X56747596Y-20342867D01*
X56576324Y-20413809D01*
X56412540Y-20523246D01*
X56273246Y-20662540D01*
X56163809Y-20826324D01*
X56088430Y-21008306D01*
X56088427Y-21008317D01*
X56050000Y-21201509D01*
X56050000Y-21550000D01*
X56750000Y-21550000D01*
X56750000Y-22050000D01*
X56447055Y-22050000D01*
X56394729Y-22028326D01*
X56338347Y-21971944D01*
X56328208Y-21966778D01*
X56225306Y-21914347D01*
X56225303Y-21914346D01*
X56225302Y-21914346D01*
X56100002Y-21894500D01*
X56100000Y-21894500D01*
X55324325Y-21894500D01*
X55307529Y-21895493D01*
X55276535Y-21897325D01*
X55276530Y-21897326D01*
X55154438Y-21931804D01*
X55154435Y-21931805D01*
X55048984Y-22002315D01*
X55048972Y-22002325D01*
X55045728Y-22005326D01*
X54995482Y-22024999D01*
X54374000Y-22024999D01*
X54321674Y-22003325D01*
X54300000Y-21950999D01*
X54300000Y-21774999D01*
X54124000Y-21774999D01*
X54071674Y-21753325D01*
X54050000Y-21700999D01*
X54050000Y-21524999D01*
X54550000Y-21524999D01*
X55274999Y-21524999D01*
X55274999Y-21501692D01*
X55274998Y-21501686D01*
X55264855Y-21402390D01*
X55211547Y-21241516D01*
X55122573Y-21097267D01*
X55002731Y-20977425D01*
X54858482Y-20888451D01*
X54697608Y-20835143D01*
X54598311Y-20824999D01*
X54550000Y-20824999D01*
X54550000Y-21524999D01*
X54050000Y-21524999D01*
X54050000Y-21291405D01*
X54059912Y-21254408D01*
X54089688Y-21202836D01*
X54125499Y-21069185D01*
X54125500Y-21069185D01*
X54125500Y-20930815D01*
X54125499Y-20930814D01*
X54097146Y-20825000D01*
X54089688Y-20797164D01*
X54020505Y-20677335D01*
X53922665Y-20579495D01*
X53802836Y-20510312D01*
X53802831Y-20510310D01*
X53669185Y-20474500D01*
X53669183Y-20474500D01*
X53530817Y-20474500D01*
X53530815Y-20474500D01*
X53397168Y-20510310D01*
X53397163Y-20510312D01*
X53277334Y-20579495D01*
X53179495Y-20677334D01*
X53110312Y-20797163D01*
X53110310Y-20797168D01*
X53074500Y-20930814D01*
X53074500Y-21069185D01*
X53110310Y-21202831D01*
X53110312Y-21202836D01*
X53179496Y-21322667D01*
X53182448Y-21326514D01*
X53180675Y-21327874D01*
X53199500Y-21373322D01*
X53199500Y-22100500D01*
X53177826Y-22152826D01*
X53125500Y-22174500D01*
X52886500Y-22174500D01*
X52834174Y-22152826D01*
X52812500Y-22100500D01*
X52812500Y-22037500D01*
X52261500Y-22037500D01*
X52209174Y-22015826D01*
X52187500Y-21963500D01*
X52187500Y-21861500D01*
X52209174Y-21809174D01*
X52261500Y-21787500D01*
X52812500Y-21787500D01*
X52812500Y-21500631D01*
X52798022Y-21390658D01*
X52741342Y-21253822D01*
X52651182Y-21136322D01*
X52647750Y-21132890D01*
X52649564Y-21131075D01*
X52625403Y-21089208D01*
X52625405Y-21069905D01*
X52625500Y-21069183D01*
X52625500Y-20930815D01*
X52625499Y-20930814D01*
X52597146Y-20825000D01*
X52589688Y-20797164D01*
X52520505Y-20677335D01*
X52422665Y-20579495D01*
X52302836Y-20510312D01*
X52302831Y-20510310D01*
X52169185Y-20474500D01*
X52169183Y-20474500D01*
X52030817Y-20474500D01*
X52030815Y-20474500D01*
X51897168Y-20510310D01*
X51897163Y-20510312D01*
X51777334Y-20579495D01*
X51679495Y-20677334D01*
X51610312Y-20797163D01*
X51610310Y-20797168D01*
X51574500Y-20930814D01*
X51574500Y-20940955D01*
X51552826Y-20993281D01*
X51508576Y-21037531D01*
X51456250Y-21059205D01*
X51403924Y-21037531D01*
X51347174Y-20980781D01*
X51328348Y-20935332D01*
X51326133Y-20935624D01*
X51325500Y-20930821D01*
X51325500Y-20930817D01*
X51289688Y-20797164D01*
X51220505Y-20677335D01*
X51122665Y-20579495D01*
X51002836Y-20510312D01*
X51002831Y-20510310D01*
X50869185Y-20474500D01*
X50869183Y-20474500D01*
X50730817Y-20474500D01*
X50730815Y-20474500D01*
X50597168Y-20510310D01*
X50597163Y-20510312D01*
X50477334Y-20579495D01*
X50379495Y-20677334D01*
X50310312Y-20797163D01*
X50310310Y-20797168D01*
X50274500Y-20930814D01*
X50274500Y-21060938D01*
X50252826Y-21113264D01*
X50245550Y-21119645D01*
X50223820Y-21136319D01*
X50223817Y-21136322D01*
X50133657Y-21253822D01*
X50076977Y-21390658D01*
X50070249Y-21441766D01*
X50041930Y-21490815D01*
X49987222Y-21505473D01*
X49977734Y-21503586D01*
X49869183Y-21474500D01*
X49730817Y-21474500D01*
X49636051Y-21499892D01*
X49579899Y-21492499D01*
X49545420Y-21447565D01*
X49543282Y-21435932D01*
X49539856Y-21402390D01*
X49486548Y-21241516D01*
X49397574Y-21097267D01*
X49277732Y-20977425D01*
X49133483Y-20888451D01*
X48972609Y-20835143D01*
X48873312Y-20824999D01*
X48825001Y-20824999D01*
X48825001Y-21700999D01*
X48803327Y-21753325D01*
X48751001Y-21774999D01*
X48575001Y-21774999D01*
X48575001Y-21950999D01*
X48553327Y-22003325D01*
X48501001Y-22024999D01*
X47600002Y-22024999D01*
X47600002Y-22048311D01*
X47610145Y-22147607D01*
X47646674Y-22257845D01*
X47642559Y-22314332D01*
X47599706Y-22351365D01*
X47543219Y-22347250D01*
X47524104Y-22333447D01*
X46896542Y-21705885D01*
X46781810Y-21629224D01*
X46654332Y-21576421D01*
X46654322Y-21576418D01*
X46634008Y-21572378D01*
X46601406Y-21565893D01*
X46518994Y-21549500D01*
X46518993Y-21549500D01*
X46518992Y-21549500D01*
X45738269Y-21549500D01*
X45685943Y-21527826D01*
X45676741Y-21516613D01*
X45666768Y-21501687D01*
X47600001Y-21501687D01*
X47600001Y-21524999D01*
X48325001Y-21524999D01*
X48325001Y-20824999D01*
X48325000Y-20824998D01*
X48276693Y-20824999D01*
X48276687Y-20825000D01*
X48177392Y-20835143D01*
X48016518Y-20888451D01*
X47872269Y-20977425D01*
X47752427Y-21097267D01*
X47663453Y-21241516D01*
X47610145Y-21402390D01*
X47600001Y-21501687D01*
X45666768Y-21501687D01*
X45599470Y-21400970D01*
X45599468Y-21400968D01*
X45599466Y-21400965D01*
X45474037Y-21275536D01*
X45466913Y-21270776D01*
X45326546Y-21176985D01*
X45162672Y-21109107D01*
X45162662Y-21109104D01*
X45032028Y-21083120D01*
X44988693Y-21074500D01*
X44811311Y-21074500D01*
X44767976Y-21083120D01*
X44637341Y-21109104D01*
X44637331Y-21109107D01*
X44473457Y-21176985D01*
X44325970Y-21275533D01*
X44200535Y-21400968D01*
X44125418Y-21513389D01*
X44078325Y-21544855D01*
X44022777Y-21533806D01*
X43991311Y-21486713D01*
X43990272Y-21479797D01*
X43989506Y-21472302D01*
X43934358Y-21305878D01*
X43842317Y-21156656D01*
X43842315Y-21156653D01*
X43718348Y-21032686D01*
X43718344Y-21032683D01*
X43569122Y-20940642D01*
X43402698Y-20885494D01*
X43299976Y-20875000D01*
X43150001Y-20875000D01*
X43150001Y-21969670D01*
X43130256Y-21949925D01*
X43044746Y-21900556D01*
X42949371Y-21875000D01*
X42850631Y-21875000D01*
X42755256Y-21900556D01*
X42669746Y-21949925D01*
X42650001Y-21969670D01*
X42650001Y-20875000D01*
X42500030Y-20875000D01*
X42500024Y-20875001D01*
X42397304Y-20885494D01*
X42230879Y-20940642D01*
X42081657Y-21032683D01*
X41957684Y-21156656D01*
X41865643Y-21305878D01*
X41810495Y-21472302D01*
X41800001Y-21575024D01*
X41800001Y-22000000D01*
X42619671Y-22000000D01*
X42599926Y-22019745D01*
X42550557Y-22105255D01*
X42525001Y-22200630D01*
X42525001Y-22299370D01*
X42550557Y-22394745D01*
X42599926Y-22480255D01*
X42619671Y-22500000D01*
X41800002Y-22500000D01*
X41800002Y-22924976D01*
X41810495Y-23027696D01*
X41865643Y-23194121D01*
X41957684Y-23343343D01*
X41957687Y-23343347D01*
X42081654Y-23467314D01*
X42081657Y-23467316D01*
X42230879Y-23559357D01*
X42397303Y-23614505D01*
X42500026Y-23624999D01*
X42650001Y-23624999D01*
X42650001Y-22530330D01*
X42669746Y-22550075D01*
X42755256Y-22599444D01*
X42850631Y-22625000D01*
X42949371Y-22625000D01*
X43044746Y-22599444D01*
X43130256Y-22550075D01*
X43150001Y-22530330D01*
X43150001Y-23624999D01*
X43299972Y-23624999D01*
X43299977Y-23624998D01*
X43402697Y-23614505D01*
X43569122Y-23559357D01*
X43718344Y-23467316D01*
X43718348Y-23467314D01*
X43842315Y-23343347D01*
X43842317Y-23343343D01*
X43934358Y-23194121D01*
X43989506Y-23027696D01*
X43990272Y-23020203D01*
X44017151Y-22970350D01*
X44071408Y-22954105D01*
X44121261Y-22980984D01*
X44125412Y-22986603D01*
X44156175Y-23032642D01*
X44185649Y-23076753D01*
X44200538Y-23099035D01*
X44325967Y-23224464D01*
X44473455Y-23323013D01*
X44637336Y-23390894D01*
X44811311Y-23425500D01*
X44811313Y-23425500D01*
X44988691Y-23425500D01*
X44988693Y-23425500D01*
X45162668Y-23390894D01*
X45326549Y-23323013D01*
X45474037Y-23224464D01*
X45599466Y-23099035D01*
X45612186Y-23079999D01*
X45676741Y-22983387D01*
X45723833Y-22951922D01*
X45738269Y-22950500D01*
X46129191Y-22950500D01*
X46181517Y-22972174D01*
X47078456Y-23869113D01*
X47193188Y-23945774D01*
X47320670Y-23998579D01*
X47347588Y-24003932D01*
X47347589Y-24003933D01*
X47347590Y-24003933D01*
X47456006Y-24025499D01*
X47503519Y-24025499D01*
X47555845Y-24047173D01*
X47577519Y-24099499D01*
X47571886Y-24127819D01*
X47565443Y-24143371D01*
X47557987Y-24199999D01*
X47557988Y-24200000D01*
X48206000Y-24200000D01*
X48258326Y-24221674D01*
X48280000Y-24274000D01*
X48280000Y-24526000D01*
X48258326Y-24578326D01*
X48206000Y-24600000D01*
X47557989Y-24600000D01*
X47565443Y-24656628D01*
X47565444Y-24656632D01*
X47592388Y-24721682D01*
X47592388Y-24778318D01*
X47565443Y-24843369D01*
X47557987Y-24899999D01*
X47557988Y-24900000D01*
X48206000Y-24900000D01*
X48258326Y-24921674D01*
X48280000Y-24974000D01*
X48280000Y-25100000D01*
X48315501Y-25100000D01*
X48367827Y-25121674D01*
X48389501Y-25174000D01*
X48389501Y-25231519D01*
X48404353Y-25325304D01*
X48404354Y-25325306D01*
X48461950Y-25438342D01*
X48465374Y-25443055D01*
X48462610Y-25445062D01*
X48480000Y-25487044D01*
X48480000Y-25745000D01*
X48500505Y-25765505D01*
X48503326Y-25766674D01*
X48525000Y-25819000D01*
X48525000Y-27799785D01*
X48510541Y-27843727D01*
X48483380Y-27880528D01*
X48439774Y-28005147D01*
X48439773Y-28005151D01*
X48439773Y-28005153D01*
X48436998Y-28034746D01*
X48436998Y-28415258D01*
X48439773Y-28444851D01*
X48439773Y-28444853D01*
X48439774Y-28444856D01*
X48483380Y-28569475D01*
X48507543Y-28602214D01*
X48561787Y-28675713D01*
X48628981Y-28725304D01*
X48668024Y-28754119D01*
X48792643Y-28797725D01*
X48792649Y-28797727D01*
X48822242Y-28800502D01*
X48822249Y-28800502D01*
X50252747Y-28800502D01*
X50252754Y-28800502D01*
X50282347Y-28797727D01*
X50318668Y-28785017D01*
X50331360Y-28785729D01*
X50343108Y-28780864D01*
X50358539Y-28787255D01*
X50375214Y-28788192D01*
X50395434Y-28802538D01*
X50461026Y-28868130D01*
X50482700Y-28920456D01*
X50482700Y-28959544D01*
X50461026Y-29011870D01*
X50380617Y-29092278D01*
X50328291Y-29113952D01*
X50303849Y-29109799D01*
X50282350Y-29102275D01*
X50272482Y-29101350D01*
X50252754Y-29099500D01*
X48822242Y-29099500D01*
X48792649Y-29102275D01*
X48792647Y-29102275D01*
X48792643Y-29102276D01*
X48668024Y-29145882D01*
X48561788Y-29224288D01*
X48561786Y-29224290D01*
X48483380Y-29330526D01*
X48439774Y-29455145D01*
X48439773Y-29455149D01*
X48439773Y-29455151D01*
X48436998Y-29484744D01*
X48436998Y-29865256D01*
X48439773Y-29894849D01*
X48439773Y-29894851D01*
X48439774Y-29894854D01*
X48483380Y-30019473D01*
X48512126Y-30058422D01*
X48561787Y-30125711D01*
X48668023Y-30204116D01*
X48669867Y-30204761D01*
X48670771Y-30205569D01*
X48672928Y-30206709D01*
X48672645Y-30207243D01*
X48712100Y-30242496D01*
X48715282Y-30299044D01*
X48697758Y-30326936D01*
X48627426Y-30397268D01*
X48538452Y-30541517D01*
X48485144Y-30702391D01*
X48475000Y-30801688D01*
X48475000Y-30850000D01*
X49351000Y-30850000D01*
X49403326Y-30871674D01*
X49425000Y-30924000D01*
X49425000Y-31100000D01*
X49601000Y-31100000D01*
X49653326Y-31121674D01*
X49675000Y-31174000D01*
X49675000Y-35153566D01*
X49653326Y-35205892D01*
X49634596Y-35219500D01*
X49531657Y-35271950D01*
X49441951Y-35361656D01*
X49384353Y-35474698D01*
X49369500Y-35568480D01*
X49369500Y-35626000D01*
X49347826Y-35678326D01*
X49295500Y-35700000D01*
X49260000Y-35700000D01*
X49260000Y-35826000D01*
X49238326Y-35878326D01*
X49186000Y-35900000D01*
X48537989Y-35900000D01*
X48545443Y-35956627D01*
X48547744Y-35962181D01*
X48547745Y-36018818D01*
X48507697Y-36058868D01*
X48479377Y-36064501D01*
X43812726Y-36064501D01*
X43707272Y-36064501D01*
X43656341Y-36078147D01*
X43605410Y-36091794D01*
X43605406Y-36091796D01*
X43514087Y-36144519D01*
X43230780Y-36427826D01*
X43178454Y-36449500D01*
X41730136Y-36449500D01*
X41705013Y-36452414D01*
X41705007Y-36452415D01*
X41602234Y-36497794D01*
X41522794Y-36577234D01*
X41477414Y-36680011D01*
X41474500Y-36705135D01*
X41474500Y-38494863D01*
X41477414Y-38519986D01*
X41477415Y-38519992D01*
X41515352Y-38605911D01*
X41522794Y-38622765D01*
X41602235Y-38702206D01*
X41705009Y-38747585D01*
X41730135Y-38750500D01*
X43519864Y-38750499D01*
X43544991Y-38747585D01*
X43647765Y-38702206D01*
X43727206Y-38622765D01*
X43772585Y-38519991D01*
X43775500Y-38494865D01*
X43775499Y-37046544D01*
X43797173Y-36994219D01*
X43904218Y-36887175D01*
X43956544Y-36865501D01*
X44131315Y-36865501D01*
X44183641Y-36887175D01*
X44205315Y-36939501D01*
X44191182Y-36982997D01*
X44181005Y-36997003D01*
X44181005Y-36997004D01*
X44098787Y-37158364D01*
X44042831Y-37330580D01*
X44042828Y-37330593D01*
X44014500Y-37509453D01*
X44014500Y-37690546D01*
X44042828Y-37869406D01*
X44042831Y-37869419D01*
X44098787Y-38041635D01*
X44098788Y-38041638D01*
X44098789Y-38041639D01*
X44178035Y-38197168D01*
X44181005Y-38202995D01*
X44181005Y-38202996D01*
X44221976Y-38259388D01*
X44287447Y-38349501D01*
X44415499Y-38477553D01*
X44524685Y-38556881D01*
X44560417Y-38582842D01*
X44562006Y-38583996D01*
X44723361Y-38666211D01*
X44723364Y-38666212D01*
X44723363Y-38666212D01*
X44895580Y-38722168D01*
X44895586Y-38722169D01*
X44895591Y-38722171D01*
X44980985Y-38735696D01*
X45074453Y-38750500D01*
X45074454Y-38750500D01*
X45255547Y-38750500D01*
X45319580Y-38740358D01*
X45434409Y-38722171D01*
X45434416Y-38722168D01*
X45434419Y-38722168D01*
X45540006Y-38687861D01*
X45606639Y-38666211D01*
X45767994Y-38583996D01*
X45914501Y-38477553D01*
X46042553Y-38349501D01*
X46148996Y-38202994D01*
X46231211Y-38041639D01*
X46264862Y-37938069D01*
X46287168Y-37869419D01*
X46287168Y-37869416D01*
X46287171Y-37869409D01*
X46315500Y-37690546D01*
X46315500Y-37509454D01*
X46311797Y-37486076D01*
X46325018Y-37431005D01*
X46373308Y-37401411D01*
X46384886Y-37400500D01*
X48852676Y-37400500D01*
X48905002Y-37422174D01*
X48926676Y-37474500D01*
X48906639Y-37522873D01*
X48907443Y-37523490D01*
X48905141Y-37526489D01*
X48905002Y-37526824D01*
X48904492Y-37527335D01*
X48904490Y-37527337D01*
X48835309Y-37647163D01*
X48835307Y-37647168D01*
X48799497Y-37780814D01*
X48799497Y-37919185D01*
X48835307Y-38052831D01*
X48835309Y-38052836D01*
X48904492Y-38172665D01*
X49002332Y-38270505D01*
X49122161Y-38339688D01*
X49255811Y-38375499D01*
X49255812Y-38375500D01*
X49255814Y-38375500D01*
X49394182Y-38375500D01*
X49394182Y-38375499D01*
X49527833Y-38339688D01*
X49647662Y-38270505D01*
X49745502Y-38172665D01*
X49803621Y-38071999D01*
X49848553Y-38037522D01*
X49867706Y-38035000D01*
X49962540Y-38035000D01*
X50085217Y-38010598D01*
X50085223Y-38010596D01*
X50200782Y-37962729D01*
X50221150Y-37949120D01*
X50233292Y-37946704D01*
X50243111Y-37939170D01*
X50259992Y-37941392D01*
X50276699Y-37938069D01*
X50299262Y-37946561D01*
X50332423Y-37965707D01*
X50345413Y-37973207D01*
X50345415Y-37973207D01*
X50345416Y-37973208D01*
X50384871Y-37983780D01*
X50447270Y-38000500D01*
X50447271Y-38000501D01*
X50447273Y-38000501D01*
X50476679Y-38000501D01*
X50522125Y-38019325D01*
X50523486Y-38017552D01*
X50527332Y-38020503D01*
X50527334Y-38020504D01*
X50527335Y-38020505D01*
X50647164Y-38089688D01*
X50780814Y-38125499D01*
X50780815Y-38125500D01*
X50780817Y-38125500D01*
X50919185Y-38125500D01*
X50919185Y-38125499D01*
X51052836Y-38089688D01*
X51172665Y-38020505D01*
X51270505Y-37922665D01*
X51339688Y-37802836D01*
X51375499Y-37669185D01*
X51375500Y-37669185D01*
X51375500Y-37620001D01*
X51804040Y-37620001D01*
X51815443Y-37706629D01*
X51815444Y-37706633D01*
X51875900Y-37852588D01*
X51972075Y-37977925D01*
X52097412Y-38074100D01*
X52243367Y-38134556D01*
X52243371Y-38134557D01*
X52299999Y-38142012D01*
X52300000Y-38142012D01*
X52300000Y-37620001D01*
X51804040Y-37620001D01*
X51375500Y-37620001D01*
X51375500Y-37530815D01*
X51375499Y-37530814D01*
X51374567Y-37527337D01*
X51340448Y-37400000D01*
X51339689Y-37397167D01*
X51339687Y-37397162D01*
X51304952Y-37337000D01*
X51297559Y-37280848D01*
X51304952Y-37263000D01*
X51312812Y-37249386D01*
X51339688Y-37202836D01*
X51375499Y-37069185D01*
X51375500Y-37069185D01*
X51375500Y-36930815D01*
X51375499Y-36930814D01*
X51371342Y-36915301D01*
X51339688Y-36797164D01*
X51312168Y-36749498D01*
X51304775Y-36693346D01*
X51312169Y-36675497D01*
X51339686Y-36627837D01*
X51339689Y-36627829D01*
X51375499Y-36494182D01*
X51375500Y-36494182D01*
X51375500Y-36355812D01*
X51375499Y-36355811D01*
X51372449Y-36344430D01*
X51339688Y-36222161D01*
X51270505Y-36102332D01*
X51172665Y-36004492D01*
X51052836Y-35935309D01*
X51052831Y-35935307D01*
X51001749Y-35921620D01*
X50956816Y-35887142D01*
X50949424Y-35830989D01*
X50968574Y-35797818D01*
X51295480Y-35470913D01*
X51307265Y-35450501D01*
X51348207Y-35379587D01*
X51348619Y-35378047D01*
X51351751Y-35372561D01*
X51370719Y-35357856D01*
X51387692Y-35340880D01*
X51388844Y-35340414D01*
X51459975Y-35312364D01*
X51575078Y-35225078D01*
X51662364Y-35109975D01*
X51715359Y-34975590D01*
X51725500Y-34891144D01*
X51725500Y-34308856D01*
X51715359Y-34224410D01*
X51662364Y-34090025D01*
X51575078Y-33974922D01*
X51459975Y-33887636D01*
X51459974Y-33887635D01*
X51459972Y-33887634D01*
X51325590Y-33834641D01*
X51241145Y-33824500D01*
X51241144Y-33824500D01*
X50708856Y-33824500D01*
X50708855Y-33824500D01*
X50624409Y-33834641D01*
X50490027Y-33887634D01*
X50474852Y-33899142D01*
X50374922Y-33974922D01*
X50374920Y-33974923D01*
X50370889Y-33977981D01*
X50369558Y-33976226D01*
X50324151Y-33995022D01*
X50271830Y-33973335D01*
X50261186Y-33959870D01*
X50222573Y-33897268D01*
X50102731Y-33777426D01*
X49958482Y-33688452D01*
X49903532Y-33670244D01*
X49860679Y-33633211D01*
X49856564Y-33576724D01*
X49893597Y-33533871D01*
X49903532Y-33529756D01*
X49958482Y-33511547D01*
X50102731Y-33422573D01*
X50212125Y-33313180D01*
X50264451Y-33291506D01*
X50316777Y-33313180D01*
X50321653Y-33318056D01*
X50434694Y-33375653D01*
X50509877Y-33387561D01*
X50559998Y-33395500D01*
X50560000Y-33395500D01*
X51410002Y-33395500D01*
X51445801Y-33389829D01*
X51535306Y-33375653D01*
X51648347Y-33318056D01*
X51738056Y-33228347D01*
X51795653Y-33115306D01*
X51812810Y-33006986D01*
X51815500Y-32990001D01*
X51815500Y-32592339D01*
X51837174Y-32540013D01*
X51889500Y-32518339D01*
X51917819Y-32523972D01*
X51943371Y-32534556D01*
X51999999Y-32542011D01*
X52000000Y-32542011D01*
X52000000Y-31894000D01*
X52021674Y-31841674D01*
X52074000Y-31820000D01*
X52326000Y-31820000D01*
X52378326Y-31841674D01*
X52400000Y-31894000D01*
X52400000Y-32556000D01*
X52382431Y-32598413D01*
X52385119Y-32600431D01*
X52362918Y-32629999D01*
X52386218Y-32710199D01*
X52469817Y-32851556D01*
X52531264Y-32913003D01*
X52552938Y-32965329D01*
X52548787Y-32989766D01*
X52539855Y-33015295D01*
X52539854Y-33015297D01*
X52538991Y-33024500D01*
X52537000Y-33045733D01*
X52537000Y-33454265D01*
X52539854Y-33484698D01*
X52539854Y-33484700D01*
X52539855Y-33484703D01*
X52584706Y-33612880D01*
X52584707Y-33612882D01*
X52665346Y-33722145D01*
X52665353Y-33722152D01*
X52774616Y-33802791D01*
X52774618Y-33802792D01*
X52865637Y-33834641D01*
X52902801Y-33847645D01*
X52919181Y-33849181D01*
X52969253Y-33875644D01*
X52983749Y-33903704D01*
X53010310Y-34002831D01*
X53010312Y-34002836D01*
X53079495Y-34122665D01*
X53177335Y-34220505D01*
X53297164Y-34289688D01*
X53430814Y-34325499D01*
X53430815Y-34325500D01*
X53430817Y-34325500D01*
X53569185Y-34325500D01*
X53569185Y-34325499D01*
X53702836Y-34289688D01*
X53822665Y-34220505D01*
X53920505Y-34122665D01*
X53989688Y-34002836D01*
X54016250Y-33903703D01*
X54050728Y-33858771D01*
X54080815Y-33849181D01*
X54097199Y-33847645D01*
X54225382Y-33802792D01*
X54334650Y-33722149D01*
X54415293Y-33612881D01*
X54460146Y-33484698D01*
X54461337Y-33471993D01*
X54487798Y-33421921D01*
X54541918Y-33405224D01*
X54587339Y-33426575D01*
X54690520Y-33529756D01*
X54891283Y-33730519D01*
X55016463Y-33802791D01*
X55028217Y-33809577D01*
X55094457Y-33827326D01*
X55180939Y-33850499D01*
X55180940Y-33850500D01*
X55180942Y-33850500D01*
X55343587Y-33850500D01*
X55343603Y-33850499D01*
X55586706Y-33850499D01*
X55639032Y-33872173D01*
X55660706Y-33924499D01*
X55660073Y-33934158D01*
X55657987Y-33949999D01*
X55657988Y-33950000D01*
X56306000Y-33950000D01*
X56358326Y-33971674D01*
X56380000Y-34024000D01*
X56380000Y-34276000D01*
X56358326Y-34328326D01*
X56306000Y-34350000D01*
X55657989Y-34350000D01*
X55665443Y-34406628D01*
X55665444Y-34406632D01*
X55692388Y-34471682D01*
X55692388Y-34528318D01*
X55665443Y-34593369D01*
X55657987Y-34649999D01*
X55657988Y-34650000D01*
X56306000Y-34650000D01*
X56358326Y-34671674D01*
X56380000Y-34724000D01*
X56380000Y-34974500D01*
X56358326Y-35026826D01*
X56306000Y-35048500D01*
X54703727Y-35048500D01*
X54598273Y-35048500D01*
X54550323Y-35061348D01*
X54496411Y-35075793D01*
X54496407Y-35075795D01*
X54405090Y-35128517D01*
X54205781Y-35327826D01*
X54153455Y-35349500D01*
X53356896Y-35349500D01*
X53268436Y-35360123D01*
X53127658Y-35415638D01*
X53007078Y-35507077D01*
X53007077Y-35507078D01*
X52915638Y-35627658D01*
X52860123Y-35768435D01*
X52849415Y-35857597D01*
X52821656Y-35906965D01*
X52812945Y-35912858D01*
X52784091Y-35929517D01*
X52709519Y-36004089D01*
X52485779Y-36227827D01*
X52433454Y-36249501D01*
X52368480Y-36249501D01*
X52274695Y-36264354D01*
X52274693Y-36264355D01*
X52161657Y-36321951D01*
X52071951Y-36411657D01*
X52058705Y-36437653D01*
X52019140Y-36515305D01*
X52014353Y-36524699D01*
X51999500Y-36618481D01*
X51999500Y-36804539D01*
X51977826Y-36856865D01*
X51973432Y-36860718D01*
X51972072Y-36862078D01*
X51875902Y-36987409D01*
X51875900Y-36987413D01*
X51815444Y-37133368D01*
X51815443Y-37133371D01*
X51804039Y-37220001D01*
X52112956Y-37220001D01*
X52154937Y-37237390D01*
X52156945Y-37234627D01*
X52161654Y-37238048D01*
X52161656Y-37238049D01*
X52161658Y-37238051D01*
X52274696Y-37295647D01*
X52368481Y-37310501D01*
X52426000Y-37310500D01*
X52478325Y-37332173D01*
X52500000Y-37384499D01*
X52500000Y-37420001D01*
X52626000Y-37420001D01*
X52678326Y-37441675D01*
X52700000Y-37494001D01*
X52700000Y-38156001D01*
X52678326Y-38208327D01*
X52666970Y-38213030D01*
X52650000Y-38230001D01*
X52650000Y-38349970D01*
X52650001Y-38349976D01*
X52660494Y-38452696D01*
X52715642Y-38619121D01*
X52807683Y-38768343D01*
X52807686Y-38768347D01*
X52931653Y-38892314D01*
X52931656Y-38892316D01*
X53080878Y-38984357D01*
X53247302Y-39039505D01*
X53350025Y-39049999D01*
X53600000Y-39049999D01*
X53600000Y-38024000D01*
X53621674Y-37971674D01*
X53674000Y-37950000D01*
X54026000Y-37950000D01*
X54078326Y-37971674D01*
X54100000Y-38024000D01*
X54100000Y-39049999D01*
X54349971Y-39049999D01*
X54349976Y-39049998D01*
X54452696Y-39039505D01*
X54619121Y-38984357D01*
X54768343Y-38892316D01*
X54768347Y-38892314D01*
X54892314Y-38768347D01*
X54892316Y-38768343D01*
X54984357Y-38619122D01*
X54990831Y-38599584D01*
X55027863Y-38556730D01*
X55084350Y-38552613D01*
X55120039Y-38578144D01*
X55154665Y-38623805D01*
X55191917Y-38672930D01*
X55207078Y-38692922D01*
X55327658Y-38784361D01*
X55468436Y-38839877D01*
X55539764Y-38848442D01*
X55556896Y-38850500D01*
X55556898Y-38850500D01*
X56543104Y-38850500D01*
X56558722Y-38848624D01*
X56631564Y-38839877D01*
X56772342Y-38784361D01*
X56854865Y-38721781D01*
X56909653Y-38707434D01*
X56958285Y-38735696D01*
X57052075Y-38857924D01*
X57177412Y-38954099D01*
X57323367Y-39014555D01*
X57323371Y-39014556D01*
X57379999Y-39022011D01*
X57380000Y-39022011D01*
X57780000Y-39022011D01*
X57836628Y-39014556D01*
X57836632Y-39014555D01*
X57982587Y-38954099D01*
X58107924Y-38857924D01*
X58204099Y-38732587D01*
X58264555Y-38586632D01*
X58264556Y-38586629D01*
X58275961Y-38500000D01*
X57780000Y-38500000D01*
X57780000Y-39022011D01*
X57380000Y-39022011D01*
X57380000Y-38374000D01*
X57401674Y-38321674D01*
X57454000Y-38300000D01*
X57580000Y-38300000D01*
X57580000Y-38264499D01*
X57601674Y-38212173D01*
X57653999Y-38190499D01*
X57711518Y-38190499D01*
X57711519Y-38190499D01*
X57805304Y-38175646D01*
X57805306Y-38175645D01*
X57809555Y-38173480D01*
X57918342Y-38118050D01*
X57918345Y-38118046D01*
X57923055Y-38114626D01*
X57925062Y-38117389D01*
X57967044Y-38100000D01*
X58275960Y-38100000D01*
X58275960Y-38099999D01*
X58264556Y-38013371D01*
X58264555Y-38013367D01*
X58204099Y-37867412D01*
X58201673Y-37863209D01*
X58204238Y-37861727D01*
X58200473Y-37847686D01*
X58191357Y-37825624D01*
X58193301Y-37820940D01*
X58191988Y-37816041D01*
X58213073Y-37773319D01*
X58214263Y-37772130D01*
X58266545Y-37750500D01*
X60301255Y-37750500D01*
X60301256Y-37750500D01*
X60403117Y-37723207D01*
X60494442Y-37670480D01*
X60561544Y-37603377D01*
X60613867Y-37581704D01*
X60666193Y-37603377D01*
X60679314Y-37616498D01*
X60679323Y-37616506D01*
X60749315Y-37671490D01*
X60887998Y-37731729D01*
X61037512Y-37752279D01*
X61086399Y-37780876D01*
X61100747Y-37835666D01*
X61072150Y-37884553D01*
X61046589Y-37897068D01*
X60997168Y-37910310D01*
X60997163Y-37910312D01*
X60877334Y-37979495D01*
X60779495Y-38077334D01*
X60710312Y-38197163D01*
X60710310Y-38197168D01*
X60674500Y-38330814D01*
X60674500Y-38469185D01*
X60710310Y-38602831D01*
X60710312Y-38602836D01*
X60779495Y-38722665D01*
X60877335Y-38820505D01*
X60997164Y-38889688D01*
X61130814Y-38925499D01*
X61130815Y-38925500D01*
X61130817Y-38925500D01*
X61269185Y-38925500D01*
X61269185Y-38925499D01*
X61402836Y-38889688D01*
X61522665Y-38820505D01*
X61522667Y-38820503D01*
X61526514Y-38817552D01*
X61527874Y-38819324D01*
X61573322Y-38800500D01*
X62079681Y-38800500D01*
X62079682Y-38800500D01*
X62181543Y-38773207D01*
X62272868Y-38720480D01*
X62728278Y-38265070D01*
X62947674Y-38045674D01*
X63000000Y-38024000D01*
X63052326Y-38045674D01*
X63602565Y-38595913D01*
X63677132Y-38670480D01*
X63763735Y-38720480D01*
X63768458Y-38723207D01*
X63768460Y-38723207D01*
X63768461Y-38723208D01*
X63803464Y-38732587D01*
X63870315Y-38750500D01*
X63870316Y-38750501D01*
X63870318Y-38750501D01*
X63980302Y-38750501D01*
X63980318Y-38750500D01*
X64276678Y-38750500D01*
X64322125Y-38769324D01*
X64323486Y-38767552D01*
X64327332Y-38770503D01*
X64327334Y-38770504D01*
X64327335Y-38770505D01*
X64447164Y-38839688D01*
X64580814Y-38875499D01*
X64580815Y-38875500D01*
X64580817Y-38875500D01*
X64719185Y-38875500D01*
X64719185Y-38875499D01*
X64852836Y-38839688D01*
X64972665Y-38770505D01*
X65070240Y-38672929D01*
X65111187Y-38655968D01*
X65334898Y-38432260D01*
X65376880Y-38414870D01*
X65376346Y-38411497D01*
X65382093Y-38410586D01*
X65382098Y-38410586D01*
X65502755Y-38371383D01*
X65579574Y-38315570D01*
X65620247Y-38274896D01*
X65672569Y-38253223D01*
X65724896Y-38274896D01*
X65749999Y-38299999D01*
X65839095Y-38210904D01*
X65891421Y-38189230D01*
X65943747Y-38210904D01*
X66401959Y-38669116D01*
X66401961Y-38669116D01*
X66436730Y-38623805D01*
X66436734Y-38623798D01*
X66497191Y-38477843D01*
X66497191Y-38477842D01*
X66506946Y-38403749D01*
X66535265Y-38354700D01*
X66580313Y-38339408D01*
X67052726Y-38339408D01*
X67052727Y-38339408D01*
X67154588Y-38312115D01*
X67197192Y-38287517D01*
X67238941Y-38263414D01*
X67275941Y-38253500D01*
X75401082Y-38253500D01*
X75401083Y-38253500D01*
X75502944Y-38226207D01*
X75594269Y-38173480D01*
X77678708Y-36089039D01*
X77731033Y-36067366D01*
X77783359Y-36089040D01*
X77799873Y-36114218D01*
X77837633Y-36209970D01*
X77837635Y-36209972D01*
X77837636Y-36209975D01*
X77923938Y-36323780D01*
X77924924Y-36325080D01*
X77927826Y-36327982D01*
X77949500Y-36380308D01*
X77949500Y-36960778D01*
X77927826Y-37013104D01*
X77899211Y-37041718D01*
X77839817Y-37158285D01*
X77824500Y-37254995D01*
X77824500Y-37545002D01*
X77837622Y-37627849D01*
X77839818Y-37641715D01*
X77899211Y-37758281D01*
X77991719Y-37850789D01*
X78108285Y-37910182D01*
X78204997Y-37925500D01*
X78645002Y-37925499D01*
X78741715Y-37910182D01*
X78858281Y-37850789D01*
X78950789Y-37758281D01*
X79010182Y-37641715D01*
X79025500Y-37545003D01*
X79025499Y-37254998D01*
X79010182Y-37158285D01*
X78950789Y-37041719D01*
X78922174Y-37013104D01*
X78900500Y-36960778D01*
X78900500Y-36505899D01*
X78922174Y-36453573D01*
X78947352Y-36437058D01*
X79009975Y-36412364D01*
X79125078Y-36325078D01*
X79125079Y-36325076D01*
X79129111Y-36322019D01*
X79130446Y-36323780D01*
X79175812Y-36304977D01*
X79228143Y-36326638D01*
X79238813Y-36340129D01*
X79277426Y-36402731D01*
X79397268Y-36522573D01*
X79541517Y-36611547D01*
X79702391Y-36664855D01*
X79801689Y-36674999D01*
X79825000Y-36674999D01*
X79825000Y-35774000D01*
X79846674Y-35721674D01*
X79899000Y-35700000D01*
X80251000Y-35700000D01*
X80303326Y-35721674D01*
X80325000Y-35774000D01*
X80325000Y-36674999D01*
X80348307Y-36674999D01*
X80348312Y-36674998D01*
X80447608Y-36664855D01*
X80608482Y-36611547D01*
X80752731Y-36522573D01*
X80872573Y-36402731D01*
X80937517Y-36297441D01*
X80983434Y-36264284D01*
X81039348Y-36273306D01*
X81072505Y-36319223D01*
X81074500Y-36336289D01*
X81074500Y-36609402D01*
X81076714Y-36627837D01*
X81084521Y-36692845D01*
X81133291Y-36816518D01*
X81135987Y-36823353D01*
X81135746Y-36837463D01*
X81141146Y-36850500D01*
X81135281Y-36864657D01*
X81135020Y-36879982D01*
X81124872Y-36889789D01*
X81119472Y-36902826D01*
X81105313Y-36908690D01*
X81094293Y-36919341D01*
X81067146Y-36924500D01*
X80927549Y-36924500D01*
X80893954Y-36916434D01*
X80841720Y-36889819D01*
X80841716Y-36889818D01*
X80745003Y-36874500D01*
X80304997Y-36874500D01*
X80208284Y-36889818D01*
X80091718Y-36949211D01*
X79999211Y-37041718D01*
X79939817Y-37158285D01*
X79924500Y-37254995D01*
X79924500Y-37545002D01*
X79937622Y-37627849D01*
X79939818Y-37641715D01*
X79999211Y-37758281D01*
X80091719Y-37850789D01*
X80208285Y-37910182D01*
X80304997Y-37925500D01*
X80745002Y-37925499D01*
X80841715Y-37910182D01*
X80841718Y-37910180D01*
X80841720Y-37910180D01*
X80893954Y-37883566D01*
X80927549Y-37875500D01*
X81000500Y-37875500D01*
X81052826Y-37897174D01*
X81074500Y-37949500D01*
X81074500Y-38184404D01*
X81084521Y-38267847D01*
X81136884Y-38400632D01*
X81208343Y-38494864D01*
X81223133Y-38514368D01*
X81336868Y-38600616D01*
X81469654Y-38652980D01*
X81543076Y-38661797D01*
X81553097Y-38663001D01*
X81553098Y-38663001D01*
X82146903Y-38663001D01*
X82155849Y-38661926D01*
X82230346Y-38652980D01*
X82363132Y-38600616D01*
X82366119Y-38598350D01*
X82376427Y-38590535D01*
X82421139Y-38575499D01*
X82658039Y-38575499D01*
X82701981Y-38589958D01*
X82787118Y-38652792D01*
X82858390Y-38677731D01*
X82901800Y-38692921D01*
X82915295Y-38697643D01*
X82915301Y-38697645D01*
X82945734Y-38700499D01*
X82945741Y-38700499D01*
X84079258Y-38700499D01*
X84079266Y-38700499D01*
X84109699Y-38697645D01*
X84237882Y-38652792D01*
X84342611Y-38575499D01*
X84347146Y-38572152D01*
X84347146Y-38572151D01*
X84347150Y-38572149D01*
X84427793Y-38462881D01*
X84472646Y-38334698D01*
X84475500Y-38304265D01*
X84475500Y-37895733D01*
X84472646Y-37865300D01*
X84471914Y-37863209D01*
X84463713Y-37839770D01*
X84466888Y-37783222D01*
X84481235Y-37763002D01*
X84542683Y-37701554D01*
X84626281Y-37560199D01*
X84672099Y-37402493D01*
X84672296Y-37400000D01*
X83586500Y-37400000D01*
X83534174Y-37378326D01*
X83512500Y-37326000D01*
X83512500Y-36974000D01*
X83534174Y-36921674D01*
X83586500Y-36900000D01*
X84672296Y-36900000D01*
X84672099Y-36897506D01*
X84626281Y-36739800D01*
X84542682Y-36598443D01*
X84481234Y-36536995D01*
X84459560Y-36484669D01*
X84463714Y-36460226D01*
X84465356Y-36455535D01*
X84472646Y-36434700D01*
X84475500Y-36404267D01*
X84475500Y-35995735D01*
X84824500Y-35995735D01*
X84824500Y-36404267D01*
X84827354Y-36434700D01*
X84827354Y-36434702D01*
X84827355Y-36434705D01*
X84872205Y-36562880D01*
X84872206Y-36562882D01*
X84872207Y-36562883D01*
X84882799Y-36577235D01*
X84922522Y-36631058D01*
X84936154Y-36686030D01*
X84922522Y-36718942D01*
X84872205Y-36787119D01*
X84827355Y-36915295D01*
X84827354Y-36915299D01*
X84827354Y-36915301D01*
X84824500Y-36945734D01*
X84824500Y-37354266D01*
X84827354Y-37384699D01*
X84827354Y-37384701D01*
X84827355Y-37384704D01*
X84872205Y-37512879D01*
X84872206Y-37512881D01*
X84872207Y-37512882D01*
X84882498Y-37526826D01*
X84922522Y-37581057D01*
X84936154Y-37636029D01*
X84922522Y-37668941D01*
X84872205Y-37737118D01*
X84827355Y-37865294D01*
X84827355Y-37865297D01*
X84827354Y-37865300D01*
X84824500Y-37895733D01*
X84824500Y-38304265D01*
X84827354Y-38334698D01*
X84827354Y-38334700D01*
X84827355Y-38334703D01*
X84872206Y-38462880D01*
X84872207Y-38462882D01*
X84952846Y-38572145D01*
X84952853Y-38572152D01*
X85062116Y-38652791D01*
X85062118Y-38652792D01*
X85190295Y-38697643D01*
X85190301Y-38697645D01*
X85220734Y-38700499D01*
X85220741Y-38700499D01*
X86354258Y-38700499D01*
X86354266Y-38700499D01*
X86384699Y-38697645D01*
X86512882Y-38652792D01*
X86586178Y-38598696D01*
X86641150Y-38585064D01*
X86682447Y-38605911D01*
X86713272Y-38636736D01*
X86755651Y-38672930D01*
X86761653Y-38678056D01*
X86874694Y-38735653D01*
X86949877Y-38747561D01*
X86999998Y-38755500D01*
X87000000Y-38755500D01*
X87379567Y-38755500D01*
X87387608Y-38755408D01*
X87388760Y-38755395D01*
X87409128Y-38751692D01*
X87422361Y-38750500D01*
X87691145Y-38750500D01*
X87700198Y-38749412D01*
X87775590Y-38740359D01*
X87909975Y-38687364D01*
X88025078Y-38600078D01*
X88025079Y-38600076D01*
X88029111Y-38597019D01*
X88030446Y-38598780D01*
X88075812Y-38579977D01*
X88128143Y-38601638D01*
X88138813Y-38615129D01*
X88177426Y-38677731D01*
X88297268Y-38797573D01*
X88441517Y-38886547D01*
X88602391Y-38939855D01*
X88701689Y-38949999D01*
X88725000Y-38949999D01*
X89225000Y-38949999D01*
X89248307Y-38949999D01*
X89248312Y-38949998D01*
X89347608Y-38939855D01*
X89508482Y-38886547D01*
X89652731Y-38797573D01*
X89772573Y-38677731D01*
X89861547Y-38533482D01*
X89914855Y-38372608D01*
X89924999Y-38273311D01*
X89925000Y-38273309D01*
X89925000Y-38225000D01*
X89225000Y-38225000D01*
X89225000Y-38949999D01*
X88725000Y-38949999D01*
X88725000Y-37725000D01*
X89225000Y-37725000D01*
X89924999Y-37725000D01*
X89924999Y-37676693D01*
X89924998Y-37676687D01*
X89914855Y-37577391D01*
X89861547Y-37416517D01*
X89772573Y-37272268D01*
X89652731Y-37152426D01*
X89508482Y-37063452D01*
X89347608Y-37010144D01*
X89248311Y-37000000D01*
X89225000Y-37000000D01*
X89225000Y-37725000D01*
X88725000Y-37725000D01*
X88725000Y-37000000D01*
X88701693Y-37000000D01*
X88701686Y-37000001D01*
X88602390Y-37010144D01*
X88580000Y-37017563D01*
X88580000Y-37026000D01*
X88558326Y-37078326D01*
X88506000Y-37100000D01*
X87844000Y-37100000D01*
X87791674Y-37078326D01*
X87770000Y-37026000D01*
X87770000Y-36774000D01*
X87791674Y-36721674D01*
X87844000Y-36700000D01*
X88492011Y-36700000D01*
X88492011Y-36699999D01*
X88484556Y-36643369D01*
X88457611Y-36578319D01*
X88457611Y-36521681D01*
X88484556Y-36456630D01*
X88492012Y-36400000D01*
X87844000Y-36400000D01*
X87791674Y-36378326D01*
X87770000Y-36326000D01*
X87770000Y-36200000D01*
X87734499Y-36200000D01*
X87682173Y-36178326D01*
X87660499Y-36126000D01*
X87660499Y-36068480D01*
X87649654Y-36000000D01*
X87970000Y-36000000D01*
X88492011Y-36000000D01*
X88492011Y-35999999D01*
X88484556Y-35943371D01*
X88484555Y-35943367D01*
X88424099Y-35797412D01*
X88327924Y-35672075D01*
X88202587Y-35575900D01*
X88056630Y-35515443D01*
X87970000Y-35504037D01*
X87970000Y-36000000D01*
X87649654Y-36000000D01*
X87645646Y-35974695D01*
X87645645Y-35974693D01*
X87598082Y-35881347D01*
X87588050Y-35861658D01*
X87588049Y-35861657D01*
X87584626Y-35856945D01*
X87587389Y-35854937D01*
X87570000Y-35812956D01*
X87570000Y-35504039D01*
X87483370Y-35515443D01*
X87483367Y-35515444D01*
X87337412Y-35575900D01*
X87337408Y-35575902D01*
X87212077Y-35672072D01*
X87208646Y-35675504D01*
X87207189Y-35674047D01*
X87164192Y-35698868D01*
X87154538Y-35699500D01*
X86968480Y-35699500D01*
X86874695Y-35714353D01*
X86874691Y-35714355D01*
X86761660Y-35771947D01*
X86761656Y-35771950D01*
X86760914Y-35772693D01*
X86760264Y-35772961D01*
X86756946Y-35775373D01*
X86756366Y-35774575D01*
X86708585Y-35794362D01*
X86656262Y-35772683D01*
X86649056Y-35764308D01*
X86622150Y-35727851D01*
X86622146Y-35727847D01*
X86512883Y-35647208D01*
X86512881Y-35647207D01*
X86384704Y-35602356D01*
X86384705Y-35602356D01*
X86384700Y-35602355D01*
X86384699Y-35602355D01*
X86354266Y-35599501D01*
X85220734Y-35599501D01*
X85190301Y-35602355D01*
X85190299Y-35602355D01*
X85190295Y-35602356D01*
X85062118Y-35647207D01*
X85062116Y-35647208D01*
X84952853Y-35727847D01*
X84952846Y-35727854D01*
X84872207Y-35837117D01*
X84872206Y-35837119D01*
X84827355Y-35965296D01*
X84827354Y-35965300D01*
X84827354Y-35965302D01*
X84824500Y-35995735D01*
X84475500Y-35995735D01*
X84472646Y-35965302D01*
X84469610Y-35956627D01*
X84427793Y-35837119D01*
X84427792Y-35837117D01*
X84347153Y-35727854D01*
X84347146Y-35727847D01*
X84237883Y-35647208D01*
X84237881Y-35647207D01*
X84109704Y-35602356D01*
X84109705Y-35602356D01*
X84109700Y-35602355D01*
X84109699Y-35602355D01*
X84079266Y-35599501D01*
X84079260Y-35599501D01*
X84006110Y-35599501D01*
X83953784Y-35577827D01*
X83932110Y-35525501D01*
X83933961Y-35511444D01*
X83933923Y-35511439D01*
X83942012Y-35450000D01*
X83359544Y-35450000D01*
X83307218Y-35428326D01*
X83241674Y-35362782D01*
X83220000Y-35310456D01*
X83220000Y-35250000D01*
X83184499Y-35250000D01*
X83132173Y-35228326D01*
X83110499Y-35176000D01*
X83110499Y-35118480D01*
X83099654Y-35050000D01*
X83420000Y-35050000D01*
X83942011Y-35050000D01*
X83942011Y-35049999D01*
X83934556Y-34993371D01*
X83934555Y-34993367D01*
X83874099Y-34847412D01*
X83777924Y-34722075D01*
X83652587Y-34625900D01*
X83506630Y-34565443D01*
X83420000Y-34554037D01*
X83420000Y-35050000D01*
X83099654Y-35050000D01*
X83095646Y-35024695D01*
X83095645Y-35024693D01*
X83053344Y-34941674D01*
X83038050Y-34911658D01*
X83038049Y-34911657D01*
X83034626Y-34906945D01*
X83037389Y-34904937D01*
X83020000Y-34862956D01*
X83020000Y-34554039D01*
X82933370Y-34565443D01*
X82933367Y-34565444D01*
X82787412Y-34625900D01*
X82787408Y-34625902D01*
X82662077Y-34722072D01*
X82658646Y-34725504D01*
X82657189Y-34724047D01*
X82614192Y-34748868D01*
X82604538Y-34749500D01*
X82418480Y-34749500D01*
X82324695Y-34764353D01*
X82324691Y-34764355D01*
X82236094Y-34809498D01*
X82179632Y-34813942D01*
X82168904Y-34809498D01*
X82080304Y-34764354D01*
X82080303Y-34764353D01*
X81986519Y-34749500D01*
X81663480Y-34749500D01*
X81569695Y-34764353D01*
X81569693Y-34764354D01*
X81538594Y-34780200D01*
X81482132Y-34784643D01*
X81471406Y-34780200D01*
X81440305Y-34764354D01*
X81346520Y-34749500D01*
X81346519Y-34749500D01*
X81281544Y-34749500D01*
X81229218Y-34727826D01*
X81173066Y-34671674D01*
X81080913Y-34579520D01*
X81080910Y-34579518D01*
X81080909Y-34579517D01*
X80989592Y-34526795D01*
X80989588Y-34526793D01*
X80933102Y-34511658D01*
X80887727Y-34499500D01*
X80887726Y-34499500D01*
X79049500Y-34499500D01*
X78997174Y-34477826D01*
X78975500Y-34425500D01*
X78975500Y-33471859D01*
X78983566Y-33438263D01*
X78988423Y-33428731D01*
X79015646Y-33375304D01*
X79030500Y-33281519D01*
X79030499Y-33198058D01*
X79052172Y-33145734D01*
X79104498Y-33124059D01*
X79134385Y-33130363D01*
X79230009Y-33172585D01*
X79255135Y-33175500D01*
X81344864Y-33175499D01*
X81369991Y-33172585D01*
X81472765Y-33127206D01*
X81552206Y-33047765D01*
X81597585Y-32944991D01*
X81600500Y-32919865D01*
X81600499Y-32480136D01*
X81597585Y-32455009D01*
X81564415Y-32379888D01*
X81563108Y-32323268D01*
X81564403Y-32320140D01*
X81597585Y-32244991D01*
X81600500Y-32219865D01*
X81600499Y-31780136D01*
X81597585Y-31755009D01*
X81564415Y-31679888D01*
X81563108Y-31623268D01*
X81564403Y-31620140D01*
X81597585Y-31544991D01*
X81600500Y-31519865D01*
X81600499Y-31080136D01*
X81597585Y-31055009D01*
X81564415Y-30979888D01*
X81563108Y-30923268D01*
X81564403Y-30920140D01*
X81597585Y-30844991D01*
X81600500Y-30819865D01*
X81600499Y-30511667D01*
X81622173Y-30459342D01*
X81630153Y-30452428D01*
X81657187Y-30432190D01*
X81657188Y-30432189D01*
X81743353Y-30317088D01*
X81743354Y-30317087D01*
X81793596Y-30182380D01*
X81793597Y-30182375D01*
X81800000Y-30122828D01*
X81800000Y-29677171D01*
X81793597Y-29617624D01*
X81793596Y-29617619D01*
X81743354Y-29482912D01*
X81743353Y-29482911D01*
X81657188Y-29367811D01*
X81630152Y-29347571D01*
X81601252Y-29298861D01*
X81600499Y-29288340D01*
X81600499Y-28980136D01*
X81597585Y-28955009D01*
X81564415Y-28879888D01*
X81563108Y-28823268D01*
X81564403Y-28820140D01*
X81597585Y-28744991D01*
X81600500Y-28719865D01*
X81600499Y-28280136D01*
X81597585Y-28255009D01*
X81564415Y-28179888D01*
X81563108Y-28123268D01*
X81564403Y-28120140D01*
X81597585Y-28044991D01*
X81600500Y-28019865D01*
X81600499Y-27580136D01*
X81597585Y-27555009D01*
X81564415Y-27479888D01*
X81563108Y-27423268D01*
X81564403Y-27420140D01*
X81597585Y-27344991D01*
X81600500Y-27319865D01*
X81600499Y-26880136D01*
X81597585Y-26855009D01*
X81564415Y-26779888D01*
X81563108Y-26723268D01*
X81564403Y-26720140D01*
X81597585Y-26644991D01*
X81600500Y-26619865D01*
X81600499Y-26180136D01*
X81597585Y-26155009D01*
X81564415Y-26079888D01*
X81563108Y-26023268D01*
X81564403Y-26020140D01*
X81597585Y-25944991D01*
X81600500Y-25919865D01*
X81600499Y-25611667D01*
X81622173Y-25559342D01*
X81630153Y-25552428D01*
X81657187Y-25532190D01*
X81657188Y-25532189D01*
X81743353Y-25417088D01*
X81743354Y-25417087D01*
X81793596Y-25282380D01*
X81793597Y-25282375D01*
X81800000Y-25222828D01*
X81800000Y-24777171D01*
X81793597Y-24717624D01*
X81793596Y-24717619D01*
X81743354Y-24582912D01*
X81743353Y-24582911D01*
X81657188Y-24467811D01*
X81630152Y-24447571D01*
X81601252Y-24398861D01*
X81600499Y-24388340D01*
X81600499Y-24080136D01*
X81597585Y-24055009D01*
X81552206Y-23952235D01*
X81472765Y-23872794D01*
X81369991Y-23827415D01*
X81369990Y-23827414D01*
X81369988Y-23827414D01*
X81348659Y-23824940D01*
X81344865Y-23824500D01*
X81344864Y-23824500D01*
X79255136Y-23824500D01*
X79230013Y-23827414D01*
X79230007Y-23827415D01*
X79127234Y-23872794D01*
X79047794Y-23952234D01*
X79002414Y-24055011D01*
X78999500Y-24080135D01*
X78999500Y-24388331D01*
X78977826Y-24440657D01*
X78969849Y-24447569D01*
X78942813Y-24467809D01*
X78942807Y-24467815D01*
X78856648Y-24582906D01*
X78856645Y-24582912D01*
X78806403Y-24717619D01*
X78806402Y-24717624D01*
X78800000Y-24777171D01*
X78800000Y-25139908D01*
X78778326Y-25192234D01*
X78726000Y-25213908D01*
X78706848Y-25211387D01*
X78569183Y-25174500D01*
X78430817Y-25174500D01*
X78430815Y-25174500D01*
X78297168Y-25210310D01*
X78297163Y-25210312D01*
X78177334Y-25279495D01*
X78079495Y-25377334D01*
X78010312Y-25497163D01*
X78010310Y-25497168D01*
X77974500Y-25630814D01*
X77974500Y-25769185D01*
X78011253Y-25906347D01*
X78003861Y-25962500D01*
X77958928Y-25996978D01*
X77939775Y-25999500D01*
X76747271Y-25999500D01*
X76645417Y-26026791D01*
X76645408Y-26026795D01*
X76565020Y-26073208D01*
X76554086Y-26079520D01*
X76176826Y-26456781D01*
X76124500Y-26478455D01*
X76072174Y-26456781D01*
X76050500Y-26404455D01*
X76050500Y-25347272D01*
X76045013Y-25326793D01*
X76045013Y-25326792D01*
X76023208Y-25245416D01*
X76023207Y-25245412D01*
X76005018Y-25213908D01*
X75970482Y-25154090D01*
X75970481Y-25154089D01*
X75970480Y-25154087D01*
X75595913Y-24779520D01*
X75595910Y-24779518D01*
X75595869Y-24779477D01*
X75574195Y-24727151D01*
X75575106Y-24715575D01*
X75580500Y-24681519D01*
X75580499Y-24418482D01*
X75572691Y-24369183D01*
X75565646Y-24324695D01*
X75565645Y-24324693D01*
X75535379Y-24265293D01*
X75508050Y-24211658D01*
X75418342Y-24121950D01*
X75305304Y-24064354D01*
X75305302Y-24064353D01*
X75305301Y-24064353D01*
X75217714Y-24050481D01*
X75210138Y-24048871D01*
X75119183Y-24024500D01*
X74996205Y-24024500D01*
X74951157Y-24009208D01*
X74842591Y-23925902D01*
X74842587Y-23925900D01*
X74696630Y-23865443D01*
X74610000Y-23854037D01*
X74610000Y-24162956D01*
X74592610Y-24204937D01*
X74595374Y-24206945D01*
X74591952Y-24211654D01*
X74534353Y-24324698D01*
X74519500Y-24418480D01*
X74519500Y-24476000D01*
X74497826Y-24528326D01*
X74445500Y-24550000D01*
X74410000Y-24550000D01*
X74410000Y-24625500D01*
X74388326Y-24677826D01*
X74336000Y-24699500D01*
X73216816Y-24699500D01*
X73164490Y-24677826D01*
X73142816Y-24625500D01*
X73152730Y-24588500D01*
X73158604Y-24578326D01*
X73202188Y-24502836D01*
X73237999Y-24369185D01*
X73238000Y-24369185D01*
X73238000Y-24349999D01*
X73687987Y-24349999D01*
X73687988Y-24350000D01*
X74210000Y-24350000D01*
X74210000Y-23854039D01*
X74123370Y-23865443D01*
X74123367Y-23865444D01*
X73977412Y-23925900D01*
X73852075Y-24022075D01*
X73755900Y-24147412D01*
X73695443Y-24293369D01*
X73687987Y-24349999D01*
X73238000Y-24349999D01*
X73238000Y-24230815D01*
X73231065Y-24204937D01*
X73223937Y-24178334D01*
X73231328Y-24122184D01*
X73235870Y-24115247D01*
X73265293Y-24075382D01*
X73310146Y-23947199D01*
X73313000Y-23916766D01*
X73313000Y-22783234D01*
X73310146Y-22752801D01*
X73287708Y-22688678D01*
X73265293Y-22624618D01*
X73265292Y-22624616D01*
X73184653Y-22515353D01*
X73184646Y-22515346D01*
X73075383Y-22434707D01*
X73075381Y-22434706D01*
X72947204Y-22389855D01*
X72947205Y-22389855D01*
X72947200Y-22389854D01*
X72947199Y-22389854D01*
X72916766Y-22387000D01*
X72508234Y-22387000D01*
X72487945Y-22388902D01*
X72477798Y-22389854D01*
X72477796Y-22389855D01*
X72452267Y-22398787D01*
X72395719Y-22395608D01*
X72375504Y-22381264D01*
X72314057Y-22319817D01*
X72172700Y-22236218D01*
X72109631Y-22217895D01*
X72065430Y-22182482D01*
X72059215Y-22126187D01*
X72077949Y-22094509D01*
X72142996Y-22029463D01*
X72179187Y-21966776D01*
X72224118Y-21932299D01*
X72280271Y-21939690D01*
X72287205Y-21944231D01*
X72313315Y-21963500D01*
X72349619Y-21990294D01*
X72477795Y-22035144D01*
X72477801Y-22035146D01*
X72508234Y-22038000D01*
X72508241Y-22038000D01*
X72916758Y-22038000D01*
X72916766Y-22038000D01*
X72947199Y-22035146D01*
X73075382Y-21990293D01*
X73184650Y-21909650D01*
X73265293Y-21800382D01*
X73310146Y-21672199D01*
X73313000Y-21641766D01*
X73313000Y-21103765D01*
X73334674Y-21051439D01*
X73387000Y-21029765D01*
X73439326Y-21051439D01*
X73458062Y-21083120D01*
X73497595Y-21219193D01*
X73579265Y-21357289D01*
X73692712Y-21470736D01*
X73705628Y-21478375D01*
X73739633Y-21523667D01*
X73731652Y-21579739D01*
X73727499Y-21586011D01*
X73695618Y-21629208D01*
X73652261Y-21753115D01*
X73652261Y-21753117D01*
X73652260Y-21753121D01*
X73649502Y-21782540D01*
X73649501Y-21782548D01*
X73649501Y-22617446D01*
X73649502Y-22617459D01*
X73652259Y-22646876D01*
X73652260Y-22646882D01*
X73695619Y-22770792D01*
X73695620Y-22770794D01*
X73710223Y-22790580D01*
X73773577Y-22876422D01*
X73773578Y-22876423D01*
X73879208Y-22954382D01*
X74003116Y-22997739D01*
X74003122Y-22997741D01*
X74032544Y-23000500D01*
X74767457Y-23000499D01*
X74796880Y-22997741D01*
X74920795Y-22954381D01*
X74982060Y-22909164D01*
X75037028Y-22895532D01*
X75085540Y-22924762D01*
X75100000Y-22968705D01*
X75100000Y-23055674D01*
X75114992Y-23169562D01*
X75173688Y-23311263D01*
X75267053Y-23432941D01*
X75267058Y-23432946D01*
X75388736Y-23526311D01*
X75530437Y-23585007D01*
X75644324Y-23599999D01*
X76200000Y-23599999D01*
X76200000Y-22050000D01*
X75644325Y-22050000D01*
X75530437Y-22064992D01*
X75388739Y-22123687D01*
X75269548Y-22215144D01*
X75214840Y-22229802D01*
X75165791Y-22201483D01*
X75150500Y-22156435D01*
X75150500Y-21782553D01*
X75150500Y-21782548D01*
X75150500Y-21782544D01*
X75147742Y-21753121D01*
X75146271Y-21748917D01*
X75104383Y-21629207D01*
X75088827Y-21608130D01*
X75072502Y-21586011D01*
X75058869Y-21531040D01*
X75088100Y-21482529D01*
X75094375Y-21478374D01*
X75107288Y-21470736D01*
X75107289Y-21470736D01*
X75220731Y-21357294D01*
X75222016Y-21355638D01*
X75222882Y-21355143D01*
X75224029Y-21353997D01*
X75224342Y-21354310D01*
X75271209Y-21327569D01*
X75294931Y-21328406D01*
X75366643Y-21342670D01*
X75406007Y-21350500D01*
X75406008Y-21350500D01*
X75543991Y-21350500D01*
X75543993Y-21350500D01*
X75679328Y-21323580D01*
X75806811Y-21270775D01*
X75921542Y-21194114D01*
X76019114Y-21096542D01*
X76095775Y-20981811D01*
X76148580Y-20854328D01*
X76175500Y-20718993D01*
X76175500Y-20581007D01*
X76148580Y-20445672D01*
X76095775Y-20318189D01*
X76095773Y-20318186D01*
X76094053Y-20315611D01*
X76083004Y-20260062D01*
X76114471Y-20212971D01*
X76155582Y-20200500D01*
X76744418Y-20200500D01*
X76796744Y-20222174D01*
X76818418Y-20274500D01*
X76805947Y-20315611D01*
X76804226Y-20318186D01*
X76804224Y-20318190D01*
X76751421Y-20445667D01*
X76751418Y-20445677D01*
X76724500Y-20581008D01*
X76724500Y-20718991D01*
X76751418Y-20854322D01*
X76751421Y-20854332D01*
X76804223Y-20981808D01*
X76875985Y-21089208D01*
X76880886Y-21096542D01*
X76978458Y-21194114D01*
X77093189Y-21270775D01*
X77093190Y-21270775D01*
X77093191Y-21270776D01*
X77203485Y-21316461D01*
X77220672Y-21323580D01*
X77356007Y-21350500D01*
X77356009Y-21350500D01*
X77493991Y-21350500D01*
X77493993Y-21350500D01*
X77605066Y-21328406D01*
X77660615Y-21339455D01*
X77677971Y-21355624D01*
X77679261Y-21357287D01*
X77792710Y-21470736D01*
X77805626Y-21478375D01*
X77839631Y-21523667D01*
X77831650Y-21579739D01*
X77827497Y-21586011D01*
X77795616Y-21629208D01*
X77752259Y-21753115D01*
X77752259Y-21753117D01*
X77752258Y-21753121D01*
X77749500Y-21782540D01*
X77749499Y-21782548D01*
X77749499Y-22156434D01*
X77727825Y-22208760D01*
X77675499Y-22230434D01*
X77630451Y-22215143D01*
X77511260Y-22123687D01*
X77369562Y-22064992D01*
X77255675Y-22050000D01*
X76700000Y-22050000D01*
X76700000Y-23599999D01*
X77255675Y-23599999D01*
X77369562Y-23585007D01*
X77511263Y-23526311D01*
X77632941Y-23432946D01*
X77632946Y-23432941D01*
X77726311Y-23311263D01*
X77785007Y-23169562D01*
X77799999Y-23055675D01*
X77799999Y-22968708D01*
X77821673Y-22916382D01*
X77873998Y-22894707D01*
X77917942Y-22909167D01*
X77979205Y-22954381D01*
X78103120Y-22997741D01*
X78132542Y-23000500D01*
X78867455Y-23000499D01*
X78896878Y-22997741D01*
X79020793Y-22954381D01*
X79126422Y-22876423D01*
X79204380Y-22770794D01*
X79205530Y-22767509D01*
X79240756Y-22666838D01*
X84999500Y-22666838D01*
X84999500Y-34333161D01*
X85028379Y-34496946D01*
X85075316Y-34625902D01*
X85085264Y-34653233D01*
X85168422Y-34797267D01*
X85275327Y-34924673D01*
X85402733Y-35031578D01*
X85546767Y-35114736D01*
X85703053Y-35171620D01*
X85866842Y-35200500D01*
X85866846Y-35200500D01*
X86033154Y-35200500D01*
X86033158Y-35200500D01*
X86196947Y-35171620D01*
X86353233Y-35114736D01*
X86497267Y-35031578D01*
X86624673Y-34924673D01*
X86731578Y-34797267D01*
X86814736Y-34653233D01*
X86871620Y-34496947D01*
X86900500Y-34333158D01*
X86900500Y-34250000D01*
X86900500Y-34210118D01*
X86900500Y-32480814D01*
X91324500Y-32480814D01*
X91324500Y-32619185D01*
X91360310Y-32752831D01*
X91360312Y-32752836D01*
X91429495Y-32872665D01*
X91527335Y-32970505D01*
X91647164Y-33039688D01*
X91780814Y-33075499D01*
X91780815Y-33075500D01*
X91780817Y-33075500D01*
X91919185Y-33075500D01*
X91919185Y-33075499D01*
X92052836Y-33039688D01*
X92172665Y-32970505D01*
X92172667Y-32970503D01*
X92176514Y-32967552D01*
X92177874Y-32969324D01*
X92223322Y-32950500D01*
X92950500Y-32950500D01*
X93002826Y-32972174D01*
X93024500Y-33024500D01*
X93024500Y-33099185D01*
X93050535Y-33196347D01*
X93043143Y-33252500D01*
X92998210Y-33286978D01*
X92979057Y-33289500D01*
X92920693Y-33289500D01*
X92846349Y-33300332D01*
X92846348Y-33300332D01*
X92731665Y-33356397D01*
X92641397Y-33446665D01*
X92585332Y-33561348D01*
X92585332Y-33561349D01*
X92574500Y-33635693D01*
X92574500Y-34364306D01*
X92585332Y-34438650D01*
X92585332Y-34438651D01*
X92641397Y-34553334D01*
X92641398Y-34553335D01*
X92731665Y-34643602D01*
X92805333Y-34679616D01*
X92813317Y-34683519D01*
X92850806Y-34725972D01*
X92847297Y-34782501D01*
X92813317Y-34816481D01*
X92731664Y-34856398D01*
X92641397Y-34946665D01*
X92585332Y-35061348D01*
X92585332Y-35061349D01*
X92574500Y-35135693D01*
X92574500Y-35864306D01*
X92585332Y-35938650D01*
X92585332Y-35938651D01*
X92641397Y-36053334D01*
X92641398Y-36053335D01*
X92731665Y-36143602D01*
X92846350Y-36199668D01*
X92920698Y-36210500D01*
X92960300Y-36210500D01*
X93012626Y-36232174D01*
X93034300Y-36284500D01*
X93031778Y-36303653D01*
X93024500Y-36330814D01*
X93024500Y-36469185D01*
X93060310Y-36602831D01*
X93060312Y-36602836D01*
X93129495Y-36722665D01*
X93227335Y-36820505D01*
X93347164Y-36889688D01*
X93480814Y-36925499D01*
X93480815Y-36925500D01*
X93480817Y-36925500D01*
X93619185Y-36925500D01*
X93619185Y-36925499D01*
X93752836Y-36889688D01*
X93872665Y-36820505D01*
X93970505Y-36722665D01*
X94039688Y-36602836D01*
X94075499Y-36469185D01*
X94075500Y-36469185D01*
X94075500Y-36330815D01*
X94075499Y-36330814D01*
X94068222Y-36303653D01*
X94075614Y-36247500D01*
X94120547Y-36213022D01*
X94139700Y-36210500D01*
X94179296Y-36210500D01*
X94179302Y-36210500D01*
X94253650Y-36199668D01*
X94261738Y-36195713D01*
X94318266Y-36192203D01*
X94357900Y-36225401D01*
X94357955Y-36225363D01*
X94358098Y-36225566D01*
X94358932Y-36226265D01*
X94360214Y-36228574D01*
X94429211Y-36326638D01*
X94446131Y-36350686D01*
X94555850Y-36451942D01*
X94684446Y-36527797D01*
X94826142Y-36574844D01*
X94974570Y-36590969D01*
X94974570Y-36590968D01*
X94974571Y-36590969D01*
X95024067Y-36585795D01*
X95123063Y-36575447D01*
X95264948Y-36528975D01*
X95290341Y-36514183D01*
X95294871Y-36511545D01*
X95295028Y-36511525D01*
X95326744Y-36492988D01*
X95326756Y-36492987D01*
X95332391Y-36490019D01*
X95371243Y-36471692D01*
X95383450Y-36467199D01*
X95421745Y-36456827D01*
X95434547Y-36454545D01*
X95469225Y-36451477D01*
X95477033Y-36450787D01*
X95483553Y-36450499D01*
X97029579Y-36450499D01*
X97029589Y-36450503D01*
X97066227Y-36450499D01*
X97072719Y-36450785D01*
X97115479Y-36454560D01*
X97128297Y-36456841D01*
X97166554Y-36467196D01*
X97166580Y-36467203D01*
X97178805Y-36471700D01*
X97217402Y-36489899D01*
X97223145Y-36492922D01*
X97255006Y-36511537D01*
X97260826Y-36514937D01*
X97261764Y-36515365D01*
X97285069Y-36528940D01*
X97426946Y-36575409D01*
X97547324Y-36587992D01*
X97575429Y-36590930D01*
X97575429Y-36590929D01*
X97575431Y-36590930D01*
X97723851Y-36574805D01*
X97865539Y-36527761D01*
X97994128Y-36451910D01*
X98082734Y-36370137D01*
X98135883Y-36350579D01*
X98161237Y-36356153D01*
X98255068Y-36395020D01*
X98368855Y-36409999D01*
X98750000Y-36409999D01*
X99250000Y-36409999D01*
X99305936Y-36409999D01*
X99389924Y-36399451D01*
X99389925Y-36399451D01*
X99522754Y-36344430D01*
X99589604Y-36292501D01*
X100057494Y-35824611D01*
X100109427Y-35757759D01*
X100112642Y-35750000D01*
X99250000Y-35750000D01*
X99250000Y-36409999D01*
X98750000Y-36409999D01*
X98750000Y-35574000D01*
X98771674Y-35521674D01*
X98824000Y-35500000D01*
X99000000Y-35500000D01*
X99000000Y-35324000D01*
X99021674Y-35271674D01*
X99074000Y-35250000D01*
X100175000Y-35250000D01*
X100175000Y-35133855D01*
X100160020Y-35020068D01*
X100101375Y-34878488D01*
X100008086Y-34756913D01*
X99903549Y-34676698D01*
X99875231Y-34627648D01*
X99889890Y-34572941D01*
X99896274Y-34565663D01*
X99908600Y-34553337D01*
X99908602Y-34553335D01*
X99964668Y-34438650D01*
X99975500Y-34364302D01*
X99975500Y-33635698D01*
X99964668Y-33561350D01*
X99908602Y-33446665D01*
X99818335Y-33356398D01*
X99818334Y-33356397D01*
X99703651Y-33300332D01*
X99629306Y-33289500D01*
X99629302Y-33289500D01*
X99474500Y-33289500D01*
X99422174Y-33267826D01*
X99400500Y-33215500D01*
X99400500Y-32747271D01*
X99400499Y-32747270D01*
X99394614Y-32725308D01*
X99373207Y-32645413D01*
X99320480Y-32554087D01*
X99245913Y-32479520D01*
X98995913Y-32229520D01*
X98995910Y-32229518D01*
X98995909Y-32229517D01*
X98904592Y-32176795D01*
X98904588Y-32176793D01*
X98802727Y-32149500D01*
X98802726Y-32149500D01*
X92223322Y-32149500D01*
X92177874Y-32130675D01*
X92176514Y-32132448D01*
X92172667Y-32129496D01*
X92052836Y-32060312D01*
X92052831Y-32060310D01*
X91919185Y-32024500D01*
X91919183Y-32024500D01*
X91780817Y-32024500D01*
X91780815Y-32024500D01*
X91647168Y-32060310D01*
X91647163Y-32060312D01*
X91527334Y-32129495D01*
X91429495Y-32227334D01*
X91360312Y-32347163D01*
X91360310Y-32347168D01*
X91324500Y-32480814D01*
X86900500Y-32480814D01*
X86900500Y-28203104D01*
X87639499Y-28203104D01*
X87648751Y-28280136D01*
X87650123Y-28291564D01*
X87665073Y-28329475D01*
X87705638Y-28432341D01*
X87788714Y-28541892D01*
X87797078Y-28552922D01*
X87917658Y-28644361D01*
X88058436Y-28699877D01*
X88129764Y-28708442D01*
X88146896Y-28710500D01*
X88146898Y-28710500D01*
X88425500Y-28710500D01*
X88477826Y-28732174D01*
X88499500Y-28784500D01*
X88499500Y-28826678D01*
X88480675Y-28872125D01*
X88482448Y-28873486D01*
X88479496Y-28877332D01*
X88410312Y-28997163D01*
X88410310Y-28997168D01*
X88374500Y-29130814D01*
X88374500Y-29269185D01*
X88410310Y-29402831D01*
X88410312Y-29402836D01*
X88479495Y-29522665D01*
X88577335Y-29620505D01*
X88697164Y-29689688D01*
X88830814Y-29725499D01*
X88830815Y-29725500D01*
X88830817Y-29725500D01*
X88969185Y-29725500D01*
X88969185Y-29725499D01*
X89102836Y-29689688D01*
X89222665Y-29620505D01*
X89320505Y-29522665D01*
X89389688Y-29402836D01*
X89425499Y-29269185D01*
X89425500Y-29269185D01*
X89425500Y-29130815D01*
X89425499Y-29130814D01*
X89424966Y-29128826D01*
X89389688Y-28997164D01*
X89320505Y-28877335D01*
X89320504Y-28877334D01*
X89320503Y-28877332D01*
X89317552Y-28873486D01*
X89319324Y-28872125D01*
X89300500Y-28826678D01*
X89300500Y-28784500D01*
X89322174Y-28732174D01*
X89374500Y-28710500D01*
X90439603Y-28710500D01*
X90491929Y-28732174D01*
X90513603Y-28784500D01*
X90491929Y-28836826D01*
X90487655Y-28840776D01*
X90486785Y-28841518D01*
X90361523Y-28966781D01*
X90361514Y-28966790D01*
X90257388Y-29110107D01*
X90257385Y-29110113D01*
X90176959Y-29267956D01*
X90176957Y-29267960D01*
X90122217Y-29436434D01*
X90122215Y-29436445D01*
X90102385Y-29561647D01*
X90094501Y-29611421D01*
X90094501Y-29788579D01*
X90119830Y-29948500D01*
X90122215Y-29963554D01*
X90122217Y-29963565D01*
X90176957Y-30132039D01*
X90176959Y-30132043D01*
X90257385Y-30289886D01*
X90257388Y-30289892D01*
X90355515Y-30424952D01*
X90361518Y-30433214D01*
X90486787Y-30558483D01*
X90486790Y-30558485D01*
X90486791Y-30558486D01*
X90615752Y-30652182D01*
X90630111Y-30662614D01*
X90746564Y-30721950D01*
X90787957Y-30743041D01*
X90787961Y-30743043D01*
X90956435Y-30797783D01*
X90956439Y-30797783D01*
X90956446Y-30797786D01*
X91095845Y-30819865D01*
X91131421Y-30825500D01*
X91131422Y-30825500D01*
X91308581Y-30825500D01*
X91344157Y-30819865D01*
X91483556Y-30797786D01*
X91483564Y-30797783D01*
X91483566Y-30797783D01*
X91652040Y-30743043D01*
X91652040Y-30743042D01*
X91652043Y-30743042D01*
X91809891Y-30662614D01*
X91953215Y-30558483D01*
X92078484Y-30433214D01*
X92182615Y-30289890D01*
X92263043Y-30132042D01*
X92284297Y-30066628D01*
X92317784Y-29963565D01*
X92317784Y-29963563D01*
X92317787Y-29963555D01*
X92345501Y-29788579D01*
X92345501Y-29611421D01*
X92343943Y-29601582D01*
X92337618Y-29561647D01*
X92336168Y-29552494D01*
X94049500Y-29552494D01*
X94049500Y-29847506D01*
X94057973Y-29911867D01*
X94088006Y-30139991D01*
X94164361Y-30424953D01*
X94277253Y-30697498D01*
X94277256Y-30697506D01*
X94405543Y-30919706D01*
X94424762Y-30952994D01*
X94604354Y-31187042D01*
X94812958Y-31395646D01*
X95047006Y-31575238D01*
X95302493Y-31722743D01*
X95575048Y-31835639D01*
X95860007Y-31911993D01*
X96152494Y-31950500D01*
X96152496Y-31950500D01*
X96447504Y-31950500D01*
X96447506Y-31950500D01*
X96739993Y-31911993D01*
X97024952Y-31835639D01*
X97297507Y-31722743D01*
X97552994Y-31575238D01*
X97787042Y-31395646D01*
X97995646Y-31187042D01*
X98175238Y-30952994D01*
X98322743Y-30697507D01*
X98435639Y-30424952D01*
X98511993Y-30139993D01*
X98550500Y-29847506D01*
X98550500Y-29611421D01*
X100254499Y-29611421D01*
X100254499Y-29788579D01*
X100279828Y-29948500D01*
X100282213Y-29963554D01*
X100282215Y-29963565D01*
X100336955Y-30132039D01*
X100336957Y-30132043D01*
X100417383Y-30289886D01*
X100417386Y-30289892D01*
X100515513Y-30424952D01*
X100521516Y-30433214D01*
X100646785Y-30558483D01*
X100646788Y-30558485D01*
X100646789Y-30558486D01*
X100775750Y-30652182D01*
X100790109Y-30662614D01*
X100906562Y-30721950D01*
X100947955Y-30743041D01*
X100947959Y-30743043D01*
X101116433Y-30797783D01*
X101116437Y-30797783D01*
X101116444Y-30797786D01*
X101255843Y-30819865D01*
X101291419Y-30825500D01*
X101291420Y-30825500D01*
X101468579Y-30825500D01*
X101504155Y-30819865D01*
X101643554Y-30797786D01*
X101643562Y-30797783D01*
X101643564Y-30797783D01*
X101812038Y-30743043D01*
X101812038Y-30743042D01*
X101812041Y-30743042D01*
X101969889Y-30662614D01*
X102113213Y-30558483D01*
X102238482Y-30433214D01*
X102342613Y-30289890D01*
X102423041Y-30132042D01*
X102444295Y-30066628D01*
X102477782Y-29963565D01*
X102477782Y-29963563D01*
X102477785Y-29963555D01*
X102505499Y-29788579D01*
X102505499Y-29611421D01*
X102477785Y-29436445D01*
X102477782Y-29436438D01*
X102477782Y-29436434D01*
X102423042Y-29267960D01*
X102423040Y-29267956D01*
X102412548Y-29247364D01*
X102342613Y-29110110D01*
X102337359Y-29102879D01*
X102238485Y-28966790D01*
X102238484Y-28966789D01*
X102238482Y-28966786D01*
X102113213Y-28841517D01*
X102113210Y-28841514D01*
X102113208Y-28841513D01*
X101969891Y-28737387D01*
X101969885Y-28737384D01*
X101812042Y-28656958D01*
X101812038Y-28656956D01*
X101643564Y-28602216D01*
X101643555Y-28602214D01*
X101643554Y-28602214D01*
X101531247Y-28584426D01*
X101468579Y-28574500D01*
X101468578Y-28574500D01*
X101291420Y-28574500D01*
X101291419Y-28574500D01*
X101116444Y-28602214D01*
X101116433Y-28602216D01*
X100947959Y-28656956D01*
X100947955Y-28656958D01*
X100790112Y-28737384D01*
X100790106Y-28737387D01*
X100646789Y-28841513D01*
X100521512Y-28966790D01*
X100417386Y-29110107D01*
X100417383Y-29110113D01*
X100336957Y-29267956D01*
X100336955Y-29267960D01*
X100282215Y-29436434D01*
X100282213Y-29436445D01*
X100262383Y-29561647D01*
X100254499Y-29611421D01*
X98550500Y-29611421D01*
X98550500Y-29552494D01*
X98511993Y-29260007D01*
X98435639Y-28975048D01*
X98322743Y-28702493D01*
X98175238Y-28447006D01*
X97995646Y-28212958D01*
X97787042Y-28004354D01*
X97552994Y-27824762D01*
X97515000Y-27802826D01*
X97297506Y-27677256D01*
X97297498Y-27677253D01*
X97024953Y-27564361D01*
X96739991Y-27488006D01*
X96524518Y-27459638D01*
X96447506Y-27449500D01*
X96152494Y-27449500D01*
X96084441Y-27458459D01*
X95860008Y-27488006D01*
X95575046Y-27564361D01*
X95302501Y-27677253D01*
X95302493Y-27677256D01*
X95047010Y-27824759D01*
X95047006Y-27824761D01*
X95047006Y-27824762D01*
X94815427Y-28002460D01*
X94812953Y-28004358D01*
X94604358Y-28212953D01*
X94604354Y-28212957D01*
X94604354Y-28212958D01*
X94437732Y-28430103D01*
X94424759Y-28447010D01*
X94277256Y-28702493D01*
X94277253Y-28702501D01*
X94164361Y-28975046D01*
X94088006Y-29260008D01*
X94056411Y-29499999D01*
X94049500Y-29552494D01*
X92336168Y-29552494D01*
X92326803Y-29493371D01*
X92317787Y-29436445D01*
X92317784Y-29436438D01*
X92317784Y-29436434D01*
X92292094Y-29357367D01*
X92296538Y-29300904D01*
X92339605Y-29264122D01*
X92362472Y-29260500D01*
X92627672Y-29260500D01*
X92627674Y-29260500D01*
X92900666Y-29224560D01*
X93166632Y-29153295D01*
X93421021Y-29047923D01*
X93659479Y-28910249D01*
X93787966Y-28811658D01*
X93877922Y-28742633D01*
X93877923Y-28742631D01*
X93877928Y-28742628D01*
X94072628Y-28547928D01*
X94077858Y-28541113D01*
X94183993Y-28402793D01*
X94240249Y-28329479D01*
X94377923Y-28091021D01*
X94483295Y-27836632D01*
X94554560Y-27570666D01*
X94590500Y-27297674D01*
X94590500Y-27022326D01*
X94554560Y-26749334D01*
X94483295Y-26483368D01*
X94377923Y-26228979D01*
X94349723Y-26180136D01*
X94240251Y-25990524D01*
X94240247Y-25990518D01*
X94072633Y-25772077D01*
X93877922Y-25577366D01*
X93659481Y-25409752D01*
X93659475Y-25409748D01*
X93421020Y-25272076D01*
X93421017Y-25272075D01*
X93166631Y-25166704D01*
X92900664Y-25095439D01*
X92699552Y-25068962D01*
X92627674Y-25059500D01*
X92352326Y-25059500D01*
X92288810Y-25067862D01*
X92079335Y-25095439D01*
X91813368Y-25166704D01*
X91558982Y-25272075D01*
X91558979Y-25272076D01*
X91320524Y-25409748D01*
X91320518Y-25409752D01*
X91102077Y-25577366D01*
X91102073Y-25577370D01*
X91091618Y-25587826D01*
X91039292Y-25609500D01*
X88146896Y-25609500D01*
X88058436Y-25620123D01*
X87917658Y-25675638D01*
X87797078Y-25767077D01*
X87797077Y-25767078D01*
X87705638Y-25887658D01*
X87650123Y-26028436D01*
X87640635Y-26107450D01*
X87639500Y-26116898D01*
X87639500Y-28203102D01*
X87639500Y-28203104D01*
X87639499Y-28203104D01*
X86900500Y-28203104D01*
X86900500Y-24469251D01*
X96540000Y-24469251D01*
X96540000Y-24770748D01*
X96579352Y-25069663D01*
X96657385Y-25360889D01*
X96657389Y-25360900D01*
X96772763Y-25639438D01*
X96772766Y-25639446D01*
X96923518Y-25900556D01*
X97046116Y-26060327D01*
X97599441Y-25507002D01*
X97676795Y-25613471D01*
X97846529Y-25783205D01*
X97952995Y-25860557D01*
X97399671Y-26413882D01*
X97559447Y-26536483D01*
X97820553Y-26687233D01*
X97820561Y-26687236D01*
X98099099Y-26802610D01*
X98099110Y-26802614D01*
X98390336Y-26880647D01*
X98390335Y-26880647D01*
X98689252Y-26920000D01*
X98990748Y-26920000D01*
X99289663Y-26880647D01*
X99580889Y-26802614D01*
X99580900Y-26802610D01*
X99859438Y-26687236D01*
X99859446Y-26687233D01*
X100120552Y-26536483D01*
X100317588Y-26385291D01*
X100362637Y-26369999D01*
X101370001Y-26369999D01*
X101870001Y-26369999D01*
X103194972Y-26369999D01*
X103194977Y-26369998D01*
X103297697Y-26359505D01*
X103464122Y-26304357D01*
X103613344Y-26212316D01*
X103613348Y-26212314D01*
X103737315Y-26088347D01*
X103737317Y-26088343D01*
X103829358Y-25939121D01*
X103884506Y-25772697D01*
X103895000Y-25669975D01*
X103895001Y-25669973D01*
X103895001Y-24870000D01*
X101870001Y-24870000D01*
X101870001Y-26369999D01*
X101370001Y-26369999D01*
X101370001Y-24370000D01*
X101870001Y-24370000D01*
X103895000Y-24370000D01*
X103895000Y-23570029D01*
X103894999Y-23570023D01*
X103884506Y-23467303D01*
X103829358Y-23300878D01*
X103737317Y-23151656D01*
X103737315Y-23151653D01*
X103613348Y-23027686D01*
X103613344Y-23027683D01*
X103464122Y-22935642D01*
X103297698Y-22880494D01*
X103194976Y-22870000D01*
X101870001Y-22870000D01*
X101870001Y-24370000D01*
X101370001Y-24370000D01*
X101370001Y-22870000D01*
X100362638Y-22870000D01*
X100317590Y-22854708D01*
X100120555Y-22703518D01*
X100120549Y-22703514D01*
X99859446Y-22552766D01*
X99859438Y-22552763D01*
X99580900Y-22437389D01*
X99580889Y-22437385D01*
X99289663Y-22359352D01*
X99289664Y-22359352D01*
X98990748Y-22320000D01*
X98689252Y-22320000D01*
X98390336Y-22359352D01*
X98099110Y-22437385D01*
X98099099Y-22437389D01*
X97820561Y-22552763D01*
X97820553Y-22552766D01*
X97559450Y-22703514D01*
X97559444Y-22703518D01*
X97399671Y-22826116D01*
X97952996Y-23379441D01*
X97846529Y-23456795D01*
X97676795Y-23626529D01*
X97599441Y-23732996D01*
X97046116Y-23179671D01*
X96923518Y-23339444D01*
X96923514Y-23339450D01*
X96772766Y-23600553D01*
X96772763Y-23600561D01*
X96657389Y-23879099D01*
X96657385Y-23879110D01*
X96579352Y-24170336D01*
X96540000Y-24469251D01*
X86900500Y-24469251D01*
X86900500Y-22710118D01*
X86900500Y-22666842D01*
X86871620Y-22503053D01*
X86814736Y-22346767D01*
X86731578Y-22202733D01*
X86624673Y-22075327D01*
X86497267Y-21968422D01*
X86353233Y-21885264D01*
X86287943Y-21861500D01*
X86196946Y-21828379D01*
X86033161Y-21799500D01*
X86033158Y-21799500D01*
X85989882Y-21799500D01*
X85950000Y-21799500D01*
X85866842Y-21799500D01*
X85866838Y-21799500D01*
X85703053Y-21828379D01*
X85546769Y-21885263D01*
X85546767Y-21885263D01*
X85546767Y-21885264D01*
X85467867Y-21930817D01*
X85402733Y-21968422D01*
X85275327Y-22075327D01*
X85168422Y-22202733D01*
X85085263Y-22346769D01*
X85028379Y-22503053D01*
X84999500Y-22666838D01*
X79240756Y-22666838D01*
X79247737Y-22646888D01*
X79247739Y-22646882D01*
X79247740Y-22646879D01*
X79250499Y-22617457D01*
X79250498Y-21782544D01*
X79247740Y-21753121D01*
X79246269Y-21748917D01*
X79204381Y-21629207D01*
X79188825Y-21608130D01*
X79172500Y-21586011D01*
X79158867Y-21531040D01*
X79188098Y-21482529D01*
X79194373Y-21478374D01*
X79207286Y-21470736D01*
X79207287Y-21470736D01*
X79320734Y-21357289D01*
X79402404Y-21219193D01*
X79447165Y-21065127D01*
X79449999Y-21029126D01*
X79449999Y-20850000D01*
X78573999Y-20850000D01*
X78521673Y-20828326D01*
X78499999Y-20776000D01*
X78499999Y-20424000D01*
X78521673Y-20371674D01*
X78573999Y-20350000D01*
X79449999Y-20350000D01*
X79449999Y-20274500D01*
X79471673Y-20222174D01*
X79523999Y-20200500D01*
X103932118Y-20200500D01*
X103984444Y-20222174D01*
X104006118Y-20274500D01*
X103996661Y-20310696D01*
X103956225Y-20382798D01*
X103956223Y-20382802D01*
X103884308Y-20587250D01*
X103871743Y-20662540D01*
X103848632Y-20801020D01*
X103848632Y-20801022D01*
X103848632Y-20801023D01*
X103850257Y-21017738D01*
X103889136Y-21230948D01*
X103964108Y-21434292D01*
X103964109Y-21434295D01*
X104072938Y-21621707D01*
X104072940Y-21621710D01*
X104212386Y-21787614D01*
X104378290Y-21927060D01*
X104419515Y-21950999D01*
X104565704Y-22035890D01*
X104565705Y-22035890D01*
X104565708Y-22035892D01*
X104769052Y-22110864D01*
X104982261Y-22149742D01*
X105198980Y-22151368D01*
X105412748Y-22115692D01*
X105617194Y-22043778D01*
X105689305Y-22003337D01*
X105745544Y-21996647D01*
X105790043Y-22031684D01*
X105799500Y-22067881D01*
X105799500Y-37332117D01*
X105777826Y-37384443D01*
X105725500Y-37406117D01*
X105689304Y-37396661D01*
X105617192Y-37356221D01*
X105617187Y-37356219D01*
X105412749Y-37284308D01*
X105369994Y-37277172D01*
X105198980Y-37248632D01*
X105198976Y-37248632D01*
X104982261Y-37250257D01*
X104769051Y-37289136D01*
X104565707Y-37364108D01*
X104565704Y-37364109D01*
X104378292Y-37472938D01*
X104212386Y-37612386D01*
X104072938Y-37778292D01*
X103964109Y-37965704D01*
X103964109Y-37965706D01*
X103964108Y-37965708D01*
X103951280Y-38000501D01*
X103889136Y-38169051D01*
X103850257Y-38382261D01*
X103848632Y-38598974D01*
X103848632Y-38598980D01*
X103874736Y-38755395D01*
X103884308Y-38812749D01*
X103956219Y-39017187D01*
X103956225Y-39017201D01*
X103996660Y-39089303D01*
X104003351Y-39145544D01*
X103968313Y-39190042D01*
X103932117Y-39199499D01*
X65899973Y-39199499D01*
X65847647Y-39177825D01*
X65825973Y-39125499D01*
X65847647Y-39073173D01*
X65890314Y-39052132D01*
X65927842Y-39047191D01*
X65927843Y-39047191D01*
X66073798Y-38986734D01*
X66073805Y-38986730D01*
X66119116Y-38951961D01*
X66119116Y-38951959D01*
X65750000Y-38582842D01*
X65399303Y-38933538D01*
X65468626Y-38986733D01*
X65468628Y-38986734D01*
X65614582Y-39047191D01*
X65652112Y-39052132D01*
X65701161Y-39080451D01*
X65715820Y-39135158D01*
X65687501Y-39184207D01*
X65642453Y-39199499D01*
X22067883Y-39199499D01*
X22015557Y-39177825D01*
X21993883Y-39125499D01*
X22003340Y-39089303D01*
X22043775Y-39017199D01*
X22043774Y-39017199D01*
X22043779Y-39017192D01*
X22044707Y-39014556D01*
X22115691Y-38812749D01*
X22115692Y-38812746D01*
X22151368Y-38598978D01*
X22149742Y-38382259D01*
X22148509Y-38375500D01*
X22121977Y-38230001D01*
X22110863Y-38169051D01*
X22035891Y-37965707D01*
X22024856Y-37946704D01*
X21927060Y-37778289D01*
X21927059Y-37778288D01*
X21914211Y-37763002D01*
X21787613Y-37612385D01*
X21621709Y-37472939D01*
X21531257Y-37420415D01*
X21434294Y-37364109D01*
X21434291Y-37364108D01*
X21230947Y-37289136D01*
X21017737Y-37250257D01*
X20801022Y-37248632D01*
X20801021Y-37248632D01*
X20801019Y-37248632D01*
X20672758Y-37270037D01*
X20587249Y-37284308D01*
X20382804Y-37356222D01*
X20310696Y-37396661D01*
X20254455Y-37403350D01*
X20209956Y-37368313D01*
X20200500Y-37332117D01*
X20200500Y-33635693D01*
X25974500Y-33635693D01*
X25974500Y-34364306D01*
X25985332Y-34438650D01*
X25985332Y-34438651D01*
X26041397Y-34553334D01*
X26041398Y-34553335D01*
X26131665Y-34643602D01*
X26205333Y-34679616D01*
X26213317Y-34683519D01*
X26250806Y-34725972D01*
X26247297Y-34782501D01*
X26213317Y-34816481D01*
X26131664Y-34856398D01*
X26041397Y-34946665D01*
X25985332Y-35061348D01*
X25985332Y-35061349D01*
X25974500Y-35135693D01*
X25974500Y-35864306D01*
X25985332Y-35938650D01*
X25985332Y-35938651D01*
X26041397Y-36053334D01*
X26041398Y-36053335D01*
X26131665Y-36143602D01*
X26246350Y-36199668D01*
X26320698Y-36210500D01*
X26320704Y-36210500D01*
X27579296Y-36210500D01*
X27579302Y-36210500D01*
X27653650Y-36199668D01*
X27661738Y-36195713D01*
X27718266Y-36192203D01*
X27757900Y-36225401D01*
X27757955Y-36225363D01*
X27758098Y-36225566D01*
X27758932Y-36226265D01*
X27760214Y-36228574D01*
X27829211Y-36326638D01*
X27846131Y-36350686D01*
X27955850Y-36451942D01*
X28084446Y-36527797D01*
X28226142Y-36574844D01*
X28374570Y-36590969D01*
X28374570Y-36590968D01*
X28374571Y-36590969D01*
X28424067Y-36585795D01*
X28523063Y-36575447D01*
X28664948Y-36528975D01*
X28690341Y-36514183D01*
X28694871Y-36511545D01*
X28695028Y-36511525D01*
X28726744Y-36492988D01*
X28726756Y-36492987D01*
X28732391Y-36490019D01*
X28771243Y-36471692D01*
X28783450Y-36467199D01*
X28821745Y-36456827D01*
X28834547Y-36454545D01*
X28869225Y-36451477D01*
X28877033Y-36450787D01*
X28883553Y-36450499D01*
X30429579Y-36450499D01*
X30429589Y-36450503D01*
X30466227Y-36450499D01*
X30472719Y-36450785D01*
X30515479Y-36454560D01*
X30528297Y-36456841D01*
X30566554Y-36467196D01*
X30566580Y-36467203D01*
X30578805Y-36471700D01*
X30617402Y-36489899D01*
X30623145Y-36492922D01*
X30655006Y-36511537D01*
X30660826Y-36514937D01*
X30661764Y-36515365D01*
X30685069Y-36528940D01*
X30826946Y-36575409D01*
X30947324Y-36587992D01*
X30975429Y-36590930D01*
X30975429Y-36590929D01*
X30975431Y-36590930D01*
X31123851Y-36574805D01*
X31265539Y-36527761D01*
X31394128Y-36451910D01*
X31482734Y-36370137D01*
X31535883Y-36350579D01*
X31561237Y-36356153D01*
X31655068Y-36395020D01*
X31768855Y-36409999D01*
X32150000Y-36409999D01*
X32650000Y-36409999D01*
X32705936Y-36409999D01*
X32789924Y-36399451D01*
X32789925Y-36399451D01*
X32922754Y-36344430D01*
X32989604Y-36292501D01*
X33457494Y-35824611D01*
X33509427Y-35757759D01*
X33512642Y-35750000D01*
X32650000Y-35750000D01*
X32650000Y-36409999D01*
X32150000Y-36409999D01*
X32150000Y-35574000D01*
X32171674Y-35521674D01*
X32224000Y-35500000D01*
X32400000Y-35500000D01*
X32400000Y-35324000D01*
X32421674Y-35271674D01*
X32474000Y-35250000D01*
X33575000Y-35250000D01*
X33575000Y-35133855D01*
X33560020Y-35020068D01*
X33509586Y-34898312D01*
X48475001Y-34898312D01*
X48485144Y-34997608D01*
X48538452Y-35158480D01*
X48538454Y-35158486D01*
X48593365Y-35247510D01*
X48602387Y-35303424D01*
X48598749Y-35314676D01*
X48545443Y-35443369D01*
X48537987Y-35499999D01*
X48537988Y-35500000D01*
X49060000Y-35500000D01*
X49060000Y-34994000D01*
X49081674Y-34941674D01*
X49134000Y-34920000D01*
X49175000Y-34920000D01*
X49175000Y-34850000D01*
X48475001Y-34850000D01*
X48475001Y-34898312D01*
X33509586Y-34898312D01*
X33501375Y-34878488D01*
X33490563Y-34864397D01*
X33408086Y-34756913D01*
X33303549Y-34676698D01*
X33275231Y-34627648D01*
X33289890Y-34572941D01*
X33296274Y-34565663D01*
X33308600Y-34553337D01*
X33308602Y-34553335D01*
X33363030Y-34441999D01*
X33405483Y-34404510D01*
X33429511Y-34400500D01*
X33726678Y-34400500D01*
X33772125Y-34419324D01*
X33773486Y-34417552D01*
X33777332Y-34420503D01*
X33777334Y-34420504D01*
X33777335Y-34420505D01*
X33897164Y-34489688D01*
X34030814Y-34525499D01*
X34030815Y-34525500D01*
X34030817Y-34525500D01*
X34169185Y-34525500D01*
X34169185Y-34525499D01*
X34302836Y-34489688D01*
X34422665Y-34420505D01*
X34520505Y-34322665D01*
X34532616Y-34301688D01*
X48475000Y-34301688D01*
X48475000Y-34350000D01*
X49175000Y-34350000D01*
X49175000Y-32850000D01*
X48475001Y-32850000D01*
X48475001Y-32898312D01*
X48485144Y-32997608D01*
X48538452Y-33158482D01*
X48627426Y-33302731D01*
X48747268Y-33422573D01*
X48891516Y-33511546D01*
X48946468Y-33529756D01*
X48989320Y-33566789D01*
X48993435Y-33623277D01*
X48956402Y-33666129D01*
X48946468Y-33670244D01*
X48891516Y-33688453D01*
X48747268Y-33777426D01*
X48627426Y-33897268D01*
X48538452Y-34041517D01*
X48485144Y-34202391D01*
X48475000Y-34301688D01*
X34532616Y-34301688D01*
X34589688Y-34202836D01*
X34625499Y-34069185D01*
X34625500Y-34069185D01*
X34625500Y-33930815D01*
X34625499Y-33930814D01*
X34616510Y-33897268D01*
X34589688Y-33797164D01*
X34520505Y-33677335D01*
X34422665Y-33579495D01*
X34302836Y-33510312D01*
X34302831Y-33510310D01*
X34169185Y-33474500D01*
X34169183Y-33474500D01*
X34030817Y-33474500D01*
X34030815Y-33474500D01*
X33897168Y-33510310D01*
X33897163Y-33510312D01*
X33777332Y-33579496D01*
X33773486Y-33582448D01*
X33772125Y-33580675D01*
X33726678Y-33599500D01*
X33429511Y-33599500D01*
X33377185Y-33577826D01*
X33363030Y-33558000D01*
X33353420Y-33538343D01*
X33308602Y-33446665D01*
X33218335Y-33356398D01*
X33218334Y-33356397D01*
X33103651Y-33300332D01*
X33029306Y-33289500D01*
X33029302Y-33289500D01*
X31770698Y-33289500D01*
X31770693Y-33289500D01*
X31696349Y-33300332D01*
X31696347Y-33300333D01*
X31688259Y-33304287D01*
X31631731Y-33307795D01*
X31592101Y-33274596D01*
X31592046Y-33274635D01*
X31591900Y-33274427D01*
X31591066Y-33273729D01*
X31589783Y-33271419D01*
X31542581Y-33204332D01*
X31503870Y-33149312D01*
X31497379Y-33143322D01*
X31448132Y-33097874D01*
X31394151Y-33048057D01*
X31390221Y-33045739D01*
X31297609Y-32991109D01*
X31265558Y-32972202D01*
X31265551Y-32972199D01*
X31141487Y-32931007D01*
X43199500Y-32931007D01*
X43199500Y-32960907D01*
X43199500Y-33068993D01*
X43201058Y-33076826D01*
X43226418Y-33204322D01*
X43226421Y-33204332D01*
X43279223Y-33331808D01*
X43343999Y-33428753D01*
X43355886Y-33446542D01*
X43453458Y-33544114D01*
X43568189Y-33620775D01*
X43568190Y-33620775D01*
X43568191Y-33620776D01*
X43687618Y-33670244D01*
X43695672Y-33673580D01*
X43831007Y-33700500D01*
X43831009Y-33700500D01*
X43968991Y-33700500D01*
X43968993Y-33700500D01*
X44104328Y-33673580D01*
X44231811Y-33620775D01*
X44346542Y-33544114D01*
X44444114Y-33446542D01*
X44520775Y-33331811D01*
X44573580Y-33204328D01*
X44600500Y-33068993D01*
X44600500Y-32931007D01*
X44573580Y-32795672D01*
X44573578Y-32795667D01*
X44520776Y-32668191D01*
X44517305Y-32662997D01*
X44444114Y-32553458D01*
X44346542Y-32455886D01*
X44346538Y-32455883D01*
X44231810Y-32379224D01*
X44205117Y-32368168D01*
X44205116Y-32368167D01*
X44104332Y-32326421D01*
X44104322Y-32326418D01*
X44013364Y-32308326D01*
X43979993Y-32301688D01*
X48475000Y-32301688D01*
X48475000Y-32350000D01*
X49175000Y-32350000D01*
X49175000Y-31350000D01*
X48475001Y-31350000D01*
X48475001Y-31398312D01*
X48485144Y-31497608D01*
X48538452Y-31658482D01*
X48627430Y-31802737D01*
X48628513Y-31804107D01*
X48628715Y-31804820D01*
X48629690Y-31806401D01*
X48629241Y-31806677D01*
X48643962Y-31858597D01*
X48629509Y-31893487D01*
X48629690Y-31893599D01*
X48628999Y-31894718D01*
X48628513Y-31895893D01*
X48627430Y-31897262D01*
X48538452Y-32041517D01*
X48485144Y-32202391D01*
X48475000Y-32301688D01*
X43979993Y-32301688D01*
X43968993Y-32299500D01*
X43831007Y-32299500D01*
X43792642Y-32307131D01*
X43695677Y-32326418D01*
X43695667Y-32326421D01*
X43568191Y-32379223D01*
X43453461Y-32455883D01*
X43355883Y-32553461D01*
X43279223Y-32668191D01*
X43226421Y-32795667D01*
X43226418Y-32795677D01*
X43207058Y-32893009D01*
X43199500Y-32931007D01*
X31141487Y-32931007D01*
X31123859Y-32925154D01*
X30975433Y-32909029D01*
X30975429Y-32909028D01*
X30826936Y-32924551D01*
X30685057Y-32971019D01*
X30661501Y-32984739D01*
X30661498Y-32984740D01*
X30655137Y-32988443D01*
X30655005Y-32988462D01*
X30624194Y-33006463D01*
X30623297Y-33006986D01*
X30623283Y-33006987D01*
X30617617Y-33009972D01*
X30578794Y-33028277D01*
X30566568Y-33032774D01*
X30528299Y-33043132D01*
X30515472Y-33045415D01*
X30472454Y-33049212D01*
X30465941Y-33049499D01*
X30422561Y-33049495D01*
X30422509Y-33049500D01*
X28927759Y-33049500D01*
X28920421Y-33049499D01*
X28920410Y-33049495D01*
X28888401Y-33049498D01*
X28883776Y-33049498D01*
X28883774Y-33049497D01*
X28877273Y-33049211D01*
X28834524Y-33045438D01*
X28821696Y-33043155D01*
X28783417Y-33032794D01*
X28771194Y-33028297D01*
X28732608Y-33010103D01*
X28726840Y-33007066D01*
X28697629Y-32990000D01*
X28694995Y-32988461D01*
X28694994Y-32988460D01*
X28689312Y-32985141D01*
X28688334Y-32984691D01*
X28671174Y-32974697D01*
X28664930Y-32971060D01*
X28664928Y-32971059D01*
X28664926Y-32971058D01*
X28523054Y-32924592D01*
X28374570Y-32909070D01*
X28374565Y-32909071D01*
X28226148Y-32925195D01*
X28084466Y-32972238D01*
X28084463Y-32972239D01*
X28084462Y-32972240D01*
X28056994Y-32988443D01*
X27955876Y-33048089D01*
X27846161Y-33149339D01*
X27760252Y-33271440D01*
X27758968Y-33273753D01*
X27758191Y-33274369D01*
X27757990Y-33274656D01*
X27757905Y-33274596D01*
X27714614Y-33308973D01*
X27661778Y-33304305D01*
X27653652Y-33300333D01*
X27653650Y-33300332D01*
X27579306Y-33289500D01*
X27579302Y-33289500D01*
X27434500Y-33289500D01*
X27382174Y-33267826D01*
X27360500Y-33215500D01*
X27360500Y-33143322D01*
X27379324Y-33097874D01*
X27377552Y-33096514D01*
X27380503Y-33092667D01*
X27380505Y-33092665D01*
X27449688Y-32972836D01*
X27485499Y-32839185D01*
X27485500Y-32839185D01*
X27485500Y-32700815D01*
X27485499Y-32700814D01*
X27483198Y-32692228D01*
X27449688Y-32567164D01*
X27380505Y-32447335D01*
X27282665Y-32349495D01*
X27162836Y-32280312D01*
X27162831Y-32280310D01*
X27029185Y-32244500D01*
X27029183Y-32244500D01*
X26890817Y-32244500D01*
X26890815Y-32244500D01*
X26757168Y-32280310D01*
X26757163Y-32280312D01*
X26637334Y-32349495D01*
X26539495Y-32447334D01*
X26470312Y-32567163D01*
X26470310Y-32567168D01*
X26434500Y-32700814D01*
X26434500Y-32839185D01*
X26470310Y-32972831D01*
X26470312Y-32972836D01*
X26539496Y-33092667D01*
X26542448Y-33096514D01*
X26540675Y-33097874D01*
X26559500Y-33143322D01*
X26559500Y-33215500D01*
X26537826Y-33267826D01*
X26485500Y-33289500D01*
X26320693Y-33289500D01*
X26246349Y-33300332D01*
X26246348Y-33300332D01*
X26131665Y-33356397D01*
X26041397Y-33446665D01*
X25985332Y-33561348D01*
X25985332Y-33561349D01*
X25974500Y-33635693D01*
X20200500Y-33635693D01*
X20200500Y-28203104D01*
X21039499Y-28203104D01*
X21048751Y-28280136D01*
X21050123Y-28291564D01*
X21065073Y-28329475D01*
X21105638Y-28432341D01*
X21188714Y-28541892D01*
X21197078Y-28552922D01*
X21317658Y-28644361D01*
X21458436Y-28699877D01*
X21529764Y-28708442D01*
X21546896Y-28710500D01*
X21546898Y-28710500D01*
X23839603Y-28710500D01*
X23891929Y-28732174D01*
X23913603Y-28784500D01*
X23891929Y-28836826D01*
X23887655Y-28840776D01*
X23886785Y-28841518D01*
X23761523Y-28966781D01*
X23761514Y-28966790D01*
X23657388Y-29110107D01*
X23657385Y-29110113D01*
X23576959Y-29267956D01*
X23576957Y-29267960D01*
X23522217Y-29436434D01*
X23522215Y-29436445D01*
X23502385Y-29561647D01*
X23494501Y-29611421D01*
X23494501Y-29788579D01*
X23519830Y-29948500D01*
X23522215Y-29963554D01*
X23522217Y-29963565D01*
X23576957Y-30132039D01*
X23576959Y-30132043D01*
X23657385Y-30289886D01*
X23657388Y-30289892D01*
X23755515Y-30424952D01*
X23761518Y-30433214D01*
X23886787Y-30558483D01*
X23886790Y-30558485D01*
X23886791Y-30558486D01*
X24015752Y-30652182D01*
X24030111Y-30662614D01*
X24146564Y-30721950D01*
X24187957Y-30743041D01*
X24187961Y-30743043D01*
X24356435Y-30797783D01*
X24356439Y-30797783D01*
X24356446Y-30797786D01*
X24495845Y-30819865D01*
X24531421Y-30825500D01*
X24531422Y-30825500D01*
X24708581Y-30825500D01*
X24744157Y-30819865D01*
X24883556Y-30797786D01*
X24883564Y-30797783D01*
X24883566Y-30797783D01*
X25052040Y-30743043D01*
X25052040Y-30743042D01*
X25052043Y-30743042D01*
X25209891Y-30662614D01*
X25353215Y-30558483D01*
X25478484Y-30433214D01*
X25582615Y-30289890D01*
X25663043Y-30132042D01*
X25684297Y-30066628D01*
X25717784Y-29963565D01*
X25717784Y-29963563D01*
X25717787Y-29963555D01*
X25745501Y-29788579D01*
X25745501Y-29611421D01*
X25743943Y-29601582D01*
X25737618Y-29561647D01*
X25736168Y-29552494D01*
X27449500Y-29552494D01*
X27449500Y-29847506D01*
X27457973Y-29911867D01*
X27488006Y-30139991D01*
X27564361Y-30424953D01*
X27677253Y-30697498D01*
X27677256Y-30697506D01*
X27805543Y-30919706D01*
X27824762Y-30952994D01*
X28004354Y-31187042D01*
X28212958Y-31395646D01*
X28447006Y-31575238D01*
X28702493Y-31722743D01*
X28975048Y-31835639D01*
X29260007Y-31911993D01*
X29552494Y-31950500D01*
X29552496Y-31950500D01*
X29847504Y-31950500D01*
X29847506Y-31950500D01*
X30139993Y-31911993D01*
X30424952Y-31835639D01*
X30697507Y-31722743D01*
X30952994Y-31575238D01*
X31187042Y-31395646D01*
X31395646Y-31187042D01*
X31575238Y-30952994D01*
X31722743Y-30697507D01*
X31835639Y-30424952D01*
X31911993Y-30139993D01*
X31950500Y-29847506D01*
X31950500Y-29611421D01*
X33654499Y-29611421D01*
X33654499Y-29788579D01*
X33679828Y-29948500D01*
X33682213Y-29963554D01*
X33682215Y-29963565D01*
X33736955Y-30132039D01*
X33736957Y-30132043D01*
X33817383Y-30289886D01*
X33817386Y-30289892D01*
X33915513Y-30424952D01*
X33921516Y-30433214D01*
X34046785Y-30558483D01*
X34046788Y-30558485D01*
X34046789Y-30558486D01*
X34175750Y-30652182D01*
X34190109Y-30662614D01*
X34306562Y-30721950D01*
X34347955Y-30743041D01*
X34347959Y-30743043D01*
X34516433Y-30797783D01*
X34516437Y-30797783D01*
X34516444Y-30797786D01*
X34655843Y-30819865D01*
X34691419Y-30825500D01*
X34691420Y-30825500D01*
X34868579Y-30825500D01*
X34904155Y-30819865D01*
X35043554Y-30797786D01*
X35043562Y-30797783D01*
X35043564Y-30797783D01*
X35212038Y-30743043D01*
X35212038Y-30743042D01*
X35212041Y-30743042D01*
X35369889Y-30662614D01*
X35513213Y-30558483D01*
X35638482Y-30433214D01*
X35742613Y-30289890D01*
X35823041Y-30132042D01*
X35844295Y-30066628D01*
X35877782Y-29963565D01*
X35877782Y-29963563D01*
X35877785Y-29963555D01*
X35905499Y-29788579D01*
X35905499Y-29611421D01*
X35903941Y-29601582D01*
X42649500Y-29601582D01*
X42649500Y-29798417D01*
X42680290Y-29992823D01*
X42680293Y-29992836D01*
X42741113Y-30180019D01*
X42830475Y-30355404D01*
X42944918Y-30512921D01*
X42946172Y-30514646D01*
X43085354Y-30653828D01*
X43085357Y-30653830D01*
X43085358Y-30653831D01*
X43204620Y-30740480D01*
X43244595Y-30769524D01*
X43419975Y-30858884D01*
X43419977Y-30858884D01*
X43419980Y-30858886D01*
X43607163Y-30919706D01*
X43607169Y-30919707D01*
X43607174Y-30919709D01*
X43725451Y-30938442D01*
X43801582Y-30950500D01*
X43801583Y-30950500D01*
X43998418Y-30950500D01*
X44074549Y-30938442D01*
X44192826Y-30919709D01*
X44192833Y-30919706D01*
X44192836Y-30919706D01*
X44380019Y-30858886D01*
X44380019Y-30858885D01*
X44380025Y-30858884D01*
X44555405Y-30769524D01*
X44714646Y-30653828D01*
X44853828Y-30514646D01*
X44969524Y-30355405D01*
X45058884Y-30180025D01*
X45076532Y-30125711D01*
X45119706Y-29992836D01*
X45119706Y-29992833D01*
X45119709Y-29992826D01*
X45150500Y-29798417D01*
X45150500Y-29601583D01*
X45150328Y-29600500D01*
X45132598Y-29488556D01*
X45119709Y-29407174D01*
X45119707Y-29407169D01*
X45119706Y-29407163D01*
X45058886Y-29219980D01*
X45058884Y-29219977D01*
X45058884Y-29219975D01*
X44969524Y-29044595D01*
X44939184Y-29002836D01*
X44853831Y-28885358D01*
X44853830Y-28885357D01*
X44853828Y-28885354D01*
X44714646Y-28746172D01*
X44714643Y-28746169D01*
X44714641Y-28746168D01*
X44555404Y-28630475D01*
X44380019Y-28541113D01*
X44192836Y-28480293D01*
X44192823Y-28480290D01*
X43998418Y-28449500D01*
X43998417Y-28449500D01*
X43801583Y-28449500D01*
X43801582Y-28449500D01*
X43607176Y-28480290D01*
X43607163Y-28480293D01*
X43419980Y-28541113D01*
X43244595Y-28630475D01*
X43085358Y-28746168D01*
X42946168Y-28885358D01*
X42830475Y-29044595D01*
X42741113Y-29219980D01*
X42680293Y-29407163D01*
X42680290Y-29407176D01*
X42649500Y-29601582D01*
X35903941Y-29601582D01*
X35877785Y-29436445D01*
X35877783Y-29436440D01*
X35877782Y-29436434D01*
X35823042Y-29267960D01*
X35823040Y-29267956D01*
X35812548Y-29247364D01*
X35742613Y-29110110D01*
X35737359Y-29102879D01*
X35638485Y-28966790D01*
X35638484Y-28966789D01*
X35638482Y-28966786D01*
X35513213Y-28841517D01*
X35513210Y-28841514D01*
X35513208Y-28841513D01*
X35369891Y-28737387D01*
X35369885Y-28737384D01*
X35212042Y-28656958D01*
X35212038Y-28656956D01*
X35043564Y-28602216D01*
X35043555Y-28602214D01*
X35043554Y-28602214D01*
X34931247Y-28584426D01*
X34868579Y-28574500D01*
X34868578Y-28574500D01*
X34691420Y-28574500D01*
X34691419Y-28574500D01*
X34516444Y-28602214D01*
X34516433Y-28602216D01*
X34347959Y-28656956D01*
X34347955Y-28656958D01*
X34190112Y-28737384D01*
X34190106Y-28737387D01*
X34046789Y-28841513D01*
X33921512Y-28966790D01*
X33817386Y-29110107D01*
X33817383Y-29110113D01*
X33736957Y-29267956D01*
X33736955Y-29267960D01*
X33682215Y-29436434D01*
X33682213Y-29436445D01*
X33662383Y-29561647D01*
X33654499Y-29611421D01*
X31950500Y-29611421D01*
X31950500Y-29552494D01*
X31911993Y-29260007D01*
X31835639Y-28975048D01*
X31722743Y-28702493D01*
X31575238Y-28447006D01*
X31395646Y-28212958D01*
X31187042Y-28004354D01*
X30952994Y-27824762D01*
X30915000Y-27802826D01*
X30697506Y-27677256D01*
X30697498Y-27677253D01*
X30424953Y-27564361D01*
X30139991Y-27488006D01*
X29924518Y-27459638D01*
X29847506Y-27449500D01*
X29552494Y-27449500D01*
X29484441Y-27458459D01*
X29260008Y-27488006D01*
X28975046Y-27564361D01*
X28702501Y-27677253D01*
X28702493Y-27677256D01*
X28447010Y-27824759D01*
X28447006Y-27824761D01*
X28447006Y-27824762D01*
X28215427Y-28002460D01*
X28212953Y-28004358D01*
X28004358Y-28212953D01*
X28004354Y-28212957D01*
X28004354Y-28212958D01*
X27837732Y-28430103D01*
X27824759Y-28447010D01*
X27677256Y-28702493D01*
X27677253Y-28702501D01*
X27564361Y-28975046D01*
X27488006Y-29260008D01*
X27456411Y-29499999D01*
X27449500Y-29552494D01*
X25736168Y-29552494D01*
X25726803Y-29493371D01*
X25717787Y-29436445D01*
X25717784Y-29436438D01*
X25717784Y-29436434D01*
X25692094Y-29357367D01*
X25696538Y-29300904D01*
X25739605Y-29264122D01*
X25762472Y-29260500D01*
X26027672Y-29260500D01*
X26027674Y-29260500D01*
X26300666Y-29224560D01*
X26566632Y-29153295D01*
X26821021Y-29047923D01*
X27059479Y-28910249D01*
X27187966Y-28811658D01*
X27277922Y-28742633D01*
X27277923Y-28742631D01*
X27277928Y-28742628D01*
X27472628Y-28547928D01*
X27477858Y-28541113D01*
X27583993Y-28402793D01*
X27640249Y-28329479D01*
X27777923Y-28091021D01*
X27883295Y-27836632D01*
X27954560Y-27570666D01*
X27990500Y-27297674D01*
X27990500Y-27022326D01*
X27978478Y-26931008D01*
X40299500Y-26931008D01*
X40299500Y-27068991D01*
X40326418Y-27204322D01*
X40326421Y-27204332D01*
X40379223Y-27331808D01*
X40438224Y-27420110D01*
X40455886Y-27446542D01*
X40553458Y-27544114D01*
X40668189Y-27620775D01*
X40668190Y-27620775D01*
X40668191Y-27620776D01*
X40728448Y-27645735D01*
X40795672Y-27673580D01*
X40931007Y-27700500D01*
X40931009Y-27700500D01*
X41068991Y-27700500D01*
X41068993Y-27700500D01*
X41204328Y-27673580D01*
X41331811Y-27620775D01*
X41446542Y-27544114D01*
X41544114Y-27446542D01*
X41620775Y-27331811D01*
X41673580Y-27204328D01*
X41694668Y-27098312D01*
X47325001Y-27098312D01*
X47335144Y-27197608D01*
X47388452Y-27358482D01*
X47477426Y-27502731D01*
X47597268Y-27622573D01*
X47741517Y-27711547D01*
X47902391Y-27764855D01*
X48001689Y-27774999D01*
X48025000Y-27774999D01*
X48025000Y-27050000D01*
X47325001Y-27050000D01*
X47325001Y-27098312D01*
X41694668Y-27098312D01*
X41700500Y-27068993D01*
X41700500Y-26931007D01*
X41673580Y-26795672D01*
X41643602Y-26723298D01*
X41620776Y-26668191D01*
X41616353Y-26661572D01*
X41544114Y-26553458D01*
X41492344Y-26501688D01*
X47325000Y-26501688D01*
X47325000Y-26550000D01*
X48025000Y-26550000D01*
X48025000Y-25819000D01*
X48046674Y-25766674D01*
X48066565Y-25758434D01*
X48080000Y-25745000D01*
X48080000Y-25300000D01*
X47557989Y-25300000D01*
X47565443Y-25356628D01*
X47565444Y-25356632D01*
X47625900Y-25502587D01*
X47722075Y-25627924D01*
X47851260Y-25727052D01*
X47850307Y-25728292D01*
X47881316Y-25768691D01*
X47873933Y-25824845D01*
X47833118Y-25858099D01*
X47741516Y-25888453D01*
X47597268Y-25977426D01*
X47477426Y-26097268D01*
X47388452Y-26241517D01*
X47335144Y-26402391D01*
X47325000Y-26501688D01*
X41492344Y-26501688D01*
X41446542Y-26455886D01*
X41372828Y-26406632D01*
X41331808Y-26379223D01*
X41204332Y-26326421D01*
X41204322Y-26326418D01*
X41113694Y-26308391D01*
X41068993Y-26299500D01*
X40931007Y-26299500D01*
X40892642Y-26307131D01*
X40795677Y-26326418D01*
X40795667Y-26326421D01*
X40668191Y-26379223D01*
X40553461Y-26455883D01*
X40455883Y-26553461D01*
X40379223Y-26668191D01*
X40326421Y-26795667D01*
X40326418Y-26795677D01*
X40307655Y-26890007D01*
X40301690Y-26920000D01*
X40299500Y-26931008D01*
X27978478Y-26931008D01*
X27954560Y-26749334D01*
X27883295Y-26483368D01*
X27777923Y-26228979D01*
X27749723Y-26180136D01*
X27640251Y-25990524D01*
X27640247Y-25990518D01*
X27472633Y-25772077D01*
X27277922Y-25577366D01*
X27059481Y-25409752D01*
X27059475Y-25409748D01*
X26821020Y-25272076D01*
X26821017Y-25272075D01*
X26566631Y-25166704D01*
X26300664Y-25095439D01*
X26099552Y-25068962D01*
X26027674Y-25059500D01*
X25752326Y-25059500D01*
X25688810Y-25067862D01*
X25479335Y-25095439D01*
X25213368Y-25166704D01*
X24958982Y-25272075D01*
X24958979Y-25272076D01*
X24720524Y-25409748D01*
X24720518Y-25409752D01*
X24502077Y-25577366D01*
X24502073Y-25577370D01*
X24491618Y-25587826D01*
X24439292Y-25609500D01*
X23589500Y-25609500D01*
X23537174Y-25587826D01*
X23515500Y-25535500D01*
X23515500Y-24851162D01*
X23525414Y-24814162D01*
X23542710Y-24784204D01*
X23589688Y-24702836D01*
X23625499Y-24569185D01*
X23625500Y-24569185D01*
X23625500Y-24469251D01*
X29940000Y-24469251D01*
X29940000Y-24770748D01*
X29979352Y-25069663D01*
X30057385Y-25360889D01*
X30057389Y-25360900D01*
X30172763Y-25639438D01*
X30172766Y-25639446D01*
X30323518Y-25900556D01*
X30446116Y-26060327D01*
X30999441Y-25507002D01*
X31076795Y-25613471D01*
X31246529Y-25783205D01*
X31352995Y-25860557D01*
X30799671Y-26413882D01*
X30959447Y-26536483D01*
X31220553Y-26687233D01*
X31220561Y-26687236D01*
X31499099Y-26802610D01*
X31499110Y-26802614D01*
X31790336Y-26880647D01*
X31790335Y-26880647D01*
X32089252Y-26920000D01*
X32390748Y-26920000D01*
X32689664Y-26880647D01*
X32782049Y-26855893D01*
X32980889Y-26802614D01*
X32980900Y-26802610D01*
X33259438Y-26687236D01*
X33259446Y-26687233D01*
X33520552Y-26536483D01*
X33717588Y-26385291D01*
X33762637Y-26369999D01*
X34770001Y-26369999D01*
X35270001Y-26369999D01*
X36594972Y-26369999D01*
X36594977Y-26369998D01*
X36697697Y-26359505D01*
X36864122Y-26304357D01*
X37013344Y-26212316D01*
X37013348Y-26212314D01*
X37137315Y-26088347D01*
X37137317Y-26088343D01*
X37229358Y-25939121D01*
X37284506Y-25772697D01*
X37295000Y-25669975D01*
X37295001Y-25669973D01*
X37295001Y-24870000D01*
X35270001Y-24870000D01*
X35270001Y-26369999D01*
X34770001Y-26369999D01*
X34770001Y-24370000D01*
X35270001Y-24370000D01*
X37295000Y-24370000D01*
X37295000Y-23570029D01*
X37294999Y-23570023D01*
X37284506Y-23467303D01*
X37229358Y-23300878D01*
X37137317Y-23151656D01*
X37137315Y-23151653D01*
X37013348Y-23027686D01*
X37013344Y-23027683D01*
X36864122Y-22935642D01*
X36697698Y-22880494D01*
X36594976Y-22870000D01*
X35270001Y-22870000D01*
X35270001Y-24370000D01*
X34770001Y-24370000D01*
X34770001Y-22870000D01*
X33762638Y-22870000D01*
X33717590Y-22854708D01*
X33520555Y-22703518D01*
X33520549Y-22703514D01*
X33259446Y-22552766D01*
X33259438Y-22552763D01*
X33223109Y-22537715D01*
X32980900Y-22437389D01*
X32980889Y-22437385D01*
X32689663Y-22359352D01*
X32689664Y-22359352D01*
X32390748Y-22320000D01*
X32089252Y-22320000D01*
X31790336Y-22359352D01*
X31499110Y-22437385D01*
X31499099Y-22437389D01*
X31220561Y-22552763D01*
X31220553Y-22552766D01*
X30959450Y-22703514D01*
X30959444Y-22703518D01*
X30799671Y-22826116D01*
X31352996Y-23379441D01*
X31246529Y-23456795D01*
X31076795Y-23626529D01*
X30999441Y-23732996D01*
X30446116Y-23179671D01*
X30323518Y-23339444D01*
X30323514Y-23339450D01*
X30172766Y-23600553D01*
X30172763Y-23600561D01*
X30057389Y-23879099D01*
X30057385Y-23879110D01*
X29979352Y-24170336D01*
X29940000Y-24469251D01*
X23625500Y-24469251D01*
X23625500Y-24430815D01*
X23625499Y-24430814D01*
X23622194Y-24418481D01*
X23589688Y-24297164D01*
X23520505Y-24177335D01*
X23422665Y-24079495D01*
X23302836Y-24010312D01*
X23302831Y-24010310D01*
X23169185Y-23974500D01*
X23169183Y-23974500D01*
X23030817Y-23974500D01*
X23030815Y-23974500D01*
X22897168Y-24010310D01*
X22897163Y-24010312D01*
X22777334Y-24079495D01*
X22679495Y-24177334D01*
X22610312Y-24297163D01*
X22610310Y-24297168D01*
X22574500Y-24430814D01*
X22574500Y-24569185D01*
X22610310Y-24702831D01*
X22610312Y-24702836D01*
X22679495Y-24822665D01*
X22692826Y-24835996D01*
X22714500Y-24888322D01*
X22714500Y-25535500D01*
X22692826Y-25587826D01*
X22640500Y-25609500D01*
X21546896Y-25609500D01*
X21458436Y-25620123D01*
X21317658Y-25675638D01*
X21197078Y-25767077D01*
X21197077Y-25767078D01*
X21105638Y-25887658D01*
X21050123Y-26028436D01*
X21040635Y-26107450D01*
X21039500Y-26116898D01*
X21039500Y-28203102D01*
X21039500Y-28203104D01*
X21039499Y-28203104D01*
X20200500Y-28203104D01*
X20200500Y-22067067D01*
X20222174Y-22014741D01*
X20274500Y-21993067D01*
X20310728Y-22002543D01*
X20382490Y-22042843D01*
X20385140Y-22043778D01*
X20586733Y-22114910D01*
X20586737Y-22114910D01*
X20586741Y-22114912D01*
X20800331Y-22150856D01*
X21016920Y-22149609D01*
X21016929Y-22149607D01*
X21016932Y-22149607D01*
X21083016Y-22137701D01*
X21230081Y-22111206D01*
X21433488Y-22036789D01*
X21621105Y-21928566D01*
X21787363Y-21789747D01*
X21927329Y-21624454D01*
X22036849Y-21437590D01*
X22112672Y-21234703D01*
X22152549Y-21021813D01*
X22155296Y-20805238D01*
X22120831Y-20591404D01*
X22116721Y-20579495D01*
X22059596Y-20413952D01*
X22050178Y-20386660D01*
X22012345Y-20318186D01*
X22007981Y-20310287D01*
X22001647Y-20254005D01*
X22036965Y-20209729D01*
X22072752Y-20200500D01*
X56719278Y-20200500D01*
X56771604Y-20222174D01*
G37*
%TD.AperFunction*%
%TA.AperFunction,Conductor*%
G36*
X63951059Y-30883390D02*
G01*
X63977759Y-30910090D01*
X64032956Y-30951247D01*
X64049912Y-30957068D01*
X64092365Y-30994557D01*
X64095873Y-31003027D01*
X64101696Y-31019986D01*
X64101697Y-31019988D01*
X64142854Y-31075185D01*
X64260602Y-31192933D01*
X64269723Y-31199734D01*
X64298718Y-31248385D01*
X64299492Y-31259060D01*
X64299492Y-31263434D01*
X64338697Y-31384093D01*
X64338699Y-31384097D01*
X64373266Y-31431674D01*
X64413268Y-31486732D01*
X64707927Y-31781391D01*
X64709205Y-31782663D01*
X64709211Y-31782667D01*
X64709213Y-31782669D01*
X64812172Y-31856776D01*
X64812174Y-31856777D01*
X64933006Y-31895445D01*
X64933015Y-31895444D01*
X64938763Y-31896330D01*
X64938540Y-31897778D01*
X64985258Y-31916878D01*
X64989516Y-31921777D01*
X64989626Y-31921683D01*
X64991381Y-31923712D01*
X64991382Y-31923713D01*
X65109130Y-32041461D01*
X65164327Y-32082618D01*
X65181283Y-32088439D01*
X65223736Y-32125928D01*
X65227244Y-32134398D01*
X65233067Y-32151357D01*
X65233068Y-32151359D01*
X65274225Y-32206556D01*
X65391973Y-32324304D01*
X65447170Y-32365461D01*
X65447172Y-32365461D01*
X65447174Y-32365463D01*
X65464123Y-32371281D01*
X65506578Y-32408769D01*
X65510087Y-32417240D01*
X65515910Y-32434201D01*
X65557067Y-32489398D01*
X65674815Y-32607146D01*
X65730012Y-32648303D01*
X65746968Y-32654124D01*
X65789421Y-32691613D01*
X65792929Y-32700083D01*
X65798752Y-32717042D01*
X65798753Y-32717044D01*
X65839910Y-32772241D01*
X65957658Y-32889989D01*
X66012855Y-32931146D01*
X66029811Y-32936967D01*
X66072264Y-32974456D01*
X66075772Y-32982926D01*
X66081595Y-32999885D01*
X66081596Y-32999887D01*
X66122753Y-33055084D01*
X66240501Y-33172832D01*
X66295698Y-33213989D01*
X66295700Y-33213989D01*
X66295702Y-33213991D01*
X66312651Y-33219809D01*
X66355106Y-33257297D01*
X66358615Y-33265768D01*
X66364438Y-33282729D01*
X66405595Y-33337926D01*
X66523343Y-33455674D01*
X66533808Y-33463477D01*
X66537428Y-33466176D01*
X66566421Y-33514829D01*
X66552518Y-33569734D01*
X66503865Y-33598727D01*
X66493194Y-33599500D01*
X66447271Y-33599500D01*
X66345417Y-33626791D01*
X66345411Y-33626794D01*
X66264375Y-33673580D01*
X66254090Y-33679518D01*
X66254088Y-33679519D01*
X64079517Y-35854090D01*
X64026795Y-35945407D01*
X64026791Y-35945416D01*
X64001892Y-36038340D01*
X64001893Y-36038341D01*
X63999500Y-36047272D01*
X63999500Y-36537517D01*
X63977826Y-36589843D01*
X63860014Y-36707654D01*
X63818852Y-36762856D01*
X63813030Y-36779815D01*
X63775538Y-36822266D01*
X63767073Y-36825772D01*
X63750114Y-36831594D01*
X63694912Y-36872756D01*
X63644357Y-36923312D01*
X63592031Y-36944986D01*
X63539705Y-36923312D01*
X63097174Y-36480781D01*
X63078348Y-36435332D01*
X63076133Y-36435624D01*
X63075500Y-36430821D01*
X63075500Y-36430817D01*
X63039688Y-36297164D01*
X62970505Y-36177335D01*
X62872665Y-36079495D01*
X62752836Y-36010312D01*
X62752831Y-36010310D01*
X62619185Y-35974500D01*
X62619183Y-35974500D01*
X62480817Y-35974500D01*
X62480815Y-35974500D01*
X62347168Y-36010310D01*
X62347163Y-36010312D01*
X62227334Y-36079495D01*
X62129495Y-36177334D01*
X62082029Y-36259548D01*
X62037095Y-36294027D01*
X62013524Y-36296416D01*
X62009461Y-36296172D01*
X61816539Y-36489096D01*
X61766498Y-36510735D01*
X61765365Y-36510770D01*
X61739430Y-36510770D01*
X61736865Y-36511650D01*
X61728556Y-36511907D01*
X61706374Y-36503511D01*
X61683266Y-36498163D01*
X61680489Y-36493713D01*
X61675586Y-36491858D01*
X61665838Y-36470239D01*
X61653279Y-36450116D01*
X61653279Y-36442386D01*
X61652306Y-36440227D01*
X61653280Y-36437653D01*
X61653281Y-36425756D01*
X61653442Y-36424788D01*
X61653444Y-36424784D01*
X61653444Y-36399998D01*
X61675118Y-36347672D01*
X61868038Y-36154750D01*
X61803536Y-36104080D01*
X61664855Y-36043842D01*
X61515075Y-36023256D01*
X61494583Y-36026072D01*
X61446524Y-36016268D01*
X61443291Y-36014334D01*
X61401359Y-35983068D01*
X61377084Y-35974733D01*
X61370444Y-35970762D01*
X61357816Y-35953767D01*
X61341947Y-35939753D01*
X61338443Y-35931294D01*
X61332618Y-35914327D01*
X61291461Y-35859130D01*
X61173713Y-35741382D01*
X61118516Y-35700225D01*
X61118514Y-35700224D01*
X61118514Y-35700223D01*
X61101555Y-35694401D01*
X61059104Y-35656910D01*
X61055600Y-35648451D01*
X61049775Y-35631484D01*
X61008618Y-35576287D01*
X60922175Y-35489844D01*
X60900501Y-35437519D01*
X60900501Y-35402500D01*
X60900501Y-35348744D01*
X60900500Y-35348740D01*
X60900500Y-35108698D01*
X60900501Y-35108685D01*
X60900501Y-34997271D01*
X60900500Y-34997270D01*
X60899908Y-34995062D01*
X60881047Y-34924672D01*
X60873208Y-34895416D01*
X60873207Y-34895415D01*
X60873207Y-34895413D01*
X60861133Y-34874500D01*
X60820480Y-34804087D01*
X60745913Y-34729520D01*
X60743334Y-34726941D01*
X60743323Y-34726931D01*
X59843718Y-33827326D01*
X59822044Y-33775000D01*
X59843718Y-33722674D01*
X61236393Y-32330000D01*
X62644219Y-30922174D01*
X62696545Y-30900500D01*
X63757141Y-30900500D01*
X63757142Y-30900500D01*
X63859003Y-30873207D01*
X63861727Y-30871633D01*
X63863300Y-30871426D01*
X63863488Y-30871349D01*
X63863508Y-30871399D01*
X63917878Y-30864235D01*
X63951059Y-30883390D01*
G37*
%TD.AperFunction*%
%TA.AperFunction,Conductor*%
G36*
X69898326Y-34671674D02*
G01*
X69920000Y-34724000D01*
X69920000Y-35345960D01*
X70006628Y-35334556D01*
X70006632Y-35334555D01*
X70152587Y-35274099D01*
X70280353Y-35176060D01*
X70335060Y-35161401D01*
X70377726Y-35182441D01*
X70517765Y-35322480D01*
X70517767Y-35322481D01*
X70517768Y-35322482D01*
X70571848Y-35353705D01*
X70609090Y-35375207D01*
X70710951Y-35402500D01*
X70710952Y-35402500D01*
X74499743Y-35402500D01*
X74552069Y-35424174D01*
X74573743Y-35476500D01*
X74552069Y-35528826D01*
X74456069Y-35624826D01*
X74403743Y-35646500D01*
X68793545Y-35646500D01*
X68741219Y-35624826D01*
X68293219Y-35176826D01*
X68271545Y-35124500D01*
X68293219Y-35072174D01*
X68345545Y-35050500D01*
X68653456Y-35050500D01*
X68705782Y-35072174D01*
X68711658Y-35078050D01*
X68824696Y-35135646D01*
X68918481Y-35150500D01*
X69104538Y-35150499D01*
X69156863Y-35172173D01*
X69160714Y-35176564D01*
X69162077Y-35177927D01*
X69287408Y-35274097D01*
X69287412Y-35274099D01*
X69433367Y-35334555D01*
X69433370Y-35334556D01*
X69520000Y-35345960D01*
X69520000Y-35037044D01*
X69537389Y-34995062D01*
X69534626Y-34993055D01*
X69538047Y-34988345D01*
X69538050Y-34988342D01*
X69595646Y-34875304D01*
X69610500Y-34781519D01*
X69610500Y-34724000D01*
X69632174Y-34671674D01*
X69684500Y-34650000D01*
X69846000Y-34650000D01*
X69898326Y-34671674D01*
G37*
%TD.AperFunction*%
%TA.AperFunction,Conductor*%
G36*
X71555781Y-31672174D02*
G01*
X72092826Y-32209219D01*
X72114500Y-32261545D01*
X72114500Y-32600352D01*
X72112271Y-32605731D01*
X72113673Y-32611382D01*
X72101702Y-32631247D01*
X72092826Y-32652678D01*
X72084444Y-32659890D01*
X72059099Y-32678596D01*
X72004128Y-32692228D01*
X71955617Y-32662997D01*
X71951830Y-32657338D01*
X71932838Y-32625922D01*
X71819077Y-32512161D01*
X71681395Y-32428929D01*
X71527790Y-32381065D01*
X71495001Y-32378084D01*
X71495000Y-32378085D01*
X71495000Y-33613500D01*
X71473326Y-33665826D01*
X71421000Y-33687500D01*
X71124500Y-33687500D01*
X71072174Y-33665826D01*
X71050500Y-33613500D01*
X71050500Y-32093020D01*
X71050501Y-32093007D01*
X71050501Y-31981594D01*
X71050500Y-31981593D01*
X71047976Y-31972175D01*
X71028042Y-31897778D01*
X71023208Y-31879738D01*
X71023207Y-31879736D01*
X71023207Y-31879735D01*
X71003153Y-31845001D01*
X70970480Y-31788409D01*
X70953793Y-31771722D01*
X70949770Y-31765725D01*
X70945507Y-31744500D01*
X70937223Y-31724500D01*
X70940097Y-31717561D01*
X70938618Y-31710197D01*
X70950612Y-31692174D01*
X70958897Y-31672174D01*
X70965836Y-31669299D01*
X70969998Y-31663047D01*
X70991222Y-31658784D01*
X71011223Y-31650500D01*
X71503455Y-31650500D01*
X71555781Y-31672174D01*
G37*
%TD.AperFunction*%
%TA.AperFunction,Conductor*%
G36*
X77718326Y-31431674D02*
G01*
X77740000Y-31484000D01*
X77740000Y-32256000D01*
X77718326Y-32308326D01*
X77666000Y-32330000D01*
X77327500Y-32330000D01*
X77275174Y-32308326D01*
X77253500Y-32256000D01*
X77253500Y-31484000D01*
X77275174Y-31431674D01*
X77327500Y-31410000D01*
X77666000Y-31410000D01*
X77718326Y-31431674D01*
G37*
%TD.AperFunction*%
%TA.AperFunction,Conductor*%
G36*
X52629939Y-28272175D02*
G01*
X52637153Y-28280558D01*
X52667849Y-28322150D01*
X52667853Y-28322154D01*
X52777116Y-28402793D01*
X52777118Y-28402794D01*
X52905295Y-28447645D01*
X52905301Y-28447647D01*
X52935734Y-28450501D01*
X52935741Y-28450501D01*
X54069258Y-28450501D01*
X54069266Y-28450501D01*
X54099699Y-28447647D01*
X54158248Y-28427160D01*
X54214796Y-28430335D01*
X54252536Y-28472566D01*
X54249361Y-28529114D01*
X54246775Y-28534006D01*
X54210314Y-28597159D01*
X54210310Y-28597168D01*
X54174500Y-28730814D01*
X54174500Y-28874033D01*
X54172617Y-28874033D01*
X54159634Y-28922431D01*
X54110577Y-28950737D01*
X54095134Y-28951139D01*
X54080644Y-28949999D01*
X53752500Y-28949999D01*
X53752500Y-29499999D01*
X54662296Y-29499999D01*
X54662099Y-29497505D01*
X54639624Y-29420145D01*
X54645839Y-29363850D01*
X54690041Y-29328438D01*
X54710686Y-29325500D01*
X54769185Y-29325500D01*
X54769185Y-29325499D01*
X54902836Y-29289688D01*
X54902840Y-29289685D01*
X54905059Y-29288767D01*
X54906274Y-29288766D01*
X54907521Y-29288433D01*
X54907610Y-29288766D01*
X54961696Y-29288765D01*
X54977322Y-29297592D01*
X55052119Y-29352794D01*
X55180295Y-29397644D01*
X55180301Y-29397646D01*
X55210734Y-29400500D01*
X55210741Y-29400500D01*
X55293890Y-29400500D01*
X55346216Y-29422174D01*
X55367890Y-29474500D01*
X55366039Y-29488556D01*
X55366077Y-29488561D01*
X55354039Y-29580000D01*
X56745960Y-29580000D01*
X56745960Y-29579999D01*
X56734556Y-29493371D01*
X56734555Y-29493367D01*
X56674099Y-29347412D01*
X56648110Y-29313543D01*
X56633451Y-29258836D01*
X56647276Y-29224555D01*
X56692793Y-29162882D01*
X56693423Y-29161083D01*
X56725825Y-29068481D01*
X56737646Y-29034699D01*
X56740500Y-29004266D01*
X56740500Y-28848542D01*
X56762174Y-28796216D01*
X56814500Y-28774542D01*
X56851498Y-28784455D01*
X56947164Y-28839688D01*
X57080817Y-28875500D01*
X57080822Y-28875500D01*
X57085624Y-28876133D01*
X57085332Y-28878348D01*
X57130781Y-28897174D01*
X57554087Y-29320480D01*
X57554089Y-29320481D01*
X57554090Y-29320482D01*
X57605217Y-29350000D01*
X57645412Y-29373207D01*
X57747273Y-29400500D01*
X57829133Y-29400500D01*
X57881459Y-29422174D01*
X58153001Y-29693716D01*
X58174675Y-29746042D01*
X58153001Y-29798368D01*
X58137675Y-29810128D01*
X58104086Y-29829520D01*
X58033736Y-29899870D01*
X58029518Y-29904087D01*
X58029518Y-29904088D01*
X57972851Y-29960756D01*
X57935781Y-29997826D01*
X57883455Y-30019500D01*
X56814131Y-30019500D01*
X56761805Y-29997826D01*
X56758495Y-29994292D01*
X56745961Y-29980000D01*
X56437044Y-29980000D01*
X56395062Y-29962610D01*
X56393055Y-29965374D01*
X56388345Y-29961952D01*
X56388342Y-29961950D01*
X56275304Y-29904354D01*
X56275302Y-29904353D01*
X56275301Y-29904353D01*
X56181520Y-29889500D01*
X55918480Y-29889500D01*
X55824695Y-29904353D01*
X55824693Y-29904354D01*
X55711657Y-29961950D01*
X55706945Y-29965374D01*
X55704937Y-29962610D01*
X55662956Y-29980000D01*
X55354040Y-29980000D01*
X55365443Y-30066628D01*
X55365444Y-30066632D01*
X55425900Y-30212587D01*
X55522076Y-30337925D01*
X55525505Y-30341354D01*
X55524047Y-30342811D01*
X55548867Y-30385803D01*
X55549500Y-30395461D01*
X55549500Y-30581519D01*
X55562552Y-30663926D01*
X55549330Y-30718998D01*
X55501038Y-30748590D01*
X55489463Y-30749501D01*
X55208234Y-30749501D01*
X55177801Y-30752355D01*
X55177799Y-30752355D01*
X55177795Y-30752356D01*
X55049618Y-30797207D01*
X55049616Y-30797208D01*
X54940353Y-30877847D01*
X54940346Y-30877854D01*
X54859707Y-30987117D01*
X54859706Y-30987119D01*
X54814855Y-31115296D01*
X54814854Y-31115300D01*
X54814854Y-31115302D01*
X54812000Y-31145735D01*
X54812000Y-31145741D01*
X54812000Y-31206037D01*
X54790326Y-31258363D01*
X54738000Y-31280037D01*
X54729777Y-31279499D01*
X54729057Y-31279499D01*
X54570943Y-31279499D01*
X54556152Y-31283462D01*
X54499999Y-31276068D01*
X54465521Y-31231135D01*
X54463000Y-31211983D01*
X54463000Y-31145741D01*
X54463000Y-31145735D01*
X54460146Y-31115302D01*
X54415293Y-30987119D01*
X54409958Y-30979890D01*
X54334653Y-30877854D01*
X54334646Y-30877847D01*
X54225383Y-30797208D01*
X54225381Y-30797207D01*
X54097204Y-30752356D01*
X54097205Y-30752356D01*
X54097200Y-30752355D01*
X54097199Y-30752355D01*
X54066766Y-30749501D01*
X52933234Y-30749501D01*
X52902801Y-30752355D01*
X52902799Y-30752355D01*
X52902795Y-30752356D01*
X52837093Y-30775347D01*
X52812652Y-30779500D01*
X52626544Y-30779500D01*
X52574218Y-30757826D01*
X52538343Y-30721951D01*
X52538342Y-30721950D01*
X52425304Y-30664354D01*
X52425302Y-30664353D01*
X52425301Y-30664353D01*
X52331519Y-30649500D01*
X52068479Y-30649500D01*
X52068478Y-30649501D01*
X52051549Y-30652182D01*
X51996477Y-30638959D01*
X51966886Y-30590667D01*
X51966886Y-30567521D01*
X51985500Y-30450000D01*
X51985500Y-30244783D01*
X52007174Y-30192457D01*
X52040344Y-30173305D01*
X52105597Y-30155821D01*
X52204903Y-30098487D01*
X52244966Y-30058423D01*
X52297291Y-30036749D01*
X52349617Y-30058422D01*
X52368354Y-30090104D01*
X52388718Y-30160197D01*
X52472317Y-30301555D01*
X52588443Y-30417681D01*
X52729800Y-30501280D01*
X52887508Y-30547098D01*
X52887505Y-30547098D01*
X52924359Y-30549999D01*
X53252500Y-30549999D01*
X53752500Y-30549999D01*
X54080641Y-30549999D01*
X54117493Y-30547098D01*
X54275199Y-30501280D01*
X54416556Y-30417681D01*
X54532682Y-30301555D01*
X54616281Y-30160198D01*
X54662099Y-30002492D01*
X54662296Y-29999999D01*
X53752500Y-29999999D01*
X53752500Y-30549999D01*
X53252500Y-30549999D01*
X53252500Y-28949999D01*
X52924359Y-28949999D01*
X52887506Y-28952899D01*
X52729800Y-28998717D01*
X52588443Y-29082316D01*
X52489673Y-29181086D01*
X52437347Y-29202760D01*
X52385021Y-29181086D01*
X52363347Y-29128760D01*
X52365868Y-29109613D01*
X52392800Y-29009100D01*
X52392800Y-28890902D01*
X52362209Y-28776732D01*
X52353903Y-28762345D01*
X52346511Y-28706193D01*
X52366799Y-28630476D01*
X52372999Y-28607337D01*
X52373000Y-28607337D01*
X52373000Y-28492663D01*
X52372999Y-28492662D01*
X52371830Y-28488301D01*
X52343321Y-28381903D01*
X52341837Y-28378320D01*
X52341836Y-28378319D01*
X52341835Y-28321682D01*
X52343008Y-28318850D01*
X52359048Y-28294843D01*
X52381718Y-28272174D01*
X52434043Y-28250501D01*
X52577613Y-28250501D01*
X52629939Y-28272175D01*
G37*
%TD.AperFunction*%
%TA.AperFunction,Conductor*%
G36*
X77917821Y-29216820D02*
G01*
X77939500Y-29269143D01*
X77939500Y-29331519D01*
X77954353Y-29425304D01*
X77954354Y-29425306D01*
X78011950Y-29538342D01*
X78015374Y-29543055D01*
X78012610Y-29545062D01*
X78030000Y-29587044D01*
X78030000Y-29730000D01*
X78299999Y-29730000D01*
X78307825Y-29722174D01*
X78360148Y-29700499D01*
X78626000Y-29700499D01*
X78678326Y-29722173D01*
X78700000Y-29774499D01*
X78700000Y-29856000D01*
X78678326Y-29908326D01*
X78626000Y-29930000D01*
X78500000Y-29930000D01*
X78500000Y-29965500D01*
X78478326Y-30017826D01*
X78426001Y-30039500D01*
X78368480Y-30039500D01*
X78274695Y-30054353D01*
X78274693Y-30054354D01*
X78178689Y-30103272D01*
X78122226Y-30107716D01*
X78111498Y-30103272D01*
X78025304Y-30059354D01*
X78025303Y-30059353D01*
X77931520Y-30044500D01*
X77794000Y-30044500D01*
X77750894Y-30030648D01*
X77660894Y-29966148D01*
X77657541Y-29960756D01*
X77651674Y-29958326D01*
X77642980Y-29937338D01*
X77630988Y-29918051D01*
X77632430Y-29911867D01*
X77630000Y-29906000D01*
X77630000Y-29274000D01*
X77651674Y-29221674D01*
X77704000Y-29200000D01*
X77853789Y-29200000D01*
X77865492Y-29195151D01*
X77917821Y-29216820D01*
G37*
%TD.AperFunction*%
%TA.AperFunction,Conductor*%
G36*
X69200000Y-23269863D02*
G01*
X69241682Y-23261572D01*
X69241693Y-23261569D01*
X69423675Y-23186190D01*
X69587459Y-23076753D01*
X69726753Y-22937459D01*
X69829555Y-22783605D01*
X69876647Y-22752139D01*
X69910237Y-22753239D01*
X69993314Y-22775499D01*
X69993315Y-22775500D01*
X70136533Y-22775500D01*
X70136533Y-22778142D01*
X70183027Y-22790580D01*
X70211365Y-22839617D01*
X70212002Y-22849306D01*
X70212002Y-23916766D01*
X70214856Y-23947199D01*
X70214856Y-23947201D01*
X70214857Y-23947204D01*
X70259708Y-24075381D01*
X70259709Y-24075383D01*
X70340348Y-24184646D01*
X70340352Y-24184650D01*
X70449620Y-24265293D01*
X70509488Y-24286241D01*
X70537373Y-24303762D01*
X71126934Y-24893323D01*
X71126939Y-24893329D01*
X71129523Y-24895913D01*
X71204090Y-24970480D01*
X71210187Y-24974000D01*
X71249925Y-24996943D01*
X71284404Y-25041877D01*
X71277011Y-25098029D01*
X71265251Y-25113355D01*
X70977741Y-25400865D01*
X70949856Y-25418386D01*
X70863711Y-25448530D01*
X70863709Y-25448531D01*
X70751415Y-25531407D01*
X70751411Y-25531411D01*
X70672607Y-25638189D01*
X70668529Y-25643714D01*
X70668528Y-25643715D01*
X70622434Y-25775445D01*
X70622433Y-25775449D01*
X70622433Y-25775451D01*
X70619500Y-25806728D01*
X70619500Y-27218272D01*
X70622433Y-27249549D01*
X70622433Y-27249551D01*
X70622434Y-27249554D01*
X70668528Y-27381284D01*
X70668529Y-27381285D01*
X70668530Y-27381286D01*
X70668531Y-27381289D01*
X70751411Y-27493589D01*
X70863711Y-27576469D01*
X70863714Y-27576470D01*
X70863715Y-27576471D01*
X70995445Y-27622565D01*
X70995451Y-27622567D01*
X71026728Y-27625500D01*
X71026734Y-27625500D01*
X71463266Y-27625500D01*
X71463272Y-27625500D01*
X71494549Y-27622567D01*
X71591575Y-27588616D01*
X71626284Y-27576471D01*
X71626284Y-27576470D01*
X71626289Y-27576469D01*
X71738589Y-27493589D01*
X71820461Y-27382654D01*
X71868970Y-27353425D01*
X71923942Y-27367057D01*
X71939536Y-27382651D01*
X72021411Y-27493589D01*
X72133711Y-27576469D01*
X72133714Y-27576470D01*
X72133715Y-27576471D01*
X72265445Y-27622565D01*
X72265451Y-27622567D01*
X72296728Y-27625500D01*
X72296734Y-27625500D01*
X72733266Y-27625500D01*
X72733272Y-27625500D01*
X72764549Y-27622567D01*
X72861575Y-27588616D01*
X72896284Y-27576471D01*
X72896284Y-27576470D01*
X72896289Y-27576469D01*
X73008589Y-27493589D01*
X73090461Y-27382653D01*
X73138969Y-27353425D01*
X73193941Y-27367057D01*
X73209539Y-27382655D01*
X73240848Y-27425078D01*
X73291411Y-27493589D01*
X73291413Y-27493591D01*
X73354441Y-27540106D01*
X73383673Y-27588616D01*
X73384500Y-27599647D01*
X73384500Y-28918455D01*
X73362826Y-28970781D01*
X72406781Y-29926826D01*
X72354455Y-29948500D01*
X69794000Y-29948500D01*
X69744511Y-29929516D01*
X69635010Y-29831016D01*
X69634108Y-29829127D01*
X69632173Y-29828326D01*
X69622025Y-29803828D01*
X69610602Y-29779908D01*
X69611300Y-29777933D01*
X69610499Y-29776000D01*
X69610499Y-29718480D01*
X69599654Y-29650000D01*
X69920000Y-29650000D01*
X70442011Y-29650000D01*
X70442011Y-29649999D01*
X70434556Y-29593369D01*
X70407611Y-29528319D01*
X70407611Y-29471681D01*
X70434556Y-29406630D01*
X70442012Y-29350000D01*
X69920000Y-29350000D01*
X69920000Y-29650000D01*
X69599654Y-29650000D01*
X69595646Y-29624695D01*
X69595645Y-29624694D01*
X69588882Y-29611421D01*
X69549226Y-29533593D01*
X69544783Y-29477132D01*
X69549220Y-29466419D01*
X69595646Y-29375304D01*
X69610500Y-29281519D01*
X69610499Y-29018482D01*
X69609312Y-29010990D01*
X69599653Y-28950000D01*
X69920000Y-28950000D01*
X70442011Y-28950000D01*
X70442011Y-28949999D01*
X70434556Y-28893369D01*
X70407611Y-28828319D01*
X70407611Y-28771681D01*
X70434556Y-28706630D01*
X70442012Y-28650000D01*
X69920000Y-28650000D01*
X69920000Y-28950000D01*
X69599653Y-28950000D01*
X69595646Y-28924695D01*
X69595645Y-28924694D01*
X69579684Y-28893369D01*
X69549226Y-28833593D01*
X69544783Y-28777132D01*
X69549220Y-28766419D01*
X69595646Y-28675304D01*
X69610500Y-28581519D01*
X69610499Y-28318482D01*
X69610160Y-28316344D01*
X69599653Y-28250000D01*
X69920000Y-28250000D01*
X70442011Y-28250000D01*
X70442011Y-28249999D01*
X70434556Y-28193369D01*
X70407611Y-28128319D01*
X70407611Y-28071681D01*
X70434556Y-28006630D01*
X70442012Y-27950000D01*
X69920000Y-27950000D01*
X69920000Y-28250000D01*
X69599653Y-28250000D01*
X69595646Y-28224695D01*
X69595645Y-28224694D01*
X69572816Y-28179890D01*
X69549226Y-28133593D01*
X69544783Y-28077132D01*
X69549220Y-28066419D01*
X69595646Y-27975304D01*
X69610500Y-27881519D01*
X69610499Y-27618482D01*
X69609995Y-27615302D01*
X69599653Y-27550000D01*
X69920000Y-27550000D01*
X70442011Y-27550000D01*
X70442011Y-27549999D01*
X70434556Y-27493371D01*
X70434555Y-27493367D01*
X70374099Y-27347412D01*
X70277924Y-27222075D01*
X70152587Y-27125900D01*
X70006630Y-27065443D01*
X69920000Y-27054037D01*
X69920000Y-27550000D01*
X69599653Y-27550000D01*
X69595646Y-27524695D01*
X69595645Y-27524693D01*
X69557332Y-27449501D01*
X69538050Y-27411658D01*
X69538049Y-27411657D01*
X69534626Y-27406945D01*
X69537389Y-27404937D01*
X69520000Y-27362956D01*
X69520000Y-27054039D01*
X69433370Y-27065443D01*
X69433367Y-27065444D01*
X69287412Y-27125900D01*
X69188885Y-27201502D01*
X69134177Y-27216160D01*
X69091511Y-27195119D01*
X69054827Y-27158435D01*
X68924913Y-27028520D01*
X68924910Y-27028518D01*
X68924909Y-27028517D01*
X68833592Y-26975795D01*
X68833588Y-26975793D01*
X68811964Y-26969999D01*
X68731727Y-26948500D01*
X67828274Y-26948500D01*
X67828272Y-26948500D01*
X67726418Y-26975791D01*
X67726413Y-26975793D01*
X67701997Y-26989889D01*
X67645844Y-26997279D01*
X67628001Y-26989888D01*
X67603588Y-26975793D01*
X67501727Y-26948500D01*
X67074000Y-26948500D01*
X67021674Y-26926826D01*
X67000000Y-26874500D01*
X67000000Y-26700000D01*
X66274000Y-26700000D01*
X66221674Y-26678326D01*
X66200000Y-26626000D01*
X66200000Y-26274000D01*
X66221674Y-26221674D01*
X66274000Y-26200000D01*
X67000000Y-26200000D01*
X67000000Y-26174500D01*
X67021674Y-26122174D01*
X67074000Y-26100500D01*
X67365107Y-26100500D01*
X67417433Y-26122174D01*
X67429192Y-26137499D01*
X67469500Y-26207314D01*
X67562686Y-26300500D01*
X67676814Y-26366392D01*
X67804105Y-26400499D01*
X67804106Y-26400500D01*
X67804108Y-26400500D01*
X67935891Y-26400500D01*
X67935892Y-26400500D01*
X68063186Y-26366392D01*
X68102127Y-26343908D01*
X68158279Y-26336515D01*
X68191454Y-26355668D01*
X68312539Y-26476752D01*
X68312540Y-26476753D01*
X68476324Y-26586190D01*
X68658306Y-26661569D01*
X68658317Y-26661572D01*
X68699999Y-26669863D01*
X68700000Y-26669863D01*
X68700000Y-25866988D01*
X68709940Y-25884205D01*
X68765795Y-25940060D01*
X68834204Y-25979556D01*
X68910504Y-26000000D01*
X68989496Y-26000000D01*
X69065796Y-25979556D01*
X69134205Y-25940060D01*
X69190060Y-25884205D01*
X69200000Y-25866988D01*
X69200000Y-26669863D01*
X69241682Y-26661572D01*
X69241693Y-26661569D01*
X69423675Y-26586190D01*
X69587459Y-26476753D01*
X69726753Y-26337459D01*
X69836190Y-26173675D01*
X69911569Y-25991693D01*
X69911572Y-25991682D01*
X69950000Y-25798490D01*
X69950000Y-25550000D01*
X69250000Y-25550000D01*
X69250000Y-25050000D01*
X69950000Y-25050000D01*
X69950000Y-24801509D01*
X69911572Y-24608317D01*
X69911569Y-24608306D01*
X69836190Y-24426324D01*
X69726753Y-24262540D01*
X69587459Y-24123246D01*
X69423675Y-24013809D01*
X69241691Y-23938429D01*
X69241684Y-23938427D01*
X69200000Y-23930136D01*
X69200000Y-24733011D01*
X69190060Y-24715795D01*
X69134205Y-24659940D01*
X69065796Y-24620444D01*
X68989496Y-24600000D01*
X68910504Y-24600000D01*
X68834204Y-24620444D01*
X68765795Y-24659940D01*
X68709940Y-24715795D01*
X68700000Y-24733011D01*
X68700000Y-23930136D01*
X68699999Y-23930136D01*
X68658315Y-23938427D01*
X68658308Y-23938429D01*
X68472963Y-24015202D01*
X68472032Y-24012955D01*
X68422827Y-24017667D01*
X68379144Y-23981619D01*
X68370500Y-23946912D01*
X68370500Y-23253087D01*
X68392174Y-23200761D01*
X68444500Y-23179087D01*
X68472415Y-23186119D01*
X68472963Y-23184798D01*
X68658306Y-23261569D01*
X68658317Y-23261572D01*
X68699999Y-23269863D01*
X68700000Y-23269863D01*
X68700000Y-22466988D01*
X68709940Y-22484205D01*
X68765795Y-22540060D01*
X68834204Y-22579556D01*
X68910504Y-22600000D01*
X68989496Y-22600000D01*
X69065796Y-22579556D01*
X69134205Y-22540060D01*
X69190060Y-22484205D01*
X69200000Y-22466988D01*
X69200000Y-23269863D01*
G37*
%TD.AperFunction*%
%TA.AperFunction,Conductor*%
G36*
X68501453Y-27760250D02*
G01*
X68527511Y-27770861D01*
X68527604Y-27771082D01*
X68527826Y-27771174D01*
X68538590Y-27797160D01*
X68549499Y-27823056D01*
X68549500Y-27823287D01*
X68549501Y-27881518D01*
X68549863Y-27883808D01*
X68549895Y-27889007D01*
X68540148Y-27912942D01*
X68532162Y-27937515D01*
X68529613Y-27938813D01*
X68528535Y-27941462D01*
X68528223Y-27941776D01*
X68520000Y-27949999D01*
X68520000Y-28250000D01*
X68528221Y-28258221D01*
X68549895Y-28310547D01*
X68549668Y-28316344D01*
X68549500Y-28318481D01*
X68549500Y-28581527D01*
X68549668Y-28583652D01*
X68549500Y-28584165D01*
X68549501Y-28584426D01*
X68549416Y-28584426D01*
X68532162Y-28637515D01*
X68528223Y-28641776D01*
X68520000Y-28649999D01*
X68520000Y-28950000D01*
X68528221Y-28958221D01*
X68528312Y-28958442D01*
X68528533Y-28958535D01*
X68529901Y-28962277D01*
X68549895Y-29010547D01*
X68549894Y-29010990D01*
X68549862Y-29016190D01*
X68549500Y-29018481D01*
X68549500Y-29076776D01*
X68549499Y-29076943D01*
X68538573Y-29102879D01*
X68527826Y-29128826D01*
X68527604Y-29128917D01*
X68527512Y-29129138D01*
X68501467Y-29139743D01*
X68475500Y-29150500D01*
X68351152Y-29150500D01*
X68349945Y-29150000D01*
X68284499Y-29150000D01*
X68232173Y-29128326D01*
X68210499Y-29076000D01*
X68210499Y-29018480D01*
X68195646Y-28924695D01*
X68195645Y-28924694D01*
X68179684Y-28893369D01*
X68149226Y-28833593D01*
X68144783Y-28777132D01*
X68149220Y-28766419D01*
X68195646Y-28675304D01*
X68210500Y-28581519D01*
X68210499Y-28318482D01*
X68210160Y-28316344D01*
X68195646Y-28224695D01*
X68195645Y-28224694D01*
X68172816Y-28179890D01*
X68149226Y-28133593D01*
X68144783Y-28077132D01*
X68149220Y-28066419D01*
X68195646Y-27975304D01*
X68210500Y-27881519D01*
X68210500Y-27823500D01*
X68232174Y-27771174D01*
X68284500Y-27749500D01*
X68475500Y-27749500D01*
X68501453Y-27760250D01*
G37*
%TD.AperFunction*%
%TA.AperFunction,Conductor*%
G36*
X62774039Y-28019088D02*
G01*
X62775238Y-28017527D01*
X62779084Y-28020478D01*
X62779086Y-28020479D01*
X62779087Y-28020480D01*
X62823951Y-28046382D01*
X62835772Y-28053207D01*
X62868237Y-28071951D01*
X62870413Y-28073207D01*
X62870414Y-28073207D01*
X62870416Y-28073208D01*
X62913304Y-28084700D01*
X62972270Y-28100500D01*
X62972271Y-28100501D01*
X62972273Y-28100501D01*
X63082257Y-28100501D01*
X63082273Y-28100500D01*
X63406000Y-28100500D01*
X63458326Y-28122174D01*
X63480000Y-28174500D01*
X63480000Y-28326000D01*
X63458326Y-28378326D01*
X63406000Y-28400000D01*
X62594000Y-28400000D01*
X62541674Y-28378326D01*
X62520000Y-28326000D01*
X62520000Y-28074000D01*
X62541674Y-28021674D01*
X62594000Y-28000000D01*
X62727955Y-28000000D01*
X62774039Y-28019088D01*
G37*
%TD.AperFunction*%
%TA.AperFunction,Conductor*%
G36*
X56750000Y-25550000D02*
G01*
X56050000Y-25550000D01*
X56050000Y-25798490D01*
X56088427Y-25991682D01*
X56088430Y-25991693D01*
X56163809Y-26173675D01*
X56273246Y-26337459D01*
X56412540Y-26476753D01*
X56576324Y-26586190D01*
X56758306Y-26661569D01*
X56758317Y-26661572D01*
X56799999Y-26669863D01*
X56800000Y-26669863D01*
X56800000Y-25866988D01*
X56809940Y-25884205D01*
X56865795Y-25940060D01*
X56934204Y-25979556D01*
X57010504Y-26000000D01*
X57089496Y-26000000D01*
X57165796Y-25979556D01*
X57234205Y-25940060D01*
X57290060Y-25884205D01*
X57300000Y-25866988D01*
X57300000Y-26669863D01*
X57341682Y-26661572D01*
X57341693Y-26661569D01*
X57523675Y-26586190D01*
X57687459Y-26476753D01*
X57687460Y-26476752D01*
X57808545Y-26355668D01*
X57860871Y-26333994D01*
X57897870Y-26343907D01*
X57936814Y-26366392D01*
X58064105Y-26400499D01*
X58064106Y-26400500D01*
X58064108Y-26400500D01*
X58195894Y-26400500D01*
X58195894Y-26400499D01*
X58323186Y-26366392D01*
X58437314Y-26300500D01*
X58530500Y-26207314D01*
X58570807Y-26137499D01*
X58615740Y-26103021D01*
X58634893Y-26100500D01*
X58926000Y-26100500D01*
X58978326Y-26122174D01*
X59000000Y-26174500D01*
X59000000Y-26200000D01*
X59726000Y-26200000D01*
X59778326Y-26221674D01*
X59800000Y-26274000D01*
X59800000Y-26626000D01*
X59778326Y-26678326D01*
X59726000Y-26700000D01*
X59000000Y-26700000D01*
X59000000Y-27047828D01*
X59006897Y-27111978D01*
X59003923Y-27112297D01*
X58996297Y-27159077D01*
X58978426Y-27178834D01*
X58922077Y-27222073D01*
X58922070Y-27222080D01*
X58825902Y-27347408D01*
X58825900Y-27347412D01*
X58765443Y-27493369D01*
X58757987Y-27549999D01*
X58757988Y-27550000D01*
X59406000Y-27550000D01*
X59458326Y-27571674D01*
X59480000Y-27624000D01*
X59480000Y-27876000D01*
X59458326Y-27928326D01*
X59406000Y-27950000D01*
X58757988Y-27950000D01*
X58743924Y-27966036D01*
X58693128Y-27991086D01*
X58639497Y-27972879D01*
X58635963Y-27969570D01*
X58347174Y-27680781D01*
X58328348Y-27635332D01*
X58326133Y-27635624D01*
X58325500Y-27630821D01*
X58325500Y-27630817D01*
X58289688Y-27497164D01*
X58220505Y-27377335D01*
X58122665Y-27279495D01*
X58002836Y-27210312D01*
X58002831Y-27210310D01*
X57869185Y-27174500D01*
X57869183Y-27174500D01*
X57730817Y-27174500D01*
X57730815Y-27174500D01*
X57597168Y-27210310D01*
X57597163Y-27210312D01*
X57477334Y-27279495D01*
X57379495Y-27377334D01*
X57310312Y-27497163D01*
X57310310Y-27497168D01*
X57274500Y-27630814D01*
X57274500Y-27750500D01*
X57252826Y-27802826D01*
X57200500Y-27824500D01*
X57080815Y-27824500D01*
X56947168Y-27860310D01*
X56947163Y-27860312D01*
X56827334Y-27929495D01*
X56729495Y-28027334D01*
X56660312Y-28147163D01*
X56660310Y-28147168D01*
X56640030Y-28222855D01*
X56605552Y-28267788D01*
X56549399Y-28275180D01*
X56524610Y-28263243D01*
X56502880Y-28247205D01*
X56374704Y-28202355D01*
X56374705Y-28202355D01*
X56374700Y-28202354D01*
X56374699Y-28202354D01*
X56344266Y-28199500D01*
X55210734Y-28199500D01*
X55180301Y-28202354D01*
X55180299Y-28202354D01*
X55180295Y-28202355D01*
X55052119Y-28247205D01*
X54977322Y-28302408D01*
X54922350Y-28316040D01*
X54905063Y-28311235D01*
X54902831Y-28310310D01*
X54769185Y-28274500D01*
X54769183Y-28274500D01*
X54630817Y-28274500D01*
X54507205Y-28307621D01*
X54451053Y-28300228D01*
X54416574Y-28255294D01*
X54418205Y-28211702D01*
X54462646Y-28084700D01*
X54465500Y-28054267D01*
X54465500Y-27645735D01*
X54462646Y-27615302D01*
X54449058Y-27576471D01*
X54417793Y-27487119D01*
X54417792Y-27487117D01*
X54337153Y-27377854D01*
X54337146Y-27377847D01*
X54227883Y-27297208D01*
X54227881Y-27297207D01*
X54099556Y-27252304D01*
X54069002Y-27224999D01*
X54549997Y-27224999D01*
X54598304Y-27224999D01*
X54598309Y-27224998D01*
X54697605Y-27214855D01*
X54858479Y-27161547D01*
X55002728Y-27072573D01*
X55122570Y-26952731D01*
X55211544Y-26808482D01*
X55264852Y-26647608D01*
X55274996Y-26548311D01*
X55274997Y-26548309D01*
X55274997Y-26525000D01*
X54549997Y-26525000D01*
X54549997Y-27224999D01*
X54069002Y-27224999D01*
X54057325Y-27214564D01*
X54049997Y-27182457D01*
X54049997Y-26525000D01*
X53318997Y-26525000D01*
X53266671Y-26503326D01*
X53244997Y-26451000D01*
X53244997Y-26320000D01*
X53150000Y-26320000D01*
X53150000Y-26842011D01*
X53206628Y-26834556D01*
X53206629Y-26834556D01*
X53306039Y-26793379D01*
X53362676Y-26793379D01*
X53397341Y-26822898D01*
X53477423Y-26952731D01*
X53597265Y-27072573D01*
X53662026Y-27112518D01*
X53695183Y-27158435D01*
X53686161Y-27214349D01*
X53640244Y-27247506D01*
X53623178Y-27249501D01*
X52935734Y-27249501D01*
X52905301Y-27252355D01*
X52905299Y-27252355D01*
X52905295Y-27252356D01*
X52777118Y-27297207D01*
X52777116Y-27297208D01*
X52667853Y-27377847D01*
X52667849Y-27377851D01*
X52637153Y-27419444D01*
X52632166Y-27422448D01*
X52629939Y-27427827D01*
X52608507Y-27436704D01*
X52588642Y-27448674D01*
X52577613Y-27449501D01*
X52577219Y-27449501D01*
X52524893Y-27427827D01*
X52503219Y-27375501D01*
X52511284Y-27341907D01*
X52516428Y-27331811D01*
X52525653Y-27313706D01*
X52545500Y-27188400D01*
X52545500Y-26970000D01*
X52532830Y-26890006D01*
X52546052Y-26834934D01*
X52594342Y-26805341D01*
X52634237Y-26810063D01*
X52693367Y-26834555D01*
X52693371Y-26834556D01*
X52749999Y-26842011D01*
X52750000Y-26842011D01*
X52750000Y-26320000D01*
X52254040Y-26320000D01*
X52265443Y-26406628D01*
X52265444Y-26406632D01*
X52293667Y-26474769D01*
X52293667Y-26531406D01*
X52253618Y-26571454D01*
X52213724Y-26576176D01*
X52140002Y-26564500D01*
X52140000Y-26564500D01*
X51024000Y-26564500D01*
X50971674Y-26542826D01*
X50950000Y-26490500D01*
X50950000Y-26460000D01*
X50824000Y-26460000D01*
X50771674Y-26438326D01*
X50750000Y-26386000D01*
X50750000Y-26260000D01*
X51150000Y-26260000D01*
X51645960Y-26260000D01*
X51645960Y-26259999D01*
X51634556Y-26173371D01*
X51634555Y-26173367D01*
X51574099Y-26027412D01*
X51477924Y-25902075D01*
X51352587Y-25805900D01*
X51206630Y-25745443D01*
X51150000Y-25737987D01*
X51150000Y-26260000D01*
X50750000Y-26260000D01*
X50750000Y-25737987D01*
X50749999Y-25737987D01*
X50693369Y-25745443D01*
X50592588Y-25787188D01*
X50565121Y-25787188D01*
X50537657Y-25787870D01*
X50536958Y-25787188D01*
X50535951Y-25787188D01*
X50496627Y-25748828D01*
X50496264Y-25748011D01*
X50450775Y-25638189D01*
X50441171Y-25623815D01*
X50438593Y-25618004D01*
X50438035Y-25595572D01*
X50433657Y-25573563D01*
X50437352Y-25568032D01*
X50437187Y-25561384D01*
X50452654Y-25545128D01*
X50465121Y-25526470D01*
X50471857Y-25524947D01*
X50476229Y-25520354D01*
X50494161Y-25519908D01*
X50516905Y-25514770D01*
X50519989Y-25515219D01*
X50519991Y-25515220D01*
X50590551Y-25525500D01*
X50784448Y-25525499D01*
X50855004Y-25515221D01*
X50855005Y-25515220D01*
X50855009Y-25515220D01*
X50904999Y-25490780D01*
X50961525Y-25487270D01*
X50969993Y-25490777D01*
X51019991Y-25515220D01*
X51090551Y-25525500D01*
X51284448Y-25525499D01*
X51355004Y-25515221D01*
X51355005Y-25515220D01*
X51355009Y-25515220D01*
X51404999Y-25490780D01*
X51461525Y-25487270D01*
X51469993Y-25490777D01*
X51519991Y-25515220D01*
X51590551Y-25525500D01*
X51784448Y-25525499D01*
X51855009Y-25515220D01*
X51876811Y-25504560D01*
X51933338Y-25501048D01*
X51959461Y-25516623D01*
X52064551Y-25613471D01*
X52241295Y-25776353D01*
X52265085Y-25827751D01*
X52264514Y-25840427D01*
X52254038Y-25920000D01*
X52370968Y-25920000D01*
X52417869Y-25936761D01*
X52424559Y-25942243D01*
X52431650Y-25948054D01*
X52431651Y-25948054D01*
X52431653Y-25948056D01*
X52544694Y-26005653D01*
X52619877Y-26017561D01*
X52669998Y-26025500D01*
X52670000Y-26025500D01*
X53643015Y-26025500D01*
X53643018Y-26025500D01*
X53668684Y-26024687D01*
X53678796Y-26022421D01*
X53699348Y-26025996D01*
X53699348Y-26025000D01*
X55274996Y-26025000D01*
X55274996Y-26001693D01*
X55274995Y-26001687D01*
X55264852Y-25902391D01*
X55211544Y-25741517D01*
X55122570Y-25597268D01*
X55002728Y-25477426D01*
X54940126Y-25438813D01*
X54934889Y-25431561D01*
X54926628Y-25428136D01*
X54918860Y-25409364D01*
X54906969Y-25392896D01*
X54908393Y-25384066D01*
X54904974Y-25375802D01*
X54912755Y-25357037D01*
X54915991Y-25336982D01*
X54926668Y-25323484D01*
X54927999Y-25322154D01*
X54980305Y-25300500D01*
X55527772Y-25300500D01*
X55546922Y-25303020D01*
X55630817Y-25325500D01*
X55630818Y-25325500D01*
X55769185Y-25325500D01*
X55769185Y-25325499D01*
X55902836Y-25289688D01*
X56022665Y-25220505D01*
X56120505Y-25122665D01*
X56141096Y-25086999D01*
X56186029Y-25052522D01*
X56205182Y-25050000D01*
X56750000Y-25050000D01*
X56750000Y-25550000D01*
G37*
%TD.AperFunction*%
%TA.AperFunction,Conductor*%
G36*
X57300000Y-23269863D02*
G01*
X57341682Y-23261572D01*
X57341693Y-23261569D01*
X57527037Y-23184798D01*
X57528012Y-23187152D01*
X57576793Y-23182217D01*
X57620669Y-23218030D01*
X57629500Y-23253087D01*
X57629500Y-23946912D01*
X57607826Y-23999238D01*
X57555500Y-24020912D01*
X57527554Y-24013952D01*
X57527037Y-24015202D01*
X57341691Y-23938429D01*
X57341684Y-23938427D01*
X57300000Y-23930136D01*
X57300000Y-24733011D01*
X57290060Y-24715795D01*
X57234205Y-24659940D01*
X57165796Y-24620444D01*
X57089496Y-24600000D01*
X57010504Y-24600000D01*
X56934204Y-24620444D01*
X56865795Y-24659940D01*
X56809940Y-24715795D01*
X56800000Y-24733011D01*
X56800000Y-23930136D01*
X56799999Y-23930136D01*
X56758315Y-23938427D01*
X56758308Y-23938429D01*
X56607818Y-24000764D01*
X56551181Y-24000764D01*
X56511133Y-23960715D01*
X56505500Y-23932397D01*
X56505500Y-23267602D01*
X56527174Y-23215276D01*
X56579500Y-23193602D01*
X56607819Y-23199235D01*
X56758310Y-23261570D01*
X56758317Y-23261572D01*
X56799999Y-23269863D01*
X56800000Y-23269863D01*
X56800000Y-22466988D01*
X56809940Y-22484205D01*
X56865795Y-22540060D01*
X56934204Y-22579556D01*
X57010504Y-22600000D01*
X57089496Y-22600000D01*
X57165796Y-22579556D01*
X57234205Y-22540060D01*
X57290060Y-22484205D01*
X57300000Y-22466988D01*
X57300000Y-23269863D01*
G37*
%TD.AperFunction*%
%TA.AperFunction,Conductor*%
G36*
X51469993Y-22615777D02*
G01*
X51519991Y-22640220D01*
X51590551Y-22650500D01*
X51658030Y-22650499D01*
X51710355Y-22672172D01*
X51716739Y-22679452D01*
X51723818Y-22688678D01*
X51723822Y-22688682D01*
X51841322Y-22778842D01*
X51978158Y-22835522D01*
X52083332Y-22849368D01*
X52132381Y-22877686D01*
X52147040Y-22932394D01*
X52144554Y-22943387D01*
X52131203Y-23027683D01*
X52124500Y-23070000D01*
X52124500Y-23630000D01*
X52144347Y-23755306D01*
X52145964Y-23758481D01*
X52147280Y-23767509D01*
X52172420Y-23818936D01*
X52173068Y-23820420D01*
X52173564Y-23847245D01*
X52175227Y-23874028D01*
X52174110Y-23876724D01*
X52174116Y-23877048D01*
X52173870Y-23877302D01*
X52171719Y-23882498D01*
X52147280Y-23932490D01*
X52139048Y-23988992D01*
X52110056Y-24037646D01*
X52087549Y-24049060D01*
X52082109Y-24050730D01*
X52019991Y-24059780D01*
X51964786Y-24086767D01*
X51959228Y-24088475D01*
X51936379Y-24086304D01*
X51913471Y-24087727D01*
X51905001Y-24084218D01*
X51855014Y-24059781D01*
X51855009Y-24059780D01*
X51822275Y-24055011D01*
X51784449Y-24049500D01*
X51784448Y-24049500D01*
X51590551Y-24049500D01*
X51519995Y-24059778D01*
X51519986Y-24059781D01*
X51469999Y-24084218D01*
X51413471Y-24087727D01*
X51405001Y-24084218D01*
X51355014Y-24059781D01*
X51355009Y-24059780D01*
X51322275Y-24055011D01*
X51284449Y-24049500D01*
X51284448Y-24049500D01*
X51090551Y-24049500D01*
X51019995Y-24059778D01*
X51019986Y-24059781D01*
X50969999Y-24084218D01*
X50915772Y-24088475D01*
X50910213Y-24086767D01*
X50855009Y-24059780D01*
X50792886Y-24050729D01*
X50787449Y-24049059D01*
X50769670Y-24034364D01*
X50749853Y-24022556D01*
X50746974Y-24015605D01*
X50743793Y-24012976D01*
X50743170Y-24006421D01*
X50735950Y-23988987D01*
X50727721Y-23932496D01*
X50727720Y-23932493D01*
X50727720Y-23932491D01*
X50703279Y-23882498D01*
X50699770Y-23825973D01*
X50703281Y-23817498D01*
X50727719Y-23767511D01*
X50727718Y-23767511D01*
X50727720Y-23767509D01*
X50738000Y-23696949D01*
X50737999Y-23672704D01*
X50738910Y-23661125D01*
X50745500Y-23619526D01*
X50745500Y-23079999D01*
X50738910Y-23038394D01*
X50738403Y-23034537D01*
X50737999Y-23030685D01*
X50737999Y-23003052D01*
X50727720Y-22932491D01*
X50727692Y-22932434D01*
X50727488Y-22930486D01*
X50735143Y-22904661D01*
X50741761Y-22878530D01*
X50743132Y-22877713D01*
X50743585Y-22876185D01*
X50767257Y-22863338D01*
X50790416Y-22849539D01*
X50791426Y-22849399D01*
X50896840Y-22835522D01*
X50896841Y-22835522D01*
X51033677Y-22778842D01*
X51151175Y-22688683D01*
X51151179Y-22688679D01*
X51158260Y-22679452D01*
X51207308Y-22651132D01*
X51216963Y-22650499D01*
X51284448Y-22650499D01*
X51337681Y-22642744D01*
X51355004Y-22640221D01*
X51355005Y-22640220D01*
X51355009Y-22640220D01*
X51404999Y-22615780D01*
X51409836Y-22615480D01*
X51413472Y-22612270D01*
X51437501Y-22613762D01*
X51461525Y-22612270D01*
X51469993Y-22615777D01*
G37*
%TD.AperFunction*%
%TD*%
M02*
