%TF.GenerationSoftware,KiCad,Pcbnew,9.0.3*%
%TF.CreationDate,2025-07-18T02:06:41-04:00*%
%TF.ProjectId,board,626f6172-642e-46b6-9963-61645f706362,rev?*%
%TF.SameCoordinates,Original*%
%TF.FileFunction,Copper,L2,Inr*%
%TF.FilePolarity,Positive*%
%FSLAX46Y46*%
G04 Gerber Fmt 4.6, Leading zero omitted, Abs format (unit mm)*
G04 Created by KiCad (PCBNEW 9.0.3) date 2025-07-18 02:06:41*
%MOMM*%
%LPD*%
G01*
G04 APERTURE LIST*
G04 Aperture macros list*
%AMRoundRect*
0 Rectangle with rounded corners*
0 $1 Rounding radius*
0 $2 $3 $4 $5 $6 $7 $8 $9 X,Y pos of 4 corners*
0 Add a 4 corners polygon primitive as box body*
4,1,4,$2,$3,$4,$5,$6,$7,$8,$9,$2,$3,0*
0 Add four circle primitives for the rounded corners*
1,1,$1+$1,$2,$3*
1,1,$1+$1,$4,$5*
1,1,$1+$1,$6,$7*
1,1,$1+$1,$8,$9*
0 Add four rect primitives between the rounded corners*
20,1,$1+$1,$2,$3,$4,$5,0*
20,1,$1+$1,$4,$5,$6,$7,0*
20,1,$1+$1,$6,$7,$8,$9,0*
20,1,$1+$1,$8,$9,$2,$3,0*%
G04 Aperture macros list end*
%TA.AperFunction,ComponentPad*%
%ADD10RoundRect,0.250000X-0.350000X-0.625000X0.350000X-0.625000X0.350000X0.625000X-0.350000X0.625000X0*%
%TD*%
%TA.AperFunction,ComponentPad*%
%ADD11O,1.200000X1.750000*%
%TD*%
%TA.AperFunction,ComponentPad*%
%ADD12R,1.700000X1.700000*%
%TD*%
%TA.AperFunction,ComponentPad*%
%ADD13C,1.700000*%
%TD*%
%TA.AperFunction,ComponentPad*%
%ADD14C,3.600000*%
%TD*%
%TA.AperFunction,ComponentPad*%
%ADD15O,1.000000X1.800000*%
%TD*%
%TA.AperFunction,ComponentPad*%
%ADD16O,1.000000X2.000000*%
%TD*%
%TA.AperFunction,ViaPad*%
%ADD17C,0.450000*%
%TD*%
%TA.AperFunction,Conductor*%
%ADD18C,0.600000*%
%TD*%
%TA.AperFunction,Conductor*%
%ADD19C,0.200000*%
%TD*%
%TA.AperFunction,Conductor*%
%ADD20C,0.400000*%
%TD*%
G04 APERTURE END LIST*
D10*
%TO.N,GND*%
%TO.C,J2*%
X42900001Y-22250000D03*
D11*
%TO.N,VBAT*%
X44900002Y-22250000D03*
%TD*%
D12*
%TO.N,Net-(J4-Pin_1)*%
%TO.C,J4*%
X42625000Y-37600000D03*
D13*
%TO.N,Net-(J4-Pin_2)*%
X45165000Y-37600000D03*
%TD*%
D14*
%TO.N,/BUTTON_L*%
%TO.C,SW1*%
X25890000Y-27160000D03*
%TO.N,GND*%
X32240000Y-24620000D03*
%TD*%
%TO.N,/BUTTON_R*%
%TO.C,SW2*%
X92490000Y-27160000D03*
%TO.N,GND*%
X98840000Y-24620000D03*
%TD*%
D15*
%TO.N,GND*%
%TO.C,J1*%
X57050000Y-25300000D03*
X68950000Y-25300000D03*
D16*
X57050000Y-21800000D03*
X68950000Y-21800000D03*
%TD*%
D17*
%TO.N,/BUTTON_R*%
X88900000Y-29200000D03*
%TO.N,/BUTTON_L*%
X23100000Y-24500000D03*
%TO.N,GND*%
X63540000Y-33200000D03*
X53500000Y-29050000D03*
X63550000Y-34280000D03*
X63000000Y-33750000D03*
X83500000Y-37140000D03*
X62450000Y-34300000D03*
X71762501Y-23350000D03*
X77490000Y-32330000D03*
X51437500Y-23850000D03*
X53850000Y-37950000D03*
X61900000Y-33750000D03*
X51940000Y-23850000D03*
X58600000Y-30750000D03*
X51940000Y-23350000D03*
X62470000Y-33210000D03*
X59800000Y-37800000D03*
X49900000Y-37850000D03*
X63000000Y-34850000D03*
X77800000Y-29935000D03*
X64100000Y-33750000D03*
X81900000Y-25000000D03*
X63000000Y-32650000D03*
X49250000Y-28950000D03*
X51942500Y-22860000D03*
X52200000Y-32800000D03*
X51440000Y-22860000D03*
X50940000Y-23850000D03*
X62520000Y-28200000D03*
X32400000Y-36400000D03*
X50942500Y-22860000D03*
X51437500Y-23350000D03*
X69720000Y-34650000D03*
X99000000Y-36500000D03*
X71250000Y-33700000D03*
X66240000Y-28300000D03*
X68320000Y-28450000D03*
X56050000Y-36250000D03*
X50940000Y-23350000D03*
X60568700Y-28878752D03*
X50000000Y-28950000D03*
%TO.N,VBUS*%
X60600000Y-26450000D03*
X70062500Y-22250000D03*
X55700000Y-24800000D03*
X65400000Y-26450000D03*
%TO.N,VSYS*%
X50800000Y-21000000D03*
X54700000Y-28800000D03*
X49830000Y-25970000D03*
X55700000Y-23900000D03*
X55700000Y-22700000D03*
X54650000Y-31880000D03*
X51510000Y-27620000D03*
X52000000Y-27100000D03*
X51500000Y-27100000D03*
X85787500Y-37150000D03*
X81850000Y-36349999D03*
X53600000Y-23325000D03*
X55700000Y-23300000D03*
X57800000Y-33250000D03*
%TO.N,3V3*%
X64510000Y-28760000D03*
X59076274Y-31226274D03*
X77800000Y-30575000D03*
X62980000Y-29250000D03*
X50730000Y-31860000D03*
X57525000Y-35175000D03*
X50840000Y-30410000D03*
X64940000Y-28340000D03*
X65340000Y-27940000D03*
X51250000Y-31860000D03*
X50975000Y-34600000D03*
X69700000Y-33900000D03*
X75050000Y-24550000D03*
X51330000Y-30410000D03*
X77830000Y-28500000D03*
X75050000Y-26500000D03*
X69080000Y-29150000D03*
%TO.N,1V1*%
X67680000Y-28450000D03*
X69080000Y-28450000D03*
X69080000Y-29850000D03*
%TO.N,/DISP_PIN_CS*%
X75700000Y-29700000D03*
X78470000Y-28500000D03*
%TO.N,/DISP_PIN_RST*%
X78500000Y-27800000D03*
X75125085Y-29710008D03*
%TO.N,Net-(J1-DN1)*%
X70812500Y-21050000D03*
X63250000Y-27250000D03*
X62250000Y-27250000D03*
%TO.N,/DISP_PIN_MOSI*%
X78500000Y-25700000D03*
X76900000Y-26950000D03*
%TO.N,/BUTTON_L*%
X62550000Y-36500000D03*
%TO.N,/BUTTON_R*%
X64650000Y-38350000D03*
%TO.N,/BUTTON_MENU*%
X74399999Y-22200000D03*
X61200000Y-38400000D03*
X78499999Y-22200000D03*
%TO.N,/AUDIO_I2S_DOUT*%
X50850000Y-37000000D03*
X56559994Y-32600000D03*
%TO.N,Net-(J1-DP1)*%
X64250000Y-27450000D03*
X72712500Y-21075000D03*
%TO.N,/AUDIO_I2S_SD*%
X55984991Y-32600000D03*
X50850000Y-36424997D03*
%TO.N,/AUDIO_I2S_LRCK*%
X49324997Y-37850000D03*
X57710000Y-32600000D03*
%TO.N,/AUDIO_I2S_BCLK*%
X50850000Y-37600000D03*
X57134997Y-32600000D03*
%TO.N,/USB_D+*%
X66151249Y-29618701D03*
X72712500Y-24300000D03*
%TO.N,/USB_D-*%
X72172500Y-24650000D03*
X65656274Y-29123726D03*
%TO.N,/DISP_REG_EN*%
X77310000Y-34970000D03*
X85787500Y-36200001D03*
%TO.N,/PWR_~{PGOOD}*%
X52100000Y-21000000D03*
X57800000Y-28350000D03*
%TO.N,/PWR_~{CHG}*%
X57800000Y-27700000D03*
X53600000Y-21000000D03*
%TO.N,/PWR_CHG_EN*%
X57150000Y-28350000D03*
X49800000Y-22000000D03*
%TO.N,Net-(D1-DIN)*%
X34100000Y-34000000D03*
X93550000Y-36400000D03*
%TO.N,Net-(D2-DIN)*%
X77750000Y-34400000D03*
X91850000Y-32550000D03*
%TO.N,VSYS_GATED*%
X53500000Y-33800000D03*
X26960000Y-32770000D03*
X59640000Y-28940000D03*
X93550000Y-33030000D03*
%TD*%
D18*
%TO.N,VSYS*%
X57800000Y-33250000D02*
X58400000Y-33850000D01*
X62350000Y-35850000D02*
X77000001Y-35850000D01*
X84349999Y-36349999D02*
X85150000Y-37150000D01*
X58400000Y-33850000D02*
X60350000Y-33850000D01*
X77000001Y-35850000D02*
X77500000Y-36349999D01*
X81850000Y-36349999D02*
X84349999Y-36349999D01*
X77500000Y-36349999D02*
X81850000Y-36349999D01*
X60350000Y-33850000D02*
X62350000Y-35850000D01*
X85150000Y-37150000D02*
X85787500Y-37150000D01*
D19*
%TO.N,/DISP_REG_EN*%
X77310000Y-34970000D02*
X84557499Y-34970000D01*
X84557499Y-34970000D02*
X85787500Y-36200001D01*
%TO.N,Net-(D1-DIN)*%
X59650000Y-34400000D02*
X53462189Y-34400000D01*
X93550000Y-37150000D02*
X92800000Y-37900000D01*
X53062189Y-34000000D02*
X47300000Y-34000000D01*
X47300000Y-34000000D02*
X46600000Y-34700000D01*
X46600000Y-34700000D02*
X35300000Y-34700000D01*
X35300000Y-34700000D02*
X34600000Y-34000000D01*
X63150000Y-37900000D02*
X59650000Y-34400000D01*
X34600000Y-34000000D02*
X34100000Y-34000000D01*
X93550000Y-36400000D02*
X93550000Y-37150000D01*
X53462189Y-34400000D02*
X53062189Y-34000000D01*
X92800000Y-37900000D02*
X63150000Y-37900000D01*
D20*
%TO.N,VSYS_GATED*%
X55430000Y-31245000D02*
X56225000Y-30450000D01*
X35500000Y-34200000D02*
X33700000Y-32400000D01*
X53500000Y-33800000D02*
X54650000Y-33800000D01*
X47100000Y-33500000D02*
X46400000Y-34200000D01*
X62650000Y-29950000D02*
X57750000Y-29950000D01*
X46400000Y-34200000D02*
X35500000Y-34200000D01*
D19*
X57250000Y-30450000D02*
X57250000Y-30385000D01*
D20*
X87940000Y-30590000D02*
X87940000Y-22290000D01*
X54650000Y-33800000D02*
X54650999Y-33800999D01*
X72230000Y-30450000D02*
X63150000Y-30450000D01*
X53200000Y-33500000D02*
X47100000Y-33500000D01*
X57750000Y-29950000D02*
X57250000Y-30450000D01*
X53500000Y-33800000D02*
X53200000Y-33500000D01*
D19*
X58695000Y-28940000D02*
X59640000Y-28940000D01*
D20*
X87940000Y-22290000D02*
X86370000Y-20720000D01*
X63150000Y-30450000D02*
X62650000Y-29950000D01*
X89150000Y-31800000D02*
X87940000Y-30590000D01*
X27330000Y-32400000D02*
X26960000Y-32770000D01*
X55430000Y-33369232D02*
X55430000Y-31245000D01*
X93550000Y-33030000D02*
X92320000Y-31800000D01*
D19*
X57250000Y-30385000D02*
X58695000Y-28940000D01*
D20*
X54650999Y-33800999D02*
X54998233Y-33800999D01*
X33700000Y-32400000D02*
X27330000Y-32400000D01*
X92320000Y-31800000D02*
X89150000Y-31800000D01*
X54998233Y-33800999D02*
X55430000Y-33369232D01*
X56225000Y-30450000D02*
X57250000Y-30450000D01*
X81960000Y-20720000D02*
X72230000Y-30450000D01*
X86370000Y-20720000D02*
X81960000Y-20720000D01*
%TD*%
%TA.AperFunction,Conductor*%
%TO.N,3V3*%
G36*
X47269881Y-20222174D02*
G01*
X47291555Y-20274500D01*
X47283518Y-20308040D01*
X47251562Y-20370887D01*
X47251560Y-20370891D01*
X47231876Y-20437924D01*
X47231875Y-20437929D01*
X47219500Y-20523997D01*
X47219500Y-27701000D01*
X47226482Y-27765941D01*
X47237687Y-27817450D01*
X47248644Y-27855653D01*
X47248645Y-27855656D01*
X47305326Y-27952573D01*
X47312034Y-27960314D01*
X47351080Y-28005375D01*
X47395813Y-28047553D01*
X47495889Y-28098439D01*
X47547565Y-28113613D01*
X47562924Y-28118123D01*
X47562925Y-28118123D01*
X47562928Y-28118124D01*
X47649000Y-28130500D01*
X51375092Y-28130500D01*
X51394244Y-28133021D01*
X51440817Y-28145500D01*
X51579183Y-28145500D01*
X51625756Y-28133021D01*
X51644908Y-28130500D01*
X52045500Y-28130500D01*
X52097826Y-28152174D01*
X52119500Y-28204500D01*
X52119500Y-28820500D01*
X52097826Y-28872826D01*
X52045500Y-28894500D01*
X51853999Y-28894500D01*
X51789058Y-28901482D01*
X51737549Y-28912687D01*
X51699346Y-28923644D01*
X51699343Y-28923645D01*
X51602426Y-28980326D01*
X51555448Y-29021033D01*
X51555447Y-29021035D01*
X51552243Y-29023810D01*
X51549622Y-29026082D01*
X51507448Y-29070811D01*
X51507446Y-29070814D01*
X51456562Y-29170887D01*
X51456560Y-29170891D01*
X51436876Y-29237924D01*
X51436875Y-29237929D01*
X51424500Y-29323997D01*
X51424500Y-30018591D01*
X51434908Y-30097656D01*
X51434910Y-30097665D01*
X51451521Y-30159656D01*
X51451525Y-30159669D01*
X51482040Y-30233338D01*
X51482045Y-30233348D01*
X51530136Y-30316646D01*
X51537528Y-30334491D01*
X51547478Y-30371624D01*
X51550000Y-30390775D01*
X51550000Y-30429219D01*
X51547478Y-30448373D01*
X51537527Y-30485507D01*
X51530136Y-30503352D01*
X51482041Y-30586657D01*
X51482039Y-30586662D01*
X51451522Y-30660336D01*
X51434910Y-30722333D01*
X51434908Y-30722342D01*
X51424500Y-30801407D01*
X51424500Y-31609108D01*
X51430368Y-31668705D01*
X51433584Y-31684872D01*
X51433585Y-31684875D01*
X51438573Y-31709959D01*
X51438541Y-31710118D01*
X51438182Y-31712294D01*
X51440874Y-31722338D01*
X51441973Y-31727054D01*
X51443247Y-31733463D01*
X51444217Y-31734815D01*
X51467478Y-31821624D01*
X51470000Y-31840777D01*
X51470000Y-31879220D01*
X51467479Y-31898372D01*
X51452017Y-31956079D01*
X51452008Y-31956090D01*
X51442687Y-31990894D01*
X51442683Y-31990910D01*
X51442484Y-31991655D01*
X51439925Y-32003390D01*
X51439843Y-32003664D01*
X51439591Y-32004922D01*
X51438473Y-32010052D01*
X51438212Y-32011239D01*
X51438213Y-32011240D01*
X51436245Y-32020271D01*
X51435378Y-32026100D01*
X51430368Y-32051292D01*
X51430368Y-32051297D01*
X51424500Y-32110890D01*
X51424500Y-32249792D01*
X51427609Y-32293258D01*
X51432633Y-32328197D01*
X51435709Y-32345887D01*
X51436229Y-32347164D01*
X51438933Y-32353809D01*
X51446738Y-32385213D01*
X51469171Y-32428136D01*
X51470500Y-32431402D01*
X51470499Y-32431403D01*
X51476982Y-32447335D01*
X51478017Y-32449879D01*
X51480459Y-32453679D01*
X51489707Y-32468070D01*
X51491500Y-32470861D01*
X51498741Y-32484714D01*
X51507835Y-32496279D01*
X51509743Y-32499247D01*
X51509743Y-32499248D01*
X51515782Y-32508645D01*
X51515799Y-32508670D01*
X51551433Y-32553458D01*
X51554097Y-32556806D01*
X51567748Y-32566409D01*
X51584614Y-32583902D01*
X51626728Y-32607902D01*
X51645922Y-32621405D01*
X51646705Y-32621854D01*
X51646876Y-32622076D01*
X51648721Y-32623374D01*
X51648319Y-32623945D01*
X51681309Y-32666690D01*
X51681364Y-32705193D01*
X51674500Y-32730812D01*
X51674500Y-32730817D01*
X51674500Y-32869183D01*
X51679364Y-32887335D01*
X51684458Y-32906348D01*
X51677065Y-32962501D01*
X51632131Y-32996979D01*
X51612979Y-32999500D01*
X47034107Y-32999500D01*
X46919692Y-33030156D01*
X46919693Y-33030157D01*
X46906814Y-33033608D01*
X46906809Y-33033610D01*
X46792685Y-33099500D01*
X46214360Y-33677826D01*
X46162034Y-33699500D01*
X44357936Y-33699500D01*
X44305610Y-33677826D01*
X44283936Y-33625500D01*
X44305610Y-33573174D01*
X44316824Y-33563971D01*
X44326790Y-33557312D01*
X44346542Y-33544114D01*
X44444114Y-33446542D01*
X44520775Y-33331811D01*
X44573580Y-33204328D01*
X44600500Y-33068993D01*
X44600500Y-32931007D01*
X44573580Y-32795672D01*
X44520775Y-32668189D01*
X44444114Y-32553458D01*
X44346542Y-32455886D01*
X44341754Y-32452687D01*
X44231808Y-32379223D01*
X44104332Y-32326421D01*
X44104322Y-32326418D01*
X44002017Y-32306069D01*
X43968993Y-32299500D01*
X43831007Y-32299500D01*
X43797983Y-32306069D01*
X43695677Y-32326418D01*
X43695667Y-32326421D01*
X43568191Y-32379223D01*
X43453461Y-32455883D01*
X43355883Y-32553461D01*
X43279223Y-32668191D01*
X43226421Y-32795667D01*
X43226418Y-32795677D01*
X43208187Y-32887334D01*
X43199500Y-32931007D01*
X43199500Y-32960907D01*
X43199500Y-33068993D01*
X43208391Y-33113694D01*
X43226418Y-33204322D01*
X43226421Y-33204332D01*
X43279223Y-33331808D01*
X43348256Y-33435124D01*
X43355886Y-33446542D01*
X43453458Y-33544114D01*
X43453461Y-33544116D01*
X43483176Y-33563971D01*
X43514642Y-33611064D01*
X43503593Y-33666612D01*
X43456500Y-33698078D01*
X43442064Y-33699500D01*
X35737966Y-33699500D01*
X35685640Y-33677826D01*
X34007314Y-31999500D01*
X33893190Y-31933610D01*
X33893181Y-31933606D01*
X33765894Y-31899500D01*
X33765892Y-31899500D01*
X30642801Y-31899500D01*
X30590475Y-31877826D01*
X30568801Y-31825500D01*
X30590475Y-31773174D01*
X30614482Y-31757133D01*
X30697507Y-31722743D01*
X30952994Y-31575238D01*
X31187042Y-31395646D01*
X31395646Y-31187042D01*
X31575238Y-30952994D01*
X31722743Y-30697507D01*
X31835639Y-30424952D01*
X31911993Y-30139993D01*
X31950500Y-29847506D01*
X31950500Y-29611420D01*
X33654499Y-29611420D01*
X33654499Y-29788579D01*
X33682213Y-29963554D01*
X33682215Y-29963565D01*
X33736955Y-30132039D01*
X33736957Y-30132043D01*
X33817383Y-30289886D01*
X33817386Y-30289892D01*
X33915321Y-30424688D01*
X33921516Y-30433214D01*
X34046785Y-30558483D01*
X34046788Y-30558485D01*
X34046789Y-30558486D01*
X34186973Y-30660336D01*
X34190109Y-30662614D01*
X34307331Y-30722342D01*
X34347955Y-30743041D01*
X34347959Y-30743043D01*
X34516433Y-30797783D01*
X34516437Y-30797783D01*
X34516444Y-30797786D01*
X34667494Y-30821710D01*
X34691419Y-30825500D01*
X34691420Y-30825500D01*
X34868579Y-30825500D01*
X34889625Y-30822166D01*
X35043554Y-30797786D01*
X35043562Y-30797783D01*
X35043564Y-30797783D01*
X35212038Y-30743043D01*
X35212038Y-30743042D01*
X35212041Y-30743042D01*
X35369889Y-30662614D01*
X35513213Y-30558483D01*
X35638482Y-30433214D01*
X35742613Y-30289890D01*
X35823041Y-30132042D01*
X35864584Y-30004185D01*
X35877782Y-29963565D01*
X35877782Y-29963563D01*
X35877785Y-29963555D01*
X35905499Y-29788579D01*
X35905499Y-29611421D01*
X35903940Y-29601582D01*
X42649500Y-29601582D01*
X42649500Y-29798417D01*
X42680290Y-29992823D01*
X42680293Y-29992836D01*
X42741113Y-30180019D01*
X42830475Y-30355404D01*
X42944918Y-30512921D01*
X42946172Y-30514646D01*
X43085354Y-30653828D01*
X43085357Y-30653830D01*
X43085358Y-30653831D01*
X43179647Y-30722336D01*
X43244595Y-30769524D01*
X43419975Y-30858884D01*
X43419977Y-30858884D01*
X43419980Y-30858886D01*
X43607163Y-30919706D01*
X43607169Y-30919707D01*
X43607174Y-30919709D01*
X43736780Y-30940236D01*
X43801582Y-30950500D01*
X43801583Y-30950500D01*
X43998418Y-30950500D01*
X44047019Y-30942802D01*
X44192826Y-30919709D01*
X44192833Y-30919706D01*
X44192836Y-30919706D01*
X44380019Y-30858886D01*
X44380019Y-30858885D01*
X44380025Y-30858884D01*
X44555405Y-30769524D01*
X44714646Y-30653828D01*
X44853828Y-30514646D01*
X44969524Y-30355405D01*
X45058884Y-30180025D01*
X45085645Y-30097663D01*
X45119706Y-29992836D01*
X45119706Y-29992833D01*
X45119709Y-29992826D01*
X45150500Y-29798417D01*
X45150500Y-29601583D01*
X45142253Y-29549516D01*
X45131814Y-29483606D01*
X45119709Y-29407174D01*
X45119707Y-29407169D01*
X45119706Y-29407163D01*
X45058886Y-29219980D01*
X45058884Y-29219977D01*
X45058884Y-29219975D01*
X44994290Y-29093201D01*
X44969524Y-29044594D01*
X44879649Y-28920894D01*
X44853828Y-28885354D01*
X44849288Y-28880814D01*
X48724500Y-28880814D01*
X48724500Y-29019185D01*
X48760310Y-29152831D01*
X48760312Y-29152836D01*
X48829495Y-29272665D01*
X48927335Y-29370505D01*
X49047164Y-29439688D01*
X49180814Y-29475499D01*
X49180815Y-29475500D01*
X49180817Y-29475500D01*
X49319185Y-29475500D01*
X49319185Y-29475499D01*
X49452836Y-29439688D01*
X49572665Y-29370505D01*
X49572674Y-29370496D01*
X49572680Y-29370493D01*
X49576514Y-29367552D01*
X49577302Y-29368579D01*
X49625000Y-29348822D01*
X49672697Y-29368579D01*
X49673486Y-29367552D01*
X49677319Y-29370493D01*
X49677326Y-29370496D01*
X49677335Y-29370505D01*
X49797164Y-29439688D01*
X49930814Y-29475499D01*
X49930815Y-29475500D01*
X49930817Y-29475500D01*
X50069185Y-29475500D01*
X50069185Y-29475499D01*
X50202836Y-29439688D01*
X50322665Y-29370505D01*
X50420505Y-29272665D01*
X50489688Y-29152836D01*
X50525499Y-29019185D01*
X50525500Y-29019185D01*
X50525500Y-28880815D01*
X50525499Y-28880814D01*
X50522736Y-28870504D01*
X50489688Y-28747164D01*
X50420505Y-28627335D01*
X50322665Y-28529495D01*
X50202836Y-28460312D01*
X50202831Y-28460310D01*
X50069185Y-28424500D01*
X50069183Y-28424500D01*
X49930817Y-28424500D01*
X49930815Y-28424500D01*
X49797168Y-28460310D01*
X49797163Y-28460312D01*
X49677334Y-28529495D01*
X49677326Y-28529504D01*
X49677319Y-28529506D01*
X49673486Y-28532448D01*
X49672697Y-28531420D01*
X49625000Y-28551178D01*
X49577302Y-28531420D01*
X49576514Y-28532448D01*
X49572680Y-28529506D01*
X49572674Y-28529504D01*
X49572665Y-28529495D01*
X49452836Y-28460312D01*
X49452831Y-28460310D01*
X49319185Y-28424500D01*
X49319183Y-28424500D01*
X49180817Y-28424500D01*
X49180815Y-28424500D01*
X49047168Y-28460310D01*
X49047163Y-28460312D01*
X48927334Y-28529495D01*
X48829495Y-28627334D01*
X48760312Y-28747163D01*
X48760310Y-28747168D01*
X48724500Y-28880814D01*
X44849288Y-28880814D01*
X44714646Y-28746172D01*
X44714643Y-28746169D01*
X44714641Y-28746168D01*
X44555404Y-28630475D01*
X44380019Y-28541113D01*
X44192836Y-28480293D01*
X44192823Y-28480290D01*
X43998418Y-28449500D01*
X43998417Y-28449500D01*
X43801583Y-28449500D01*
X43801582Y-28449500D01*
X43607176Y-28480290D01*
X43607163Y-28480293D01*
X43419980Y-28541113D01*
X43244595Y-28630475D01*
X43085358Y-28746168D01*
X42946168Y-28885358D01*
X42830475Y-29044595D01*
X42741113Y-29219980D01*
X42680293Y-29407163D01*
X42680290Y-29407176D01*
X42649500Y-29601582D01*
X35903940Y-29601582D01*
X35901840Y-29588322D01*
X35883971Y-29475500D01*
X35877785Y-29436445D01*
X35877783Y-29436440D01*
X35877782Y-29436434D01*
X35823042Y-29267960D01*
X35823040Y-29267956D01*
X35798592Y-29219975D01*
X35742613Y-29110110D01*
X35732425Y-29096088D01*
X35638485Y-28966790D01*
X35638484Y-28966789D01*
X35638482Y-28966786D01*
X35513213Y-28841517D01*
X35513210Y-28841514D01*
X35513208Y-28841513D01*
X35369891Y-28737387D01*
X35369885Y-28737384D01*
X35212042Y-28656958D01*
X35212038Y-28656956D01*
X35043564Y-28602216D01*
X35043555Y-28602214D01*
X35043554Y-28602214D01*
X34914857Y-28581830D01*
X34868579Y-28574500D01*
X34868578Y-28574500D01*
X34691420Y-28574500D01*
X34691419Y-28574500D01*
X34516444Y-28602214D01*
X34516433Y-28602216D01*
X34347959Y-28656956D01*
X34347955Y-28656958D01*
X34190112Y-28737384D01*
X34190106Y-28737387D01*
X34046789Y-28841513D01*
X33921512Y-28966790D01*
X33817386Y-29110107D01*
X33817383Y-29110113D01*
X33736957Y-29267956D01*
X33736955Y-29267960D01*
X33682215Y-29436434D01*
X33682213Y-29436445D01*
X33654499Y-29611420D01*
X31950500Y-29611420D01*
X31950500Y-29552494D01*
X31911993Y-29260007D01*
X31835639Y-28975048D01*
X31722743Y-28702493D01*
X31575238Y-28447006D01*
X31395646Y-28212958D01*
X31187042Y-28004354D01*
X30952994Y-27824762D01*
X30927966Y-27810312D01*
X30697506Y-27677256D01*
X30697498Y-27677253D01*
X30424953Y-27564361D01*
X30139991Y-27488006D01*
X29924518Y-27459638D01*
X29847506Y-27449500D01*
X29552494Y-27449500D01*
X29484441Y-27458459D01*
X29260008Y-27488006D01*
X28975046Y-27564361D01*
X28702501Y-27677253D01*
X28702493Y-27677256D01*
X28447010Y-27824759D01*
X28447006Y-27824761D01*
X28447006Y-27824762D01*
X28214937Y-28002836D01*
X28212953Y-28004358D01*
X28004358Y-28212953D01*
X28004354Y-28212957D01*
X28004354Y-28212958D01*
X27884478Y-28369183D01*
X27824759Y-28447010D01*
X27677256Y-28702493D01*
X27677253Y-28702501D01*
X27564361Y-28975046D01*
X27488006Y-29260008D01*
X27456784Y-29497164D01*
X27449500Y-29552494D01*
X27449500Y-29847506D01*
X27451911Y-29865817D01*
X27488006Y-30139991D01*
X27564361Y-30424953D01*
X27677253Y-30697498D01*
X27677256Y-30697506D01*
X27823322Y-30950500D01*
X27824762Y-30952994D01*
X28004354Y-31187042D01*
X28212958Y-31395646D01*
X28447006Y-31575238D01*
X28677444Y-31708281D01*
X28702493Y-31722743D01*
X28702495Y-31722744D01*
X28785518Y-31757133D01*
X28825566Y-31797181D01*
X28825566Y-31853819D01*
X28785518Y-31893867D01*
X28757199Y-31899500D01*
X27264106Y-31899500D01*
X27136818Y-31933606D01*
X27136809Y-31933610D01*
X27022685Y-31999500D01*
X26727875Y-32294309D01*
X26712549Y-32306069D01*
X26637338Y-32349492D01*
X26539495Y-32447334D01*
X26470312Y-32567163D01*
X26470310Y-32567168D01*
X26434500Y-32700814D01*
X26434500Y-32839185D01*
X26470310Y-32972831D01*
X26470312Y-32972836D01*
X26539495Y-33092665D01*
X26637335Y-33190505D01*
X26757164Y-33259688D01*
X26890814Y-33295499D01*
X26890815Y-33295500D01*
X26890817Y-33295500D01*
X27029185Y-33295500D01*
X27029185Y-33295499D01*
X27162836Y-33259688D01*
X27282665Y-33190505D01*
X27380505Y-33092665D01*
X27423934Y-33017441D01*
X27435685Y-33002127D01*
X27515641Y-32922173D01*
X27517119Y-32921561D01*
X27567966Y-32900500D01*
X27934981Y-32900500D01*
X27987307Y-32922174D01*
X28008981Y-32974500D01*
X27987307Y-33026826D01*
X27972579Y-33038236D01*
X27970118Y-33039689D01*
X27955876Y-33048089D01*
X27846161Y-33149339D01*
X27760254Y-33271436D01*
X27760251Y-33271443D01*
X27702013Y-33408896D01*
X27702009Y-33408908D01*
X27674049Y-33555549D01*
X27674049Y-33555552D01*
X27677625Y-33704803D01*
X27677626Y-33704805D01*
X27712578Y-33849943D01*
X27712580Y-33849947D01*
X27724356Y-33874500D01*
X27724366Y-33874519D01*
X27724368Y-33874525D01*
X27727547Y-33881154D01*
X27727555Y-33881292D01*
X27743435Y-33914288D01*
X27743694Y-33914828D01*
X27743694Y-33914838D01*
X27745860Y-33919805D01*
X27759164Y-33953726D01*
X27762421Y-33964291D01*
X27769905Y-33997107D01*
X27771551Y-34008040D01*
X27774294Y-34044706D01*
X27774500Y-34050235D01*
X27774495Y-34094306D01*
X27774501Y-34094367D01*
X27774501Y-35450057D01*
X27774294Y-35455585D01*
X27773987Y-35459688D01*
X27771568Y-35491952D01*
X27769923Y-35502873D01*
X27762432Y-35535721D01*
X27759177Y-35546283D01*
X27746138Y-35579535D01*
X27743967Y-35584523D01*
X27743673Y-35585136D01*
X27730577Y-35612439D01*
X27727546Y-35618740D01*
X27727544Y-35618761D01*
X27718875Y-35636835D01*
X27712541Y-35650040D01*
X27677587Y-35795186D01*
X27677586Y-35795190D01*
X27674827Y-35910310D01*
X27674009Y-35944448D01*
X27694045Y-36049534D01*
X27701973Y-36091111D01*
X27701974Y-36091116D01*
X27760216Y-36228575D01*
X27760219Y-36228582D01*
X27808476Y-36297168D01*
X27846131Y-36350686D01*
X27955850Y-36451942D01*
X28084446Y-36527797D01*
X28226142Y-36574844D01*
X28374570Y-36590969D01*
X28374570Y-36590968D01*
X28374571Y-36590969D01*
X28424067Y-36585795D01*
X28523063Y-36575447D01*
X28664948Y-36528975D01*
X28690341Y-36514183D01*
X28694871Y-36511545D01*
X28695028Y-36511525D01*
X28726744Y-36492988D01*
X28726756Y-36492987D01*
X28732391Y-36490019D01*
X28771243Y-36471692D01*
X28783450Y-36467199D01*
X28821745Y-36456827D01*
X28834547Y-36454545D01*
X28869225Y-36451477D01*
X28877033Y-36450787D01*
X28883553Y-36450499D01*
X30429579Y-36450499D01*
X30429589Y-36450503D01*
X30466227Y-36450499D01*
X30472719Y-36450785D01*
X30515479Y-36454560D01*
X30528297Y-36456841D01*
X30566554Y-36467196D01*
X30566580Y-36467203D01*
X30578805Y-36471700D01*
X30617402Y-36489899D01*
X30623145Y-36492922D01*
X30655006Y-36511537D01*
X30660826Y-36514937D01*
X30661764Y-36515365D01*
X30685069Y-36528940D01*
X30826946Y-36575409D01*
X30947324Y-36587992D01*
X30975429Y-36590930D01*
X30975429Y-36590929D01*
X30975431Y-36590930D01*
X31123851Y-36574805D01*
X31265539Y-36527761D01*
X31394128Y-36451910D01*
X31503841Y-36350659D01*
X31517804Y-36330814D01*
X31874500Y-36330814D01*
X31874500Y-36469185D01*
X31910310Y-36602831D01*
X31910312Y-36602836D01*
X31979495Y-36722665D01*
X32077335Y-36820505D01*
X32197164Y-36889688D01*
X32330814Y-36925499D01*
X32330815Y-36925500D01*
X32330817Y-36925500D01*
X32469185Y-36925500D01*
X32469185Y-36925499D01*
X32602836Y-36889688D01*
X32722665Y-36820505D01*
X32820505Y-36722665D01*
X32830626Y-36705135D01*
X41474500Y-36705135D01*
X41474500Y-38494863D01*
X41477414Y-38519986D01*
X41477415Y-38519992D01*
X41522794Y-38622765D01*
X41602235Y-38702206D01*
X41705009Y-38747585D01*
X41730135Y-38750500D01*
X43519864Y-38750499D01*
X43544991Y-38747585D01*
X43647765Y-38702206D01*
X43727206Y-38622765D01*
X43772585Y-38519991D01*
X43775500Y-38494865D01*
X43775499Y-37509453D01*
X44014500Y-37509453D01*
X44014500Y-37690546D01*
X44042828Y-37869406D01*
X44042831Y-37869419D01*
X44098787Y-38041635D01*
X44098788Y-38041638D01*
X44098789Y-38041639D01*
X44178035Y-38197168D01*
X44181005Y-38202995D01*
X44181005Y-38202996D01*
X44193726Y-38220505D01*
X44287447Y-38349501D01*
X44415499Y-38477553D01*
X44562006Y-38583996D01*
X44723361Y-38666211D01*
X44723364Y-38666212D01*
X44723363Y-38666212D01*
X44895580Y-38722168D01*
X44895586Y-38722169D01*
X44895591Y-38722171D01*
X45014833Y-38741057D01*
X45074453Y-38750500D01*
X45074454Y-38750500D01*
X45255547Y-38750500D01*
X45300261Y-38743417D01*
X45434409Y-38722171D01*
X45434416Y-38722168D01*
X45434419Y-38722168D01*
X45586775Y-38672665D01*
X45606639Y-38666211D01*
X45767994Y-38583996D01*
X45914501Y-38477553D01*
X46042553Y-38349501D01*
X46148996Y-38202994D01*
X46231211Y-38041639D01*
X46277455Y-37899313D01*
X46287168Y-37869419D01*
X46287168Y-37869416D01*
X46287171Y-37869409D01*
X46301203Y-37780814D01*
X48799497Y-37780814D01*
X48799497Y-37919185D01*
X48835307Y-38052831D01*
X48835308Y-38052834D01*
X48835309Y-38052836D01*
X48904492Y-38172665D01*
X49002332Y-38270505D01*
X49122161Y-38339688D01*
X49255811Y-38375499D01*
X49255812Y-38375500D01*
X49255814Y-38375500D01*
X49394182Y-38375500D01*
X49394182Y-38375499D01*
X49527833Y-38339688D01*
X49527835Y-38339686D01*
X49527837Y-38339686D01*
X49575497Y-38312169D01*
X49631650Y-38304775D01*
X49649498Y-38312168D01*
X49697164Y-38339688D01*
X49830814Y-38375499D01*
X49830815Y-38375500D01*
X49830817Y-38375500D01*
X49969185Y-38375500D01*
X49969185Y-38375499D01*
X50102836Y-38339688D01*
X50222665Y-38270505D01*
X50320505Y-38172665D01*
X50389688Y-38052836D01*
X50392435Y-38042583D01*
X50426910Y-37997651D01*
X50483063Y-37990256D01*
X50516239Y-38009409D01*
X50527335Y-38020505D01*
X50647164Y-38089688D01*
X50780814Y-38125499D01*
X50780815Y-38125500D01*
X50780817Y-38125500D01*
X50919185Y-38125500D01*
X50919185Y-38125499D01*
X51052836Y-38089688D01*
X51172665Y-38020505D01*
X51270505Y-37922665D01*
X51294668Y-37880814D01*
X53324500Y-37880814D01*
X53324500Y-38019185D01*
X53360310Y-38152831D01*
X53360312Y-38152836D01*
X53429495Y-38272665D01*
X53527335Y-38370505D01*
X53647164Y-38439688D01*
X53780814Y-38475499D01*
X53780815Y-38475500D01*
X53780817Y-38475500D01*
X53919185Y-38475500D01*
X53919185Y-38475499D01*
X54052836Y-38439688D01*
X54172665Y-38370505D01*
X54212356Y-38330814D01*
X60674500Y-38330814D01*
X60674500Y-38469185D01*
X60710310Y-38602831D01*
X60710312Y-38602836D01*
X60779495Y-38722665D01*
X60877335Y-38820505D01*
X60997164Y-38889688D01*
X61130814Y-38925499D01*
X61130815Y-38925500D01*
X61130817Y-38925500D01*
X61269185Y-38925500D01*
X61269185Y-38925499D01*
X61402836Y-38889688D01*
X61522665Y-38820505D01*
X61620505Y-38722665D01*
X61689688Y-38602836D01*
X61725499Y-38469185D01*
X61725500Y-38469185D01*
X61725500Y-38330815D01*
X61725499Y-38330814D01*
X61717376Y-38300500D01*
X61689688Y-38197164D01*
X61620505Y-38077335D01*
X61522665Y-37979495D01*
X61402836Y-37910312D01*
X61402831Y-37910310D01*
X61269185Y-37874500D01*
X61269183Y-37874500D01*
X61130817Y-37874500D01*
X61130815Y-37874500D01*
X60997168Y-37910310D01*
X60997163Y-37910312D01*
X60877334Y-37979495D01*
X60779495Y-38077334D01*
X60710312Y-38197163D01*
X60710310Y-38197168D01*
X60674500Y-38330814D01*
X54212356Y-38330814D01*
X54270505Y-38272665D01*
X54339688Y-38152836D01*
X54375499Y-38019185D01*
X54375500Y-38019185D01*
X54375500Y-37880815D01*
X54375499Y-37880814D01*
X54372383Y-37869185D01*
X54339688Y-37747164D01*
X54330248Y-37730814D01*
X59274500Y-37730814D01*
X59274500Y-37869185D01*
X59310310Y-38002831D01*
X59310312Y-38002836D01*
X59379495Y-38122665D01*
X59477335Y-38220505D01*
X59597164Y-38289688D01*
X59730814Y-38325499D01*
X59730815Y-38325500D01*
X59730817Y-38325500D01*
X59869185Y-38325500D01*
X59869185Y-38325499D01*
X60002836Y-38289688D01*
X60122665Y-38220505D01*
X60220505Y-38122665D01*
X60289688Y-38002836D01*
X60325499Y-37869185D01*
X60325500Y-37869185D01*
X60325500Y-37730815D01*
X60325499Y-37730814D01*
X60324197Y-37725956D01*
X60289688Y-37597164D01*
X60220505Y-37477335D01*
X60122665Y-37379495D01*
X60002836Y-37310312D01*
X60002831Y-37310310D01*
X59869185Y-37274500D01*
X59869183Y-37274500D01*
X59730817Y-37274500D01*
X59730815Y-37274500D01*
X59597168Y-37310310D01*
X59597163Y-37310312D01*
X59477334Y-37379495D01*
X59379495Y-37477334D01*
X59310312Y-37597163D01*
X59310310Y-37597168D01*
X59274500Y-37730814D01*
X54330248Y-37730814D01*
X54270505Y-37627335D01*
X54172665Y-37529495D01*
X54052836Y-37460312D01*
X54052831Y-37460310D01*
X53919185Y-37424500D01*
X53919183Y-37424500D01*
X53780817Y-37424500D01*
X53780815Y-37424500D01*
X53647168Y-37460310D01*
X53647163Y-37460312D01*
X53527334Y-37529495D01*
X53429495Y-37627334D01*
X53360312Y-37747163D01*
X53360310Y-37747168D01*
X53324500Y-37880814D01*
X51294668Y-37880814D01*
X51318828Y-37838967D01*
X51318829Y-37838966D01*
X51334538Y-37811756D01*
X51339688Y-37802836D01*
X51375499Y-37669185D01*
X51375500Y-37669185D01*
X51375500Y-37530815D01*
X51375499Y-37530814D01*
X51369775Y-37509453D01*
X51347013Y-37424500D01*
X51339689Y-37397167D01*
X51339687Y-37397162D01*
X51308324Y-37342840D01*
X51304951Y-37336999D01*
X51297559Y-37280848D01*
X51304952Y-37263000D01*
X51312309Y-37250257D01*
X51339688Y-37202836D01*
X51375499Y-37069185D01*
X51375500Y-37069185D01*
X51375500Y-36930815D01*
X51375499Y-36930814D01*
X51372736Y-36920504D01*
X51339688Y-36797164D01*
X51312168Y-36749498D01*
X51304775Y-36693346D01*
X51312169Y-36675497D01*
X51339686Y-36627837D01*
X51339689Y-36627829D01*
X51342857Y-36616005D01*
X51375499Y-36494182D01*
X51375500Y-36494182D01*
X51375500Y-36355812D01*
X51375499Y-36355811D01*
X51368801Y-36330815D01*
X51339688Y-36222161D01*
X51315816Y-36180814D01*
X55524500Y-36180814D01*
X55524500Y-36319185D01*
X55560310Y-36452831D01*
X55560312Y-36452836D01*
X55629495Y-36572665D01*
X55727335Y-36670505D01*
X55847164Y-36739688D01*
X55980814Y-36775499D01*
X55980815Y-36775500D01*
X55980817Y-36775500D01*
X56119185Y-36775500D01*
X56119185Y-36775499D01*
X56252836Y-36739688D01*
X56372665Y-36670505D01*
X56470505Y-36572665D01*
X56539688Y-36452836D01*
X56575499Y-36319185D01*
X56575500Y-36319185D01*
X56575500Y-36180815D01*
X56575499Y-36180814D01*
X56569711Y-36159214D01*
X56539688Y-36047164D01*
X56470505Y-35927335D01*
X56372665Y-35829495D01*
X56252836Y-35760312D01*
X56252831Y-35760310D01*
X56119185Y-35724500D01*
X56119183Y-35724500D01*
X55980817Y-35724500D01*
X55980815Y-35724500D01*
X55847168Y-35760310D01*
X55847163Y-35760312D01*
X55727334Y-35829495D01*
X55629495Y-35927334D01*
X55560312Y-36047163D01*
X55560310Y-36047168D01*
X55524500Y-36180814D01*
X51315816Y-36180814D01*
X51270505Y-36102332D01*
X51172665Y-36004492D01*
X51052836Y-35935309D01*
X51052831Y-35935307D01*
X50919185Y-35899497D01*
X50919183Y-35899497D01*
X50780817Y-35899497D01*
X50780815Y-35899497D01*
X50647168Y-35935307D01*
X50647163Y-35935309D01*
X50527334Y-36004492D01*
X50429495Y-36102331D01*
X50360312Y-36222160D01*
X50360310Y-36222165D01*
X50324500Y-36355811D01*
X50324500Y-36494182D01*
X50360310Y-36627828D01*
X50360314Y-36627837D01*
X50387831Y-36675499D01*
X50395223Y-36731651D01*
X50387831Y-36749497D01*
X50360312Y-36797164D01*
X50360312Y-36797165D01*
X50360310Y-36797168D01*
X50324500Y-36930814D01*
X50324500Y-37069185D01*
X50360310Y-37202831D01*
X50360314Y-37202840D01*
X50395047Y-37263001D01*
X50396095Y-37270965D01*
X50401319Y-37277071D01*
X50399361Y-37295775D01*
X50402439Y-37319154D01*
X50396925Y-37333537D01*
X50396027Y-37335301D01*
X50360312Y-37397164D01*
X50355560Y-37414895D01*
X50352050Y-37421801D01*
X50335967Y-37435561D01*
X50323083Y-37452351D01*
X50315119Y-37453399D01*
X50309015Y-37458622D01*
X50287914Y-37456980D01*
X50266931Y-37459742D01*
X50258133Y-37454662D01*
X50252549Y-37454228D01*
X50247831Y-37448714D01*
X50233760Y-37440590D01*
X50222665Y-37429495D01*
X50102836Y-37360312D01*
X50102831Y-37360310D01*
X49969185Y-37324500D01*
X49969183Y-37324500D01*
X49830817Y-37324500D01*
X49830815Y-37324500D01*
X49697168Y-37360310D01*
X49697165Y-37360311D01*
X49697164Y-37360312D01*
X49659973Y-37381784D01*
X49649497Y-37387832D01*
X49593344Y-37395223D01*
X49575499Y-37387831D01*
X49527837Y-37360314D01*
X49527828Y-37360310D01*
X49394182Y-37324500D01*
X49394180Y-37324500D01*
X49255814Y-37324500D01*
X49255812Y-37324500D01*
X49122165Y-37360310D01*
X49122160Y-37360312D01*
X49002331Y-37429495D01*
X48904492Y-37527334D01*
X48835309Y-37647163D01*
X48835307Y-37647168D01*
X48799497Y-37780814D01*
X46301203Y-37780814D01*
X46315500Y-37690546D01*
X46315500Y-37509454D01*
X46313923Y-37499500D01*
X46298695Y-37403350D01*
X46287171Y-37330591D01*
X46287169Y-37330586D01*
X46287168Y-37330580D01*
X46231212Y-37158364D01*
X46231211Y-37158363D01*
X46231211Y-37158361D01*
X46148996Y-36997006D01*
X46143678Y-36989687D01*
X46129520Y-36970199D01*
X46042553Y-36850499D01*
X45914501Y-36722447D01*
X45829128Y-36660420D01*
X45767996Y-36616005D01*
X45687213Y-36574844D01*
X45606639Y-36533789D01*
X45606638Y-36533788D01*
X45606635Y-36533787D01*
X45606636Y-36533787D01*
X45434419Y-36477831D01*
X45434406Y-36477828D01*
X45255547Y-36449500D01*
X45255546Y-36449500D01*
X45074454Y-36449500D01*
X45074453Y-36449500D01*
X44895593Y-36477828D01*
X44895580Y-36477831D01*
X44723364Y-36533787D01*
X44562004Y-36616005D01*
X44562003Y-36616005D01*
X44424192Y-36716131D01*
X44415499Y-36722447D01*
X44287447Y-36850499D01*
X44287444Y-36850502D01*
X44287444Y-36850503D01*
X44181005Y-36997003D01*
X44181005Y-36997004D01*
X44098787Y-37158364D01*
X44042831Y-37330580D01*
X44042828Y-37330593D01*
X44014500Y-37509453D01*
X43775499Y-37509453D01*
X43775499Y-36705136D01*
X43772585Y-36680009D01*
X43727206Y-36577235D01*
X43647765Y-36497794D01*
X43544991Y-36452415D01*
X43544990Y-36452414D01*
X43544988Y-36452414D01*
X43523659Y-36449940D01*
X43519865Y-36449500D01*
X43519864Y-36449500D01*
X41730136Y-36449500D01*
X41705013Y-36452414D01*
X41705007Y-36452415D01*
X41602234Y-36497794D01*
X41522794Y-36577234D01*
X41477414Y-36680011D01*
X41474500Y-36705135D01*
X32830626Y-36705135D01*
X32889688Y-36602836D01*
X32925499Y-36469185D01*
X32925500Y-36469185D01*
X32925500Y-36330815D01*
X32925499Y-36330814D01*
X32908985Y-36269184D01*
X32889688Y-36197164D01*
X32820505Y-36077335D01*
X32722665Y-35979495D01*
X32602836Y-35910312D01*
X32602831Y-35910310D01*
X32469185Y-35874500D01*
X32469183Y-35874500D01*
X32330817Y-35874500D01*
X32330815Y-35874500D01*
X32197168Y-35910310D01*
X32197163Y-35910312D01*
X32077334Y-35979495D01*
X31979495Y-36077334D01*
X31910312Y-36197163D01*
X31910310Y-36197168D01*
X31874500Y-36330814D01*
X31517804Y-36330814D01*
X31589748Y-36228559D01*
X31625085Y-36145157D01*
X31647988Y-36091103D01*
X31647988Y-36091100D01*
X31647991Y-36091095D01*
X31675952Y-35944444D01*
X31672374Y-35795193D01*
X31637420Y-35650049D01*
X31622444Y-35618828D01*
X31622436Y-35618671D01*
X31606289Y-35585136D01*
X31606288Y-35585123D01*
X31604130Y-35580175D01*
X31590812Y-35546239D01*
X31587554Y-35535679D01*
X31580061Y-35502848D01*
X31578414Y-35491921D01*
X31577616Y-35481284D01*
X31575706Y-35455808D01*
X31575499Y-35450275D01*
X31575499Y-34049949D01*
X31575706Y-34044416D01*
X31577337Y-34022665D01*
X31578432Y-34008068D01*
X31580078Y-33997152D01*
X31587572Y-33964319D01*
X31590823Y-33953778D01*
X31604049Y-33920073D01*
X31606205Y-33915122D01*
X31616989Y-33892638D01*
X31616990Y-33892635D01*
X31622436Y-33881327D01*
X31622438Y-33881277D01*
X31637460Y-33849961D01*
X31672416Y-33704809D01*
X31675992Y-33555550D01*
X31648029Y-33408890D01*
X31648026Y-33408884D01*
X31648026Y-33408881D01*
X31589784Y-33271422D01*
X31589781Y-33271415D01*
X31527097Y-33182324D01*
X31503870Y-33149312D01*
X31501553Y-33147174D01*
X31416835Y-33068991D01*
X31394151Y-33048057D01*
X31377501Y-33038235D01*
X31343446Y-32992984D01*
X31351362Y-32936903D01*
X31396616Y-32902846D01*
X31415100Y-32900500D01*
X33462034Y-32900500D01*
X33514360Y-32922174D01*
X33968474Y-33376288D01*
X33990148Y-33428614D01*
X33968474Y-33480940D01*
X33935302Y-33500092D01*
X33897167Y-33510311D01*
X33897163Y-33510312D01*
X33777334Y-33579495D01*
X33679495Y-33677334D01*
X33610312Y-33797163D01*
X33610310Y-33797168D01*
X33574500Y-33930814D01*
X33574500Y-34069185D01*
X33610310Y-34202831D01*
X33610312Y-34202836D01*
X33679495Y-34322665D01*
X33777335Y-34420505D01*
X33897164Y-34489688D01*
X34030814Y-34525499D01*
X34030815Y-34525500D01*
X34030817Y-34525500D01*
X34169185Y-34525500D01*
X34169185Y-34525499D01*
X34302836Y-34489688D01*
X34393428Y-34437384D01*
X34449578Y-34429992D01*
X34482752Y-34449145D01*
X34979519Y-34945912D01*
X34979520Y-34945913D01*
X35054087Y-35020480D01*
X35145413Y-35073207D01*
X35247270Y-35100499D01*
X35247271Y-35100500D01*
X35247273Y-35100500D01*
X46652726Y-35100500D01*
X46652727Y-35100500D01*
X46754588Y-35073207D01*
X46845913Y-35020480D01*
X47444219Y-34422174D01*
X47496545Y-34400500D01*
X52865644Y-34400500D01*
X52917970Y-34422174D01*
X53141708Y-34645912D01*
X53141709Y-34645913D01*
X53216276Y-34720480D01*
X53307602Y-34773207D01*
X53409459Y-34800499D01*
X53409460Y-34800500D01*
X53409462Y-34800500D01*
X53514916Y-34800500D01*
X59453455Y-34800500D01*
X59505781Y-34822174D01*
X62829519Y-38145912D01*
X62829520Y-38145913D01*
X62904087Y-38220480D01*
X62995413Y-38273207D01*
X63097270Y-38300499D01*
X63097271Y-38300500D01*
X63097273Y-38300500D01*
X64050500Y-38300500D01*
X64102826Y-38322174D01*
X64124500Y-38374500D01*
X64124500Y-38419185D01*
X64160310Y-38552831D01*
X64160312Y-38552836D01*
X64229495Y-38672665D01*
X64327335Y-38770505D01*
X64447164Y-38839688D01*
X64580814Y-38875499D01*
X64580815Y-38875500D01*
X64580817Y-38875500D01*
X64719185Y-38875500D01*
X64719185Y-38875499D01*
X64852836Y-38839688D01*
X64972665Y-38770505D01*
X65070505Y-38672665D01*
X65139688Y-38552836D01*
X65175499Y-38419185D01*
X65175500Y-38419185D01*
X65175500Y-38374500D01*
X65197174Y-38322174D01*
X65249500Y-38300500D01*
X92852726Y-38300500D01*
X92852727Y-38300500D01*
X92954588Y-38273207D01*
X93045913Y-38220480D01*
X93870480Y-37395913D01*
X93923207Y-37304588D01*
X93950500Y-37202727D01*
X93950500Y-37097273D01*
X93950500Y-36773322D01*
X93969324Y-36727874D01*
X93967552Y-36726514D01*
X93970503Y-36722667D01*
X93970505Y-36722665D01*
X94039688Y-36602836D01*
X94075499Y-36469185D01*
X94075500Y-36469185D01*
X94075500Y-36330815D01*
X94075499Y-36330814D01*
X94058985Y-36269184D01*
X94039688Y-36197164D01*
X93970505Y-36077335D01*
X93872665Y-35979495D01*
X93811962Y-35944448D01*
X94274009Y-35944448D01*
X94294045Y-36049534D01*
X94301973Y-36091111D01*
X94301974Y-36091116D01*
X94360216Y-36228575D01*
X94360219Y-36228582D01*
X94408476Y-36297168D01*
X94446131Y-36350686D01*
X94555850Y-36451942D01*
X94684446Y-36527797D01*
X94826142Y-36574844D01*
X94974570Y-36590969D01*
X94974570Y-36590968D01*
X94974571Y-36590969D01*
X95024067Y-36585795D01*
X95123063Y-36575447D01*
X95264948Y-36528975D01*
X95290341Y-36514183D01*
X95294871Y-36511545D01*
X95295028Y-36511525D01*
X95326744Y-36492988D01*
X95326756Y-36492987D01*
X95332391Y-36490019D01*
X95371243Y-36471692D01*
X95383450Y-36467199D01*
X95421745Y-36456827D01*
X95434547Y-36454545D01*
X95469225Y-36451477D01*
X95477033Y-36450787D01*
X95483553Y-36450499D01*
X97029579Y-36450499D01*
X97029589Y-36450503D01*
X97066227Y-36450499D01*
X97072719Y-36450785D01*
X97115479Y-36454560D01*
X97128297Y-36456841D01*
X97166554Y-36467196D01*
X97166580Y-36467203D01*
X97178805Y-36471700D01*
X97217402Y-36489899D01*
X97223145Y-36492922D01*
X97255006Y-36511537D01*
X97260826Y-36514937D01*
X97261764Y-36515365D01*
X97285069Y-36528940D01*
X97426946Y-36575409D01*
X97547324Y-36587992D01*
X97575429Y-36590930D01*
X97575429Y-36590929D01*
X97575431Y-36590930D01*
X97723851Y-36574805D01*
X97865539Y-36527761D01*
X97994128Y-36451910D01*
X98016987Y-36430814D01*
X98474500Y-36430814D01*
X98474500Y-36569185D01*
X98510310Y-36702831D01*
X98510312Y-36702836D01*
X98579495Y-36822665D01*
X98677335Y-36920505D01*
X98797164Y-36989688D01*
X98930814Y-37025499D01*
X98930815Y-37025500D01*
X98930817Y-37025500D01*
X99069185Y-37025500D01*
X99069185Y-37025499D01*
X99202836Y-36989688D01*
X99322665Y-36920505D01*
X99420505Y-36822665D01*
X99489688Y-36702836D01*
X99525499Y-36569185D01*
X99525500Y-36569185D01*
X99525500Y-36430815D01*
X99525499Y-36430814D01*
X99505402Y-36355812D01*
X99489688Y-36297164D01*
X99420505Y-36177335D01*
X99322665Y-36079495D01*
X99202836Y-36010312D01*
X99202831Y-36010310D01*
X99069185Y-35974500D01*
X99069183Y-35974500D01*
X98930817Y-35974500D01*
X98930815Y-35974500D01*
X98797168Y-36010310D01*
X98797163Y-36010312D01*
X98677334Y-36079495D01*
X98579495Y-36177334D01*
X98510312Y-36297163D01*
X98510310Y-36297168D01*
X98474500Y-36430814D01*
X98016987Y-36430814D01*
X98103841Y-36350659D01*
X98189748Y-36228559D01*
X98203050Y-36197163D01*
X98247988Y-36091103D01*
X98247988Y-36091100D01*
X98247991Y-36091095D01*
X98275952Y-35944444D01*
X98272374Y-35795193D01*
X98237420Y-35650049D01*
X98222444Y-35618828D01*
X98222436Y-35618671D01*
X98206289Y-35585136D01*
X98206288Y-35585123D01*
X98204130Y-35580175D01*
X98190812Y-35546239D01*
X98187554Y-35535679D01*
X98180061Y-35502848D01*
X98178414Y-35491921D01*
X98177616Y-35481284D01*
X98175706Y-35455808D01*
X98175499Y-35450275D01*
X98175499Y-34049949D01*
X98175706Y-34044416D01*
X98177337Y-34022665D01*
X98178432Y-34008068D01*
X98180078Y-33997152D01*
X98187572Y-33964319D01*
X98190823Y-33953778D01*
X98204049Y-33920073D01*
X98206205Y-33915122D01*
X98216989Y-33892638D01*
X98216990Y-33892635D01*
X98222436Y-33881327D01*
X98222438Y-33881277D01*
X98237460Y-33849961D01*
X98272416Y-33704809D01*
X98275992Y-33555550D01*
X98248029Y-33408890D01*
X98248026Y-33408884D01*
X98248026Y-33408881D01*
X98189784Y-33271422D01*
X98189781Y-33271415D01*
X98127097Y-33182324D01*
X98103870Y-33149312D01*
X98101553Y-33147174D01*
X98016835Y-33068991D01*
X97994151Y-33048057D01*
X97994143Y-33048052D01*
X97865558Y-32972202D01*
X97865551Y-32972199D01*
X97723859Y-32925154D01*
X97575433Y-32909029D01*
X97575429Y-32909028D01*
X97426936Y-32924551D01*
X97285057Y-32971019D01*
X97261501Y-32984739D01*
X97261498Y-32984740D01*
X97255137Y-32988443D01*
X97255005Y-32988462D01*
X97224194Y-33006463D01*
X97223297Y-33006986D01*
X97223283Y-33006987D01*
X97217617Y-33009972D01*
X97178794Y-33028277D01*
X97166568Y-33032774D01*
X97128299Y-33043132D01*
X97115472Y-33045415D01*
X97072454Y-33049212D01*
X97065941Y-33049499D01*
X97022561Y-33049495D01*
X97022509Y-33049500D01*
X95527759Y-33049500D01*
X95520421Y-33049499D01*
X95520410Y-33049495D01*
X95488401Y-33049498D01*
X95483776Y-33049498D01*
X95483774Y-33049497D01*
X95477273Y-33049211D01*
X95434524Y-33045438D01*
X95421696Y-33043155D01*
X95383417Y-33032794D01*
X95371194Y-33028297D01*
X95332608Y-33010103D01*
X95326840Y-33007066D01*
X95309190Y-32996754D01*
X95294995Y-32988461D01*
X95294994Y-32988460D01*
X95289312Y-32985141D01*
X95288334Y-32984691D01*
X95267979Y-32972836D01*
X95264930Y-32971060D01*
X95264928Y-32971059D01*
X95264926Y-32971058D01*
X95123054Y-32924592D01*
X94974570Y-32909070D01*
X94974565Y-32909071D01*
X94826148Y-32925195D01*
X94684466Y-32972238D01*
X94684463Y-32972239D01*
X94684462Y-32972240D01*
X94656994Y-32988443D01*
X94555876Y-33048089D01*
X94446161Y-33149339D01*
X94360254Y-33271436D01*
X94360251Y-33271443D01*
X94302013Y-33408896D01*
X94302009Y-33408908D01*
X94274049Y-33555549D01*
X94274049Y-33555552D01*
X94277625Y-33704803D01*
X94277626Y-33704805D01*
X94312578Y-33849943D01*
X94312580Y-33849947D01*
X94324356Y-33874500D01*
X94324366Y-33874519D01*
X94324368Y-33874525D01*
X94327547Y-33881154D01*
X94327555Y-33881292D01*
X94343435Y-33914288D01*
X94343694Y-33914828D01*
X94343694Y-33914838D01*
X94345860Y-33919805D01*
X94359164Y-33953726D01*
X94362421Y-33964291D01*
X94369905Y-33997107D01*
X94371551Y-34008040D01*
X94374294Y-34044706D01*
X94374500Y-34050235D01*
X94374495Y-34094306D01*
X94374501Y-34094367D01*
X94374501Y-35450057D01*
X94374294Y-35455585D01*
X94373987Y-35459688D01*
X94371568Y-35491952D01*
X94369923Y-35502873D01*
X94362432Y-35535721D01*
X94359177Y-35546283D01*
X94346138Y-35579535D01*
X94343967Y-35584523D01*
X94343673Y-35585136D01*
X94330577Y-35612439D01*
X94327546Y-35618740D01*
X94327544Y-35618761D01*
X94318875Y-35636835D01*
X94312541Y-35650040D01*
X94277587Y-35795186D01*
X94277586Y-35795190D01*
X94274827Y-35910310D01*
X94274009Y-35944448D01*
X93811962Y-35944448D01*
X93752836Y-35910312D01*
X93752831Y-35910310D01*
X93619185Y-35874500D01*
X93619183Y-35874500D01*
X93480817Y-35874500D01*
X93480815Y-35874500D01*
X93347168Y-35910310D01*
X93347163Y-35910312D01*
X93227334Y-35979495D01*
X93129495Y-36077334D01*
X93060312Y-36197163D01*
X93060310Y-36197168D01*
X93024500Y-36330814D01*
X93024500Y-36469185D01*
X93060310Y-36602831D01*
X93060312Y-36602836D01*
X93129496Y-36722667D01*
X93132448Y-36726514D01*
X93130675Y-36727874D01*
X93149500Y-36773322D01*
X93149500Y-36953455D01*
X93127826Y-37005781D01*
X92655781Y-37477826D01*
X92603455Y-37499500D01*
X86407285Y-37499500D01*
X86354959Y-37477826D01*
X86333285Y-37425500D01*
X86343198Y-37388501D01*
X86347077Y-37381784D01*
X86387999Y-37229059D01*
X86388000Y-37229059D01*
X86388000Y-37070941D01*
X86387999Y-37070940D01*
X86387966Y-37070818D01*
X86347077Y-36918216D01*
X86268020Y-36781284D01*
X86161029Y-36674293D01*
X86139355Y-36621967D01*
X86161028Y-36569642D01*
X86208005Y-36522666D01*
X86277188Y-36402837D01*
X86312999Y-36269186D01*
X86313000Y-36269186D01*
X86313000Y-36130816D01*
X86312999Y-36130815D01*
X86311459Y-36125069D01*
X86277188Y-35997165D01*
X86208005Y-35877336D01*
X86110165Y-35779496D01*
X85990336Y-35710313D01*
X85990331Y-35710311D01*
X85856685Y-35674501D01*
X85851876Y-35673868D01*
X85852167Y-35671652D01*
X85806719Y-35652827D01*
X85532042Y-35378150D01*
X85250897Y-35097005D01*
X85229224Y-35044681D01*
X85250898Y-34992355D01*
X85303224Y-34970681D01*
X85350789Y-34987992D01*
X85402733Y-35031578D01*
X85546767Y-35114736D01*
X85703053Y-35171620D01*
X85866842Y-35200500D01*
X85866846Y-35200500D01*
X86033154Y-35200500D01*
X86033158Y-35200500D01*
X86196947Y-35171620D01*
X86353233Y-35114736D01*
X86497267Y-35031578D01*
X86624673Y-34924673D01*
X86731578Y-34797267D01*
X86814736Y-34653233D01*
X86871620Y-34496947D01*
X86900500Y-34333158D01*
X86900500Y-34250000D01*
X86900500Y-34210118D01*
X86900500Y-22710118D01*
X86900500Y-22666842D01*
X86871620Y-22503053D01*
X86814736Y-22346767D01*
X86731578Y-22202733D01*
X86624673Y-22075327D01*
X86497267Y-21968422D01*
X86353233Y-21885264D01*
X86331446Y-21877334D01*
X86196946Y-21828379D01*
X86033161Y-21799500D01*
X86033158Y-21799500D01*
X85989882Y-21799500D01*
X85950000Y-21799500D01*
X85866842Y-21799500D01*
X85866838Y-21799500D01*
X85703053Y-21828379D01*
X85546769Y-21885263D01*
X85546767Y-21885263D01*
X85546767Y-21885264D01*
X85402733Y-21968422D01*
X85275327Y-22075327D01*
X85168422Y-22202733D01*
X85101189Y-22319185D01*
X85085263Y-22346769D01*
X85028379Y-22503053D01*
X84999500Y-22666838D01*
X84999500Y-34333161D01*
X85028379Y-34496946D01*
X85074138Y-34622665D01*
X85085264Y-34653233D01*
X85168422Y-34797267D01*
X85192112Y-34825500D01*
X85212007Y-34849210D01*
X85229037Y-34903226D01*
X85202885Y-34953464D01*
X85148869Y-34970494D01*
X85102994Y-34949102D01*
X84803412Y-34649520D01*
X84803409Y-34649518D01*
X84803408Y-34649517D01*
X84712091Y-34596795D01*
X84712087Y-34596793D01*
X84696468Y-34592608D01*
X84610226Y-34569500D01*
X84610225Y-34569500D01*
X78345059Y-34569500D01*
X78292733Y-34547826D01*
X78271059Y-34495500D01*
X78273581Y-34476347D01*
X78275499Y-34469185D01*
X78275500Y-34469185D01*
X78275500Y-34330815D01*
X78275499Y-34330814D01*
X78247280Y-34225500D01*
X78239688Y-34197164D01*
X78170505Y-34077335D01*
X78072665Y-33979495D01*
X77952836Y-33910312D01*
X77952831Y-33910310D01*
X77819185Y-33874500D01*
X77819183Y-33874500D01*
X77680817Y-33874500D01*
X77680815Y-33874500D01*
X77547168Y-33910310D01*
X77547163Y-33910312D01*
X77427334Y-33979495D01*
X77329495Y-34077334D01*
X77260312Y-34197163D01*
X77260310Y-34197168D01*
X77224500Y-34330814D01*
X77224500Y-34392089D01*
X77202826Y-34444415D01*
X77169654Y-34463567D01*
X77107167Y-34480311D01*
X77107163Y-34480312D01*
X76987334Y-34549495D01*
X76889495Y-34647334D01*
X76820312Y-34767163D01*
X76820310Y-34767168D01*
X76784500Y-34900814D01*
X76784500Y-35039185D01*
X76815894Y-35156347D01*
X76808502Y-35212500D01*
X76763569Y-35246978D01*
X76744416Y-35249500D01*
X70008808Y-35249500D01*
X69956482Y-35227826D01*
X69934808Y-35175500D01*
X69956482Y-35123174D01*
X69971808Y-35111414D01*
X70042665Y-35070505D01*
X70140505Y-34972665D01*
X70209688Y-34852836D01*
X70245499Y-34719185D01*
X70245500Y-34719185D01*
X70245500Y-34580815D01*
X70245499Y-34580814D01*
X70242467Y-34569500D01*
X70209688Y-34447164D01*
X70140505Y-34327335D01*
X70042665Y-34229495D01*
X69922836Y-34160312D01*
X69922831Y-34160310D01*
X69789185Y-34124500D01*
X69789183Y-34124500D01*
X69650817Y-34124500D01*
X69650815Y-34124500D01*
X69517168Y-34160310D01*
X69517163Y-34160312D01*
X69397334Y-34229495D01*
X69299495Y-34327334D01*
X69230312Y-34447163D01*
X69230310Y-34447168D01*
X69194500Y-34580814D01*
X69194500Y-34719185D01*
X69230310Y-34852831D01*
X69230312Y-34852836D01*
X69299495Y-34972665D01*
X69397335Y-35070505D01*
X69449288Y-35100500D01*
X69468192Y-35111414D01*
X69502670Y-35156347D01*
X69495278Y-35212500D01*
X69450345Y-35246978D01*
X69431192Y-35249500D01*
X63504316Y-35249500D01*
X63451990Y-35227826D01*
X63430316Y-35175500D01*
X63440230Y-35138500D01*
X63489688Y-35052836D01*
X63525499Y-34919185D01*
X63525500Y-34919185D01*
X63525500Y-34879500D01*
X63547174Y-34827174D01*
X63599500Y-34805500D01*
X63619185Y-34805500D01*
X63619185Y-34805499D01*
X63752836Y-34769688D01*
X63872665Y-34700505D01*
X63970505Y-34602665D01*
X64039688Y-34482836D01*
X64075500Y-34349183D01*
X64075500Y-34349177D01*
X64076133Y-34344376D01*
X64077545Y-34344561D01*
X64097174Y-34297174D01*
X64149500Y-34275500D01*
X64169185Y-34275500D01*
X64169185Y-34275499D01*
X64302836Y-34239688D01*
X64422665Y-34170505D01*
X64520505Y-34072665D01*
X64589688Y-33952836D01*
X64625499Y-33819185D01*
X64625500Y-33819185D01*
X64625500Y-33680817D01*
X64615935Y-33645119D01*
X64615935Y-33645117D01*
X64612102Y-33630814D01*
X70724500Y-33630814D01*
X70724500Y-33769185D01*
X70760310Y-33902831D01*
X70760312Y-33902836D01*
X70829495Y-34022665D01*
X70927335Y-34120505D01*
X71047164Y-34189688D01*
X71180814Y-34225499D01*
X71180815Y-34225500D01*
X71180817Y-34225500D01*
X71319185Y-34225500D01*
X71319185Y-34225499D01*
X71452836Y-34189688D01*
X71572665Y-34120505D01*
X71670505Y-34022665D01*
X71739688Y-33902836D01*
X71775499Y-33769185D01*
X71775500Y-33769185D01*
X71775500Y-33630815D01*
X71775499Y-33630814D01*
X71772257Y-33618716D01*
X71739688Y-33497164D01*
X71670505Y-33377335D01*
X71572665Y-33279495D01*
X71452836Y-33210312D01*
X71452831Y-33210310D01*
X71319185Y-33174500D01*
X71319183Y-33174500D01*
X71180817Y-33174500D01*
X71180815Y-33174500D01*
X71047168Y-33210310D01*
X71047163Y-33210312D01*
X70927334Y-33279495D01*
X70829495Y-33377334D01*
X70760312Y-33497163D01*
X70760310Y-33497168D01*
X70724500Y-33630814D01*
X64612102Y-33630814D01*
X64589689Y-33547168D01*
X64589688Y-33547164D01*
X64520505Y-33427335D01*
X64422665Y-33329495D01*
X64302836Y-33260312D01*
X64302831Y-33260310D01*
X64169185Y-33224500D01*
X64169183Y-33224500D01*
X64139500Y-33224500D01*
X64087174Y-33202826D01*
X64065500Y-33150500D01*
X64065500Y-33130815D01*
X64065499Y-33130814D01*
X64055277Y-33092666D01*
X64029688Y-32997164D01*
X63960505Y-32877335D01*
X63862665Y-32779495D01*
X63742836Y-32710312D01*
X63742831Y-32710310D01*
X63609185Y-32674500D01*
X63609183Y-32674500D01*
X63599500Y-32674500D01*
X63547174Y-32652826D01*
X63525500Y-32600500D01*
X63525500Y-32580815D01*
X63525499Y-32580814D01*
X63512643Y-32532836D01*
X63489688Y-32447164D01*
X63420505Y-32327335D01*
X63353984Y-32260814D01*
X76964500Y-32260814D01*
X76964500Y-32399185D01*
X77000310Y-32532831D01*
X77000312Y-32532836D01*
X77069495Y-32652665D01*
X77167335Y-32750505D01*
X77287164Y-32819688D01*
X77420814Y-32855499D01*
X77420815Y-32855500D01*
X77420817Y-32855500D01*
X77559185Y-32855500D01*
X77559185Y-32855499D01*
X77692836Y-32819688D01*
X77812665Y-32750505D01*
X77910505Y-32652665D01*
X77979688Y-32532836D01*
X78015499Y-32399185D01*
X78015500Y-32399185D01*
X78015500Y-32260815D01*
X78015499Y-32260814D01*
X77979689Y-32127168D01*
X77979688Y-32127164D01*
X77910505Y-32007335D01*
X77812665Y-31909495D01*
X77692836Y-31840312D01*
X77692831Y-31840310D01*
X77559185Y-31804500D01*
X77559183Y-31804500D01*
X77420817Y-31804500D01*
X77420815Y-31804500D01*
X77287168Y-31840310D01*
X77287163Y-31840312D01*
X77167334Y-31909495D01*
X77069495Y-32007334D01*
X77000312Y-32127163D01*
X77000310Y-32127168D01*
X76964500Y-32260814D01*
X63353984Y-32260814D01*
X63322665Y-32229495D01*
X63202836Y-32160312D01*
X63202831Y-32160310D01*
X63069185Y-32124500D01*
X63069183Y-32124500D01*
X62930817Y-32124500D01*
X62930815Y-32124500D01*
X62797168Y-32160310D01*
X62797163Y-32160312D01*
X62677334Y-32229495D01*
X62579495Y-32327334D01*
X62510312Y-32447163D01*
X62510310Y-32447168D01*
X62474500Y-32580814D01*
X62474500Y-32610500D01*
X62452826Y-32662826D01*
X62405438Y-32682454D01*
X62405624Y-32683867D01*
X62400814Y-32684500D01*
X62267168Y-32720310D01*
X62267163Y-32720312D01*
X62147334Y-32789495D01*
X62049495Y-32887334D01*
X61980312Y-33007163D01*
X61980310Y-33007168D01*
X61944500Y-33140814D01*
X61944500Y-33150500D01*
X61922826Y-33202826D01*
X61870500Y-33224500D01*
X61830815Y-33224500D01*
X61697168Y-33260310D01*
X61697163Y-33260312D01*
X61577334Y-33329495D01*
X61479495Y-33427334D01*
X61410312Y-33547163D01*
X61410310Y-33547168D01*
X61374500Y-33680814D01*
X61374500Y-33819184D01*
X61378452Y-33833935D01*
X61371058Y-33890088D01*
X61326124Y-33924565D01*
X61269971Y-33917171D01*
X61254647Y-33905412D01*
X60834740Y-33485505D01*
X60834738Y-33485502D01*
X60718716Y-33369480D01*
X60610176Y-33306815D01*
X60610176Y-33306814D01*
X60610174Y-33306814D01*
X60581785Y-33290423D01*
X60581783Y-33290422D01*
X60581781Y-33290421D01*
X60429059Y-33249499D01*
X60429057Y-33249499D01*
X60270943Y-33249499D01*
X60266413Y-33249499D01*
X60266397Y-33249500D01*
X58679387Y-33249500D01*
X58627061Y-33227826D01*
X58230401Y-32831166D01*
X58208727Y-32778840D01*
X58211249Y-32759687D01*
X58213086Y-32752831D01*
X58235499Y-32669185D01*
X58235500Y-32669185D01*
X58235500Y-32530815D01*
X58235499Y-32530814D01*
X58226245Y-32496279D01*
X58199688Y-32397164D01*
X58130505Y-32277335D01*
X58032665Y-32179495D01*
X57912836Y-32110312D01*
X57912831Y-32110310D01*
X57779185Y-32074500D01*
X57779183Y-32074500D01*
X57640817Y-32074500D01*
X57640815Y-32074500D01*
X57507168Y-32110310D01*
X57507165Y-32110311D01*
X57507164Y-32110312D01*
X57477977Y-32127163D01*
X57459497Y-32137832D01*
X57403344Y-32145223D01*
X57385499Y-32137831D01*
X57337837Y-32110314D01*
X57337828Y-32110310D01*
X57204182Y-32074500D01*
X57204180Y-32074500D01*
X57065814Y-32074500D01*
X57065812Y-32074500D01*
X56932165Y-32110310D01*
X56932162Y-32110311D01*
X56932161Y-32110312D01*
X56902974Y-32127163D01*
X56884494Y-32137832D01*
X56828341Y-32145223D01*
X56810496Y-32137831D01*
X56762834Y-32110314D01*
X56762825Y-32110310D01*
X56629179Y-32074500D01*
X56629177Y-32074500D01*
X56490811Y-32074500D01*
X56490809Y-32074500D01*
X56357162Y-32110310D01*
X56357159Y-32110311D01*
X56357158Y-32110312D01*
X56327971Y-32127163D01*
X56309491Y-32137832D01*
X56253338Y-32145223D01*
X56235493Y-32137831D01*
X56187831Y-32110314D01*
X56187822Y-32110310D01*
X56054176Y-32074500D01*
X56054174Y-32074500D01*
X56004500Y-32074500D01*
X55952174Y-32052826D01*
X55930500Y-32000500D01*
X55930500Y-31482966D01*
X55952174Y-31430640D01*
X56410640Y-30972174D01*
X56462966Y-30950500D01*
X57315894Y-30950500D01*
X57315894Y-30950499D01*
X57443186Y-30916392D01*
X57557314Y-30850500D01*
X57935640Y-30472174D01*
X57987966Y-30450500D01*
X58039775Y-30450500D01*
X58092101Y-30472174D01*
X58113775Y-30524500D01*
X58111253Y-30543653D01*
X58110312Y-30547163D01*
X58110312Y-30547164D01*
X58107279Y-30558483D01*
X58074500Y-30680814D01*
X58074500Y-30819185D01*
X58110310Y-30952831D01*
X58110312Y-30952836D01*
X58179495Y-31072665D01*
X58277335Y-31170505D01*
X58397164Y-31239688D01*
X58530814Y-31275499D01*
X58530815Y-31275500D01*
X58530817Y-31275500D01*
X58669185Y-31275500D01*
X58669185Y-31275499D01*
X58802836Y-31239688D01*
X58922665Y-31170505D01*
X59020505Y-31072665D01*
X59089688Y-30952836D01*
X59125499Y-30819185D01*
X59125500Y-30819185D01*
X59125500Y-30680815D01*
X59125499Y-30680814D01*
X59120623Y-30662615D01*
X59089688Y-30547164D01*
X59089687Y-30547163D01*
X59088747Y-30543653D01*
X59096139Y-30487500D01*
X59141072Y-30453022D01*
X59160225Y-30450500D01*
X62412034Y-30450500D01*
X62464360Y-30472174D01*
X62842686Y-30850500D01*
X62956814Y-30916392D01*
X63084105Y-30950499D01*
X63084106Y-30950500D01*
X63084108Y-30950500D01*
X72295894Y-30950500D01*
X72295894Y-30950499D01*
X72423186Y-30916392D01*
X72537314Y-30850500D01*
X73746992Y-29640822D01*
X74599585Y-29640822D01*
X74599585Y-29779193D01*
X74635395Y-29912839D01*
X74635397Y-29912844D01*
X74704580Y-30032673D01*
X74802420Y-30130513D01*
X74922249Y-30199696D01*
X75055899Y-30235507D01*
X75055900Y-30235508D01*
X75055902Y-30235508D01*
X75194270Y-30235508D01*
X75194270Y-30235507D01*
X75327921Y-30199696D01*
X75384208Y-30167198D01*
X75440361Y-30159804D01*
X75458205Y-30167195D01*
X75497164Y-30189688D01*
X75497166Y-30189688D01*
X75497167Y-30189689D01*
X75534518Y-30199697D01*
X75630814Y-30225499D01*
X75630815Y-30225500D01*
X75630817Y-30225500D01*
X75769185Y-30225500D01*
X75769185Y-30225499D01*
X75902836Y-30189688D01*
X76022665Y-30120505D01*
X76120505Y-30022665D01*
X76189688Y-29902836D01*
X76199608Y-29865814D01*
X77274500Y-29865814D01*
X77274500Y-30004185D01*
X77310310Y-30137831D01*
X77310312Y-30137836D01*
X77379495Y-30257665D01*
X77477335Y-30355505D01*
X77597164Y-30424688D01*
X77730814Y-30460499D01*
X77730815Y-30460500D01*
X77730817Y-30460500D01*
X77869185Y-30460500D01*
X77869185Y-30460499D01*
X78002836Y-30424688D01*
X78122665Y-30355505D01*
X78220505Y-30257665D01*
X78289688Y-30137836D01*
X78325499Y-30004185D01*
X78325500Y-30004185D01*
X78325500Y-29865815D01*
X78325499Y-29865814D01*
X78320593Y-29847506D01*
X78289688Y-29732164D01*
X78220505Y-29612335D01*
X78122665Y-29514495D01*
X78002836Y-29445312D01*
X78002831Y-29445310D01*
X77869185Y-29409500D01*
X77869183Y-29409500D01*
X77730817Y-29409500D01*
X77730815Y-29409500D01*
X77597168Y-29445310D01*
X77597163Y-29445312D01*
X77477334Y-29514495D01*
X77379495Y-29612334D01*
X77310312Y-29732163D01*
X77310310Y-29732168D01*
X77274500Y-29865814D01*
X76199608Y-29865814D01*
X76225499Y-29769185D01*
X76225500Y-29769185D01*
X76225500Y-29630815D01*
X76225499Y-29630814D01*
X76222736Y-29620504D01*
X76189688Y-29497164D01*
X76120505Y-29377335D01*
X76022665Y-29279495D01*
X75902836Y-29210312D01*
X75902831Y-29210310D01*
X75769185Y-29174500D01*
X75769183Y-29174500D01*
X75630817Y-29174500D01*
X75630815Y-29174500D01*
X75497168Y-29210310D01*
X75497159Y-29210314D01*
X75440874Y-29242810D01*
X75384722Y-29250202D01*
X75366875Y-29242810D01*
X75327925Y-29220322D01*
X75327916Y-29220318D01*
X75194270Y-29184508D01*
X75194268Y-29184508D01*
X75055902Y-29184508D01*
X75055900Y-29184508D01*
X74922253Y-29220318D01*
X74922248Y-29220320D01*
X74802419Y-29289503D01*
X74704580Y-29387342D01*
X74635397Y-29507171D01*
X74635395Y-29507176D01*
X74599585Y-29640822D01*
X73746992Y-29640822D01*
X74957000Y-28430814D01*
X77944500Y-28430814D01*
X77944500Y-28569185D01*
X77980310Y-28702831D01*
X77980312Y-28702836D01*
X78049495Y-28822665D01*
X78147335Y-28920505D01*
X78267164Y-28989688D01*
X78400814Y-29025499D01*
X78400815Y-29025500D01*
X78400817Y-29025500D01*
X78539185Y-29025500D01*
X78539185Y-29025499D01*
X78672836Y-28989688D01*
X78792665Y-28920505D01*
X78890505Y-28822665D01*
X78959688Y-28702836D01*
X78995499Y-28569185D01*
X78995500Y-28569185D01*
X78995500Y-28430815D01*
X78995499Y-28430814D01*
X78988002Y-28402836D01*
X78959688Y-28297164D01*
X78909866Y-28210869D01*
X78902474Y-28154716D01*
X78918389Y-28127156D01*
X78917552Y-28126514D01*
X78920503Y-28122667D01*
X78920505Y-28122665D01*
X78989688Y-28002836D01*
X79025499Y-27869185D01*
X79025500Y-27869185D01*
X79025500Y-27730815D01*
X79025499Y-27730814D01*
X79017510Y-27701000D01*
X78989688Y-27597164D01*
X78920505Y-27477335D01*
X78822665Y-27379495D01*
X78702836Y-27310312D01*
X78702831Y-27310310D01*
X78569185Y-27274500D01*
X78569183Y-27274500D01*
X78430817Y-27274500D01*
X78430815Y-27274500D01*
X78297168Y-27310310D01*
X78297163Y-27310312D01*
X78177334Y-27379495D01*
X78079495Y-27477334D01*
X78010312Y-27597163D01*
X78010310Y-27597168D01*
X77974500Y-27730814D01*
X77974500Y-27869185D01*
X78010310Y-28002831D01*
X78010314Y-28002840D01*
X78060133Y-28089131D01*
X78067525Y-28145283D01*
X78051615Y-28172846D01*
X78052448Y-28173486D01*
X78049496Y-28177332D01*
X77980312Y-28297163D01*
X77980310Y-28297168D01*
X77944500Y-28430814D01*
X74957000Y-28430814D01*
X76282629Y-27105184D01*
X76334954Y-27083511D01*
X76387280Y-27105185D01*
X76406432Y-27138356D01*
X76410310Y-27152831D01*
X76410312Y-27152836D01*
X76479495Y-27272665D01*
X76577335Y-27370505D01*
X76697164Y-27439688D01*
X76830814Y-27475499D01*
X76830815Y-27475500D01*
X76830817Y-27475500D01*
X76969185Y-27475500D01*
X76969185Y-27475499D01*
X77102836Y-27439688D01*
X77222665Y-27370505D01*
X77320505Y-27272665D01*
X77389688Y-27152836D01*
X77425499Y-27019185D01*
X77425500Y-27019185D01*
X77425500Y-26880815D01*
X77425499Y-26880814D01*
X77422736Y-26870504D01*
X77389688Y-26747164D01*
X77320505Y-26627335D01*
X77222665Y-26529495D01*
X77102836Y-26460312D01*
X77102834Y-26460311D01*
X77088356Y-26456432D01*
X77043424Y-26421952D01*
X77036033Y-26365799D01*
X77055183Y-26332630D01*
X77858829Y-25528984D01*
X77911154Y-25507311D01*
X77963480Y-25528985D01*
X77985154Y-25581311D01*
X77982633Y-25600463D01*
X77974500Y-25630817D01*
X77974500Y-25769185D01*
X78010310Y-25902831D01*
X78010312Y-25902836D01*
X78079495Y-26022665D01*
X78177335Y-26120505D01*
X78297164Y-26189688D01*
X78430814Y-26225499D01*
X78430815Y-26225500D01*
X78430817Y-26225500D01*
X78569185Y-26225500D01*
X78569185Y-26225499D01*
X78702836Y-26189688D01*
X78822665Y-26120505D01*
X78920505Y-26022665D01*
X78989688Y-25902836D01*
X79025499Y-25769185D01*
X79025500Y-25769185D01*
X79025500Y-25630815D01*
X79025499Y-25630814D01*
X79011179Y-25577372D01*
X78989688Y-25497164D01*
X78920505Y-25377335D01*
X78822665Y-25279495D01*
X78702836Y-25210312D01*
X78702831Y-25210310D01*
X78569185Y-25174500D01*
X78569183Y-25174500D01*
X78430817Y-25174500D01*
X78400463Y-25182633D01*
X78344310Y-25175239D01*
X78309832Y-25130306D01*
X78317226Y-25074153D01*
X78328981Y-25058832D01*
X78456999Y-24930814D01*
X81374500Y-24930814D01*
X81374500Y-25069185D01*
X81410310Y-25202831D01*
X81410312Y-25202836D01*
X81479495Y-25322665D01*
X81577335Y-25420505D01*
X81697164Y-25489688D01*
X81830814Y-25525499D01*
X81830815Y-25525500D01*
X81830817Y-25525500D01*
X81969185Y-25525500D01*
X81969185Y-25525499D01*
X82102836Y-25489688D01*
X82222665Y-25420505D01*
X82320505Y-25322665D01*
X82389688Y-25202836D01*
X82425499Y-25069185D01*
X82425500Y-25069185D01*
X82425500Y-24930815D01*
X82425499Y-24930814D01*
X82422736Y-24920504D01*
X82389688Y-24797164D01*
X82320505Y-24677335D01*
X82222665Y-24579495D01*
X82102836Y-24510312D01*
X82102831Y-24510310D01*
X81969185Y-24474500D01*
X81969183Y-24474500D01*
X81830817Y-24474500D01*
X81830815Y-24474500D01*
X81697168Y-24510310D01*
X81697163Y-24510312D01*
X81577334Y-24579495D01*
X81479495Y-24677334D01*
X81410312Y-24797163D01*
X81410310Y-24797168D01*
X81374500Y-24930814D01*
X78456999Y-24930814D01*
X82145640Y-21242174D01*
X82197966Y-21220500D01*
X86132034Y-21220500D01*
X86184360Y-21242174D01*
X87417826Y-22475639D01*
X87439500Y-22527965D01*
X87439500Y-30655894D01*
X87473606Y-30783181D01*
X87473610Y-30783190D01*
X87539500Y-30897314D01*
X88749500Y-32107314D01*
X88842686Y-32200500D01*
X88892907Y-32229495D01*
X88947152Y-32260814D01*
X88956814Y-32266392D01*
X88956815Y-32266392D01*
X88956817Y-32266393D01*
X88997650Y-32277334D01*
X89084104Y-32300499D01*
X89084105Y-32300500D01*
X89084107Y-32300500D01*
X89084108Y-32300500D01*
X91276377Y-32300500D01*
X91328703Y-32322174D01*
X91350377Y-32374500D01*
X91347855Y-32393653D01*
X91324500Y-32480814D01*
X91324500Y-32619185D01*
X91360310Y-32752831D01*
X91360312Y-32752836D01*
X91429495Y-32872665D01*
X91527335Y-32970505D01*
X91647164Y-33039688D01*
X91780814Y-33075499D01*
X91780815Y-33075500D01*
X91780817Y-33075500D01*
X91919185Y-33075500D01*
X91919185Y-33075499D01*
X92052836Y-33039688D01*
X92172665Y-32970505D01*
X92270505Y-32872665D01*
X92339688Y-32752836D01*
X92354134Y-32698922D01*
X92388610Y-32653992D01*
X92444763Y-32646598D01*
X92477937Y-32665751D01*
X93074309Y-33262123D01*
X93086069Y-33277449D01*
X93108118Y-33315639D01*
X93129495Y-33352665D01*
X93227335Y-33450505D01*
X93347164Y-33519688D01*
X93480814Y-33555499D01*
X93480815Y-33555500D01*
X93480817Y-33555500D01*
X93619185Y-33555500D01*
X93619185Y-33555499D01*
X93752836Y-33519688D01*
X93872665Y-33450505D01*
X93970505Y-33352665D01*
X94039688Y-33232836D01*
X94075499Y-33099185D01*
X94075500Y-33099185D01*
X94075500Y-32960815D01*
X94075499Y-32960814D01*
X94065793Y-32924592D01*
X94039688Y-32827164D01*
X93970505Y-32707335D01*
X93872665Y-32609495D01*
X93822988Y-32580814D01*
X93797449Y-32566069D01*
X93782123Y-32554309D01*
X92627314Y-31399500D01*
X92513190Y-31333610D01*
X92513181Y-31333606D01*
X92385894Y-31299500D01*
X92385892Y-31299500D01*
X89387966Y-31299500D01*
X89335640Y-31277826D01*
X88462174Y-30404360D01*
X88440500Y-30352034D01*
X88440500Y-29662322D01*
X88462174Y-29609996D01*
X88514500Y-29588322D01*
X88566826Y-29609996D01*
X88577335Y-29620505D01*
X88697164Y-29689688D01*
X88830814Y-29725499D01*
X88830815Y-29725500D01*
X88830817Y-29725500D01*
X88969185Y-29725500D01*
X88969185Y-29725499D01*
X89102836Y-29689688D01*
X89222665Y-29620505D01*
X89231750Y-29611420D01*
X90094501Y-29611420D01*
X90094501Y-29788579D01*
X90122215Y-29963554D01*
X90122217Y-29963565D01*
X90176957Y-30132039D01*
X90176959Y-30132043D01*
X90257385Y-30289886D01*
X90257388Y-30289892D01*
X90355323Y-30424688D01*
X90361518Y-30433214D01*
X90486787Y-30558483D01*
X90486790Y-30558485D01*
X90486791Y-30558486D01*
X90626975Y-30660336D01*
X90630111Y-30662614D01*
X90747333Y-30722342D01*
X90787957Y-30743041D01*
X90787961Y-30743043D01*
X90956435Y-30797783D01*
X90956439Y-30797783D01*
X90956446Y-30797786D01*
X91107496Y-30821710D01*
X91131421Y-30825500D01*
X91131422Y-30825500D01*
X91308581Y-30825500D01*
X91329627Y-30822166D01*
X91483556Y-30797786D01*
X91483564Y-30797783D01*
X91483566Y-30797783D01*
X91652040Y-30743043D01*
X91652040Y-30743042D01*
X91652043Y-30743042D01*
X91809891Y-30662614D01*
X91953215Y-30558483D01*
X92078484Y-30433214D01*
X92182615Y-30289890D01*
X92263043Y-30132042D01*
X92304586Y-30004185D01*
X92317784Y-29963565D01*
X92317784Y-29963563D01*
X92317787Y-29963555D01*
X92345501Y-29788579D01*
X92345501Y-29611421D01*
X92345316Y-29610252D01*
X92337618Y-29561647D01*
X92336168Y-29552494D01*
X94049500Y-29552494D01*
X94049500Y-29847506D01*
X94051911Y-29865817D01*
X94088006Y-30139991D01*
X94164361Y-30424953D01*
X94277253Y-30697498D01*
X94277256Y-30697506D01*
X94423322Y-30950500D01*
X94424762Y-30952994D01*
X94604354Y-31187042D01*
X94812958Y-31395646D01*
X95047006Y-31575238D01*
X95302493Y-31722743D01*
X95575048Y-31835639D01*
X95860007Y-31911993D01*
X96152494Y-31950500D01*
X96152496Y-31950500D01*
X96447504Y-31950500D01*
X96447506Y-31950500D01*
X96739993Y-31911993D01*
X97024952Y-31835639D01*
X97297507Y-31722743D01*
X97552994Y-31575238D01*
X97787042Y-31395646D01*
X97995646Y-31187042D01*
X98175238Y-30952994D01*
X98322743Y-30697507D01*
X98435639Y-30424952D01*
X98511993Y-30139993D01*
X98550500Y-29847506D01*
X98550500Y-29611420D01*
X100254499Y-29611420D01*
X100254499Y-29788579D01*
X100282213Y-29963554D01*
X100282215Y-29963565D01*
X100336955Y-30132039D01*
X100336957Y-30132043D01*
X100417383Y-30289886D01*
X100417386Y-30289892D01*
X100515321Y-30424688D01*
X100521516Y-30433214D01*
X100646785Y-30558483D01*
X100646788Y-30558485D01*
X100646789Y-30558486D01*
X100786973Y-30660336D01*
X100790109Y-30662614D01*
X100907331Y-30722342D01*
X100947955Y-30743041D01*
X100947959Y-30743043D01*
X101116433Y-30797783D01*
X101116437Y-30797783D01*
X101116444Y-30797786D01*
X101267494Y-30821710D01*
X101291419Y-30825500D01*
X101291420Y-30825500D01*
X101468579Y-30825500D01*
X101489625Y-30822166D01*
X101643554Y-30797786D01*
X101643562Y-30797783D01*
X101643564Y-30797783D01*
X101812038Y-30743043D01*
X101812038Y-30743042D01*
X101812041Y-30743042D01*
X101969889Y-30662614D01*
X102113213Y-30558483D01*
X102238482Y-30433214D01*
X102342613Y-30289890D01*
X102423041Y-30132042D01*
X102464584Y-30004185D01*
X102477782Y-29963565D01*
X102477782Y-29963563D01*
X102477785Y-29963555D01*
X102505499Y-29788579D01*
X102505499Y-29611421D01*
X102477785Y-29436445D01*
X102477782Y-29436438D01*
X102477782Y-29436434D01*
X102423042Y-29267960D01*
X102423040Y-29267956D01*
X102398592Y-29219975D01*
X102342613Y-29110110D01*
X102332425Y-29096088D01*
X102238485Y-28966790D01*
X102238484Y-28966789D01*
X102238482Y-28966786D01*
X102113213Y-28841517D01*
X102113210Y-28841514D01*
X102113208Y-28841513D01*
X101969891Y-28737387D01*
X101969885Y-28737384D01*
X101812042Y-28656958D01*
X101812038Y-28656956D01*
X101643564Y-28602216D01*
X101643555Y-28602214D01*
X101643554Y-28602214D01*
X101514857Y-28581830D01*
X101468579Y-28574500D01*
X101468578Y-28574500D01*
X101291420Y-28574500D01*
X101291419Y-28574500D01*
X101116444Y-28602214D01*
X101116433Y-28602216D01*
X100947959Y-28656956D01*
X100947955Y-28656958D01*
X100790112Y-28737384D01*
X100790106Y-28737387D01*
X100646789Y-28841513D01*
X100521512Y-28966790D01*
X100417386Y-29110107D01*
X100417383Y-29110113D01*
X100336957Y-29267956D01*
X100336955Y-29267960D01*
X100282215Y-29436434D01*
X100282213Y-29436445D01*
X100254499Y-29611420D01*
X98550500Y-29611420D01*
X98550500Y-29552494D01*
X98511993Y-29260007D01*
X98435639Y-28975048D01*
X98322743Y-28702493D01*
X98175238Y-28447006D01*
X97995646Y-28212958D01*
X97787042Y-28004354D01*
X97552994Y-27824762D01*
X97527966Y-27810312D01*
X97297506Y-27677256D01*
X97297498Y-27677253D01*
X97024953Y-27564361D01*
X96739991Y-27488006D01*
X96524518Y-27459638D01*
X96447506Y-27449500D01*
X96152494Y-27449500D01*
X96084441Y-27458459D01*
X95860008Y-27488006D01*
X95575046Y-27564361D01*
X95302501Y-27677253D01*
X95302493Y-27677256D01*
X95047010Y-27824759D01*
X95047006Y-27824761D01*
X95047006Y-27824762D01*
X94814937Y-28002836D01*
X94812953Y-28004358D01*
X94604358Y-28212953D01*
X94604354Y-28212957D01*
X94604354Y-28212958D01*
X94484478Y-28369183D01*
X94424759Y-28447010D01*
X94277256Y-28702493D01*
X94277253Y-28702501D01*
X94164361Y-28975046D01*
X94088006Y-29260008D01*
X94056784Y-29497164D01*
X94049500Y-29552494D01*
X92336168Y-29552494D01*
X92325257Y-29483608D01*
X92317787Y-29436445D01*
X92317784Y-29436438D01*
X92317784Y-29436434D01*
X92292094Y-29357367D01*
X92296538Y-29300904D01*
X92339605Y-29264122D01*
X92362472Y-29260500D01*
X92627672Y-29260500D01*
X92627674Y-29260500D01*
X92900666Y-29224560D01*
X93166632Y-29153295D01*
X93421021Y-29047923D01*
X93659479Y-28910249D01*
X93801778Y-28801060D01*
X93877922Y-28742633D01*
X93877923Y-28742631D01*
X93877928Y-28742628D01*
X94072628Y-28547928D01*
X94077858Y-28541113D01*
X94162490Y-28430817D01*
X94240249Y-28329479D01*
X94377923Y-28091021D01*
X94483295Y-27836632D01*
X94554560Y-27570666D01*
X94590500Y-27297674D01*
X94590500Y-27022326D01*
X94554560Y-26749334D01*
X94483295Y-26483368D01*
X94377923Y-26228979D01*
X94355238Y-26189687D01*
X94240251Y-25990524D01*
X94240247Y-25990518D01*
X94072633Y-25772077D01*
X93877922Y-25577366D01*
X93659481Y-25409752D01*
X93659475Y-25409748D01*
X93421020Y-25272076D01*
X93421017Y-25272075D01*
X93166631Y-25166704D01*
X92900664Y-25095439D01*
X92699552Y-25068962D01*
X92627674Y-25059500D01*
X92352326Y-25059500D01*
X92288810Y-25067862D01*
X92079335Y-25095439D01*
X91813368Y-25166704D01*
X91558982Y-25272075D01*
X91558979Y-25272076D01*
X91320524Y-25409748D01*
X91320518Y-25409752D01*
X91102077Y-25577366D01*
X90907366Y-25772077D01*
X90739752Y-25990518D01*
X90739748Y-25990524D01*
X90602076Y-26228979D01*
X90602075Y-26228982D01*
X90496704Y-26483368D01*
X90425439Y-26749335D01*
X90397664Y-26960312D01*
X90390687Y-27013314D01*
X90389500Y-27022327D01*
X90389500Y-27297672D01*
X90425439Y-27570664D01*
X90496704Y-27836631D01*
X90602075Y-28091017D01*
X90602076Y-28091020D01*
X90739748Y-28329475D01*
X90739752Y-28329481D01*
X90886765Y-28521073D01*
X90901424Y-28575780D01*
X90873105Y-28624829D01*
X90850924Y-28636499D01*
X90787962Y-28656956D01*
X90787957Y-28656958D01*
X90630114Y-28737384D01*
X90630108Y-28737387D01*
X90486791Y-28841513D01*
X90361514Y-28966790D01*
X90257388Y-29110107D01*
X90257385Y-29110113D01*
X90176959Y-29267956D01*
X90176957Y-29267960D01*
X90122217Y-29436434D01*
X90122215Y-29436445D01*
X90094501Y-29611420D01*
X89231750Y-29611420D01*
X89320505Y-29522665D01*
X89389688Y-29402836D01*
X89425499Y-29269185D01*
X89425500Y-29269185D01*
X89425500Y-29130815D01*
X89425499Y-29130814D01*
X89425016Y-29129013D01*
X89389688Y-28997164D01*
X89320505Y-28877335D01*
X89222665Y-28779495D01*
X89102836Y-28710312D01*
X89102831Y-28710310D01*
X88969185Y-28674500D01*
X88969183Y-28674500D01*
X88830817Y-28674500D01*
X88830815Y-28674500D01*
X88697168Y-28710310D01*
X88697163Y-28710312D01*
X88577334Y-28779495D01*
X88566826Y-28790004D01*
X88514500Y-28811678D01*
X88462174Y-28790004D01*
X88440500Y-28737678D01*
X88440500Y-24482326D01*
X96739500Y-24482326D01*
X96739500Y-24757674D01*
X96747858Y-24821158D01*
X96775439Y-25030664D01*
X96846704Y-25296631D01*
X96952075Y-25551017D01*
X96952076Y-25551020D01*
X97089748Y-25789475D01*
X97089752Y-25789481D01*
X97257366Y-26007922D01*
X97452077Y-26202633D01*
X97670518Y-26370247D01*
X97670524Y-26370251D01*
X97896122Y-26500500D01*
X97908979Y-26507923D01*
X98163368Y-26613295D01*
X98429334Y-26684560D01*
X98702326Y-26720500D01*
X98702328Y-26720500D01*
X98977672Y-26720500D01*
X98977674Y-26720500D01*
X99250666Y-26684560D01*
X99516632Y-26613295D01*
X99771021Y-26507923D01*
X100009479Y-26370249D01*
X100189295Y-26232272D01*
X100227922Y-26202633D01*
X100227923Y-26202631D01*
X100227928Y-26202628D01*
X100422628Y-26007928D01*
X100435983Y-25990524D01*
X100590247Y-25789481D01*
X100590249Y-25789479D01*
X100727923Y-25551021D01*
X100833295Y-25296632D01*
X100904560Y-25030666D01*
X100940500Y-24757674D01*
X100940500Y-24482326D01*
X100904560Y-24209334D01*
X100833295Y-23943368D01*
X100727923Y-23688979D01*
X100590249Y-23450521D01*
X100571050Y-23425500D01*
X100422633Y-23232077D01*
X100227922Y-23037366D01*
X100009481Y-22869752D01*
X100009475Y-22869748D01*
X99771020Y-22732076D01*
X99771017Y-22732075D01*
X99516631Y-22626704D01*
X99250664Y-22555439D01*
X99041972Y-22527965D01*
X98977674Y-22519500D01*
X98702326Y-22519500D01*
X98638810Y-22527862D01*
X98429335Y-22555439D01*
X98163368Y-22626704D01*
X97908982Y-22732075D01*
X97908979Y-22732076D01*
X97670524Y-22869748D01*
X97670518Y-22869752D01*
X97452077Y-23037366D01*
X97257366Y-23232077D01*
X97089752Y-23450518D01*
X97089748Y-23450524D01*
X96952076Y-23688979D01*
X96952075Y-23688982D01*
X96846704Y-23943368D01*
X96775439Y-24209335D01*
X96746281Y-24430817D01*
X96739500Y-24482326D01*
X88440500Y-24482326D01*
X88440500Y-22224107D01*
X88439401Y-22220008D01*
X88439402Y-22220000D01*
X88439399Y-22220001D01*
X88439399Y-22220000D01*
X88406392Y-22096814D01*
X88393986Y-22075327D01*
X88377729Y-22047168D01*
X88377725Y-22047163D01*
X88371735Y-22036787D01*
X88340500Y-21982686D01*
X88247314Y-21889500D01*
X88244735Y-21886921D01*
X88244724Y-21886911D01*
X87466917Y-21109104D01*
X86684638Y-20326824D01*
X86662965Y-20274500D01*
X86684639Y-20222174D01*
X86736965Y-20200500D01*
X103932118Y-20200500D01*
X103984444Y-20222174D01*
X104006118Y-20274500D01*
X103996661Y-20310696D01*
X103956225Y-20382798D01*
X103956223Y-20382802D01*
X103884308Y-20587250D01*
X103880442Y-20610418D01*
X103848632Y-20801020D01*
X103848632Y-20801022D01*
X103848632Y-20801023D01*
X103850257Y-21017738D01*
X103889136Y-21230948D01*
X103964108Y-21434292D01*
X103964109Y-21434295D01*
X104072938Y-21621707D01*
X104072940Y-21621710D01*
X104212386Y-21787614D01*
X104378290Y-21927060D01*
X104380885Y-21928567D01*
X104565704Y-22035890D01*
X104565705Y-22035890D01*
X104565708Y-22035892D01*
X104769052Y-22110864D01*
X104982261Y-22149742D01*
X105198980Y-22151368D01*
X105412748Y-22115692D01*
X105617194Y-22043778D01*
X105689305Y-22003337D01*
X105745544Y-21996647D01*
X105790043Y-22031684D01*
X105799500Y-22067881D01*
X105799500Y-37332117D01*
X105777826Y-37384443D01*
X105725500Y-37406117D01*
X105689304Y-37396661D01*
X105624487Y-37360312D01*
X105617194Y-37356222D01*
X105617193Y-37356221D01*
X105617192Y-37356221D01*
X105617187Y-37356219D01*
X105412749Y-37284308D01*
X105353979Y-37274500D01*
X105198980Y-37248632D01*
X105198976Y-37248632D01*
X104982261Y-37250257D01*
X104769051Y-37289136D01*
X104565707Y-37364108D01*
X104565704Y-37364109D01*
X104378292Y-37472938D01*
X104212386Y-37612386D01*
X104072938Y-37778292D01*
X103964109Y-37965704D01*
X103964108Y-37965707D01*
X103889136Y-38169051D01*
X103850257Y-38382261D01*
X103848978Y-38552831D01*
X103848632Y-38598980D01*
X103869274Y-38722665D01*
X103884308Y-38812749D01*
X103956219Y-39017187D01*
X103956225Y-39017201D01*
X103996660Y-39089303D01*
X104003351Y-39145544D01*
X103968313Y-39190042D01*
X103932117Y-39199499D01*
X22067883Y-39199499D01*
X22015557Y-39177825D01*
X21993883Y-39125499D01*
X22003340Y-39089303D01*
X22043775Y-39017199D01*
X22043774Y-39017199D01*
X22043779Y-39017192D01*
X22050543Y-38997964D01*
X22115691Y-38812749D01*
X22115692Y-38812746D01*
X22151368Y-38598978D01*
X22149742Y-38382259D01*
X22148509Y-38375500D01*
X22120246Y-38220505D01*
X22110863Y-38169051D01*
X22035891Y-37965707D01*
X22023439Y-37944264D01*
X21927060Y-37778289D01*
X21927059Y-37778288D01*
X21900899Y-37747165D01*
X21787613Y-37612385D01*
X21621709Y-37472939D01*
X21501870Y-37403350D01*
X21434294Y-37364109D01*
X21434291Y-37364108D01*
X21230947Y-37289136D01*
X21017737Y-37250257D01*
X20801022Y-37248632D01*
X20801021Y-37248632D01*
X20801019Y-37248632D01*
X20672758Y-37270037D01*
X20587249Y-37284308D01*
X20382804Y-37356222D01*
X20310696Y-37396661D01*
X20254455Y-37403350D01*
X20209956Y-37368313D01*
X20200500Y-37332117D01*
X20200500Y-29611420D01*
X23494501Y-29611420D01*
X23494501Y-29788579D01*
X23522215Y-29963554D01*
X23522217Y-29963565D01*
X23576957Y-30132039D01*
X23576959Y-30132043D01*
X23657385Y-30289886D01*
X23657388Y-30289892D01*
X23755323Y-30424688D01*
X23761518Y-30433214D01*
X23886787Y-30558483D01*
X23886790Y-30558485D01*
X23886791Y-30558486D01*
X24026975Y-30660336D01*
X24030111Y-30662614D01*
X24147333Y-30722342D01*
X24187957Y-30743041D01*
X24187961Y-30743043D01*
X24356435Y-30797783D01*
X24356439Y-30797783D01*
X24356446Y-30797786D01*
X24507496Y-30821710D01*
X24531421Y-30825500D01*
X24531422Y-30825500D01*
X24708581Y-30825500D01*
X24729627Y-30822166D01*
X24883556Y-30797786D01*
X24883564Y-30797783D01*
X24883566Y-30797783D01*
X25052040Y-30743043D01*
X25052040Y-30743042D01*
X25052043Y-30743042D01*
X25209891Y-30662614D01*
X25353215Y-30558483D01*
X25478484Y-30433214D01*
X25582615Y-30289890D01*
X25663043Y-30132042D01*
X25704586Y-30004185D01*
X25717784Y-29963565D01*
X25717784Y-29963563D01*
X25717787Y-29963555D01*
X25745501Y-29788579D01*
X25745501Y-29611421D01*
X25717787Y-29436445D01*
X25717784Y-29436438D01*
X25717784Y-29436434D01*
X25692094Y-29357367D01*
X25696538Y-29300904D01*
X25739605Y-29264122D01*
X25762472Y-29260500D01*
X26027672Y-29260500D01*
X26027674Y-29260500D01*
X26300666Y-29224560D01*
X26566632Y-29153295D01*
X26821021Y-29047923D01*
X27059479Y-28910249D01*
X27201778Y-28801060D01*
X27277922Y-28742633D01*
X27277923Y-28742631D01*
X27277928Y-28742628D01*
X27472628Y-28547928D01*
X27477858Y-28541113D01*
X27562490Y-28430817D01*
X27640249Y-28329479D01*
X27777923Y-28091021D01*
X27883295Y-27836632D01*
X27954560Y-27570666D01*
X27990500Y-27297674D01*
X27990500Y-27022326D01*
X27982336Y-26960312D01*
X27979271Y-26937031D01*
X27978478Y-26931008D01*
X40299500Y-26931008D01*
X40299500Y-27068991D01*
X40326418Y-27204322D01*
X40326421Y-27204332D01*
X40379223Y-27331808D01*
X40451305Y-27439687D01*
X40455886Y-27446542D01*
X40553458Y-27544114D01*
X40668189Y-27620775D01*
X40668190Y-27620775D01*
X40668191Y-27620776D01*
X40745591Y-27652836D01*
X40795672Y-27673580D01*
X40931007Y-27700500D01*
X40931009Y-27700500D01*
X41068991Y-27700500D01*
X41068993Y-27700500D01*
X41204328Y-27673580D01*
X41331811Y-27620775D01*
X41446542Y-27544114D01*
X41544114Y-27446542D01*
X41620775Y-27331811D01*
X41673580Y-27204328D01*
X41700500Y-27068993D01*
X41700500Y-26931007D01*
X41673580Y-26795672D01*
X41659795Y-26762391D01*
X41620776Y-26668191D01*
X41544116Y-26553461D01*
X41544114Y-26553458D01*
X41446542Y-26455886D01*
X41395756Y-26421952D01*
X41331808Y-26379223D01*
X41204332Y-26326421D01*
X41204322Y-26326418D01*
X41113694Y-26308391D01*
X41068993Y-26299500D01*
X40931007Y-26299500D01*
X40892642Y-26307131D01*
X40795677Y-26326418D01*
X40795667Y-26326421D01*
X40668191Y-26379223D01*
X40553461Y-26455883D01*
X40455883Y-26553461D01*
X40379223Y-26668191D01*
X40326421Y-26795667D01*
X40326418Y-26795677D01*
X40303945Y-26908656D01*
X40300231Y-26927335D01*
X40299500Y-26931008D01*
X27978478Y-26931008D01*
X27960661Y-26795677D01*
X27954560Y-26749334D01*
X27883295Y-26483368D01*
X27777923Y-26228979D01*
X27755238Y-26189687D01*
X27640251Y-25990524D01*
X27640247Y-25990518D01*
X27472633Y-25772077D01*
X27277922Y-25577366D01*
X27059481Y-25409752D01*
X27059475Y-25409748D01*
X26821020Y-25272076D01*
X26821017Y-25272075D01*
X26566631Y-25166704D01*
X26300664Y-25095439D01*
X26099552Y-25068962D01*
X26027674Y-25059500D01*
X25752326Y-25059500D01*
X25688810Y-25067862D01*
X25479335Y-25095439D01*
X25213368Y-25166704D01*
X24958982Y-25272075D01*
X24958979Y-25272076D01*
X24720524Y-25409748D01*
X24720518Y-25409752D01*
X24502077Y-25577366D01*
X24307366Y-25772077D01*
X24139752Y-25990518D01*
X24139748Y-25990524D01*
X24002076Y-26228979D01*
X24002075Y-26228982D01*
X23896704Y-26483368D01*
X23825439Y-26749335D01*
X23797664Y-26960312D01*
X23790687Y-27013314D01*
X23789500Y-27022327D01*
X23789500Y-27297672D01*
X23825439Y-27570664D01*
X23896704Y-27836631D01*
X24002075Y-28091017D01*
X24002076Y-28091020D01*
X24139748Y-28329475D01*
X24139752Y-28329481D01*
X24286765Y-28521073D01*
X24301424Y-28575780D01*
X24273105Y-28624829D01*
X24250924Y-28636499D01*
X24187962Y-28656956D01*
X24187957Y-28656958D01*
X24030114Y-28737384D01*
X24030108Y-28737387D01*
X23886791Y-28841513D01*
X23761514Y-28966790D01*
X23657388Y-29110107D01*
X23657385Y-29110113D01*
X23576959Y-29267956D01*
X23576957Y-29267960D01*
X23522217Y-29436434D01*
X23522215Y-29436445D01*
X23494501Y-29611420D01*
X20200500Y-29611420D01*
X20200500Y-24430814D01*
X22574500Y-24430814D01*
X22574500Y-24569185D01*
X22610310Y-24702831D01*
X22610312Y-24702836D01*
X22679495Y-24822665D01*
X22777335Y-24920505D01*
X22897164Y-24989688D01*
X23030814Y-25025499D01*
X23030815Y-25025500D01*
X23030817Y-25025500D01*
X23169185Y-25025500D01*
X23169185Y-25025499D01*
X23302836Y-24989688D01*
X23422665Y-24920505D01*
X23520505Y-24822665D01*
X23589688Y-24702836D01*
X23625499Y-24569185D01*
X23625500Y-24569185D01*
X23625500Y-24482326D01*
X30139500Y-24482326D01*
X30139500Y-24757674D01*
X30147858Y-24821158D01*
X30175439Y-25030664D01*
X30246704Y-25296631D01*
X30352075Y-25551017D01*
X30352076Y-25551020D01*
X30489748Y-25789475D01*
X30489752Y-25789481D01*
X30657366Y-26007922D01*
X30852077Y-26202633D01*
X31070518Y-26370247D01*
X31070524Y-26370251D01*
X31296122Y-26500500D01*
X31308979Y-26507923D01*
X31563368Y-26613295D01*
X31829334Y-26684560D01*
X32102326Y-26720500D01*
X32102328Y-26720500D01*
X32377672Y-26720500D01*
X32377674Y-26720500D01*
X32650666Y-26684560D01*
X32916632Y-26613295D01*
X33171021Y-26507923D01*
X33409479Y-26370249D01*
X33589295Y-26232272D01*
X33627922Y-26202633D01*
X33627923Y-26202631D01*
X33627928Y-26202628D01*
X33822628Y-26007928D01*
X33835983Y-25990524D01*
X33990247Y-25789481D01*
X33990249Y-25789479D01*
X34127923Y-25551021D01*
X34233295Y-25296632D01*
X34304560Y-25030666D01*
X34340500Y-24757674D01*
X34340500Y-24482326D01*
X34304560Y-24209334D01*
X34233295Y-23943368D01*
X34127923Y-23688979D01*
X33990249Y-23450521D01*
X33971050Y-23425500D01*
X33822633Y-23232077D01*
X33627922Y-23037366D01*
X33472495Y-22918104D01*
X41999500Y-22918104D01*
X42006078Y-22972875D01*
X42010124Y-23006564D01*
X42018315Y-23027334D01*
X42065639Y-23147341D01*
X42124124Y-23224464D01*
X42157079Y-23267922D01*
X42277659Y-23359361D01*
X42418437Y-23414877D01*
X42489765Y-23423442D01*
X42506897Y-23425500D01*
X42506899Y-23425500D01*
X43293105Y-23425500D01*
X43308723Y-23423624D01*
X43381565Y-23414877D01*
X43522343Y-23359361D01*
X43642923Y-23267922D01*
X43734362Y-23147342D01*
X43789878Y-23006564D01*
X43800058Y-22921789D01*
X43800501Y-22918104D01*
X43800501Y-21886309D01*
X43999502Y-21886309D01*
X43999502Y-22613691D01*
X44002091Y-22626705D01*
X44034106Y-22787660D01*
X44034109Y-22787670D01*
X44101987Y-22951544D01*
X44180961Y-23069737D01*
X44200538Y-23099035D01*
X44325967Y-23224464D01*
X44473455Y-23323013D01*
X44473456Y-23323013D01*
X44473457Y-23323014D01*
X44637331Y-23390892D01*
X44637336Y-23390894D01*
X44811311Y-23425500D01*
X44811313Y-23425500D01*
X44988691Y-23425500D01*
X44988693Y-23425500D01*
X45162668Y-23390894D01*
X45326549Y-23323013D01*
X45474037Y-23224464D01*
X45599466Y-23099035D01*
X45698015Y-22951547D01*
X45765896Y-22787666D01*
X45800502Y-22613691D01*
X45800502Y-21886309D01*
X45765896Y-21712334D01*
X45765894Y-21712329D01*
X45698016Y-21548455D01*
X45692157Y-21539687D01*
X45599466Y-21400965D01*
X45474037Y-21275536D01*
X45466913Y-21270776D01*
X45326546Y-21176985D01*
X45162672Y-21109107D01*
X45162662Y-21109104D01*
X45042098Y-21085123D01*
X44988693Y-21074500D01*
X44811311Y-21074500D01*
X44761991Y-21084310D01*
X44637341Y-21109104D01*
X44637331Y-21109107D01*
X44473457Y-21176985D01*
X44325970Y-21275533D01*
X44200535Y-21400968D01*
X44101987Y-21548455D01*
X44034109Y-21712329D01*
X44034106Y-21712339D01*
X44018709Y-21789747D01*
X43999502Y-21886309D01*
X43800501Y-21886309D01*
X43800501Y-21581895D01*
X43795432Y-21539687D01*
X43789878Y-21493436D01*
X43734362Y-21352658D01*
X43642923Y-21232078D01*
X43628525Y-21221159D01*
X43522342Y-21140638D01*
X43410511Y-21096538D01*
X43381565Y-21085123D01*
X43352077Y-21081582D01*
X43293105Y-21074500D01*
X43293103Y-21074500D01*
X42506899Y-21074500D01*
X42506897Y-21074500D01*
X42418437Y-21085123D01*
X42277659Y-21140638D01*
X42157079Y-21232077D01*
X42157078Y-21232078D01*
X42065639Y-21352658D01*
X42010124Y-21493436D01*
X42001568Y-21564689D01*
X41999501Y-21581898D01*
X41999501Y-22918102D01*
X41999501Y-22918104D01*
X41999500Y-22918104D01*
X33472495Y-22918104D01*
X33409481Y-22869752D01*
X33409475Y-22869748D01*
X33171020Y-22732076D01*
X33171017Y-22732075D01*
X32916631Y-22626704D01*
X32650664Y-22555439D01*
X32441972Y-22527965D01*
X32377674Y-22519500D01*
X32102326Y-22519500D01*
X32038810Y-22527862D01*
X31829335Y-22555439D01*
X31563368Y-22626704D01*
X31308982Y-22732075D01*
X31308979Y-22732076D01*
X31070524Y-22869748D01*
X31070518Y-22869752D01*
X30852077Y-23037366D01*
X30657366Y-23232077D01*
X30489752Y-23450518D01*
X30489748Y-23450524D01*
X30352076Y-23688979D01*
X30352075Y-23688982D01*
X30246704Y-23943368D01*
X30175439Y-24209335D01*
X30146281Y-24430817D01*
X30139500Y-24482326D01*
X23625500Y-24482326D01*
X23625500Y-24430815D01*
X23625499Y-24430814D01*
X23603154Y-24347422D01*
X23589688Y-24297164D01*
X23520505Y-24177335D01*
X23422665Y-24079495D01*
X23302836Y-24010312D01*
X23302831Y-24010310D01*
X23169185Y-23974500D01*
X23169183Y-23974500D01*
X23030817Y-23974500D01*
X23030815Y-23974500D01*
X22897168Y-24010310D01*
X22897163Y-24010312D01*
X22777334Y-24079495D01*
X22679495Y-24177334D01*
X22610312Y-24297163D01*
X22610310Y-24297168D01*
X22574500Y-24430814D01*
X20200500Y-24430814D01*
X20200500Y-22067067D01*
X20222174Y-22014741D01*
X20274500Y-21993067D01*
X20310728Y-22002543D01*
X20382490Y-22042843D01*
X20407937Y-22051821D01*
X20586733Y-22114910D01*
X20586737Y-22114910D01*
X20586741Y-22114912D01*
X20800331Y-22150856D01*
X21016920Y-22149609D01*
X21016929Y-22149607D01*
X21016932Y-22149607D01*
X21083016Y-22137701D01*
X21230081Y-22111206D01*
X21433488Y-22036789D01*
X21621105Y-21928566D01*
X21787363Y-21789747D01*
X21927329Y-21624454D01*
X22036849Y-21437590D01*
X22112672Y-21234703D01*
X22152549Y-21021813D01*
X22155296Y-20805238D01*
X22120831Y-20591404D01*
X22099732Y-20530263D01*
X22067870Y-20437929D01*
X22050178Y-20386660D01*
X22012345Y-20318186D01*
X22007981Y-20310287D01*
X22001647Y-20254005D01*
X22036965Y-20209729D01*
X22072752Y-20200500D01*
X47217555Y-20200500D01*
X47269881Y-20222174D01*
G37*
%TD.AperFunction*%
%TA.AperFunction,Conductor*%
G36*
X74846744Y-20222174D02*
G01*
X74868418Y-20274500D01*
X74855947Y-20315611D01*
X74854226Y-20318186D01*
X74854224Y-20318190D01*
X74801421Y-20445667D01*
X74801418Y-20445677D01*
X74784593Y-20530264D01*
X74774500Y-20581007D01*
X74774500Y-20718993D01*
X74780155Y-20747422D01*
X74801418Y-20854322D01*
X74801421Y-20854332D01*
X74854223Y-20981808D01*
X74910814Y-21066503D01*
X74930886Y-21096542D01*
X75028458Y-21194114D01*
X75143189Y-21270775D01*
X75143190Y-21270775D01*
X75143191Y-21270776D01*
X75253485Y-21316461D01*
X75270672Y-21323580D01*
X75406007Y-21350500D01*
X75406009Y-21350500D01*
X75543991Y-21350500D01*
X75543993Y-21350500D01*
X75679328Y-21323580D01*
X75806811Y-21270775D01*
X75921542Y-21194114D01*
X76019114Y-21096542D01*
X76095775Y-20981811D01*
X76148580Y-20854328D01*
X76175500Y-20718993D01*
X76175500Y-20581007D01*
X76148580Y-20445672D01*
X76095775Y-20318189D01*
X76095773Y-20318186D01*
X76094053Y-20315611D01*
X76083004Y-20260062D01*
X76114471Y-20212971D01*
X76155582Y-20200500D01*
X76744418Y-20200500D01*
X76796744Y-20222174D01*
X76818418Y-20274500D01*
X76805947Y-20315611D01*
X76804226Y-20318186D01*
X76804224Y-20318190D01*
X76751421Y-20445667D01*
X76751418Y-20445677D01*
X76734593Y-20530264D01*
X76724500Y-20581007D01*
X76724500Y-20718993D01*
X76730155Y-20747422D01*
X76751418Y-20854322D01*
X76751421Y-20854332D01*
X76804223Y-20981808D01*
X76860814Y-21066503D01*
X76880886Y-21096542D01*
X76978458Y-21194114D01*
X77093189Y-21270775D01*
X77093190Y-21270775D01*
X77093191Y-21270776D01*
X77203485Y-21316461D01*
X77220672Y-21323580D01*
X77356007Y-21350500D01*
X77356009Y-21350500D01*
X77493991Y-21350500D01*
X77493993Y-21350500D01*
X77629328Y-21323580D01*
X77756811Y-21270775D01*
X77871542Y-21194114D01*
X77969114Y-21096542D01*
X78045775Y-20981811D01*
X78098580Y-20854328D01*
X78125500Y-20718993D01*
X78125500Y-20581007D01*
X78098580Y-20445672D01*
X78045775Y-20318189D01*
X78045773Y-20318186D01*
X78044053Y-20315611D01*
X78033004Y-20260062D01*
X78064471Y-20212971D01*
X78105582Y-20200500D01*
X81593034Y-20200500D01*
X81645360Y-20222174D01*
X81667034Y-20274500D01*
X81645360Y-20326826D01*
X72044360Y-29927826D01*
X71992034Y-29949500D01*
X69679500Y-29949500D01*
X69627174Y-29927826D01*
X69605500Y-29875500D01*
X69605500Y-29780815D01*
X69605499Y-29780814D01*
X69592464Y-29732168D01*
X69569688Y-29647164D01*
X69500505Y-29527335D01*
X69402665Y-29429495D01*
X69282836Y-29360312D01*
X69282831Y-29360310D01*
X69149185Y-29324500D01*
X69149183Y-29324500D01*
X69010817Y-29324500D01*
X69010815Y-29324500D01*
X68877168Y-29360310D01*
X68877163Y-29360312D01*
X68757334Y-29429495D01*
X68659495Y-29527334D01*
X68590312Y-29647163D01*
X68590310Y-29647168D01*
X68554500Y-29780814D01*
X68554500Y-29875500D01*
X68532826Y-29927826D01*
X68480500Y-29949500D01*
X66695229Y-29949500D01*
X66642903Y-29927826D01*
X66621229Y-29875500D01*
X66631143Y-29838500D01*
X66640937Y-29821537D01*
X66676748Y-29687886D01*
X66676749Y-29687886D01*
X66676749Y-29549516D01*
X66676748Y-29549515D01*
X66665403Y-29507176D01*
X66640937Y-29415865D01*
X66571754Y-29296036D01*
X66473914Y-29198196D01*
X66354085Y-29129013D01*
X66354080Y-29129011D01*
X66231211Y-29096088D01*
X66223278Y-29090001D01*
X66213364Y-29088696D01*
X66201603Y-29073369D01*
X66186278Y-29061610D01*
X66178886Y-29043766D01*
X66145962Y-28920890D01*
X66145960Y-28920888D01*
X66145362Y-28918653D01*
X66152755Y-28862500D01*
X66197688Y-28828021D01*
X66216841Y-28825500D01*
X66309185Y-28825500D01*
X66309185Y-28825499D01*
X66442836Y-28789688D01*
X66562665Y-28720505D01*
X66660505Y-28622665D01*
X66729688Y-28502836D01*
X66760173Y-28389064D01*
X66762384Y-28380814D01*
X67154500Y-28380814D01*
X67154500Y-28519185D01*
X67190310Y-28652831D01*
X67190312Y-28652836D01*
X67259495Y-28772665D01*
X67357335Y-28870505D01*
X67477164Y-28939688D01*
X67610814Y-28975499D01*
X67610815Y-28975500D01*
X67610817Y-28975500D01*
X67749185Y-28975500D01*
X67749185Y-28975499D01*
X67882836Y-28939688D01*
X67963000Y-28893404D01*
X68019152Y-28886012D01*
X68036999Y-28893404D01*
X68039995Y-28895134D01*
X68089378Y-28923646D01*
X68117164Y-28939688D01*
X68117165Y-28939688D01*
X68117167Y-28939689D01*
X68183990Y-28957594D01*
X68250814Y-28975499D01*
X68250815Y-28975500D01*
X68250817Y-28975500D01*
X68389185Y-28975500D01*
X68389185Y-28975499D01*
X68522836Y-28939688D01*
X68642665Y-28870505D01*
X68647674Y-28865496D01*
X68700000Y-28843822D01*
X68752326Y-28865496D01*
X68757335Y-28870505D01*
X68877164Y-28939688D01*
X69010814Y-28975499D01*
X69010815Y-28975500D01*
X69010817Y-28975500D01*
X69149185Y-28975500D01*
X69149185Y-28975499D01*
X69282836Y-28939688D01*
X69402665Y-28870505D01*
X69500505Y-28772665D01*
X69569688Y-28652836D01*
X69605499Y-28519185D01*
X69605500Y-28519185D01*
X69605500Y-28380815D01*
X69605499Y-28380814D01*
X69602381Y-28369179D01*
X69569688Y-28247164D01*
X69500505Y-28127335D01*
X69402665Y-28029495D01*
X69282836Y-27960312D01*
X69282831Y-27960310D01*
X69149185Y-27924500D01*
X69149183Y-27924500D01*
X69010817Y-27924500D01*
X69010815Y-27924500D01*
X68877168Y-27960310D01*
X68877163Y-27960312D01*
X68757334Y-28029495D01*
X68752326Y-28034504D01*
X68700000Y-28056178D01*
X68647674Y-28034504D01*
X68642665Y-28029495D01*
X68522836Y-27960312D01*
X68522831Y-27960310D01*
X68389185Y-27924500D01*
X68389183Y-27924500D01*
X68250817Y-27924500D01*
X68250815Y-27924500D01*
X68117168Y-27960310D01*
X68117159Y-27960314D01*
X68036999Y-28006594D01*
X67980847Y-28013986D01*
X67963001Y-28006594D01*
X67882840Y-27960314D01*
X67882831Y-27960310D01*
X67749185Y-27924500D01*
X67749183Y-27924500D01*
X67610817Y-27924500D01*
X67610815Y-27924500D01*
X67477168Y-27960310D01*
X67477163Y-27960312D01*
X67357334Y-28029495D01*
X67259495Y-28127334D01*
X67190312Y-28247163D01*
X67190310Y-28247168D01*
X67154500Y-28380814D01*
X66762384Y-28380814D01*
X66765498Y-28369191D01*
X66765498Y-28369189D01*
X66765500Y-28369183D01*
X66765500Y-28230817D01*
X66765500Y-28230815D01*
X66765499Y-28230814D01*
X66751169Y-28177335D01*
X66729688Y-28097164D01*
X66660505Y-27977335D01*
X66562665Y-27879495D01*
X66442836Y-27810312D01*
X66442831Y-27810310D01*
X66309185Y-27774500D01*
X66309183Y-27774500D01*
X66170817Y-27774500D01*
X66170815Y-27774500D01*
X66037168Y-27810310D01*
X66037163Y-27810312D01*
X65917334Y-27879495D01*
X65819495Y-27977334D01*
X65750312Y-28097163D01*
X65750310Y-28097168D01*
X65714500Y-28230814D01*
X65714500Y-28230817D01*
X65714500Y-28369183D01*
X65750312Y-28502836D01*
X65750313Y-28502837D01*
X65750912Y-28505073D01*
X65743519Y-28561226D01*
X65698586Y-28595705D01*
X65679433Y-28598226D01*
X65587089Y-28598226D01*
X65453442Y-28634036D01*
X65453437Y-28634038D01*
X65333608Y-28703221D01*
X65235769Y-28801060D01*
X65166586Y-28920889D01*
X65166584Y-28920894D01*
X65130774Y-29054540D01*
X65130774Y-29192911D01*
X65166584Y-29326557D01*
X65166586Y-29326562D01*
X65235769Y-29446391D01*
X65333609Y-29544231D01*
X65453438Y-29613414D01*
X65469571Y-29617736D01*
X65576311Y-29646338D01*
X65621244Y-29680816D01*
X65628636Y-29698663D01*
X65661559Y-29821532D01*
X65661561Y-29821537D01*
X65671355Y-29838500D01*
X65678747Y-29894653D01*
X65644269Y-29939586D01*
X65607269Y-29949500D01*
X63387966Y-29949500D01*
X63335640Y-29927826D01*
X62957314Y-29549500D01*
X62843190Y-29483610D01*
X62843181Y-29483606D01*
X62715894Y-29449500D01*
X62715892Y-29449500D01*
X60907308Y-29449500D01*
X60854982Y-29427826D01*
X60833308Y-29375500D01*
X60854982Y-29323174D01*
X60870308Y-29311414D01*
X60891365Y-29299257D01*
X60989205Y-29201417D01*
X61058388Y-29081588D01*
X61094199Y-28947937D01*
X61094200Y-28947937D01*
X61094200Y-28809567D01*
X61094199Y-28809566D01*
X61092842Y-28804503D01*
X61058388Y-28675916D01*
X60989205Y-28556087D01*
X60891365Y-28458247D01*
X60771536Y-28389064D01*
X60771531Y-28389062D01*
X60637885Y-28353252D01*
X60637883Y-28353252D01*
X60499517Y-28353252D01*
X60499515Y-28353252D01*
X60365868Y-28389062D01*
X60365863Y-28389064D01*
X60246034Y-28458247D01*
X60148195Y-28556086D01*
X60141898Y-28566993D01*
X60096963Y-28601470D01*
X60040811Y-28594076D01*
X60025487Y-28582317D01*
X59962665Y-28519495D01*
X59842836Y-28450312D01*
X59842831Y-28450310D01*
X59709185Y-28414500D01*
X59709183Y-28414500D01*
X59570817Y-28414500D01*
X59570815Y-28414500D01*
X59437168Y-28450310D01*
X59437163Y-28450312D01*
X59317332Y-28519496D01*
X59313486Y-28522448D01*
X59312125Y-28520675D01*
X59266678Y-28539500D01*
X58752273Y-28539500D01*
X58752257Y-28539499D01*
X58747727Y-28539499D01*
X58642273Y-28539499D01*
X58642271Y-28539499D01*
X58540416Y-28566791D01*
X58540411Y-28566793D01*
X58449086Y-28619520D01*
X58378307Y-28690299D01*
X58325981Y-28711973D01*
X58273655Y-28690299D01*
X58251981Y-28637973D01*
X58261893Y-28600977D01*
X58289688Y-28552836D01*
X58325499Y-28419185D01*
X58325500Y-28419185D01*
X58325500Y-28280815D01*
X58325499Y-28280814D01*
X58312102Y-28230817D01*
X58289688Y-28147164D01*
X58240517Y-28061998D01*
X58233125Y-28005847D01*
X58240516Y-27988004D01*
X58289688Y-27902836D01*
X58325499Y-27769185D01*
X58325500Y-27769185D01*
X58325500Y-27630815D01*
X58325499Y-27630814D01*
X58322809Y-27620776D01*
X58289688Y-27497164D01*
X58220505Y-27377335D01*
X58122665Y-27279495D01*
X58002836Y-27210312D01*
X58002833Y-27210311D01*
X58002831Y-27210310D01*
X57892749Y-27180814D01*
X61724500Y-27180814D01*
X61724500Y-27319185D01*
X61760310Y-27452831D01*
X61760312Y-27452836D01*
X61829495Y-27572665D01*
X61927335Y-27670505D01*
X62047164Y-27739688D01*
X62047168Y-27739689D01*
X62073190Y-27746662D01*
X62118123Y-27781141D01*
X62125515Y-27837293D01*
X62106365Y-27870463D01*
X62099496Y-27877332D01*
X62030312Y-27997163D01*
X62030310Y-27997168D01*
X61994500Y-28130814D01*
X61994500Y-28269185D01*
X62030310Y-28402831D01*
X62030312Y-28402836D01*
X62099495Y-28522665D01*
X62197335Y-28620505D01*
X62317164Y-28689688D01*
X62450814Y-28725499D01*
X62450815Y-28725500D01*
X62450817Y-28725500D01*
X62589185Y-28725500D01*
X62589185Y-28725499D01*
X62722836Y-28689688D01*
X62842665Y-28620505D01*
X62940505Y-28522665D01*
X63009688Y-28402836D01*
X63045499Y-28269185D01*
X63045500Y-28269185D01*
X63045500Y-28130815D01*
X63045499Y-28130814D01*
X63042098Y-28118123D01*
X63009688Y-27997164D01*
X62940505Y-27877335D01*
X62866585Y-27803415D01*
X62844911Y-27751089D01*
X62866585Y-27698763D01*
X62918911Y-27677089D01*
X62955910Y-27687002D01*
X63047164Y-27739688D01*
X63180814Y-27775499D01*
X63180815Y-27775500D01*
X63180817Y-27775500D01*
X63319185Y-27775500D01*
X63319185Y-27775499D01*
X63452836Y-27739688D01*
X63572665Y-27670505D01*
X63633760Y-27609410D01*
X63686085Y-27587735D01*
X63738411Y-27609409D01*
X63757564Y-27642581D01*
X63760312Y-27652836D01*
X63829495Y-27772665D01*
X63927335Y-27870505D01*
X64047164Y-27939688D01*
X64180814Y-27975499D01*
X64180815Y-27975500D01*
X64180817Y-27975500D01*
X64319185Y-27975500D01*
X64319185Y-27975499D01*
X64452836Y-27939688D01*
X64572665Y-27870505D01*
X64670505Y-27772665D01*
X64739688Y-27652836D01*
X64775499Y-27519185D01*
X64775500Y-27519185D01*
X64775500Y-27380815D01*
X64775499Y-27380814D01*
X64772736Y-27370504D01*
X64739688Y-27247164D01*
X64670505Y-27127335D01*
X64572665Y-27029495D01*
X64452836Y-26960312D01*
X64452831Y-26960310D01*
X64319185Y-26924500D01*
X64319183Y-26924500D01*
X64180817Y-26924500D01*
X64180815Y-26924500D01*
X64047168Y-26960310D01*
X64047163Y-26960312D01*
X63927332Y-27029496D01*
X63866238Y-27090590D01*
X63813912Y-27112264D01*
X63761587Y-27090589D01*
X63742435Y-27057417D01*
X63739688Y-27047164D01*
X63670505Y-26927335D01*
X63572665Y-26829495D01*
X63452836Y-26760312D01*
X63452831Y-26760310D01*
X63319185Y-26724500D01*
X63319183Y-26724500D01*
X63180817Y-26724500D01*
X63180815Y-26724500D01*
X63047168Y-26760310D01*
X63047163Y-26760312D01*
X62927334Y-26829495D01*
X62829495Y-26927334D01*
X62814086Y-26954024D01*
X62769152Y-26988503D01*
X62713000Y-26981110D01*
X62685914Y-26954024D01*
X62681555Y-26946475D01*
X62670505Y-26927335D01*
X62572665Y-26829495D01*
X62452836Y-26760312D01*
X62452831Y-26760310D01*
X62319185Y-26724500D01*
X62319183Y-26724500D01*
X62180817Y-26724500D01*
X62180815Y-26724500D01*
X62047168Y-26760310D01*
X62047163Y-26760312D01*
X61927334Y-26829495D01*
X61829495Y-26927334D01*
X61760312Y-27047163D01*
X61760310Y-27047168D01*
X61724500Y-27180814D01*
X57892749Y-27180814D01*
X57869185Y-27174500D01*
X57869183Y-27174500D01*
X57730817Y-27174500D01*
X57730815Y-27174500D01*
X57597168Y-27210310D01*
X57597163Y-27210312D01*
X57477334Y-27279495D01*
X57379495Y-27377334D01*
X57310312Y-27497163D01*
X57310310Y-27497168D01*
X57274500Y-27630814D01*
X57274500Y-27750500D01*
X57252826Y-27802826D01*
X57200500Y-27824500D01*
X57080815Y-27824500D01*
X56947168Y-27860310D01*
X56947163Y-27860312D01*
X56827334Y-27929495D01*
X56729495Y-28027334D01*
X56660312Y-28147163D01*
X56660310Y-28147168D01*
X56624500Y-28280814D01*
X56624500Y-28419185D01*
X56660310Y-28552831D01*
X56660312Y-28552836D01*
X56729495Y-28672665D01*
X56827335Y-28770505D01*
X56947164Y-28839688D01*
X57080814Y-28875499D01*
X57080815Y-28875500D01*
X57080817Y-28875500D01*
X57219185Y-28875500D01*
X57219185Y-28875499D01*
X57352836Y-28839688D01*
X57438001Y-28790517D01*
X57494153Y-28783125D01*
X57511995Y-28790516D01*
X57597164Y-28839688D01*
X57730814Y-28875499D01*
X57730815Y-28875500D01*
X57730817Y-28875500D01*
X57869185Y-28875500D01*
X57869185Y-28875499D01*
X58002836Y-28839688D01*
X58050973Y-28811895D01*
X58107124Y-28804503D01*
X58152058Y-28838982D01*
X58159451Y-28895134D01*
X58140298Y-28928308D01*
X57609334Y-29459271D01*
X57576162Y-29478423D01*
X57556816Y-29483607D01*
X57556812Y-29483608D01*
X57442685Y-29549500D01*
X57064360Y-29927826D01*
X57012034Y-29949500D01*
X56159106Y-29949500D01*
X56031818Y-29983606D01*
X56031809Y-29983610D01*
X55917685Y-30049500D01*
X55581826Y-30385360D01*
X55529500Y-30407034D01*
X55477174Y-30385360D01*
X55455500Y-30333034D01*
X55455500Y-25374962D01*
X55477174Y-25322636D01*
X55529500Y-25300962D01*
X55548650Y-25303483D01*
X55630814Y-25325499D01*
X55630815Y-25325500D01*
X55630817Y-25325500D01*
X55769185Y-25325500D01*
X55769185Y-25325499D01*
X55902836Y-25289688D01*
X56022665Y-25220505D01*
X56120505Y-25122665D01*
X56120505Y-25122664D01*
X56123174Y-25119996D01*
X56175500Y-25098322D01*
X56227826Y-25119996D01*
X56249500Y-25172322D01*
X56249500Y-25778842D01*
X56259661Y-25829925D01*
X56280261Y-25933491D01*
X56280264Y-25933501D01*
X56340603Y-26079174D01*
X56414446Y-26189689D01*
X56428211Y-26210289D01*
X56539711Y-26321789D01*
X56670821Y-26409394D01*
X56670826Y-26409396D01*
X56670825Y-26409396D01*
X56793746Y-26460311D01*
X56816503Y-26469737D01*
X56971158Y-26500500D01*
X56971160Y-26500500D01*
X57128840Y-26500500D01*
X57128842Y-26500500D01*
X57283497Y-26469737D01*
X57429179Y-26409394D01*
X57560289Y-26321789D01*
X57649806Y-26232272D01*
X57702132Y-26210598D01*
X57754458Y-26232272D01*
X57822686Y-26300500D01*
X57936814Y-26366392D01*
X58064105Y-26400499D01*
X58064106Y-26400500D01*
X58064108Y-26400500D01*
X58195894Y-26400500D01*
X58195894Y-26400499D01*
X58323186Y-26366392D01*
X58437314Y-26300500D01*
X58530500Y-26207314D01*
X58570807Y-26137499D01*
X58615740Y-26103021D01*
X58634893Y-26100500D01*
X60066817Y-26100500D01*
X60119143Y-26122174D01*
X60140817Y-26174500D01*
X60130903Y-26211500D01*
X60110312Y-26247163D01*
X60110310Y-26247168D01*
X60074500Y-26380814D01*
X60074500Y-26519185D01*
X60110310Y-26652831D01*
X60110312Y-26652836D01*
X60179495Y-26772665D01*
X60277335Y-26870505D01*
X60397164Y-26939688D01*
X60530814Y-26975499D01*
X60530815Y-26975500D01*
X60530817Y-26975500D01*
X60669185Y-26975500D01*
X60669185Y-26975499D01*
X60802836Y-26939688D01*
X60922665Y-26870505D01*
X61020505Y-26772665D01*
X61089688Y-26652836D01*
X61125499Y-26519185D01*
X61125500Y-26519185D01*
X61125500Y-26380815D01*
X61125499Y-26380814D01*
X61109683Y-26321789D01*
X61089688Y-26247164D01*
X61069096Y-26211498D01*
X61061705Y-26155347D01*
X61096183Y-26110414D01*
X61133183Y-26100500D01*
X64866817Y-26100500D01*
X64919143Y-26122174D01*
X64940817Y-26174500D01*
X64930903Y-26211500D01*
X64910312Y-26247163D01*
X64910310Y-26247168D01*
X64874500Y-26380814D01*
X64874500Y-26519185D01*
X64910310Y-26652831D01*
X64910312Y-26652836D01*
X64979495Y-26772665D01*
X65077335Y-26870505D01*
X65197164Y-26939688D01*
X65330814Y-26975499D01*
X65330815Y-26975500D01*
X65330817Y-26975500D01*
X65469185Y-26975500D01*
X65469185Y-26975499D01*
X65602836Y-26939688D01*
X65722665Y-26870505D01*
X65820505Y-26772665D01*
X65889688Y-26652836D01*
X65925499Y-26519185D01*
X65925500Y-26519185D01*
X65925500Y-26380815D01*
X65925499Y-26380814D01*
X65909683Y-26321789D01*
X65889688Y-26247164D01*
X65869096Y-26211498D01*
X65861705Y-26155347D01*
X65896183Y-26110414D01*
X65933183Y-26100500D01*
X67365107Y-26100500D01*
X67417433Y-26122174D01*
X67429192Y-26137499D01*
X67469500Y-26207314D01*
X67562686Y-26300500D01*
X67676814Y-26366392D01*
X67804105Y-26400499D01*
X67804106Y-26400500D01*
X67804108Y-26400500D01*
X67935894Y-26400500D01*
X67935894Y-26400499D01*
X68063186Y-26366392D01*
X68177314Y-26300500D01*
X68245543Y-26232270D01*
X68297867Y-26210597D01*
X68350192Y-26232270D01*
X68439711Y-26321789D01*
X68570821Y-26409394D01*
X68570826Y-26409396D01*
X68570825Y-26409396D01*
X68693746Y-26460311D01*
X68716503Y-26469737D01*
X68871158Y-26500500D01*
X68871160Y-26500500D01*
X69028840Y-26500500D01*
X69028842Y-26500500D01*
X69183497Y-26469737D01*
X69329179Y-26409394D01*
X69460289Y-26321789D01*
X69571789Y-26210289D01*
X69659394Y-26079179D01*
X69719737Y-25933497D01*
X69750500Y-25778842D01*
X69750500Y-24821158D01*
X69719737Y-24666503D01*
X69684244Y-24580814D01*
X71647000Y-24580814D01*
X71647000Y-24719185D01*
X71682810Y-24852831D01*
X71682812Y-24852836D01*
X71751995Y-24972665D01*
X71849835Y-25070505D01*
X71969664Y-25139688D01*
X72103314Y-25175499D01*
X72103315Y-25175500D01*
X72103317Y-25175500D01*
X72241685Y-25175500D01*
X72241685Y-25175499D01*
X72375336Y-25139688D01*
X72495165Y-25070505D01*
X72593005Y-24972665D01*
X72635738Y-24898647D01*
X72656609Y-24862500D01*
X72701543Y-24828021D01*
X72720695Y-24825500D01*
X72781685Y-24825500D01*
X72781685Y-24825499D01*
X72915336Y-24789688D01*
X73035165Y-24720505D01*
X73133005Y-24622665D01*
X73202188Y-24502836D01*
X73237999Y-24369185D01*
X73238000Y-24369185D01*
X73238000Y-24230815D01*
X73237999Y-24230814D01*
X73227225Y-24190606D01*
X73202188Y-24097164D01*
X73133005Y-23977335D01*
X73035165Y-23879495D01*
X72915336Y-23810312D01*
X72915331Y-23810310D01*
X72781685Y-23774500D01*
X72781683Y-23774500D01*
X72643317Y-23774500D01*
X72643315Y-23774500D01*
X72509668Y-23810310D01*
X72509663Y-23810312D01*
X72389834Y-23879495D01*
X72291995Y-23977334D01*
X72228391Y-24087500D01*
X72183457Y-24121979D01*
X72164305Y-24124500D01*
X72103315Y-24124500D01*
X71969668Y-24160310D01*
X71969663Y-24160312D01*
X71849834Y-24229495D01*
X71751995Y-24327334D01*
X71682812Y-24447163D01*
X71682810Y-24447168D01*
X71647000Y-24580814D01*
X69684244Y-24580814D01*
X69659396Y-24520825D01*
X69659395Y-24520823D01*
X69659394Y-24520821D01*
X69571789Y-24389711D01*
X69460289Y-24278211D01*
X69329179Y-24190606D01*
X69329175Y-24190604D01*
X69329173Y-24190603D01*
X69329174Y-24190603D01*
X69183501Y-24130264D01*
X69183491Y-24130261D01*
X69079925Y-24109661D01*
X69028842Y-24099500D01*
X68871158Y-24099500D01*
X68827315Y-24108220D01*
X68716508Y-24130261D01*
X68716498Y-24130264D01*
X68570825Y-24190603D01*
X68485612Y-24247541D01*
X68430063Y-24258590D01*
X68382971Y-24227124D01*
X68370500Y-24186012D01*
X68370500Y-23280814D01*
X71237001Y-23280814D01*
X71237001Y-23419185D01*
X71272811Y-23552831D01*
X71272813Y-23552836D01*
X71341996Y-23672665D01*
X71439836Y-23770505D01*
X71559665Y-23839688D01*
X71693315Y-23875499D01*
X71693316Y-23875500D01*
X71693318Y-23875500D01*
X71831686Y-23875500D01*
X71831686Y-23875499D01*
X71965337Y-23839688D01*
X72085166Y-23770505D01*
X72183006Y-23672665D01*
X72252189Y-23552836D01*
X72288000Y-23419185D01*
X72288001Y-23419185D01*
X72288001Y-23280815D01*
X72288000Y-23280814D01*
X72284545Y-23267921D01*
X72252189Y-23147164D01*
X72183006Y-23027335D01*
X72085166Y-22929495D01*
X71965337Y-22860312D01*
X71965332Y-22860310D01*
X71831686Y-22824500D01*
X71831684Y-22824500D01*
X71693318Y-22824500D01*
X71693316Y-22824500D01*
X71559669Y-22860310D01*
X71559664Y-22860312D01*
X71439835Y-22929495D01*
X71341996Y-23027334D01*
X71272813Y-23147163D01*
X71272811Y-23147168D01*
X71237001Y-23280814D01*
X68370500Y-23280814D01*
X68370500Y-23013987D01*
X68392174Y-22961661D01*
X68444500Y-22939987D01*
X68485608Y-22952457D01*
X68570821Y-23009394D01*
X68570826Y-23009396D01*
X68570825Y-23009396D01*
X68638366Y-23037372D01*
X68716503Y-23069737D01*
X68871158Y-23100500D01*
X68871160Y-23100500D01*
X69028840Y-23100500D01*
X69028842Y-23100500D01*
X69183497Y-23069737D01*
X69329179Y-23009394D01*
X69460289Y-22921789D01*
X69571789Y-22810289D01*
X69647465Y-22697031D01*
X69694555Y-22665567D01*
X69745990Y-22674058D01*
X69859664Y-22739688D01*
X69993314Y-22775499D01*
X69993315Y-22775500D01*
X69993317Y-22775500D01*
X70131685Y-22775500D01*
X70131685Y-22775499D01*
X70265336Y-22739688D01*
X70385165Y-22670505D01*
X70483005Y-22572665D01*
X70552188Y-22452836D01*
X70587999Y-22319185D01*
X70588000Y-22319185D01*
X70588000Y-22180817D01*
X70578435Y-22145119D01*
X70578435Y-22145117D01*
X70574602Y-22130814D01*
X73874499Y-22130814D01*
X73874499Y-22269185D01*
X73910309Y-22402831D01*
X73910311Y-22402836D01*
X73979494Y-22522665D01*
X74077334Y-22620505D01*
X74197163Y-22689688D01*
X74330813Y-22725499D01*
X74330814Y-22725500D01*
X74330816Y-22725500D01*
X74469184Y-22725500D01*
X74469184Y-22725499D01*
X74602835Y-22689688D01*
X74722664Y-22620505D01*
X74820504Y-22522665D01*
X74889687Y-22402836D01*
X74925498Y-22269185D01*
X74925499Y-22269185D01*
X74925499Y-22130815D01*
X74925498Y-22130814D01*
X77974499Y-22130814D01*
X77974499Y-22269185D01*
X78010309Y-22402831D01*
X78010311Y-22402836D01*
X78079494Y-22522665D01*
X78177334Y-22620505D01*
X78297163Y-22689688D01*
X78430813Y-22725499D01*
X78430814Y-22725500D01*
X78430816Y-22725500D01*
X78569184Y-22725500D01*
X78569184Y-22725499D01*
X78702835Y-22689688D01*
X78822664Y-22620505D01*
X78920504Y-22522665D01*
X78989687Y-22402836D01*
X79025498Y-22269185D01*
X79025499Y-22269185D01*
X79025499Y-22130815D01*
X79025498Y-22130814D01*
X79020152Y-22110864D01*
X78989687Y-21997164D01*
X78920504Y-21877335D01*
X78822664Y-21779495D01*
X78702835Y-21710312D01*
X78702830Y-21710310D01*
X78569184Y-21674500D01*
X78569182Y-21674500D01*
X78430816Y-21674500D01*
X78430814Y-21674500D01*
X78297167Y-21710310D01*
X78297162Y-21710312D01*
X78177333Y-21779495D01*
X78079494Y-21877334D01*
X78010311Y-21997163D01*
X78010309Y-21997168D01*
X77974499Y-22130814D01*
X74925498Y-22130814D01*
X74920152Y-22110864D01*
X74889687Y-21997164D01*
X74820504Y-21877335D01*
X74722664Y-21779495D01*
X74602835Y-21710312D01*
X74602830Y-21710310D01*
X74469184Y-21674500D01*
X74469182Y-21674500D01*
X74330816Y-21674500D01*
X74330814Y-21674500D01*
X74197167Y-21710310D01*
X74197162Y-21710312D01*
X74077333Y-21779495D01*
X73979494Y-21877334D01*
X73910311Y-21997163D01*
X73910309Y-21997168D01*
X73874499Y-22130814D01*
X70574602Y-22130814D01*
X70552189Y-22047168D01*
X70552188Y-22047164D01*
X70483005Y-21927335D01*
X70385165Y-21829495D01*
X70265336Y-21760312D01*
X70265331Y-21760310D01*
X70131685Y-21724500D01*
X70131683Y-21724500D01*
X69993317Y-21724500D01*
X69993315Y-21724500D01*
X69859668Y-21760310D01*
X69855182Y-21762169D01*
X69854364Y-21760194D01*
X69805338Y-21766642D01*
X69760409Y-21732157D01*
X69750500Y-21695166D01*
X69750500Y-21221159D01*
X69745120Y-21194114D01*
X69719737Y-21066503D01*
X69701226Y-21021813D01*
X69693966Y-21004285D01*
X69684244Y-20980814D01*
X70287000Y-20980814D01*
X70287000Y-21119185D01*
X70322810Y-21252831D01*
X70322812Y-21252836D01*
X70391995Y-21372665D01*
X70489835Y-21470505D01*
X70609664Y-21539688D01*
X70743314Y-21575499D01*
X70743315Y-21575500D01*
X70743317Y-21575500D01*
X70881685Y-21575500D01*
X70881685Y-21575499D01*
X71015336Y-21539688D01*
X71135165Y-21470505D01*
X71233005Y-21372665D01*
X71302188Y-21252836D01*
X71337999Y-21119185D01*
X71338000Y-21119185D01*
X71338000Y-21005814D01*
X72187000Y-21005814D01*
X72187000Y-21144185D01*
X72222810Y-21277831D01*
X72222812Y-21277836D01*
X72291995Y-21397665D01*
X72389835Y-21495505D01*
X72509664Y-21564688D01*
X72643314Y-21600499D01*
X72643315Y-21600500D01*
X72643317Y-21600500D01*
X72781685Y-21600500D01*
X72781685Y-21600499D01*
X72915336Y-21564688D01*
X73035165Y-21495505D01*
X73133005Y-21397665D01*
X73202188Y-21277836D01*
X73237999Y-21144185D01*
X73238000Y-21144185D01*
X73238000Y-21005815D01*
X73237999Y-21005814D01*
X73237589Y-21004285D01*
X73202188Y-20872164D01*
X73133005Y-20752335D01*
X73035165Y-20654495D01*
X72915336Y-20585312D01*
X72915331Y-20585310D01*
X72781685Y-20549500D01*
X72781683Y-20549500D01*
X72643317Y-20549500D01*
X72643315Y-20549500D01*
X72509668Y-20585310D01*
X72509663Y-20585312D01*
X72389834Y-20654495D01*
X72291995Y-20752334D01*
X72222812Y-20872163D01*
X72222810Y-20872168D01*
X72187000Y-21005814D01*
X71338000Y-21005814D01*
X71338000Y-20980815D01*
X71337999Y-20980814D01*
X71304107Y-20854328D01*
X71302188Y-20847164D01*
X71233005Y-20727335D01*
X71135165Y-20629495D01*
X71015336Y-20560312D01*
X71015331Y-20560310D01*
X70881685Y-20524500D01*
X70881683Y-20524500D01*
X70743317Y-20524500D01*
X70743315Y-20524500D01*
X70609668Y-20560310D01*
X70609663Y-20560312D01*
X70489834Y-20629495D01*
X70391995Y-20727334D01*
X70322812Y-20847163D01*
X70322810Y-20847168D01*
X70287000Y-20980814D01*
X69684244Y-20980814D01*
X69659396Y-20920825D01*
X69659395Y-20920823D01*
X69659394Y-20920821D01*
X69571789Y-20789711D01*
X69460289Y-20678211D01*
X69329179Y-20590606D01*
X69329175Y-20590604D01*
X69329173Y-20590603D01*
X69329174Y-20590603D01*
X69183501Y-20530264D01*
X69183491Y-20530261D01*
X69079925Y-20509661D01*
X69028842Y-20499500D01*
X68871158Y-20499500D01*
X68827315Y-20508220D01*
X68716508Y-20530261D01*
X68716498Y-20530264D01*
X68570825Y-20590603D01*
X68485612Y-20647541D01*
X68430063Y-20658590D01*
X68382971Y-20627124D01*
X68370500Y-20586012D01*
X68370500Y-20274500D01*
X68392174Y-20222174D01*
X68444500Y-20200500D01*
X74794418Y-20200500D01*
X74846744Y-20222174D01*
G37*
%TD.AperFunction*%
%TD*%
%TA.AperFunction,Conductor*%
%TO.N,VSYS*%
G36*
X51724507Y-20419685D02*
G01*
X51770262Y-20472489D01*
X51780206Y-20541647D01*
X51751181Y-20605203D01*
X51745149Y-20611681D01*
X51679496Y-20677333D01*
X51679492Y-20677338D01*
X51610313Y-20797161D01*
X51610312Y-20797164D01*
X51574500Y-20930817D01*
X51574500Y-21069182D01*
X51610312Y-21202835D01*
X51610313Y-21202838D01*
X51679492Y-21322661D01*
X51679494Y-21322664D01*
X51679495Y-21322665D01*
X51777335Y-21420505D01*
X51897164Y-21489688D01*
X52030817Y-21525500D01*
X52030819Y-21525500D01*
X52169181Y-21525500D01*
X52169183Y-21525500D01*
X52302836Y-21489688D01*
X52422665Y-21420505D01*
X52520505Y-21322665D01*
X52589688Y-21202836D01*
X52625500Y-21069183D01*
X52625500Y-20930817D01*
X52589688Y-20797164D01*
X52520505Y-20677335D01*
X52454851Y-20611681D01*
X52421366Y-20550358D01*
X52426350Y-20480666D01*
X52468222Y-20424733D01*
X52533686Y-20400316D01*
X52542532Y-20400000D01*
X53157468Y-20400000D01*
X53224507Y-20419685D01*
X53270262Y-20472489D01*
X53280206Y-20541647D01*
X53251181Y-20605203D01*
X53245149Y-20611681D01*
X53179496Y-20677333D01*
X53179492Y-20677338D01*
X53110313Y-20797161D01*
X53110312Y-20797164D01*
X53074500Y-20930817D01*
X53074500Y-21069182D01*
X53110312Y-21202835D01*
X53110313Y-21202838D01*
X53179492Y-21322661D01*
X53179494Y-21322664D01*
X53179495Y-21322665D01*
X53277335Y-21420505D01*
X53397164Y-21489688D01*
X53530817Y-21525500D01*
X53530819Y-21525500D01*
X53669181Y-21525500D01*
X53669183Y-21525500D01*
X53802836Y-21489688D01*
X53922665Y-21420505D01*
X54020505Y-21322665D01*
X54089688Y-21202836D01*
X54125500Y-21069183D01*
X54125500Y-20930817D01*
X54089688Y-20797164D01*
X54020505Y-20677335D01*
X53954851Y-20611681D01*
X53921366Y-20550358D01*
X53926350Y-20480666D01*
X53968222Y-20424733D01*
X54033686Y-20400316D01*
X54042532Y-20400000D01*
X56066000Y-20400000D01*
X56133039Y-20419685D01*
X56178794Y-20472489D01*
X56190000Y-20524000D01*
X56190000Y-24261331D01*
X56170315Y-24328370D01*
X56117511Y-24374125D01*
X56048353Y-24384069D01*
X56004001Y-24368719D01*
X55902836Y-24310312D01*
X55769183Y-24274500D01*
X55630817Y-24274500D01*
X55497164Y-24310312D01*
X55497161Y-24310313D01*
X55377339Y-24379492D01*
X55370976Y-24384375D01*
X55305807Y-24409570D01*
X55295488Y-24410000D01*
X55150000Y-24410000D01*
X55150000Y-30765824D01*
X55130315Y-30832863D01*
X55113681Y-30853505D01*
X55029502Y-30937683D01*
X55029500Y-30937686D01*
X54963608Y-31051812D01*
X54929500Y-31179108D01*
X54929500Y-33110556D01*
X54920855Y-33139996D01*
X54914332Y-33169983D01*
X54910577Y-33174998D01*
X54909815Y-33177595D01*
X54893181Y-33198237D01*
X54827238Y-33264180D01*
X54765915Y-33297665D01*
X54739557Y-33300499D01*
X54731608Y-33300499D01*
X54716368Y-33299500D01*
X54715892Y-33299500D01*
X53758676Y-33299500D01*
X53691637Y-33279815D01*
X53670995Y-33263181D01*
X53507316Y-33099502D01*
X53507314Y-33099500D01*
X53450250Y-33066554D01*
X53393187Y-33033608D01*
X53329539Y-33016554D01*
X53265892Y-32999500D01*
X53265891Y-32999500D01*
X52849500Y-32999500D01*
X52782461Y-32979815D01*
X52736706Y-32927011D01*
X52725500Y-32875500D01*
X52725500Y-32730819D01*
X52725500Y-32730817D01*
X52689688Y-32597164D01*
X52620505Y-32477335D01*
X52522665Y-32379495D01*
X52522664Y-32379494D01*
X52522661Y-32379492D01*
X52402838Y-32310313D01*
X52402837Y-32310312D01*
X52402836Y-32310312D01*
X52269183Y-32274500D01*
X52130817Y-32274500D01*
X51997164Y-32310312D01*
X51997163Y-32310312D01*
X51915999Y-32357172D01*
X51910097Y-32358603D01*
X51905511Y-32362578D01*
X51876542Y-32366743D01*
X51848099Y-32373643D01*
X51842363Y-32371657D01*
X51836353Y-32372522D01*
X51809727Y-32360362D01*
X51782072Y-32350791D01*
X51778319Y-32346018D01*
X51772797Y-32343497D01*
X51756973Y-32318874D01*
X51738882Y-32295869D01*
X51737465Y-32288519D01*
X51735023Y-32284719D01*
X51730000Y-32249784D01*
X51730000Y-32110890D01*
X51737975Y-32070791D01*
X51737584Y-32070687D01*
X51739185Y-32064709D01*
X51739438Y-32063441D01*
X51739685Y-32062842D01*
X51739685Y-32062840D01*
X51739688Y-32062836D01*
X51775500Y-31929183D01*
X51775500Y-31790817D01*
X51739688Y-31657164D01*
X51739687Y-31657162D01*
X51739438Y-31656561D01*
X51739182Y-31655275D01*
X51737585Y-31649314D01*
X51737975Y-31649209D01*
X51730000Y-31609109D01*
X51730000Y-30801406D01*
X51746613Y-30739406D01*
X51802165Y-30643186D01*
X51819688Y-30612836D01*
X51855500Y-30479183D01*
X51855500Y-30340817D01*
X51819688Y-30207164D01*
X51750505Y-30087335D01*
X51746613Y-30080593D01*
X51730000Y-30018593D01*
X51730000Y-29324000D01*
X51749685Y-29256961D01*
X51802489Y-29211206D01*
X51854000Y-29200000D01*
X52425000Y-29200000D01*
X52425000Y-28980817D01*
X52974500Y-28980817D01*
X52974500Y-29119183D01*
X52999158Y-29211206D01*
X53010312Y-29252835D01*
X53010313Y-29252838D01*
X53079492Y-29372661D01*
X53079494Y-29372664D01*
X53079495Y-29372665D01*
X53177335Y-29470505D01*
X53177336Y-29470506D01*
X53177338Y-29470507D01*
X53237249Y-29505096D01*
X53297164Y-29539688D01*
X53430817Y-29575500D01*
X53430819Y-29575500D01*
X53569181Y-29575500D01*
X53569183Y-29575500D01*
X53702836Y-29539688D01*
X53822665Y-29470505D01*
X53920505Y-29372665D01*
X53989688Y-29252836D01*
X54025500Y-29119183D01*
X54025500Y-28980817D01*
X53989688Y-28847164D01*
X53920505Y-28727335D01*
X53822665Y-28629495D01*
X53822664Y-28629494D01*
X53822661Y-28629492D01*
X53702838Y-28560313D01*
X53702837Y-28560312D01*
X53702836Y-28560312D01*
X53569183Y-28524500D01*
X53430817Y-28524500D01*
X53297164Y-28560312D01*
X53297161Y-28560313D01*
X53177338Y-28629492D01*
X53177333Y-28629496D01*
X53079496Y-28727333D01*
X53079492Y-28727338D01*
X53010313Y-28847161D01*
X53010312Y-28847164D01*
X52974500Y-28980817D01*
X52425000Y-28980817D01*
X52425000Y-27825000D01*
X47649000Y-27825000D01*
X47581961Y-27805315D01*
X47536206Y-27752511D01*
X47525000Y-27701000D01*
X47525000Y-23280817D01*
X50414500Y-23280817D01*
X50414500Y-23288529D01*
X50414500Y-23419182D01*
X50452416Y-23560687D01*
X50451107Y-23561037D01*
X50457659Y-23622026D01*
X50450668Y-23645833D01*
X50414500Y-23780817D01*
X50414500Y-23919182D01*
X50450312Y-24052835D01*
X50450313Y-24052838D01*
X50519492Y-24172661D01*
X50519494Y-24172664D01*
X50519495Y-24172665D01*
X50617335Y-24270505D01*
X50617336Y-24270506D01*
X50617338Y-24270507D01*
X50677249Y-24305096D01*
X50737164Y-24339688D01*
X50870817Y-24375500D01*
X50870819Y-24375500D01*
X51009181Y-24375500D01*
X51009183Y-24375500D01*
X51142836Y-24339688D01*
X51142837Y-24339687D01*
X51150687Y-24337584D01*
X51151138Y-24339267D01*
X51210764Y-24332856D01*
X51227423Y-24337747D01*
X51234661Y-24339686D01*
X51234664Y-24339688D01*
X51368317Y-24375500D01*
X51368319Y-24375500D01*
X51506681Y-24375500D01*
X51506683Y-24375500D01*
X51640336Y-24339688D01*
X51640343Y-24339683D01*
X51641290Y-24339292D01*
X51642163Y-24339198D01*
X51648187Y-24337584D01*
X51648438Y-24338523D01*
X51710759Y-24331819D01*
X51736210Y-24339292D01*
X51737158Y-24339685D01*
X51737164Y-24339688D01*
X51870817Y-24375500D01*
X51870819Y-24375500D01*
X52009181Y-24375500D01*
X52009183Y-24375500D01*
X52142836Y-24339688D01*
X52262665Y-24270505D01*
X52360505Y-24172665D01*
X52429688Y-24052836D01*
X52465500Y-23919183D01*
X52465500Y-23780817D01*
X52429688Y-23647164D01*
X52429687Y-23647162D01*
X52427584Y-23639313D01*
X52428895Y-23638961D01*
X52422337Y-23577989D01*
X52429322Y-23554199D01*
X52429686Y-23552838D01*
X52429688Y-23552836D01*
X52465500Y-23419183D01*
X52465500Y-23280817D01*
X52429688Y-23147164D01*
X52429686Y-23147160D01*
X52427843Y-23140282D01*
X52429506Y-23070432D01*
X52431913Y-23063858D01*
X52432185Y-23062839D01*
X52432188Y-23062836D01*
X52468000Y-22929183D01*
X52468000Y-22790817D01*
X52432188Y-22657164D01*
X52363005Y-22537335D01*
X52265165Y-22439495D01*
X52265164Y-22439494D01*
X52265161Y-22439492D01*
X52145338Y-22370313D01*
X52145337Y-22370312D01*
X52145336Y-22370312D01*
X52011683Y-22334500D01*
X51873317Y-22334500D01*
X51739664Y-22370312D01*
X51739657Y-22370314D01*
X51738693Y-22370714D01*
X51737814Y-22370808D01*
X51731815Y-22372416D01*
X51731564Y-22371479D01*
X51669224Y-22378177D01*
X51643807Y-22370714D01*
X51642842Y-22370314D01*
X51642837Y-22370312D01*
X51642836Y-22370312D01*
X51509183Y-22334500D01*
X51370817Y-22334500D01*
X51237164Y-22370312D01*
X51237162Y-22370312D01*
X51229313Y-22372416D01*
X51228862Y-22370735D01*
X51169218Y-22377140D01*
X51152525Y-22372238D01*
X51081154Y-22353114D01*
X51011683Y-22334500D01*
X50873317Y-22334500D01*
X50739664Y-22370312D01*
X50739661Y-22370313D01*
X50619838Y-22439492D01*
X50619833Y-22439496D01*
X50521996Y-22537333D01*
X50521992Y-22537338D01*
X50452813Y-22657161D01*
X50452812Y-22657164D01*
X50417000Y-22790817D01*
X50417000Y-22929182D01*
X50454656Y-23069718D01*
X50454311Y-23084169D01*
X50458820Y-23097907D01*
X50454899Y-23132982D01*
X50451954Y-23144318D01*
X50450312Y-23147164D01*
X50414500Y-23280817D01*
X47525000Y-23280817D01*
X47525000Y-21930817D01*
X49274500Y-21930817D01*
X49274500Y-22069182D01*
X49310312Y-22202835D01*
X49310313Y-22202838D01*
X49379492Y-22322661D01*
X49379494Y-22322664D01*
X49379495Y-22322665D01*
X49477335Y-22420505D01*
X49477336Y-22420506D01*
X49477338Y-22420507D01*
X49537249Y-22455096D01*
X49597164Y-22489688D01*
X49730817Y-22525500D01*
X49730819Y-22525500D01*
X49869181Y-22525500D01*
X49869183Y-22525500D01*
X50002836Y-22489688D01*
X50122665Y-22420505D01*
X50220505Y-22322665D01*
X50289688Y-22202836D01*
X50325500Y-22069183D01*
X50325500Y-21930817D01*
X50289688Y-21797164D01*
X50220505Y-21677335D01*
X50122665Y-21579495D01*
X50122664Y-21579494D01*
X50122661Y-21579492D01*
X50002838Y-21510313D01*
X50002837Y-21510312D01*
X50002836Y-21510312D01*
X49869183Y-21474500D01*
X49730817Y-21474500D01*
X49597164Y-21510312D01*
X49597161Y-21510313D01*
X49477338Y-21579492D01*
X49477333Y-21579496D01*
X49379496Y-21677333D01*
X49379492Y-21677338D01*
X49310313Y-21797161D01*
X49310312Y-21797164D01*
X49274500Y-21930817D01*
X47525000Y-21930817D01*
X47525000Y-20524000D01*
X47544685Y-20456961D01*
X47597489Y-20411206D01*
X47649000Y-20400000D01*
X51657468Y-20400000D01*
X51724507Y-20419685D01*
G37*
%TD.AperFunction*%
%TD*%
M02*
