M48
; DRILL file {KiCad 9.0.3} date 2025-07-18T02:06:41-0400
; FORMAT={-:-/ absolute / inch / decimal}
; #@! TF.CreationDate,2025-07-18T02:06:41-04:00
; #@! TF.GenerationSoftware,Kicad,Pcbnew,9.0.3
; #@! TF.FileFunction,Plated,1,4,PTH
FMAT,2
INCH
; #@! TA.AperFunction,Plated,PTH,ViaDrill
T1C0.0079
; #@! TA.AperFunction,Plated,PTH,ComponentDrill
T2C0.0236
; #@! TA.AperFunction,Plated,PTH,ComponentDrill
T3C0.0295
; #@! TA.AperFunction,Plated,PTH,ComponentDrill
T4C0.0394
; #@! TA.AperFunction,Plated,PTH,ComponentDrill
T5C0.1201
%
G90
G05
T1
X0.9094Y-0.9646
X1.0614Y-1.2902
X1.2756Y-1.4331
X1.3425Y-1.3386
X1.939Y-1.1398
X1.9419Y-1.4902
X1.9606Y-0.8661
X1.9618Y-1.0224
X1.9646Y-1.4902
X1.9685Y-1.1398
X1.9972Y-1.2543
X2.0Y-0.8268
X2.0016Y-1.1972
X2.002Y-1.4341
X2.002Y-1.4567
X2.002Y-1.4803
X2.0055Y-0.9193
X2.0055Y-0.939
X2.0056Y-0.9
X2.0069Y-1.3622
X2.0177Y-1.2543
X2.0209Y-1.1972
X2.0251Y-0.9193
X2.0251Y-0.939
X2.0252Y-0.9
X2.0276Y-1.0669
X2.028Y-1.0874
X2.0449Y-0.9193
X2.0449Y-0.939
X2.045Y-0.9
X2.0472Y-1.0669
X2.0512Y-0.8268
X2.0551Y-1.2913
X2.1063Y-1.1437
X2.1063Y-1.3307
X2.1102Y-0.8268
X2.1102Y-0.9183
X2.1201Y-1.4941
X2.1516Y-1.2551
X2.1535Y-1.1339
X2.1929Y-0.8937
X2.1929Y-0.9173
X2.1929Y-0.9409
X2.1929Y-0.9764
X2.2041Y-1.2835
X2.2067Y-1.4272
X2.2268Y-1.2835
X2.2494Y-1.2835
X2.25Y-1.1161
X2.2648Y-1.3848
X2.272Y-1.2835
X2.2756Y-1.0906
X2.2756Y-1.1161
X2.2756Y-1.3091
X2.3071Y-1.2106
X2.3258Y-1.2294
X2.348Y-1.1394
X2.3543Y-1.4882
X2.3846Y-1.137
X2.3858Y-1.0413
X2.4094Y-1.5118
X2.437Y-1.3287
X2.4508Y-1.0728
X2.4587Y-1.3504
X2.4594Y-1.3075
X2.4614Y-1.1102
X2.4626Y-1.437
X2.4795Y-1.1516
X2.4803Y-1.2854
X2.4803Y-1.3287
X2.4803Y-1.372
X2.4902Y-1.0728
X2.5016Y-1.3071
X2.502Y-1.3496
X2.5236Y-1.3287
X2.5295Y-1.0807
X2.5398Y-1.1323
X2.5453Y-1.5098
X2.5567Y-1.1157
X2.5724Y-1.1
X2.5748Y-1.0413
X2.5849Y-1.1466
X2.6044Y-1.1661
X2.6079Y-1.1142
X2.6646Y-1.1201
X2.6898Y-1.1201
X2.7197Y-1.1201
X2.7197Y-1.1476
X2.7197Y-1.1752
X2.7441Y-1.3346
X2.7449Y-1.3642
X2.7584Y-0.876
X2.7879Y-0.8287
X2.8051Y-1.3268
X2.8253Y-0.9193
X2.8414Y-0.9705
X2.8627Y-0.8297
X2.8627Y-0.9567
X2.9291Y-0.874
X2.9547Y-0.9665
X2.9547Y-1.0433
X2.9577Y-1.1697
X2.9803Y-1.1693
X3.0276Y-1.061
X3.0437Y-1.3768
X3.0508Y-1.2728
X3.061Y-1.3543
X3.063Y-1.1785
X3.063Y-1.2037
X3.0642Y-1.122
X3.0894Y-1.122
X3.0906Y-0.874
X3.0906Y-1.0118
X3.0906Y-1.0945
X3.2224Y-1.4311
X3.2244Y-0.9843
X3.2874Y-1.4622
X3.3775Y-1.4252
X3.3775Y-1.4626
X3.5Y-1.1496
X3.6161Y-1.2815
X3.6831Y-1.3004
X3.6831Y-1.4331
X3.8976Y-1.437
T3
X1.689Y-0.876
X1.7677Y-0.876
T4
X1.6781Y-1.4803
X1.7781Y-1.4803
T5
X1.0193Y-1.0693
X1.2693Y-0.9693
X3.6413Y-1.0693
X3.8913Y-0.9693
T2
G00X2.2461Y-0.8386
M15
G01X2.2461Y-0.878
M16
G05
G00X2.2461Y-0.9803
M15
G01X2.2461Y-1.0118
M16
G05
G00X2.7146Y-0.8386
M15
G01X2.7146Y-0.878
M16
G05
G00X2.7146Y-0.9803
M15
G01X2.7146Y-1.0118
M16
G05
M30
