%TF.GenerationSoftware,KiCad,Pcbnew,9.0.3*%
%TF.CreationDate,2025-07-18T02:06:41-04:00*%
%TF.ProjectId,board,626f6172-642e-46b6-9963-61645f706362,rev?*%
%TF.SameCoordinates,Original*%
%TF.FileFunction,Legend,Top*%
%TF.FilePolarity,Positive*%
%FSLAX46Y46*%
G04 Gerber Fmt 4.6, Leading zero omitted, Abs format (unit mm)*
G04 Created by KiCad (PCBNEW 9.0.3) date 2025-07-18 02:06:41*
%MOMM*%
%LPD*%
G01*
G04 APERTURE LIST*
G04 Aperture macros list*
%AMRoundRect*
0 Rectangle with rounded corners*
0 $1 Rounding radius*
0 $2 $3 $4 $5 $6 $7 $8 $9 X,Y pos of 4 corners*
0 Add a 4 corners polygon primitive as box body*
4,1,4,$2,$3,$4,$5,$6,$7,$8,$9,$2,$3,0*
0 Add four circle primitives for the rounded corners*
1,1,$1+$1,$2,$3*
1,1,$1+$1,$4,$5*
1,1,$1+$1,$6,$7*
1,1,$1+$1,$8,$9*
0 Add four rect primitives between the rounded corners*
20,1,$1+$1,$2,$3,$4,$5,0*
20,1,$1+$1,$4,$5,$6,$7,0*
20,1,$1+$1,$6,$7,$8,$9,0*
20,1,$1+$1,$8,$9,$2,$3,0*%
G04 Aperture macros list end*
%ADD10C,0.120000*%
%ADD11RoundRect,0.250000X-0.350000X-0.625000X0.350000X-0.625000X0.350000X0.625000X-0.350000X0.625000X0*%
%ADD12O,1.200000X1.750000*%
%ADD13R,1.700000X1.700000*%
%ADD14C,1.700000*%
%ADD15C,1.750000*%
%ADD16C,4.000000*%
%ADD17C,3.600000*%
%ADD18C,0.900000*%
%ADD19O,1.204000X2.004000*%
%ADD20O,1.204000X2.204000*%
G04 APERTURE END LIST*
D10*
%TO.C,J2*%
X40540001Y-20140000D02*
X40540001Y-21390000D01*
X40840001Y-20440000D02*
X40840001Y-25160000D01*
X40840001Y-21750001D02*
X41450001Y-21750000D01*
X40840001Y-23049999D02*
X41450001Y-23050000D01*
X40840001Y-25160000D02*
X46960001Y-25160000D01*
X41450001Y-21050000D02*
X41450001Y-24550000D01*
X41450001Y-24550000D02*
X46350001Y-24550000D01*
X41790001Y-20140000D02*
X40540001Y-20140000D01*
X42300001Y-20239999D02*
X42300001Y-20440000D01*
X42600001Y-20239999D02*
X42300001Y-20239999D01*
X42600001Y-20340000D02*
X42300001Y-20340000D01*
X42600001Y-20440000D02*
X42600001Y-20239999D01*
X43400001Y-20440000D02*
X43400001Y-21049999D01*
X43400001Y-21049999D02*
X41450001Y-21050000D01*
X43800001Y-24050000D02*
X44000001Y-24050000D01*
X43800002Y-24550000D02*
X43800001Y-24050000D01*
X43900001Y-24550000D02*
X43900001Y-24050000D01*
X44000001Y-24050000D02*
X44000001Y-24550000D01*
X44400001Y-21050000D02*
X44400001Y-20440000D01*
X46350001Y-21049999D02*
X44400001Y-21050000D01*
X46350001Y-24550000D02*
X46350001Y-21049999D01*
X46960001Y-20440000D02*
X40840001Y-20440000D01*
X46960001Y-21750000D02*
X46350001Y-21750000D01*
X46960001Y-23050000D02*
X46350001Y-23050000D01*
X46960001Y-25160000D02*
X46960001Y-20440000D01*
%TO.C,J4*%
X41245000Y-38980000D02*
X41245001Y-37600000D01*
X42625000Y-38979999D02*
X41245000Y-38980000D01*
X43895000Y-36220000D02*
X46545000Y-36220000D01*
X43895000Y-38980000D02*
X43895000Y-36220000D01*
X43895000Y-38980000D02*
X46545000Y-38980000D01*
X46545000Y-38980000D02*
X46545000Y-36220000D01*
%TO.C,SW1*%
X22600000Y-22600000D02*
X22600000Y-36800000D01*
X22600000Y-36800000D02*
X36800000Y-36800000D01*
X36800000Y-22600000D02*
X22600000Y-22600000D01*
X36800000Y-36800000D02*
X36800000Y-22600000D01*
%TO.C,SW2*%
X89200000Y-22600000D02*
X89200000Y-36800000D01*
X89200000Y-36800000D02*
X103400000Y-36800000D01*
X103400000Y-22600000D02*
X89200000Y-22600000D01*
X103400000Y-36800000D02*
X103400000Y-22600000D01*
%TD*%
%LPC*%
D11*
%TO.C,J2*%
X42900001Y-22250000D03*
D12*
X44900002Y-22250000D03*
%TD*%
D13*
%TO.C,J4*%
X42625000Y-37600000D03*
D14*
X45165000Y-37600000D03*
%TD*%
D15*
%TO.C,SW1*%
X24620001Y-29700000D03*
D16*
X29700000Y-29700000D03*
D15*
X34779999Y-29700000D03*
D17*
X25890000Y-27160000D03*
X32240000Y-24620000D03*
%TD*%
D15*
%TO.C,SW2*%
X91220001Y-29700000D03*
D16*
X96300000Y-29700000D03*
D15*
X101379999Y-29700000D03*
D17*
X92490000Y-27160000D03*
X98840000Y-24620000D03*
%TD*%
D18*
%TO.C,SW3*%
X75475000Y-20650000D03*
X77425000Y-20650000D03*
%TD*%
D19*
%TO.C,J1*%
X57050000Y-25300000D03*
X68950000Y-25300000D03*
D20*
X57050000Y-21800000D03*
X68950000Y-21800000D03*
%TD*%
%LPD*%
M02*
