%TF.GenerationSoftware,KiCad,Pcbnew,9.0.3*%
%TF.CreationDate,2025-07-19T05:00:43-04:00*%
%TF.ProjectId,board,626f6172-642e-46b6-9963-61645f706362,rev?*%
%TF.SameCoordinates,Original*%
%TF.FileFunction,Copper,L1,Top*%
%TF.FilePolarity,Positive*%
%FSLAX46Y46*%
G04 Gerber Fmt 4.6, Leading zero omitted, Abs format (unit mm)*
G04 Created by KiCad (PCBNEW 9.0.3) date 2025-07-19 05:00:43*
%MOMM*%
%LPD*%
G01*
G04 APERTURE LIST*
G04 Aperture macros list*
%AMRoundRect*
0 Rectangle with rounded corners*
0 $1 Rounding radius*
0 $2 $3 $4 $5 $6 $7 $8 $9 X,Y pos of 4 corners*
0 Add a 4 corners polygon primitive as box body*
4,1,4,$2,$3,$4,$5,$6,$7,$8,$9,$2,$3,0*
0 Add four circle primitives for the rounded corners*
1,1,$1+$1,$2,$3*
1,1,$1+$1,$4,$5*
1,1,$1+$1,$6,$7*
1,1,$1+$1,$8,$9*
0 Add four rect primitives between the rounded corners*
20,1,$1+$1,$2,$3,$4,$5,0*
20,1,$1+$1,$4,$5,$6,$7,0*
20,1,$1+$1,$6,$7,$8,$9,0*
20,1,$1+$1,$8,$9,$2,$3,0*%
G04 Aperture macros list end*
%TA.AperFunction,ComponentPad*%
%ADD10RoundRect,0.250000X-0.350000X-0.625000X0.350000X-0.625000X0.350000X0.625000X-0.350000X0.625000X0*%
%TD*%
%TA.AperFunction,ComponentPad*%
%ADD11O,1.200000X1.750000*%
%TD*%
%TA.AperFunction,ComponentPad*%
%ADD12RoundRect,0.250000X0.265000X0.615000X-0.265000X0.615000X-0.265000X-0.615000X0.265000X-0.615000X0*%
%TD*%
%TA.AperFunction,ComponentPad*%
%ADD13O,1.030000X1.730000*%
%TD*%
%TA.AperFunction,ComponentPad*%
%ADD14C,3.600000*%
%TD*%
%TA.AperFunction,ComponentPad*%
%ADD15O,1.000000X1.800000*%
%TD*%
%TA.AperFunction,ComponentPad*%
%ADD16O,1.000000X2.000000*%
%TD*%
%TA.AperFunction,ViaPad*%
%ADD17C,0.450000*%
%TD*%
%TA.AperFunction,Conductor*%
%ADD18C,0.200000*%
%TD*%
G04 APERTURE END LIST*
D10*
%TO.P,J2,1,Pin_1*%
%TO.N,GND*%
X43000000Y-22950000D03*
D11*
%TO.P,J2,2,Pin_2*%
%TO.N,VBAT*%
X45000001Y-22950000D03*
%TD*%
D12*
%TO.P,J3,1,Pin_1*%
%TO.N,Net-(J3-Pin_1)*%
X44650000Y-37025000D03*
D13*
%TO.P,J3,2,Pin_2*%
%TO.N,Net-(J3-Pin_2)*%
X43150000Y-37025000D03*
%TD*%
D14*
%TO.P,SW1,1,1*%
%TO.N,/BUTTON_L*%
X25890000Y-27160000D03*
%TO.P,SW1,2,2*%
%TO.N,GND*%
X32240000Y-24620000D03*
%TD*%
%TO.P,SW2,1,1*%
%TO.N,/BUTTON_R*%
X92490000Y-27160000D03*
%TO.P,SW2,2,2*%
%TO.N,GND*%
X98840000Y-24620000D03*
%TD*%
D15*
%TO.P,J1,SH1,SHIELD*%
%TO.N,GND*%
X57050000Y-25300000D03*
%TO.P,J1,SH2,SHIELD*%
X68950000Y-25300000D03*
D16*
%TO.P,J1,SH3,SHIELD*%
X57050000Y-21800000D03*
%TO.P,J1,SH4,SHIELD*%
X68950000Y-21800000D03*
%TD*%
D17*
%TO.N,3V3*%
X67167158Y-29300000D03*
%TO.N,GND*%
X57050000Y-23575000D03*
X63540000Y-33200000D03*
X53702500Y-27100000D03*
X57950000Y-31050000D03*
X63550000Y-34280000D03*
X76475000Y-37000000D03*
X63000000Y-33750000D03*
X62450000Y-34300000D03*
X71762501Y-23350000D03*
X52700000Y-21900000D03*
X68950000Y-23575000D03*
X77490000Y-33150000D03*
X51437500Y-23850000D03*
X53850000Y-37950000D03*
X61900000Y-33750000D03*
X51940000Y-23850000D03*
X51940000Y-23350000D03*
X71840000Y-28450000D03*
X62470000Y-33210000D03*
X56600000Y-29780000D03*
X54300000Y-21025000D03*
X58000000Y-38325000D03*
X58900000Y-27750000D03*
X70300000Y-28450000D03*
X59800000Y-37800000D03*
X49900000Y-37850000D03*
X70300000Y-29850000D03*
X51900000Y-35575000D03*
X63000000Y-34850000D03*
X77350000Y-29950000D03*
X64100000Y-33750000D03*
X81900000Y-25000000D03*
X63000000Y-32650000D03*
X51942500Y-22860000D03*
X52200000Y-32300000D03*
X70730000Y-37200000D03*
X51440000Y-22860000D03*
X50940000Y-23850000D03*
X76450000Y-23410000D03*
X49950000Y-28950000D03*
X63000000Y-28200000D03*
X32400000Y-36400000D03*
X50942500Y-22860000D03*
X73680000Y-23360000D03*
X51437500Y-23350000D03*
X99000000Y-36500000D03*
X71250000Y-33700000D03*
X48275000Y-25975000D03*
X66240000Y-28300000D03*
X50400000Y-28950000D03*
X68320000Y-28450000D03*
X52100000Y-26450000D03*
X66350000Y-37725000D03*
X56050000Y-36250000D03*
X81600000Y-37800000D03*
X52450000Y-35025000D03*
X50940000Y-23350000D03*
X69725000Y-35150000D03*
X60144974Y-28455026D03*
X78499999Y-20600000D03*
X74400001Y-20600000D03*
X59800000Y-27075000D03*
%TO.N,VBUS*%
X60600000Y-26450000D03*
X70062500Y-22250000D03*
X55700000Y-26000000D03*
X65400000Y-26450000D03*
%TO.N,VSYS*%
X54450000Y-28800000D03*
X51200000Y-21000000D03*
X55710000Y-22130000D03*
X49830000Y-25970000D03*
X55700000Y-22700000D03*
X54650000Y-31880000D03*
X51510000Y-27620000D03*
X52000000Y-27100000D03*
X51500000Y-27100000D03*
X72250000Y-35850000D03*
X78725000Y-37100000D03*
X53600000Y-23325000D03*
X55700000Y-23300000D03*
X57800000Y-33250000D03*
%TO.N,3V3*%
X65910000Y-37200000D03*
X61065000Y-28435000D03*
X64510000Y-28760000D03*
X59275000Y-31425000D03*
X77350000Y-30600000D03*
X62980000Y-29250000D03*
X50730000Y-31860000D03*
X57525000Y-35175000D03*
X50840000Y-30410000D03*
X64940000Y-28340000D03*
X65340000Y-27940000D03*
X51250000Y-31860000D03*
X69650000Y-33950000D03*
X75050000Y-24000000D03*
X50975000Y-35675000D03*
X51330000Y-30410000D03*
X77350000Y-28500000D03*
X75050000Y-26500000D03*
X69080000Y-29150000D03*
%TO.N,1V1*%
X67680000Y-28450000D03*
X69080000Y-28450000D03*
X69080000Y-29850000D03*
%TO.N,/DISP_PIN_CS*%
X68450000Y-35100000D03*
X79050000Y-28500000D03*
%TO.N,/DISP_PIN_RST*%
X68400000Y-34450000D03*
X79050000Y-27800000D03*
%TO.N,/DISP_PIN_SCLK*%
X76350000Y-29950000D03*
X68200000Y-36700000D03*
%TO.N,Net-(J1-DN1)*%
X70812500Y-21050000D03*
X63250000Y-27250000D03*
X62250000Y-27250000D03*
%TO.N,/DISP_PIN_MOSI*%
X75900000Y-30400000D03*
X68545002Y-37160002D03*
%TO.N,/DISP_PIN_DC*%
X76800000Y-30850000D03*
X68960269Y-37557722D03*
%TO.N,/BUTTON_L*%
X60920000Y-34780000D03*
X23100000Y-24500000D03*
%TO.N,/BUTTON_R*%
X64600000Y-38400000D03*
X89715000Y-29715000D03*
%TO.N,/BUTTON_MENU*%
X75250000Y-22200000D03*
X61570000Y-38560000D03*
X77600000Y-22200000D03*
%TO.N,/AUDIO_I2S_DOUT*%
X50850000Y-37000000D03*
X56559994Y-32600000D03*
%TO.N,Net-(J1-DP1)*%
X64250000Y-27450000D03*
X72712500Y-21075000D03*
%TO.N,/AUDIO_I2S_EN*%
X55984991Y-32600000D03*
X50850000Y-36424997D03*
%TO.N,/AUDIO_I2S_LRCK*%
X49324997Y-37850000D03*
X57710000Y-32600000D03*
%TO.N,/AUDIO_I2S_BCLK*%
X50850000Y-37600000D03*
X57134997Y-32600000D03*
%TO.N,/USB_D+*%
X66151249Y-29618701D03*
X72712500Y-24300000D03*
%TO.N,/USB_D-*%
X72172500Y-24650000D03*
X65656274Y-29123726D03*
%TO.N,/PWR_~{PGOOD}*%
X52100000Y-21000000D03*
X57800000Y-28350000D03*
%TO.N,/PWR_~{CHG}*%
X57800000Y-27700000D03*
X53500000Y-21000000D03*
%TO.N,/PWR_CHG_EN*%
X57150000Y-28350000D03*
X50000000Y-22000000D03*
%TO.N,Net-(D1-DIN)*%
X59224997Y-37800000D03*
X34100000Y-34000000D03*
%TO.N,Net-(D1-DOUT)*%
X100550000Y-34000000D03*
X26950000Y-36600000D03*
%TO.N,VSYS_GATED*%
X53500000Y-33800000D03*
X26960000Y-32770000D03*
X59640000Y-28940000D03*
X93550000Y-33030000D03*
%TO.N,Net-(R9-Pad1)*%
X68250000Y-32500000D03*
X40050000Y-31750000D03*
%TO.N,Net-(U2-RUN)*%
X58550000Y-35450000D03*
X40050000Y-27750000D03*
%TD*%
D18*
%TO.N,3V3*%
X75050000Y-26500000D02*
X75050000Y-24000000D01*
%TO.N,1V1*%
X69600000Y-29330000D02*
X69080000Y-29850000D01*
X68131000Y-28901000D02*
X67680000Y-28450000D01*
X68630000Y-28900000D02*
X68550000Y-28900000D01*
X69080000Y-28450000D02*
X68630000Y-28900000D01*
X69600000Y-28970000D02*
X69600000Y-29330000D01*
X68550000Y-28900000D02*
X68549000Y-28901000D01*
X68549000Y-28901000D02*
X68131000Y-28901000D01*
X69080000Y-28450000D02*
X69600000Y-28970000D01*
%TO.N,/DISP_PIN_CS*%
X79050000Y-28900000D02*
X78750000Y-29200000D01*
X68851000Y-33474678D02*
X68851000Y-34699000D01*
X78750000Y-29200000D02*
X73125678Y-29200000D01*
X73125678Y-29200000D02*
X68851000Y-33474678D01*
X79050000Y-28500000D02*
X79050000Y-28900000D01*
X68851000Y-34699000D02*
X68450000Y-35100000D01*
%TO.N,/DISP_PIN_RST*%
X74100000Y-27800000D02*
X68400000Y-33500000D01*
X79050000Y-27800000D02*
X74100000Y-27800000D01*
X68400000Y-33500000D02*
X68400000Y-34450000D01*
%TO.N,/DISP_PIN_SCLK*%
X68200000Y-36700000D02*
X68201000Y-36699000D01*
X75449000Y-30213189D02*
X75713189Y-29949000D01*
X76087811Y-29950000D02*
X76350000Y-29950000D01*
X75449000Y-30217635D02*
X75449000Y-30213189D01*
X75713189Y-29949000D02*
X76086811Y-29949000D01*
X76086811Y-29949000D02*
X76087811Y-29950000D01*
X68967635Y-36699000D02*
X75449000Y-30217635D01*
X68201000Y-36699000D02*
X68967635Y-36699000D01*
%TO.N,Net-(J1-DN1)*%
X70812500Y-26237500D02*
X70150000Y-26900000D01*
X63250000Y-27425000D02*
X62975000Y-27700000D01*
X70150000Y-26900000D02*
X63600000Y-26900000D01*
X62500000Y-27700000D02*
X62250000Y-27450000D01*
X70812500Y-21050000D02*
X70812500Y-26237500D01*
X62975000Y-27700000D02*
X62500000Y-27700000D01*
X63600000Y-26900000D02*
X63250000Y-27250000D01*
X63250000Y-27250000D02*
X63250000Y-27425000D01*
X62250000Y-27450000D02*
X62250000Y-27250000D01*
%TO.N,/DISP_PIN_MOSI*%
X69042313Y-37050000D02*
X68655004Y-37050000D01*
X75691313Y-30401000D02*
X69042313Y-37050000D01*
X68655004Y-37050000D02*
X68545002Y-37160002D01*
X75900000Y-30400000D02*
X75899000Y-30401000D01*
X75899000Y-30401000D02*
X75691313Y-30401000D01*
%TO.N,/DISP_PIN_DC*%
X76800000Y-30850000D02*
X75667991Y-30850000D01*
X75667991Y-30850000D02*
X68960269Y-37557722D01*
%TO.N,/BUTTON_L*%
X52700000Y-25000000D02*
X40600000Y-25000000D01*
X56500000Y-28800000D02*
X52700000Y-25000000D01*
X40600000Y-25000000D02*
X37200000Y-21600000D01*
X60920000Y-32320000D02*
X57400000Y-28800000D01*
X23100000Y-22900000D02*
X23100000Y-24500000D01*
X23100000Y-24500000D02*
X23100000Y-24400000D01*
X37200000Y-21600000D02*
X24400000Y-21600000D01*
X60920000Y-34780000D02*
X60920000Y-32320000D01*
X57400000Y-28800000D02*
X56500000Y-28800000D01*
X24400000Y-21600000D02*
X23100000Y-22900000D01*
%TO.N,/BUTTON_R*%
X88330000Y-38400000D02*
X64600000Y-38400000D01*
X89715000Y-29715000D02*
X89715000Y-37015000D01*
X89715000Y-37015000D02*
X88330000Y-38400000D01*
%TO.N,/BUTTON_MENU*%
X75250000Y-22200000D02*
X77600000Y-22200000D01*
X75250000Y-22200000D02*
X74399999Y-23050001D01*
X74399999Y-23050001D02*
X74399999Y-27050001D01*
X62890000Y-38560000D02*
X61570000Y-38560000D01*
X74399999Y-27050001D02*
X62890000Y-38560000D01*
%TO.N,/AUDIO_I2S_DOUT*%
X56559994Y-32812133D02*
X52372127Y-37000000D01*
X56559994Y-32600000D02*
X56559994Y-32812133D01*
X52372127Y-37000000D02*
X50850000Y-37000000D01*
%TO.N,Net-(J1-DP1)*%
X64500000Y-27200000D02*
X70280000Y-27200000D01*
X70280000Y-27200000D02*
X71120000Y-26360000D01*
X64250000Y-27450000D02*
X64500000Y-27200000D01*
X72712500Y-23237500D02*
X72712500Y-21075000D01*
X71120000Y-26360000D02*
X71120000Y-24830000D01*
X71120000Y-24830000D02*
X72712500Y-23237500D01*
%TO.N,/AUDIO_I2S_EN*%
X50912808Y-36424997D02*
X51187811Y-36700000D01*
X55984991Y-32961458D02*
X52246449Y-36700000D01*
X55984991Y-32600000D02*
X55984991Y-32961458D01*
X52246449Y-36700000D02*
X51187811Y-36700000D01*
X50850000Y-36424997D02*
X50912808Y-36424997D01*
%TO.N,/AUDIO_I2S_LRCK*%
X49713189Y-38301000D02*
X50799000Y-38301000D01*
X57710000Y-32662808D02*
X57710000Y-32600000D01*
X51498000Y-37602000D02*
X52621483Y-37602000D01*
X57321808Y-33051000D02*
X57710000Y-32662808D01*
X50799000Y-38301000D02*
X51498000Y-37602000D01*
X57174678Y-33051000D02*
X57321808Y-33051000D01*
X52624678Y-37601000D02*
X57174678Y-33051000D01*
X52622483Y-37601000D02*
X52624678Y-37601000D01*
X49324997Y-37850000D02*
X49324997Y-37912808D01*
X49324997Y-37912808D02*
X49713189Y-38301000D01*
X57585997Y-32614003D02*
X57600000Y-32600000D01*
X57600000Y-32600000D02*
X57710000Y-32600000D01*
X52621483Y-37602000D02*
X52622483Y-37601000D01*
%TO.N,/AUDIO_I2S_BCLK*%
X52496805Y-37301000D02*
X51199000Y-37301000D01*
X52497805Y-37300000D02*
X52496805Y-37301000D01*
X50900000Y-37600000D02*
X50850000Y-37600000D01*
X52500000Y-37300000D02*
X52497805Y-37300000D01*
X51199000Y-37301000D02*
X50900000Y-37600000D01*
X57134997Y-32600000D02*
X57134997Y-32665003D01*
X57134997Y-32665003D02*
X52500000Y-37300000D01*
%TO.N,/USB_D+*%
X67150000Y-28540000D02*
X67150000Y-28200000D01*
X67150000Y-28200000D02*
X67351000Y-27999000D01*
X66151249Y-29538751D02*
X67150000Y-28540000D01*
X72712500Y-27177500D02*
X72712500Y-24300000D01*
X66151249Y-29618701D02*
X66151249Y-29538751D01*
X67351000Y-27999000D02*
X71891000Y-27999000D01*
X71891000Y-27999000D02*
X72712500Y-27177500D01*
%TO.N,/USB_D-*%
X67154000Y-27626000D02*
X66820000Y-27960000D01*
X66820000Y-28444322D02*
X66140596Y-29123726D01*
X66140596Y-29123726D02*
X65656274Y-29123726D01*
X66820000Y-27960000D02*
X66820000Y-28444322D01*
X71634000Y-27626000D02*
X67154000Y-27626000D01*
X72172500Y-24650000D02*
X72172500Y-27087500D01*
X72172500Y-27087500D02*
X71634000Y-27626000D01*
%TO.N,/PWR_~{PGOOD}*%
X53574322Y-21500000D02*
X54719000Y-22644678D01*
X54719000Y-22644678D02*
X54719000Y-26144678D01*
X52650000Y-21000000D02*
X53150000Y-21500000D01*
X57151356Y-27700000D02*
X57151356Y-27701356D01*
X54719000Y-26144678D02*
X56274322Y-27700000D01*
X57151356Y-27701356D02*
X57800000Y-28350000D01*
X53150000Y-21500000D02*
X53574322Y-21500000D01*
X52100000Y-21000000D02*
X52650000Y-21000000D01*
X56274322Y-27700000D02*
X57151356Y-27700000D01*
%TO.N,/PWR_~{CHG}*%
X55020000Y-22520000D02*
X55020000Y-26020000D01*
X55020000Y-26020000D02*
X56399000Y-27399000D01*
X56399000Y-27399000D02*
X57276034Y-27399000D01*
X53500000Y-21000000D02*
X55020000Y-22520000D01*
X57277034Y-27400000D02*
X57500000Y-27400000D01*
X57500000Y-27400000D02*
X57800000Y-27700000D01*
X57276034Y-27399000D02*
X57277034Y-27400000D01*
%TO.N,/PWR_CHG_EN*%
X56801000Y-28001000D02*
X57150000Y-28350000D01*
X52500000Y-22400000D02*
X54048644Y-22400000D01*
X54418000Y-22769356D02*
X54418000Y-26269356D01*
X52100000Y-22000000D02*
X52500000Y-22400000D01*
X50000000Y-22000000D02*
X52100000Y-22000000D01*
X54048644Y-22400000D02*
X54418000Y-22769356D01*
X54418000Y-26269356D02*
X56149644Y-28001000D01*
X56149644Y-28001000D02*
X56801000Y-28001000D01*
%TO.N,Net-(R9-Pad1)*%
X48499000Y-38087492D02*
X49314508Y-38903000D01*
X42950000Y-31750000D02*
X48499000Y-37299000D01*
X63774322Y-37250000D02*
X68250000Y-32774322D01*
X51750000Y-38204000D02*
X52873034Y-38204000D01*
X49314508Y-38903000D02*
X51051000Y-38903000D01*
X48499000Y-37299000D02*
X48499000Y-38087492D01*
X68250000Y-32774322D02*
X68250000Y-32500000D01*
X52873034Y-38204000D02*
X53827034Y-37250000D01*
X40050000Y-31750000D02*
X42950000Y-31750000D01*
X51051000Y-38903000D02*
X51750000Y-38204000D01*
X53827034Y-37250000D02*
X63774322Y-37250000D01*
%TO.N,Net-(U2-RUN)*%
X48800000Y-37174322D02*
X43074678Y-31449000D01*
X43074678Y-31449000D02*
X41849000Y-31449000D01*
X58201000Y-35799000D02*
X54852356Y-35799000D01*
X49439186Y-38602000D02*
X48800000Y-37962814D01*
X50923678Y-38602000D02*
X49439186Y-38602000D01*
X58550000Y-35450000D02*
X58201000Y-35799000D01*
X40050000Y-29650000D02*
X40050000Y-27750000D01*
X54852356Y-35799000D02*
X52748356Y-37903000D01*
X48800000Y-37962814D02*
X48800000Y-37174322D01*
X51622678Y-37903000D02*
X50923678Y-38602000D01*
X41849000Y-31449000D02*
X40050000Y-29650000D01*
X52748356Y-37903000D02*
X51622678Y-37903000D01*
%TD*%
%TA.AperFunction,Conductor*%
%TO.N,3V3*%
G36*
X57607826Y-20222174D02*
G01*
X57629500Y-20274500D01*
X57629500Y-20586012D01*
X57607826Y-20638338D01*
X57555500Y-20660012D01*
X57514388Y-20647541D01*
X57429179Y-20590606D01*
X57429175Y-20590604D01*
X57429173Y-20590603D01*
X57429174Y-20590603D01*
X57283501Y-20530264D01*
X57283491Y-20530261D01*
X57179925Y-20509661D01*
X57128842Y-20499500D01*
X56971158Y-20499500D01*
X56927315Y-20508220D01*
X56816508Y-20530261D01*
X56816498Y-20530264D01*
X56670825Y-20590603D01*
X56539711Y-20678210D01*
X56539710Y-20678212D01*
X56428212Y-20789710D01*
X56428210Y-20789711D01*
X56340603Y-20920825D01*
X56280264Y-21066498D01*
X56280261Y-21066508D01*
X56249500Y-21221158D01*
X56249500Y-21747678D01*
X56227826Y-21800004D01*
X56175500Y-21821678D01*
X56123174Y-21800004D01*
X56032665Y-21709495D01*
X55912836Y-21640312D01*
X55912831Y-21640310D01*
X55779185Y-21604500D01*
X55779183Y-21604500D01*
X55640817Y-21604500D01*
X55640815Y-21604500D01*
X55507168Y-21640310D01*
X55507163Y-21640312D01*
X55387334Y-21709495D01*
X55289495Y-21807334D01*
X55220312Y-21927163D01*
X55220311Y-21927167D01*
X55205565Y-21982196D01*
X55171086Y-22027129D01*
X55114933Y-22034520D01*
X55081761Y-22015368D01*
X54619607Y-21553214D01*
X54597933Y-21500888D01*
X54619607Y-21448562D01*
X54622662Y-21445506D01*
X54622665Y-21445505D01*
X54720505Y-21347665D01*
X54789688Y-21227836D01*
X54825499Y-21094185D01*
X54825500Y-21094185D01*
X54825500Y-20955815D01*
X54825499Y-20955814D01*
X54818800Y-20930814D01*
X54789688Y-20822164D01*
X54720505Y-20702335D01*
X54622665Y-20604495D01*
X54502836Y-20535312D01*
X54502831Y-20535310D01*
X54369185Y-20499500D01*
X54369183Y-20499500D01*
X54230817Y-20499500D01*
X54230815Y-20499500D01*
X54097168Y-20535310D01*
X54097163Y-20535312D01*
X53977334Y-20604495D01*
X53964826Y-20617004D01*
X53912500Y-20638678D01*
X53860174Y-20617004D01*
X53822665Y-20579495D01*
X53702836Y-20510312D01*
X53702831Y-20510310D01*
X53569185Y-20474500D01*
X53569183Y-20474500D01*
X53430817Y-20474500D01*
X53430815Y-20474500D01*
X53297168Y-20510310D01*
X53297163Y-20510312D01*
X53177334Y-20579495D01*
X53079491Y-20677339D01*
X53059717Y-20711589D01*
X53014784Y-20746067D01*
X52958631Y-20738673D01*
X52943310Y-20726917D01*
X52895913Y-20679520D01*
X52895910Y-20679518D01*
X52895909Y-20679517D01*
X52804592Y-20626795D01*
X52804588Y-20626793D01*
X52768054Y-20617004D01*
X52702727Y-20599500D01*
X52702726Y-20599500D01*
X52473322Y-20599500D01*
X52427874Y-20580675D01*
X52426514Y-20582448D01*
X52422667Y-20579496D01*
X52302836Y-20510312D01*
X52302831Y-20510310D01*
X52169185Y-20474500D01*
X52169183Y-20474500D01*
X52030817Y-20474500D01*
X52030815Y-20474500D01*
X51897168Y-20510310D01*
X51897163Y-20510312D01*
X51777334Y-20579495D01*
X51702326Y-20654504D01*
X51650000Y-20676178D01*
X51597674Y-20654504D01*
X51522665Y-20579495D01*
X51402836Y-20510312D01*
X51402831Y-20510310D01*
X51269185Y-20474500D01*
X51269183Y-20474500D01*
X51130817Y-20474500D01*
X51130815Y-20474500D01*
X50997168Y-20510310D01*
X50997163Y-20510312D01*
X50877334Y-20579495D01*
X50779495Y-20677334D01*
X50710312Y-20797163D01*
X50710310Y-20797168D01*
X50674500Y-20930814D01*
X50674500Y-21069185D01*
X50710310Y-21202831D01*
X50710312Y-21202836D01*
X50779495Y-21322665D01*
X50877335Y-21420505D01*
X50948192Y-21461414D01*
X50982670Y-21506347D01*
X50975278Y-21562500D01*
X50930345Y-21596978D01*
X50911192Y-21599500D01*
X50373322Y-21599500D01*
X50327874Y-21580675D01*
X50326514Y-21582448D01*
X50322667Y-21579496D01*
X50202836Y-21510312D01*
X50202831Y-21510310D01*
X50069185Y-21474500D01*
X50069183Y-21474500D01*
X49930817Y-21474500D01*
X49930815Y-21474500D01*
X49797168Y-21510310D01*
X49797163Y-21510312D01*
X49677334Y-21579495D01*
X49579495Y-21677334D01*
X49510312Y-21797163D01*
X49510310Y-21797168D01*
X49474500Y-21930814D01*
X49474500Y-22069185D01*
X49510310Y-22202831D01*
X49510312Y-22202836D01*
X49579495Y-22322665D01*
X49677335Y-22420505D01*
X49797164Y-22489688D01*
X49930814Y-22525499D01*
X49930815Y-22525500D01*
X49930817Y-22525500D01*
X50069185Y-22525500D01*
X50069185Y-22525499D01*
X50202836Y-22489688D01*
X50322665Y-22420505D01*
X50322667Y-22420503D01*
X50326514Y-22417552D01*
X50327874Y-22419324D01*
X50373322Y-22400500D01*
X50480178Y-22400500D01*
X50532504Y-22422174D01*
X50554178Y-22474500D01*
X50532504Y-22526826D01*
X50521995Y-22537334D01*
X50452812Y-22657163D01*
X50452810Y-22657168D01*
X50417000Y-22790814D01*
X50417000Y-22929185D01*
X50452810Y-23062832D01*
X50452813Y-23062840D01*
X50454544Y-23065837D01*
X50461935Y-23121990D01*
X50454545Y-23139831D01*
X50450314Y-23147159D01*
X50450310Y-23147168D01*
X50414500Y-23280814D01*
X50414500Y-23419185D01*
X50450310Y-23552831D01*
X50450313Y-23552838D01*
X50456181Y-23563002D01*
X50463572Y-23619155D01*
X50456181Y-23636998D01*
X50450313Y-23647161D01*
X50450310Y-23647168D01*
X50414500Y-23780814D01*
X50414500Y-23919185D01*
X50450310Y-24052831D01*
X50450312Y-24052836D01*
X50519495Y-24172665D01*
X50617335Y-24270505D01*
X50737164Y-24339688D01*
X50870814Y-24375499D01*
X50870815Y-24375500D01*
X50870817Y-24375500D01*
X51009185Y-24375500D01*
X51009185Y-24375499D01*
X51142836Y-24339688D01*
X51151749Y-24334541D01*
X51207900Y-24327148D01*
X51225748Y-24334540D01*
X51234664Y-24339688D01*
X51234666Y-24339688D01*
X51234667Y-24339689D01*
X51301490Y-24357594D01*
X51368314Y-24375499D01*
X51368315Y-24375500D01*
X51368317Y-24375500D01*
X51506685Y-24375500D01*
X51506685Y-24375499D01*
X51640336Y-24339688D01*
X51640338Y-24339686D01*
X51640340Y-24339686D01*
X51651749Y-24333099D01*
X51707902Y-24325705D01*
X51725751Y-24333099D01*
X51737159Y-24339686D01*
X51737167Y-24339689D01*
X51803990Y-24357594D01*
X51870814Y-24375499D01*
X51870815Y-24375500D01*
X51870817Y-24375500D01*
X52009185Y-24375500D01*
X52009185Y-24375499D01*
X52142836Y-24339688D01*
X52262665Y-24270505D01*
X52360505Y-24172665D01*
X52429688Y-24052836D01*
X52465499Y-23919185D01*
X52465500Y-23919185D01*
X52465500Y-23780815D01*
X52465499Y-23780814D01*
X52461204Y-23764786D01*
X52435806Y-23669995D01*
X52429689Y-23647167D01*
X52429687Y-23647162D01*
X52423821Y-23637003D01*
X52416426Y-23580851D01*
X52423821Y-23562997D01*
X52423917Y-23562831D01*
X52429688Y-23552836D01*
X52465499Y-23419185D01*
X52465500Y-23419185D01*
X52465500Y-23280815D01*
X52465499Y-23280814D01*
X52458800Y-23255814D01*
X52439765Y-23184773D01*
X52429689Y-23147167D01*
X52429688Y-23147165D01*
X52429688Y-23147164D01*
X52427955Y-23144163D01*
X52420563Y-23088012D01*
X52427956Y-23070164D01*
X52432188Y-23062836D01*
X52467999Y-22929185D01*
X52468000Y-22929185D01*
X52468000Y-22874500D01*
X52489674Y-22822174D01*
X52542000Y-22800500D01*
X52552727Y-22800500D01*
X53202678Y-22800500D01*
X53255004Y-22822174D01*
X53276678Y-22874500D01*
X53255004Y-22926826D01*
X53179495Y-23002334D01*
X53110312Y-23122163D01*
X53110310Y-23122168D01*
X53074500Y-23255814D01*
X53074500Y-23394185D01*
X53110310Y-23527831D01*
X53110312Y-23527836D01*
X53179495Y-23647665D01*
X53277335Y-23745505D01*
X53397164Y-23814688D01*
X53530814Y-23850499D01*
X53530815Y-23850500D01*
X53530817Y-23850500D01*
X53669185Y-23850500D01*
X53669185Y-23850499D01*
X53802836Y-23814688D01*
X53906501Y-23754836D01*
X53962653Y-23747444D01*
X54007586Y-23781923D01*
X54017500Y-23818923D01*
X54017500Y-25572455D01*
X53995826Y-25624781D01*
X53943500Y-25646455D01*
X53891174Y-25624781D01*
X53433097Y-25166704D01*
X52945913Y-24679520D01*
X52945910Y-24679518D01*
X52945909Y-24679517D01*
X52854592Y-24626795D01*
X52854588Y-24626793D01*
X52839182Y-24622665D01*
X52752727Y-24599500D01*
X52752726Y-24599500D01*
X40796545Y-24599500D01*
X40744219Y-24577826D01*
X39784497Y-23618104D01*
X42099499Y-23618104D01*
X42106052Y-23672665D01*
X42110123Y-23706564D01*
X42126244Y-23747444D01*
X42165638Y-23847341D01*
X42232492Y-23935500D01*
X42257078Y-23967922D01*
X42377658Y-24059361D01*
X42518436Y-24114877D01*
X42589764Y-24123442D01*
X42606896Y-24125500D01*
X42606898Y-24125500D01*
X43393104Y-24125500D01*
X43408722Y-24123624D01*
X43481564Y-24114877D01*
X43622342Y-24059361D01*
X43742922Y-23967922D01*
X43834361Y-23847342D01*
X43889877Y-23706564D01*
X43900500Y-23618102D01*
X43900500Y-22586309D01*
X44099501Y-22586309D01*
X44099501Y-23313691D01*
X44104897Y-23340817D01*
X44134105Y-23487660D01*
X44134108Y-23487670D01*
X44201986Y-23651544D01*
X44297243Y-23794106D01*
X44300537Y-23799035D01*
X44425966Y-23924464D01*
X44573454Y-24023013D01*
X44573455Y-24023013D01*
X44573456Y-24023014D01*
X44677124Y-24065954D01*
X44737335Y-24090894D01*
X44911310Y-24125500D01*
X44911312Y-24125500D01*
X45088690Y-24125500D01*
X45088692Y-24125500D01*
X45262667Y-24090894D01*
X45426548Y-24023013D01*
X45574036Y-23924464D01*
X45699465Y-23799035D01*
X45798014Y-23651547D01*
X45865895Y-23487666D01*
X45900501Y-23313691D01*
X45900501Y-22586309D01*
X45865895Y-22412334D01*
X45828753Y-22322665D01*
X45798015Y-22248455D01*
X45767464Y-22202733D01*
X45699465Y-22100965D01*
X45574036Y-21975536D01*
X45564528Y-21969183D01*
X45426545Y-21876985D01*
X45262671Y-21809107D01*
X45262661Y-21809104D01*
X45142097Y-21785123D01*
X45088692Y-21774500D01*
X44911310Y-21774500D01*
X44871353Y-21782448D01*
X44737340Y-21809104D01*
X44737330Y-21809107D01*
X44573456Y-21876985D01*
X44425969Y-21975533D01*
X44300534Y-22100968D01*
X44201986Y-22248455D01*
X44134108Y-22412329D01*
X44134105Y-22412339D01*
X44105641Y-22555439D01*
X44099501Y-22586309D01*
X43900500Y-22586309D01*
X43900500Y-22281898D01*
X43898973Y-22269185D01*
X43896484Y-22248453D01*
X43889877Y-22193436D01*
X43834361Y-22052658D01*
X43742922Y-21932078D01*
X43701281Y-21900500D01*
X43622341Y-21840638D01*
X43518021Y-21799500D01*
X43481564Y-21785123D01*
X43452076Y-21781582D01*
X43393104Y-21774500D01*
X43393102Y-21774500D01*
X42606898Y-21774500D01*
X42606896Y-21774500D01*
X42518436Y-21785123D01*
X42377658Y-21840638D01*
X42257078Y-21932077D01*
X42257077Y-21932078D01*
X42165638Y-22052658D01*
X42110123Y-22193436D01*
X42101027Y-22269185D01*
X42099500Y-22281898D01*
X42099500Y-23618102D01*
X42099500Y-23618104D01*
X42099499Y-23618104D01*
X39784497Y-23618104D01*
X39643578Y-23477185D01*
X37445913Y-21279520D01*
X37445910Y-21279518D01*
X37445909Y-21279517D01*
X37354592Y-21226795D01*
X37354588Y-21226793D01*
X37265177Y-21202836D01*
X37252727Y-21199500D01*
X37252726Y-21199500D01*
X24457273Y-21199500D01*
X24457257Y-21199499D01*
X24452727Y-21199499D01*
X24347273Y-21199499D01*
X24347272Y-21199499D01*
X24306858Y-21210328D01*
X24266443Y-21221158D01*
X24254299Y-21224411D01*
X24245411Y-21226793D01*
X24154086Y-21279520D01*
X24079518Y-21354089D01*
X22779517Y-22654090D01*
X22726795Y-22745407D01*
X22726791Y-22745416D01*
X22705601Y-22824498D01*
X22705602Y-22824499D01*
X22699500Y-22847273D01*
X22699500Y-24126678D01*
X22680675Y-24172125D01*
X22682448Y-24173486D01*
X22679496Y-24177332D01*
X22610312Y-24297163D01*
X22610310Y-24297168D01*
X22574500Y-24430814D01*
X22574500Y-24569185D01*
X22610310Y-24702831D01*
X22610312Y-24702836D01*
X22679495Y-24822665D01*
X22777335Y-24920505D01*
X22897164Y-24989688D01*
X23030814Y-25025499D01*
X23030815Y-25025500D01*
X23030817Y-25025500D01*
X23169185Y-25025500D01*
X23169185Y-25025499D01*
X23302836Y-24989688D01*
X23422665Y-24920505D01*
X23520505Y-24822665D01*
X23589688Y-24702836D01*
X23625499Y-24569185D01*
X23625500Y-24569185D01*
X23625500Y-24482326D01*
X30139500Y-24482326D01*
X30139500Y-24757674D01*
X30147858Y-24821158D01*
X30175439Y-25030664D01*
X30246704Y-25296631D01*
X30352075Y-25551017D01*
X30352076Y-25551020D01*
X30489748Y-25789475D01*
X30489752Y-25789481D01*
X30657366Y-26007922D01*
X30852077Y-26202633D01*
X31070518Y-26370247D01*
X31070524Y-26370251D01*
X31279172Y-26490714D01*
X31308979Y-26507923D01*
X31563368Y-26613295D01*
X31829334Y-26684560D01*
X32102326Y-26720500D01*
X32102328Y-26720500D01*
X32377672Y-26720500D01*
X32377674Y-26720500D01*
X32650666Y-26684560D01*
X32916632Y-26613295D01*
X33171021Y-26507923D01*
X33409479Y-26370249D01*
X33589295Y-26232272D01*
X33627922Y-26202633D01*
X33627923Y-26202631D01*
X33627928Y-26202628D01*
X33822628Y-26007928D01*
X33835983Y-25990524D01*
X33990247Y-25789481D01*
X33990249Y-25789479D01*
X34127923Y-25551021D01*
X34233295Y-25296632D01*
X34304560Y-25030666D01*
X34340500Y-24757674D01*
X34340500Y-24482326D01*
X34304560Y-24209334D01*
X34233295Y-23943368D01*
X34127923Y-23688979D01*
X34049321Y-23552836D01*
X33990251Y-23450524D01*
X33990247Y-23450518D01*
X33822633Y-23232077D01*
X33627922Y-23037366D01*
X33409481Y-22869752D01*
X33409475Y-22869748D01*
X33171020Y-22732076D01*
X33171017Y-22732075D01*
X32916631Y-22626704D01*
X32650664Y-22555439D01*
X32449552Y-22528962D01*
X32377674Y-22519500D01*
X32102326Y-22519500D01*
X32038810Y-22527862D01*
X31829335Y-22555439D01*
X31563368Y-22626704D01*
X31308982Y-22732075D01*
X31308979Y-22732076D01*
X31070524Y-22869748D01*
X31070518Y-22869752D01*
X30852077Y-23037366D01*
X30657366Y-23232077D01*
X30489752Y-23450518D01*
X30489748Y-23450524D01*
X30352076Y-23688979D01*
X30352075Y-23688982D01*
X30246704Y-23943368D01*
X30175439Y-24209335D01*
X30146281Y-24430817D01*
X30139500Y-24482326D01*
X23625500Y-24482326D01*
X23625500Y-24430815D01*
X23625499Y-24430814D01*
X23603154Y-24347422D01*
X23589688Y-24297164D01*
X23520505Y-24177335D01*
X23520504Y-24177334D01*
X23520503Y-24177332D01*
X23517552Y-24173486D01*
X23519324Y-24172125D01*
X23500500Y-24126678D01*
X23500500Y-23096544D01*
X23522174Y-23044218D01*
X24544218Y-22022174D01*
X24596544Y-22000500D01*
X37003455Y-22000500D01*
X37055781Y-22022174D01*
X40354087Y-25320480D01*
X40445412Y-25373207D01*
X40547273Y-25400500D01*
X40652727Y-25400500D01*
X47942891Y-25400500D01*
X47995217Y-25422174D01*
X48016891Y-25474500D01*
X47995217Y-25526826D01*
X47979890Y-25538586D01*
X47952335Y-25554494D01*
X47854495Y-25652334D01*
X47785312Y-25772163D01*
X47785310Y-25772168D01*
X47749500Y-25905814D01*
X47749500Y-26044185D01*
X47785310Y-26177831D01*
X47785312Y-26177836D01*
X47854495Y-26297665D01*
X47952335Y-26395505D01*
X48072164Y-26464688D01*
X48205814Y-26500499D01*
X48205815Y-26500500D01*
X48205817Y-26500500D01*
X48344185Y-26500500D01*
X48344185Y-26500499D01*
X48477836Y-26464688D01*
X48597665Y-26395505D01*
X48695505Y-26297665D01*
X48764688Y-26177836D01*
X48800499Y-26044185D01*
X48800500Y-26044185D01*
X48800500Y-25905815D01*
X48800499Y-25905814D01*
X48769327Y-25789479D01*
X48764688Y-25772164D01*
X48695505Y-25652335D01*
X48597665Y-25554495D01*
X48597664Y-25554494D01*
X48570110Y-25538586D01*
X48535631Y-25493653D01*
X48543023Y-25437501D01*
X48587956Y-25403022D01*
X48607109Y-25400500D01*
X49489230Y-25400500D01*
X49541556Y-25422174D01*
X49563230Y-25474500D01*
X49541556Y-25526826D01*
X49526230Y-25538586D01*
X49507334Y-25549495D01*
X49409495Y-25647334D01*
X49340312Y-25767163D01*
X49340310Y-25767168D01*
X49304500Y-25900814D01*
X49304500Y-26039185D01*
X49340310Y-26172831D01*
X49340312Y-26172836D01*
X49409495Y-26292665D01*
X49507335Y-26390505D01*
X49627164Y-26459688D01*
X49760814Y-26495499D01*
X49760815Y-26495500D01*
X49760817Y-26495500D01*
X49899185Y-26495500D01*
X49899185Y-26495499D01*
X50032836Y-26459688D01*
X50152665Y-26390505D01*
X50250505Y-26292665D01*
X50319688Y-26172836D01*
X50355499Y-26039185D01*
X50355500Y-26039185D01*
X50355500Y-25900815D01*
X50355499Y-25900814D01*
X50322816Y-25778840D01*
X50319688Y-25767164D01*
X50250505Y-25647335D01*
X50152665Y-25549495D01*
X50133770Y-25538586D01*
X50099291Y-25493652D01*
X50106684Y-25437500D01*
X50151618Y-25403021D01*
X50170770Y-25400500D01*
X52503455Y-25400500D01*
X52555781Y-25422174D01*
X53601670Y-26468063D01*
X53623344Y-26520389D01*
X53601670Y-26572715D01*
X53568498Y-26591867D01*
X53499667Y-26610311D01*
X53499663Y-26610312D01*
X53379834Y-26679495D01*
X53281995Y-26777334D01*
X53212812Y-26897163D01*
X53212810Y-26897168D01*
X53177000Y-27030814D01*
X53177000Y-27169185D01*
X53212810Y-27302831D01*
X53212812Y-27302835D01*
X53212812Y-27302836D01*
X53281995Y-27422665D01*
X53379835Y-27520505D01*
X53499664Y-27589688D01*
X53633314Y-27625499D01*
X53633315Y-27625500D01*
X53633317Y-27625500D01*
X53771685Y-27625500D01*
X53771685Y-27625499D01*
X53905336Y-27589688D01*
X54025165Y-27520505D01*
X54123005Y-27422665D01*
X54192188Y-27302836D01*
X54210632Y-27234000D01*
X54245110Y-27189068D01*
X54301262Y-27181675D01*
X54334436Y-27200828D01*
X56176931Y-29043323D01*
X56176936Y-29043329D01*
X56179520Y-29045913D01*
X56254087Y-29120480D01*
X56324414Y-29161083D01*
X56345413Y-29173207D01*
X56353822Y-29175460D01*
X56360391Y-29178710D01*
X56374571Y-29194920D01*
X56391660Y-29208030D01*
X56392657Y-29215595D01*
X56397681Y-29221339D01*
X56396245Y-29242828D01*
X56399060Y-29264182D01*
X56394415Y-29270236D01*
X56393907Y-29277850D01*
X56377696Y-29292030D01*
X56364587Y-29309119D01*
X56364579Y-29309124D01*
X56277334Y-29359495D01*
X56179495Y-29457334D01*
X56110312Y-29577163D01*
X56110310Y-29577168D01*
X56074500Y-29710814D01*
X56074500Y-29849185D01*
X56110310Y-29982831D01*
X56110312Y-29982836D01*
X56179495Y-30102665D01*
X56277335Y-30200505D01*
X56397164Y-30269688D01*
X56530814Y-30305499D01*
X56530815Y-30305500D01*
X56530817Y-30305500D01*
X56669185Y-30305500D01*
X56669185Y-30305499D01*
X56802836Y-30269688D01*
X56922665Y-30200505D01*
X57020505Y-30102665D01*
X57089688Y-29982836D01*
X57125499Y-29849185D01*
X57125500Y-29849185D01*
X57125500Y-29710815D01*
X57125499Y-29710814D01*
X57108082Y-29645814D01*
X57089688Y-29577164D01*
X57020505Y-29457335D01*
X56922665Y-29359495D01*
X56886448Y-29338585D01*
X56851971Y-29293653D01*
X56859363Y-29237500D01*
X56904296Y-29203022D01*
X56923449Y-29200500D01*
X57203455Y-29200500D01*
X57255781Y-29222174D01*
X60497826Y-32464218D01*
X60519500Y-32516544D01*
X60519500Y-34406678D01*
X60500675Y-34452125D01*
X60502448Y-34453486D01*
X60499496Y-34457332D01*
X60430312Y-34577163D01*
X60430310Y-34577168D01*
X60394500Y-34710814D01*
X60394500Y-34849185D01*
X60430310Y-34982831D01*
X60430312Y-34982836D01*
X60499495Y-35102665D01*
X60597335Y-35200505D01*
X60717164Y-35269688D01*
X60850814Y-35305499D01*
X60850815Y-35305500D01*
X60850817Y-35305500D01*
X60989185Y-35305500D01*
X60989185Y-35305499D01*
X61122836Y-35269688D01*
X61242665Y-35200505D01*
X61340505Y-35102665D01*
X61409688Y-34982836D01*
X61445499Y-34849185D01*
X61445500Y-34849185D01*
X61445500Y-34710815D01*
X61445499Y-34710814D01*
X61442736Y-34700504D01*
X61409688Y-34577164D01*
X61340505Y-34457335D01*
X61340504Y-34457334D01*
X61340503Y-34457332D01*
X61337552Y-34453486D01*
X61339324Y-34452125D01*
X61320500Y-34406678D01*
X61320500Y-34073448D01*
X61342174Y-34021122D01*
X61394500Y-33999448D01*
X61446826Y-34021122D01*
X61458586Y-34036449D01*
X61477485Y-34069185D01*
X61479495Y-34072665D01*
X61577335Y-34170505D01*
X61697164Y-34239688D01*
X61830814Y-34275499D01*
X61830815Y-34275500D01*
X61830817Y-34275500D01*
X61850500Y-34275500D01*
X61902826Y-34297174D01*
X61924500Y-34349500D01*
X61924500Y-34369185D01*
X61960310Y-34502831D01*
X61960312Y-34502836D01*
X62029495Y-34622665D01*
X62127335Y-34720505D01*
X62247164Y-34789688D01*
X62380814Y-34825499D01*
X62380815Y-34825500D01*
X62380817Y-34825500D01*
X62400500Y-34825500D01*
X62452826Y-34847174D01*
X62474500Y-34899500D01*
X62474500Y-34919185D01*
X62510310Y-35052831D01*
X62510312Y-35052836D01*
X62579495Y-35172665D01*
X62677335Y-35270505D01*
X62797164Y-35339688D01*
X62930814Y-35375499D01*
X62930815Y-35375500D01*
X62930817Y-35375500D01*
X63069185Y-35375500D01*
X63069185Y-35375499D01*
X63202836Y-35339688D01*
X63322665Y-35270505D01*
X63420505Y-35172665D01*
X63489688Y-35052836D01*
X63525499Y-34919185D01*
X63525500Y-34919185D01*
X63525500Y-34879500D01*
X63547174Y-34827174D01*
X63599500Y-34805500D01*
X63619185Y-34805500D01*
X63619185Y-34805499D01*
X63752836Y-34769688D01*
X63872665Y-34700505D01*
X63970505Y-34602665D01*
X64039688Y-34482836D01*
X64075500Y-34349183D01*
X64075500Y-34349177D01*
X64076133Y-34344376D01*
X64077545Y-34344561D01*
X64097174Y-34297174D01*
X64149500Y-34275500D01*
X64169185Y-34275500D01*
X64169185Y-34275499D01*
X64302836Y-34239688D01*
X64422665Y-34170505D01*
X64520505Y-34072665D01*
X64589688Y-33952836D01*
X64625499Y-33819185D01*
X64625500Y-33819185D01*
X64625500Y-33680815D01*
X64625499Y-33680814D01*
X64622736Y-33670504D01*
X64589688Y-33547164D01*
X64520505Y-33427335D01*
X64422665Y-33329495D01*
X64302836Y-33260312D01*
X64302831Y-33260310D01*
X64169185Y-33224500D01*
X64169183Y-33224500D01*
X64139500Y-33224500D01*
X64087174Y-33202826D01*
X64065500Y-33150500D01*
X64065500Y-33130815D01*
X64065499Y-33130814D01*
X64052102Y-33080817D01*
X64029688Y-32997164D01*
X63960505Y-32877335D01*
X63862665Y-32779495D01*
X63742836Y-32710312D01*
X63742831Y-32710310D01*
X63609185Y-32674500D01*
X63609183Y-32674500D01*
X63599500Y-32674500D01*
X63547174Y-32652826D01*
X63525500Y-32600500D01*
X63525500Y-32580815D01*
X63525499Y-32580814D01*
X63512102Y-32530817D01*
X63489688Y-32447164D01*
X63420505Y-32327335D01*
X63322665Y-32229495D01*
X63202836Y-32160312D01*
X63202831Y-32160310D01*
X63069185Y-32124500D01*
X63069183Y-32124500D01*
X62930817Y-32124500D01*
X62930815Y-32124500D01*
X62797168Y-32160310D01*
X62797163Y-32160312D01*
X62677334Y-32229495D01*
X62579495Y-32327334D01*
X62510312Y-32447163D01*
X62510310Y-32447168D01*
X62474500Y-32580814D01*
X62474500Y-32610500D01*
X62452826Y-32662826D01*
X62405438Y-32682454D01*
X62405624Y-32683867D01*
X62400814Y-32684500D01*
X62267168Y-32720310D01*
X62267163Y-32720312D01*
X62147334Y-32789495D01*
X62049495Y-32887334D01*
X61980312Y-33007163D01*
X61980310Y-33007168D01*
X61944500Y-33140814D01*
X61944500Y-33150500D01*
X61922826Y-33202826D01*
X61870500Y-33224500D01*
X61830815Y-33224500D01*
X61697168Y-33260310D01*
X61697163Y-33260312D01*
X61577334Y-33329495D01*
X61479495Y-33427334D01*
X61458586Y-33463551D01*
X61413653Y-33498029D01*
X61357500Y-33490637D01*
X61323022Y-33445704D01*
X61320500Y-33426551D01*
X61320500Y-32378698D01*
X61320501Y-32378685D01*
X61320501Y-32267271D01*
X61320500Y-32267270D01*
X61313109Y-32239688D01*
X61294572Y-32170505D01*
X61293208Y-32165415D01*
X61293207Y-32165413D01*
X61293207Y-32165412D01*
X61240718Y-32074500D01*
X61240480Y-32074087D01*
X61165913Y-31999520D01*
X61165910Y-31999518D01*
X59641891Y-30475499D01*
X58084686Y-28918293D01*
X58073085Y-28906692D01*
X58058224Y-28870814D01*
X59114500Y-28870814D01*
X59114500Y-29009185D01*
X59150310Y-29142831D01*
X59150312Y-29142836D01*
X59219495Y-29262665D01*
X59317335Y-29360505D01*
X59437164Y-29429688D01*
X59570814Y-29465499D01*
X59570815Y-29465500D01*
X59570817Y-29465500D01*
X59709185Y-29465500D01*
X59709185Y-29465499D01*
X59842836Y-29429688D01*
X59962665Y-29360505D01*
X60060505Y-29262665D01*
X60129688Y-29142836D01*
X60158951Y-29033621D01*
X60193429Y-28988690D01*
X60211277Y-28981297D01*
X60214154Y-28980526D01*
X60214157Y-28980526D01*
X60347810Y-28944714D01*
X60467639Y-28875531D01*
X60565479Y-28777691D01*
X60634662Y-28657862D01*
X60634905Y-28656958D01*
X60662805Y-28552831D01*
X60670473Y-28524211D01*
X60670474Y-28524211D01*
X60670474Y-28385841D01*
X60670473Y-28385840D01*
X60664966Y-28365289D01*
X60634662Y-28252190D01*
X60565479Y-28132361D01*
X60467639Y-28034521D01*
X60347810Y-27965338D01*
X60347805Y-27965336D01*
X60214159Y-27929526D01*
X60214157Y-27929526D01*
X60075791Y-27929526D01*
X60075789Y-27929526D01*
X59942142Y-27965336D01*
X59942137Y-27965338D01*
X59822308Y-28034521D01*
X59724469Y-28132360D01*
X59655286Y-28252189D01*
X59655284Y-28252194D01*
X59626022Y-28361402D01*
X59591544Y-28406335D01*
X59573697Y-28413727D01*
X59437168Y-28450310D01*
X59437163Y-28450312D01*
X59317334Y-28519495D01*
X59219495Y-28617334D01*
X59150312Y-28737163D01*
X59150310Y-28737168D01*
X59114500Y-28870814D01*
X58058224Y-28870814D01*
X58051411Y-28854366D01*
X58073085Y-28802040D01*
X58088406Y-28790283D01*
X58122665Y-28770505D01*
X58220505Y-28672665D01*
X58289688Y-28552836D01*
X58325499Y-28419185D01*
X58325500Y-28419185D01*
X58325500Y-28280815D01*
X58325499Y-28280814D01*
X58317830Y-28252194D01*
X58289688Y-28147164D01*
X58240517Y-28061998D01*
X58239212Y-28052086D01*
X58233125Y-28044153D01*
X58235646Y-28025000D01*
X58233125Y-28005847D01*
X58240516Y-27988004D01*
X58273600Y-27930701D01*
X58318532Y-27896223D01*
X58374685Y-27903616D01*
X58409162Y-27948547D01*
X58409163Y-27948549D01*
X58409163Y-27948550D01*
X58410183Y-27952357D01*
X58410312Y-27952836D01*
X58479495Y-28072665D01*
X58577335Y-28170505D01*
X58697164Y-28239688D01*
X58830814Y-28275499D01*
X58830815Y-28275500D01*
X58830817Y-28275500D01*
X58969185Y-28275500D01*
X58969185Y-28275499D01*
X59102836Y-28239688D01*
X59222665Y-28170505D01*
X59320505Y-28072665D01*
X59389688Y-27952836D01*
X59425499Y-27819185D01*
X59425500Y-27819185D01*
X59425500Y-27680815D01*
X59425499Y-27680814D01*
X59423560Y-27673578D01*
X59403510Y-27598749D01*
X59410902Y-27542599D01*
X59455835Y-27508120D01*
X59511987Y-27515512D01*
X59511988Y-27515512D01*
X59597164Y-27564688D01*
X59730814Y-27600499D01*
X59730815Y-27600500D01*
X59730817Y-27600500D01*
X59869185Y-27600500D01*
X59869185Y-27600499D01*
X60002836Y-27564688D01*
X60122665Y-27495505D01*
X60220505Y-27397665D01*
X60289688Y-27277836D01*
X60325499Y-27144185D01*
X60325500Y-27144185D01*
X60325500Y-27016924D01*
X60347174Y-26964598D01*
X60399500Y-26942924D01*
X60418653Y-26945446D01*
X60530814Y-26975499D01*
X60530815Y-26975500D01*
X60530817Y-26975500D01*
X60669185Y-26975500D01*
X60669185Y-26975499D01*
X60802836Y-26939688D01*
X60922665Y-26870505D01*
X61020505Y-26772665D01*
X61089688Y-26652836D01*
X61125499Y-26519185D01*
X61125500Y-26519185D01*
X61125500Y-26380815D01*
X61125499Y-26380814D01*
X61109683Y-26321789D01*
X61089688Y-26247164D01*
X61069096Y-26211498D01*
X61061705Y-26155347D01*
X61096183Y-26110414D01*
X61133183Y-26100500D01*
X64866817Y-26100500D01*
X64919143Y-26122174D01*
X64940817Y-26174500D01*
X64930903Y-26211500D01*
X64910312Y-26247163D01*
X64910310Y-26247168D01*
X64874500Y-26380814D01*
X64874500Y-26425500D01*
X64852826Y-26477826D01*
X64800500Y-26499500D01*
X63657273Y-26499500D01*
X63657257Y-26499499D01*
X63652727Y-26499499D01*
X63547273Y-26499499D01*
X63547271Y-26499499D01*
X63445415Y-26526791D01*
X63445410Y-26526793D01*
X63413568Y-26545177D01*
X63413569Y-26545178D01*
X63354085Y-26579521D01*
X63283736Y-26649871D01*
X63283735Y-26649870D01*
X63230782Y-26702825D01*
X63185332Y-26721651D01*
X63185624Y-26723867D01*
X63180814Y-26724500D01*
X63047168Y-26760310D01*
X63047163Y-26760312D01*
X62927334Y-26829495D01*
X62829495Y-26927334D01*
X62814086Y-26954024D01*
X62769152Y-26988503D01*
X62713000Y-26981110D01*
X62685914Y-26954024D01*
X62679505Y-26942924D01*
X62670505Y-26927335D01*
X62572665Y-26829495D01*
X62452836Y-26760312D01*
X62452831Y-26760310D01*
X62319185Y-26724500D01*
X62319183Y-26724500D01*
X62180817Y-26724500D01*
X62180815Y-26724500D01*
X62047168Y-26760310D01*
X62047163Y-26760312D01*
X61927334Y-26829495D01*
X61829495Y-26927334D01*
X61760312Y-27047163D01*
X61760310Y-27047168D01*
X61724500Y-27180814D01*
X61724500Y-27319185D01*
X61760310Y-27452831D01*
X61760312Y-27452836D01*
X61829495Y-27572665D01*
X61890907Y-27634077D01*
X61902667Y-27649403D01*
X61929517Y-27695909D01*
X61929518Y-27695910D01*
X61929520Y-27695913D01*
X62179519Y-27945912D01*
X62179520Y-27945913D01*
X62254087Y-28020480D01*
X62345413Y-28073207D01*
X62419654Y-28093099D01*
X62464586Y-28127577D01*
X62474500Y-28164577D01*
X62474500Y-28269185D01*
X62510310Y-28402831D01*
X62510312Y-28402836D01*
X62579495Y-28522665D01*
X62677335Y-28620505D01*
X62797164Y-28689688D01*
X62930814Y-28725499D01*
X62930815Y-28725500D01*
X62930817Y-28725500D01*
X63069185Y-28725500D01*
X63069185Y-28725499D01*
X63202836Y-28689688D01*
X63322665Y-28620505D01*
X63420505Y-28522665D01*
X63489688Y-28402836D01*
X63525499Y-28269185D01*
X63525500Y-28269185D01*
X63525500Y-28130815D01*
X63525499Y-28130814D01*
X63525453Y-28130644D01*
X63489688Y-27997164D01*
X63428233Y-27890721D01*
X63425712Y-27871570D01*
X63418320Y-27853723D01*
X63422147Y-27844483D01*
X63420842Y-27834570D01*
X63439992Y-27801399D01*
X63495911Y-27745481D01*
X63495913Y-27745480D01*
X63561604Y-27679787D01*
X63568885Y-27673404D01*
X63572657Y-27670509D01*
X63572665Y-27670505D01*
X63633760Y-27609410D01*
X63686085Y-27587735D01*
X63738411Y-27609409D01*
X63757564Y-27642581D01*
X63760312Y-27652836D01*
X63829495Y-27772665D01*
X63927335Y-27870505D01*
X64047164Y-27939688D01*
X64180814Y-27975499D01*
X64180815Y-27975500D01*
X64180817Y-27975500D01*
X64319185Y-27975500D01*
X64319185Y-27975499D01*
X64452836Y-27939688D01*
X64572665Y-27870505D01*
X64670505Y-27772665D01*
X64739688Y-27652836D01*
X64739689Y-27652829D01*
X64741543Y-27648356D01*
X64743696Y-27649248D01*
X64773486Y-27610418D01*
X64810493Y-27600500D01*
X66436927Y-27600500D01*
X66489253Y-27622174D01*
X66510927Y-27674500D01*
X66501013Y-27711500D01*
X66472204Y-27761398D01*
X66427270Y-27795877D01*
X66388966Y-27795877D01*
X66309183Y-27774500D01*
X66170817Y-27774500D01*
X66170815Y-27774500D01*
X66037168Y-27810310D01*
X66037163Y-27810312D01*
X65917334Y-27879495D01*
X65819495Y-27977334D01*
X65750312Y-28097163D01*
X65750310Y-28097168D01*
X65714500Y-28230814D01*
X65714500Y-28230817D01*
X65714500Y-28369183D01*
X65750312Y-28502836D01*
X65750313Y-28502837D01*
X65750912Y-28505073D01*
X65743519Y-28561226D01*
X65698586Y-28595705D01*
X65679433Y-28598226D01*
X65587089Y-28598226D01*
X65453442Y-28634036D01*
X65453437Y-28634038D01*
X65333608Y-28703221D01*
X65235769Y-28801060D01*
X65166586Y-28920889D01*
X65166584Y-28920894D01*
X65130774Y-29054540D01*
X65130774Y-29192911D01*
X65166584Y-29326557D01*
X65166586Y-29326562D01*
X65235769Y-29446391D01*
X65333609Y-29544231D01*
X65453438Y-29613414D01*
X65469571Y-29617736D01*
X65576311Y-29646338D01*
X65621244Y-29680816D01*
X65628636Y-29698663D01*
X65661559Y-29821532D01*
X65661561Y-29821537D01*
X65730744Y-29941366D01*
X65828584Y-30039206D01*
X65948413Y-30108389D01*
X66082063Y-30144200D01*
X66082064Y-30144201D01*
X66082066Y-30144201D01*
X66220434Y-30144201D01*
X66220434Y-30144200D01*
X66354085Y-30108389D01*
X66473914Y-30039206D01*
X66571754Y-29941366D01*
X66640937Y-29821537D01*
X66676748Y-29687886D01*
X66676749Y-29687886D01*
X66676749Y-29610295D01*
X66698422Y-29557970D01*
X67335286Y-28921105D01*
X67387611Y-28899432D01*
X67424608Y-28909345D01*
X67477164Y-28939688D01*
X67610817Y-28975500D01*
X67610822Y-28975500D01*
X67615624Y-28976133D01*
X67615332Y-28978348D01*
X67660781Y-28997174D01*
X67810519Y-29146912D01*
X67810520Y-29146913D01*
X67885087Y-29221480D01*
X67976413Y-29274207D01*
X68078270Y-29301499D01*
X68078271Y-29301500D01*
X68078273Y-29301500D01*
X68601729Y-29301500D01*
X68604517Y-29301133D01*
X68609678Y-29300637D01*
X68611929Y-29300500D01*
X68682727Y-29300500D01*
X68703539Y-29294923D01*
X68710988Y-29294470D01*
X68731244Y-29301451D01*
X68752483Y-29304247D01*
X68757202Y-29310397D01*
X68764534Y-29312924D01*
X68773921Y-29332185D01*
X68786962Y-29349180D01*
X68785950Y-29356866D01*
X68789347Y-29363837D01*
X68782365Y-29384093D01*
X68779570Y-29405332D01*
X68772117Y-29413830D01*
X68770893Y-29417383D01*
X68767590Y-29418992D01*
X68760533Y-29427040D01*
X68757339Y-29429490D01*
X68659495Y-29527334D01*
X68590312Y-29647163D01*
X68590310Y-29647168D01*
X68554500Y-29780814D01*
X68554500Y-29919185D01*
X68590310Y-30052831D01*
X68590312Y-30052836D01*
X68659495Y-30172665D01*
X68757335Y-30270505D01*
X68877164Y-30339688D01*
X69010814Y-30375499D01*
X69010815Y-30375500D01*
X69010817Y-30375500D01*
X69149185Y-30375500D01*
X69149185Y-30375499D01*
X69282836Y-30339688D01*
X69402665Y-30270505D01*
X69500505Y-30172665D01*
X69569688Y-30052836D01*
X69605500Y-29919183D01*
X69605500Y-29919177D01*
X69606133Y-29914376D01*
X69608348Y-29914667D01*
X69627173Y-29869219D01*
X69648175Y-29848217D01*
X69700500Y-29826544D01*
X69752826Y-29848218D01*
X69774500Y-29900544D01*
X69774500Y-29919185D01*
X69810310Y-30052831D01*
X69810312Y-30052836D01*
X69879495Y-30172665D01*
X69977335Y-30270505D01*
X70097164Y-30339688D01*
X70230814Y-30375499D01*
X70230815Y-30375500D01*
X70329455Y-30375500D01*
X70381781Y-30397174D01*
X70403455Y-30449500D01*
X70381781Y-30501825D01*
X69555780Y-31327826D01*
X68740714Y-32142892D01*
X68688388Y-32164566D01*
X68636062Y-32142892D01*
X68572665Y-32079495D01*
X68452836Y-32010312D01*
X68452831Y-32010310D01*
X68319185Y-31974500D01*
X68319183Y-31974500D01*
X68180817Y-31974500D01*
X68180815Y-31974500D01*
X68047168Y-32010310D01*
X68047163Y-32010312D01*
X67927334Y-32079495D01*
X67829495Y-32177334D01*
X67760312Y-32297163D01*
X67760310Y-32297168D01*
X67724500Y-32430814D01*
X67724500Y-32430817D01*
X67724500Y-32569183D01*
X67727617Y-32580815D01*
X67748151Y-32657452D01*
X67740758Y-32713604D01*
X67728998Y-32728930D01*
X63630103Y-36827826D01*
X63577777Y-36849500D01*
X56338808Y-36849500D01*
X56286482Y-36827826D01*
X56264808Y-36775500D01*
X56286482Y-36723174D01*
X56301808Y-36711414D01*
X56303720Y-36710310D01*
X56372665Y-36670505D01*
X56470505Y-36572665D01*
X56539688Y-36452836D01*
X56575499Y-36319185D01*
X56575500Y-36319185D01*
X56575500Y-36273500D01*
X56597174Y-36221174D01*
X56649500Y-36199500D01*
X58253726Y-36199500D01*
X58253727Y-36199500D01*
X58355588Y-36172207D01*
X58446913Y-36119480D01*
X58569219Y-35997174D01*
X58614667Y-35978348D01*
X58614376Y-35976133D01*
X58619177Y-35975500D01*
X58619183Y-35975500D01*
X58752836Y-35939688D01*
X58872665Y-35870505D01*
X58970505Y-35772665D01*
X59039688Y-35652836D01*
X59075499Y-35519185D01*
X59075500Y-35519185D01*
X59075500Y-35380815D01*
X59075499Y-35380814D01*
X59074430Y-35376826D01*
X59039688Y-35247164D01*
X58970505Y-35127335D01*
X58872665Y-35029495D01*
X58752836Y-34960312D01*
X58752831Y-34960310D01*
X58619185Y-34924500D01*
X58619183Y-34924500D01*
X58480817Y-34924500D01*
X58480815Y-34924500D01*
X58347168Y-34960310D01*
X58347163Y-34960312D01*
X58227334Y-35029495D01*
X58129495Y-35127334D01*
X58060312Y-35247163D01*
X58058926Y-35252335D01*
X58034457Y-35343653D01*
X57999980Y-35388586D01*
X57962980Y-35398500D01*
X55572222Y-35398500D01*
X55519896Y-35376826D01*
X55498222Y-35324500D01*
X55519896Y-35272174D01*
X55952159Y-34839911D01*
X57252706Y-33539362D01*
X57305031Y-33517689D01*
X57357357Y-33539363D01*
X57369117Y-33554690D01*
X57379495Y-33572665D01*
X57477335Y-33670505D01*
X57597164Y-33739688D01*
X57730814Y-33775499D01*
X57730815Y-33775500D01*
X57730817Y-33775500D01*
X57869185Y-33775500D01*
X57869185Y-33775499D01*
X58002836Y-33739688D01*
X58122665Y-33670505D01*
X58220505Y-33572665D01*
X58289688Y-33452836D01*
X58325499Y-33319185D01*
X58325500Y-33319185D01*
X58325500Y-33180815D01*
X58325499Y-33180814D01*
X58317376Y-33150500D01*
X58289688Y-33047164D01*
X58220505Y-32927335D01*
X58201888Y-32908718D01*
X58180214Y-32856392D01*
X58190128Y-32819392D01*
X58199688Y-32802836D01*
X58235499Y-32669185D01*
X58235500Y-32669185D01*
X58235500Y-32530815D01*
X58235499Y-32530814D01*
X58231675Y-32516544D01*
X58199688Y-32397164D01*
X58130505Y-32277335D01*
X58032665Y-32179495D01*
X57912836Y-32110312D01*
X57912831Y-32110310D01*
X57779185Y-32074500D01*
X57779183Y-32074500D01*
X57640817Y-32074500D01*
X57640815Y-32074500D01*
X57507168Y-32110310D01*
X57507165Y-32110311D01*
X57507164Y-32110312D01*
X57461645Y-32136591D01*
X57459497Y-32137832D01*
X57403344Y-32145223D01*
X57385499Y-32137831D01*
X57337837Y-32110314D01*
X57337828Y-32110310D01*
X57204182Y-32074500D01*
X57204180Y-32074500D01*
X57065814Y-32074500D01*
X57065812Y-32074500D01*
X56932165Y-32110310D01*
X56932162Y-32110311D01*
X56932161Y-32110312D01*
X56886642Y-32136591D01*
X56884494Y-32137832D01*
X56828341Y-32145223D01*
X56810496Y-32137831D01*
X56762834Y-32110314D01*
X56762825Y-32110310D01*
X56629179Y-32074500D01*
X56629177Y-32074500D01*
X56490811Y-32074500D01*
X56490809Y-32074500D01*
X56357162Y-32110310D01*
X56357159Y-32110311D01*
X56357158Y-32110312D01*
X56311639Y-32136591D01*
X56309491Y-32137832D01*
X56253338Y-32145223D01*
X56235493Y-32137831D01*
X56187831Y-32110314D01*
X56187822Y-32110310D01*
X56054176Y-32074500D01*
X56054174Y-32074500D01*
X55915808Y-32074500D01*
X55915806Y-32074500D01*
X55782159Y-32110310D01*
X55782154Y-32110312D01*
X55662325Y-32179495D01*
X55564486Y-32277334D01*
X55495303Y-32397163D01*
X55495301Y-32397168D01*
X55459491Y-32530814D01*
X55459491Y-32669185D01*
X55495301Y-32802831D01*
X55495302Y-32802833D01*
X55495303Y-32802836D01*
X55496896Y-32805595D01*
X55497105Y-32807186D01*
X55497160Y-32807318D01*
X55497124Y-32807332D01*
X55504287Y-32861747D01*
X55485135Y-32894919D01*
X53046818Y-35333236D01*
X52994492Y-35354910D01*
X52942166Y-35333236D01*
X52920492Y-35280910D01*
X52930406Y-35243911D01*
X52939688Y-35227836D01*
X52975499Y-35094185D01*
X52975500Y-35094185D01*
X52975500Y-34955815D01*
X52975499Y-34955814D01*
X52965684Y-34919185D01*
X52939688Y-34822164D01*
X52870505Y-34702335D01*
X52772665Y-34604495D01*
X52652836Y-34535312D01*
X52652831Y-34535310D01*
X52519185Y-34499500D01*
X52519183Y-34499500D01*
X52380817Y-34499500D01*
X52380815Y-34499500D01*
X52247168Y-34535310D01*
X52247163Y-34535312D01*
X52127334Y-34604495D01*
X52029495Y-34702334D01*
X51960312Y-34822163D01*
X51960310Y-34822168D01*
X51924500Y-34955814D01*
X51924500Y-34975500D01*
X51902826Y-35027826D01*
X51850500Y-35049500D01*
X51830815Y-35049500D01*
X51697168Y-35085310D01*
X51697163Y-35085312D01*
X51577334Y-35154495D01*
X51479495Y-35252334D01*
X51410312Y-35372163D01*
X51410310Y-35372168D01*
X51374500Y-35505814D01*
X51374500Y-35644185D01*
X51410310Y-35777831D01*
X51410312Y-35777835D01*
X51410312Y-35777836D01*
X51479495Y-35897665D01*
X51577335Y-35995505D01*
X51697164Y-36064688D01*
X51830814Y-36100499D01*
X51830815Y-36100500D01*
X51830817Y-36100500D01*
X51969185Y-36100500D01*
X51969185Y-36100499D01*
X52102836Y-36064688D01*
X52118911Y-36055406D01*
X52175062Y-36048013D01*
X52219996Y-36082490D01*
X52227390Y-36138643D01*
X52208237Y-36171818D01*
X52102230Y-36277826D01*
X52049904Y-36299500D01*
X51417193Y-36299500D01*
X51364867Y-36277826D01*
X51345714Y-36244652D01*
X51341408Y-36228582D01*
X51339688Y-36222161D01*
X51270505Y-36102332D01*
X51172665Y-36004492D01*
X51052836Y-35935309D01*
X51052831Y-35935307D01*
X50919185Y-35899497D01*
X50919183Y-35899497D01*
X50780817Y-35899497D01*
X50780815Y-35899497D01*
X50647168Y-35935307D01*
X50647163Y-35935309D01*
X50527334Y-36004492D01*
X50429495Y-36102331D01*
X50360312Y-36222160D01*
X50360310Y-36222165D01*
X50324500Y-36355811D01*
X50324500Y-36494182D01*
X50360310Y-36627828D01*
X50360314Y-36627837D01*
X50387831Y-36675499D01*
X50395223Y-36731651D01*
X50387831Y-36749497D01*
X50360312Y-36797164D01*
X50360312Y-36797165D01*
X50360310Y-36797168D01*
X50324500Y-36930814D01*
X50324500Y-37069185D01*
X50360310Y-37202831D01*
X50360314Y-37202840D01*
X50395047Y-37263001D01*
X50396095Y-37270965D01*
X50401319Y-37277071D01*
X50399361Y-37295775D01*
X50402439Y-37319154D01*
X50396925Y-37333537D01*
X50396027Y-37335301D01*
X50360312Y-37397164D01*
X50355560Y-37414895D01*
X50352050Y-37421801D01*
X50335967Y-37435561D01*
X50323083Y-37452351D01*
X50315119Y-37453399D01*
X50309015Y-37458622D01*
X50287914Y-37456980D01*
X50266931Y-37459742D01*
X50258133Y-37454662D01*
X50252549Y-37454228D01*
X50247831Y-37448714D01*
X50233760Y-37440590D01*
X50222665Y-37429495D01*
X50102836Y-37360312D01*
X50102831Y-37360310D01*
X49969185Y-37324500D01*
X49969183Y-37324500D01*
X49830817Y-37324500D01*
X49830815Y-37324500D01*
X49697168Y-37360310D01*
X49697165Y-37360311D01*
X49697164Y-37360312D01*
X49655367Y-37384443D01*
X49649497Y-37387832D01*
X49593344Y-37395223D01*
X49575499Y-37387831D01*
X49527837Y-37360314D01*
X49527828Y-37360310D01*
X49394182Y-37324500D01*
X49394180Y-37324500D01*
X49274500Y-37324500D01*
X49222174Y-37302826D01*
X49200500Y-37250500D01*
X49200500Y-37121596D01*
X49200207Y-37120504D01*
X49187267Y-37072207D01*
X49186457Y-37069185D01*
X49173208Y-37019737D01*
X49173206Y-37019732D01*
X49120482Y-36928412D01*
X49120481Y-36928411D01*
X49120480Y-36928409D01*
X45922885Y-33730814D01*
X52974500Y-33730814D01*
X52974500Y-33869185D01*
X53010310Y-34002831D01*
X53010312Y-34002836D01*
X53079495Y-34122665D01*
X53177335Y-34220505D01*
X53297164Y-34289688D01*
X53430814Y-34325499D01*
X53430815Y-34325500D01*
X53430817Y-34325500D01*
X53569185Y-34325500D01*
X53569185Y-34325499D01*
X53702836Y-34289688D01*
X53822665Y-34220505D01*
X53920505Y-34122665D01*
X53989688Y-34002836D01*
X54025499Y-33869185D01*
X54025500Y-33869185D01*
X54025500Y-33730815D01*
X54025499Y-33730814D01*
X54018529Y-33704803D01*
X53989688Y-33597164D01*
X53920505Y-33477335D01*
X53822665Y-33379495D01*
X53702836Y-33310312D01*
X53702831Y-33310310D01*
X53569185Y-33274500D01*
X53569183Y-33274500D01*
X53430817Y-33274500D01*
X53430815Y-33274500D01*
X53297168Y-33310310D01*
X53297163Y-33310312D01*
X53177334Y-33379495D01*
X53079495Y-33477334D01*
X53010312Y-33597163D01*
X53010310Y-33597168D01*
X52974500Y-33730814D01*
X45922885Y-33730814D01*
X44422885Y-32230814D01*
X51674500Y-32230814D01*
X51674500Y-32369185D01*
X51710310Y-32502831D01*
X51710312Y-32502836D01*
X51779495Y-32622665D01*
X51877335Y-32720505D01*
X51997164Y-32789688D01*
X52130814Y-32825499D01*
X52130815Y-32825500D01*
X52130817Y-32825500D01*
X52269185Y-32825500D01*
X52269185Y-32825499D01*
X52402836Y-32789688D01*
X52522665Y-32720505D01*
X52620505Y-32622665D01*
X52689688Y-32502836D01*
X52725499Y-32369185D01*
X52725500Y-32369185D01*
X52725500Y-32230815D01*
X52725499Y-32230814D01*
X52711169Y-32177335D01*
X52689688Y-32097164D01*
X52620505Y-31977335D01*
X52522665Y-31879495D01*
X52403705Y-31810814D01*
X54124500Y-31810814D01*
X54124500Y-31949185D01*
X54160310Y-32082831D01*
X54160312Y-32082836D01*
X54229495Y-32202665D01*
X54327335Y-32300505D01*
X54447164Y-32369688D01*
X54580814Y-32405499D01*
X54580815Y-32405500D01*
X54580817Y-32405500D01*
X54719185Y-32405500D01*
X54719185Y-32405499D01*
X54852836Y-32369688D01*
X54972665Y-32300505D01*
X55070505Y-32202665D01*
X55139688Y-32082836D01*
X55175499Y-31949185D01*
X55175500Y-31949185D01*
X55175500Y-31810815D01*
X55175499Y-31810814D01*
X55175364Y-31810312D01*
X55139688Y-31677164D01*
X55070505Y-31557335D01*
X54972665Y-31459495D01*
X54852836Y-31390312D01*
X54852831Y-31390310D01*
X54719185Y-31354500D01*
X54719183Y-31354500D01*
X54580817Y-31354500D01*
X54580815Y-31354500D01*
X54447168Y-31390310D01*
X54447163Y-31390312D01*
X54327334Y-31459495D01*
X54229495Y-31557334D01*
X54160312Y-31677163D01*
X54160310Y-31677168D01*
X54124500Y-31810814D01*
X52403705Y-31810814D01*
X52402836Y-31810312D01*
X52402833Y-31810311D01*
X52402831Y-31810310D01*
X52269185Y-31774500D01*
X52269183Y-31774500D01*
X52130817Y-31774500D01*
X52130815Y-31774500D01*
X51997168Y-31810310D01*
X51997163Y-31810312D01*
X51877334Y-31879495D01*
X51779495Y-31977334D01*
X51710312Y-32097163D01*
X51710310Y-32097168D01*
X51674500Y-32230814D01*
X44422885Y-32230814D01*
X43320591Y-31128520D01*
X43320588Y-31128518D01*
X43320587Y-31128517D01*
X43229270Y-31075795D01*
X43229266Y-31075793D01*
X43127405Y-31048500D01*
X43127404Y-31048500D01*
X42045545Y-31048500D01*
X41993219Y-31026826D01*
X41947207Y-30980814D01*
X57424500Y-30980814D01*
X57424500Y-31119185D01*
X57460310Y-31252831D01*
X57460312Y-31252836D01*
X57529495Y-31372665D01*
X57627335Y-31470505D01*
X57747164Y-31539688D01*
X57880814Y-31575499D01*
X57880815Y-31575500D01*
X57880817Y-31575500D01*
X58019185Y-31575500D01*
X58019185Y-31575499D01*
X58152836Y-31539688D01*
X58272665Y-31470505D01*
X58370505Y-31372665D01*
X58439688Y-31252836D01*
X58475499Y-31119185D01*
X58475500Y-31119185D01*
X58475500Y-30980815D01*
X58475499Y-30980814D01*
X58468043Y-30952989D01*
X58439688Y-30847164D01*
X58370505Y-30727335D01*
X58272665Y-30629495D01*
X58152836Y-30560312D01*
X58152831Y-30560310D01*
X58019185Y-30524500D01*
X58019183Y-30524500D01*
X57880817Y-30524500D01*
X57880815Y-30524500D01*
X57747168Y-30560310D01*
X57747163Y-30560312D01*
X57627334Y-30629495D01*
X57529495Y-30727334D01*
X57460312Y-30847163D01*
X57460310Y-30847168D01*
X57424500Y-30980814D01*
X41947207Y-30980814D01*
X40567975Y-29601582D01*
X42649500Y-29601582D01*
X42649500Y-29798417D01*
X42680290Y-29992823D01*
X42680293Y-29992836D01*
X42741113Y-30180019D01*
X42830475Y-30355404D01*
X42944918Y-30512921D01*
X42946172Y-30514646D01*
X43085354Y-30653828D01*
X43244595Y-30769524D01*
X43419975Y-30858884D01*
X43419977Y-30858884D01*
X43419980Y-30858886D01*
X43607163Y-30919706D01*
X43607169Y-30919707D01*
X43607174Y-30919709D01*
X43736780Y-30940236D01*
X43801582Y-30950500D01*
X43801583Y-30950500D01*
X43998418Y-30950500D01*
X44047019Y-30942802D01*
X44192826Y-30919709D01*
X44380025Y-30858884D01*
X44555405Y-30769524D01*
X44714646Y-30653828D01*
X44853828Y-30514646D01*
X44969524Y-30355405D01*
X45058884Y-30180025D01*
X45082160Y-30108389D01*
X45119706Y-29992836D01*
X45119706Y-29992833D01*
X45119709Y-29992826D01*
X45150500Y-29798417D01*
X45150500Y-29601583D01*
X45150328Y-29600500D01*
X45131894Y-29484107D01*
X45119709Y-29407174D01*
X45119707Y-29407169D01*
X45119706Y-29407163D01*
X45058886Y-29219980D01*
X45058884Y-29219977D01*
X45058884Y-29219975D01*
X44995280Y-29095144D01*
X44969524Y-29044594D01*
X44892924Y-28939164D01*
X44853828Y-28885354D01*
X44849288Y-28880814D01*
X49424500Y-28880814D01*
X49424500Y-29019185D01*
X49460310Y-29152831D01*
X49460312Y-29152836D01*
X49529495Y-29272665D01*
X49627335Y-29370505D01*
X49747164Y-29439688D01*
X49880814Y-29475499D01*
X49880815Y-29475500D01*
X49880817Y-29475500D01*
X50019185Y-29475500D01*
X50019185Y-29475499D01*
X50152836Y-29439688D01*
X50152836Y-29439687D01*
X50155847Y-29438881D01*
X50194153Y-29438881D01*
X50197163Y-29439687D01*
X50197164Y-29439688D01*
X50330814Y-29475499D01*
X50330815Y-29475500D01*
X50330817Y-29475500D01*
X50469185Y-29475500D01*
X50469185Y-29475499D01*
X50602836Y-29439688D01*
X50722665Y-29370505D01*
X50820505Y-29272665D01*
X50889688Y-29152836D01*
X50925499Y-29019185D01*
X50925500Y-29019185D01*
X50925500Y-28880815D01*
X50925499Y-28880814D01*
X50924683Y-28877767D01*
X50889688Y-28747164D01*
X50880248Y-28730814D01*
X53924500Y-28730814D01*
X53924500Y-28869185D01*
X53960310Y-29002831D01*
X53960312Y-29002836D01*
X54029495Y-29122665D01*
X54127335Y-29220505D01*
X54247164Y-29289688D01*
X54380814Y-29325499D01*
X54380815Y-29325500D01*
X54380817Y-29325500D01*
X54519185Y-29325500D01*
X54519185Y-29325499D01*
X54652836Y-29289688D01*
X54772665Y-29220505D01*
X54870505Y-29122665D01*
X54939688Y-29002836D01*
X54975499Y-28869185D01*
X54975500Y-28869185D01*
X54975500Y-28730815D01*
X54975499Y-28730814D01*
X54968002Y-28702836D01*
X54939688Y-28597164D01*
X54870505Y-28477335D01*
X54772665Y-28379495D01*
X54652836Y-28310312D01*
X54652831Y-28310310D01*
X54519185Y-28274500D01*
X54519183Y-28274500D01*
X54380817Y-28274500D01*
X54380815Y-28274500D01*
X54247168Y-28310310D01*
X54247163Y-28310312D01*
X54127334Y-28379495D01*
X54029495Y-28477334D01*
X53960312Y-28597163D01*
X53960310Y-28597168D01*
X53924500Y-28730814D01*
X50880248Y-28730814D01*
X50820505Y-28627335D01*
X50722665Y-28529495D01*
X50602836Y-28460312D01*
X50602831Y-28460310D01*
X50469185Y-28424500D01*
X50469183Y-28424500D01*
X50330817Y-28424500D01*
X50194152Y-28461119D01*
X50155848Y-28461119D01*
X50019183Y-28424500D01*
X49880817Y-28424500D01*
X49880815Y-28424500D01*
X49747168Y-28460310D01*
X49747163Y-28460312D01*
X49627334Y-28529495D01*
X49529495Y-28627334D01*
X49460312Y-28747163D01*
X49460310Y-28747168D01*
X49424500Y-28880814D01*
X44849288Y-28880814D01*
X44714646Y-28746172D01*
X44714643Y-28746169D01*
X44714641Y-28746168D01*
X44555404Y-28630475D01*
X44380019Y-28541113D01*
X44192836Y-28480293D01*
X44192823Y-28480290D01*
X43998418Y-28449500D01*
X43998417Y-28449500D01*
X43801583Y-28449500D01*
X43801582Y-28449500D01*
X43607176Y-28480290D01*
X43607163Y-28480293D01*
X43419980Y-28541113D01*
X43244595Y-28630475D01*
X43085358Y-28746168D01*
X42946168Y-28885358D01*
X42830475Y-29044595D01*
X42741113Y-29219980D01*
X42680293Y-29407163D01*
X42680290Y-29407176D01*
X42649500Y-29601582D01*
X40567975Y-29601582D01*
X40472174Y-29505781D01*
X40450500Y-29453455D01*
X40450500Y-28123322D01*
X40469324Y-28077874D01*
X40467552Y-28076514D01*
X40470503Y-28072667D01*
X40470505Y-28072665D01*
X40539688Y-27952836D01*
X40575499Y-27819185D01*
X40575500Y-27819185D01*
X40575500Y-27680815D01*
X40575499Y-27680814D01*
X40568002Y-27652836D01*
X40539688Y-27547164D01*
X40470505Y-27427335D01*
X40372665Y-27329495D01*
X40252836Y-27260312D01*
X40252831Y-27260310D01*
X40119185Y-27224500D01*
X40119183Y-27224500D01*
X39980817Y-27224500D01*
X39980815Y-27224500D01*
X39847168Y-27260310D01*
X39847163Y-27260312D01*
X39727334Y-27329495D01*
X39629495Y-27427334D01*
X39560312Y-27547163D01*
X39560310Y-27547168D01*
X39524500Y-27680814D01*
X39524500Y-27819185D01*
X39560310Y-27952831D01*
X39560312Y-27952836D01*
X39629496Y-28072667D01*
X39632448Y-28076514D01*
X39630675Y-28077874D01*
X39649500Y-28123322D01*
X39649500Y-29597273D01*
X39649500Y-29702727D01*
X39675140Y-29798417D01*
X39676793Y-29804588D01*
X39676795Y-29804592D01*
X39729517Y-29895909D01*
X39729518Y-29895910D01*
X39729520Y-29895913D01*
X40393917Y-30560310D01*
X41056781Y-31223174D01*
X41078455Y-31275500D01*
X41056781Y-31327826D01*
X41004455Y-31349500D01*
X40423322Y-31349500D01*
X40377874Y-31330675D01*
X40376514Y-31332448D01*
X40372667Y-31329496D01*
X40252836Y-31260312D01*
X40252831Y-31260310D01*
X40119185Y-31224500D01*
X40119183Y-31224500D01*
X39980817Y-31224500D01*
X39980815Y-31224500D01*
X39847168Y-31260310D01*
X39847163Y-31260312D01*
X39727334Y-31329495D01*
X39629495Y-31427334D01*
X39560312Y-31547163D01*
X39560310Y-31547168D01*
X39524500Y-31680814D01*
X39524500Y-31819185D01*
X39560310Y-31952831D01*
X39560312Y-31952836D01*
X39629495Y-32072665D01*
X39727335Y-32170505D01*
X39847164Y-32239688D01*
X39980814Y-32275499D01*
X39980815Y-32275500D01*
X39980817Y-32275500D01*
X40119185Y-32275500D01*
X40119185Y-32275499D01*
X40252836Y-32239688D01*
X40372665Y-32170505D01*
X40372667Y-32170503D01*
X40376514Y-32167552D01*
X40377874Y-32169324D01*
X40423322Y-32150500D01*
X42753455Y-32150500D01*
X42805781Y-32172174D01*
X48076826Y-37443219D01*
X48098500Y-37495545D01*
X48098500Y-38034765D01*
X48098500Y-38140219D01*
X48113758Y-38197163D01*
X48125793Y-38242080D01*
X48125795Y-38242084D01*
X48178517Y-38333401D01*
X48178518Y-38333402D01*
X48178520Y-38333405D01*
X48565595Y-38720480D01*
X48918289Y-39073174D01*
X48939963Y-39125500D01*
X48918289Y-39177826D01*
X48865963Y-39199500D01*
X22067882Y-39199500D01*
X22015556Y-39177826D01*
X21993882Y-39125500D01*
X22003339Y-39089304D01*
X22043775Y-39017199D01*
X22043776Y-39017197D01*
X22043779Y-39017192D01*
X22050543Y-38997964D01*
X22115691Y-38812750D01*
X22115691Y-38812749D01*
X22115692Y-38812747D01*
X22151368Y-38598978D01*
X22149742Y-38382260D01*
X22110864Y-38169051D01*
X22035891Y-37965707D01*
X21927060Y-37778290D01*
X21787613Y-37612385D01*
X21621709Y-37472939D01*
X21500122Y-37402335D01*
X21434294Y-37364109D01*
X21434291Y-37364108D01*
X21230947Y-37289136D01*
X21017737Y-37250257D01*
X20801023Y-37248632D01*
X20801022Y-37248632D01*
X20801020Y-37248632D01*
X20677879Y-37269183D01*
X20587249Y-37284308D01*
X20382804Y-37356222D01*
X20310696Y-37396661D01*
X20254455Y-37403350D01*
X20209956Y-37368313D01*
X20200500Y-37332117D01*
X20200500Y-36530814D01*
X26424500Y-36530814D01*
X26424500Y-36669185D01*
X26460310Y-36802831D01*
X26460312Y-36802836D01*
X26529495Y-36922665D01*
X26627335Y-37020505D01*
X26747164Y-37089688D01*
X26880814Y-37125499D01*
X26880815Y-37125500D01*
X26880817Y-37125500D01*
X27019185Y-37125500D01*
X27019185Y-37125499D01*
X27152836Y-37089688D01*
X27272665Y-37020505D01*
X27370505Y-36922665D01*
X27439688Y-36802836D01*
X27475499Y-36669185D01*
X27475500Y-36669185D01*
X27475500Y-36530815D01*
X27475499Y-36530814D01*
X27471343Y-36515305D01*
X27439688Y-36397164D01*
X27370505Y-36277335D01*
X27272665Y-36179495D01*
X27152836Y-36110312D01*
X27152831Y-36110310D01*
X27019185Y-36074500D01*
X27019183Y-36074500D01*
X26880817Y-36074500D01*
X26880815Y-36074500D01*
X26747168Y-36110310D01*
X26747163Y-36110312D01*
X26627334Y-36179495D01*
X26529495Y-36277334D01*
X26460312Y-36397163D01*
X26460310Y-36397168D01*
X26424500Y-36530814D01*
X20200500Y-36530814D01*
X20200500Y-35944448D01*
X27674009Y-35944448D01*
X27698805Y-36074500D01*
X27701973Y-36091111D01*
X27701974Y-36091116D01*
X27760216Y-36228575D01*
X27760219Y-36228582D01*
X27810117Y-36299500D01*
X27846131Y-36350686D01*
X27955850Y-36451942D01*
X28084446Y-36527797D01*
X28226142Y-36574844D01*
X28374570Y-36590969D01*
X28374570Y-36590968D01*
X28374571Y-36590969D01*
X28424067Y-36585795D01*
X28523063Y-36575447D01*
X28664948Y-36528975D01*
X28690341Y-36514183D01*
X28694871Y-36511545D01*
X28695028Y-36511525D01*
X28726744Y-36492988D01*
X28726756Y-36492987D01*
X28732391Y-36490019D01*
X28771243Y-36471692D01*
X28783450Y-36467199D01*
X28821745Y-36456827D01*
X28834547Y-36454545D01*
X28869225Y-36451477D01*
X28877033Y-36450787D01*
X28883553Y-36450499D01*
X30429579Y-36450499D01*
X30429589Y-36450503D01*
X30466227Y-36450499D01*
X30472719Y-36450785D01*
X30515479Y-36454560D01*
X30528297Y-36456841D01*
X30566554Y-36467196D01*
X30566580Y-36467203D01*
X30578805Y-36471700D01*
X30617402Y-36489899D01*
X30623145Y-36492922D01*
X30655006Y-36511537D01*
X30660826Y-36514937D01*
X30661764Y-36515365D01*
X30685069Y-36528940D01*
X30826946Y-36575409D01*
X30947324Y-36587992D01*
X30975429Y-36590930D01*
X30975429Y-36590929D01*
X30975431Y-36590930D01*
X31123851Y-36574805D01*
X31265539Y-36527761D01*
X31394128Y-36451910D01*
X31503841Y-36350659D01*
X31517804Y-36330814D01*
X31874500Y-36330814D01*
X31874500Y-36469185D01*
X31910310Y-36602831D01*
X31910312Y-36602836D01*
X31979495Y-36722665D01*
X32077335Y-36820505D01*
X32197164Y-36889688D01*
X32330814Y-36925499D01*
X32330815Y-36925500D01*
X32330817Y-36925500D01*
X32469185Y-36925500D01*
X32469185Y-36925499D01*
X32602836Y-36889688D01*
X32722665Y-36820505D01*
X32820505Y-36722665D01*
X32889688Y-36602836D01*
X32891873Y-36594680D01*
X42334500Y-36594680D01*
X42334500Y-37455320D01*
X42338005Y-37472939D01*
X42365837Y-37612866D01*
X42365839Y-37612873D01*
X42427312Y-37761283D01*
X42510014Y-37885055D01*
X42516560Y-37894851D01*
X42630149Y-38008440D01*
X42763716Y-38097687D01*
X42912127Y-38159161D01*
X43069680Y-38190500D01*
X43069681Y-38190500D01*
X43230319Y-38190500D01*
X43230320Y-38190500D01*
X43387873Y-38159161D01*
X43536284Y-38097687D01*
X43669851Y-38008440D01*
X43783162Y-37895128D01*
X43835487Y-37873455D01*
X43887813Y-37895129D01*
X43899991Y-37911188D01*
X43900636Y-37912336D01*
X43900639Y-37912342D01*
X43992078Y-38032922D01*
X44112658Y-38124361D01*
X44253436Y-38179877D01*
X44324764Y-38188442D01*
X44341896Y-38190500D01*
X44341898Y-38190500D01*
X44958104Y-38190500D01*
X44973722Y-38188624D01*
X45046564Y-38179877D01*
X45187342Y-38124361D01*
X45307922Y-38032922D01*
X45399361Y-37912342D01*
X45454877Y-37771564D01*
X45465500Y-37683102D01*
X45465500Y-36366898D01*
X45454877Y-36278436D01*
X45399361Y-36137658D01*
X45307922Y-36017078D01*
X45253094Y-35975500D01*
X45187341Y-35925638D01*
X45099091Y-35890837D01*
X45046564Y-35870123D01*
X45017076Y-35866582D01*
X44958104Y-35859500D01*
X44958102Y-35859500D01*
X44341898Y-35859500D01*
X44341896Y-35859500D01*
X44253436Y-35870123D01*
X44112658Y-35925638D01*
X43992078Y-36017077D01*
X43992076Y-36017079D01*
X43900641Y-36137653D01*
X43899991Y-36138811D01*
X43899429Y-36139252D01*
X43897580Y-36141691D01*
X43896941Y-36141206D01*
X43855454Y-36173799D01*
X43799220Y-36167048D01*
X43783161Y-36154870D01*
X43728790Y-36100499D01*
X43669851Y-36041560D01*
X43669847Y-36041557D01*
X43536283Y-35952312D01*
X43387873Y-35890839D01*
X43387866Y-35890837D01*
X43269173Y-35867228D01*
X43230320Y-35859500D01*
X43069680Y-35859500D01*
X43038512Y-35865699D01*
X42912133Y-35890837D01*
X42912126Y-35890839D01*
X42763716Y-35952312D01*
X42630152Y-36041557D01*
X42516557Y-36155152D01*
X42427312Y-36288716D01*
X42365839Y-36437126D01*
X42365837Y-36437133D01*
X42338333Y-36575408D01*
X42334500Y-36594680D01*
X32891873Y-36594680D01*
X32925500Y-36469183D01*
X32925500Y-36330817D01*
X32925500Y-36330815D01*
X32925499Y-36330814D01*
X32912539Y-36282448D01*
X32889688Y-36197164D01*
X32820505Y-36077335D01*
X32722665Y-35979495D01*
X32602836Y-35910312D01*
X32602831Y-35910310D01*
X32469185Y-35874500D01*
X32469183Y-35874500D01*
X32330817Y-35874500D01*
X32330815Y-35874500D01*
X32197168Y-35910310D01*
X32197163Y-35910312D01*
X32077334Y-35979495D01*
X31979495Y-36077334D01*
X31910312Y-36197163D01*
X31910310Y-36197168D01*
X31874500Y-36330814D01*
X31517804Y-36330814D01*
X31589748Y-36228559D01*
X31627845Y-36138643D01*
X31647988Y-36091103D01*
X31647988Y-36091100D01*
X31647991Y-36091095D01*
X31675952Y-35944444D01*
X31672374Y-35795193D01*
X31637420Y-35650049D01*
X31622444Y-35618828D01*
X31622436Y-35618671D01*
X31606289Y-35585136D01*
X31606288Y-35585123D01*
X31604130Y-35580175D01*
X31590812Y-35546239D01*
X31587554Y-35535679D01*
X31580061Y-35502848D01*
X31578414Y-35491921D01*
X31575706Y-35455808D01*
X31575499Y-35450275D01*
X31575499Y-34049949D01*
X31575706Y-34044416D01*
X31577770Y-34016892D01*
X31578432Y-34008068D01*
X31580078Y-33997152D01*
X31587572Y-33964319D01*
X31590823Y-33953778D01*
X31599834Y-33930814D01*
X33574500Y-33930814D01*
X33574500Y-34069185D01*
X33610310Y-34202831D01*
X33610312Y-34202836D01*
X33679495Y-34322665D01*
X33777335Y-34420505D01*
X33897164Y-34489688D01*
X34030814Y-34525499D01*
X34030815Y-34525500D01*
X34030817Y-34525500D01*
X34169185Y-34525500D01*
X34169185Y-34525499D01*
X34302836Y-34489688D01*
X34422665Y-34420505D01*
X34520505Y-34322665D01*
X34589688Y-34202836D01*
X34625499Y-34069185D01*
X34625500Y-34069185D01*
X34625500Y-33930815D01*
X34625499Y-33930814D01*
X34622626Y-33920093D01*
X34589688Y-33797164D01*
X34520505Y-33677335D01*
X34422665Y-33579495D01*
X34302836Y-33510312D01*
X34302831Y-33510310D01*
X34169185Y-33474500D01*
X34169183Y-33474500D01*
X34030817Y-33474500D01*
X34030815Y-33474500D01*
X33897168Y-33510310D01*
X33897163Y-33510312D01*
X33777334Y-33579495D01*
X33679495Y-33677334D01*
X33610312Y-33797163D01*
X33610310Y-33797168D01*
X33574500Y-33930814D01*
X31599834Y-33930814D01*
X31604049Y-33920073D01*
X31606206Y-33915120D01*
X31616355Y-33893962D01*
X31616640Y-33893365D01*
X31616982Y-33892653D01*
X31617005Y-33892664D01*
X31617011Y-33892659D01*
X31617042Y-33892527D01*
X31617819Y-33890915D01*
X31622436Y-33881327D01*
X31622436Y-33881326D01*
X31625613Y-33874730D01*
X31625714Y-33874445D01*
X31637460Y-33849961D01*
X31672416Y-33704809D01*
X31675992Y-33555550D01*
X31648029Y-33408890D01*
X31648026Y-33408884D01*
X31648026Y-33408881D01*
X31589784Y-33271422D01*
X31589781Y-33271415D01*
X31532507Y-33190014D01*
X31503870Y-33149312D01*
X31394151Y-33048057D01*
X31392644Y-33047168D01*
X31265558Y-32972202D01*
X31265551Y-32972199D01*
X31123859Y-32925154D01*
X30975433Y-32909029D01*
X30975429Y-32909028D01*
X30826936Y-32924551D01*
X30685057Y-32971019D01*
X30661501Y-32984739D01*
X30661498Y-32984740D01*
X30655137Y-32988443D01*
X30655005Y-32988462D01*
X30624194Y-33006463D01*
X30623297Y-33006986D01*
X30623283Y-33006987D01*
X30617617Y-33009972D01*
X30578794Y-33028277D01*
X30566568Y-33032774D01*
X30528299Y-33043132D01*
X30515472Y-33045415D01*
X30472454Y-33049212D01*
X30465941Y-33049499D01*
X30422561Y-33049495D01*
X30422509Y-33049500D01*
X28927759Y-33049500D01*
X28920421Y-33049499D01*
X28920410Y-33049495D01*
X28888401Y-33049498D01*
X28883776Y-33049498D01*
X28883774Y-33049497D01*
X28877273Y-33049211D01*
X28834524Y-33045438D01*
X28821696Y-33043155D01*
X28783417Y-33032794D01*
X28771194Y-33028297D01*
X28732608Y-33010103D01*
X28726840Y-33007066D01*
X28709190Y-32996754D01*
X28694995Y-32988461D01*
X28694994Y-32988460D01*
X28689312Y-32985141D01*
X28688334Y-32984691D01*
X28667979Y-32972836D01*
X28664930Y-32971060D01*
X28664928Y-32971059D01*
X28664926Y-32971058D01*
X28523054Y-32924592D01*
X28374570Y-32909070D01*
X28374565Y-32909071D01*
X28226148Y-32925195D01*
X28084466Y-32972238D01*
X28084463Y-32972239D01*
X28084462Y-32972240D01*
X28056994Y-32988443D01*
X27955876Y-33048089D01*
X27846161Y-33149339D01*
X27760254Y-33271436D01*
X27760251Y-33271443D01*
X27702013Y-33408896D01*
X27702009Y-33408908D01*
X27674049Y-33555549D01*
X27674049Y-33555552D01*
X27677625Y-33704803D01*
X27677626Y-33704805D01*
X27712578Y-33849943D01*
X27712580Y-33849947D01*
X27724326Y-33874437D01*
X27724366Y-33874519D01*
X27724368Y-33874525D01*
X27727547Y-33881154D01*
X27727555Y-33881292D01*
X27743435Y-33914288D01*
X27743694Y-33914828D01*
X27743694Y-33914838D01*
X27745860Y-33919805D01*
X27759164Y-33953726D01*
X27762421Y-33964291D01*
X27769905Y-33997107D01*
X27771551Y-34008040D01*
X27774294Y-34044706D01*
X27774500Y-34050235D01*
X27774495Y-34094306D01*
X27774501Y-34094367D01*
X27774501Y-35450057D01*
X27774294Y-35455585D01*
X27773869Y-35461253D01*
X27771568Y-35491952D01*
X27769923Y-35502873D01*
X27762432Y-35535721D01*
X27759177Y-35546283D01*
X27746138Y-35579535D01*
X27743967Y-35584523D01*
X27743673Y-35585136D01*
X27730577Y-35612439D01*
X27727546Y-35618740D01*
X27727544Y-35618761D01*
X27718875Y-35636835D01*
X27712541Y-35650040D01*
X27677587Y-35795186D01*
X27677586Y-35795190D01*
X27674460Y-35925638D01*
X27674009Y-35944448D01*
X20200500Y-35944448D01*
X20200500Y-32700814D01*
X26434500Y-32700814D01*
X26434500Y-32839185D01*
X26470310Y-32972831D01*
X26470312Y-32972836D01*
X26539495Y-33092665D01*
X26637335Y-33190505D01*
X26757164Y-33259688D01*
X26890814Y-33295499D01*
X26890815Y-33295500D01*
X26890817Y-33295500D01*
X27029185Y-33295500D01*
X27029185Y-33295499D01*
X27162836Y-33259688D01*
X27282665Y-33190505D01*
X27380505Y-33092665D01*
X27449688Y-32972836D01*
X27485499Y-32839185D01*
X27485500Y-32839185D01*
X27485500Y-32700815D01*
X27485499Y-32700814D01*
X27480579Y-32682454D01*
X27449688Y-32567164D01*
X27380505Y-32447335D01*
X27282665Y-32349495D01*
X27162836Y-32280312D01*
X27162831Y-32280310D01*
X27029185Y-32244500D01*
X27029183Y-32244500D01*
X26890817Y-32244500D01*
X26890815Y-32244500D01*
X26757168Y-32280310D01*
X26757163Y-32280312D01*
X26637334Y-32349495D01*
X26539495Y-32447334D01*
X26470312Y-32567163D01*
X26470310Y-32567168D01*
X26434500Y-32700814D01*
X20200500Y-32700814D01*
X20200500Y-29611421D01*
X23494501Y-29611421D01*
X23494501Y-29788579D01*
X23517182Y-29931781D01*
X23522215Y-29963554D01*
X23522217Y-29963565D01*
X23576957Y-30132039D01*
X23576959Y-30132043D01*
X23647094Y-30269689D01*
X23655434Y-30286058D01*
X23657385Y-30289886D01*
X23657388Y-30289892D01*
X23719586Y-30375500D01*
X23761518Y-30433214D01*
X23886787Y-30558483D01*
X23886790Y-30558485D01*
X23886791Y-30558486D01*
X24008844Y-30647163D01*
X24030111Y-30662614D01*
X24182464Y-30740242D01*
X24187957Y-30743041D01*
X24187961Y-30743043D01*
X24356435Y-30797783D01*
X24356439Y-30797783D01*
X24356446Y-30797786D01*
X24507496Y-30821710D01*
X24531421Y-30825500D01*
X24531422Y-30825500D01*
X24708581Y-30825500D01*
X24729627Y-30822166D01*
X24883556Y-30797786D01*
X24883564Y-30797783D01*
X24883566Y-30797783D01*
X25052040Y-30743043D01*
X25052040Y-30743042D01*
X25052043Y-30743042D01*
X25209891Y-30662614D01*
X25353215Y-30558483D01*
X25478484Y-30433214D01*
X25582615Y-30289890D01*
X25663043Y-30132042D01*
X25708273Y-29992836D01*
X25717784Y-29963565D01*
X25717784Y-29963563D01*
X25717787Y-29963555D01*
X25745501Y-29788579D01*
X25745501Y-29611421D01*
X25743943Y-29601582D01*
X25737618Y-29561647D01*
X25736168Y-29552494D01*
X27449500Y-29552494D01*
X27449500Y-29847506D01*
X27455873Y-29895913D01*
X27488006Y-30139991D01*
X27564361Y-30424953D01*
X27677253Y-30697498D01*
X27677256Y-30697506D01*
X27770428Y-30858884D01*
X27824762Y-30952994D01*
X28004354Y-31187042D01*
X28212958Y-31395646D01*
X28447006Y-31575238D01*
X28702493Y-31722743D01*
X28975048Y-31835639D01*
X29260007Y-31911993D01*
X29552494Y-31950500D01*
X29552496Y-31950500D01*
X29847504Y-31950500D01*
X29847506Y-31950500D01*
X30139993Y-31911993D01*
X30424952Y-31835639D01*
X30697507Y-31722743D01*
X30952994Y-31575238D01*
X31187042Y-31395646D01*
X31395646Y-31187042D01*
X31575238Y-30952994D01*
X31722743Y-30697507D01*
X31835639Y-30424952D01*
X31911993Y-30139993D01*
X31950500Y-29847506D01*
X31950500Y-29611421D01*
X33654499Y-29611421D01*
X33654499Y-29788579D01*
X33677180Y-29931781D01*
X33682213Y-29963554D01*
X33682215Y-29963565D01*
X33736955Y-30132039D01*
X33736957Y-30132043D01*
X33807092Y-30269689D01*
X33815432Y-30286058D01*
X33817383Y-30289886D01*
X33817386Y-30289892D01*
X33879584Y-30375500D01*
X33921516Y-30433214D01*
X34046785Y-30558483D01*
X34046788Y-30558485D01*
X34046789Y-30558486D01*
X34168842Y-30647163D01*
X34190109Y-30662614D01*
X34342462Y-30740242D01*
X34347955Y-30743041D01*
X34347959Y-30743043D01*
X34516433Y-30797783D01*
X34516437Y-30797783D01*
X34516444Y-30797786D01*
X34667494Y-30821710D01*
X34691419Y-30825500D01*
X34691420Y-30825500D01*
X34868579Y-30825500D01*
X34889625Y-30822166D01*
X35043554Y-30797786D01*
X35043562Y-30797783D01*
X35043564Y-30797783D01*
X35212038Y-30743043D01*
X35212038Y-30743042D01*
X35212041Y-30743042D01*
X35369889Y-30662614D01*
X35513213Y-30558483D01*
X35638482Y-30433214D01*
X35742613Y-30289890D01*
X35823041Y-30132042D01*
X35868271Y-29992836D01*
X35877782Y-29963565D01*
X35877782Y-29963563D01*
X35877785Y-29963555D01*
X35905499Y-29788579D01*
X35905499Y-29611421D01*
X35877785Y-29436445D01*
X35877782Y-29436438D01*
X35877782Y-29436434D01*
X35823042Y-29267960D01*
X35823040Y-29267956D01*
X35812548Y-29247364D01*
X35742613Y-29110110D01*
X35697431Y-29047923D01*
X35638485Y-28966790D01*
X35638484Y-28966789D01*
X35638482Y-28966786D01*
X35513213Y-28841517D01*
X35513210Y-28841514D01*
X35513208Y-28841513D01*
X35369891Y-28737387D01*
X35369885Y-28737384D01*
X35212042Y-28656958D01*
X35212038Y-28656956D01*
X35043564Y-28602216D01*
X35043555Y-28602214D01*
X35043554Y-28602214D01*
X34956066Y-28588357D01*
X34868579Y-28574500D01*
X34868578Y-28574500D01*
X34691420Y-28574500D01*
X34691419Y-28574500D01*
X34516444Y-28602214D01*
X34516433Y-28602216D01*
X34347959Y-28656956D01*
X34347955Y-28656958D01*
X34190112Y-28737384D01*
X34190106Y-28737387D01*
X34046789Y-28841513D01*
X33921512Y-28966790D01*
X33817386Y-29110107D01*
X33817383Y-29110113D01*
X33736957Y-29267956D01*
X33736955Y-29267960D01*
X33682215Y-29436434D01*
X33682213Y-29436445D01*
X33660552Y-29573207D01*
X33654499Y-29611421D01*
X31950500Y-29611421D01*
X31950500Y-29552494D01*
X31911993Y-29260007D01*
X31835639Y-28975048D01*
X31722743Y-28702493D01*
X31575238Y-28447006D01*
X31395646Y-28212958D01*
X31187042Y-28004354D01*
X30952994Y-27824762D01*
X30949658Y-27822836D01*
X30697506Y-27677256D01*
X30697498Y-27677253D01*
X30424953Y-27564361D01*
X30139991Y-27488006D01*
X29924518Y-27459638D01*
X29847506Y-27449500D01*
X29552494Y-27449500D01*
X29484441Y-27458459D01*
X29260008Y-27488006D01*
X28975046Y-27564361D01*
X28702501Y-27677253D01*
X28702493Y-27677256D01*
X28447010Y-27824759D01*
X28447006Y-27824761D01*
X28447006Y-27824762D01*
X28214937Y-28002836D01*
X28212953Y-28004358D01*
X28004358Y-28212953D01*
X28004354Y-28212957D01*
X28004354Y-28212958D01*
X27871696Y-28385841D01*
X27824759Y-28447010D01*
X27677256Y-28702493D01*
X27677253Y-28702501D01*
X27564361Y-28975046D01*
X27488006Y-29260008D01*
X27458503Y-29484107D01*
X27449500Y-29552494D01*
X25736168Y-29552494D01*
X25725336Y-29484107D01*
X25717787Y-29436445D01*
X25717784Y-29436438D01*
X25717784Y-29436434D01*
X25692094Y-29357367D01*
X25696538Y-29300904D01*
X25739605Y-29264122D01*
X25762472Y-29260500D01*
X26027672Y-29260500D01*
X26027674Y-29260500D01*
X26300666Y-29224560D01*
X26566632Y-29153295D01*
X26821021Y-29047923D01*
X27059479Y-28910249D01*
X27177487Y-28819698D01*
X27277922Y-28742633D01*
X27277923Y-28742631D01*
X27277928Y-28742628D01*
X27472628Y-28547928D01*
X27477858Y-28541113D01*
X27562490Y-28430817D01*
X27640249Y-28329479D01*
X27777923Y-28091021D01*
X27883295Y-27836632D01*
X27954560Y-27570666D01*
X27990500Y-27297674D01*
X27990500Y-27022326D01*
X27979621Y-26939688D01*
X27979271Y-26937031D01*
X27978478Y-26931007D01*
X43199500Y-26931007D01*
X43199500Y-26960907D01*
X43199500Y-27068993D01*
X43206210Y-27102728D01*
X43226418Y-27204322D01*
X43226421Y-27204332D01*
X43279223Y-27331808D01*
X43343051Y-27427334D01*
X43355886Y-27446542D01*
X43453458Y-27544114D01*
X43568189Y-27620775D01*
X43568190Y-27620775D01*
X43568191Y-27620776D01*
X43695247Y-27673404D01*
X43695672Y-27673580D01*
X43831007Y-27700500D01*
X43831009Y-27700500D01*
X43968991Y-27700500D01*
X43968993Y-27700500D01*
X44104328Y-27673580D01*
X44231811Y-27620775D01*
X44346542Y-27544114D01*
X44444114Y-27446542D01*
X44520775Y-27331811D01*
X44573580Y-27204328D01*
X44600500Y-27068993D01*
X44600500Y-27030814D01*
X50974500Y-27030814D01*
X50974500Y-27169185D01*
X51010310Y-27302831D01*
X51010311Y-27302833D01*
X51010312Y-27302836D01*
X51026954Y-27331661D01*
X51034345Y-27387814D01*
X51026955Y-27405656D01*
X51020314Y-27417159D01*
X51020310Y-27417168D01*
X50984500Y-27550814D01*
X50984500Y-27689185D01*
X51020310Y-27822831D01*
X51020312Y-27822836D01*
X51089495Y-27942665D01*
X51187335Y-28040505D01*
X51307164Y-28109688D01*
X51440814Y-28145499D01*
X51440815Y-28145500D01*
X51440817Y-28145500D01*
X51579185Y-28145500D01*
X51579185Y-28145499D01*
X51712836Y-28109688D01*
X51832665Y-28040505D01*
X51930505Y-27942665D01*
X51999688Y-27822836D01*
X52035500Y-27689183D01*
X52035500Y-27689177D01*
X52036133Y-27684376D01*
X52038255Y-27684655D01*
X52057174Y-27638981D01*
X52090345Y-27619829D01*
X52202836Y-27589688D01*
X52322665Y-27520505D01*
X52420505Y-27422665D01*
X52489688Y-27302836D01*
X52525499Y-27169185D01*
X52525500Y-27169185D01*
X52525500Y-27030815D01*
X52525499Y-27030814D01*
X52518800Y-27005814D01*
X52489688Y-26897164D01*
X52483787Y-26886944D01*
X52476395Y-26830794D01*
X52495547Y-26797621D01*
X52520505Y-26772665D01*
X52589688Y-26652836D01*
X52625499Y-26519185D01*
X52625500Y-26519185D01*
X52625500Y-26380815D01*
X52625499Y-26380814D01*
X52609683Y-26321789D01*
X52589688Y-26247164D01*
X52520505Y-26127335D01*
X52422665Y-26029495D01*
X52302836Y-25960312D01*
X52302831Y-25960310D01*
X52169185Y-25924500D01*
X52169183Y-25924500D01*
X52030817Y-25924500D01*
X52030815Y-25924500D01*
X51897168Y-25960310D01*
X51897163Y-25960312D01*
X51777334Y-26029495D01*
X51679495Y-26127334D01*
X51610312Y-26247163D01*
X51610310Y-26247168D01*
X51574500Y-26380814D01*
X51574500Y-26500500D01*
X51552826Y-26552826D01*
X51500500Y-26574500D01*
X51430815Y-26574500D01*
X51297168Y-26610310D01*
X51297163Y-26610312D01*
X51177334Y-26679495D01*
X51079495Y-26777334D01*
X51010312Y-26897163D01*
X51010310Y-26897168D01*
X50974500Y-27030814D01*
X44600500Y-27030814D01*
X44600500Y-26931007D01*
X44573580Y-26795672D01*
X44559795Y-26762391D01*
X44520776Y-26668191D01*
X44508534Y-26649870D01*
X44444114Y-26553458D01*
X44346542Y-26455886D01*
X44320354Y-26438388D01*
X44231808Y-26379223D01*
X44104332Y-26326421D01*
X44104322Y-26326418D01*
X44013694Y-26308391D01*
X43968993Y-26299500D01*
X43831007Y-26299500D01*
X43792642Y-26307131D01*
X43695677Y-26326418D01*
X43695667Y-26326421D01*
X43568191Y-26379223D01*
X43453461Y-26455883D01*
X43355883Y-26553461D01*
X43279223Y-26668191D01*
X43226421Y-26795667D01*
X43226418Y-26795677D01*
X43208264Y-26886947D01*
X43199500Y-26931007D01*
X27978478Y-26931007D01*
X27960661Y-26795677D01*
X27954560Y-26749334D01*
X27883295Y-26483368D01*
X27777923Y-26228979D01*
X27748393Y-26177831D01*
X27640251Y-25990524D01*
X27640247Y-25990518D01*
X27472633Y-25772077D01*
X27277922Y-25577366D01*
X27059481Y-25409752D01*
X27059475Y-25409748D01*
X26821020Y-25272076D01*
X26821017Y-25272075D01*
X26566631Y-25166704D01*
X26300664Y-25095439D01*
X26099552Y-25068962D01*
X26027674Y-25059500D01*
X25752326Y-25059500D01*
X25688810Y-25067862D01*
X25479335Y-25095439D01*
X25213368Y-25166704D01*
X24958982Y-25272075D01*
X24958979Y-25272076D01*
X24720524Y-25409748D01*
X24720518Y-25409752D01*
X24502077Y-25577366D01*
X24307366Y-25772077D01*
X24139752Y-25990518D01*
X24139748Y-25990524D01*
X24002076Y-26228979D01*
X24002075Y-26228982D01*
X23896704Y-26483368D01*
X23825439Y-26749335D01*
X23800379Y-26939688D01*
X23789500Y-27022326D01*
X23789500Y-27297674D01*
X23793994Y-27331808D01*
X23825439Y-27570664D01*
X23896704Y-27836631D01*
X24002075Y-28091017D01*
X24002076Y-28091020D01*
X24139748Y-28329475D01*
X24139752Y-28329481D01*
X24286765Y-28521073D01*
X24301424Y-28575780D01*
X24273105Y-28624829D01*
X24250924Y-28636499D01*
X24187962Y-28656956D01*
X24187957Y-28656958D01*
X24030114Y-28737384D01*
X24030108Y-28737387D01*
X23886791Y-28841513D01*
X23761514Y-28966790D01*
X23657388Y-29110107D01*
X23657385Y-29110113D01*
X23576959Y-29267956D01*
X23576957Y-29267960D01*
X23522217Y-29436434D01*
X23522215Y-29436445D01*
X23500554Y-29573207D01*
X23494501Y-29611421D01*
X20200500Y-29611421D01*
X20200500Y-22067067D01*
X20222174Y-22014741D01*
X20274500Y-21993067D01*
X20310728Y-22002543D01*
X20382490Y-22042843D01*
X20385140Y-22043778D01*
X20586733Y-22114910D01*
X20586737Y-22114910D01*
X20586741Y-22114912D01*
X20800331Y-22150856D01*
X21016920Y-22149609D01*
X21016929Y-22149607D01*
X21016932Y-22149607D01*
X21083016Y-22137701D01*
X21230081Y-22111206D01*
X21433488Y-22036789D01*
X21621105Y-21928566D01*
X21787363Y-21789747D01*
X21927329Y-21624454D01*
X22036849Y-21437590D01*
X22112672Y-21234703D01*
X22152549Y-21021813D01*
X22155296Y-20805238D01*
X22120831Y-20591404D01*
X22117740Y-20582448D01*
X22070540Y-20445667D01*
X22050178Y-20386660D01*
X22012345Y-20318186D01*
X22007981Y-20310287D01*
X22001647Y-20254005D01*
X22036965Y-20209729D01*
X22072752Y-20200500D01*
X57555500Y-20200500D01*
X57607826Y-20222174D01*
G37*
%TD.AperFunction*%
%TA.AperFunction,Conductor*%
G36*
X73913532Y-20207892D02*
G01*
X73932685Y-20210414D01*
X73938772Y-20218347D01*
X73948011Y-20222174D01*
X73955403Y-20240022D01*
X73967163Y-20255347D01*
X73965857Y-20265260D01*
X73969685Y-20274500D01*
X73959771Y-20311499D01*
X73950010Y-20328407D01*
X73910314Y-20397162D01*
X73910311Y-20397168D01*
X73874501Y-20530814D01*
X73874501Y-20669185D01*
X73910311Y-20802831D01*
X73910313Y-20802836D01*
X73979496Y-20922665D01*
X74077336Y-21020505D01*
X74197165Y-21089688D01*
X74330815Y-21125499D01*
X74330816Y-21125500D01*
X74330818Y-21125500D01*
X74469186Y-21125500D01*
X74469186Y-21125499D01*
X74602837Y-21089688D01*
X74722666Y-21020505D01*
X74753269Y-20989901D01*
X74805594Y-20968227D01*
X74857920Y-20989900D01*
X74867121Y-21001112D01*
X74880079Y-21020504D01*
X74929309Y-21094183D01*
X74930886Y-21096542D01*
X75028458Y-21194114D01*
X75143189Y-21270775D01*
X75143190Y-21270775D01*
X75143191Y-21270776D01*
X75253485Y-21316461D01*
X75270672Y-21323580D01*
X75406007Y-21350500D01*
X75406009Y-21350500D01*
X75543991Y-21350500D01*
X75543993Y-21350500D01*
X75679328Y-21323580D01*
X75806811Y-21270775D01*
X75921542Y-21194114D01*
X76019114Y-21096542D01*
X76095775Y-20981811D01*
X76148580Y-20854328D01*
X76175500Y-20718993D01*
X76175500Y-20581007D01*
X76148580Y-20445672D01*
X76095775Y-20318189D01*
X76095773Y-20318186D01*
X76094053Y-20315611D01*
X76083004Y-20260062D01*
X76114471Y-20212971D01*
X76155582Y-20200500D01*
X76744418Y-20200500D01*
X76796744Y-20222174D01*
X76818418Y-20274500D01*
X76805947Y-20315611D01*
X76804226Y-20318186D01*
X76804224Y-20318190D01*
X76751421Y-20445667D01*
X76751418Y-20445677D01*
X76734593Y-20530264D01*
X76724500Y-20581007D01*
X76724500Y-20718993D01*
X76730155Y-20747422D01*
X76751418Y-20854322D01*
X76751421Y-20854332D01*
X76804223Y-20981808D01*
X76879309Y-21094183D01*
X76880886Y-21096542D01*
X76978458Y-21194114D01*
X77093189Y-21270775D01*
X77093190Y-21270775D01*
X77093191Y-21270776D01*
X77203485Y-21316461D01*
X77220672Y-21323580D01*
X77356007Y-21350500D01*
X77356009Y-21350500D01*
X77493991Y-21350500D01*
X77493993Y-21350500D01*
X77629328Y-21323580D01*
X77756811Y-21270775D01*
X77871542Y-21194114D01*
X77969114Y-21096542D01*
X78032877Y-21001113D01*
X78079967Y-20969649D01*
X78135516Y-20980698D01*
X78146729Y-20989900D01*
X78177334Y-21020505D01*
X78297163Y-21089688D01*
X78430813Y-21125499D01*
X78430814Y-21125500D01*
X78430816Y-21125500D01*
X78569184Y-21125500D01*
X78569184Y-21125499D01*
X78702835Y-21089688D01*
X78822664Y-21020505D01*
X78920504Y-20922665D01*
X78989687Y-20802836D01*
X79025498Y-20669185D01*
X79025499Y-20669185D01*
X79025499Y-20530815D01*
X79025498Y-20530814D01*
X79025350Y-20530263D01*
X78989687Y-20397164D01*
X78940228Y-20311499D01*
X78932837Y-20255347D01*
X78967315Y-20210414D01*
X79004315Y-20200500D01*
X103932118Y-20200500D01*
X103984444Y-20222174D01*
X104006118Y-20274500D01*
X103996661Y-20310696D01*
X103956225Y-20382798D01*
X103956223Y-20382802D01*
X103884308Y-20587250D01*
X103877654Y-20627124D01*
X103848632Y-20801020D01*
X103848632Y-20801022D01*
X103848632Y-20801023D01*
X103850257Y-21017738D01*
X103889136Y-21230948D01*
X103964108Y-21434292D01*
X103964109Y-21434295D01*
X104072938Y-21621707D01*
X104072940Y-21621710D01*
X104212386Y-21787614D01*
X104378290Y-21927060D01*
X104401678Y-21940641D01*
X104565704Y-22035890D01*
X104565705Y-22035890D01*
X104565708Y-22035892D01*
X104769052Y-22110864D01*
X104982261Y-22149742D01*
X105198980Y-22151368D01*
X105412748Y-22115692D01*
X105617194Y-22043778D01*
X105689305Y-22003337D01*
X105745544Y-21996647D01*
X105790043Y-22031684D01*
X105799500Y-22067881D01*
X105799500Y-37332117D01*
X105777826Y-37384443D01*
X105725500Y-37406117D01*
X105689304Y-37396661D01*
X105628991Y-37362838D01*
X105617194Y-37356222D01*
X105617193Y-37356221D01*
X105617192Y-37356221D01*
X105617187Y-37356219D01*
X105412749Y-37284308D01*
X105353979Y-37274500D01*
X105198980Y-37248632D01*
X105198976Y-37248632D01*
X104982261Y-37250257D01*
X104769051Y-37289136D01*
X104565707Y-37364108D01*
X104565704Y-37364109D01*
X104378292Y-37472938D01*
X104212386Y-37612386D01*
X104072938Y-37778292D01*
X103964109Y-37965704D01*
X103964108Y-37965707D01*
X103889136Y-38169051D01*
X103850257Y-38382261D01*
X103848795Y-38577204D01*
X103848632Y-38598980D01*
X103863466Y-38687862D01*
X103884308Y-38812749D01*
X103956223Y-39017197D01*
X103956225Y-39017201D01*
X103996661Y-39089304D01*
X104003352Y-39145544D01*
X103968314Y-39190043D01*
X103932118Y-39199500D01*
X61775815Y-39199500D01*
X61723489Y-39177826D01*
X61701815Y-39125500D01*
X61723489Y-39073174D01*
X61756662Y-39054022D01*
X61762939Y-39052339D01*
X61772836Y-39049688D01*
X61892665Y-38980505D01*
X61892667Y-38980503D01*
X61896514Y-38977552D01*
X61897874Y-38979324D01*
X61943322Y-38960500D01*
X62942726Y-38960500D01*
X62942727Y-38960500D01*
X63044588Y-38933207D01*
X63135913Y-38880480D01*
X67766670Y-34249721D01*
X67818995Y-34228048D01*
X67871321Y-34249722D01*
X67892995Y-34302048D01*
X67890474Y-34321200D01*
X67874500Y-34380817D01*
X67874500Y-34519185D01*
X67910310Y-34652831D01*
X67910312Y-34652836D01*
X67973433Y-34762166D01*
X67981920Y-34776865D01*
X67980776Y-34777525D01*
X67994124Y-34827330D01*
X67984844Y-34854672D01*
X67960312Y-34897164D01*
X67960312Y-34897165D01*
X67960310Y-34897168D01*
X67924500Y-35030814D01*
X67924500Y-35169185D01*
X67960310Y-35302831D01*
X67960312Y-35302836D01*
X68029495Y-35422665D01*
X68127335Y-35520505D01*
X68247164Y-35589688D01*
X68380814Y-35625499D01*
X68380815Y-35625500D01*
X68380817Y-35625500D01*
X68519185Y-35625500D01*
X68519185Y-35625499D01*
X68652836Y-35589688D01*
X68772665Y-35520505D01*
X68870505Y-35422665D01*
X68939688Y-35302836D01*
X68975500Y-35169183D01*
X68975500Y-35169177D01*
X68976133Y-35164376D01*
X68978348Y-35164667D01*
X68997174Y-35119218D01*
X69073174Y-35043218D01*
X69125500Y-35021544D01*
X69177826Y-35043218D01*
X69199500Y-35095544D01*
X69199500Y-35219185D01*
X69235310Y-35352831D01*
X69235312Y-35352836D01*
X69304495Y-35472665D01*
X69402336Y-35570506D01*
X69406182Y-35573457D01*
X69404624Y-35575486D01*
X69434062Y-35613845D01*
X69426674Y-35669998D01*
X69414911Y-35685329D01*
X68823416Y-36276826D01*
X68771090Y-36298500D01*
X68572322Y-36298500D01*
X68528215Y-36280230D01*
X68526514Y-36282448D01*
X68522667Y-36279496D01*
X68402836Y-36210312D01*
X68402831Y-36210310D01*
X68269185Y-36174500D01*
X68269183Y-36174500D01*
X68130817Y-36174500D01*
X68130815Y-36174500D01*
X67997168Y-36210310D01*
X67997163Y-36210312D01*
X67877334Y-36279495D01*
X67779495Y-36377334D01*
X67710312Y-36497163D01*
X67710310Y-36497168D01*
X67674500Y-36630814D01*
X67674500Y-36769185D01*
X67710310Y-36902831D01*
X67710312Y-36902836D01*
X67779495Y-37022665D01*
X67877335Y-37120505D01*
X67984524Y-37182390D01*
X68019002Y-37227323D01*
X68055312Y-37362833D01*
X68055314Y-37362838D01*
X68124497Y-37482667D01*
X68222337Y-37580507D01*
X68342166Y-37649690D01*
X68407242Y-37667126D01*
X68452173Y-37701603D01*
X68459566Y-37719451D01*
X68470579Y-37760553D01*
X68470581Y-37760558D01*
X68539766Y-37880391D01*
X68539817Y-37880457D01*
X68539827Y-37880497D01*
X68542189Y-37884587D01*
X68541092Y-37885219D01*
X68554471Y-37935165D01*
X68526148Y-37984212D01*
X68481105Y-37999500D01*
X66916924Y-37999500D01*
X66864598Y-37977826D01*
X66842924Y-37925500D01*
X66845446Y-37906347D01*
X66855404Y-37869182D01*
X66875499Y-37794185D01*
X66875500Y-37794185D01*
X66875500Y-37655815D01*
X66875499Y-37655814D01*
X66874244Y-37651132D01*
X66839688Y-37522164D01*
X66770505Y-37402335D01*
X66672665Y-37304495D01*
X66552836Y-37235312D01*
X66552831Y-37235310D01*
X66419185Y-37199500D01*
X66419183Y-37199500D01*
X66280817Y-37199500D01*
X66280815Y-37199500D01*
X66147168Y-37235310D01*
X66147163Y-37235312D01*
X66027334Y-37304495D01*
X65929495Y-37402334D01*
X65860312Y-37522163D01*
X65860310Y-37522168D01*
X65824500Y-37655814D01*
X65824500Y-37794185D01*
X65854554Y-37906347D01*
X65847162Y-37962500D01*
X65802229Y-37996978D01*
X65783076Y-37999500D01*
X64973322Y-37999500D01*
X64927874Y-37980675D01*
X64926514Y-37982448D01*
X64922667Y-37979496D01*
X64802836Y-37910312D01*
X64802831Y-37910310D01*
X64669185Y-37874500D01*
X64669183Y-37874500D01*
X64530817Y-37874500D01*
X64530815Y-37874500D01*
X64397168Y-37910310D01*
X64397163Y-37910312D01*
X64277334Y-37979495D01*
X64179495Y-38077334D01*
X64110312Y-38197163D01*
X64110310Y-38197168D01*
X64074500Y-38330814D01*
X64074500Y-38469185D01*
X64110310Y-38602831D01*
X64110312Y-38602836D01*
X64179495Y-38722665D01*
X64277335Y-38820505D01*
X64397164Y-38889688D01*
X64530814Y-38925499D01*
X64530815Y-38925500D01*
X64530817Y-38925500D01*
X64669185Y-38925500D01*
X64669185Y-38925499D01*
X64802836Y-38889688D01*
X64922665Y-38820505D01*
X64922667Y-38820503D01*
X64926514Y-38817552D01*
X64927874Y-38819324D01*
X64973322Y-38800500D01*
X88382726Y-38800500D01*
X88382727Y-38800500D01*
X88484588Y-38773207D01*
X88575913Y-38720480D01*
X89960910Y-37335481D01*
X89960913Y-37335480D01*
X90035480Y-37260913D01*
X90069782Y-37201500D01*
X90088207Y-37169588D01*
X90115500Y-37067727D01*
X90115500Y-36962273D01*
X90115500Y-35944448D01*
X94274009Y-35944448D01*
X94298805Y-36074500D01*
X94301973Y-36091111D01*
X94301974Y-36091116D01*
X94360216Y-36228575D01*
X94360219Y-36228582D01*
X94410117Y-36299500D01*
X94446131Y-36350686D01*
X94555850Y-36451942D01*
X94684446Y-36527797D01*
X94826142Y-36574844D01*
X94974570Y-36590969D01*
X94974570Y-36590968D01*
X94974571Y-36590969D01*
X95024067Y-36585795D01*
X95123063Y-36575447D01*
X95264948Y-36528975D01*
X95290341Y-36514183D01*
X95294871Y-36511545D01*
X95295028Y-36511525D01*
X95326744Y-36492988D01*
X95326756Y-36492987D01*
X95332391Y-36490019D01*
X95371243Y-36471692D01*
X95383450Y-36467199D01*
X95421745Y-36456827D01*
X95434547Y-36454545D01*
X95469225Y-36451477D01*
X95477033Y-36450787D01*
X95483553Y-36450499D01*
X97029579Y-36450499D01*
X97029589Y-36450503D01*
X97066227Y-36450499D01*
X97072719Y-36450785D01*
X97115479Y-36454560D01*
X97128297Y-36456841D01*
X97166554Y-36467196D01*
X97166580Y-36467203D01*
X97178805Y-36471700D01*
X97217402Y-36489899D01*
X97223145Y-36492922D01*
X97255006Y-36511537D01*
X97260826Y-36514937D01*
X97261764Y-36515365D01*
X97285069Y-36528940D01*
X97426946Y-36575409D01*
X97547324Y-36587992D01*
X97575429Y-36590930D01*
X97575429Y-36590929D01*
X97575431Y-36590930D01*
X97723851Y-36574805D01*
X97865539Y-36527761D01*
X97994128Y-36451910D01*
X98016987Y-36430814D01*
X98474500Y-36430814D01*
X98474500Y-36569185D01*
X98510310Y-36702831D01*
X98510312Y-36702836D01*
X98579495Y-36822665D01*
X98677335Y-36920505D01*
X98797164Y-36989688D01*
X98930814Y-37025499D01*
X98930815Y-37025500D01*
X98930817Y-37025500D01*
X99069185Y-37025500D01*
X99069185Y-37025499D01*
X99202836Y-36989688D01*
X99322665Y-36920505D01*
X99420505Y-36822665D01*
X99489688Y-36702836D01*
X99525499Y-36569185D01*
X99525500Y-36569185D01*
X99525500Y-36430815D01*
X99525499Y-36430814D01*
X99511169Y-36377335D01*
X99489688Y-36297164D01*
X99420505Y-36177335D01*
X99322665Y-36079495D01*
X99202836Y-36010312D01*
X99202831Y-36010310D01*
X99069185Y-35974500D01*
X99069183Y-35974500D01*
X98930817Y-35974500D01*
X98930815Y-35974500D01*
X98797168Y-36010310D01*
X98797163Y-36010312D01*
X98677334Y-36079495D01*
X98579495Y-36177334D01*
X98510312Y-36297163D01*
X98510310Y-36297168D01*
X98474500Y-36430814D01*
X98016987Y-36430814D01*
X98103841Y-36350659D01*
X98189748Y-36228559D01*
X98203050Y-36197163D01*
X98247988Y-36091103D01*
X98247988Y-36091100D01*
X98247991Y-36091095D01*
X98275952Y-35944444D01*
X98272374Y-35795193D01*
X98237420Y-35650049D01*
X98222444Y-35618828D01*
X98222436Y-35618671D01*
X98206289Y-35585136D01*
X98206288Y-35585123D01*
X98204130Y-35580175D01*
X98190812Y-35546239D01*
X98187554Y-35535679D01*
X98180061Y-35502848D01*
X98178414Y-35491921D01*
X98175706Y-35455808D01*
X98175499Y-35450275D01*
X98175499Y-34049949D01*
X98175706Y-34044416D01*
X98177770Y-34016892D01*
X98178432Y-34008068D01*
X98180078Y-33997152D01*
X98187572Y-33964319D01*
X98190823Y-33953778D01*
X98199834Y-33930814D01*
X100024500Y-33930814D01*
X100024500Y-34069185D01*
X100060310Y-34202831D01*
X100060312Y-34202836D01*
X100129495Y-34322665D01*
X100227335Y-34420505D01*
X100347164Y-34489688D01*
X100480814Y-34525499D01*
X100480815Y-34525500D01*
X100480817Y-34525500D01*
X100619185Y-34525500D01*
X100619185Y-34525499D01*
X100752836Y-34489688D01*
X100872665Y-34420505D01*
X100970505Y-34322665D01*
X101039688Y-34202836D01*
X101075499Y-34069185D01*
X101075500Y-34069185D01*
X101075500Y-33930815D01*
X101075499Y-33930814D01*
X101072626Y-33920093D01*
X101039688Y-33797164D01*
X100970505Y-33677335D01*
X100872665Y-33579495D01*
X100752836Y-33510312D01*
X100752831Y-33510310D01*
X100619185Y-33474500D01*
X100619183Y-33474500D01*
X100480817Y-33474500D01*
X100480815Y-33474500D01*
X100347168Y-33510310D01*
X100347163Y-33510312D01*
X100227334Y-33579495D01*
X100129495Y-33677334D01*
X100060312Y-33797163D01*
X100060310Y-33797168D01*
X100024500Y-33930814D01*
X98199834Y-33930814D01*
X98204049Y-33920073D01*
X98206206Y-33915120D01*
X98216355Y-33893962D01*
X98216640Y-33893365D01*
X98216982Y-33892653D01*
X98217005Y-33892664D01*
X98217011Y-33892659D01*
X98217042Y-33892527D01*
X98217819Y-33890915D01*
X98222436Y-33881327D01*
X98222436Y-33881326D01*
X98225613Y-33874730D01*
X98225714Y-33874445D01*
X98237460Y-33849961D01*
X98272416Y-33704809D01*
X98275992Y-33555550D01*
X98248029Y-33408890D01*
X98248026Y-33408884D01*
X98248026Y-33408881D01*
X98189784Y-33271422D01*
X98189781Y-33271415D01*
X98132507Y-33190014D01*
X98103870Y-33149312D01*
X97994151Y-33048057D01*
X97992644Y-33047168D01*
X97865558Y-32972202D01*
X97865551Y-32972199D01*
X97723859Y-32925154D01*
X97575433Y-32909029D01*
X97575429Y-32909028D01*
X97426936Y-32924551D01*
X97285057Y-32971019D01*
X97261501Y-32984739D01*
X97261498Y-32984740D01*
X97255137Y-32988443D01*
X97255005Y-32988462D01*
X97224194Y-33006463D01*
X97223297Y-33006986D01*
X97223283Y-33006987D01*
X97217617Y-33009972D01*
X97178794Y-33028277D01*
X97166568Y-33032774D01*
X97128299Y-33043132D01*
X97115472Y-33045415D01*
X97072454Y-33049212D01*
X97065941Y-33049499D01*
X97022561Y-33049495D01*
X97022509Y-33049500D01*
X95527759Y-33049500D01*
X95520421Y-33049499D01*
X95520410Y-33049495D01*
X95488401Y-33049498D01*
X95483776Y-33049498D01*
X95483774Y-33049497D01*
X95477273Y-33049211D01*
X95434524Y-33045438D01*
X95421696Y-33043155D01*
X95383417Y-33032794D01*
X95371194Y-33028297D01*
X95332608Y-33010103D01*
X95326840Y-33007066D01*
X95309190Y-32996754D01*
X95294995Y-32988461D01*
X95294994Y-32988460D01*
X95289312Y-32985141D01*
X95288334Y-32984691D01*
X95267979Y-32972836D01*
X95264930Y-32971060D01*
X95264928Y-32971059D01*
X95264926Y-32971058D01*
X95123054Y-32924592D01*
X94974570Y-32909070D01*
X94974565Y-32909071D01*
X94826148Y-32925195D01*
X94684466Y-32972238D01*
X94684463Y-32972239D01*
X94684462Y-32972240D01*
X94656994Y-32988443D01*
X94555876Y-33048089D01*
X94446161Y-33149339D01*
X94360254Y-33271436D01*
X94360251Y-33271443D01*
X94302013Y-33408896D01*
X94302009Y-33408908D01*
X94274049Y-33555549D01*
X94274049Y-33555552D01*
X94277625Y-33704803D01*
X94277626Y-33704805D01*
X94312578Y-33849943D01*
X94312580Y-33849947D01*
X94324326Y-33874437D01*
X94324366Y-33874519D01*
X94324368Y-33874525D01*
X94327547Y-33881154D01*
X94327555Y-33881292D01*
X94343435Y-33914288D01*
X94343694Y-33914828D01*
X94343694Y-33914838D01*
X94345860Y-33919805D01*
X94359164Y-33953726D01*
X94362421Y-33964291D01*
X94369905Y-33997107D01*
X94371551Y-34008040D01*
X94374294Y-34044706D01*
X94374500Y-34050235D01*
X94374495Y-34094306D01*
X94374501Y-34094367D01*
X94374501Y-35450057D01*
X94374294Y-35455585D01*
X94373869Y-35461253D01*
X94371568Y-35491952D01*
X94369923Y-35502873D01*
X94362432Y-35535721D01*
X94359177Y-35546283D01*
X94346138Y-35579535D01*
X94343967Y-35584523D01*
X94343673Y-35585136D01*
X94330577Y-35612439D01*
X94327546Y-35618740D01*
X94327544Y-35618761D01*
X94318875Y-35636835D01*
X94312541Y-35650040D01*
X94277587Y-35795186D01*
X94277586Y-35795190D01*
X94274460Y-35925638D01*
X94274009Y-35944448D01*
X90115500Y-35944448D01*
X90115500Y-32960814D01*
X93024500Y-32960814D01*
X93024500Y-33099185D01*
X93060310Y-33232831D01*
X93060312Y-33232836D01*
X93129495Y-33352665D01*
X93227335Y-33450505D01*
X93347164Y-33519688D01*
X93480814Y-33555499D01*
X93480815Y-33555500D01*
X93480817Y-33555500D01*
X93619185Y-33555500D01*
X93619185Y-33555499D01*
X93752836Y-33519688D01*
X93872665Y-33450505D01*
X93970505Y-33352665D01*
X94039688Y-33232836D01*
X94075499Y-33099185D01*
X94075500Y-33099185D01*
X94075500Y-32960815D01*
X94075499Y-32960814D01*
X94066528Y-32927335D01*
X94039688Y-32827164D01*
X93970505Y-32707335D01*
X93872665Y-32609495D01*
X93752836Y-32540312D01*
X93752831Y-32540310D01*
X93619185Y-32504500D01*
X93619183Y-32504500D01*
X93480817Y-32504500D01*
X93480815Y-32504500D01*
X93347168Y-32540310D01*
X93347163Y-32540312D01*
X93227334Y-32609495D01*
X93129495Y-32707334D01*
X93060312Y-32827163D01*
X93060310Y-32827168D01*
X93024500Y-32960814D01*
X90115500Y-32960814D01*
X90115500Y-30319652D01*
X90137174Y-30267326D01*
X90189500Y-30245652D01*
X90241826Y-30267326D01*
X90255433Y-30286055D01*
X90257317Y-30289754D01*
X90257388Y-30289892D01*
X90319586Y-30375500D01*
X90361518Y-30433214D01*
X90486787Y-30558483D01*
X90486790Y-30558485D01*
X90486791Y-30558486D01*
X90608844Y-30647163D01*
X90630111Y-30662614D01*
X90782464Y-30740242D01*
X90787957Y-30743041D01*
X90787961Y-30743043D01*
X90956435Y-30797783D01*
X90956439Y-30797783D01*
X90956446Y-30797786D01*
X91107496Y-30821710D01*
X91131421Y-30825500D01*
X91131422Y-30825500D01*
X91308581Y-30825500D01*
X91329627Y-30822166D01*
X91483556Y-30797786D01*
X91483564Y-30797783D01*
X91483566Y-30797783D01*
X91652040Y-30743043D01*
X91652040Y-30743042D01*
X91652043Y-30743042D01*
X91809891Y-30662614D01*
X91953215Y-30558483D01*
X92078484Y-30433214D01*
X92182615Y-30289890D01*
X92263043Y-30132042D01*
X92308273Y-29992836D01*
X92317784Y-29963565D01*
X92317784Y-29963563D01*
X92317787Y-29963555D01*
X92345501Y-29788579D01*
X92345501Y-29611421D01*
X92343943Y-29601582D01*
X92337618Y-29561647D01*
X92336168Y-29552494D01*
X94049500Y-29552494D01*
X94049500Y-29847506D01*
X94055873Y-29895913D01*
X94088006Y-30139991D01*
X94164361Y-30424953D01*
X94277253Y-30697498D01*
X94277256Y-30697506D01*
X94370428Y-30858884D01*
X94424762Y-30952994D01*
X94604354Y-31187042D01*
X94812958Y-31395646D01*
X95047006Y-31575238D01*
X95302493Y-31722743D01*
X95575048Y-31835639D01*
X95860007Y-31911993D01*
X96152494Y-31950500D01*
X96152496Y-31950500D01*
X96447504Y-31950500D01*
X96447506Y-31950500D01*
X96739993Y-31911993D01*
X97024952Y-31835639D01*
X97297507Y-31722743D01*
X97552994Y-31575238D01*
X97787042Y-31395646D01*
X97995646Y-31187042D01*
X98175238Y-30952994D01*
X98322743Y-30697507D01*
X98435639Y-30424952D01*
X98511993Y-30139993D01*
X98550500Y-29847506D01*
X98550500Y-29611421D01*
X100254499Y-29611421D01*
X100254499Y-29788579D01*
X100277180Y-29931781D01*
X100282213Y-29963554D01*
X100282215Y-29963565D01*
X100336955Y-30132039D01*
X100336957Y-30132043D01*
X100407092Y-30269689D01*
X100415432Y-30286058D01*
X100417383Y-30289886D01*
X100417386Y-30289892D01*
X100479584Y-30375500D01*
X100521516Y-30433214D01*
X100646785Y-30558483D01*
X100646788Y-30558485D01*
X100646789Y-30558486D01*
X100768842Y-30647163D01*
X100790109Y-30662614D01*
X100942462Y-30740242D01*
X100947955Y-30743041D01*
X100947959Y-30743043D01*
X101116433Y-30797783D01*
X101116437Y-30797783D01*
X101116444Y-30797786D01*
X101267494Y-30821710D01*
X101291419Y-30825500D01*
X101291420Y-30825500D01*
X101468579Y-30825500D01*
X101489625Y-30822166D01*
X101643554Y-30797786D01*
X101643562Y-30797783D01*
X101643564Y-30797783D01*
X101812038Y-30743043D01*
X101812038Y-30743042D01*
X101812041Y-30743042D01*
X101969889Y-30662614D01*
X102113213Y-30558483D01*
X102238482Y-30433214D01*
X102342613Y-30289890D01*
X102423041Y-30132042D01*
X102468271Y-29992836D01*
X102477782Y-29963565D01*
X102477782Y-29963563D01*
X102477785Y-29963555D01*
X102505499Y-29788579D01*
X102505499Y-29611421D01*
X102477785Y-29436445D01*
X102477782Y-29436438D01*
X102477782Y-29436434D01*
X102423042Y-29267960D01*
X102423040Y-29267956D01*
X102412548Y-29247364D01*
X102342613Y-29110110D01*
X102297431Y-29047923D01*
X102238485Y-28966790D01*
X102238484Y-28966789D01*
X102238482Y-28966786D01*
X102113213Y-28841517D01*
X102113210Y-28841514D01*
X102113208Y-28841513D01*
X101969891Y-28737387D01*
X101969885Y-28737384D01*
X101812042Y-28656958D01*
X101812038Y-28656956D01*
X101643564Y-28602216D01*
X101643555Y-28602214D01*
X101643554Y-28602214D01*
X101556066Y-28588357D01*
X101468579Y-28574500D01*
X101468578Y-28574500D01*
X101291420Y-28574500D01*
X101291419Y-28574500D01*
X101116444Y-28602214D01*
X101116433Y-28602216D01*
X100947959Y-28656956D01*
X100947955Y-28656958D01*
X100790112Y-28737384D01*
X100790106Y-28737387D01*
X100646789Y-28841513D01*
X100521512Y-28966790D01*
X100417386Y-29110107D01*
X100417383Y-29110113D01*
X100336957Y-29267956D01*
X100336955Y-29267960D01*
X100282215Y-29436434D01*
X100282213Y-29436445D01*
X100260552Y-29573207D01*
X100254499Y-29611421D01*
X98550500Y-29611421D01*
X98550500Y-29552494D01*
X98511993Y-29260007D01*
X98435639Y-28975048D01*
X98322743Y-28702493D01*
X98175238Y-28447006D01*
X97995646Y-28212958D01*
X97787042Y-28004354D01*
X97552994Y-27824762D01*
X97549658Y-27822836D01*
X97297506Y-27677256D01*
X97297498Y-27677253D01*
X97024953Y-27564361D01*
X96739991Y-27488006D01*
X96524518Y-27459638D01*
X96447506Y-27449500D01*
X96152494Y-27449500D01*
X96084441Y-27458459D01*
X95860008Y-27488006D01*
X95575046Y-27564361D01*
X95302501Y-27677253D01*
X95302493Y-27677256D01*
X95047010Y-27824759D01*
X95047006Y-27824761D01*
X95047006Y-27824762D01*
X94814937Y-28002836D01*
X94812953Y-28004358D01*
X94604358Y-28212953D01*
X94604354Y-28212957D01*
X94604354Y-28212958D01*
X94471696Y-28385841D01*
X94424759Y-28447010D01*
X94277256Y-28702493D01*
X94277253Y-28702501D01*
X94164361Y-28975046D01*
X94088006Y-29260008D01*
X94058503Y-29484107D01*
X94049500Y-29552494D01*
X92336168Y-29552494D01*
X92325336Y-29484107D01*
X92317787Y-29436445D01*
X92317784Y-29436438D01*
X92317784Y-29436434D01*
X92292094Y-29357367D01*
X92296538Y-29300904D01*
X92339605Y-29264122D01*
X92362472Y-29260500D01*
X92627672Y-29260500D01*
X92627674Y-29260500D01*
X92900666Y-29224560D01*
X93166632Y-29153295D01*
X93421021Y-29047923D01*
X93659479Y-28910249D01*
X93777487Y-28819698D01*
X93877922Y-28742633D01*
X93877923Y-28742631D01*
X93877928Y-28742628D01*
X94072628Y-28547928D01*
X94077858Y-28541113D01*
X94162490Y-28430817D01*
X94240249Y-28329479D01*
X94377923Y-28091021D01*
X94483295Y-27836632D01*
X94554560Y-27570666D01*
X94590500Y-27297674D01*
X94590500Y-27022326D01*
X94554560Y-26749334D01*
X94483295Y-26483368D01*
X94377923Y-26228979D01*
X94348393Y-26177831D01*
X94240251Y-25990524D01*
X94240247Y-25990518D01*
X94072633Y-25772077D01*
X93877922Y-25577366D01*
X93659481Y-25409752D01*
X93659475Y-25409748D01*
X93421020Y-25272076D01*
X93421017Y-25272075D01*
X93166631Y-25166704D01*
X92900664Y-25095439D01*
X92699552Y-25068962D01*
X92627674Y-25059500D01*
X92352326Y-25059500D01*
X92288810Y-25067862D01*
X92079335Y-25095439D01*
X91813368Y-25166704D01*
X91558982Y-25272075D01*
X91558979Y-25272076D01*
X91320524Y-25409748D01*
X91320518Y-25409752D01*
X91102077Y-25577366D01*
X90907366Y-25772077D01*
X90739752Y-25990518D01*
X90739748Y-25990524D01*
X90602076Y-26228979D01*
X90602075Y-26228982D01*
X90496704Y-26483368D01*
X90425439Y-26749335D01*
X90400379Y-26939688D01*
X90389500Y-27022326D01*
X90389500Y-27297674D01*
X90393994Y-27331808D01*
X90425439Y-27570664D01*
X90496704Y-27836631D01*
X90602075Y-28091017D01*
X90602076Y-28091020D01*
X90739748Y-28329475D01*
X90739752Y-28329481D01*
X90886765Y-28521073D01*
X90901424Y-28575780D01*
X90873105Y-28624829D01*
X90850924Y-28636499D01*
X90787962Y-28656956D01*
X90787957Y-28656958D01*
X90630114Y-28737384D01*
X90630108Y-28737387D01*
X90486791Y-28841513D01*
X90361514Y-28966790D01*
X90257388Y-29110107D01*
X90257385Y-29110113D01*
X90176958Y-29267957D01*
X90176957Y-29267961D01*
X90173605Y-29278277D01*
X90136820Y-29321342D01*
X90080357Y-29325783D01*
X90050902Y-29307732D01*
X90037665Y-29294495D01*
X89917836Y-29225312D01*
X89917831Y-29225310D01*
X89784185Y-29189500D01*
X89784183Y-29189500D01*
X89645817Y-29189500D01*
X89645815Y-29189500D01*
X89512168Y-29225310D01*
X89512163Y-29225312D01*
X89392334Y-29294495D01*
X89294495Y-29392334D01*
X89225312Y-29512163D01*
X89225310Y-29512168D01*
X89189500Y-29645814D01*
X89189500Y-29784185D01*
X89225310Y-29917831D01*
X89225312Y-29917836D01*
X89294496Y-30037667D01*
X89297448Y-30041514D01*
X89295675Y-30042874D01*
X89314500Y-30088322D01*
X89314500Y-36818455D01*
X89292826Y-36870781D01*
X88185781Y-37977826D01*
X88133455Y-37999500D01*
X82187021Y-37999500D01*
X82134695Y-37977826D01*
X82113021Y-37925500D01*
X82115542Y-37906348D01*
X82121247Y-37885055D01*
X82125500Y-37869183D01*
X82125500Y-37730817D01*
X82125500Y-37730815D01*
X82125499Y-37730814D01*
X82124197Y-37725956D01*
X82089688Y-37597164D01*
X82020505Y-37477335D01*
X81922665Y-37379495D01*
X81802836Y-37310312D01*
X81802831Y-37310310D01*
X81669185Y-37274500D01*
X81669183Y-37274500D01*
X81530817Y-37274500D01*
X81530815Y-37274500D01*
X81397168Y-37310310D01*
X81397163Y-37310312D01*
X81277334Y-37379495D01*
X81179495Y-37477334D01*
X81110312Y-37597163D01*
X81110310Y-37597168D01*
X81074500Y-37730814D01*
X81074500Y-37730817D01*
X81074500Y-37869183D01*
X81078753Y-37885055D01*
X81084458Y-37906348D01*
X81077065Y-37962501D01*
X81032131Y-37996979D01*
X81012979Y-37999500D01*
X69439433Y-37999500D01*
X69387107Y-37977826D01*
X69365433Y-37925500D01*
X69379160Y-37885055D01*
X69378349Y-37884587D01*
X69380703Y-37880509D01*
X69380721Y-37880457D01*
X69380771Y-37880391D01*
X69380772Y-37880388D01*
X69380774Y-37880387D01*
X69449957Y-37760558D01*
X69485769Y-37626905D01*
X69485769Y-37626899D01*
X69486402Y-37622098D01*
X69488617Y-37622389D01*
X69507443Y-37576941D01*
X69800076Y-37284308D01*
X70101065Y-36983318D01*
X70153390Y-36961645D01*
X70205716Y-36983319D01*
X70227390Y-37035645D01*
X70224869Y-37054797D01*
X70204500Y-37130817D01*
X70204500Y-37269185D01*
X70240310Y-37402831D01*
X70240312Y-37402836D01*
X70309495Y-37522665D01*
X70407335Y-37620505D01*
X70527164Y-37689688D01*
X70660814Y-37725499D01*
X70660815Y-37725500D01*
X70660817Y-37725500D01*
X70799185Y-37725500D01*
X70799185Y-37725499D01*
X70932836Y-37689688D01*
X71052665Y-37620505D01*
X71150505Y-37522665D01*
X71219688Y-37402836D01*
X71255499Y-37269185D01*
X71255500Y-37269185D01*
X71255500Y-37130815D01*
X71255499Y-37130814D01*
X71252736Y-37120504D01*
X71219688Y-36997164D01*
X71181381Y-36930814D01*
X75949500Y-36930814D01*
X75949500Y-37069185D01*
X75985310Y-37202831D01*
X75985312Y-37202836D01*
X76054495Y-37322665D01*
X76152335Y-37420505D01*
X76272164Y-37489688D01*
X76405814Y-37525499D01*
X76405815Y-37525500D01*
X76405817Y-37525500D01*
X76544185Y-37525500D01*
X76544185Y-37525499D01*
X76677836Y-37489688D01*
X76797665Y-37420505D01*
X76895505Y-37322665D01*
X76964688Y-37202836D01*
X77000499Y-37069185D01*
X77000500Y-37069185D01*
X77000500Y-37030814D01*
X78199500Y-37030814D01*
X78199500Y-37169185D01*
X78235310Y-37302831D01*
X78235312Y-37302836D01*
X78304495Y-37422665D01*
X78402335Y-37520505D01*
X78522164Y-37589688D01*
X78655814Y-37625499D01*
X78655815Y-37625500D01*
X78655817Y-37625500D01*
X78794185Y-37625500D01*
X78794185Y-37625499D01*
X78927836Y-37589688D01*
X79047665Y-37520505D01*
X79145505Y-37422665D01*
X79214688Y-37302836D01*
X79250499Y-37169185D01*
X79250500Y-37169185D01*
X79250500Y-37030815D01*
X79250499Y-37030814D01*
X79247736Y-37020504D01*
X79214688Y-36897164D01*
X79145505Y-36777335D01*
X79047665Y-36679495D01*
X78927836Y-36610312D01*
X78927831Y-36610310D01*
X78794185Y-36574500D01*
X78794183Y-36574500D01*
X78655817Y-36574500D01*
X78655815Y-36574500D01*
X78522168Y-36610310D01*
X78522163Y-36610312D01*
X78402334Y-36679495D01*
X78304495Y-36777334D01*
X78235312Y-36897163D01*
X78235310Y-36897168D01*
X78199500Y-37030814D01*
X77000500Y-37030814D01*
X77000500Y-36930815D01*
X77000499Y-36930814D01*
X76999855Y-36928412D01*
X76964688Y-36797164D01*
X76895505Y-36677335D01*
X76797665Y-36579495D01*
X76677836Y-36510312D01*
X76677831Y-36510310D01*
X76544185Y-36474500D01*
X76544183Y-36474500D01*
X76405817Y-36474500D01*
X76405815Y-36474500D01*
X76272168Y-36510310D01*
X76272163Y-36510312D01*
X76152334Y-36579495D01*
X76054495Y-36677334D01*
X75985312Y-36797163D01*
X75985310Y-36797168D01*
X75949500Y-36930814D01*
X71181381Y-36930814D01*
X71150505Y-36877335D01*
X71052665Y-36779495D01*
X70932836Y-36710312D01*
X70932831Y-36710310D01*
X70799185Y-36674500D01*
X70799183Y-36674500D01*
X70660817Y-36674500D01*
X70584797Y-36694869D01*
X70528645Y-36687476D01*
X70494166Y-36642542D01*
X70501559Y-36586390D01*
X70513315Y-36571068D01*
X71303569Y-35780814D01*
X71724500Y-35780814D01*
X71724500Y-35919185D01*
X71760310Y-36052831D01*
X71760312Y-36052836D01*
X71829495Y-36172665D01*
X71927335Y-36270505D01*
X72047164Y-36339688D01*
X72180814Y-36375499D01*
X72180815Y-36375500D01*
X72180817Y-36375500D01*
X72319185Y-36375500D01*
X72319185Y-36375499D01*
X72452836Y-36339688D01*
X72572665Y-36270505D01*
X72670505Y-36172665D01*
X72739688Y-36052836D01*
X72775499Y-35919185D01*
X72775500Y-35919185D01*
X72775500Y-35780815D01*
X72775499Y-35780814D01*
X72756368Y-35709417D01*
X72739688Y-35647164D01*
X72670505Y-35527335D01*
X72572665Y-35429495D01*
X72452836Y-35360312D01*
X72452831Y-35360310D01*
X72319185Y-35324500D01*
X72319183Y-35324500D01*
X72180817Y-35324500D01*
X72180815Y-35324500D01*
X72047168Y-35360310D01*
X72047163Y-35360312D01*
X71927334Y-35429495D01*
X71829495Y-35527334D01*
X71760312Y-35647163D01*
X71760310Y-35647168D01*
X71724500Y-35780814D01*
X71303569Y-35780814D01*
X74003570Y-33080814D01*
X76964500Y-33080814D01*
X76964500Y-33219185D01*
X77000310Y-33352831D01*
X77000312Y-33352836D01*
X77069495Y-33472665D01*
X77167335Y-33570505D01*
X77287164Y-33639688D01*
X77420814Y-33675499D01*
X77420815Y-33675500D01*
X77420817Y-33675500D01*
X77559185Y-33675500D01*
X77559185Y-33675499D01*
X77692836Y-33639688D01*
X77812665Y-33570505D01*
X77910505Y-33472665D01*
X77979688Y-33352836D01*
X78015499Y-33219185D01*
X78015500Y-33219185D01*
X78015500Y-33080815D01*
X78015499Y-33080814D01*
X78007107Y-33049496D01*
X77979688Y-32947164D01*
X77910505Y-32827335D01*
X77812665Y-32729495D01*
X77692836Y-32660312D01*
X77692831Y-32660310D01*
X77559185Y-32624500D01*
X77559183Y-32624500D01*
X77420817Y-32624500D01*
X77420815Y-32624500D01*
X77287168Y-32660310D01*
X77287163Y-32660312D01*
X77167334Y-32729495D01*
X77069495Y-32827334D01*
X77000312Y-32947163D01*
X77000310Y-32947168D01*
X76964500Y-33080814D01*
X74003570Y-33080814D01*
X75812210Y-31272174D01*
X75864536Y-31250500D01*
X76426678Y-31250500D01*
X76472125Y-31269324D01*
X76473486Y-31267552D01*
X76477332Y-31270503D01*
X76477334Y-31270504D01*
X76477335Y-31270505D01*
X76597164Y-31339688D01*
X76730814Y-31375499D01*
X76730815Y-31375500D01*
X76730817Y-31375500D01*
X76869185Y-31375500D01*
X76869185Y-31375499D01*
X77002836Y-31339688D01*
X77122665Y-31270505D01*
X77220505Y-31172665D01*
X77289688Y-31052836D01*
X77325499Y-30919185D01*
X77325500Y-30919185D01*
X77325500Y-30780815D01*
X77325499Y-30780814D01*
X77315378Y-30743043D01*
X77289688Y-30647164D01*
X77254662Y-30586498D01*
X77247270Y-30530348D01*
X77281749Y-30485414D01*
X77318749Y-30475500D01*
X77419185Y-30475500D01*
X77419185Y-30475499D01*
X77552836Y-30439688D01*
X77672665Y-30370505D01*
X77770505Y-30272665D01*
X77839688Y-30152836D01*
X77875499Y-30019185D01*
X77875500Y-30019185D01*
X77875500Y-29880815D01*
X77875499Y-29880814D01*
X77855074Y-29804588D01*
X77839688Y-29747164D01*
X77819096Y-29711498D01*
X77811705Y-29655347D01*
X77846183Y-29610414D01*
X77883183Y-29600500D01*
X78802726Y-29600500D01*
X78802727Y-29600500D01*
X78904588Y-29573207D01*
X78995913Y-29520480D01*
X79370480Y-29145913D01*
X79423207Y-29054588D01*
X79450500Y-28952727D01*
X79450500Y-28873322D01*
X79469324Y-28827874D01*
X79467552Y-28826514D01*
X79470503Y-28822667D01*
X79470505Y-28822665D01*
X79539688Y-28702836D01*
X79575499Y-28569185D01*
X79575500Y-28569185D01*
X79575500Y-28430815D01*
X79575499Y-28430814D01*
X79568002Y-28402836D01*
X79539688Y-28297164D01*
X79476083Y-28186997D01*
X79468691Y-28130848D01*
X79476081Y-28113006D01*
X79539688Y-28002836D01*
X79575499Y-27869185D01*
X79575500Y-27869185D01*
X79575500Y-27730815D01*
X79575499Y-27730814D01*
X79567376Y-27700500D01*
X79539688Y-27597164D01*
X79470505Y-27477335D01*
X79372665Y-27379495D01*
X79252836Y-27310312D01*
X79252831Y-27310310D01*
X79119185Y-27274500D01*
X79119183Y-27274500D01*
X78980817Y-27274500D01*
X78980815Y-27274500D01*
X78847168Y-27310310D01*
X78847163Y-27310312D01*
X78727332Y-27379496D01*
X78723486Y-27382448D01*
X78722125Y-27380675D01*
X78676678Y-27399500D01*
X74788845Y-27399500D01*
X74772975Y-27392926D01*
X74755839Y-27391732D01*
X74747815Y-27382505D01*
X74736519Y-27377826D01*
X74729945Y-27361955D01*
X74718674Y-27348994D01*
X74719827Y-27337528D01*
X74714845Y-27325500D01*
X74722613Y-27292494D01*
X74723618Y-27290476D01*
X74773206Y-27204588D01*
X74779172Y-27182324D01*
X74800499Y-27102730D01*
X74800500Y-27102730D01*
X74800500Y-26992745D01*
X74800499Y-26992727D01*
X74800499Y-24930814D01*
X81374500Y-24930814D01*
X81374500Y-25069185D01*
X81410310Y-25202831D01*
X81410312Y-25202836D01*
X81479495Y-25322665D01*
X81577335Y-25420505D01*
X81697164Y-25489688D01*
X81830814Y-25525499D01*
X81830815Y-25525500D01*
X81830817Y-25525500D01*
X81969185Y-25525500D01*
X81969185Y-25525499D01*
X82102836Y-25489688D01*
X82222665Y-25420505D01*
X82320505Y-25322665D01*
X82389688Y-25202836D01*
X82425499Y-25069185D01*
X82425500Y-25069185D01*
X82425500Y-24930815D01*
X82425499Y-24930814D01*
X82422736Y-24920504D01*
X82389688Y-24797164D01*
X82320505Y-24677335D01*
X82222665Y-24579495D01*
X82102836Y-24510312D01*
X82102831Y-24510310D01*
X81969185Y-24474500D01*
X81969183Y-24474500D01*
X81830817Y-24474500D01*
X81830815Y-24474500D01*
X81697168Y-24510310D01*
X81697163Y-24510312D01*
X81577334Y-24579495D01*
X81479495Y-24677334D01*
X81410312Y-24797163D01*
X81410310Y-24797168D01*
X81374500Y-24930814D01*
X74800499Y-24930814D01*
X74800499Y-23340814D01*
X75924500Y-23340814D01*
X75924500Y-23479185D01*
X75960310Y-23612831D01*
X75960312Y-23612836D01*
X76029495Y-23732665D01*
X76127335Y-23830505D01*
X76247164Y-23899688D01*
X76380814Y-23935499D01*
X76380815Y-23935500D01*
X76380817Y-23935500D01*
X76519185Y-23935500D01*
X76519185Y-23935499D01*
X76652836Y-23899688D01*
X76772665Y-23830505D01*
X76870505Y-23732665D01*
X76939688Y-23612836D01*
X76975499Y-23479185D01*
X76975500Y-23479185D01*
X76975500Y-23340815D01*
X76975499Y-23340814D01*
X76971409Y-23325551D01*
X76939688Y-23207164D01*
X76870505Y-23087335D01*
X76772665Y-22989495D01*
X76652836Y-22920312D01*
X76652831Y-22920310D01*
X76519185Y-22884500D01*
X76519183Y-22884500D01*
X76380817Y-22884500D01*
X76380815Y-22884500D01*
X76247168Y-22920310D01*
X76247163Y-22920312D01*
X76127334Y-22989495D01*
X76029495Y-23087334D01*
X75960312Y-23207163D01*
X75960310Y-23207168D01*
X75924500Y-23340814D01*
X74800499Y-23340814D01*
X74800499Y-23246546D01*
X74822173Y-23194220D01*
X75269219Y-22747174D01*
X75314667Y-22728348D01*
X75314376Y-22726133D01*
X75319177Y-22725500D01*
X75319183Y-22725500D01*
X75452836Y-22689688D01*
X75572665Y-22620505D01*
X75572667Y-22620503D01*
X75576514Y-22617552D01*
X75577874Y-22619324D01*
X75623322Y-22600500D01*
X77226678Y-22600500D01*
X77272125Y-22619324D01*
X77273486Y-22617552D01*
X77277332Y-22620503D01*
X77277334Y-22620504D01*
X77277335Y-22620505D01*
X77397164Y-22689688D01*
X77530814Y-22725499D01*
X77530815Y-22725500D01*
X77530817Y-22725500D01*
X77669185Y-22725500D01*
X77669185Y-22725499D01*
X77802836Y-22689688D01*
X77842414Y-22666838D01*
X84999500Y-22666838D01*
X84999500Y-36733161D01*
X85028379Y-36896946D01*
X85073352Y-37020505D01*
X85085264Y-37053233D01*
X85168422Y-37197267D01*
X85275327Y-37324673D01*
X85402733Y-37431578D01*
X85546767Y-37514736D01*
X85703053Y-37571620D01*
X85866842Y-37600500D01*
X85866846Y-37600500D01*
X86033154Y-37600500D01*
X86033158Y-37600500D01*
X86196947Y-37571620D01*
X86353233Y-37514736D01*
X86497267Y-37431578D01*
X86624673Y-37324673D01*
X86731578Y-37197267D01*
X86814736Y-37053233D01*
X86871620Y-36896947D01*
X86900500Y-36733158D01*
X86900500Y-36650000D01*
X86900500Y-36610118D01*
X86900500Y-24482326D01*
X96739500Y-24482326D01*
X96739500Y-24757674D01*
X96747858Y-24821158D01*
X96775439Y-25030664D01*
X96846704Y-25296631D01*
X96952075Y-25551017D01*
X96952076Y-25551020D01*
X97089748Y-25789475D01*
X97089752Y-25789481D01*
X97257366Y-26007922D01*
X97452077Y-26202633D01*
X97670518Y-26370247D01*
X97670524Y-26370251D01*
X97879172Y-26490714D01*
X97908979Y-26507923D01*
X98163368Y-26613295D01*
X98429334Y-26684560D01*
X98702326Y-26720500D01*
X98702328Y-26720500D01*
X98977672Y-26720500D01*
X98977674Y-26720500D01*
X99250666Y-26684560D01*
X99516632Y-26613295D01*
X99771021Y-26507923D01*
X100009479Y-26370249D01*
X100189295Y-26232272D01*
X100227922Y-26202633D01*
X100227923Y-26202631D01*
X100227928Y-26202628D01*
X100422628Y-26007928D01*
X100435983Y-25990524D01*
X100590247Y-25789481D01*
X100590249Y-25789479D01*
X100727923Y-25551021D01*
X100833295Y-25296632D01*
X100904560Y-25030666D01*
X100940500Y-24757674D01*
X100940500Y-24482326D01*
X100904560Y-24209334D01*
X100833295Y-23943368D01*
X100727923Y-23688979D01*
X100649321Y-23552836D01*
X100590251Y-23450524D01*
X100590247Y-23450518D01*
X100422633Y-23232077D01*
X100227922Y-23037366D01*
X100009481Y-22869752D01*
X100009475Y-22869748D01*
X99771020Y-22732076D01*
X99771017Y-22732075D01*
X99516631Y-22626704D01*
X99250664Y-22555439D01*
X99049552Y-22528962D01*
X98977674Y-22519500D01*
X98702326Y-22519500D01*
X98638810Y-22527862D01*
X98429335Y-22555439D01*
X98163368Y-22626704D01*
X97908982Y-22732075D01*
X97908979Y-22732076D01*
X97670524Y-22869748D01*
X97670518Y-22869752D01*
X97452077Y-23037366D01*
X97257366Y-23232077D01*
X97089752Y-23450518D01*
X97089748Y-23450524D01*
X96952076Y-23688979D01*
X96952075Y-23688982D01*
X96846704Y-23943368D01*
X96775439Y-24209335D01*
X96746281Y-24430817D01*
X96739500Y-24482326D01*
X86900500Y-24482326D01*
X86900500Y-22710118D01*
X86900500Y-22666842D01*
X86871620Y-22503053D01*
X86814736Y-22346767D01*
X86731578Y-22202733D01*
X86624673Y-22075327D01*
X86497267Y-21968422D01*
X86353233Y-21885264D01*
X86330487Y-21876985D01*
X86196946Y-21828379D01*
X86033161Y-21799500D01*
X86033158Y-21799500D01*
X85989882Y-21799500D01*
X85950000Y-21799500D01*
X85866842Y-21799500D01*
X85866838Y-21799500D01*
X85703053Y-21828379D01*
X85546769Y-21885263D01*
X85546767Y-21885263D01*
X85546767Y-21885264D01*
X85465683Y-21932078D01*
X85402733Y-21968422D01*
X85275327Y-22075327D01*
X85168422Y-22202733D01*
X85085263Y-22346769D01*
X85028379Y-22503053D01*
X84999500Y-22666838D01*
X77842414Y-22666838D01*
X77922665Y-22620505D01*
X78020505Y-22522665D01*
X78089688Y-22402836D01*
X78125499Y-22269185D01*
X78125500Y-22269185D01*
X78125500Y-22130815D01*
X78125499Y-22130814D01*
X78120153Y-22110864D01*
X78089688Y-21997164D01*
X78020505Y-21877335D01*
X77922665Y-21779495D01*
X77802836Y-21710312D01*
X77802831Y-21710310D01*
X77669185Y-21674500D01*
X77669183Y-21674500D01*
X77530817Y-21674500D01*
X77530815Y-21674500D01*
X77397168Y-21710310D01*
X77397163Y-21710312D01*
X77277332Y-21779496D01*
X77273486Y-21782448D01*
X77272125Y-21780675D01*
X77226678Y-21799500D01*
X75623322Y-21799500D01*
X75577874Y-21780675D01*
X75576514Y-21782448D01*
X75572667Y-21779496D01*
X75452836Y-21710312D01*
X75452831Y-21710310D01*
X75319185Y-21674500D01*
X75319183Y-21674500D01*
X75180817Y-21674500D01*
X75180815Y-21674500D01*
X75047168Y-21710310D01*
X75047163Y-21710312D01*
X74927334Y-21779495D01*
X74829495Y-21877334D01*
X74760312Y-21997163D01*
X74760310Y-21997168D01*
X74724500Y-22130814D01*
X74723867Y-22135624D01*
X74721651Y-22135332D01*
X74702826Y-22180781D01*
X74079515Y-22804092D01*
X74038670Y-22874837D01*
X73993737Y-22909315D01*
X73937586Y-22901922D01*
X73882836Y-22870312D01*
X73882831Y-22870310D01*
X73749185Y-22834500D01*
X73749183Y-22834500D01*
X73610817Y-22834500D01*
X73610815Y-22834500D01*
X73477168Y-22870310D01*
X73477163Y-22870312D01*
X73357334Y-22939495D01*
X73259495Y-23037334D01*
X73251086Y-23051900D01*
X73206153Y-23086379D01*
X73150000Y-23078986D01*
X73115521Y-23034053D01*
X73113000Y-23014900D01*
X73113000Y-21448322D01*
X73131824Y-21402874D01*
X73130052Y-21401514D01*
X73133003Y-21397667D01*
X73133005Y-21397665D01*
X73202188Y-21277836D01*
X73237999Y-21144185D01*
X73238000Y-21144185D01*
X73238000Y-21005815D01*
X73237999Y-21005814D01*
X73233735Y-20989902D01*
X73202188Y-20872164D01*
X73133005Y-20752335D01*
X73035165Y-20654495D01*
X72915336Y-20585312D01*
X72915331Y-20585310D01*
X72781685Y-20549500D01*
X72781683Y-20549500D01*
X72643317Y-20549500D01*
X72643315Y-20549500D01*
X72509668Y-20585310D01*
X72509663Y-20585312D01*
X72389834Y-20654495D01*
X72291995Y-20752334D01*
X72222812Y-20872163D01*
X72222810Y-20872168D01*
X72187000Y-21005814D01*
X72187000Y-21144185D01*
X72222810Y-21277831D01*
X72222812Y-21277836D01*
X72291996Y-21397667D01*
X72294948Y-21401514D01*
X72293175Y-21402874D01*
X72312000Y-21448322D01*
X72312000Y-22977677D01*
X72290326Y-23030003D01*
X72238000Y-23051677D01*
X72185674Y-23030003D01*
X72085166Y-22929495D01*
X71965337Y-22860312D01*
X71965332Y-22860310D01*
X71831686Y-22824500D01*
X71831684Y-22824500D01*
X71693318Y-22824500D01*
X71693316Y-22824500D01*
X71559669Y-22860310D01*
X71559664Y-22860312D01*
X71439835Y-22929495D01*
X71339326Y-23030005D01*
X71287000Y-23051679D01*
X71234674Y-23030005D01*
X71213000Y-22977679D01*
X71213000Y-21423322D01*
X71231824Y-21377874D01*
X71230052Y-21376514D01*
X71233003Y-21372667D01*
X71233005Y-21372665D01*
X71302188Y-21252836D01*
X71337999Y-21119185D01*
X71338000Y-21119185D01*
X71338000Y-20980815D01*
X71337999Y-20980814D01*
X71335007Y-20969649D01*
X71302188Y-20847164D01*
X71233005Y-20727335D01*
X71135165Y-20629495D01*
X71015336Y-20560312D01*
X71015331Y-20560310D01*
X70881685Y-20524500D01*
X70881683Y-20524500D01*
X70743317Y-20524500D01*
X70743315Y-20524500D01*
X70609668Y-20560310D01*
X70609663Y-20560312D01*
X70489834Y-20629495D01*
X70391995Y-20727334D01*
X70322812Y-20847163D01*
X70322810Y-20847168D01*
X70287000Y-20980814D01*
X70287000Y-21119185D01*
X70322810Y-21252831D01*
X70322812Y-21252836D01*
X70391996Y-21372667D01*
X70394948Y-21376514D01*
X70393175Y-21377874D01*
X70412000Y-21423322D01*
X70412000Y-21716816D01*
X70390326Y-21769142D01*
X70338000Y-21790816D01*
X70301001Y-21780903D01*
X70289910Y-21774500D01*
X70265336Y-21760312D01*
X70265332Y-21760311D01*
X70265331Y-21760310D01*
X70131685Y-21724500D01*
X70131683Y-21724500D01*
X69993317Y-21724500D01*
X69993315Y-21724500D01*
X69859668Y-21760310D01*
X69855182Y-21762169D01*
X69854364Y-21760194D01*
X69805338Y-21766642D01*
X69760409Y-21732157D01*
X69750500Y-21695166D01*
X69750500Y-21221158D01*
X69719738Y-21066508D01*
X69719737Y-21066507D01*
X69719737Y-21066503D01*
X69700684Y-21020504D01*
X69659396Y-20920825D01*
X69659395Y-20920823D01*
X69659394Y-20920821D01*
X69571789Y-20789711D01*
X69460289Y-20678211D01*
X69458976Y-20677334D01*
X69424809Y-20654504D01*
X69329179Y-20590606D01*
X69329175Y-20590604D01*
X69329173Y-20590603D01*
X69329174Y-20590603D01*
X69183501Y-20530264D01*
X69183491Y-20530261D01*
X69079925Y-20509661D01*
X69028842Y-20499500D01*
X68871158Y-20499500D01*
X68827315Y-20508220D01*
X68716508Y-20530261D01*
X68716498Y-20530264D01*
X68570825Y-20590603D01*
X68485612Y-20647541D01*
X68430063Y-20658590D01*
X68382971Y-20627124D01*
X68370500Y-20586012D01*
X68370500Y-20274500D01*
X68392174Y-20222174D01*
X68444500Y-20200500D01*
X73895685Y-20200500D01*
X73913532Y-20207892D01*
G37*
%TD.AperFunction*%
%TA.AperFunction,Conductor*%
G36*
X75368969Y-29622174D02*
G01*
X75390643Y-29674500D01*
X75368969Y-29726826D01*
X75129992Y-29965803D01*
X75129989Y-29965806D01*
X75128520Y-29967276D01*
X75125936Y-29971749D01*
X75124366Y-29974053D01*
X75123058Y-29974908D01*
X75115558Y-29984682D01*
X71749031Y-33351209D01*
X71696705Y-33372883D01*
X71644379Y-33351209D01*
X71572665Y-33279495D01*
X71452836Y-33210312D01*
X71452831Y-33210310D01*
X71319185Y-33174500D01*
X71319183Y-33174500D01*
X71180817Y-33174500D01*
X71180815Y-33174500D01*
X71047168Y-33210310D01*
X71047163Y-33210312D01*
X70927334Y-33279495D01*
X70829495Y-33377334D01*
X70760312Y-33497163D01*
X70760310Y-33497168D01*
X70724500Y-33630814D01*
X70724500Y-33769185D01*
X70760310Y-33902831D01*
X70760312Y-33902836D01*
X70829495Y-34022665D01*
X70901209Y-34094379D01*
X70922883Y-34146705D01*
X70901209Y-34199031D01*
X70260329Y-34839911D01*
X70208003Y-34861585D01*
X70155677Y-34839911D01*
X70148785Y-34830929D01*
X70148457Y-34831182D01*
X70145506Y-34827336D01*
X70047665Y-34729495D01*
X69927836Y-34660312D01*
X69927831Y-34660310D01*
X69794185Y-34624500D01*
X69794183Y-34624500D01*
X69655817Y-34624500D01*
X69655815Y-34624500D01*
X69522168Y-34660310D01*
X69522163Y-34660312D01*
X69402334Y-34729495D01*
X69377827Y-34754003D01*
X69347176Y-34766698D01*
X69325502Y-34775677D01*
X69325501Y-34775676D01*
X69325501Y-34775677D01*
X69292882Y-34762166D01*
X69273176Y-34754004D01*
X69273175Y-34754003D01*
X69251501Y-34701678D01*
X69251501Y-34700504D01*
X69251501Y-34646273D01*
X69251500Y-34646269D01*
X69251500Y-33671222D01*
X69273174Y-33618896D01*
X73269896Y-29622174D01*
X73322222Y-29600500D01*
X75316643Y-29600500D01*
X75368969Y-29622174D01*
G37*
%TD.AperFunction*%
%TA.AperFunction,Conductor*%
G36*
X69132325Y-29068718D02*
G01*
X69161281Y-29097674D01*
X69182955Y-29150000D01*
X69161281Y-29202326D01*
X69060781Y-29302826D01*
X69025865Y-29322423D01*
X69017284Y-29324500D01*
X69010817Y-29324500D01*
X68950346Y-29340702D01*
X68949458Y-29340918D01*
X68922305Y-29336669D01*
X68895048Y-29333081D01*
X68894458Y-29332312D01*
X68893501Y-29332163D01*
X68877294Y-29309944D01*
X68860569Y-29288147D01*
X68860695Y-29287187D01*
X68860125Y-29286405D01*
X68864376Y-29259235D01*
X68867962Y-29231995D01*
X68868811Y-29230888D01*
X68868880Y-29230448D01*
X68869491Y-29230002D01*
X68879715Y-29216677D01*
X69027676Y-29068716D01*
X69079999Y-29047044D01*
X69132325Y-29068718D01*
G37*
%TD.AperFunction*%
%TA.AperFunction,Conductor*%
G36*
X78542101Y-28222174D02*
G01*
X78563775Y-28274500D01*
X78561253Y-28293653D01*
X78524500Y-28430814D01*
X78524500Y-28569185D01*
X78561253Y-28706347D01*
X78553861Y-28762500D01*
X78508928Y-28796978D01*
X78489775Y-28799500D01*
X73845545Y-28799500D01*
X73793219Y-28777826D01*
X73771545Y-28725500D01*
X73793219Y-28673174D01*
X74244219Y-28222174D01*
X74296545Y-28200500D01*
X78489775Y-28200500D01*
X78542101Y-28222174D01*
G37*
%TD.AperFunction*%
%TD*%
M02*
